G04 #@! TF.GenerationSoftware,KiCad,Pcbnew,5.1.9-73d0e3b20d~88~ubuntu18.04.1*
G04 #@! TF.CreationDate,2021-02-15T13:14:34-05:00*
G04 #@! TF.ProjectId,connector,636f6e6e-6563-4746-9f72-2e6b69636164,v1.0.0*
G04 #@! TF.SameCoordinates,Original*
G04 #@! TF.FileFunction,Legend,Bot*
G04 #@! TF.FilePolarity,Positive*
%FSLAX46Y46*%
G04 Gerber Fmt 4.6, Leading zero omitted, Abs format (unit mm)*
G04 Created by KiCad (PCBNEW 5.1.9-73d0e3b20d~88~ubuntu18.04.1) date 2021-02-15 13:14:34*
%MOMM*%
%LPD*%
G01*
G04 APERTURE LIST*
%ADD10C,0.200000*%
%ADD11C,0.120000*%
%ADD12C,0.150000*%
G04 APERTURE END LIST*
D10*
X107323933Y-99917209D02*
X107209647Y-99955304D01*
X107019171Y-99955304D01*
X106942980Y-99917209D01*
X106904885Y-99879114D01*
X106866790Y-99802923D01*
X106866790Y-99726733D01*
X106904885Y-99650542D01*
X106942980Y-99612447D01*
X107019171Y-99574352D01*
X107171552Y-99536257D01*
X107247742Y-99498161D01*
X107285838Y-99460066D01*
X107323933Y-99383876D01*
X107323933Y-99307685D01*
X107285838Y-99231495D01*
X107247742Y-99193400D01*
X107171552Y-99155304D01*
X106981076Y-99155304D01*
X106866790Y-99193400D01*
X106523933Y-99955304D02*
X106523933Y-99421971D01*
X106523933Y-99155304D02*
X106562028Y-99193400D01*
X106523933Y-99231495D01*
X106485838Y-99193400D01*
X106523933Y-99155304D01*
X106523933Y-99231495D01*
X106028695Y-99955304D02*
X106104885Y-99917209D01*
X106142980Y-99841019D01*
X106142980Y-99155304D01*
X105419171Y-99917209D02*
X105495361Y-99955304D01*
X105647742Y-99955304D01*
X105723933Y-99917209D01*
X105762028Y-99841019D01*
X105762028Y-99536257D01*
X105723933Y-99460066D01*
X105647742Y-99421971D01*
X105495361Y-99421971D01*
X105419171Y-99460066D01*
X105381076Y-99536257D01*
X105381076Y-99612447D01*
X105762028Y-99688638D01*
X105038219Y-99421971D02*
X105038219Y-99955304D01*
X105038219Y-99498161D02*
X105000123Y-99460066D01*
X104923933Y-99421971D01*
X104809647Y-99421971D01*
X104733457Y-99460066D01*
X104695361Y-99536257D01*
X104695361Y-99955304D01*
X104428695Y-99421971D02*
X104123933Y-99421971D01*
X104314409Y-99155304D02*
X104314409Y-99841019D01*
X104276314Y-99917209D01*
X104200123Y-99955304D01*
X104123933Y-99955304D01*
X103247742Y-99955304D02*
X103247742Y-99155304D01*
X103057266Y-99155304D01*
X102942980Y-99193400D01*
X102866790Y-99269590D01*
X102828695Y-99345780D01*
X102790600Y-99498161D01*
X102790600Y-99612447D01*
X102828695Y-99764828D01*
X102866790Y-99841019D01*
X102942980Y-99917209D01*
X103057266Y-99955304D01*
X103247742Y-99955304D01*
X102447742Y-99955304D02*
X102447742Y-99421971D01*
X102447742Y-99574352D02*
X102409647Y-99498161D01*
X102371552Y-99460066D01*
X102295361Y-99421971D01*
X102219171Y-99421971D01*
X101952504Y-99955304D02*
X101952504Y-99421971D01*
X101952504Y-99155304D02*
X101990600Y-99193400D01*
X101952504Y-99231495D01*
X101914409Y-99193400D01*
X101952504Y-99155304D01*
X101952504Y-99231495D01*
X101571552Y-99421971D02*
X101571552Y-100221971D01*
X101571552Y-99460066D02*
X101495361Y-99421971D01*
X101342980Y-99421971D01*
X101266790Y-99460066D01*
X101228695Y-99498161D01*
X101190600Y-99574352D01*
X101190600Y-99802923D01*
X101228695Y-99879114D01*
X101266790Y-99917209D01*
X101342980Y-99955304D01*
X101495361Y-99955304D01*
X101571552Y-99917209D01*
X100847742Y-99421971D02*
X100847742Y-100221971D01*
X100847742Y-99460066D02*
X100771552Y-99421971D01*
X100619171Y-99421971D01*
X100542980Y-99460066D01*
X100504885Y-99498161D01*
X100466790Y-99574352D01*
X100466790Y-99802923D01*
X100504885Y-99879114D01*
X100542980Y-99917209D01*
X100619171Y-99955304D01*
X100771552Y-99955304D01*
X100847742Y-99917209D01*
X99819171Y-99917209D02*
X99895361Y-99955304D01*
X100047742Y-99955304D01*
X100123933Y-99917209D01*
X100162028Y-99841019D01*
X100162028Y-99536257D01*
X100123933Y-99460066D01*
X100047742Y-99421971D01*
X99895361Y-99421971D01*
X99819171Y-99460066D01*
X99781076Y-99536257D01*
X99781076Y-99612447D01*
X100162028Y-99688638D01*
X99438219Y-99955304D02*
X99438219Y-99421971D01*
X99438219Y-99574352D02*
X99400123Y-99498161D01*
X99362028Y-99460066D01*
X99285838Y-99421971D01*
X99209647Y-99421971D01*
X97876314Y-99879114D02*
X97914409Y-99917209D01*
X98028695Y-99955304D01*
X98104885Y-99955304D01*
X98219171Y-99917209D01*
X98295361Y-99841019D01*
X98333457Y-99764828D01*
X98371552Y-99612447D01*
X98371552Y-99498161D01*
X98333457Y-99345780D01*
X98295361Y-99269590D01*
X98219171Y-99193400D01*
X98104885Y-99155304D01*
X98028695Y-99155304D01*
X97914409Y-99193400D01*
X97876314Y-99231495D01*
X97419171Y-99955304D02*
X97495361Y-99917209D01*
X97533457Y-99879114D01*
X97571552Y-99802923D01*
X97571552Y-99574352D01*
X97533457Y-99498161D01*
X97495361Y-99460066D01*
X97419171Y-99421971D01*
X97304885Y-99421971D01*
X97228695Y-99460066D01*
X97190600Y-99498161D01*
X97152504Y-99574352D01*
X97152504Y-99802923D01*
X97190600Y-99879114D01*
X97228695Y-99917209D01*
X97304885Y-99955304D01*
X97419171Y-99955304D01*
X96809647Y-99421971D02*
X96809647Y-99955304D01*
X96809647Y-99498161D02*
X96771552Y-99460066D01*
X96695361Y-99421971D01*
X96581076Y-99421971D01*
X96504885Y-99460066D01*
X96466790Y-99536257D01*
X96466790Y-99955304D01*
X96085838Y-99421971D02*
X96085838Y-99955304D01*
X96085838Y-99498161D02*
X96047742Y-99460066D01*
X95971552Y-99421971D01*
X95857266Y-99421971D01*
X95781076Y-99460066D01*
X95742980Y-99536257D01*
X95742980Y-99955304D01*
X95057266Y-99917209D02*
X95133457Y-99955304D01*
X95285838Y-99955304D01*
X95362028Y-99917209D01*
X95400123Y-99841019D01*
X95400123Y-99536257D01*
X95362028Y-99460066D01*
X95285838Y-99421971D01*
X95133457Y-99421971D01*
X95057266Y-99460066D01*
X95019171Y-99536257D01*
X95019171Y-99612447D01*
X95400123Y-99688638D01*
X94333457Y-99917209D02*
X94409647Y-99955304D01*
X94562028Y-99955304D01*
X94638219Y-99917209D01*
X94676314Y-99879114D01*
X94714409Y-99802923D01*
X94714409Y-99574352D01*
X94676314Y-99498161D01*
X94638219Y-99460066D01*
X94562028Y-99421971D01*
X94409647Y-99421971D01*
X94333457Y-99460066D01*
X94104885Y-99421971D02*
X93800123Y-99421971D01*
X93990600Y-99155304D02*
X93990600Y-99841019D01*
X93952504Y-99917209D01*
X93876314Y-99955304D01*
X93800123Y-99955304D01*
X93419171Y-99955304D02*
X93495361Y-99917209D01*
X93533457Y-99879114D01*
X93571552Y-99802923D01*
X93571552Y-99574352D01*
X93533457Y-99498161D01*
X93495361Y-99460066D01*
X93419171Y-99421971D01*
X93304885Y-99421971D01*
X93228695Y-99460066D01*
X93190600Y-99498161D01*
X93152504Y-99574352D01*
X93152504Y-99802923D01*
X93190600Y-99879114D01*
X93228695Y-99917209D01*
X93304885Y-99955304D01*
X93419171Y-99955304D01*
X92809647Y-99955304D02*
X92809647Y-99421971D01*
X92809647Y-99574352D02*
X92771552Y-99498161D01*
X92733457Y-99460066D01*
X92657266Y-99421971D01*
X92581076Y-99421971D01*
X104847742Y-103547971D02*
X104657266Y-104081304D01*
X104466790Y-103547971D01*
X103742980Y-104081304D02*
X104200123Y-104081304D01*
X103971552Y-104081304D02*
X103971552Y-103281304D01*
X104047742Y-103395590D01*
X104123933Y-103471780D01*
X104200123Y-103509876D01*
X103400123Y-104005114D02*
X103362028Y-104043209D01*
X103400123Y-104081304D01*
X103438219Y-104043209D01*
X103400123Y-104005114D01*
X103400123Y-104081304D01*
X102866790Y-103281304D02*
X102790600Y-103281304D01*
X102714409Y-103319400D01*
X102676314Y-103357495D01*
X102638219Y-103433685D01*
X102600123Y-103586066D01*
X102600123Y-103776542D01*
X102638219Y-103928923D01*
X102676314Y-104005114D01*
X102714409Y-104043209D01*
X102790600Y-104081304D01*
X102866790Y-104081304D01*
X102942980Y-104043209D01*
X102981076Y-104005114D01*
X103019171Y-103928923D01*
X103057266Y-103776542D01*
X103057266Y-103586066D01*
X103019171Y-103433685D01*
X102981076Y-103357495D01*
X102942980Y-103319400D01*
X102866790Y-103281304D01*
X102257266Y-104005114D02*
X102219171Y-104043209D01*
X102257266Y-104081304D01*
X102295361Y-104043209D01*
X102257266Y-104005114D01*
X102257266Y-104081304D01*
X101723933Y-103281304D02*
X101647742Y-103281304D01*
X101571552Y-103319400D01*
X101533457Y-103357495D01*
X101495361Y-103433685D01*
X101457266Y-103586066D01*
X101457266Y-103776542D01*
X101495361Y-103928923D01*
X101533457Y-104005114D01*
X101571552Y-104043209D01*
X101647742Y-104081304D01*
X101723933Y-104081304D01*
X101800123Y-104043209D01*
X101838219Y-104005114D01*
X101876314Y-103928923D01*
X101914409Y-103776542D01*
X101914409Y-103586066D01*
X101876314Y-103433685D01*
X101838219Y-103357495D01*
X101800123Y-103319400D01*
X101723933Y-103281304D01*
X100276314Y-104386066D02*
X100314409Y-104347971D01*
X100390600Y-104233685D01*
X100428695Y-104157495D01*
X100466790Y-104043209D01*
X100504885Y-103852733D01*
X100504885Y-103700352D01*
X100466790Y-103509876D01*
X100428695Y-103395590D01*
X100390600Y-103319400D01*
X100314409Y-103205114D01*
X100276314Y-103167019D01*
X99704885Y-103662257D02*
X99971552Y-103662257D01*
X99971552Y-104081304D02*
X99971552Y-103281304D01*
X99590600Y-103281304D01*
X98981076Y-104043209D02*
X99057266Y-104081304D01*
X99209647Y-104081304D01*
X99285838Y-104043209D01*
X99323933Y-103967019D01*
X99323933Y-103662257D01*
X99285838Y-103586066D01*
X99209647Y-103547971D01*
X99057266Y-103547971D01*
X98981076Y-103586066D01*
X98942980Y-103662257D01*
X98942980Y-103738447D01*
X99323933Y-103814638D01*
X98600123Y-104081304D02*
X98600123Y-103281304D01*
X98600123Y-103586066D02*
X98523933Y-103547971D01*
X98371552Y-103547971D01*
X98295361Y-103586066D01*
X98257266Y-103624161D01*
X98219171Y-103700352D01*
X98219171Y-103928923D01*
X98257266Y-104005114D01*
X98295361Y-104043209D01*
X98371552Y-104081304D01*
X98523933Y-104081304D01*
X98600123Y-104043209D01*
X97228695Y-103281304D02*
X97304885Y-103433685D01*
X96923933Y-103357495D02*
X96885838Y-103319400D01*
X96809647Y-103281304D01*
X96619171Y-103281304D01*
X96542980Y-103319400D01*
X96504885Y-103357495D01*
X96466790Y-103433685D01*
X96466790Y-103509876D01*
X96504885Y-103624161D01*
X96962028Y-104081304D01*
X96466790Y-104081304D01*
X95704885Y-104081304D02*
X96162028Y-104081304D01*
X95933457Y-104081304D02*
X95933457Y-103281304D01*
X96009647Y-103395590D01*
X96085838Y-103471780D01*
X96162028Y-103509876D01*
X95438219Y-104386066D02*
X95400123Y-104347971D01*
X95323933Y-104233685D01*
X95285838Y-104157495D01*
X95247742Y-104043209D01*
X95209647Y-103852733D01*
X95209647Y-103700352D01*
X95247742Y-103509876D01*
X95285838Y-103395590D01*
X95323933Y-103319400D01*
X95400123Y-103205114D01*
X95438219Y-103167019D01*
X108695361Y-105443209D02*
X108581076Y-105481304D01*
X108390600Y-105481304D01*
X108314409Y-105443209D01*
X108276314Y-105405114D01*
X108238219Y-105328923D01*
X108238219Y-105252733D01*
X108276314Y-105176542D01*
X108314409Y-105138447D01*
X108390600Y-105100352D01*
X108542980Y-105062257D01*
X108619171Y-105024161D01*
X108657266Y-104986066D01*
X108695361Y-104909876D01*
X108695361Y-104833685D01*
X108657266Y-104757495D01*
X108619171Y-104719400D01*
X108542980Y-104681304D01*
X108352504Y-104681304D01*
X108238219Y-104719400D01*
X107552504Y-104947971D02*
X107552504Y-105481304D01*
X107895361Y-104947971D02*
X107895361Y-105367019D01*
X107857266Y-105443209D01*
X107781076Y-105481304D01*
X107666790Y-105481304D01*
X107590600Y-105443209D01*
X107552504Y-105405114D01*
X107171552Y-104947971D02*
X107171552Y-105747971D01*
X107171552Y-104986066D02*
X107095361Y-104947971D01*
X106942980Y-104947971D01*
X106866790Y-104986066D01*
X106828695Y-105024161D01*
X106790600Y-105100352D01*
X106790600Y-105328923D01*
X106828695Y-105405114D01*
X106866790Y-105443209D01*
X106942980Y-105481304D01*
X107095361Y-105481304D01*
X107171552Y-105443209D01*
X106447742Y-104947971D02*
X106447742Y-105747971D01*
X106447742Y-104986066D02*
X106371552Y-104947971D01*
X106219171Y-104947971D01*
X106142980Y-104986066D01*
X106104885Y-105024161D01*
X106066790Y-105100352D01*
X106066790Y-105328923D01*
X106104885Y-105405114D01*
X106142980Y-105443209D01*
X106219171Y-105481304D01*
X106371552Y-105481304D01*
X106447742Y-105443209D01*
X105609647Y-105481304D02*
X105685838Y-105443209D01*
X105723933Y-105405114D01*
X105762028Y-105328923D01*
X105762028Y-105100352D01*
X105723933Y-105024161D01*
X105685838Y-104986066D01*
X105609647Y-104947971D01*
X105495361Y-104947971D01*
X105419171Y-104986066D01*
X105381076Y-105024161D01*
X105342980Y-105100352D01*
X105342980Y-105328923D01*
X105381076Y-105405114D01*
X105419171Y-105443209D01*
X105495361Y-105481304D01*
X105609647Y-105481304D01*
X105000123Y-105481304D02*
X105000123Y-104947971D01*
X105000123Y-105100352D02*
X104962028Y-105024161D01*
X104923933Y-104986066D01*
X104847742Y-104947971D01*
X104771552Y-104947971D01*
X104619171Y-104947971D02*
X104314409Y-104947971D01*
X104504885Y-104681304D02*
X104504885Y-105367019D01*
X104466790Y-105443209D01*
X104390600Y-105481304D01*
X104314409Y-105481304D01*
X103438219Y-105176542D02*
X102828695Y-105176542D01*
X101495361Y-105481304D02*
X101495361Y-104681304D01*
X101495361Y-105443209D02*
X101571552Y-105481304D01*
X101723933Y-105481304D01*
X101800123Y-105443209D01*
X101838219Y-105405114D01*
X101876314Y-105328923D01*
X101876314Y-105100352D01*
X101838219Y-105024161D01*
X101800123Y-104986066D01*
X101723933Y-104947971D01*
X101571552Y-104947971D01*
X101495361Y-104986066D01*
X100809647Y-105443209D02*
X100885838Y-105481304D01*
X101038219Y-105481304D01*
X101114409Y-105443209D01*
X101152504Y-105367019D01*
X101152504Y-105062257D01*
X101114409Y-104986066D01*
X101038219Y-104947971D01*
X100885838Y-104947971D01*
X100809647Y-104986066D01*
X100771552Y-105062257D01*
X100771552Y-105138447D01*
X101152504Y-105214638D01*
X100504885Y-104947971D02*
X100314409Y-105481304D01*
X100123933Y-104947971D01*
X99323933Y-105100352D02*
X99362028Y-105062257D01*
X99438219Y-105024161D01*
X99514409Y-105024161D01*
X99590600Y-105062257D01*
X99628695Y-105100352D01*
X99666790Y-105176542D01*
X99666790Y-105252733D01*
X99628695Y-105328923D01*
X99590600Y-105367019D01*
X99514409Y-105405114D01*
X99438219Y-105405114D01*
X99362028Y-105367019D01*
X99323933Y-105328923D01*
X99323933Y-105024161D02*
X99323933Y-105328923D01*
X99285838Y-105367019D01*
X99247742Y-105367019D01*
X99171552Y-105328923D01*
X99133457Y-105252733D01*
X99133457Y-105062257D01*
X99209647Y-104947971D01*
X99323933Y-104871780D01*
X99476314Y-104833685D01*
X99628695Y-104871780D01*
X99742980Y-104947971D01*
X99819171Y-105062257D01*
X99857266Y-105214638D01*
X99819171Y-105367019D01*
X99742980Y-105481304D01*
X99628695Y-105557495D01*
X99476314Y-105595590D01*
X99323933Y-105557495D01*
X99209647Y-105481304D01*
X98485838Y-105443209D02*
X98562028Y-105481304D01*
X98714409Y-105481304D01*
X98790600Y-105443209D01*
X98828695Y-105367019D01*
X98828695Y-105062257D01*
X98790600Y-104986066D01*
X98714409Y-104947971D01*
X98562028Y-104947971D01*
X98485838Y-104986066D01*
X98447742Y-105062257D01*
X98447742Y-105138447D01*
X98828695Y-105214638D01*
X98142980Y-105443209D02*
X98066790Y-105481304D01*
X97914409Y-105481304D01*
X97838219Y-105443209D01*
X97800123Y-105367019D01*
X97800123Y-105328923D01*
X97838219Y-105252733D01*
X97914409Y-105214638D01*
X98028695Y-105214638D01*
X98104885Y-105176542D01*
X98142980Y-105100352D01*
X98142980Y-105062257D01*
X98104885Y-104986066D01*
X98028695Y-104947971D01*
X97914409Y-104947971D01*
X97838219Y-104986066D01*
X97342980Y-105481304D02*
X97419171Y-105443209D01*
X97457266Y-105405114D01*
X97495361Y-105328923D01*
X97495361Y-105100352D01*
X97457266Y-105024161D01*
X97419171Y-104986066D01*
X97342980Y-104947971D01*
X97228695Y-104947971D01*
X97152504Y-104986066D01*
X97114409Y-105024161D01*
X97076314Y-105100352D01*
X97076314Y-105328923D01*
X97114409Y-105405114D01*
X97152504Y-105443209D01*
X97228695Y-105481304D01*
X97342980Y-105481304D01*
X96619171Y-105481304D02*
X96695361Y-105443209D01*
X96733457Y-105367019D01*
X96733457Y-104681304D01*
X96200123Y-105481304D02*
X96276314Y-105443209D01*
X96314409Y-105405114D01*
X96352504Y-105328923D01*
X96352504Y-105100352D01*
X96314409Y-105024161D01*
X96276314Y-104986066D01*
X96200123Y-104947971D01*
X96085838Y-104947971D01*
X96009647Y-104986066D01*
X95971552Y-105024161D01*
X95933457Y-105100352D01*
X95933457Y-105328923D01*
X95971552Y-105405114D01*
X96009647Y-105443209D01*
X96085838Y-105481304D01*
X96200123Y-105481304D01*
X95247742Y-104947971D02*
X95247742Y-105595590D01*
X95285838Y-105671780D01*
X95323933Y-105709876D01*
X95400123Y-105747971D01*
X95514409Y-105747971D01*
X95590600Y-105709876D01*
X95247742Y-105443209D02*
X95323933Y-105481304D01*
X95476314Y-105481304D01*
X95552504Y-105443209D01*
X95590600Y-105405114D01*
X95628695Y-105328923D01*
X95628695Y-105100352D01*
X95590600Y-105024161D01*
X95552504Y-104986066D01*
X95476314Y-104947971D01*
X95323933Y-104947971D01*
X95247742Y-104986066D01*
X94866790Y-105481304D02*
X94866790Y-104947971D01*
X94866790Y-104681304D02*
X94904885Y-104719400D01*
X94866790Y-104757495D01*
X94828695Y-104719400D01*
X94866790Y-104681304D01*
X94866790Y-104757495D01*
X94142980Y-105443209D02*
X94219171Y-105481304D01*
X94371552Y-105481304D01*
X94447742Y-105443209D01*
X94485838Y-105405114D01*
X94523933Y-105328923D01*
X94523933Y-105100352D01*
X94485838Y-105024161D01*
X94447742Y-104986066D01*
X94371552Y-104947971D01*
X94219171Y-104947971D01*
X94142980Y-104986066D01*
X93800123Y-105405114D02*
X93762028Y-105443209D01*
X93800123Y-105481304D01*
X93838219Y-105443209D01*
X93800123Y-105405114D01*
X93800123Y-105481304D01*
X93076314Y-105443209D02*
X93152504Y-105481304D01*
X93304885Y-105481304D01*
X93381076Y-105443209D01*
X93419171Y-105405114D01*
X93457266Y-105328923D01*
X93457266Y-105100352D01*
X93419171Y-105024161D01*
X93381076Y-104986066D01*
X93304885Y-104947971D01*
X93152504Y-104947971D01*
X93076314Y-104986066D01*
X92619171Y-105481304D02*
X92695361Y-105443209D01*
X92733457Y-105405114D01*
X92771552Y-105328923D01*
X92771552Y-105100352D01*
X92733457Y-105024161D01*
X92695361Y-104986066D01*
X92619171Y-104947971D01*
X92504885Y-104947971D01*
X92428695Y-104986066D01*
X92390600Y-105024161D01*
X92352504Y-105100352D01*
X92352504Y-105328923D01*
X92390600Y-105405114D01*
X92428695Y-105443209D01*
X92504885Y-105481304D01*
X92619171Y-105481304D01*
X92009647Y-105481304D02*
X92009647Y-104947971D01*
X92009647Y-105024161D02*
X91971552Y-104986066D01*
X91895361Y-104947971D01*
X91781076Y-104947971D01*
X91704885Y-104986066D01*
X91666790Y-105062257D01*
X91666790Y-105481304D01*
X91666790Y-105062257D02*
X91628695Y-104986066D01*
X91552504Y-104947971D01*
X91438219Y-104947971D01*
X91362028Y-104986066D01*
X91323933Y-105062257D01*
X91323933Y-105481304D01*
D11*
X105140600Y-88916200D02*
X105140600Y-91576200D01*
X97460600Y-88916200D02*
X105140600Y-88916200D01*
X97460600Y-91576200D02*
X105140600Y-91576200D01*
X97460600Y-88916200D02*
X97460600Y-91576200D01*
X96190600Y-88916200D02*
X94860600Y-88916200D01*
X94860600Y-88916200D02*
X94860600Y-90246200D01*
D12*
X93312980Y-89912866D02*
X94027266Y-89912866D01*
X94170123Y-89865247D01*
X94265361Y-89770009D01*
X94312980Y-89627152D01*
X94312980Y-89531914D01*
X94312980Y-90912866D02*
X94312980Y-90341438D01*
X94312980Y-90627152D02*
X93312980Y-90627152D01*
X93455838Y-90531914D01*
X93551076Y-90436676D01*
X93598695Y-90341438D01*
M02*
