M48
; DRILL file {KiCad 5.1.9-73d0e3b20d~88~ubuntu18.04.1} date Mon Feb 15 13:14:47 2021
; FORMAT={-:-/ absolute / inch / decimal}
; #@! TF.CreationDate,2021-02-15T13:14:47-05:00
; #@! TF.GenerationSoftware,Kicad,Pcbnew,5.1.9-73d0e3b20d~88~ubuntu18.04.1
; #@! TF.FileFunction,Plated,1,2,PTH
FMAT,2
INCH
T1C0.0157
T2C0.0374
T3C0.0394
T4C0.0866
%
G90
G05
T1
X3.6358Y-3.7894
X3.6358Y-4.2618
X3.6549Y-3.7434
X3.6549Y-3.8353
X3.6549Y-4.2159
X3.6549Y-4.3077
X3.7008Y-3.7244
X3.7008Y-3.8543
X3.7008Y-4.1969
X3.7008Y-4.3268
X3.7467Y-3.7434
X3.7467Y-3.8353
X3.7467Y-4.2159
X3.7467Y-4.3077
X3.7657Y-3.7894
X3.7657Y-4.2618
X4.1083Y-3.7894
X4.1083Y-4.2618
X4.1273Y-3.7434
X4.1273Y-3.8353
X4.1273Y-4.2159
X4.1273Y-4.3077
X4.1732Y-3.7244
X4.1732Y-3.8543
X4.1732Y-4.1969
X4.1732Y-4.3268
X4.2192Y-3.7434
X4.2192Y-3.8353
X4.2192Y-4.2159
X4.2192Y-4.3077
X4.2382Y-3.7894
X4.2382Y-4.2618
T2
X3.789Y-4.005
X3.8874Y-4.005
X3.9859Y-4.005
X4.0843Y-4.005
T3
X3.787Y-3.553
X3.887Y-3.553
X3.987Y-3.553
X4.087Y-3.553
T4
X3.7008Y-3.7894
X3.7008Y-4.2618
X4.1732Y-3.7894
X4.1732Y-4.2618
T0
M30
