G04 #@! TF.GenerationSoftware,KiCad,Pcbnew,5.1.9-73d0e3b20d~88~ubuntu18.04.1*
G04 #@! TF.CreationDate,2021-02-15T13:14:34-05:00*
G04 #@! TF.ProjectId,connector,636f6e6e-6563-4746-9f72-2e6b69636164,v1.0.0*
G04 #@! TF.SameCoordinates,Original*
G04 #@! TF.FileFunction,Soldermask,Bot*
G04 #@! TF.FilePolarity,Negative*
%FSLAX46Y46*%
G04 Gerber Fmt 4.6, Leading zero omitted, Abs format (unit mm)*
G04 Created by KiCad (PCBNEW 5.1.9-73d0e3b20d~88~ubuntu18.04.1) date 2021-02-15 13:14:34*
%MOMM*%
%LPD*%
G01*
G04 APERTURE LIST*
%ADD10C,4.400000*%
%ADD11C,0.700000*%
%ADD12O,1.700000X1.950000*%
%ADD13R,1.700000X1.700000*%
%ADD14O,1.700000X1.700000*%
G04 APERTURE END LIST*
D10*
X94000000Y-96250000D03*
D11*
X95650000Y-96250000D03*
X95166726Y-97416726D03*
X94000000Y-97900000D03*
X92833274Y-97416726D03*
X92350000Y-96250000D03*
X92833274Y-95083274D03*
X94000000Y-94600000D03*
X95166726Y-95083274D03*
X107166726Y-95083274D03*
X106000000Y-94600000D03*
X104833274Y-95083274D03*
X104350000Y-96250000D03*
X104833274Y-97416726D03*
X106000000Y-97900000D03*
X107166726Y-97416726D03*
X107650000Y-96250000D03*
D10*
X106000000Y-96250000D03*
X94000000Y-108250000D03*
D11*
X95650000Y-108250000D03*
X95166726Y-109416726D03*
X94000000Y-109900000D03*
X92833274Y-109416726D03*
X92350000Y-108250000D03*
X92833274Y-107083274D03*
X94000000Y-106600000D03*
X95166726Y-107083274D03*
X107166726Y-107083274D03*
X106000000Y-106600000D03*
X104833274Y-107083274D03*
X104350000Y-108250000D03*
X104833274Y-109416726D03*
X106000000Y-109900000D03*
X107166726Y-109416726D03*
X107650000Y-108250000D03*
D10*
X106000000Y-108250000D03*
G36*
G01*
X95390600Y-102452000D02*
X95390600Y-101002000D01*
G75*
G02*
X95640600Y-100752000I250000J0D01*
G01*
X96840600Y-100752000D01*
G75*
G02*
X97090600Y-101002000I0J-250000D01*
G01*
X97090600Y-102452000D01*
G75*
G02*
X96840600Y-102702000I-250000J0D01*
G01*
X95640600Y-102702000D01*
G75*
G02*
X95390600Y-102452000I0J250000D01*
G01*
G37*
D12*
X98740600Y-101727000D03*
X101240600Y-101727000D03*
X103740600Y-101727000D03*
D13*
X96190600Y-90246200D03*
D14*
X98730600Y-90246200D03*
X101270600Y-90246200D03*
X103810600Y-90246200D03*
M02*
