G04 #@! TF.GenerationSoftware,KiCad,Pcbnew,5.1.9-73d0e3b20d~88~ubuntu18.04.1*
G04 #@! TF.CreationDate,2021-02-15T13:14:34-05:00*
G04 #@! TF.ProjectId,connector,636f6e6e-6563-4746-9f72-2e6b69636164,v1.0.0*
G04 #@! TF.SameCoordinates,Original*
G04 #@! TF.FileFunction,Legend,Top*
G04 #@! TF.FilePolarity,Positive*
%FSLAX46Y46*%
G04 Gerber Fmt 4.6, Leading zero omitted, Abs format (unit mm)*
G04 Created by KiCad (PCBNEW 5.1.9-73d0e3b20d~88~ubuntu18.04.1) date 2021-02-15 13:14:34*
%MOMM*%
%LPD*%
G01*
G04 APERTURE LIST*
%ADD10C,0.150000*%
%ADD11C,0.120000*%
G04 APERTURE END LIST*
D10*
X97926380Y-108821429D02*
X97450190Y-109154762D01*
X97926380Y-109392858D02*
X96926380Y-109392858D01*
X96926380Y-109011905D01*
X96974000Y-108916667D01*
X97021619Y-108869048D01*
X97116857Y-108821429D01*
X97259714Y-108821429D01*
X97354952Y-108869048D01*
X97402571Y-108916667D01*
X97450190Y-109011905D01*
X97450190Y-109392858D01*
X97878761Y-108011905D02*
X97926380Y-108107143D01*
X97926380Y-108297620D01*
X97878761Y-108392858D01*
X97783523Y-108440477D01*
X97402571Y-108440477D01*
X97307333Y-108392858D01*
X97259714Y-108297620D01*
X97259714Y-108107143D01*
X97307333Y-108011905D01*
X97402571Y-107964286D01*
X97497809Y-107964286D01*
X97593047Y-108440477D01*
X97926380Y-107107143D02*
X96926380Y-107107143D01*
X97878761Y-107107143D02*
X97926380Y-107202381D01*
X97926380Y-107392858D01*
X97878761Y-107488096D01*
X97831142Y-107535715D01*
X97735904Y-107583334D01*
X97450190Y-107583334D01*
X97354952Y-107535715D01*
X97307333Y-107488096D01*
X97259714Y-107392858D01*
X97259714Y-107202381D01*
X97307333Y-107107143D01*
X98576380Y-110083334D02*
X99576380Y-109845239D01*
X98862095Y-109654762D01*
X99576380Y-109464286D01*
X98576380Y-109226191D01*
X99576380Y-108845239D02*
X98576380Y-108845239D01*
X99576380Y-108416667D02*
X99052571Y-108416667D01*
X98957333Y-108464286D01*
X98909714Y-108559524D01*
X98909714Y-108702381D01*
X98957333Y-108797620D01*
X99004952Y-108845239D01*
X99576380Y-107940477D02*
X98909714Y-107940477D01*
X98576380Y-107940477D02*
X98624000Y-107988096D01*
X98671619Y-107940477D01*
X98624000Y-107892858D01*
X98576380Y-107940477D01*
X98671619Y-107940477D01*
X98909714Y-107607143D02*
X98909714Y-107226191D01*
X98576380Y-107464286D02*
X99433523Y-107464286D01*
X99528761Y-107416667D01*
X99576380Y-107321429D01*
X99576380Y-107226191D01*
X99528761Y-106511905D02*
X99576380Y-106607143D01*
X99576380Y-106797620D01*
X99528761Y-106892858D01*
X99433523Y-106940477D01*
X99052571Y-106940477D01*
X98957333Y-106892858D01*
X98909714Y-106797620D01*
X98909714Y-106607143D01*
X98957333Y-106511905D01*
X99052571Y-106464286D01*
X99147809Y-106464286D01*
X99243047Y-106940477D01*
X100702571Y-109726191D02*
X100750190Y-109583334D01*
X100797809Y-109535715D01*
X100893047Y-109488096D01*
X101035904Y-109488096D01*
X101131142Y-109535715D01*
X101178761Y-109583334D01*
X101226380Y-109678572D01*
X101226380Y-110059524D01*
X100226380Y-110059524D01*
X100226380Y-109726191D01*
X100274000Y-109630953D01*
X100321619Y-109583334D01*
X100416857Y-109535715D01*
X100512095Y-109535715D01*
X100607333Y-109583334D01*
X100654952Y-109630953D01*
X100702571Y-109726191D01*
X100702571Y-110059524D01*
X101226380Y-108916667D02*
X101178761Y-109011905D01*
X101083523Y-109059524D01*
X100226380Y-109059524D01*
X101226380Y-108107143D02*
X100702571Y-108107143D01*
X100607333Y-108154762D01*
X100559714Y-108250001D01*
X100559714Y-108440477D01*
X100607333Y-108535715D01*
X101178761Y-108107143D02*
X101226380Y-108202381D01*
X101226380Y-108440477D01*
X101178761Y-108535715D01*
X101083523Y-108583334D01*
X100988285Y-108583334D01*
X100893047Y-108535715D01*
X100845428Y-108440477D01*
X100845428Y-108202381D01*
X100797809Y-108107143D01*
X101178761Y-107202381D02*
X101226380Y-107297620D01*
X101226380Y-107488096D01*
X101178761Y-107583334D01*
X101131142Y-107630953D01*
X101035904Y-107678572D01*
X100750190Y-107678572D01*
X100654952Y-107630953D01*
X100607333Y-107583334D01*
X100559714Y-107488096D01*
X100559714Y-107297620D01*
X100607333Y-107202381D01*
X101226380Y-106773810D02*
X100226380Y-106773810D01*
X100845428Y-106678572D02*
X101226380Y-106392858D01*
X100559714Y-106392858D02*
X100940666Y-106773810D01*
X101924000Y-109607143D02*
X101876380Y-109702381D01*
X101876380Y-109845239D01*
X101924000Y-109988096D01*
X102019238Y-110083334D01*
X102114476Y-110130953D01*
X102304952Y-110178572D01*
X102447809Y-110178572D01*
X102638285Y-110130953D01*
X102733523Y-110083334D01*
X102828761Y-109988096D01*
X102876380Y-109845239D01*
X102876380Y-109750001D01*
X102828761Y-109607143D01*
X102781142Y-109559524D01*
X102447809Y-109559524D01*
X102447809Y-109750001D01*
X102876380Y-109130953D02*
X102209714Y-109130953D01*
X102400190Y-109130953D02*
X102304952Y-109083334D01*
X102257333Y-109035715D01*
X102209714Y-108940477D01*
X102209714Y-108845239D01*
X102828761Y-108130953D02*
X102876380Y-108226191D01*
X102876380Y-108416667D01*
X102828761Y-108511905D01*
X102733523Y-108559524D01*
X102352571Y-108559524D01*
X102257333Y-108511905D01*
X102209714Y-108416667D01*
X102209714Y-108226191D01*
X102257333Y-108130953D01*
X102352571Y-108083334D01*
X102447809Y-108083334D01*
X102543047Y-108559524D01*
X102828761Y-107273810D02*
X102876380Y-107369048D01*
X102876380Y-107559524D01*
X102828761Y-107654762D01*
X102733523Y-107702381D01*
X102352571Y-107702381D01*
X102257333Y-107654762D01*
X102209714Y-107559524D01*
X102209714Y-107369048D01*
X102257333Y-107273810D01*
X102352571Y-107226191D01*
X102447809Y-107226191D01*
X102543047Y-107702381D01*
X102209714Y-106797620D02*
X102876380Y-106797620D01*
X102304952Y-106797620D02*
X102257333Y-106750001D01*
X102209714Y-106654762D01*
X102209714Y-106511905D01*
X102257333Y-106416667D01*
X102352571Y-106369048D01*
X102876380Y-106369048D01*
D11*
X93680600Y-99267000D02*
X93680600Y-105237000D01*
X93680600Y-105237000D02*
X106300600Y-105237000D01*
X106300600Y-105237000D02*
X106300600Y-99267000D01*
X106300600Y-99267000D02*
X93680600Y-99267000D01*
X96990600Y-99277000D02*
X96990600Y-100027000D01*
X96990600Y-100027000D02*
X102990600Y-100027000D01*
X102990600Y-100027000D02*
X102990600Y-99277000D01*
X102990600Y-99277000D02*
X96990600Y-99277000D01*
X93690600Y-99277000D02*
X93690600Y-100027000D01*
X93690600Y-100027000D02*
X95490600Y-100027000D01*
X95490600Y-100027000D02*
X95490600Y-99277000D01*
X95490600Y-99277000D02*
X93690600Y-99277000D01*
X104490600Y-99277000D02*
X104490600Y-100027000D01*
X104490600Y-100027000D02*
X106290600Y-100027000D01*
X106290600Y-100027000D02*
X106290600Y-99277000D01*
X106290600Y-99277000D02*
X104490600Y-99277000D01*
X93690600Y-101527000D02*
X94440600Y-101527000D01*
X94440600Y-101527000D02*
X94440600Y-104477000D01*
X94440600Y-104477000D02*
X99990600Y-104477000D01*
X106290600Y-101527000D02*
X105540600Y-101527000D01*
X105540600Y-101527000D02*
X105540600Y-104477000D01*
X105540600Y-104477000D02*
X99990600Y-104477000D01*
X94640600Y-98977000D02*
X93390600Y-98977000D01*
X93390600Y-98977000D02*
X93390600Y-100227000D01*
D10*
X99657266Y-97629380D02*
X99657266Y-98343666D01*
X99609647Y-98486523D01*
X99514409Y-98581761D01*
X99371552Y-98629380D01*
X99276314Y-98629380D01*
X100085838Y-97724619D02*
X100133457Y-97677000D01*
X100228695Y-97629380D01*
X100466790Y-97629380D01*
X100562028Y-97677000D01*
X100609647Y-97724619D01*
X100657266Y-97819857D01*
X100657266Y-97915095D01*
X100609647Y-98057952D01*
X100038219Y-98629380D01*
X100657266Y-98629380D01*
M02*
