%
M48
METRIC,000.000
T01C0.50
%
T01
X092528Y043882
X092528Y044882
X092528Y045882
X092528Y046882
X092528Y047882
X092528Y048882
X092528Y049882
X096028Y049807
X096028Y048807
X096028Y047807
X096028Y046807
X096028Y045807
X096028Y044807
X092528Y032882
X092528Y033882
X092528Y034882
X092528Y035882
X092528Y036882
X092528Y037882
X092528Y038882
X096028Y038807
X096028Y037807
X096028Y036807
X096028Y035807
X096028Y034807
X096028Y033807
X092528Y005882
X092528Y006882
X092528Y007882
X092528Y008882
X092528Y009882
X092528Y010882
X092528Y011882
X096028Y011307
X096028Y010307
X096028Y009307
X096028Y008307
X096028Y007307
X096028Y006307
X092528Y016882
X092528Y017882
X092528Y018882
X092528Y019882
X092528Y020882
X092528Y021882
X092528Y022882
X096028Y022307
X096028Y021307
X096028Y020307
X096028Y019307
X096028Y018307
X096028Y017307
X107983Y027750
X106983Y027750
X105983Y027750
X104983Y027750
X103983Y027750
X103868Y030250
X104868Y030250
X105868Y030250
X106868Y030250
X107868Y030250
M30