%
M48
METRIC,000.000
T01C2.00
T02C3.20
T10C0.40
T11C0.50
T12C0.75
T13C1.00
T14C1.02
T15C1.30
T16C1.60
T17C1.85
T18C0.95
T19C2.20
%
T01
X036101Y034059
X036101Y015517
X044902Y034059
X044902Y015517
T02
X020218Y004249
X020218Y004249
X072288Y037269
X072288Y037269
X072288Y009329
X072288Y009329
X020218Y004249
X072288Y037269
X072288Y009329
T10
X003251Y025001
X003479Y029726
X007823Y002776
X010264Y045283
X014602Y049832
X014602Y041024
X014808Y048293
X016636Y016238
X020675Y053703
X026212Y022283
X032537Y008796
X040208Y041867
X053848Y015756
X058648Y034272
X071932Y023960
X074091Y052128
X075793Y005443
X083820Y028557
X087248Y002776
X088011Y054084
X098627Y018999
X098627Y007000
X099112Y020167
X099112Y017833
X099112Y008166
X099112Y005834
X100278Y020650
X100278Y017350
X100278Y008648
X100278Y005349
X101444Y020167
X101444Y017833
X101444Y008166
X101444Y005834
X101926Y018999
X101926Y007000
X110629Y018999
X110629Y007000
X111111Y020167
X111111Y017833
X111111Y008166
X111111Y005834
X112277Y020650
X112277Y017350
X112277Y008648
X112277Y005349
X113445Y020167
X113445Y017833
X113445Y008166
X113445Y005834
X113928Y018999
X113928Y007000
X098627Y046499
X098627Y034500
X099112Y047667
X099112Y045333
X099112Y035666
X099112Y033334
X100278Y048150
X100278Y044850
X100278Y036148
X100278Y032849
X101444Y047667
X101444Y045333
X101444Y035666
X101444Y033334
X101926Y046499
X101926Y034500
X110629Y046499
X110629Y034500
X111111Y047667
X111111Y045333
X111111Y035666
X111111Y033334
X112277Y048150
X112277Y044850
X112277Y036148
X112277Y032849
X113445Y047667
X113445Y045333
X113445Y035666
X113445Y033334
X113928Y046499
X113928Y034500
T11
X017818Y004249
X018519Y005949
X018519Y002553
X020218Y006650
X020218Y001852
X021915Y005949
X021915Y002553
X022616Y004249
X069888Y037269
X069888Y009329
X070589Y038969
X070589Y035573
X070589Y011029
X070589Y007633
X072288Y039670
X072288Y034872
X072288Y011730
X072288Y006932
X073985Y038969
X073985Y035573
X073985Y011029
X073985Y007633
X074686Y037269
X074686Y009329
T12
X020650Y047912
X020650Y045913
X020650Y043912
X028524Y047912
X028524Y045913
X028524Y043912
T13
X038000Y027059
X038000Y008517
X040502Y027059
X040502Y008517
X043002Y027059
X043002Y008517
X102468Y025003
X105008Y025003
X107548Y025003
X110088Y025003
X102468Y052503
X105008Y052503
X107548Y052503
X110088Y052503
T14
X025044Y052509
X025044Y052509
X027584Y052509
X027584Y052509
X030124Y052509
X030124Y052509
X032664Y052509
X032664Y052509
X034188Y004249
X034188Y004249
X035204Y052509
X035204Y052509
X036728Y004249
X036728Y004249
X037744Y052509
X037744Y052509
X039268Y004249
X039268Y004249
X040284Y052509
X040284Y052509
X041808Y004249
X041808Y004249
X042824Y052509
X042824Y052509
X044348Y004249
X044348Y004249
X045364Y052509
X045364Y052509
X046888Y004249
X046888Y004249
X047904Y052509
X047904Y052509
X048844Y049157
X048844Y036457
X049098Y023249
X049098Y010549
X049428Y004249
X049428Y004249
X051384Y049157
X051384Y036457
X051638Y023249
X051638Y010549
X051968Y052509
X051968Y052509
X051968Y004249
X051968Y004249
X053924Y049157
X053924Y036457
X054178Y023249
X054178Y010549
X054508Y052509
X054508Y052509
X056464Y049157
X056464Y036457
X056718Y023249
X056718Y010549
X057048Y052509
X057048Y052509
X057048Y004249
X057048Y004249
X059004Y049157
X059004Y036457
X059258Y023249
X059258Y010549
X059588Y052509
X059588Y052509
X059588Y004249
X059588Y004249
X061544Y049157
X061544Y036457
X061798Y023249
X061798Y010549
X062128Y052509
X062128Y052509
X062128Y004249
X062128Y004249
X064084Y049157
X064084Y036457
X064337Y023249
X064337Y010549
X064668Y052509
X064668Y052509
X064668Y004249
X064668Y004249
X066624Y049157
X066624Y036457
X066878Y023249
X066878Y010549
X067208Y052509
X067208Y052509
X067208Y004249
X067208Y004249
X069748Y052509
X069748Y052509
X069748Y004249
X069748Y004249
T15
X082880Y050173
X082880Y045093
X082880Y040013
X082880Y034933
X082880Y022106
X082880Y017026
X082880Y011946
X082880Y006866
T16
X008204Y027313
X011203Y022614
X014203Y027313
T17
X021539Y035949
X021539Y026805
X021539Y017915
X026238Y035949
X026238Y026805
X026238Y017915
X030937Y035949
X030937Y026805
X030937Y017915
T18
X102518Y013523
X105018Y013523
X107520Y013523
X110019Y013523
X102518Y041023
X105018Y041023
X107520Y041023
X110019Y041023
T19
X100278Y018999
X100278Y007000
X112277Y018999
X112277Y007000
X100278Y046499
X100278Y034500
X112277Y046499
X112277Y034500
M30