%MOIN*%
%OFA0B0*%
%FSLAX46Y46*%
%IPPOS*%
%LPD*%
%ADD10O,0.068X0.068*%
%ADD11R,0.060000000000000005X0.060000000000000005*%
%ADD12C,0.060000000000000005*%
%ADD13C,0.031496062992125991*%
%ADD14C,0.25196850393700793*%
%ADD15C,0.10236220472440946*%
%ADD16R,0.10236220472440946X0.10236220472440946*%
%ADD17O,0.068897637795275593X0.047244094488188976*%
%ADD18C,0.070866141732283464*%
%ADD19C,0.15748031496062992*%
%ADD20C,0.1456692913385827*%
%ADD21R,0.1456692913385827X0.1456692913385827*%
%ADD22C,0.031496062992125991*%
%ADD23C,0.00984251968503937*%
%ADD24C,0.029527559055118113*%
%ADD25C,0.01*%
%ADD26C,0.0039370078740157488*%
%ADD37C,0.17322834645669294*%
%ADD38C,0.027559055118110236*%
%ADD39O,0.066929133858267723X0.076771653543307089*%
%ADD40R,0.066929133858267723X0.066929133858267723*%
%ADD41O,0.066929133858267723X0.066929133858267723*%
%ADD42C,0.059055118110236227*%
%ADD43C,0.17322834645669294*%
%ADD44C,0.027559055118110236*%
%ADD45O,0.066929133858267723X0.076771653543307089*%
%ADD46R,0.066929133858267723X0.066929133858267723*%
%ADD47O,0.066929133858267723X0.066929133858267723*%
%ADD48C,0.059055118110236227*%
G01*
D10*
X-0004007000Y0005095319D02*
X0002745952Y0000167366D03*
X0002645952Y0000167366D03*
X0002545952Y0000167366D03*
X0002445952Y0000167366D03*
X0002345952Y0000167366D03*
X0001345952Y0000167366D03*
X0001585952Y0002067366D03*
X0001485952Y0002067366D03*
X0001385952Y0002067366D03*
X0001185952Y0002067366D03*
X0001085952Y0002067366D03*
X0000985952Y0002067366D03*
X0001685952Y0002067366D03*
X0001785952Y0002067366D03*
X0001885952Y0002067366D03*
X0001285952Y0002067366D03*
X0002045952Y0002067366D03*
X0002145952Y0002067366D03*
X0002245952Y0002067366D03*
X0002345952Y0002067366D03*
X0002445952Y0002067366D03*
X0002545952Y0002067366D03*
X0002645952Y0002067366D03*
X0002745952Y0002067366D03*
X0001445952Y0000167366D03*
X0001545952Y0000167366D03*
X0001645952Y0000167366D03*
X0001745952Y0000167366D03*
X0001845952Y0000167366D03*
X0001945952Y0000167366D03*
X0002045952Y0000167366D03*
X0002245952Y0000167366D03*
D11*
X0001933000Y0000915319D03*
D12*
X0002033000Y0000915319D03*
X0002132999Y0000915319D03*
X0002233000Y0000915319D03*
X0002333000Y0000915319D03*
X0002432999Y0000915319D03*
X0002533000Y0000915319D03*
X0002633000Y0000915319D03*
X0002633000Y0000415319D03*
X0002533000Y0000415319D03*
X0002432999Y0000415319D03*
X0002333000Y0000415319D03*
X0002233000Y0000415319D03*
X0002132999Y0000415319D03*
X0002033000Y0000415319D03*
X0001933000Y0000415319D03*
X0001923000Y0001435319D03*
X0002023000Y0001435319D03*
X0002123000Y0001435319D03*
X0002222999Y0001435319D03*
X0002323000Y0001435319D03*
X0002423000Y0001435319D03*
X0002522999Y0001435319D03*
X0002622999Y0001435319D03*
X0002622999Y0001935319D03*
X0002522999Y0001935319D03*
X0002423000Y0001935319D03*
X0002323000Y0001935319D03*
X0002222999Y0001935319D03*
X0002123000Y0001935319D03*
X0002023000Y0001935319D03*
D11*
X0001923000Y0001935319D03*
D10*
X0002245952Y0000167366D03*
X0002045952Y0000167366D03*
X0001945952Y0000167366D03*
X0001845952Y0000167366D03*
X0001745952Y0000167366D03*
X0001645952Y0000167366D03*
X0001545952Y0000167366D03*
X0001445952Y0000167366D03*
X0002745952Y0002067366D03*
X0002645952Y0002067366D03*
X0002545952Y0002067366D03*
X0002445952Y0002067366D03*
X0002345952Y0002067366D03*
X0002245952Y0002067366D03*
X0002145952Y0002067366D03*
X0002045952Y0002067366D03*
X0001285952Y0002067366D03*
X0001885952Y0002067366D03*
X0001785952Y0002067366D03*
X0001685952Y0002067366D03*
X0000985952Y0002067366D03*
X0001085952Y0002067366D03*
X0001185952Y0002067366D03*
X0001385952Y0002067366D03*
X0001485952Y0002067366D03*
X0001585952Y0002067366D03*
X0001345952Y0000167366D03*
X0002345952Y0000167366D03*
X0002445952Y0000167366D03*
X0002545952Y0000167366D03*
X0002645952Y0000167366D03*
X0002745952Y0000167366D03*
D13*
X0002912765Y0001534179D03*
X0002845952Y0001561854D03*
X0002779139Y0001534179D03*
X0002751464Y0001467366D03*
X0002779139Y0001400553D03*
X0002845952Y0001372878D03*
X0002912765Y0001400553D03*
X0002940440Y0001467366D03*
D14*
X0002845952Y0001467366D03*
X0000795952Y0000167366D03*
D13*
X0000890440Y0000167366D03*
X0000862765Y0000100553D03*
X0000795952Y0000072878D03*
X0000729139Y0000100553D03*
X0000701464Y0000167366D03*
X0000729139Y0000234179D03*
X0000795952Y0000261854D03*
X0000862765Y0000234179D03*
X0002912765Y0000434179D03*
X0002845952Y0000461854D03*
X0002779139Y0000434179D03*
X0002751464Y0000367366D03*
X0002779139Y0000300553D03*
X0002845952Y0000272878D03*
X0002912765Y0000300553D03*
X0002940440Y0000367366D03*
D14*
X0002845952Y0000367366D03*
D15*
X0003262999Y0001975319D03*
X0003262999Y0001775319D03*
X0003262999Y0001575319D03*
D16*
X0003262999Y0001375319D03*
X0003262999Y0000270319D03*
D15*
X0003262999Y0000470319D03*
X0003262999Y0000670319D03*
X0003262999Y0000870319D03*
D17*
X0000812999Y0001728838D03*
X0000812999Y0001807578D03*
G36*
G01*
X0000788393Y0001909941D02*
X0000837606Y0001909941D01*
G75*
G02*
X0000847448Y0001900098J-0000009842D01*
G01*
X0000847448Y0001872539D01*
G75*
G02*
X0000837606Y0001862697I-0000009842D01*
G01*
X0000788393Y0001862697D01*
G75*
G02*
X0000778551Y0001872539J0000009842D01*
G01*
X0000778551Y0001900098D01*
G75*
G02*
X0000788393Y0001909941I0000009842D01*
G01*
G37*
G36*
G01*
X0001098393Y0001909941D02*
X0001147606Y0001909941D01*
G75*
G02*
X0001157448Y0001900098J-0000009842D01*
G01*
X0001157448Y0001872539D01*
G75*
G02*
X0001147606Y0001862697I-0000009842D01*
G01*
X0001098393Y0001862697D01*
G75*
G02*
X0001088551Y0001872539J0000009842D01*
G01*
X0001088551Y0001900098D01*
G75*
G02*
X0001098393Y0001909941I0000009842D01*
G01*
G37*
X0001122999Y0001807578D03*
X0001122999Y0001728838D03*
D16*
X0000559220Y0001075319D03*
D15*
X0000323000Y0001075319D03*
X0000441110Y0000890279D03*
D18*
X0001496149Y0000335319D03*
X0001594574Y0000335319D03*
X0001693000Y0000335319D03*
D19*
X0001421346Y0000610909D03*
X0001767803Y0000610909D03*
X0001767803Y0001340909D03*
X0001421346Y0001340909D03*
D18*
X0001693000Y0001065319D03*
X0001594574Y0001065319D03*
X0001496149Y0001065319D03*
D20*
X0001032999Y0000705319D03*
D21*
X0000847960Y0000705319D03*
D20*
X0001218039Y0000705319D03*
X0001218039Y0001055319D03*
D21*
X0000847960Y0001055319D03*
D20*
X0001032999Y0001055319D03*
X0001032999Y0001415319D03*
D21*
X0000847960Y0001415319D03*
D20*
X0001218039Y0001415319D03*
D22*
X0000583000Y0001901307D03*
X0000574873Y0001961952D03*
X0000127999Y0000984319D03*
X0000136999Y0001170319D03*
X0002916999Y0002052319D03*
X0003465000Y0002129319D03*
X0003435000Y0000109319D03*
X0002984000Y0000214319D03*
X0001281000Y0000346319D03*
X0000308000Y0000109319D03*
X0001032000Y0000877319D03*
X0001582999Y0001648319D03*
X0000814000Y0002114319D03*
X0002309000Y0001349319D03*
X0002120000Y0000620319D03*
X0002832000Y0000943319D03*
X0000655000Y0000639319D03*
X0003300000Y0001124319D03*
X0000404141Y0001782858D03*
X0000574873Y0001615102D03*
D23*
X0002745952Y0000167366D02*
X0002699145Y0000167366D01*
X0000583000Y0001901307D02*
X0000650271Y0001834035D01*
X0000650271Y0001834035D02*
X0000650271Y0000713031D01*
X0000650271Y0000713031D02*
X0001280070Y0000083232D01*
X0001280070Y0000083232D02*
X0002756358Y0000083232D01*
X0002756358Y0000083232D02*
X0002810496Y0000137370D01*
X0002810496Y0000137370D02*
X0002810496Y0000197893D01*
X0002810496Y0000197893D02*
X0002776480Y0000231909D01*
X0002776480Y0000231909D02*
X0002643366Y0000231909D01*
X0002643366Y0000231909D02*
X0002599141Y0000187685D01*
X0002599141Y0000187685D02*
X0002599141Y0000147555D01*
X0002599141Y0000147555D02*
X0002626137Y0000120559D01*
X0002626137Y0000120559D02*
X0002666968Y0000120559D01*
X0002666968Y0000120559D02*
X0002699145Y0000152736D01*
X0002699145Y0000152736D02*
X0002699145Y0000167366D01*
X0000574873Y0001961952D02*
X0000720948Y0001815878D01*
X0000720948Y0001815878D02*
X0000720948Y0000667704D01*
X0000720948Y0000667704D02*
X0001287688Y0000100964D01*
X0001287688Y0000100964D02*
X0002747086Y0000100964D01*
X0002747086Y0000100964D02*
X0002792763Y0000146641D01*
X0002792763Y0000146641D02*
X0002792763Y0000187098D01*
X0002792763Y0000187098D02*
X0002765685Y0000214177D01*
X0002765685Y0000214177D02*
X0002692763Y0000214177D01*
X0002692763Y0000214177D02*
X0002645952Y0000167366D01*
X0001693000Y0000335319D02*
X0001745952Y0000282366D01*
X0001745952Y0000282366D02*
X0001745952Y0000167366D01*
X0001693000Y0001065319D02*
X0002033000Y0000725319D01*
X0002033000Y0000725319D02*
X0002033000Y0000415319D01*
X0002345952Y0000167366D02*
X0002299145Y0000167366D01*
X0000812999Y0001728838D02*
X0000812999Y0001765267D01*
X0000812999Y0001765267D02*
X0001149228Y0001765267D01*
X0001149228Y0001765267D02*
X0001545362Y0001369134D01*
X0001545362Y0001369134D02*
X0001545362Y0000991890D01*
X0001545362Y0000991890D02*
X0001889094Y0000648157D01*
X0001889094Y0000648157D02*
X0001889094Y0000397701D01*
X0001889094Y0000397701D02*
X0002072622Y0000214173D01*
X0002072622Y0000214173D02*
X0002266968Y0000214173D01*
X0002266968Y0000214173D02*
X0002299145Y0000181996D01*
X0002299145Y0000181996D02*
X0002299145Y0000167366D01*
X0002445952Y0000167366D02*
X0002399145Y0000167366D01*
X0001594574Y0001065319D02*
X0001982999Y0000676893D01*
X0001982999Y0000676893D02*
X0001982999Y0000403504D01*
X0001982999Y0000403504D02*
X0002151574Y0000234929D01*
X0002151574Y0000234929D02*
X0002346208Y0000234929D01*
X0002346208Y0000234929D02*
X0002399145Y0000181992D01*
X0002399145Y0000181992D02*
X0002399145Y0000167366D01*
X0002145952Y0002067366D02*
X0002192759Y0002067366D01*
X0002192759Y0002067366D02*
X0002192759Y0002081992D01*
X0002192759Y0002081992D02*
X0002225421Y0002114653D01*
X0002225421Y0002114653D02*
X0002466929Y0002114653D01*
X0002466929Y0002114653D02*
X0002498311Y0002083271D01*
X0002498311Y0002083271D02*
X0002498311Y0002046204D01*
X0002498311Y0002046204D02*
X0002609196Y0001935319D01*
X0002609196Y0001935319D02*
X0002622999Y0001935319D01*
X0002445952Y0002067366D02*
X0002399145Y0002067366D01*
X0002399145Y0002067366D02*
X0002399145Y0002052736D01*
X0002399145Y0002052736D02*
X0002366968Y0002020559D01*
X0002366968Y0002020559D02*
X0002308240Y0002020559D01*
X0002308240Y0002020559D02*
X0002222999Y0001935319D01*
X0002345952Y0002067366D02*
X0002299145Y0002067366D01*
X0002299145Y0002067366D02*
X0002299145Y0002052736D01*
X0002299145Y0002052736D02*
X0002266968Y0002020559D01*
X0002266968Y0002020559D02*
X0002108240Y0002020559D01*
X0002108240Y0002020559D02*
X0002023000Y0001935319D01*
X0001933000Y0000958126D02*
X0001676216Y0001214909D01*
X0001676216Y0001214909D02*
X0001676216Y0002010823D01*
X0001676216Y0002010823D02*
X0001685952Y0002020559D01*
X0001685952Y0002067366D02*
X0001685952Y0002020559D01*
X0001933000Y0000915319D02*
X0001933000Y0000958126D01*
X0001785952Y0002067366D02*
X0001785952Y0002020559D01*
X0002033000Y0000915319D02*
X0001868220Y0001080098D01*
X0001868220Y0001080098D02*
X0001868220Y0001938291D01*
X0001868220Y0001938291D02*
X0001785952Y0002020559D01*
X0001885952Y0002067366D02*
X0001885952Y0002020559D01*
X0002233000Y0000915319D02*
X0001979263Y0001169055D01*
X0001979263Y0001169055D02*
X0001979263Y0001959429D01*
X0001979263Y0001959429D02*
X0001918133Y0002020559D01*
X0001918133Y0002020559D02*
X0001885952Y0002020559D01*
X0002245952Y0000167366D02*
X0002199145Y0000167366D01*
X0001122999Y0001728838D02*
X0001122999Y0001692409D01*
X0001122999Y0001692409D02*
X0001321401Y0001494008D01*
X0001321401Y0001494008D02*
X0001321401Y0000906693D01*
X0001321401Y0000906693D02*
X0001995952Y0000232141D01*
X0001995952Y0000232141D02*
X0001995952Y0000148047D01*
X0001995952Y0000148047D02*
X0002023440Y0000120559D01*
X0002023440Y0000120559D02*
X0002152338Y0000120559D01*
X0002152338Y0000120559D02*
X0002199145Y0000167366D01*
X0000574873Y0001615102D02*
X0000407118Y0001782858D01*
X0000407118Y0001782858D02*
X0000404141Y0001782858D01*
X0001485952Y0002067366D02*
X0001439145Y0002067366D01*
X0000847960Y0000705319D02*
X0000847960Y0000790960D01*
X0000847960Y0000790960D02*
X0000762086Y0000876834D01*
X0000762086Y0000876834D02*
X0000762086Y0001820870D01*
X0000762086Y0001820870D02*
X0000786133Y0001844917D01*
X0000786133Y0001844917D02*
X0001231326Y0001844917D01*
X0001231326Y0001844917D02*
X0001439145Y0002052736D01*
X0001439145Y0002052736D02*
X0001439145Y0002067366D01*
D24*
X0003262999Y0001975319D02*
X0003152629Y0001864949D01*
X0003152629Y0001864949D02*
X0002552629Y0001864949D01*
X0002552629Y0001864949D02*
X0002123000Y0001435319D01*
X0003262999Y0001775319D02*
X0002562999Y0001775319D01*
X0002562999Y0001775319D02*
X0002222999Y0001435319D01*
X0003262999Y0001575319D02*
X0003204149Y0001634169D01*
X0003204149Y0001634169D02*
X0002621850Y0001634169D01*
X0002621850Y0001634169D02*
X0002423000Y0001435319D01*
X0003262999Y0001375319D02*
X0003171452Y0001375319D01*
X0003171452Y0001375319D02*
X0003095740Y0001299606D01*
X0003095740Y0001299606D02*
X0002458712Y0001299606D01*
X0002458712Y0001299606D02*
X0002323000Y0001435319D01*
X0002432999Y0000415319D02*
X0002552389Y0000534708D01*
X0002552389Y0000534708D02*
X0003198610Y0000534708D01*
X0003198610Y0000534708D02*
X0003262999Y0000470319D01*
X0002132999Y0000415319D02*
X0002479551Y0000761870D01*
X0002479551Y0000761870D02*
X0003154551Y0000761870D01*
X0003154551Y0000761870D02*
X0003262999Y0000870319D01*
D25*
X0003617015Y0000083303D02*
X0002845783Y0000083303D01*
X0002845782Y0000083303D01*
X0002845074Y0000083303D01*
X0002844214Y0000083303D01*
X0002844213Y0000083303D01*
X0002784591Y0000083293D01*
X0002823890Y0000122591D01*
X0002824650Y0000123215D01*
X0002827140Y0000126249D01*
X0002828989Y0000129709D01*
X0002830129Y0000133465D01*
X0002830417Y0000136391D01*
X0002830417Y0000136392D01*
X0002830513Y0000137370D01*
X0002830417Y0000138348D01*
X0002830417Y0000196915D01*
X0002830513Y0000197893D01*
X0002830129Y0000201799D01*
X0002828989Y0000205554D01*
X0002828556Y0000206365D01*
X0002827140Y0000209015D01*
X0002824650Y0000212048D01*
X0002823890Y0000212672D01*
X0002818086Y0000218476D01*
X0002844995Y0000215654D01*
X0002874611Y0000218382D01*
X0002903126Y0000226836D01*
X0002929443Y0000240690D01*
X0002931034Y0000241754D01*
X0002945215Y0000261032D01*
X0002905138Y0000301109D01*
X0002912209Y0000308180D01*
X0002952286Y0000268103D01*
X0002971564Y0000282284D01*
X0002985749Y0000308424D01*
X0002989806Y0000321500D01*
X0003181080Y0000321500D01*
X0003181080Y0000219138D01*
X0003181670Y0000213141D01*
X0003183420Y0000207374D01*
X0003186260Y0000202060D01*
X0003190083Y0000197402D01*
X0003194741Y0000193579D01*
X0003200055Y0000190739D01*
X0003205822Y0000188990D01*
X0003211818Y0000188399D01*
X0003314181Y0000188399D01*
X0003320177Y0000188990D01*
X0003325944Y0000190739D01*
X0003331258Y0000193579D01*
X0003335916Y0000197402D01*
X0003339739Y0000202060D01*
X0003342579Y0000207374D01*
X0003344329Y0000213141D01*
X0003344919Y0000219138D01*
X0003344919Y0000321500D01*
X0003344329Y0000327497D01*
X0003342579Y0000333263D01*
X0003339739Y0000338577D01*
X0003335916Y0000343235D01*
X0003331258Y0000347058D01*
X0003325944Y0000349898D01*
X0003320177Y0000351648D01*
X0003314181Y0000352238D01*
X0003211818Y0000352238D01*
X0003205822Y0000351648D01*
X0003200055Y0000349898D01*
X0003194741Y0000347058D01*
X0003190083Y0000343235D01*
X0003186260Y0000338577D01*
X0003183420Y0000333263D01*
X0003181670Y0000327497D01*
X0003181080Y0000321500D01*
X0002989806Y0000321500D01*
X0002994562Y0000336830D01*
X0002997664Y0000366409D01*
X0002994936Y0000396025D01*
X0002986482Y0000424539D01*
X0002972628Y0000450857D01*
X0002971564Y0000452448D01*
X0002952286Y0000466629D01*
X0002912209Y0000426551D01*
X0002905138Y0000433622D01*
X0002945215Y0000473700D01*
X0002933700Y0000489354D01*
X0003179823Y0000489354D01*
X0003182817Y0000486361D01*
X0003181228Y0000478372D01*
X0003181228Y0000462265D01*
X0003184370Y0000446467D01*
X0003190534Y0000431585D01*
X0003199483Y0000418192D01*
X0003210873Y0000406802D01*
X0003224266Y0000397854D01*
X0003239148Y0000391689D01*
X0003254946Y0000388547D01*
X0003271053Y0000388547D01*
X0003286851Y0000391689D01*
X0003301733Y0000397854D01*
X0003315126Y0000406802D01*
X0003326516Y0000418192D01*
X0003335465Y0000431585D01*
X0003341629Y0000446467D01*
X0003344771Y0000462265D01*
X0003344771Y0000478372D01*
X0003341629Y0000494171D01*
X0003335465Y0000509052D01*
X0003326516Y0000522445D01*
X0003315126Y0000533835D01*
X0003301733Y0000542784D01*
X0003286851Y0000548948D01*
X0003271053Y0000552090D01*
X0003254946Y0000552090D01*
X0003246957Y0000550501D01*
X0003232256Y0000565203D01*
X0003230835Y0000566934D01*
X0003223929Y0000572602D01*
X0003216050Y0000576813D01*
X0003207501Y0000579407D01*
X0003200838Y0000580063D01*
X0003200838Y0000580063D01*
X0003198610Y0000580282D01*
X0003196382Y0000580063D01*
X0002554617Y0000580063D01*
X0002552389Y0000580282D01*
X0002550161Y0000580063D01*
X0002550161Y0000580063D01*
X0002544279Y0000579483D01*
X0002543498Y0000579407D01*
X0002540905Y0000578620D01*
X0002534949Y0000576813D01*
X0002527070Y0000572602D01*
X0002527070Y0000572602D01*
X0002527070Y0000572602D01*
X0002521894Y0000568354D01*
X0002521894Y0000568354D01*
X0002520164Y0000566934D01*
X0002518743Y0000565203D01*
X0002429449Y0000475909D01*
X0002427032Y0000475909D01*
X0002415326Y0000473581D01*
X0002404299Y0000469013D01*
X0002394375Y0000462382D01*
X0002385936Y0000453943D01*
X0002383000Y0000449548D01*
X0002380063Y0000453943D01*
X0002371624Y0000462382D01*
X0002361700Y0000469013D01*
X0002350673Y0000473581D01*
X0002338967Y0000475909D01*
X0002327032Y0000475909D01*
X0002315326Y0000473581D01*
X0002304299Y0000469013D01*
X0002294375Y0000462382D01*
X0002285936Y0000453943D01*
X0002282999Y0000449548D01*
X0002280063Y0000453943D01*
X0002271624Y0000462382D01*
X0002261700Y0000469013D01*
X0002254017Y0000472196D01*
X0002460194Y0000678372D01*
X0003181228Y0000678372D01*
X0003181228Y0000662265D01*
X0003184370Y0000646467D01*
X0003190534Y0000631585D01*
X0003199483Y0000618192D01*
X0003210873Y0000606802D01*
X0003224266Y0000597854D01*
X0003239148Y0000591689D01*
X0003254946Y0000588547D01*
X0003271053Y0000588547D01*
X0003286851Y0000591689D01*
X0003301733Y0000597854D01*
X0003315126Y0000606802D01*
X0003326516Y0000618192D01*
X0003335465Y0000631585D01*
X0003341629Y0000646467D01*
X0003344771Y0000662265D01*
X0003344771Y0000678372D01*
X0003341629Y0000694171D01*
X0003335465Y0000709052D01*
X0003326516Y0000722445D01*
X0003315126Y0000733835D01*
X0003301733Y0000742784D01*
X0003286851Y0000748948D01*
X0003271053Y0000752090D01*
X0003254946Y0000752090D01*
X0003239148Y0000748948D01*
X0003224266Y0000742784D01*
X0003210873Y0000733835D01*
X0003199483Y0000722445D01*
X0003190534Y0000709052D01*
X0003184370Y0000694171D01*
X0003181228Y0000678372D01*
X0002460194Y0000678372D01*
X0002498337Y0000716515D01*
X0003152323Y0000716515D01*
X0003154551Y0000716296D01*
X0003156779Y0000716515D01*
X0003156779Y0000716515D01*
X0003163442Y0000717172D01*
X0003171991Y0000719765D01*
X0003179870Y0000723977D01*
X0003186776Y0000729644D01*
X0003188197Y0000731375D01*
X0003246957Y0000790136D01*
X0003254946Y0000788547D01*
X0003271053Y0000788547D01*
X0003286851Y0000791689D01*
X0003301733Y0000797854D01*
X0003315126Y0000806802D01*
X0003326516Y0000818192D01*
X0003335465Y0000831585D01*
X0003341629Y0000846467D01*
X0003344771Y0000862265D01*
X0003344771Y0000878372D01*
X0003341629Y0000894171D01*
X0003335465Y0000909052D01*
X0003326516Y0000922445D01*
X0003315126Y0000933835D01*
X0003301733Y0000942784D01*
X0003286851Y0000948948D01*
X0003271053Y0000952090D01*
X0003254946Y0000952090D01*
X0003239148Y0000948948D01*
X0003224266Y0000942784D01*
X0003210873Y0000933835D01*
X0003199483Y0000922445D01*
X0003190534Y0000909052D01*
X0003184370Y0000894171D01*
X0003181228Y0000878372D01*
X0003181228Y0000862265D01*
X0003182817Y0000854277D01*
X0003135764Y0000807224D01*
X0002481778Y0000807224D01*
X0002479551Y0000807444D01*
X0002477323Y0000807224D01*
X0002477323Y0000807224D01*
X0002470660Y0000806568D01*
X0002462110Y0000803975D01*
X0002454231Y0000799763D01*
X0002454231Y0000799763D01*
X0002454231Y0000799763D01*
X0002449056Y0000795516D01*
X0002449056Y0000795516D01*
X0002447325Y0000794095D01*
X0002445905Y0000792365D01*
X0002129449Y0000475909D01*
X0002127032Y0000475909D01*
X0002115326Y0000473581D01*
X0002104299Y0000469013D01*
X0002094375Y0000462382D01*
X0002085936Y0000453943D01*
X0002079305Y0000444019D01*
X0002074737Y0000432992D01*
X0002074624Y0000432420D01*
X0002072878Y0000436634D01*
X0002067953Y0000444004D01*
X0002061685Y0000450272D01*
X0002054315Y0000455197D01*
X0002052921Y0000455775D01*
X0002052921Y0000724340D01*
X0002053017Y0000725319D01*
X0002052921Y0000726297D01*
X0002052921Y0000726297D01*
X0002052632Y0000729224D01*
X0002051493Y0000732979D01*
X0002049644Y0000736440D01*
X0002047154Y0000739473D01*
X0002046394Y0000740097D01*
X0001916245Y0000870246D01*
X0001963000Y0000870246D01*
X0001965940Y0000870536D01*
X0001968767Y0000871393D01*
X0001971373Y0000872786D01*
X0001973657Y0000874661D01*
X0001975532Y0000876945D01*
X0001976925Y0000879551D01*
X0001977782Y0000882378D01*
X0001978072Y0000885319D01*
X0001978072Y0000942073D01*
X0001990306Y0000929839D01*
X0001989729Y0000928445D01*
X0001988000Y0000919751D01*
X0001988000Y0000910887D01*
X0001989729Y0000902193D01*
X0001993121Y0000894003D01*
X0001998046Y0000886633D01*
X0002004314Y0000880365D01*
X0002011684Y0000875440D01*
X0002019873Y0000872048D01*
X0002028567Y0000870319D01*
X0002037432Y0000870319D01*
X0002046126Y0000872048D01*
X0002054315Y0000875440D01*
X0002061685Y0000880365D01*
X0002067953Y0000886633D01*
X0002072878Y0000894003D01*
X0002076270Y0000902193D01*
X0002077999Y0000910887D01*
X0002077999Y0000919751D01*
X0002087999Y0000919751D01*
X0002087999Y0000910887D01*
X0002089729Y0000902193D01*
X0002093121Y0000894003D01*
X0002098046Y0000886633D01*
X0002104314Y0000880365D01*
X0002111684Y0000875440D01*
X0002119873Y0000872048D01*
X0002128567Y0000870319D01*
X0002137432Y0000870319D01*
X0002146126Y0000872048D01*
X0002154315Y0000875440D01*
X0002161685Y0000880365D01*
X0002167953Y0000886633D01*
X0002172878Y0000894003D01*
X0002176270Y0000902193D01*
X0002177999Y0000910887D01*
X0002177999Y0000919751D01*
X0002176270Y0000928445D01*
X0002172878Y0000936634D01*
X0002167953Y0000944004D01*
X0002161685Y0000950272D01*
X0002154315Y0000955197D01*
X0002146126Y0000958589D01*
X0002137432Y0000960319D01*
X0002128567Y0000960319D01*
X0002119873Y0000958589D01*
X0002111684Y0000955197D01*
X0002104314Y0000950272D01*
X0002098046Y0000944004D01*
X0002093121Y0000936634D01*
X0002089729Y0000928445D01*
X0002087999Y0000919751D01*
X0002077999Y0000919751D01*
X0002076270Y0000928445D01*
X0002072878Y0000936634D01*
X0002067953Y0000944004D01*
X0002061685Y0000950272D01*
X0002054315Y0000955197D01*
X0002046126Y0000958589D01*
X0002037432Y0000960319D01*
X0002028567Y0000960319D01*
X0002019873Y0000958589D01*
X0002018479Y0000958012D01*
X0001888141Y0001088350D01*
X0001888141Y0001393389D01*
X0001892056Y0001397304D01*
X0001894693Y0001387852D01*
X0001904497Y0001383242D01*
X0001915013Y0001380633D01*
X0001925835Y0001380125D01*
X0001936548Y0001381739D01*
X0001946741Y0001385412D01*
X0001951306Y0001387852D01*
X0001953943Y0001397304D01*
X0001958526Y0001392721D01*
X0001959342Y0001393537D01*
X0001959342Y0001170033D01*
X0001959246Y0001169055D01*
X0001959342Y0001168077D01*
X0001959342Y0001168076D01*
X0001959630Y0001165150D01*
X0001960769Y0001161394D01*
X0001962619Y0001157934D01*
X0001965109Y0001154900D01*
X0001965869Y0001154276D01*
X0002190306Y0000929839D01*
X0002189729Y0000928445D01*
X0002188000Y0000919751D01*
X0002188000Y0000910887D01*
X0002189729Y0000902193D01*
X0002193121Y0000894003D01*
X0002198046Y0000886633D01*
X0002204314Y0000880365D01*
X0002211684Y0000875440D01*
X0002219873Y0000872048D01*
X0002228567Y0000870319D01*
X0002237432Y0000870319D01*
X0002246125Y0000872048D01*
X0002254315Y0000875440D01*
X0002261685Y0000880365D01*
X0002267953Y0000886633D01*
X0002272878Y0000894003D01*
X0002276270Y0000902193D01*
X0002278000Y0000910887D01*
X0002278000Y0000919751D01*
X0002288000Y0000919751D01*
X0002288000Y0000910887D01*
X0002289729Y0000902193D01*
X0002293121Y0000894003D01*
X0002298046Y0000886633D01*
X0002304314Y0000880365D01*
X0002311684Y0000875440D01*
X0002319873Y0000872048D01*
X0002328567Y0000870319D01*
X0002337432Y0000870319D01*
X0002346126Y0000872048D01*
X0002354315Y0000875440D01*
X0002361685Y0000880365D01*
X0002367953Y0000886633D01*
X0002372878Y0000894003D01*
X0002376270Y0000902193D01*
X0002378000Y0000910887D01*
X0002378000Y0000919751D01*
X0002387999Y0000919751D01*
X0002387999Y0000910887D01*
X0002389729Y0000902193D01*
X0002393121Y0000894003D01*
X0002398046Y0000886633D01*
X0002404314Y0000880365D01*
X0002411684Y0000875440D01*
X0002419873Y0000872048D01*
X0002428567Y0000870319D01*
X0002437432Y0000870319D01*
X0002446126Y0000872048D01*
X0002454315Y0000875440D01*
X0002461685Y0000880365D01*
X0002467953Y0000886633D01*
X0002472878Y0000894003D01*
X0002476270Y0000902193D01*
X0002477999Y0000910887D01*
X0002477999Y0000919751D01*
X0002488000Y0000919751D01*
X0002488000Y0000910887D01*
X0002489729Y0000902193D01*
X0002493121Y0000894003D01*
X0002498046Y0000886633D01*
X0002504314Y0000880365D01*
X0002511684Y0000875440D01*
X0002519873Y0000872048D01*
X0002528567Y0000870319D01*
X0002537432Y0000870319D01*
X0002546125Y0000872048D01*
X0002554315Y0000875440D01*
X0002561685Y0000880365D01*
X0002567953Y0000886633D01*
X0002572878Y0000894003D01*
X0002576270Y0000902193D01*
X0002577999Y0000910887D01*
X0002577999Y0000919751D01*
X0002588000Y0000919751D01*
X0002588000Y0000910887D01*
X0002589729Y0000902193D01*
X0002593121Y0000894003D01*
X0002598046Y0000886633D01*
X0002604314Y0000880365D01*
X0002611684Y0000875440D01*
X0002619873Y0000872048D01*
X0002628567Y0000870319D01*
X0002637432Y0000870319D01*
X0002646125Y0000872048D01*
X0002654315Y0000875440D01*
X0002661685Y0000880365D01*
X0002667953Y0000886633D01*
X0002672878Y0000894003D01*
X0002676270Y0000902193D01*
X0002678000Y0000910887D01*
X0002678000Y0000919751D01*
X0002676270Y0000928445D01*
X0002672878Y0000936634D01*
X0002667953Y0000944004D01*
X0002661685Y0000950272D01*
X0002654315Y0000955197D01*
X0002646125Y0000958589D01*
X0002637432Y0000960319D01*
X0002628567Y0000960319D01*
X0002619873Y0000958589D01*
X0002611684Y0000955197D01*
X0002604314Y0000950272D01*
X0002598046Y0000944004D01*
X0002593121Y0000936634D01*
X0002589729Y0000928445D01*
X0002588000Y0000919751D01*
X0002577999Y0000919751D01*
X0002576270Y0000928445D01*
X0002572878Y0000936634D01*
X0002567953Y0000944004D01*
X0002561685Y0000950272D01*
X0002554315Y0000955197D01*
X0002546125Y0000958589D01*
X0002537432Y0000960319D01*
X0002528567Y0000960319D01*
X0002519873Y0000958589D01*
X0002511684Y0000955197D01*
X0002504314Y0000950272D01*
X0002498046Y0000944004D01*
X0002493121Y0000936634D01*
X0002489729Y0000928445D01*
X0002488000Y0000919751D01*
X0002477999Y0000919751D01*
X0002476270Y0000928445D01*
X0002472878Y0000936634D01*
X0002467953Y0000944004D01*
X0002461685Y0000950272D01*
X0002454315Y0000955197D01*
X0002446126Y0000958589D01*
X0002437432Y0000960319D01*
X0002428567Y0000960319D01*
X0002419873Y0000958589D01*
X0002411684Y0000955197D01*
X0002404314Y0000950272D01*
X0002398046Y0000944004D01*
X0002393121Y0000936634D01*
X0002389729Y0000928445D01*
X0002387999Y0000919751D01*
X0002378000Y0000919751D01*
X0002376270Y0000928445D01*
X0002372878Y0000936634D01*
X0002367953Y0000944004D01*
X0002361685Y0000950272D01*
X0002354315Y0000955197D01*
X0002346126Y0000958589D01*
X0002337432Y0000960319D01*
X0002328567Y0000960319D01*
X0002319873Y0000958589D01*
X0002311684Y0000955197D01*
X0002304314Y0000950272D01*
X0002298046Y0000944004D01*
X0002293121Y0000936634D01*
X0002289729Y0000928445D01*
X0002288000Y0000919751D01*
X0002278000Y0000919751D01*
X0002276270Y0000928445D01*
X0002272878Y0000936634D01*
X0002267953Y0000944004D01*
X0002261685Y0000950272D01*
X0002254315Y0000955197D01*
X0002246125Y0000958589D01*
X0002237432Y0000960319D01*
X0002228567Y0000960319D01*
X0002219873Y0000958589D01*
X0002218479Y0000958012D01*
X0001999185Y0001177306D01*
X0001999185Y0001397110D01*
X0002001684Y0001395440D01*
X0002009873Y0001392048D01*
X0002018567Y0001390319D01*
X0002027432Y0001390319D01*
X0002036125Y0001392048D01*
X0002044315Y0001395440D01*
X0002051685Y0001400365D01*
X0002057953Y0001406633D01*
X0002062878Y0001414003D01*
X0002064624Y0001418217D01*
X0002064737Y0001417645D01*
X0002069305Y0001406618D01*
X0002075936Y0001396694D01*
X0002084375Y0001388255D01*
X0002094299Y0001381624D01*
X0002105326Y0001377057D01*
X0002117032Y0001374728D01*
X0002128967Y0001374728D01*
X0002140673Y0001377057D01*
X0002151700Y0001381624D01*
X0002161624Y0001388255D01*
X0002170063Y0001396694D01*
X0002173000Y0001401089D01*
X0002175936Y0001396694D01*
X0002184375Y0001388255D01*
X0002194299Y0001381624D01*
X0002205326Y0001377057D01*
X0002217032Y0001374728D01*
X0002228967Y0001374728D01*
X0002240673Y0001377057D01*
X0002251700Y0001381624D01*
X0002261624Y0001388255D01*
X0002270063Y0001396694D01*
X0002273000Y0001401089D01*
X0002275936Y0001396694D01*
X0002284375Y0001388255D01*
X0002294299Y0001381624D01*
X0002305326Y0001377057D01*
X0002317032Y0001374728D01*
X0002319449Y0001374728D01*
X0002425067Y0001269111D01*
X0002426487Y0001267381D01*
X0002428217Y0001265960D01*
X0002428217Y0001265960D01*
X0002432811Y0001262190D01*
X0002433393Y0001261713D01*
X0002434798Y0001260961D01*
X0002441272Y0001257501D01*
X0002449821Y0001254908D01*
X0002450601Y0001254831D01*
X0002456484Y0001254252D01*
X0002456484Y0001254252D01*
X0002458712Y0001254032D01*
X0002460940Y0001254252D01*
X0003093512Y0001254252D01*
X0003095740Y0001254032D01*
X0003097967Y0001254252D01*
X0003097968Y0001254252D01*
X0003104631Y0001254908D01*
X0003113180Y0001257501D01*
X0003121059Y0001261713D01*
X0003127965Y0001267381D01*
X0003129386Y0001269111D01*
X0003181379Y0001321104D01*
X0003181670Y0001318141D01*
X0003183420Y0001312374D01*
X0003186260Y0001307060D01*
X0003190083Y0001302402D01*
X0003194741Y0001298579D01*
X0003200055Y0001295739D01*
X0003205822Y0001293990D01*
X0003211818Y0001293399D01*
X0003314181Y0001293399D01*
X0003320177Y0001293990D01*
X0003325944Y0001295739D01*
X0003331258Y0001298579D01*
X0003335916Y0001302402D01*
X0003339739Y0001307060D01*
X0003342579Y0001312374D01*
X0003344329Y0001318141D01*
X0003344919Y0001324138D01*
X0003344919Y0001426500D01*
X0003344329Y0001432497D01*
X0003342579Y0001438263D01*
X0003339739Y0001443577D01*
X0003335916Y0001448235D01*
X0003331258Y0001452058D01*
X0003325944Y0001454898D01*
X0003320177Y0001456648D01*
X0003314181Y0001457238D01*
X0003211818Y0001457238D01*
X0003205822Y0001456648D01*
X0003200055Y0001454898D01*
X0003194741Y0001452058D01*
X0003190083Y0001448235D01*
X0003186260Y0001443577D01*
X0003183420Y0001438263D01*
X0003181670Y0001432497D01*
X0003181080Y0001426500D01*
X0003181080Y0001420673D01*
X0003173680Y0001420673D01*
X0003171452Y0001420892D01*
X0003169224Y0001420673D01*
X0003169224Y0001420673D01*
X0003162561Y0001420017D01*
X0003154012Y0001417423D01*
X0003146133Y0001413212D01*
X0003144578Y0001411936D01*
X0003140957Y0001408965D01*
X0003140957Y0001408964D01*
X0003139227Y0001407544D01*
X0003137806Y0001405814D01*
X0003076953Y0001344960D01*
X0002933393Y0001344960D01*
X0002945215Y0001361032D01*
X0002905138Y0001401109D01*
X0002912209Y0001408180D01*
X0002952286Y0001368103D01*
X0002971564Y0001382284D01*
X0002985749Y0001408424D01*
X0002994562Y0001436830D01*
X0002997664Y0001466409D01*
X0002994936Y0001496025D01*
X0002986482Y0001524539D01*
X0002972628Y0001550857D01*
X0002971564Y0001552448D01*
X0002952286Y0001566629D01*
X0002912209Y0001526551D01*
X0002905138Y0001533622D01*
X0002945215Y0001573700D01*
X0002934097Y0001588815D01*
X0003182310Y0001588815D01*
X0003181228Y0001583372D01*
X0003181228Y0001567265D01*
X0003184370Y0001551467D01*
X0003190534Y0001536585D01*
X0003199483Y0001523192D01*
X0003210873Y0001511802D01*
X0003224266Y0001502854D01*
X0003239148Y0001496689D01*
X0003254946Y0001493547D01*
X0003271053Y0001493547D01*
X0003286851Y0001496689D01*
X0003301733Y0001502854D01*
X0003315126Y0001511802D01*
X0003326516Y0001523192D01*
X0003335465Y0001536585D01*
X0003341629Y0001551467D01*
X0003344771Y0001567265D01*
X0003344771Y0001583372D01*
X0003341629Y0001599171D01*
X0003335465Y0001614052D01*
X0003326516Y0001627445D01*
X0003315126Y0001638835D01*
X0003301733Y0001647784D01*
X0003286851Y0001653948D01*
X0003271053Y0001657090D01*
X0003254946Y0001657090D01*
X0003246957Y0001655501D01*
X0003237795Y0001664664D01*
X0003236375Y0001666395D01*
X0003229469Y0001672062D01*
X0003221589Y0001676274D01*
X0003213040Y0001678867D01*
X0003206377Y0001679523D01*
X0003206377Y0001679523D01*
X0003204149Y0001679743D01*
X0003201921Y0001679523D01*
X0002624078Y0001679523D01*
X0002621850Y0001679743D01*
X0002619622Y0001679523D01*
X0002619622Y0001679523D01*
X0002613739Y0001678944D01*
X0002612959Y0001678867D01*
X0002610940Y0001678255D01*
X0002604410Y0001676274D01*
X0002596530Y0001672062D01*
X0002596530Y0001672062D01*
X0002596530Y0001672062D01*
X0002591355Y0001667815D01*
X0002591355Y0001667815D01*
X0002589624Y0001666395D01*
X0002588204Y0001664664D01*
X0002419449Y0001495909D01*
X0002417032Y0001495909D01*
X0002405326Y0001493581D01*
X0002394299Y0001489013D01*
X0002384375Y0001482382D01*
X0002375936Y0001473943D01*
X0002372999Y0001469548D01*
X0002370063Y0001473943D01*
X0002361624Y0001482382D01*
X0002351700Y0001489013D01*
X0002344017Y0001492196D01*
X0002581786Y0001729964D01*
X0003194958Y0001729964D01*
X0003199483Y0001723192D01*
X0003210873Y0001711802D01*
X0003224266Y0001702854D01*
X0003239148Y0001696689D01*
X0003254946Y0001693547D01*
X0003271053Y0001693547D01*
X0003286851Y0001696689D01*
X0003301733Y0001702854D01*
X0003315126Y0001711802D01*
X0003326516Y0001723192D01*
X0003335465Y0001736585D01*
X0003341629Y0001751467D01*
X0003344771Y0001767265D01*
X0003344771Y0001783372D01*
X0003341629Y0001799171D01*
X0003335465Y0001814052D01*
X0003326516Y0001827445D01*
X0003315126Y0001838835D01*
X0003301733Y0001847784D01*
X0003286851Y0001853948D01*
X0003271053Y0001857090D01*
X0003254946Y0001857090D01*
X0003239148Y0001853948D01*
X0003224266Y0001847784D01*
X0003210873Y0001838835D01*
X0003199483Y0001827445D01*
X0003194958Y0001820673D01*
X0003162913Y0001820673D01*
X0003170070Y0001822844D01*
X0003177949Y0001827055D01*
X0003184855Y0001832723D01*
X0003186275Y0001834454D01*
X0003246957Y0001895136D01*
X0003254946Y0001893547D01*
X0003271053Y0001893547D01*
X0003286851Y0001896689D01*
X0003301733Y0001902854D01*
X0003315126Y0001911802D01*
X0003326516Y0001923192D01*
X0003335465Y0001936585D01*
X0003341629Y0001951467D01*
X0003344771Y0001967265D01*
X0003344771Y0001983372D01*
X0003341629Y0001999171D01*
X0003335465Y0002014052D01*
X0003326516Y0002027445D01*
X0003315126Y0002038835D01*
X0003301733Y0002047784D01*
X0003286851Y0002053948D01*
X0003271053Y0002057090D01*
X0003254946Y0002057090D01*
X0003239148Y0002053948D01*
X0003224266Y0002047784D01*
X0003210873Y0002038835D01*
X0003199483Y0002027445D01*
X0003190534Y0002014052D01*
X0003184370Y0001999171D01*
X0003181228Y0001983372D01*
X0003181228Y0001967265D01*
X0003182817Y0001959277D01*
X0003133843Y0001910303D01*
X0002660406Y0001910303D01*
X0002662878Y0001914003D01*
X0002666270Y0001922193D01*
X0002667999Y0001930887D01*
X0002667999Y0001939751D01*
X0002666270Y0001948445D01*
X0002662878Y0001956634D01*
X0002657953Y0001964004D01*
X0002651685Y0001970272D01*
X0002644315Y0001975197D01*
X0002636126Y0001978589D01*
X0002627432Y0001980319D01*
X0002618567Y0001980319D01*
X0002609873Y0001978589D01*
X0002601684Y0001975197D01*
X0002599170Y0001973518D01*
X0002553734Y0002018954D01*
X0002560245Y0002020249D01*
X0002569162Y0002023943D01*
X0002577188Y0002029305D01*
X0002584013Y0002036130D01*
X0002589375Y0002044156D01*
X0002593069Y0002053073D01*
X0002594952Y0002062540D01*
X0002594952Y0002072192D01*
X0002596952Y0002072192D01*
X0002596952Y0002062540D01*
X0002598835Y0002053073D01*
X0002602529Y0002044156D01*
X0002607891Y0002036130D01*
X0002614717Y0002029305D01*
X0002622742Y0002023943D01*
X0002631659Y0002020249D01*
X0002641126Y0002018366D01*
X0002650778Y0002018366D01*
X0002660245Y0002020249D01*
X0002669162Y0002023943D01*
X0002677188Y0002029305D01*
X0002684013Y0002036130D01*
X0002689375Y0002044156D01*
X0002693069Y0002053073D01*
X0002694952Y0002062540D01*
X0002694952Y0002072192D01*
X0002696952Y0002072192D01*
X0002696952Y0002062540D01*
X0002698835Y0002053073D01*
X0002702529Y0002044156D01*
X0002707891Y0002036130D01*
X0002714717Y0002029305D01*
X0002722742Y0002023943D01*
X0002731660Y0002020249D01*
X0002741126Y0002018366D01*
X0002750778Y0002018366D01*
X0002760245Y0002020249D01*
X0002769162Y0002023943D01*
X0002777188Y0002029305D01*
X0002784013Y0002036130D01*
X0002789375Y0002044156D01*
X0002793069Y0002053073D01*
X0002794952Y0002062540D01*
X0002794952Y0002072192D01*
X0002793069Y0002081659D01*
X0002789375Y0002090576D01*
X0002784013Y0002098602D01*
X0002777188Y0002105427D01*
X0002769162Y0002110789D01*
X0002760245Y0002114483D01*
X0002750778Y0002116366D01*
X0002741126Y0002116366D01*
X0002731660Y0002114483D01*
X0002722742Y0002110789D01*
X0002714717Y0002105427D01*
X0002707891Y0002098602D01*
X0002702529Y0002090576D01*
X0002698835Y0002081659D01*
X0002696952Y0002072192D01*
X0002694952Y0002072192D01*
X0002693069Y0002081659D01*
X0002689375Y0002090576D01*
X0002684013Y0002098602D01*
X0002677188Y0002105427D01*
X0002669162Y0002110789D01*
X0002660245Y0002114483D01*
X0002650778Y0002116366D01*
X0002641126Y0002116366D01*
X0002631659Y0002114483D01*
X0002622742Y0002110789D01*
X0002614717Y0002105427D01*
X0002607891Y0002098602D01*
X0002602529Y0002090576D01*
X0002598835Y0002081659D01*
X0002596952Y0002072192D01*
X0002594952Y0002072192D01*
X0002593069Y0002081659D01*
X0002589375Y0002090576D01*
X0002584013Y0002098602D01*
X0002577188Y0002105427D01*
X0002569162Y0002110789D01*
X0002560245Y0002114483D01*
X0002550778Y0002116366D01*
X0002541126Y0002116366D01*
X0002531660Y0002114483D01*
X0002522742Y0002110789D01*
X0002514717Y0002105427D01*
X0002509522Y0002100232D01*
X0002481707Y0002128048D01*
X0002481083Y0002128808D01*
X0002478050Y0002131297D01*
X0002474589Y0002133147D01*
X0002470834Y0002134286D01*
X0002467907Y0002134575D01*
X0002467907Y0002134575D01*
X0002466929Y0002134671D01*
X0002465950Y0002134575D01*
X0002226399Y0002134575D01*
X0002225421Y0002134671D01*
X0002224442Y0002134575D01*
X0002221516Y0002134286D01*
X0002217760Y0002133147D01*
X0002214300Y0002131297D01*
X0002211266Y0002128808D01*
X0002210642Y0002128048D01*
X0002182605Y0002100010D01*
X0002177188Y0002105427D01*
X0002169162Y0002110789D01*
X0002160245Y0002114483D01*
X0002150778Y0002116366D01*
X0002141126Y0002116366D01*
X0002131660Y0002114483D01*
X0002122742Y0002110789D01*
X0002114717Y0002105427D01*
X0002107891Y0002098602D01*
X0002102529Y0002090576D01*
X0002098835Y0002081659D01*
X0002096952Y0002072192D01*
X0002096952Y0002062540D01*
X0002098835Y0002053073D01*
X0002102529Y0002044156D01*
X0002105126Y0002040270D01*
X0002104334Y0002040192D01*
X0002100579Y0002039053D01*
X0002097118Y0002037203D01*
X0002094085Y0002034713D01*
X0002093461Y0002033953D01*
X0002037520Y0001978012D01*
X0002036125Y0001978589D01*
X0002027432Y0001980319D01*
X0002018567Y0001980319D01*
X0002009873Y0001978589D01*
X0002001684Y0001975197D01*
X0001995490Y0001971058D01*
X0001993418Y0001973583D01*
X0001992658Y0001974207D01*
X0001932912Y0002033953D01*
X0001932288Y0002034713D01*
X0001929255Y0002037203D01*
X0001925920Y0002038985D01*
X0001929375Y0002044156D01*
X0001933069Y0002053073D01*
X0001934952Y0002062540D01*
X0001934952Y0002072192D01*
X0001996952Y0002072192D01*
X0001996952Y0002062540D01*
X0001998835Y0002053073D01*
X0002002529Y0002044156D01*
X0002007891Y0002036130D01*
X0002014717Y0002029305D01*
X0002022742Y0002023943D01*
X0002031660Y0002020249D01*
X0002041126Y0002018366D01*
X0002050778Y0002018366D01*
X0002060245Y0002020249D01*
X0002069162Y0002023943D01*
X0002077188Y0002029305D01*
X0002084013Y0002036130D01*
X0002089375Y0002044156D01*
X0002093069Y0002053073D01*
X0002094952Y0002062540D01*
X0002094952Y0002072192D01*
X0002093069Y0002081659D01*
X0002089375Y0002090576D01*
X0002084013Y0002098602D01*
X0002077188Y0002105427D01*
X0002069162Y0002110789D01*
X0002060245Y0002114483D01*
X0002050778Y0002116366D01*
X0002041126Y0002116366D01*
X0002031660Y0002114483D01*
X0002022742Y0002110789D01*
X0002014717Y0002105427D01*
X0002007891Y0002098602D01*
X0002002529Y0002090576D01*
X0001998835Y0002081659D01*
X0001996952Y0002072192D01*
X0001934952Y0002072192D01*
X0001933069Y0002081659D01*
X0001929375Y0002090576D01*
X0001924013Y0002098602D01*
X0001917188Y0002105427D01*
X0001909162Y0002110789D01*
X0001900245Y0002114483D01*
X0001890778Y0002116366D01*
X0001881126Y0002116366D01*
X0001871659Y0002114483D01*
X0001862742Y0002110789D01*
X0001854717Y0002105427D01*
X0001847891Y0002098602D01*
X0001842529Y0002090576D01*
X0001838835Y0002081659D01*
X0001836952Y0002072192D01*
X0001836952Y0002062540D01*
X0001838835Y0002053073D01*
X0001842529Y0002044156D01*
X0001847891Y0002036130D01*
X0001854717Y0002029305D01*
X0001862742Y0002023943D01*
X0001866031Y0002022580D01*
X0001866031Y0002021538D01*
X0001865935Y0002020559D01*
X0001866319Y0002016654D01*
X0001867458Y0002012898D01*
X0001869308Y0002009438D01*
X0001871798Y0002006404D01*
X0001874831Y0002003915D01*
X0001878292Y0002002065D01*
X0001882047Y0002000926D01*
X0001884974Y0002000638D01*
X0001885952Y0002000541D01*
X0001886931Y0002000638D01*
X0001909882Y0002000638D01*
X0001930128Y0001980391D01*
X0001893000Y0001980391D01*
X0001890059Y0001980102D01*
X0001887231Y0001979244D01*
X0001884626Y0001977851D01*
X0001882342Y0001975977D01*
X0001880467Y0001973692D01*
X0001879074Y0001971087D01*
X0001878217Y0001968259D01*
X0001877927Y0001965319D01*
X0001877927Y0001956757D01*
X0001810109Y0002024575D01*
X0001817188Y0002029305D01*
X0001824013Y0002036130D01*
X0001829375Y0002044156D01*
X0001833069Y0002053073D01*
X0001834952Y0002062540D01*
X0001834952Y0002072192D01*
X0001833069Y0002081659D01*
X0001829375Y0002090576D01*
X0001824013Y0002098602D01*
X0001817188Y0002105427D01*
X0001809162Y0002110789D01*
X0001800245Y0002114483D01*
X0001790778Y0002116366D01*
X0001781126Y0002116366D01*
X0001771660Y0002114483D01*
X0001762742Y0002110789D01*
X0001754717Y0002105427D01*
X0001747891Y0002098602D01*
X0001742529Y0002090576D01*
X0001738835Y0002081659D01*
X0001736952Y0002072192D01*
X0001736952Y0002062540D01*
X0001738835Y0002053073D01*
X0001742529Y0002044156D01*
X0001747891Y0002036130D01*
X0001754717Y0002029305D01*
X0001762742Y0002023943D01*
X0001766031Y0002022580D01*
X0001766031Y0002021537D01*
X0001765935Y0002020559D01*
X0001766319Y0002016654D01*
X0001767458Y0002012898D01*
X0001767458Y0002012898D01*
X0001769308Y0002009438D01*
X0001771798Y0002006404D01*
X0001772558Y0002005780D01*
X0001848299Y0001930039D01*
X0001848299Y0001389166D01*
X0001840615Y0001400665D01*
X0001827559Y0001413722D01*
X0001812205Y0001423981D01*
X0001795146Y0001431047D01*
X0001777035Y0001434649D01*
X0001758570Y0001434649D01*
X0001740460Y0001431047D01*
X0001723400Y0001423981D01*
X0001708047Y0001413722D01*
X0001696137Y0001401812D01*
X0001696137Y0002002571D01*
X0001699347Y0002005780D01*
X0001700107Y0002006404D01*
X0001702596Y0002009438D01*
X0001704446Y0002012898D01*
X0001705585Y0002016654D01*
X0001705874Y0002019580D01*
X0001705874Y0002019581D01*
X0001705970Y0002020559D01*
X0001705874Y0002021537D01*
X0001705874Y0002022580D01*
X0001709162Y0002023943D01*
X0001717188Y0002029305D01*
X0001724013Y0002036130D01*
X0001729375Y0002044156D01*
X0001733069Y0002053073D01*
X0001734952Y0002062540D01*
X0001734952Y0002072192D01*
X0001733069Y0002081659D01*
X0001729375Y0002090576D01*
X0001724013Y0002098602D01*
X0001717188Y0002105427D01*
X0001709162Y0002110789D01*
X0001700245Y0002114483D01*
X0001690778Y0002116366D01*
X0001681126Y0002116366D01*
X0001671660Y0002114483D01*
X0001662742Y0002110789D01*
X0001654717Y0002105427D01*
X0001647891Y0002098602D01*
X0001642529Y0002090576D01*
X0001638835Y0002081659D01*
X0001636952Y0002072192D01*
X0001636952Y0002062540D01*
X0001638835Y0002053073D01*
X0001642529Y0002044156D01*
X0001647891Y0002036130D01*
X0001654717Y0002029305D01*
X0001661754Y0002024603D01*
X0001659572Y0002021944D01*
X0001659010Y0002020892D01*
X0001657722Y0002018483D01*
X0001656583Y0002014728D01*
X0001656198Y0002010823D01*
X0001656295Y0002009844D01*
X0001656295Y0001215887D01*
X0001656198Y0001214909D01*
X0001656295Y0001213931D01*
X0001656295Y0001213931D01*
X0001656583Y0001211004D01*
X0001657722Y0001207249D01*
X0001659572Y0001203788D01*
X0001662061Y0001200755D01*
X0001662822Y0001200131D01*
X0001902600Y0000960352D01*
X0001900059Y0000960102D01*
X0001897231Y0000959244D01*
X0001894626Y0000957851D01*
X0001892342Y0000955977D01*
X0001890467Y0000953692D01*
X0001889074Y0000951087D01*
X0001888217Y0000948259D01*
X0001887927Y0000945319D01*
X0001887927Y0000898564D01*
X0001739851Y0001046640D01*
X0001741494Y0001050608D01*
X0001743433Y0001060351D01*
X0001743433Y0001070286D01*
X0001741494Y0001080029D01*
X0001737693Y0001089208D01*
X0001732173Y0001097468D01*
X0001725149Y0001104493D01*
X0001716889Y0001110012D01*
X0001707710Y0001113814D01*
X0001697967Y0001115752D01*
X0001688032Y0001115752D01*
X0001678289Y0001113814D01*
X0001669110Y0001110012D01*
X0001660850Y0001104493D01*
X0001653826Y0001097468D01*
X0001648306Y0001089208D01*
X0001644505Y0001080029D01*
X0001643787Y0001076422D01*
X0001643069Y0001080029D01*
X0001639267Y0001089208D01*
X0001633748Y0001097468D01*
X0001626723Y0001104493D01*
X0001618463Y0001110012D01*
X0001609285Y0001113814D01*
X0001599542Y0001115752D01*
X0001589607Y0001115752D01*
X0001579864Y0001113814D01*
X0001570685Y0001110012D01*
X0001565283Y0001106402D01*
X0001565283Y0001368155D01*
X0001565379Y0001369134D01*
X0001565283Y0001370112D01*
X0001565283Y0001370112D01*
X0001564995Y0001373039D01*
X0001563856Y0001376794D01*
X0001562006Y0001380255D01*
X0001559516Y0001383288D01*
X0001558756Y0001383912D01*
X0001168851Y0001773817D01*
X0001171743Y0001776733D01*
X0001177032Y0001784723D01*
X0001180661Y0001793591D01*
X0001180813Y0001795074D01*
X0001175902Y0001802578D01*
X0001128000Y0001802578D01*
X0001128000Y0001801791D01*
X0001118000Y0001801791D01*
X0001118000Y0001802578D01*
X0001070097Y0001802578D01*
X0001065186Y0001795074D01*
X0001065338Y0001793591D01*
X0001068777Y0001785189D01*
X0000867222Y0001785189D01*
X0000870661Y0001793591D01*
X0000870813Y0001795074D01*
X0000865902Y0001802578D01*
X0000818000Y0001802578D01*
X0000818000Y0001801791D01*
X0000808000Y0001801791D01*
X0000808000Y0001802578D01*
X0000807212Y0001802578D01*
X0000807212Y0001812578D01*
X0000808000Y0001812578D01*
X0000808000Y0001813366D01*
X0000818000Y0001813366D01*
X0000818000Y0001812578D01*
X0000865902Y0001812578D01*
X0000870813Y0001820083D01*
X0000870661Y0001821566D01*
X0000869257Y0001824996D01*
X0001066742Y0001824996D01*
X0001065338Y0001821566D01*
X0001065186Y0001820083D01*
X0001070097Y0001812578D01*
X0001118000Y0001812578D01*
X0001118000Y0001813366D01*
X0001128000Y0001813366D01*
X0001128000Y0001812578D01*
X0001175902Y0001812578D01*
X0001180813Y0001820083D01*
X0001180661Y0001821566D01*
X0001179257Y0001824996D01*
X0001230348Y0001824996D01*
X0001231326Y0001824899D01*
X0001232304Y0001824996D01*
X0001232305Y0001824996D01*
X0001235232Y0001825284D01*
X0001238987Y0001826423D01*
X0001242447Y0001828273D01*
X0001245481Y0001830762D01*
X0001246105Y0001831523D01*
X0001449302Y0002034720D01*
X0001454717Y0002029305D01*
X0001462742Y0002023943D01*
X0001471659Y0002020249D01*
X0001481126Y0002018366D01*
X0001490778Y0002018366D01*
X0001500245Y0002020249D01*
X0001509162Y0002023943D01*
X0001517188Y0002029305D01*
X0001524013Y0002036130D01*
X0001529375Y0002044156D01*
X0001533069Y0002053073D01*
X0001534952Y0002062540D01*
X0001534952Y0002072192D01*
X0001536952Y0002072192D01*
X0001536952Y0002062540D01*
X0001538835Y0002053073D01*
X0001542529Y0002044156D01*
X0001547891Y0002036130D01*
X0001554717Y0002029305D01*
X0001562742Y0002023943D01*
X0001571660Y0002020249D01*
X0001581126Y0002018366D01*
X0001590778Y0002018366D01*
X0001600245Y0002020249D01*
X0001609162Y0002023943D01*
X0001617188Y0002029305D01*
X0001624013Y0002036130D01*
X0001629375Y0002044156D01*
X0001633069Y0002053073D01*
X0001634952Y0002062540D01*
X0001634952Y0002072192D01*
X0001633069Y0002081659D01*
X0001629375Y0002090576D01*
X0001624013Y0002098602D01*
X0001617188Y0002105427D01*
X0001609162Y0002110789D01*
X0001600245Y0002114483D01*
X0001590778Y0002116366D01*
X0001581126Y0002116366D01*
X0001571660Y0002114483D01*
X0001562742Y0002110789D01*
X0001554717Y0002105427D01*
X0001547891Y0002098602D01*
X0001542529Y0002090576D01*
X0001538835Y0002081659D01*
X0001536952Y0002072192D01*
X0001534952Y0002072192D01*
X0001533069Y0002081659D01*
X0001529375Y0002090576D01*
X0001524013Y0002098602D01*
X0001517188Y0002105427D01*
X0001509162Y0002110789D01*
X0001500245Y0002114483D01*
X0001490778Y0002116366D01*
X0001481126Y0002116366D01*
X0001471659Y0002114483D01*
X0001462742Y0002110789D01*
X0001454717Y0002105427D01*
X0001447891Y0002098602D01*
X0001442529Y0002090576D01*
X0001441167Y0002087287D01*
X0001440124Y0002087287D01*
X0001439145Y0002087384D01*
X0001438167Y0002087287D01*
X0001435240Y0002086999D01*
X0001431485Y0002085860D01*
X0001431357Y0002085792D01*
X0001429375Y0002090576D01*
X0001424013Y0002098602D01*
X0001417188Y0002105427D01*
X0001409162Y0002110789D01*
X0001400245Y0002114483D01*
X0001390778Y0002116366D01*
X0001381126Y0002116366D01*
X0001371660Y0002114483D01*
X0001362742Y0002110789D01*
X0001354717Y0002105427D01*
X0001347891Y0002098602D01*
X0001342529Y0002090576D01*
X0001341324Y0002087667D01*
X0001336452Y0002097875D01*
X0001329529Y0002107141D01*
X0001320932Y0002114878D01*
X0001310991Y0002120790D01*
X0001300087Y0002124648D01*
X0001290952Y0002119904D01*
X0001290952Y0002072366D01*
X0001291740Y0002072366D01*
X0001291740Y0002062366D01*
X0001290952Y0002062366D01*
X0001290952Y0002014828D01*
X0001300087Y0002010084D01*
X0001310991Y0002013942D01*
X0001320932Y0002019853D01*
X0001329529Y0002027591D01*
X0001336452Y0002036856D01*
X0001341324Y0002047065D01*
X0001342529Y0002044156D01*
X0001347891Y0002036130D01*
X0001354717Y0002029305D01*
X0001362742Y0002023943D01*
X0001371660Y0002020249D01*
X0001377353Y0002019116D01*
X0001223075Y0001864838D01*
X0001171181Y0001864838D01*
X0001172042Y0001867678D01*
X0001172521Y0001872539D01*
X0001172521Y0001900098D01*
X0001172042Y0001904959D01*
X0001170624Y0001909633D01*
X0001168322Y0001913940D01*
X0001165223Y0001917716D01*
X0001161448Y0001920814D01*
X0001157140Y0001923117D01*
X0001152467Y0001924535D01*
X0001147606Y0001925013D01*
X0001098393Y0001925013D01*
X0001093532Y0001924535D01*
X0001088859Y0001923117D01*
X0001084551Y0001920814D01*
X0001080776Y0001917716D01*
X0001077677Y0001913940D01*
X0001075375Y0001909633D01*
X0001073957Y0001904959D01*
X0001073478Y0001900098D01*
X0001073478Y0001872539D01*
X0001073957Y0001867678D01*
X0001074818Y0001864838D01*
X0000861181Y0001864838D01*
X0000862042Y0001867678D01*
X0000862521Y0001872539D01*
X0000862521Y0001900098D01*
X0000862042Y0001904959D01*
X0000860624Y0001909633D01*
X0000858322Y0001913940D01*
X0000855223Y0001917716D01*
X0000851448Y0001920814D01*
X0000847140Y0001923117D01*
X0000842467Y0001924535D01*
X0000837606Y0001925013D01*
X0000788393Y0001925013D01*
X0000783532Y0001924535D01*
X0000778859Y0001923117D01*
X0000774551Y0001920814D01*
X0000770776Y0001917716D01*
X0000767677Y0001913940D01*
X0000765375Y0001909633D01*
X0000763957Y0001904959D01*
X0000763478Y0001900098D01*
X0000763478Y0001872539D01*
X0000763957Y0001867678D01*
X0000765375Y0001863005D01*
X0000767677Y0001858697D01*
X0000769509Y0001856465D01*
X0000748692Y0001835648D01*
X0000747932Y0001835024D01*
X0000745442Y0001831991D01*
X0000745192Y0001831522D01*
X0000743592Y0001828530D01*
X0000742453Y0001824775D01*
X0000742068Y0001820870D01*
X0000742165Y0001819891D01*
X0000742165Y0000877813D01*
X0000742068Y0000876834D01*
X0000742165Y0000875856D01*
X0000742165Y0000875856D01*
X0000742453Y0000872929D01*
X0000743592Y0000869174D01*
X0000745442Y0000865713D01*
X0000747932Y0000862680D01*
X0000748692Y0000862056D01*
X0000817522Y0000793226D01*
X0000775125Y0000793226D01*
X0000772185Y0000792936D01*
X0000769357Y0000792079D01*
X0000766752Y0000790686D01*
X0000764468Y0000788811D01*
X0000762593Y0000786527D01*
X0000761200Y0000783921D01*
X0000760343Y0000781094D01*
X0000760053Y0000778153D01*
X0000760053Y0000656773D01*
X0000740870Y0000675956D01*
X0000740870Y0001814899D01*
X0000740966Y0001815878D01*
X0000740581Y0001819783D01*
X0000739442Y0001823538D01*
X0000738781Y0001824775D01*
X0000737592Y0001826999D01*
X0000735103Y0001830032D01*
X0000734343Y0001830656D01*
X0000605622Y0001959377D01*
X0000605622Y0001964981D01*
X0000604440Y0001970921D01*
X0000602122Y0001976517D01*
X0000598757Y0001981553D01*
X0000594474Y0001985836D01*
X0000589438Y0001989201D01*
X0000583842Y0001991519D01*
X0000577902Y0001992701D01*
X0000571845Y0001992701D01*
X0000565905Y0001991519D01*
X0000560309Y0001989201D01*
X0000555273Y0001985836D01*
X0000550990Y0001981553D01*
X0000547625Y0001976517D01*
X0000545307Y0001970921D01*
X0000544125Y0001964981D01*
X0000544125Y0001958924D01*
X0000545307Y0001952984D01*
X0000547625Y0001947388D01*
X0000550990Y0001942352D01*
X0000555273Y0001938069D01*
X0000560309Y0001934704D01*
X0000565905Y0001932386D01*
X0000571845Y0001931204D01*
X0000575696Y0001931204D01*
X0000574031Y0001930873D01*
X0000568435Y0001928555D01*
X0000563399Y0001925190D01*
X0000559116Y0001920908D01*
X0000555751Y0001915871D01*
X0000553433Y0001910276D01*
X0000552251Y0001904335D01*
X0000552251Y0001898278D01*
X0000553433Y0001892338D01*
X0000555751Y0001886742D01*
X0000559116Y0001881706D01*
X0000563399Y0001877423D01*
X0000568435Y0001874058D01*
X0000574031Y0001871740D01*
X0000579971Y0001870559D01*
X0000585575Y0001870559D01*
X0000630350Y0001825784D01*
X0000630350Y0001149701D01*
X0000627478Y0001152058D01*
X0000622164Y0001154898D01*
X0000616398Y0001156648D01*
X0000610401Y0001157238D01*
X0000508039Y0001157238D01*
X0000502042Y0001156648D01*
X0000496276Y0001154898D01*
X0000490961Y0001152058D01*
X0000486303Y0001148235D01*
X0000482481Y0001143577D01*
X0000479640Y0001138263D01*
X0000477891Y0001132497D01*
X0000477300Y0001126500D01*
X0000477300Y0001024138D01*
X0000477891Y0001018141D01*
X0000479640Y0001012374D01*
X0000482481Y0001007060D01*
X0000486303Y0001002402D01*
X0000490961Y0000998579D01*
X0000496276Y0000995739D01*
X0000502042Y0000993990D01*
X0000508039Y0000993399D01*
X0000610401Y0000993399D01*
X0000616398Y0000993990D01*
X0000622164Y0000995739D01*
X0000627478Y0000998579D01*
X0000630350Y0001000936D01*
X0000630350Y0000714010D01*
X0000630254Y0000713031D01*
X0000630638Y0000709126D01*
X0000631777Y0000705371D01*
X0000632328Y0000704340D01*
X0000633627Y0000701910D01*
X0000636117Y0000698877D01*
X0000636877Y0000698253D01*
X0001252092Y0000083037D01*
X0000961156Y0000082989D01*
X0000929240Y0000082989D01*
X0000926891Y0000082757D01*
X0000923878Y0000081843D01*
X0000921101Y0000080359D01*
X0000918668Y0000078362D01*
X0000917938Y0000077473D01*
X0000905992Y0000064398D01*
X0000902286Y0000068103D01*
X0000921564Y0000082284D01*
X0000935749Y0000108424D01*
X0000944562Y0000136830D01*
X0000947664Y0000166409D01*
X0000944936Y0000196025D01*
X0000936482Y0000224539D01*
X0000922628Y0000250857D01*
X0000921564Y0000252448D01*
X0000902286Y0000266629D01*
X0000862209Y0000226551D01*
X0000855138Y0000233622D01*
X0000895215Y0000273700D01*
X0000881034Y0000292978D01*
X0000854894Y0000307163D01*
X0000826488Y0000315976D01*
X0000796909Y0000319078D01*
X0000767293Y0000316349D01*
X0000738779Y0000307895D01*
X0000712461Y0000294041D01*
X0000710870Y0000292978D01*
X0000696689Y0000273700D01*
X0000736767Y0000233622D01*
X0000729696Y0000226551D01*
X0000689618Y0000266629D01*
X0000670340Y0000252448D01*
X0000656155Y0000226308D01*
X0000647342Y0000197902D01*
X0000644240Y0000168323D01*
X0000646969Y0000138707D01*
X0000655423Y0000110192D01*
X0000669277Y0000083875D01*
X0000670340Y0000082284D01*
X0000689618Y0000068103D01*
X0000685533Y0000064018D01*
X0000683822Y0000065559D01*
X0000673984Y0000077480D01*
X0000673002Y0000078676D01*
X0000670569Y0000080673D01*
X0000669166Y0000081423D01*
X0000669166Y0000081423D01*
X0000669166Y0000081423D01*
X0000667792Y0000082158D01*
X0000666283Y0000082615D01*
X0000666283Y0000082615D01*
X0000666283Y0000082615D01*
X0000664779Y0000083072D01*
X0000662430Y0000083303D01*
X0000261984Y0000083303D01*
X0000261984Y0000877534D01*
X0000262061Y0000878319D01*
X0000261752Y0000881452D01*
X0000260838Y0000884465D01*
X0000259354Y0000887242D01*
X0000257357Y0000889676D01*
X0000254923Y0000891673D01*
X0000252146Y0000893158D01*
X0000249133Y0000894072D01*
X0000246785Y0000894303D01*
X0000246000Y0000894380D01*
X0000245214Y0000894303D01*
X0000015984Y0000894303D01*
X0000015984Y0000896798D01*
X0000374929Y0000896798D01*
X0000374929Y0000883761D01*
X0000377472Y0000870975D01*
X0000382461Y0000858931D01*
X0000389704Y0000848091D01*
X0000398922Y0000838873D01*
X0000409761Y0000831630D01*
X0000421805Y0000826641D01*
X0000434591Y0000824098D01*
X0000447628Y0000824098D01*
X0000460414Y0000826641D01*
X0000472458Y0000831630D01*
X0000483298Y0000838873D01*
X0000492516Y0000848091D01*
X0000499759Y0000858931D01*
X0000504747Y0000870975D01*
X0000507291Y0000883761D01*
X0000507291Y0000896798D01*
X0000504747Y0000909584D01*
X0000499759Y0000921628D01*
X0000492516Y0000932467D01*
X0000483298Y0000941685D01*
X0000472458Y0000948928D01*
X0000460414Y0000953917D01*
X0000447628Y0000956460D01*
X0000434591Y0000956460D01*
X0000421805Y0000953917D01*
X0000409761Y0000948928D01*
X0000398922Y0000941685D01*
X0000389704Y0000932467D01*
X0000382461Y0000921628D01*
X0000377472Y0000909584D01*
X0000374929Y0000896798D01*
X0000015984Y0000896798D01*
X0000015984Y0001022200D01*
X0000276952Y0001022200D01*
X0000282146Y0001010582D01*
X0000295560Y0001003856D01*
X0000310029Y0000999876D01*
X0000324997Y0000998795D01*
X0000339887Y0001000655D01*
X0000354129Y0001005384D01*
X0000363853Y0001010582D01*
X0000369047Y0001022200D01*
X0000323000Y0001068248D01*
X0000276952Y0001022200D01*
X0000015984Y0001022200D01*
X0000015984Y0001073321D01*
X0000246476Y0001073321D01*
X0000248336Y0001058431D01*
X0000253065Y0001044189D01*
X0000258263Y0001034465D01*
X0000269880Y0001029271D01*
X0000315928Y0001075319D01*
X0000330071Y0001075319D01*
X0000376119Y0001029271D01*
X0000387736Y0001034465D01*
X0000394462Y0001047879D01*
X0000398442Y0001062348D01*
X0000399523Y0001077316D01*
X0000397663Y0001092206D01*
X0000392934Y0001106448D01*
X0000387736Y0001116172D01*
X0000376119Y0001121367D01*
X0000330071Y0001075319D01*
X0000315928Y0001075319D01*
X0000269880Y0001121367D01*
X0000258263Y0001116172D01*
X0000251537Y0001102758D01*
X0000247557Y0001088289D01*
X0000246476Y0001073321D01*
X0000015984Y0001073321D01*
X0000015984Y0001128438D01*
X0000276952Y0001128438D01*
X0000323000Y0001082390D01*
X0000369047Y0001128438D01*
X0000363853Y0001140055D01*
X0000350439Y0001146782D01*
X0000335970Y0001150762D01*
X0000321002Y0001151842D01*
X0000306112Y0001149982D01*
X0000291870Y0001145253D01*
X0000282146Y0001140055D01*
X0000276952Y0001128438D01*
X0000015984Y0001128438D01*
X0000015984Y0001256334D01*
X0000245214Y0001256334D01*
X0000246000Y0001256257D01*
X0000249133Y0001256566D01*
X0000252146Y0001257480D01*
X0000254923Y0001258964D01*
X0000257357Y0001260961D01*
X0000259354Y0001263395D01*
X0000260838Y0001266172D01*
X0000261752Y0001269185D01*
X0000261984Y0001271534D01*
X0000262061Y0001272319D01*
X0000261984Y0001273104D01*
X0000261984Y0001785886D01*
X0000373393Y0001785886D01*
X0000373393Y0001779830D01*
X0000374575Y0001773889D01*
X0000376893Y0001768293D01*
X0000380258Y0001763257D01*
X0000384540Y0001758974D01*
X0000389577Y0001755609D01*
X0000395172Y0001753292D01*
X0000401113Y0001752110D01*
X0000407170Y0001752110D01*
X0000409274Y0001752529D01*
X0000544125Y0001617677D01*
X0000544125Y0001612074D01*
X0000545307Y0001606133D01*
X0000547625Y0001600537D01*
X0000550990Y0001595501D01*
X0000555273Y0001591219D01*
X0000560309Y0001587854D01*
X0000565905Y0001585536D01*
X0000571845Y0001584354D01*
X0000577902Y0001584354D01*
X0000583842Y0001585536D01*
X0000589438Y0001587854D01*
X0000594474Y0001591219D01*
X0000598757Y0001595501D01*
X0000602122Y0001600537D01*
X0000604440Y0001606133D01*
X0000605622Y0001612074D01*
X0000605622Y0001618131D01*
X0000604440Y0001624071D01*
X0000602122Y0001629667D01*
X0000598757Y0001634703D01*
X0000594474Y0001638986D01*
X0000589438Y0001642351D01*
X0000583842Y0001644669D01*
X0000577902Y0001645850D01*
X0000572298Y0001645850D01*
X0000434889Y0001783259D01*
X0000434889Y0001785886D01*
X0000433708Y0001791827D01*
X0000431390Y0001797423D01*
X0000428025Y0001802459D01*
X0000423742Y0001806742D01*
X0000418706Y0001810107D01*
X0000413110Y0001812424D01*
X0000407170Y0001813606D01*
X0000401113Y0001813606D01*
X0000395172Y0001812424D01*
X0000389577Y0001810107D01*
X0000384540Y0001806742D01*
X0000380258Y0001802459D01*
X0000376893Y0001797423D01*
X0000374575Y0001791827D01*
X0000373393Y0001785886D01*
X0000261984Y0001785886D01*
X0000261984Y0002072192D01*
X0000936952Y0002072192D01*
X0000936952Y0002062540D01*
X0000938835Y0002053073D01*
X0000942529Y0002044156D01*
X0000947891Y0002036130D01*
X0000954717Y0002029305D01*
X0000962742Y0002023943D01*
X0000971660Y0002020249D01*
X0000981126Y0002018366D01*
X0000990778Y0002018366D01*
X0001000245Y0002020249D01*
X0001009162Y0002023943D01*
X0001017188Y0002029305D01*
X0001024013Y0002036130D01*
X0001029375Y0002044156D01*
X0001033069Y0002053073D01*
X0001034952Y0002062540D01*
X0001034952Y0002072192D01*
X0001036952Y0002072192D01*
X0001036952Y0002062540D01*
X0001038835Y0002053073D01*
X0001042529Y0002044156D01*
X0001047891Y0002036130D01*
X0001054717Y0002029305D01*
X0001062742Y0002023943D01*
X0001071659Y0002020249D01*
X0001081126Y0002018366D01*
X0001090778Y0002018366D01*
X0001100245Y0002020249D01*
X0001109162Y0002023943D01*
X0001117188Y0002029305D01*
X0001124013Y0002036130D01*
X0001129375Y0002044156D01*
X0001133069Y0002053073D01*
X0001134952Y0002062540D01*
X0001134952Y0002072192D01*
X0001136952Y0002072192D01*
X0001136952Y0002062540D01*
X0001138835Y0002053073D01*
X0001142529Y0002044156D01*
X0001147891Y0002036130D01*
X0001154717Y0002029305D01*
X0001162742Y0002023943D01*
X0001171659Y0002020249D01*
X0001181126Y0002018366D01*
X0001190778Y0002018366D01*
X0001200245Y0002020249D01*
X0001209162Y0002023943D01*
X0001217188Y0002029305D01*
X0001224013Y0002036130D01*
X0001229375Y0002044156D01*
X0001230581Y0002047065D01*
X0001235453Y0002036856D01*
X0001242375Y0002027591D01*
X0001250972Y0002019853D01*
X0001260914Y0002013942D01*
X0001271817Y0002010084D01*
X0001280952Y0002014828D01*
X0001280952Y0002062366D01*
X0001280165Y0002062366D01*
X0001280165Y0002072366D01*
X0001280952Y0002072366D01*
X0001280952Y0002119904D01*
X0001271817Y0002124648D01*
X0001260914Y0002120790D01*
X0001250972Y0002114878D01*
X0001242375Y0002107141D01*
X0001235453Y0002097875D01*
X0001230581Y0002087667D01*
X0001229375Y0002090576D01*
X0001224013Y0002098602D01*
X0001217188Y0002105427D01*
X0001209162Y0002110789D01*
X0001200245Y0002114483D01*
X0001190778Y0002116366D01*
X0001181126Y0002116366D01*
X0001171659Y0002114483D01*
X0001162742Y0002110789D01*
X0001154717Y0002105427D01*
X0001147891Y0002098602D01*
X0001142529Y0002090576D01*
X0001138835Y0002081659D01*
X0001136952Y0002072192D01*
X0001134952Y0002072192D01*
X0001133069Y0002081659D01*
X0001129375Y0002090576D01*
X0001124013Y0002098602D01*
X0001117188Y0002105427D01*
X0001109162Y0002110789D01*
X0001100245Y0002114483D01*
X0001090778Y0002116366D01*
X0001081126Y0002116366D01*
X0001071659Y0002114483D01*
X0001062742Y0002110789D01*
X0001054717Y0002105427D01*
X0001047891Y0002098602D01*
X0001042529Y0002090576D01*
X0001038835Y0002081659D01*
X0001036952Y0002072192D01*
X0001034952Y0002072192D01*
X0001033069Y0002081659D01*
X0001029375Y0002090576D01*
X0001024013Y0002098602D01*
X0001017188Y0002105427D01*
X0001009162Y0002110789D01*
X0001000245Y0002114483D01*
X0000990778Y0002116366D01*
X0000981126Y0002116366D01*
X0000971660Y0002114483D01*
X0000962742Y0002110789D01*
X0000954717Y0002105427D01*
X0000947891Y0002098602D01*
X0000942529Y0002090576D01*
X0000938835Y0002081659D01*
X0000936952Y0002072192D01*
X0000261984Y0002072192D01*
X0000261984Y0002151334D01*
X0003617015Y0002151334D01*
X0003617015Y0000083303D01*
D26*
G36*
X0003617015Y0000083303D02*
G01*
X0002845783Y0000083303D01*
X0002845782Y0000083303D01*
X0002845074Y0000083303D01*
X0002844214Y0000083303D01*
X0002844213Y0000083303D01*
X0002784591Y0000083293D01*
X0002823890Y0000122591D01*
X0002824650Y0000123215D01*
X0002827140Y0000126249D01*
X0002828989Y0000129709D01*
X0002830129Y0000133465D01*
X0002830417Y0000136391D01*
X0002830417Y0000136392D01*
X0002830513Y0000137370D01*
X0002830417Y0000138348D01*
X0002830417Y0000196915D01*
X0002830513Y0000197893D01*
X0002830129Y0000201799D01*
X0002828989Y0000205554D01*
X0002828556Y0000206365D01*
X0002827140Y0000209015D01*
X0002824650Y0000212048D01*
X0002823890Y0000212672D01*
X0002818086Y0000218476D01*
X0002844995Y0000215654D01*
X0002874611Y0000218382D01*
X0002903126Y0000226836D01*
X0002929443Y0000240690D01*
X0002931034Y0000241754D01*
X0002945215Y0000261032D01*
X0002905138Y0000301109D01*
X0002912209Y0000308180D01*
X0002952286Y0000268103D01*
X0002971564Y0000282284D01*
X0002985749Y0000308424D01*
X0002989806Y0000321500D01*
X0003181080Y0000321500D01*
X0003181080Y0000219138D01*
X0003181670Y0000213141D01*
X0003183420Y0000207374D01*
X0003186260Y0000202060D01*
X0003190083Y0000197402D01*
X0003194741Y0000193579D01*
X0003200055Y0000190739D01*
X0003205822Y0000188990D01*
X0003211818Y0000188399D01*
X0003314181Y0000188399D01*
X0003320177Y0000188990D01*
X0003325944Y0000190739D01*
X0003331258Y0000193579D01*
X0003335916Y0000197402D01*
X0003339739Y0000202060D01*
X0003342579Y0000207374D01*
X0003344329Y0000213141D01*
X0003344919Y0000219138D01*
X0003344919Y0000321500D01*
X0003344329Y0000327497D01*
X0003342579Y0000333263D01*
X0003339739Y0000338577D01*
X0003335916Y0000343235D01*
X0003331258Y0000347058D01*
X0003325944Y0000349898D01*
X0003320177Y0000351648D01*
X0003314181Y0000352238D01*
X0003211818Y0000352238D01*
X0003205822Y0000351648D01*
X0003200055Y0000349898D01*
X0003194741Y0000347058D01*
X0003190083Y0000343235D01*
X0003186260Y0000338577D01*
X0003183420Y0000333263D01*
X0003181670Y0000327497D01*
X0003181080Y0000321500D01*
X0002989806Y0000321500D01*
X0002994562Y0000336830D01*
X0002997664Y0000366409D01*
X0002994936Y0000396025D01*
X0002986482Y0000424539D01*
X0002972628Y0000450857D01*
X0002971564Y0000452448D01*
X0002952286Y0000466629D01*
X0002912209Y0000426551D01*
X0002905138Y0000433622D01*
X0002945215Y0000473700D01*
X0002933700Y0000489354D01*
X0003179823Y0000489354D01*
X0003182817Y0000486361D01*
X0003181228Y0000478372D01*
X0003181228Y0000462265D01*
X0003184370Y0000446467D01*
X0003190534Y0000431585D01*
X0003199483Y0000418192D01*
X0003210873Y0000406802D01*
X0003224266Y0000397854D01*
X0003239148Y0000391689D01*
X0003254946Y0000388547D01*
X0003271053Y0000388547D01*
X0003286851Y0000391689D01*
X0003301733Y0000397854D01*
X0003315126Y0000406802D01*
X0003326516Y0000418192D01*
X0003335465Y0000431585D01*
X0003341629Y0000446467D01*
X0003344771Y0000462265D01*
X0003344771Y0000478372D01*
X0003341629Y0000494171D01*
X0003335465Y0000509052D01*
X0003326516Y0000522445D01*
X0003315126Y0000533835D01*
X0003301733Y0000542784D01*
X0003286851Y0000548948D01*
X0003271053Y0000552090D01*
X0003254946Y0000552090D01*
X0003246957Y0000550501D01*
X0003232256Y0000565203D01*
X0003230835Y0000566934D01*
X0003223929Y0000572602D01*
X0003216050Y0000576813D01*
X0003207501Y0000579407D01*
X0003200838Y0000580063D01*
X0003200838Y0000580063D01*
X0003198610Y0000580282D01*
X0003196382Y0000580063D01*
X0002554617Y0000580063D01*
X0002552389Y0000580282D01*
X0002550161Y0000580063D01*
X0002550161Y0000580063D01*
X0002544279Y0000579483D01*
X0002543498Y0000579407D01*
X0002540905Y0000578620D01*
X0002534949Y0000576813D01*
X0002527070Y0000572602D01*
X0002527070Y0000572602D01*
X0002527070Y0000572602D01*
X0002521894Y0000568354D01*
X0002521894Y0000568354D01*
X0002520164Y0000566934D01*
X0002518743Y0000565203D01*
X0002429449Y0000475909D01*
X0002427032Y0000475909D01*
X0002415326Y0000473581D01*
X0002404299Y0000469013D01*
X0002394375Y0000462382D01*
X0002385936Y0000453943D01*
X0002383000Y0000449548D01*
X0002380063Y0000453943D01*
X0002371624Y0000462382D01*
X0002361700Y0000469013D01*
X0002350673Y0000473581D01*
X0002338967Y0000475909D01*
X0002327032Y0000475909D01*
X0002315326Y0000473581D01*
X0002304299Y0000469013D01*
X0002294375Y0000462382D01*
X0002285936Y0000453943D01*
X0002282999Y0000449548D01*
X0002280063Y0000453943D01*
X0002271624Y0000462382D01*
X0002261700Y0000469013D01*
X0002254017Y0000472196D01*
X0002460194Y0000678372D01*
X0003181228Y0000678372D01*
X0003181228Y0000662265D01*
X0003184370Y0000646467D01*
X0003190534Y0000631585D01*
X0003199483Y0000618192D01*
X0003210873Y0000606802D01*
X0003224266Y0000597854D01*
X0003239148Y0000591689D01*
X0003254946Y0000588547D01*
X0003271053Y0000588547D01*
X0003286851Y0000591689D01*
X0003301733Y0000597854D01*
X0003315126Y0000606802D01*
X0003326516Y0000618192D01*
X0003335465Y0000631585D01*
X0003341629Y0000646467D01*
X0003344771Y0000662265D01*
X0003344771Y0000678372D01*
X0003341629Y0000694171D01*
X0003335465Y0000709052D01*
X0003326516Y0000722445D01*
X0003315126Y0000733835D01*
X0003301733Y0000742784D01*
X0003286851Y0000748948D01*
X0003271053Y0000752090D01*
X0003254946Y0000752090D01*
X0003239148Y0000748948D01*
X0003224266Y0000742784D01*
X0003210873Y0000733835D01*
X0003199483Y0000722445D01*
X0003190534Y0000709052D01*
X0003184370Y0000694171D01*
X0003181228Y0000678372D01*
X0002460194Y0000678372D01*
X0002498337Y0000716515D01*
X0003152323Y0000716515D01*
X0003154551Y0000716296D01*
X0003156779Y0000716515D01*
X0003156779Y0000716515D01*
X0003163442Y0000717172D01*
X0003171991Y0000719765D01*
X0003179870Y0000723977D01*
X0003186776Y0000729644D01*
X0003188197Y0000731375D01*
X0003246957Y0000790136D01*
X0003254946Y0000788547D01*
X0003271053Y0000788547D01*
X0003286851Y0000791689D01*
X0003301733Y0000797854D01*
X0003315126Y0000806802D01*
X0003326516Y0000818192D01*
X0003335465Y0000831585D01*
X0003341629Y0000846467D01*
X0003344771Y0000862265D01*
X0003344771Y0000878372D01*
X0003341629Y0000894171D01*
X0003335465Y0000909052D01*
X0003326516Y0000922445D01*
X0003315126Y0000933835D01*
X0003301733Y0000942784D01*
X0003286851Y0000948948D01*
X0003271053Y0000952090D01*
X0003254946Y0000952090D01*
X0003239148Y0000948948D01*
X0003224266Y0000942784D01*
X0003210873Y0000933835D01*
X0003199483Y0000922445D01*
X0003190534Y0000909052D01*
X0003184370Y0000894171D01*
X0003181228Y0000878372D01*
X0003181228Y0000862265D01*
X0003182817Y0000854277D01*
X0003135764Y0000807224D01*
X0002481778Y0000807224D01*
X0002479551Y0000807444D01*
X0002477323Y0000807224D01*
X0002477323Y0000807224D01*
X0002470660Y0000806568D01*
X0002462110Y0000803975D01*
X0002454231Y0000799763D01*
X0002454231Y0000799763D01*
X0002454231Y0000799763D01*
X0002449056Y0000795516D01*
X0002449056Y0000795516D01*
X0002447325Y0000794095D01*
X0002445905Y0000792365D01*
X0002129449Y0000475909D01*
X0002127032Y0000475909D01*
X0002115326Y0000473581D01*
X0002104299Y0000469013D01*
X0002094375Y0000462382D01*
X0002085936Y0000453943D01*
X0002079305Y0000444019D01*
X0002074737Y0000432992D01*
X0002074624Y0000432420D01*
X0002072878Y0000436634D01*
X0002067953Y0000444004D01*
X0002061685Y0000450272D01*
X0002054315Y0000455197D01*
X0002052921Y0000455775D01*
X0002052921Y0000724340D01*
X0002053017Y0000725319D01*
X0002052921Y0000726297D01*
X0002052921Y0000726297D01*
X0002052632Y0000729224D01*
X0002051493Y0000732979D01*
X0002049644Y0000736440D01*
X0002047154Y0000739473D01*
X0002046394Y0000740097D01*
X0001916245Y0000870246D01*
X0001963000Y0000870246D01*
X0001965940Y0000870536D01*
X0001968767Y0000871393D01*
X0001971373Y0000872786D01*
X0001973657Y0000874661D01*
X0001975532Y0000876945D01*
X0001976925Y0000879551D01*
X0001977782Y0000882378D01*
X0001978072Y0000885319D01*
X0001978072Y0000942073D01*
X0001990306Y0000929839D01*
X0001989729Y0000928445D01*
X0001988000Y0000919751D01*
X0001988000Y0000910887D01*
X0001989729Y0000902193D01*
X0001993121Y0000894003D01*
X0001998046Y0000886633D01*
X0002004314Y0000880365D01*
X0002011684Y0000875440D01*
X0002019873Y0000872048D01*
X0002028567Y0000870319D01*
X0002037432Y0000870319D01*
X0002046126Y0000872048D01*
X0002054315Y0000875440D01*
X0002061685Y0000880365D01*
X0002067953Y0000886633D01*
X0002072878Y0000894003D01*
X0002076270Y0000902193D01*
X0002077999Y0000910887D01*
X0002077999Y0000919751D01*
X0002087999Y0000919751D01*
X0002087999Y0000910887D01*
X0002089729Y0000902193D01*
X0002093121Y0000894003D01*
X0002098046Y0000886633D01*
X0002104314Y0000880365D01*
X0002111684Y0000875440D01*
X0002119873Y0000872048D01*
X0002128567Y0000870319D01*
X0002137432Y0000870319D01*
X0002146126Y0000872048D01*
X0002154315Y0000875440D01*
X0002161685Y0000880365D01*
X0002167953Y0000886633D01*
X0002172878Y0000894003D01*
X0002176270Y0000902193D01*
X0002177999Y0000910887D01*
X0002177999Y0000919751D01*
X0002176270Y0000928445D01*
X0002172878Y0000936634D01*
X0002167953Y0000944004D01*
X0002161685Y0000950272D01*
X0002154315Y0000955197D01*
X0002146126Y0000958589D01*
X0002137432Y0000960319D01*
X0002128567Y0000960319D01*
X0002119873Y0000958589D01*
X0002111684Y0000955197D01*
X0002104314Y0000950272D01*
X0002098046Y0000944004D01*
X0002093121Y0000936634D01*
X0002089729Y0000928445D01*
X0002087999Y0000919751D01*
X0002077999Y0000919751D01*
X0002076270Y0000928445D01*
X0002072878Y0000936634D01*
X0002067953Y0000944004D01*
X0002061685Y0000950272D01*
X0002054315Y0000955197D01*
X0002046126Y0000958589D01*
X0002037432Y0000960319D01*
X0002028567Y0000960319D01*
X0002019873Y0000958589D01*
X0002018479Y0000958012D01*
X0001888141Y0001088350D01*
X0001888141Y0001393389D01*
X0001892056Y0001397304D01*
X0001894693Y0001387852D01*
X0001904497Y0001383242D01*
X0001915013Y0001380633D01*
X0001925835Y0001380125D01*
X0001936548Y0001381739D01*
X0001946741Y0001385412D01*
X0001951306Y0001387852D01*
X0001953943Y0001397304D01*
X0001958526Y0001392721D01*
X0001959342Y0001393537D01*
X0001959342Y0001170033D01*
X0001959246Y0001169055D01*
X0001959342Y0001168077D01*
X0001959342Y0001168076D01*
X0001959630Y0001165150D01*
X0001960769Y0001161394D01*
X0001962619Y0001157934D01*
X0001965109Y0001154900D01*
X0001965869Y0001154276D01*
X0002190306Y0000929839D01*
X0002189729Y0000928445D01*
X0002188000Y0000919751D01*
X0002188000Y0000910887D01*
X0002189729Y0000902193D01*
X0002193121Y0000894003D01*
X0002198046Y0000886633D01*
X0002204314Y0000880365D01*
X0002211684Y0000875440D01*
X0002219873Y0000872048D01*
X0002228567Y0000870319D01*
X0002237432Y0000870319D01*
X0002246125Y0000872048D01*
X0002254315Y0000875440D01*
X0002261685Y0000880365D01*
X0002267953Y0000886633D01*
X0002272878Y0000894003D01*
X0002276270Y0000902193D01*
X0002278000Y0000910887D01*
X0002278000Y0000919751D01*
X0002288000Y0000919751D01*
X0002288000Y0000910887D01*
X0002289729Y0000902193D01*
X0002293121Y0000894003D01*
X0002298046Y0000886633D01*
X0002304314Y0000880365D01*
X0002311684Y0000875440D01*
X0002319873Y0000872048D01*
X0002328567Y0000870319D01*
X0002337432Y0000870319D01*
X0002346126Y0000872048D01*
X0002354315Y0000875440D01*
X0002361685Y0000880365D01*
X0002367953Y0000886633D01*
X0002372878Y0000894003D01*
X0002376270Y0000902193D01*
X0002378000Y0000910887D01*
X0002378000Y0000919751D01*
X0002387999Y0000919751D01*
X0002387999Y0000910887D01*
X0002389729Y0000902193D01*
X0002393121Y0000894003D01*
X0002398046Y0000886633D01*
X0002404314Y0000880365D01*
X0002411684Y0000875440D01*
X0002419873Y0000872048D01*
X0002428567Y0000870319D01*
X0002437432Y0000870319D01*
X0002446126Y0000872048D01*
X0002454315Y0000875440D01*
X0002461685Y0000880365D01*
X0002467953Y0000886633D01*
X0002472878Y0000894003D01*
X0002476270Y0000902193D01*
X0002477999Y0000910887D01*
X0002477999Y0000919751D01*
X0002488000Y0000919751D01*
X0002488000Y0000910887D01*
X0002489729Y0000902193D01*
X0002493121Y0000894003D01*
X0002498046Y0000886633D01*
X0002504314Y0000880365D01*
X0002511684Y0000875440D01*
X0002519873Y0000872048D01*
X0002528567Y0000870319D01*
X0002537432Y0000870319D01*
X0002546125Y0000872048D01*
X0002554315Y0000875440D01*
X0002561685Y0000880365D01*
X0002567953Y0000886633D01*
X0002572878Y0000894003D01*
X0002576270Y0000902193D01*
X0002577999Y0000910887D01*
X0002577999Y0000919751D01*
X0002588000Y0000919751D01*
X0002588000Y0000910887D01*
X0002589729Y0000902193D01*
X0002593121Y0000894003D01*
X0002598046Y0000886633D01*
X0002604314Y0000880365D01*
X0002611684Y0000875440D01*
X0002619873Y0000872048D01*
X0002628567Y0000870319D01*
X0002637432Y0000870319D01*
X0002646125Y0000872048D01*
X0002654315Y0000875440D01*
X0002661685Y0000880365D01*
X0002667953Y0000886633D01*
X0002672878Y0000894003D01*
X0002676270Y0000902193D01*
X0002678000Y0000910887D01*
X0002678000Y0000919751D01*
X0002676270Y0000928445D01*
X0002672878Y0000936634D01*
X0002667953Y0000944004D01*
X0002661685Y0000950272D01*
X0002654315Y0000955197D01*
X0002646125Y0000958589D01*
X0002637432Y0000960319D01*
X0002628567Y0000960319D01*
X0002619873Y0000958589D01*
X0002611684Y0000955197D01*
X0002604314Y0000950272D01*
X0002598046Y0000944004D01*
X0002593121Y0000936634D01*
X0002589729Y0000928445D01*
X0002588000Y0000919751D01*
X0002577999Y0000919751D01*
X0002576270Y0000928445D01*
X0002572878Y0000936634D01*
X0002567953Y0000944004D01*
X0002561685Y0000950272D01*
X0002554315Y0000955197D01*
X0002546125Y0000958589D01*
X0002537432Y0000960319D01*
X0002528567Y0000960319D01*
X0002519873Y0000958589D01*
X0002511684Y0000955197D01*
X0002504314Y0000950272D01*
X0002498046Y0000944004D01*
X0002493121Y0000936634D01*
X0002489729Y0000928445D01*
X0002488000Y0000919751D01*
X0002477999Y0000919751D01*
X0002476270Y0000928445D01*
X0002472878Y0000936634D01*
X0002467953Y0000944004D01*
X0002461685Y0000950272D01*
X0002454315Y0000955197D01*
X0002446126Y0000958589D01*
X0002437432Y0000960319D01*
X0002428567Y0000960319D01*
X0002419873Y0000958589D01*
X0002411684Y0000955197D01*
X0002404314Y0000950272D01*
X0002398046Y0000944004D01*
X0002393121Y0000936634D01*
X0002389729Y0000928445D01*
X0002387999Y0000919751D01*
X0002378000Y0000919751D01*
X0002376270Y0000928445D01*
X0002372878Y0000936634D01*
X0002367953Y0000944004D01*
X0002361685Y0000950272D01*
X0002354315Y0000955197D01*
X0002346126Y0000958589D01*
X0002337432Y0000960319D01*
X0002328567Y0000960319D01*
X0002319873Y0000958589D01*
X0002311684Y0000955197D01*
X0002304314Y0000950272D01*
X0002298046Y0000944004D01*
X0002293121Y0000936634D01*
X0002289729Y0000928445D01*
X0002288000Y0000919751D01*
X0002278000Y0000919751D01*
X0002276270Y0000928445D01*
X0002272878Y0000936634D01*
X0002267953Y0000944004D01*
X0002261685Y0000950272D01*
X0002254315Y0000955197D01*
X0002246125Y0000958589D01*
X0002237432Y0000960319D01*
X0002228567Y0000960319D01*
X0002219873Y0000958589D01*
X0002218479Y0000958012D01*
X0001999185Y0001177306D01*
X0001999185Y0001397110D01*
X0002001684Y0001395440D01*
X0002009873Y0001392048D01*
X0002018567Y0001390319D01*
X0002027432Y0001390319D01*
X0002036125Y0001392048D01*
X0002044315Y0001395440D01*
X0002051685Y0001400365D01*
X0002057953Y0001406633D01*
X0002062878Y0001414003D01*
X0002064624Y0001418217D01*
X0002064737Y0001417645D01*
X0002069305Y0001406618D01*
X0002075936Y0001396694D01*
X0002084375Y0001388255D01*
X0002094299Y0001381624D01*
X0002105326Y0001377057D01*
X0002117032Y0001374728D01*
X0002128967Y0001374728D01*
X0002140673Y0001377057D01*
X0002151700Y0001381624D01*
X0002161624Y0001388255D01*
X0002170063Y0001396694D01*
X0002173000Y0001401089D01*
X0002175936Y0001396694D01*
X0002184375Y0001388255D01*
X0002194299Y0001381624D01*
X0002205326Y0001377057D01*
X0002217032Y0001374728D01*
X0002228967Y0001374728D01*
X0002240673Y0001377057D01*
X0002251700Y0001381624D01*
X0002261624Y0001388255D01*
X0002270063Y0001396694D01*
X0002273000Y0001401089D01*
X0002275936Y0001396694D01*
X0002284375Y0001388255D01*
X0002294299Y0001381624D01*
X0002305326Y0001377057D01*
X0002317032Y0001374728D01*
X0002319449Y0001374728D01*
X0002425067Y0001269111D01*
X0002426487Y0001267381D01*
X0002428217Y0001265960D01*
X0002428217Y0001265960D01*
X0002432811Y0001262190D01*
X0002433393Y0001261713D01*
X0002434798Y0001260961D01*
X0002441272Y0001257501D01*
X0002449821Y0001254908D01*
X0002450601Y0001254831D01*
X0002456484Y0001254252D01*
X0002456484Y0001254252D01*
X0002458712Y0001254032D01*
X0002460940Y0001254252D01*
X0003093512Y0001254252D01*
X0003095740Y0001254032D01*
X0003097967Y0001254252D01*
X0003097968Y0001254252D01*
X0003104631Y0001254908D01*
X0003113180Y0001257501D01*
X0003121059Y0001261713D01*
X0003127965Y0001267381D01*
X0003129386Y0001269111D01*
X0003181379Y0001321104D01*
X0003181670Y0001318141D01*
X0003183420Y0001312374D01*
X0003186260Y0001307060D01*
X0003190083Y0001302402D01*
X0003194741Y0001298579D01*
X0003200055Y0001295739D01*
X0003205822Y0001293990D01*
X0003211818Y0001293399D01*
X0003314181Y0001293399D01*
X0003320177Y0001293990D01*
X0003325944Y0001295739D01*
X0003331258Y0001298579D01*
X0003335916Y0001302402D01*
X0003339739Y0001307060D01*
X0003342579Y0001312374D01*
X0003344329Y0001318141D01*
X0003344919Y0001324138D01*
X0003344919Y0001426500D01*
X0003344329Y0001432497D01*
X0003342579Y0001438263D01*
X0003339739Y0001443577D01*
X0003335916Y0001448235D01*
X0003331258Y0001452058D01*
X0003325944Y0001454898D01*
X0003320177Y0001456648D01*
X0003314181Y0001457238D01*
X0003211818Y0001457238D01*
X0003205822Y0001456648D01*
X0003200055Y0001454898D01*
X0003194741Y0001452058D01*
X0003190083Y0001448235D01*
X0003186260Y0001443577D01*
X0003183420Y0001438263D01*
X0003181670Y0001432497D01*
X0003181080Y0001426500D01*
X0003181080Y0001420673D01*
X0003173680Y0001420673D01*
X0003171452Y0001420892D01*
X0003169224Y0001420673D01*
X0003169224Y0001420673D01*
X0003162561Y0001420017D01*
X0003154012Y0001417423D01*
X0003146133Y0001413212D01*
X0003144578Y0001411936D01*
X0003140957Y0001408965D01*
X0003140957Y0001408964D01*
X0003139227Y0001407544D01*
X0003137806Y0001405814D01*
X0003076953Y0001344960D01*
X0002933393Y0001344960D01*
X0002945215Y0001361032D01*
X0002905138Y0001401109D01*
X0002912209Y0001408180D01*
X0002952286Y0001368103D01*
X0002971564Y0001382284D01*
X0002985749Y0001408424D01*
X0002994562Y0001436830D01*
X0002997664Y0001466409D01*
X0002994936Y0001496025D01*
X0002986482Y0001524539D01*
X0002972628Y0001550857D01*
X0002971564Y0001552448D01*
X0002952286Y0001566629D01*
X0002912209Y0001526551D01*
X0002905138Y0001533622D01*
X0002945215Y0001573700D01*
X0002934097Y0001588815D01*
X0003182310Y0001588815D01*
X0003181228Y0001583372D01*
X0003181228Y0001567265D01*
X0003184370Y0001551467D01*
X0003190534Y0001536585D01*
X0003199483Y0001523192D01*
X0003210873Y0001511802D01*
X0003224266Y0001502854D01*
X0003239148Y0001496689D01*
X0003254946Y0001493547D01*
X0003271053Y0001493547D01*
X0003286851Y0001496689D01*
X0003301733Y0001502854D01*
X0003315126Y0001511802D01*
X0003326516Y0001523192D01*
X0003335465Y0001536585D01*
X0003341629Y0001551467D01*
X0003344771Y0001567265D01*
X0003344771Y0001583372D01*
X0003341629Y0001599171D01*
X0003335465Y0001614052D01*
X0003326516Y0001627445D01*
X0003315126Y0001638835D01*
X0003301733Y0001647784D01*
X0003286851Y0001653948D01*
X0003271053Y0001657090D01*
X0003254946Y0001657090D01*
X0003246957Y0001655501D01*
X0003237795Y0001664664D01*
X0003236375Y0001666395D01*
X0003229469Y0001672062D01*
X0003221589Y0001676274D01*
X0003213040Y0001678867D01*
X0003206377Y0001679523D01*
X0003206377Y0001679523D01*
X0003204149Y0001679743D01*
X0003201921Y0001679523D01*
X0002624078Y0001679523D01*
X0002621850Y0001679743D01*
X0002619622Y0001679523D01*
X0002619622Y0001679523D01*
X0002613739Y0001678944D01*
X0002612959Y0001678867D01*
X0002610940Y0001678255D01*
X0002604410Y0001676274D01*
X0002596530Y0001672062D01*
X0002596530Y0001672062D01*
X0002596530Y0001672062D01*
X0002591355Y0001667815D01*
X0002591355Y0001667815D01*
X0002589624Y0001666395D01*
X0002588204Y0001664664D01*
X0002419449Y0001495909D01*
X0002417032Y0001495909D01*
X0002405326Y0001493581D01*
X0002394299Y0001489013D01*
X0002384375Y0001482382D01*
X0002375936Y0001473943D01*
X0002372999Y0001469548D01*
X0002370063Y0001473943D01*
X0002361624Y0001482382D01*
X0002351700Y0001489013D01*
X0002344017Y0001492196D01*
X0002581786Y0001729964D01*
X0003194958Y0001729964D01*
X0003199483Y0001723192D01*
X0003210873Y0001711802D01*
X0003224266Y0001702854D01*
X0003239148Y0001696689D01*
X0003254946Y0001693547D01*
X0003271053Y0001693547D01*
X0003286851Y0001696689D01*
X0003301733Y0001702854D01*
X0003315126Y0001711802D01*
X0003326516Y0001723192D01*
X0003335465Y0001736585D01*
X0003341629Y0001751467D01*
X0003344771Y0001767265D01*
X0003344771Y0001783372D01*
X0003341629Y0001799171D01*
X0003335465Y0001814052D01*
X0003326516Y0001827445D01*
X0003315126Y0001838835D01*
X0003301733Y0001847784D01*
X0003286851Y0001853948D01*
X0003271053Y0001857090D01*
X0003254946Y0001857090D01*
X0003239148Y0001853948D01*
X0003224266Y0001847784D01*
X0003210873Y0001838835D01*
X0003199483Y0001827445D01*
X0003194958Y0001820673D01*
X0003162913Y0001820673D01*
X0003170070Y0001822844D01*
X0003177949Y0001827055D01*
X0003184855Y0001832723D01*
X0003186275Y0001834454D01*
X0003246957Y0001895136D01*
X0003254946Y0001893547D01*
X0003271053Y0001893547D01*
X0003286851Y0001896689D01*
X0003301733Y0001902854D01*
X0003315126Y0001911802D01*
X0003326516Y0001923192D01*
X0003335465Y0001936585D01*
X0003341629Y0001951467D01*
X0003344771Y0001967265D01*
X0003344771Y0001983372D01*
X0003341629Y0001999171D01*
X0003335465Y0002014052D01*
X0003326516Y0002027445D01*
X0003315126Y0002038835D01*
X0003301733Y0002047784D01*
X0003286851Y0002053948D01*
X0003271053Y0002057090D01*
X0003254946Y0002057090D01*
X0003239148Y0002053948D01*
X0003224266Y0002047784D01*
X0003210873Y0002038835D01*
X0003199483Y0002027445D01*
X0003190534Y0002014052D01*
X0003184370Y0001999171D01*
X0003181228Y0001983372D01*
X0003181228Y0001967265D01*
X0003182817Y0001959277D01*
X0003133843Y0001910303D01*
X0002660406Y0001910303D01*
X0002662878Y0001914003D01*
X0002666270Y0001922193D01*
X0002667999Y0001930887D01*
X0002667999Y0001939751D01*
X0002666270Y0001948445D01*
X0002662878Y0001956634D01*
X0002657953Y0001964004D01*
X0002651685Y0001970272D01*
X0002644315Y0001975197D01*
X0002636126Y0001978589D01*
X0002627432Y0001980319D01*
X0002618567Y0001980319D01*
X0002609873Y0001978589D01*
X0002601684Y0001975197D01*
X0002599170Y0001973518D01*
X0002553734Y0002018954D01*
X0002560245Y0002020249D01*
X0002569162Y0002023943D01*
X0002577188Y0002029305D01*
X0002584013Y0002036130D01*
X0002589375Y0002044156D01*
X0002593069Y0002053073D01*
X0002594952Y0002062540D01*
X0002594952Y0002072192D01*
X0002596952Y0002072192D01*
X0002596952Y0002062540D01*
X0002598835Y0002053073D01*
X0002602529Y0002044156D01*
X0002607891Y0002036130D01*
X0002614717Y0002029305D01*
X0002622742Y0002023943D01*
X0002631659Y0002020249D01*
X0002641126Y0002018366D01*
X0002650778Y0002018366D01*
X0002660245Y0002020249D01*
X0002669162Y0002023943D01*
X0002677188Y0002029305D01*
X0002684013Y0002036130D01*
X0002689375Y0002044156D01*
X0002693069Y0002053073D01*
X0002694952Y0002062540D01*
X0002694952Y0002072192D01*
X0002696952Y0002072192D01*
X0002696952Y0002062540D01*
X0002698835Y0002053073D01*
X0002702529Y0002044156D01*
X0002707891Y0002036130D01*
X0002714717Y0002029305D01*
X0002722742Y0002023943D01*
X0002731660Y0002020249D01*
X0002741126Y0002018366D01*
X0002750778Y0002018366D01*
X0002760245Y0002020249D01*
X0002769162Y0002023943D01*
X0002777188Y0002029305D01*
X0002784013Y0002036130D01*
X0002789375Y0002044156D01*
X0002793069Y0002053073D01*
X0002794952Y0002062540D01*
X0002794952Y0002072192D01*
X0002793069Y0002081659D01*
X0002789375Y0002090576D01*
X0002784013Y0002098602D01*
X0002777188Y0002105427D01*
X0002769162Y0002110789D01*
X0002760245Y0002114483D01*
X0002750778Y0002116366D01*
X0002741126Y0002116366D01*
X0002731660Y0002114483D01*
X0002722742Y0002110789D01*
X0002714717Y0002105427D01*
X0002707891Y0002098602D01*
X0002702529Y0002090576D01*
X0002698835Y0002081659D01*
X0002696952Y0002072192D01*
X0002694952Y0002072192D01*
X0002693069Y0002081659D01*
X0002689375Y0002090576D01*
X0002684013Y0002098602D01*
X0002677188Y0002105427D01*
X0002669162Y0002110789D01*
X0002660245Y0002114483D01*
X0002650778Y0002116366D01*
X0002641126Y0002116366D01*
X0002631659Y0002114483D01*
X0002622742Y0002110789D01*
X0002614717Y0002105427D01*
X0002607891Y0002098602D01*
X0002602529Y0002090576D01*
X0002598835Y0002081659D01*
X0002596952Y0002072192D01*
X0002594952Y0002072192D01*
X0002593069Y0002081659D01*
X0002589375Y0002090576D01*
X0002584013Y0002098602D01*
X0002577188Y0002105427D01*
X0002569162Y0002110789D01*
X0002560245Y0002114483D01*
X0002550778Y0002116366D01*
X0002541126Y0002116366D01*
X0002531660Y0002114483D01*
X0002522742Y0002110789D01*
X0002514717Y0002105427D01*
X0002509522Y0002100232D01*
X0002481707Y0002128048D01*
X0002481083Y0002128808D01*
X0002478050Y0002131297D01*
X0002474589Y0002133147D01*
X0002470834Y0002134286D01*
X0002467907Y0002134575D01*
X0002467907Y0002134575D01*
X0002466929Y0002134671D01*
X0002465950Y0002134575D01*
X0002226399Y0002134575D01*
X0002225421Y0002134671D01*
X0002224442Y0002134575D01*
X0002221516Y0002134286D01*
X0002217760Y0002133147D01*
X0002214300Y0002131297D01*
X0002211266Y0002128808D01*
X0002210642Y0002128048D01*
X0002182605Y0002100010D01*
X0002177188Y0002105427D01*
X0002169162Y0002110789D01*
X0002160245Y0002114483D01*
X0002150778Y0002116366D01*
X0002141126Y0002116366D01*
X0002131660Y0002114483D01*
X0002122742Y0002110789D01*
X0002114717Y0002105427D01*
X0002107891Y0002098602D01*
X0002102529Y0002090576D01*
X0002098835Y0002081659D01*
X0002096952Y0002072192D01*
X0002096952Y0002062540D01*
X0002098835Y0002053073D01*
X0002102529Y0002044156D01*
X0002105126Y0002040270D01*
X0002104334Y0002040192D01*
X0002100579Y0002039053D01*
X0002097118Y0002037203D01*
X0002094085Y0002034713D01*
X0002093461Y0002033953D01*
X0002037520Y0001978012D01*
X0002036125Y0001978589D01*
X0002027432Y0001980319D01*
X0002018567Y0001980319D01*
X0002009873Y0001978589D01*
X0002001684Y0001975197D01*
X0001995490Y0001971058D01*
X0001993418Y0001973583D01*
X0001992658Y0001974207D01*
X0001932912Y0002033953D01*
X0001932288Y0002034713D01*
X0001929255Y0002037203D01*
X0001925920Y0002038985D01*
X0001929375Y0002044156D01*
X0001933069Y0002053073D01*
X0001934952Y0002062540D01*
X0001934952Y0002072192D01*
X0001996952Y0002072192D01*
X0001996952Y0002062540D01*
X0001998835Y0002053073D01*
X0002002529Y0002044156D01*
X0002007891Y0002036130D01*
X0002014717Y0002029305D01*
X0002022742Y0002023943D01*
X0002031660Y0002020249D01*
X0002041126Y0002018366D01*
X0002050778Y0002018366D01*
X0002060245Y0002020249D01*
X0002069162Y0002023943D01*
X0002077188Y0002029305D01*
X0002084013Y0002036130D01*
X0002089375Y0002044156D01*
X0002093069Y0002053073D01*
X0002094952Y0002062540D01*
X0002094952Y0002072192D01*
X0002093069Y0002081659D01*
X0002089375Y0002090576D01*
X0002084013Y0002098602D01*
X0002077188Y0002105427D01*
X0002069162Y0002110789D01*
X0002060245Y0002114483D01*
X0002050778Y0002116366D01*
X0002041126Y0002116366D01*
X0002031660Y0002114483D01*
X0002022742Y0002110789D01*
X0002014717Y0002105427D01*
X0002007891Y0002098602D01*
X0002002529Y0002090576D01*
X0001998835Y0002081659D01*
X0001996952Y0002072192D01*
X0001934952Y0002072192D01*
X0001933069Y0002081659D01*
X0001929375Y0002090576D01*
X0001924013Y0002098602D01*
X0001917188Y0002105427D01*
X0001909162Y0002110789D01*
X0001900245Y0002114483D01*
X0001890778Y0002116366D01*
X0001881126Y0002116366D01*
X0001871659Y0002114483D01*
X0001862742Y0002110789D01*
X0001854717Y0002105427D01*
X0001847891Y0002098602D01*
X0001842529Y0002090576D01*
X0001838835Y0002081659D01*
X0001836952Y0002072192D01*
X0001836952Y0002062540D01*
X0001838835Y0002053073D01*
X0001842529Y0002044156D01*
X0001847891Y0002036130D01*
X0001854717Y0002029305D01*
X0001862742Y0002023943D01*
X0001866031Y0002022580D01*
X0001866031Y0002021538D01*
X0001865935Y0002020559D01*
X0001866319Y0002016654D01*
X0001867458Y0002012898D01*
X0001869308Y0002009438D01*
X0001871798Y0002006404D01*
X0001874831Y0002003915D01*
X0001878292Y0002002065D01*
X0001882047Y0002000926D01*
X0001884974Y0002000638D01*
X0001885952Y0002000541D01*
X0001886931Y0002000638D01*
X0001909882Y0002000638D01*
X0001930128Y0001980391D01*
X0001893000Y0001980391D01*
X0001890059Y0001980102D01*
X0001887231Y0001979244D01*
X0001884626Y0001977851D01*
X0001882342Y0001975977D01*
X0001880467Y0001973692D01*
X0001879074Y0001971087D01*
X0001878217Y0001968259D01*
X0001877927Y0001965319D01*
X0001877927Y0001956757D01*
X0001810109Y0002024575D01*
X0001817188Y0002029305D01*
X0001824013Y0002036130D01*
X0001829375Y0002044156D01*
X0001833069Y0002053073D01*
X0001834952Y0002062540D01*
X0001834952Y0002072192D01*
X0001833069Y0002081659D01*
X0001829375Y0002090576D01*
X0001824013Y0002098602D01*
X0001817188Y0002105427D01*
X0001809162Y0002110789D01*
X0001800245Y0002114483D01*
X0001790778Y0002116366D01*
X0001781126Y0002116366D01*
X0001771660Y0002114483D01*
X0001762742Y0002110789D01*
X0001754717Y0002105427D01*
X0001747891Y0002098602D01*
X0001742529Y0002090576D01*
X0001738835Y0002081659D01*
X0001736952Y0002072192D01*
X0001736952Y0002062540D01*
X0001738835Y0002053073D01*
X0001742529Y0002044156D01*
X0001747891Y0002036130D01*
X0001754717Y0002029305D01*
X0001762742Y0002023943D01*
X0001766031Y0002022580D01*
X0001766031Y0002021537D01*
X0001765935Y0002020559D01*
X0001766319Y0002016654D01*
X0001767458Y0002012898D01*
X0001767458Y0002012898D01*
X0001769308Y0002009438D01*
X0001771798Y0002006404D01*
X0001772558Y0002005780D01*
X0001848299Y0001930039D01*
X0001848299Y0001389166D01*
X0001840615Y0001400665D01*
X0001827559Y0001413722D01*
X0001812205Y0001423981D01*
X0001795146Y0001431047D01*
X0001777035Y0001434649D01*
X0001758570Y0001434649D01*
X0001740460Y0001431047D01*
X0001723400Y0001423981D01*
X0001708047Y0001413722D01*
X0001696137Y0001401812D01*
X0001696137Y0002002571D01*
X0001699347Y0002005780D01*
X0001700107Y0002006404D01*
X0001702596Y0002009438D01*
X0001704446Y0002012898D01*
X0001705585Y0002016654D01*
X0001705874Y0002019580D01*
X0001705874Y0002019581D01*
X0001705970Y0002020559D01*
X0001705874Y0002021537D01*
X0001705874Y0002022580D01*
X0001709162Y0002023943D01*
X0001717188Y0002029305D01*
X0001724013Y0002036130D01*
X0001729375Y0002044156D01*
X0001733069Y0002053073D01*
X0001734952Y0002062540D01*
X0001734952Y0002072192D01*
X0001733069Y0002081659D01*
X0001729375Y0002090576D01*
X0001724013Y0002098602D01*
X0001717188Y0002105427D01*
X0001709162Y0002110789D01*
X0001700245Y0002114483D01*
X0001690778Y0002116366D01*
X0001681126Y0002116366D01*
X0001671660Y0002114483D01*
X0001662742Y0002110789D01*
X0001654717Y0002105427D01*
X0001647891Y0002098602D01*
X0001642529Y0002090576D01*
X0001638835Y0002081659D01*
X0001636952Y0002072192D01*
X0001636952Y0002062540D01*
X0001638835Y0002053073D01*
X0001642529Y0002044156D01*
X0001647891Y0002036130D01*
X0001654717Y0002029305D01*
X0001661754Y0002024603D01*
X0001659572Y0002021944D01*
X0001659010Y0002020892D01*
X0001657722Y0002018483D01*
X0001656583Y0002014728D01*
X0001656198Y0002010823D01*
X0001656295Y0002009844D01*
X0001656295Y0001215887D01*
X0001656198Y0001214909D01*
X0001656295Y0001213931D01*
X0001656295Y0001213931D01*
X0001656583Y0001211004D01*
X0001657722Y0001207249D01*
X0001659572Y0001203788D01*
X0001662061Y0001200755D01*
X0001662822Y0001200131D01*
X0001902600Y0000960352D01*
X0001900059Y0000960102D01*
X0001897231Y0000959244D01*
X0001894626Y0000957851D01*
X0001892342Y0000955977D01*
X0001890467Y0000953692D01*
X0001889074Y0000951087D01*
X0001888217Y0000948259D01*
X0001887927Y0000945319D01*
X0001887927Y0000898564D01*
X0001739851Y0001046640D01*
X0001741494Y0001050608D01*
X0001743433Y0001060351D01*
X0001743433Y0001070286D01*
X0001741494Y0001080029D01*
X0001737693Y0001089208D01*
X0001732173Y0001097468D01*
X0001725149Y0001104493D01*
X0001716889Y0001110012D01*
X0001707710Y0001113814D01*
X0001697967Y0001115752D01*
X0001688032Y0001115752D01*
X0001678289Y0001113814D01*
X0001669110Y0001110012D01*
X0001660850Y0001104493D01*
X0001653826Y0001097468D01*
X0001648306Y0001089208D01*
X0001644505Y0001080029D01*
X0001643787Y0001076422D01*
X0001643069Y0001080029D01*
X0001639267Y0001089208D01*
X0001633748Y0001097468D01*
X0001626723Y0001104493D01*
X0001618463Y0001110012D01*
X0001609285Y0001113814D01*
X0001599542Y0001115752D01*
X0001589607Y0001115752D01*
X0001579864Y0001113814D01*
X0001570685Y0001110012D01*
X0001565283Y0001106402D01*
X0001565283Y0001368155D01*
X0001565379Y0001369134D01*
X0001565283Y0001370112D01*
X0001565283Y0001370112D01*
X0001564995Y0001373039D01*
X0001563856Y0001376794D01*
X0001562006Y0001380255D01*
X0001559516Y0001383288D01*
X0001558756Y0001383912D01*
X0001168851Y0001773817D01*
X0001171743Y0001776733D01*
X0001177032Y0001784723D01*
X0001180661Y0001793591D01*
X0001180813Y0001795074D01*
X0001175902Y0001802578D01*
X0001128000Y0001802578D01*
X0001128000Y0001801791D01*
X0001118000Y0001801791D01*
X0001118000Y0001802578D01*
X0001070097Y0001802578D01*
X0001065186Y0001795074D01*
X0001065338Y0001793591D01*
X0001068777Y0001785189D01*
X0000867222Y0001785189D01*
X0000870661Y0001793591D01*
X0000870813Y0001795074D01*
X0000865902Y0001802578D01*
X0000818000Y0001802578D01*
X0000818000Y0001801791D01*
X0000808000Y0001801791D01*
X0000808000Y0001802578D01*
X0000807212Y0001802578D01*
X0000807212Y0001812578D01*
X0000808000Y0001812578D01*
X0000808000Y0001813366D01*
X0000818000Y0001813366D01*
X0000818000Y0001812578D01*
X0000865902Y0001812578D01*
X0000870813Y0001820083D01*
X0000870661Y0001821566D01*
X0000869257Y0001824996D01*
X0001066742Y0001824996D01*
X0001065338Y0001821566D01*
X0001065186Y0001820083D01*
X0001070097Y0001812578D01*
X0001118000Y0001812578D01*
X0001118000Y0001813366D01*
X0001128000Y0001813366D01*
X0001128000Y0001812578D01*
X0001175902Y0001812578D01*
X0001180813Y0001820083D01*
X0001180661Y0001821566D01*
X0001179257Y0001824996D01*
X0001230348Y0001824996D01*
X0001231326Y0001824899D01*
X0001232304Y0001824996D01*
X0001232305Y0001824996D01*
X0001235232Y0001825284D01*
X0001238987Y0001826423D01*
X0001242447Y0001828273D01*
X0001245481Y0001830762D01*
X0001246105Y0001831523D01*
X0001449302Y0002034720D01*
X0001454717Y0002029305D01*
X0001462742Y0002023943D01*
X0001471659Y0002020249D01*
X0001481126Y0002018366D01*
X0001490778Y0002018366D01*
X0001500245Y0002020249D01*
X0001509162Y0002023943D01*
X0001517188Y0002029305D01*
X0001524013Y0002036130D01*
X0001529375Y0002044156D01*
X0001533069Y0002053073D01*
X0001534952Y0002062540D01*
X0001534952Y0002072192D01*
X0001536952Y0002072192D01*
X0001536952Y0002062540D01*
X0001538835Y0002053073D01*
X0001542529Y0002044156D01*
X0001547891Y0002036130D01*
X0001554717Y0002029305D01*
X0001562742Y0002023943D01*
X0001571660Y0002020249D01*
X0001581126Y0002018366D01*
X0001590778Y0002018366D01*
X0001600245Y0002020249D01*
X0001609162Y0002023943D01*
X0001617188Y0002029305D01*
X0001624013Y0002036130D01*
X0001629375Y0002044156D01*
X0001633069Y0002053073D01*
X0001634952Y0002062540D01*
X0001634952Y0002072192D01*
X0001633069Y0002081659D01*
X0001629375Y0002090576D01*
X0001624013Y0002098602D01*
X0001617188Y0002105427D01*
X0001609162Y0002110789D01*
X0001600245Y0002114483D01*
X0001590778Y0002116366D01*
X0001581126Y0002116366D01*
X0001571660Y0002114483D01*
X0001562742Y0002110789D01*
X0001554717Y0002105427D01*
X0001547891Y0002098602D01*
X0001542529Y0002090576D01*
X0001538835Y0002081659D01*
X0001536952Y0002072192D01*
X0001534952Y0002072192D01*
X0001533069Y0002081659D01*
X0001529375Y0002090576D01*
X0001524013Y0002098602D01*
X0001517188Y0002105427D01*
X0001509162Y0002110789D01*
X0001500245Y0002114483D01*
X0001490778Y0002116366D01*
X0001481126Y0002116366D01*
X0001471659Y0002114483D01*
X0001462742Y0002110789D01*
X0001454717Y0002105427D01*
X0001447891Y0002098602D01*
X0001442529Y0002090576D01*
X0001441167Y0002087287D01*
X0001440124Y0002087287D01*
X0001439145Y0002087384D01*
X0001438167Y0002087287D01*
X0001435240Y0002086999D01*
X0001431485Y0002085860D01*
X0001431357Y0002085792D01*
X0001429375Y0002090576D01*
X0001424013Y0002098602D01*
X0001417188Y0002105427D01*
X0001409162Y0002110789D01*
X0001400245Y0002114483D01*
X0001390778Y0002116366D01*
X0001381126Y0002116366D01*
X0001371660Y0002114483D01*
X0001362742Y0002110789D01*
X0001354717Y0002105427D01*
X0001347891Y0002098602D01*
X0001342529Y0002090576D01*
X0001341324Y0002087667D01*
X0001336452Y0002097875D01*
X0001329529Y0002107141D01*
X0001320932Y0002114878D01*
X0001310991Y0002120790D01*
X0001300087Y0002124648D01*
X0001290952Y0002119904D01*
X0001290952Y0002072366D01*
X0001291740Y0002072366D01*
X0001291740Y0002062366D01*
X0001290952Y0002062366D01*
X0001290952Y0002014828D01*
X0001300087Y0002010084D01*
X0001310991Y0002013942D01*
X0001320932Y0002019853D01*
X0001329529Y0002027591D01*
X0001336452Y0002036856D01*
X0001341324Y0002047065D01*
X0001342529Y0002044156D01*
X0001347891Y0002036130D01*
X0001354717Y0002029305D01*
X0001362742Y0002023943D01*
X0001371660Y0002020249D01*
X0001377353Y0002019116D01*
X0001223075Y0001864838D01*
X0001171181Y0001864838D01*
X0001172042Y0001867678D01*
X0001172521Y0001872539D01*
X0001172521Y0001900098D01*
X0001172042Y0001904959D01*
X0001170624Y0001909633D01*
X0001168322Y0001913940D01*
X0001165223Y0001917716D01*
X0001161448Y0001920814D01*
X0001157140Y0001923117D01*
X0001152467Y0001924535D01*
X0001147606Y0001925013D01*
X0001098393Y0001925013D01*
X0001093532Y0001924535D01*
X0001088859Y0001923117D01*
X0001084551Y0001920814D01*
X0001080776Y0001917716D01*
X0001077677Y0001913940D01*
X0001075375Y0001909633D01*
X0001073957Y0001904959D01*
X0001073478Y0001900098D01*
X0001073478Y0001872539D01*
X0001073957Y0001867678D01*
X0001074818Y0001864838D01*
X0000861181Y0001864838D01*
X0000862042Y0001867678D01*
X0000862521Y0001872539D01*
X0000862521Y0001900098D01*
X0000862042Y0001904959D01*
X0000860624Y0001909633D01*
X0000858322Y0001913940D01*
X0000855223Y0001917716D01*
X0000851448Y0001920814D01*
X0000847140Y0001923117D01*
X0000842467Y0001924535D01*
X0000837606Y0001925013D01*
X0000788393Y0001925013D01*
X0000783532Y0001924535D01*
X0000778859Y0001923117D01*
X0000774551Y0001920814D01*
X0000770776Y0001917716D01*
X0000767677Y0001913940D01*
X0000765375Y0001909633D01*
X0000763957Y0001904959D01*
X0000763478Y0001900098D01*
X0000763478Y0001872539D01*
X0000763957Y0001867678D01*
X0000765375Y0001863005D01*
X0000767677Y0001858697D01*
X0000769509Y0001856465D01*
X0000748692Y0001835648D01*
X0000747932Y0001835024D01*
X0000745442Y0001831991D01*
X0000745192Y0001831522D01*
X0000743592Y0001828530D01*
X0000742453Y0001824775D01*
X0000742068Y0001820870D01*
X0000742165Y0001819891D01*
X0000742165Y0000877813D01*
X0000742068Y0000876834D01*
X0000742165Y0000875856D01*
X0000742165Y0000875856D01*
X0000742453Y0000872929D01*
X0000743592Y0000869174D01*
X0000745442Y0000865713D01*
X0000747932Y0000862680D01*
X0000748692Y0000862056D01*
X0000817522Y0000793226D01*
X0000775125Y0000793226D01*
X0000772185Y0000792936D01*
X0000769357Y0000792079D01*
X0000766752Y0000790686D01*
X0000764468Y0000788811D01*
X0000762593Y0000786527D01*
X0000761200Y0000783921D01*
X0000760343Y0000781094D01*
X0000760053Y0000778153D01*
X0000760053Y0000656773D01*
X0000740870Y0000675956D01*
X0000740870Y0001814899D01*
X0000740966Y0001815878D01*
X0000740581Y0001819783D01*
X0000739442Y0001823538D01*
X0000738781Y0001824775D01*
X0000737592Y0001826999D01*
X0000735103Y0001830032D01*
X0000734343Y0001830656D01*
X0000605622Y0001959377D01*
X0000605622Y0001964981D01*
X0000604440Y0001970921D01*
X0000602122Y0001976517D01*
X0000598757Y0001981553D01*
X0000594474Y0001985836D01*
X0000589438Y0001989201D01*
X0000583842Y0001991519D01*
X0000577902Y0001992701D01*
X0000571845Y0001992701D01*
X0000565905Y0001991519D01*
X0000560309Y0001989201D01*
X0000555273Y0001985836D01*
X0000550990Y0001981553D01*
X0000547625Y0001976517D01*
X0000545307Y0001970921D01*
X0000544125Y0001964981D01*
X0000544125Y0001958924D01*
X0000545307Y0001952984D01*
X0000547625Y0001947388D01*
X0000550990Y0001942352D01*
X0000555273Y0001938069D01*
X0000560309Y0001934704D01*
X0000565905Y0001932386D01*
X0000571845Y0001931204D01*
X0000575696Y0001931204D01*
X0000574031Y0001930873D01*
X0000568435Y0001928555D01*
X0000563399Y0001925190D01*
X0000559116Y0001920908D01*
X0000555751Y0001915871D01*
X0000553433Y0001910276D01*
X0000552251Y0001904335D01*
X0000552251Y0001898278D01*
X0000553433Y0001892338D01*
X0000555751Y0001886742D01*
X0000559116Y0001881706D01*
X0000563399Y0001877423D01*
X0000568435Y0001874058D01*
X0000574031Y0001871740D01*
X0000579971Y0001870559D01*
X0000585575Y0001870559D01*
X0000630350Y0001825784D01*
X0000630350Y0001149701D01*
X0000627478Y0001152058D01*
X0000622164Y0001154898D01*
X0000616398Y0001156648D01*
X0000610401Y0001157238D01*
X0000508039Y0001157238D01*
X0000502042Y0001156648D01*
X0000496276Y0001154898D01*
X0000490961Y0001152058D01*
X0000486303Y0001148235D01*
X0000482481Y0001143577D01*
X0000479640Y0001138263D01*
X0000477891Y0001132497D01*
X0000477300Y0001126500D01*
X0000477300Y0001024138D01*
X0000477891Y0001018141D01*
X0000479640Y0001012374D01*
X0000482481Y0001007060D01*
X0000486303Y0001002402D01*
X0000490961Y0000998579D01*
X0000496276Y0000995739D01*
X0000502042Y0000993990D01*
X0000508039Y0000993399D01*
X0000610401Y0000993399D01*
X0000616398Y0000993990D01*
X0000622164Y0000995739D01*
X0000627478Y0000998579D01*
X0000630350Y0001000936D01*
X0000630350Y0000714010D01*
X0000630254Y0000713031D01*
X0000630638Y0000709126D01*
X0000631777Y0000705371D01*
X0000632328Y0000704340D01*
X0000633627Y0000701910D01*
X0000636117Y0000698877D01*
X0000636877Y0000698253D01*
X0001252092Y0000083037D01*
X0000961156Y0000082989D01*
X0000929240Y0000082989D01*
X0000926891Y0000082757D01*
X0000923878Y0000081843D01*
X0000921101Y0000080359D01*
X0000918668Y0000078362D01*
X0000917938Y0000077473D01*
X0000905992Y0000064398D01*
X0000902286Y0000068103D01*
X0000921564Y0000082284D01*
X0000935749Y0000108424D01*
X0000944562Y0000136830D01*
X0000947664Y0000166409D01*
X0000944936Y0000196025D01*
X0000936482Y0000224539D01*
X0000922628Y0000250857D01*
X0000921564Y0000252448D01*
X0000902286Y0000266629D01*
X0000862209Y0000226551D01*
X0000855138Y0000233622D01*
X0000895215Y0000273700D01*
X0000881034Y0000292978D01*
X0000854894Y0000307163D01*
X0000826488Y0000315976D01*
X0000796909Y0000319078D01*
X0000767293Y0000316349D01*
X0000738779Y0000307895D01*
X0000712461Y0000294041D01*
X0000710870Y0000292978D01*
X0000696689Y0000273700D01*
X0000736767Y0000233622D01*
X0000729696Y0000226551D01*
X0000689618Y0000266629D01*
X0000670340Y0000252448D01*
X0000656155Y0000226308D01*
X0000647342Y0000197902D01*
X0000644240Y0000168323D01*
X0000646969Y0000138707D01*
X0000655423Y0000110192D01*
X0000669277Y0000083875D01*
X0000670340Y0000082284D01*
X0000689618Y0000068103D01*
X0000685533Y0000064018D01*
X0000683822Y0000065559D01*
X0000673984Y0000077480D01*
X0000673002Y0000078676D01*
X0000670569Y0000080673D01*
X0000669166Y0000081423D01*
X0000669166Y0000081423D01*
X0000669166Y0000081423D01*
X0000667792Y0000082158D01*
X0000666283Y0000082615D01*
X0000666283Y0000082615D01*
X0000666283Y0000082615D01*
X0000664779Y0000083072D01*
X0000662430Y0000083303D01*
X0000261984Y0000083303D01*
X0000261984Y0000877534D01*
X0000262061Y0000878319D01*
X0000261752Y0000881452D01*
X0000260838Y0000884465D01*
X0000259354Y0000887242D01*
X0000257357Y0000889676D01*
X0000254923Y0000891673D01*
X0000252146Y0000893158D01*
X0000249133Y0000894072D01*
X0000246785Y0000894303D01*
X0000246000Y0000894380D01*
X0000245214Y0000894303D01*
X0000015984Y0000894303D01*
X0000015984Y0000896798D01*
X0000374929Y0000896798D01*
X0000374929Y0000883761D01*
X0000377472Y0000870975D01*
X0000382461Y0000858931D01*
X0000389704Y0000848091D01*
X0000398922Y0000838873D01*
X0000409761Y0000831630D01*
X0000421805Y0000826641D01*
X0000434591Y0000824098D01*
X0000447628Y0000824098D01*
X0000460414Y0000826641D01*
X0000472458Y0000831630D01*
X0000483298Y0000838873D01*
X0000492516Y0000848091D01*
X0000499759Y0000858931D01*
X0000504747Y0000870975D01*
X0000507291Y0000883761D01*
X0000507291Y0000896798D01*
X0000504747Y0000909584D01*
X0000499759Y0000921628D01*
X0000492516Y0000932467D01*
X0000483298Y0000941685D01*
X0000472458Y0000948928D01*
X0000460414Y0000953917D01*
X0000447628Y0000956460D01*
X0000434591Y0000956460D01*
X0000421805Y0000953917D01*
X0000409761Y0000948928D01*
X0000398922Y0000941685D01*
X0000389704Y0000932467D01*
X0000382461Y0000921628D01*
X0000377472Y0000909584D01*
X0000374929Y0000896798D01*
X0000015984Y0000896798D01*
X0000015984Y0001022200D01*
X0000276952Y0001022200D01*
X0000282146Y0001010582D01*
X0000295560Y0001003856D01*
X0000310029Y0000999876D01*
X0000324997Y0000998795D01*
X0000339887Y0001000655D01*
X0000354129Y0001005384D01*
X0000363853Y0001010582D01*
X0000369047Y0001022200D01*
X0000323000Y0001068248D01*
X0000276952Y0001022200D01*
X0000015984Y0001022200D01*
X0000015984Y0001073321D01*
X0000246476Y0001073321D01*
X0000248336Y0001058431D01*
X0000253065Y0001044189D01*
X0000258263Y0001034465D01*
X0000269880Y0001029271D01*
X0000315928Y0001075319D01*
X0000330071Y0001075319D01*
X0000376119Y0001029271D01*
X0000387736Y0001034465D01*
X0000394462Y0001047879D01*
X0000398442Y0001062348D01*
X0000399523Y0001077316D01*
X0000397663Y0001092206D01*
X0000392934Y0001106448D01*
X0000387736Y0001116172D01*
X0000376119Y0001121367D01*
X0000330071Y0001075319D01*
X0000315928Y0001075319D01*
X0000269880Y0001121367D01*
X0000258263Y0001116172D01*
X0000251537Y0001102758D01*
X0000247557Y0001088289D01*
X0000246476Y0001073321D01*
X0000015984Y0001073321D01*
X0000015984Y0001128438D01*
X0000276952Y0001128438D01*
X0000323000Y0001082390D01*
X0000369047Y0001128438D01*
X0000363853Y0001140055D01*
X0000350439Y0001146782D01*
X0000335970Y0001150762D01*
X0000321002Y0001151842D01*
X0000306112Y0001149982D01*
X0000291870Y0001145253D01*
X0000282146Y0001140055D01*
X0000276952Y0001128438D01*
X0000015984Y0001128438D01*
X0000015984Y0001256334D01*
X0000245214Y0001256334D01*
X0000246000Y0001256257D01*
X0000249133Y0001256566D01*
X0000252146Y0001257480D01*
X0000254923Y0001258964D01*
X0000257357Y0001260961D01*
X0000259354Y0001263395D01*
X0000260838Y0001266172D01*
X0000261752Y0001269185D01*
X0000261984Y0001271534D01*
X0000262061Y0001272319D01*
X0000261984Y0001273104D01*
X0000261984Y0001785886D01*
X0000373393Y0001785886D01*
X0000373393Y0001779830D01*
X0000374575Y0001773889D01*
X0000376893Y0001768293D01*
X0000380258Y0001763257D01*
X0000384540Y0001758974D01*
X0000389577Y0001755609D01*
X0000395172Y0001753292D01*
X0000401113Y0001752110D01*
X0000407170Y0001752110D01*
X0000409274Y0001752529D01*
X0000544125Y0001617677D01*
X0000544125Y0001612074D01*
X0000545307Y0001606133D01*
X0000547625Y0001600537D01*
X0000550990Y0001595501D01*
X0000555273Y0001591219D01*
X0000560309Y0001587854D01*
X0000565905Y0001585536D01*
X0000571845Y0001584354D01*
X0000577902Y0001584354D01*
X0000583842Y0001585536D01*
X0000589438Y0001587854D01*
X0000594474Y0001591219D01*
X0000598757Y0001595501D01*
X0000602122Y0001600537D01*
X0000604440Y0001606133D01*
X0000605622Y0001612074D01*
X0000605622Y0001618131D01*
X0000604440Y0001624071D01*
X0000602122Y0001629667D01*
X0000598757Y0001634703D01*
X0000594474Y0001638986D01*
X0000589438Y0001642351D01*
X0000583842Y0001644669D01*
X0000577902Y0001645850D01*
X0000572298Y0001645850D01*
X0000434889Y0001783259D01*
X0000434889Y0001785886D01*
X0000433708Y0001791827D01*
X0000431390Y0001797423D01*
X0000428025Y0001802459D01*
X0000423742Y0001806742D01*
X0000418706Y0001810107D01*
X0000413110Y0001812424D01*
X0000407170Y0001813606D01*
X0000401113Y0001813606D01*
X0000395172Y0001812424D01*
X0000389577Y0001810107D01*
X0000384540Y0001806742D01*
X0000380258Y0001802459D01*
X0000376893Y0001797423D01*
X0000374575Y0001791827D01*
X0000373393Y0001785886D01*
X0000261984Y0001785886D01*
X0000261984Y0002072192D01*
X0000936952Y0002072192D01*
X0000936952Y0002062540D01*
X0000938835Y0002053073D01*
X0000942529Y0002044156D01*
X0000947891Y0002036130D01*
X0000954717Y0002029305D01*
X0000962742Y0002023943D01*
X0000971660Y0002020249D01*
X0000981126Y0002018366D01*
X0000990778Y0002018366D01*
X0001000245Y0002020249D01*
X0001009162Y0002023943D01*
X0001017188Y0002029305D01*
X0001024013Y0002036130D01*
X0001029375Y0002044156D01*
X0001033069Y0002053073D01*
X0001034952Y0002062540D01*
X0001034952Y0002072192D01*
X0001036952Y0002072192D01*
X0001036952Y0002062540D01*
X0001038835Y0002053073D01*
X0001042529Y0002044156D01*
X0001047891Y0002036130D01*
X0001054717Y0002029305D01*
X0001062742Y0002023943D01*
X0001071659Y0002020249D01*
X0001081126Y0002018366D01*
X0001090778Y0002018366D01*
X0001100245Y0002020249D01*
X0001109162Y0002023943D01*
X0001117188Y0002029305D01*
X0001124013Y0002036130D01*
X0001129375Y0002044156D01*
X0001133069Y0002053073D01*
X0001134952Y0002062540D01*
X0001134952Y0002072192D01*
X0001136952Y0002072192D01*
X0001136952Y0002062540D01*
X0001138835Y0002053073D01*
X0001142529Y0002044156D01*
X0001147891Y0002036130D01*
X0001154717Y0002029305D01*
X0001162742Y0002023943D01*
X0001171659Y0002020249D01*
X0001181126Y0002018366D01*
X0001190778Y0002018366D01*
X0001200245Y0002020249D01*
X0001209162Y0002023943D01*
X0001217188Y0002029305D01*
X0001224013Y0002036130D01*
X0001229375Y0002044156D01*
X0001230581Y0002047065D01*
X0001235453Y0002036856D01*
X0001242375Y0002027591D01*
X0001250972Y0002019853D01*
X0001260914Y0002013942D01*
X0001271817Y0002010084D01*
X0001280952Y0002014828D01*
X0001280952Y0002062366D01*
X0001280165Y0002062366D01*
X0001280165Y0002072366D01*
X0001280952Y0002072366D01*
X0001280952Y0002119904D01*
X0001271817Y0002124648D01*
X0001260914Y0002120790D01*
X0001250972Y0002114878D01*
X0001242375Y0002107141D01*
X0001235453Y0002097875D01*
X0001230581Y0002087667D01*
X0001229375Y0002090576D01*
X0001224013Y0002098602D01*
X0001217188Y0002105427D01*
X0001209162Y0002110789D01*
X0001200245Y0002114483D01*
X0001190778Y0002116366D01*
X0001181126Y0002116366D01*
X0001171659Y0002114483D01*
X0001162742Y0002110789D01*
X0001154717Y0002105427D01*
X0001147891Y0002098602D01*
X0001142529Y0002090576D01*
X0001138835Y0002081659D01*
X0001136952Y0002072192D01*
X0001134952Y0002072192D01*
X0001133069Y0002081659D01*
X0001129375Y0002090576D01*
X0001124013Y0002098602D01*
X0001117188Y0002105427D01*
X0001109162Y0002110789D01*
X0001100245Y0002114483D01*
X0001090778Y0002116366D01*
X0001081126Y0002116366D01*
X0001071659Y0002114483D01*
X0001062742Y0002110789D01*
X0001054717Y0002105427D01*
X0001047891Y0002098602D01*
X0001042529Y0002090576D01*
X0001038835Y0002081659D01*
X0001036952Y0002072192D01*
X0001034952Y0002072192D01*
X0001033069Y0002081659D01*
X0001029375Y0002090576D01*
X0001024013Y0002098602D01*
X0001017188Y0002105427D01*
X0001009162Y0002110789D01*
X0001000245Y0002114483D01*
X0000990778Y0002116366D01*
X0000981126Y0002116366D01*
X0000971660Y0002114483D01*
X0000962742Y0002110789D01*
X0000954717Y0002105427D01*
X0000947891Y0002098602D01*
X0000942529Y0002090576D01*
X0000938835Y0002081659D01*
X0000936952Y0002072192D01*
X0000261984Y0002072192D01*
X0000261984Y0002151334D01*
X0003617015Y0002151334D01*
X0003617015Y0000083303D01*
G37*
D25*
X0000941345Y0001006328D02*
X0000952664Y0000989389D01*
X0000967070Y0000974983D01*
X0000984009Y0000963664D01*
X0001002831Y0000955868D01*
X0001022813Y0000951893D01*
X0001043186Y0000951893D01*
X0001063167Y0000955868D01*
X0001081990Y0000963664D01*
X0001098929Y0000974983D01*
X0001113335Y0000989389D01*
X0001124654Y0001006328D01*
X0001125519Y0001008418D01*
X0001126385Y0001006328D01*
X0001137703Y0000989389D01*
X0001152109Y0000974983D01*
X0001169049Y0000963664D01*
X0001187871Y0000955868D01*
X0001207852Y0000951893D01*
X0001228225Y0000951893D01*
X0001248207Y0000955868D01*
X0001267029Y0000963664D01*
X0001283969Y0000974983D01*
X0001298374Y0000989389D01*
X0001301480Y0000994036D01*
X0001301480Y0000907671D01*
X0001301383Y0000906693D01*
X0001301768Y0000902787D01*
X0001302907Y0000899032D01*
X0001303768Y0000897421D01*
X0001304757Y0000895571D01*
X0001307247Y0000892538D01*
X0001308007Y0000891914D01*
X0001976031Y0000223890D01*
X0001976031Y0000217793D01*
X0001970991Y0000220790D01*
X0001960087Y0000224648D01*
X0001950952Y0000219904D01*
X0001950952Y0000172366D01*
X0001951740Y0000172366D01*
X0001951740Y0000162366D01*
X0001950952Y0000162366D01*
X0001950952Y0000161578D01*
X0001940952Y0000161578D01*
X0001940952Y0000162366D01*
X0001850952Y0000162366D01*
X0001850952Y0000161578D01*
X0001840952Y0000161578D01*
X0001840952Y0000162366D01*
X0001840165Y0000162366D01*
X0001840165Y0000172366D01*
X0001840952Y0000172366D01*
X0001840952Y0000219904D01*
X0001850952Y0000219904D01*
X0001850952Y0000172366D01*
X0001940952Y0000172366D01*
X0001940952Y0000219904D01*
X0001931817Y0000224648D01*
X0001920914Y0000220790D01*
X0001910972Y0000214878D01*
X0001902375Y0000207141D01*
X0001895952Y0000198544D01*
X0001889529Y0000207141D01*
X0001880932Y0000214878D01*
X0001870991Y0000220790D01*
X0001860087Y0000224648D01*
X0001850952Y0000219904D01*
X0001840952Y0000219904D01*
X0001831817Y0000224648D01*
X0001820914Y0000220790D01*
X0001810972Y0000214878D01*
X0001802375Y0000207141D01*
X0001795453Y0000197875D01*
X0001790581Y0000187667D01*
X0001789375Y0000190576D01*
X0001784013Y0000198602D01*
X0001777188Y0000205427D01*
X0001769162Y0000210789D01*
X0001765874Y0000212151D01*
X0001765874Y0000281388D01*
X0001765970Y0000282366D01*
X0001765874Y0000283344D01*
X0001765874Y0000283344D01*
X0001765585Y0000286271D01*
X0001764446Y0000290026D01*
X0001762596Y0000293487D01*
X0001760107Y0000296520D01*
X0001759347Y0000297144D01*
X0001739851Y0000316640D01*
X0001741494Y0000320608D01*
X0001743433Y0000330351D01*
X0001743433Y0000340286D01*
X0001741494Y0000350029D01*
X0001737693Y0000359208D01*
X0001732173Y0000367468D01*
X0001725149Y0000374493D01*
X0001716889Y0000380012D01*
X0001707710Y0000383814D01*
X0001697967Y0000385752D01*
X0001688032Y0000385752D01*
X0001678289Y0000383814D01*
X0001669110Y0000380012D01*
X0001660850Y0000374493D01*
X0001653826Y0000367468D01*
X0001648306Y0000359208D01*
X0001644505Y0000350029D01*
X0001643787Y0000346422D01*
X0001643069Y0000350029D01*
X0001639267Y0000359208D01*
X0001633748Y0000367468D01*
X0001626723Y0000374493D01*
X0001618463Y0000380012D01*
X0001609285Y0000383814D01*
X0001599542Y0000385752D01*
X0001589607Y0000385752D01*
X0001579864Y0000383814D01*
X0001570685Y0000380012D01*
X0001562425Y0000374493D01*
X0001555400Y0000367468D01*
X0001551132Y0000361079D01*
X0001548049Y0000366846D01*
X0001538042Y0000370140D01*
X0001503220Y0000335319D01*
X0001538042Y0000300497D01*
X0001548049Y0000303791D01*
X0001550949Y0000309831D01*
X0001555400Y0000303169D01*
X0001562425Y0000296145D01*
X0001570685Y0000290625D01*
X0001579864Y0000286824D01*
X0001589607Y0000284886D01*
X0001599542Y0000284886D01*
X0001609285Y0000286824D01*
X0001618463Y0000290625D01*
X0001626723Y0000296145D01*
X0001633748Y0000303169D01*
X0001639267Y0000311430D01*
X0001643069Y0000320608D01*
X0001643787Y0000324216D01*
X0001644505Y0000320608D01*
X0001648306Y0000311430D01*
X0001653826Y0000303169D01*
X0001660850Y0000296145D01*
X0001669110Y0000290625D01*
X0001678289Y0000286824D01*
X0001688032Y0000284886D01*
X0001697967Y0000284886D01*
X0001707710Y0000286824D01*
X0001711678Y0000288467D01*
X0001726031Y0000274114D01*
X0001726031Y0000212151D01*
X0001722742Y0000210789D01*
X0001714717Y0000205427D01*
X0001707891Y0000198602D01*
X0001702529Y0000190576D01*
X0001698835Y0000181659D01*
X0001696952Y0000172192D01*
X0001696952Y0000162540D01*
X0001698835Y0000153073D01*
X0001702529Y0000144156D01*
X0001707891Y0000136130D01*
X0001714717Y0000129305D01*
X0001722742Y0000123943D01*
X0001730122Y0000120886D01*
X0001661782Y0000120886D01*
X0001669162Y0000123943D01*
X0001677188Y0000129305D01*
X0001684013Y0000136130D01*
X0001689375Y0000144156D01*
X0001693069Y0000153073D01*
X0001694952Y0000162540D01*
X0001694952Y0000172192D01*
X0001693069Y0000181659D01*
X0001689375Y0000190576D01*
X0001684013Y0000198602D01*
X0001677188Y0000205427D01*
X0001669162Y0000210789D01*
X0001660245Y0000214483D01*
X0001650778Y0000216366D01*
X0001641126Y0000216366D01*
X0001631660Y0000214483D01*
X0001622742Y0000210789D01*
X0001614717Y0000205427D01*
X0001607891Y0000198602D01*
X0001602529Y0000190576D01*
X0001598835Y0000181659D01*
X0001596952Y0000172192D01*
X0001596952Y0000162540D01*
X0001598835Y0000153073D01*
X0001602529Y0000144156D01*
X0001607891Y0000136130D01*
X0001614717Y0000129305D01*
X0001622742Y0000123943D01*
X0001630122Y0000120886D01*
X0001561782Y0000120886D01*
X0001569162Y0000123943D01*
X0001577188Y0000129305D01*
X0001584013Y0000136130D01*
X0001589375Y0000144156D01*
X0001593069Y0000153073D01*
X0001594952Y0000162540D01*
X0001594952Y0000172192D01*
X0001593069Y0000181659D01*
X0001589375Y0000190576D01*
X0001584013Y0000198602D01*
X0001577188Y0000205427D01*
X0001569162Y0000210789D01*
X0001560245Y0000214483D01*
X0001550778Y0000216366D01*
X0001541126Y0000216366D01*
X0001531659Y0000214483D01*
X0001522742Y0000210789D01*
X0001514717Y0000205427D01*
X0001507891Y0000198602D01*
X0001502529Y0000190576D01*
X0001498835Y0000181659D01*
X0001496952Y0000172192D01*
X0001496952Y0000162540D01*
X0001498835Y0000153073D01*
X0001502529Y0000144156D01*
X0001507891Y0000136130D01*
X0001514717Y0000129305D01*
X0001522742Y0000123943D01*
X0001530122Y0000120886D01*
X0001461782Y0000120886D01*
X0001469162Y0000123943D01*
X0001477188Y0000129305D01*
X0001484013Y0000136130D01*
X0001489375Y0000144156D01*
X0001493069Y0000153073D01*
X0001494952Y0000162540D01*
X0001494952Y0000172192D01*
X0001493069Y0000181659D01*
X0001489375Y0000190576D01*
X0001484013Y0000198602D01*
X0001477188Y0000205427D01*
X0001469162Y0000210789D01*
X0001460245Y0000214483D01*
X0001450778Y0000216366D01*
X0001441126Y0000216366D01*
X0001431660Y0000214483D01*
X0001422742Y0000210789D01*
X0001414717Y0000205427D01*
X0001407891Y0000198602D01*
X0001402529Y0000190576D01*
X0001398835Y0000181659D01*
X0001396952Y0000172192D01*
X0001396952Y0000162540D01*
X0001398835Y0000153073D01*
X0001402529Y0000144156D01*
X0001407891Y0000136130D01*
X0001414717Y0000129305D01*
X0001422742Y0000123943D01*
X0001430122Y0000120886D01*
X0001361782Y0000120886D01*
X0001369162Y0000123943D01*
X0001377188Y0000129305D01*
X0001384013Y0000136130D01*
X0001389375Y0000144156D01*
X0001393069Y0000153073D01*
X0001394952Y0000162540D01*
X0001394952Y0000172192D01*
X0001393069Y0000181659D01*
X0001389375Y0000190576D01*
X0001384013Y0000198602D01*
X0001377188Y0000205427D01*
X0001369162Y0000210789D01*
X0001360245Y0000214483D01*
X0001350778Y0000216366D01*
X0001341126Y0000216366D01*
X0001331660Y0000214483D01*
X0001322742Y0000210789D01*
X0001314717Y0000205427D01*
X0001307891Y0000198602D01*
X0001302529Y0000190576D01*
X0001298835Y0000181659D01*
X0001296952Y0000172192D01*
X0001296952Y0000162540D01*
X0001298835Y0000153073D01*
X0001302529Y0000144156D01*
X0001307891Y0000136130D01*
X0001314717Y0000129305D01*
X0001322742Y0000123943D01*
X0001330122Y0000120886D01*
X0001295940Y0000120886D01*
X0001123400Y0000293426D01*
X0001461327Y0000293426D01*
X0001464622Y0000283419D01*
X0001475353Y0000278265D01*
X0001486883Y0000275304D01*
X0001498769Y0000274650D01*
X0001510555Y0000276327D01*
X0001521787Y0000280271D01*
X0001527676Y0000283419D01*
X0001530971Y0000293426D01*
X0001496149Y0000328248D01*
X0001461327Y0000293426D01*
X0001123400Y0000293426D01*
X0001084127Y0000332698D01*
X0001435480Y0000332698D01*
X0001437157Y0000320913D01*
X0001441101Y0000309681D01*
X0001444249Y0000303791D01*
X0001454256Y0000300497D01*
X0001489078Y0000335319D01*
X0001454256Y0000370140D01*
X0001444249Y0000366846D01*
X0001439096Y0000356115D01*
X0001436135Y0000344585D01*
X0001435480Y0000332698D01*
X0001084127Y0000332698D01*
X0001039614Y0000377212D01*
X0001461327Y0000377212D01*
X0001496149Y0000342390D01*
X0001530971Y0000377212D01*
X0001527676Y0000387219D01*
X0001516945Y0000392372D01*
X0001505415Y0000395333D01*
X0001493529Y0000395988D01*
X0001481743Y0000394311D01*
X0001470511Y0000390367D01*
X0001464622Y0000387219D01*
X0001461327Y0000377212D01*
X0001039614Y0000377212D01*
X0000799414Y0000617411D01*
X0000920795Y0000617411D01*
X0000923735Y0000617701D01*
X0000926563Y0000618559D01*
X0000929169Y0000619952D01*
X0000931453Y0000621826D01*
X0000933327Y0000624110D01*
X0000934720Y0000626716D01*
X0000935578Y0000629543D01*
X0000935867Y0000632484D01*
X0000935867Y0000636784D01*
X0000971536Y0000636784D01*
X0000979335Y0000622950D01*
X0000996436Y0000614063D01*
X0001014942Y0000608683D01*
X0001034141Y0000607017D01*
X0001053297Y0000609129D01*
X0001071672Y0000614937D01*
X0001086664Y0000622950D01*
X0001094463Y0000636784D01*
X0001032999Y0000698248D01*
X0000971536Y0000636784D01*
X0000935867Y0000636784D01*
X0000935867Y0000693570D01*
X0000936810Y0000685021D01*
X0000942618Y0000666646D01*
X0000950631Y0000651655D01*
X0000964465Y0000643855D01*
X0001025928Y0000705319D01*
X0001040071Y0000705319D01*
X0001101534Y0000643855D01*
X0001115368Y0000651655D01*
X0001124255Y0000668755D01*
X0001129635Y0000687261D01*
X0001130376Y0000695803D01*
X0001133580Y0000679698D01*
X0001140201Y0000663713D01*
X0001149813Y0000649327D01*
X0001162048Y0000637093D01*
X0001176434Y0000627481D01*
X0001192418Y0000620859D01*
X0001209388Y0000617484D01*
X0001226690Y0000617484D01*
X0001240051Y0000620142D01*
X0001327606Y0000620142D01*
X0001327606Y0000601677D01*
X0001331208Y0000583566D01*
X0001338274Y0000566507D01*
X0001348533Y0000551153D01*
X0001361590Y0000538096D01*
X0001376943Y0000527838D01*
X0001394003Y0000520771D01*
X0001412113Y0000517169D01*
X0001430579Y0000517169D01*
X0001448689Y0000520771D01*
X0001465749Y0000527838D01*
X0001481102Y0000538096D01*
X0001494159Y0000551153D01*
X0001504417Y0000566507D01*
X0001511484Y0000583566D01*
X0001515086Y0000601677D01*
X0001515086Y0000620142D01*
X0001511484Y0000638252D01*
X0001504417Y0000655312D01*
X0001494159Y0000670665D01*
X0001481102Y0000683722D01*
X0001465749Y0000693981D01*
X0001448689Y0000701047D01*
X0001430579Y0000704649D01*
X0001412113Y0000704649D01*
X0001394003Y0000701047D01*
X0001376943Y0000693981D01*
X0001361590Y0000683722D01*
X0001348533Y0000670665D01*
X0001338274Y0000655312D01*
X0001331208Y0000638252D01*
X0001327606Y0000620142D01*
X0001240051Y0000620142D01*
X0001243659Y0000620859D01*
X0001259644Y0000627481D01*
X0001274030Y0000637093D01*
X0001286264Y0000649327D01*
X0001295877Y0000663713D01*
X0001302498Y0000679698D01*
X0001305874Y0000696668D01*
X0001305874Y0000713970D01*
X0001302498Y0000730939D01*
X0001295877Y0000746924D01*
X0001286264Y0000761310D01*
X0001274030Y0000773544D01*
X0001259644Y0000783157D01*
X0001243659Y0000789778D01*
X0001226690Y0000793153D01*
X0001209388Y0000793153D01*
X0001192418Y0000789778D01*
X0001176434Y0000783157D01*
X0001162048Y0000773544D01*
X0001149813Y0000761310D01*
X0001140201Y0000746924D01*
X0001133580Y0000730939D01*
X0001130377Y0000714839D01*
X0001129189Y0000725616D01*
X0001123381Y0000743992D01*
X0001115368Y0000758983D01*
X0001101534Y0000766782D01*
X0001040071Y0000705319D01*
X0001025928Y0000705319D01*
X0000964465Y0000766782D01*
X0000950631Y0000758983D01*
X0000941744Y0000741882D01*
X0000936364Y0000723377D01*
X0000935867Y0000717651D01*
X0000935867Y0000773853D01*
X0000971536Y0000773853D01*
X0001032999Y0000712390D01*
X0001094463Y0000773853D01*
X0001086664Y0000787687D01*
X0001069563Y0000796574D01*
X0001051057Y0000801954D01*
X0001031858Y0000803620D01*
X0001012702Y0000801508D01*
X0000994326Y0000795700D01*
X0000979335Y0000787687D01*
X0000971536Y0000773853D01*
X0000935867Y0000773853D01*
X0000935867Y0000778153D01*
X0000935578Y0000781094D01*
X0000934720Y0000783921D01*
X0000933327Y0000786527D01*
X0000931453Y0000788811D01*
X0000929169Y0000790686D01*
X0000926563Y0000792079D01*
X0000923735Y0000792936D01*
X0000920795Y0000793226D01*
X0000867755Y0000793226D01*
X0000867593Y0000794866D01*
X0000866454Y0000798621D01*
X0000864604Y0000802082D01*
X0000862115Y0000805115D01*
X0000861355Y0000805739D01*
X0000782007Y0000885086D01*
X0000782007Y0000967411D01*
X0000920795Y0000967411D01*
X0000923735Y0000967701D01*
X0000926563Y0000968559D01*
X0000929169Y0000969952D01*
X0000931453Y0000971826D01*
X0000933327Y0000974110D01*
X0000934720Y0000976716D01*
X0000935578Y0000979543D01*
X0000935867Y0000982484D01*
X0000935867Y0001019553D01*
X0000941345Y0001006328D01*
D26*
G36*
X0000941345Y0001006328D02*
G01*
X0000952664Y0000989389D01*
X0000967070Y0000974983D01*
X0000984009Y0000963664D01*
X0001002831Y0000955868D01*
X0001022813Y0000951893D01*
X0001043186Y0000951893D01*
X0001063167Y0000955868D01*
X0001081990Y0000963664D01*
X0001098929Y0000974983D01*
X0001113335Y0000989389D01*
X0001124654Y0001006328D01*
X0001125519Y0001008418D01*
X0001126385Y0001006328D01*
X0001137703Y0000989389D01*
X0001152109Y0000974983D01*
X0001169049Y0000963664D01*
X0001187871Y0000955868D01*
X0001207852Y0000951893D01*
X0001228225Y0000951893D01*
X0001248207Y0000955868D01*
X0001267029Y0000963664D01*
X0001283969Y0000974983D01*
X0001298374Y0000989389D01*
X0001301480Y0000994036D01*
X0001301480Y0000907671D01*
X0001301383Y0000906693D01*
X0001301768Y0000902787D01*
X0001302907Y0000899032D01*
X0001303768Y0000897421D01*
X0001304757Y0000895571D01*
X0001307247Y0000892538D01*
X0001308007Y0000891914D01*
X0001976031Y0000223890D01*
X0001976031Y0000217793D01*
X0001970991Y0000220790D01*
X0001960087Y0000224648D01*
X0001950952Y0000219904D01*
X0001950952Y0000172366D01*
X0001951740Y0000172366D01*
X0001951740Y0000162366D01*
X0001950952Y0000162366D01*
X0001950952Y0000161578D01*
X0001940952Y0000161578D01*
X0001940952Y0000162366D01*
X0001850952Y0000162366D01*
X0001850952Y0000161578D01*
X0001840952Y0000161578D01*
X0001840952Y0000162366D01*
X0001840165Y0000162366D01*
X0001840165Y0000172366D01*
X0001840952Y0000172366D01*
X0001840952Y0000219904D01*
X0001850952Y0000219904D01*
X0001850952Y0000172366D01*
X0001940952Y0000172366D01*
X0001940952Y0000219904D01*
X0001931817Y0000224648D01*
X0001920914Y0000220790D01*
X0001910972Y0000214878D01*
X0001902375Y0000207141D01*
X0001895952Y0000198544D01*
X0001889529Y0000207141D01*
X0001880932Y0000214878D01*
X0001870991Y0000220790D01*
X0001860087Y0000224648D01*
X0001850952Y0000219904D01*
X0001840952Y0000219904D01*
X0001831817Y0000224648D01*
X0001820914Y0000220790D01*
X0001810972Y0000214878D01*
X0001802375Y0000207141D01*
X0001795453Y0000197875D01*
X0001790581Y0000187667D01*
X0001789375Y0000190576D01*
X0001784013Y0000198602D01*
X0001777188Y0000205427D01*
X0001769162Y0000210789D01*
X0001765874Y0000212151D01*
X0001765874Y0000281388D01*
X0001765970Y0000282366D01*
X0001765874Y0000283344D01*
X0001765874Y0000283344D01*
X0001765585Y0000286271D01*
X0001764446Y0000290026D01*
X0001762596Y0000293487D01*
X0001760107Y0000296520D01*
X0001759347Y0000297144D01*
X0001739851Y0000316640D01*
X0001741494Y0000320608D01*
X0001743433Y0000330351D01*
X0001743433Y0000340286D01*
X0001741494Y0000350029D01*
X0001737693Y0000359208D01*
X0001732173Y0000367468D01*
X0001725149Y0000374493D01*
X0001716889Y0000380012D01*
X0001707710Y0000383814D01*
X0001697967Y0000385752D01*
X0001688032Y0000385752D01*
X0001678289Y0000383814D01*
X0001669110Y0000380012D01*
X0001660850Y0000374493D01*
X0001653826Y0000367468D01*
X0001648306Y0000359208D01*
X0001644505Y0000350029D01*
X0001643787Y0000346422D01*
X0001643069Y0000350029D01*
X0001639267Y0000359208D01*
X0001633748Y0000367468D01*
X0001626723Y0000374493D01*
X0001618463Y0000380012D01*
X0001609285Y0000383814D01*
X0001599542Y0000385752D01*
X0001589607Y0000385752D01*
X0001579864Y0000383814D01*
X0001570685Y0000380012D01*
X0001562425Y0000374493D01*
X0001555400Y0000367468D01*
X0001551132Y0000361079D01*
X0001548049Y0000366846D01*
X0001538042Y0000370140D01*
X0001503220Y0000335319D01*
X0001538042Y0000300497D01*
X0001548049Y0000303791D01*
X0001550949Y0000309831D01*
X0001555400Y0000303169D01*
X0001562425Y0000296145D01*
X0001570685Y0000290625D01*
X0001579864Y0000286824D01*
X0001589607Y0000284886D01*
X0001599542Y0000284886D01*
X0001609285Y0000286824D01*
X0001618463Y0000290625D01*
X0001626723Y0000296145D01*
X0001633748Y0000303169D01*
X0001639267Y0000311430D01*
X0001643069Y0000320608D01*
X0001643787Y0000324216D01*
X0001644505Y0000320608D01*
X0001648306Y0000311430D01*
X0001653826Y0000303169D01*
X0001660850Y0000296145D01*
X0001669110Y0000290625D01*
X0001678289Y0000286824D01*
X0001688032Y0000284886D01*
X0001697967Y0000284886D01*
X0001707710Y0000286824D01*
X0001711678Y0000288467D01*
X0001726031Y0000274114D01*
X0001726031Y0000212151D01*
X0001722742Y0000210789D01*
X0001714717Y0000205427D01*
X0001707891Y0000198602D01*
X0001702529Y0000190576D01*
X0001698835Y0000181659D01*
X0001696952Y0000172192D01*
X0001696952Y0000162540D01*
X0001698835Y0000153073D01*
X0001702529Y0000144156D01*
X0001707891Y0000136130D01*
X0001714717Y0000129305D01*
X0001722742Y0000123943D01*
X0001730122Y0000120886D01*
X0001661782Y0000120886D01*
X0001669162Y0000123943D01*
X0001677188Y0000129305D01*
X0001684013Y0000136130D01*
X0001689375Y0000144156D01*
X0001693069Y0000153073D01*
X0001694952Y0000162540D01*
X0001694952Y0000172192D01*
X0001693069Y0000181659D01*
X0001689375Y0000190576D01*
X0001684013Y0000198602D01*
X0001677188Y0000205427D01*
X0001669162Y0000210789D01*
X0001660245Y0000214483D01*
X0001650778Y0000216366D01*
X0001641126Y0000216366D01*
X0001631660Y0000214483D01*
X0001622742Y0000210789D01*
X0001614717Y0000205427D01*
X0001607891Y0000198602D01*
X0001602529Y0000190576D01*
X0001598835Y0000181659D01*
X0001596952Y0000172192D01*
X0001596952Y0000162540D01*
X0001598835Y0000153073D01*
X0001602529Y0000144156D01*
X0001607891Y0000136130D01*
X0001614717Y0000129305D01*
X0001622742Y0000123943D01*
X0001630122Y0000120886D01*
X0001561782Y0000120886D01*
X0001569162Y0000123943D01*
X0001577188Y0000129305D01*
X0001584013Y0000136130D01*
X0001589375Y0000144156D01*
X0001593069Y0000153073D01*
X0001594952Y0000162540D01*
X0001594952Y0000172192D01*
X0001593069Y0000181659D01*
X0001589375Y0000190576D01*
X0001584013Y0000198602D01*
X0001577188Y0000205427D01*
X0001569162Y0000210789D01*
X0001560245Y0000214483D01*
X0001550778Y0000216366D01*
X0001541126Y0000216366D01*
X0001531659Y0000214483D01*
X0001522742Y0000210789D01*
X0001514717Y0000205427D01*
X0001507891Y0000198602D01*
X0001502529Y0000190576D01*
X0001498835Y0000181659D01*
X0001496952Y0000172192D01*
X0001496952Y0000162540D01*
X0001498835Y0000153073D01*
X0001502529Y0000144156D01*
X0001507891Y0000136130D01*
X0001514717Y0000129305D01*
X0001522742Y0000123943D01*
X0001530122Y0000120886D01*
X0001461782Y0000120886D01*
X0001469162Y0000123943D01*
X0001477188Y0000129305D01*
X0001484013Y0000136130D01*
X0001489375Y0000144156D01*
X0001493069Y0000153073D01*
X0001494952Y0000162540D01*
X0001494952Y0000172192D01*
X0001493069Y0000181659D01*
X0001489375Y0000190576D01*
X0001484013Y0000198602D01*
X0001477188Y0000205427D01*
X0001469162Y0000210789D01*
X0001460245Y0000214483D01*
X0001450778Y0000216366D01*
X0001441126Y0000216366D01*
X0001431660Y0000214483D01*
X0001422742Y0000210789D01*
X0001414717Y0000205427D01*
X0001407891Y0000198602D01*
X0001402529Y0000190576D01*
X0001398835Y0000181659D01*
X0001396952Y0000172192D01*
X0001396952Y0000162540D01*
X0001398835Y0000153073D01*
X0001402529Y0000144156D01*
X0001407891Y0000136130D01*
X0001414717Y0000129305D01*
X0001422742Y0000123943D01*
X0001430122Y0000120886D01*
X0001361782Y0000120886D01*
X0001369162Y0000123943D01*
X0001377188Y0000129305D01*
X0001384013Y0000136130D01*
X0001389375Y0000144156D01*
X0001393069Y0000153073D01*
X0001394952Y0000162540D01*
X0001394952Y0000172192D01*
X0001393069Y0000181659D01*
X0001389375Y0000190576D01*
X0001384013Y0000198602D01*
X0001377188Y0000205427D01*
X0001369162Y0000210789D01*
X0001360245Y0000214483D01*
X0001350778Y0000216366D01*
X0001341126Y0000216366D01*
X0001331660Y0000214483D01*
X0001322742Y0000210789D01*
X0001314717Y0000205427D01*
X0001307891Y0000198602D01*
X0001302529Y0000190576D01*
X0001298835Y0000181659D01*
X0001296952Y0000172192D01*
X0001296952Y0000162540D01*
X0001298835Y0000153073D01*
X0001302529Y0000144156D01*
X0001307891Y0000136130D01*
X0001314717Y0000129305D01*
X0001322742Y0000123943D01*
X0001330122Y0000120886D01*
X0001295940Y0000120886D01*
X0001123400Y0000293426D01*
X0001461327Y0000293426D01*
X0001464622Y0000283419D01*
X0001475353Y0000278265D01*
X0001486883Y0000275304D01*
X0001498769Y0000274650D01*
X0001510555Y0000276327D01*
X0001521787Y0000280271D01*
X0001527676Y0000283419D01*
X0001530971Y0000293426D01*
X0001496149Y0000328248D01*
X0001461327Y0000293426D01*
X0001123400Y0000293426D01*
X0001084127Y0000332698D01*
X0001435480Y0000332698D01*
X0001437157Y0000320913D01*
X0001441101Y0000309681D01*
X0001444249Y0000303791D01*
X0001454256Y0000300497D01*
X0001489078Y0000335319D01*
X0001454256Y0000370140D01*
X0001444249Y0000366846D01*
X0001439096Y0000356115D01*
X0001436135Y0000344585D01*
X0001435480Y0000332698D01*
X0001084127Y0000332698D01*
X0001039614Y0000377212D01*
X0001461327Y0000377212D01*
X0001496149Y0000342390D01*
X0001530971Y0000377212D01*
X0001527676Y0000387219D01*
X0001516945Y0000392372D01*
X0001505415Y0000395333D01*
X0001493529Y0000395988D01*
X0001481743Y0000394311D01*
X0001470511Y0000390367D01*
X0001464622Y0000387219D01*
X0001461327Y0000377212D01*
X0001039614Y0000377212D01*
X0000799414Y0000617411D01*
X0000920795Y0000617411D01*
X0000923735Y0000617701D01*
X0000926563Y0000618559D01*
X0000929169Y0000619952D01*
X0000931453Y0000621826D01*
X0000933327Y0000624110D01*
X0000934720Y0000626716D01*
X0000935578Y0000629543D01*
X0000935867Y0000632484D01*
X0000935867Y0000636784D01*
X0000971536Y0000636784D01*
X0000979335Y0000622950D01*
X0000996436Y0000614063D01*
X0001014942Y0000608683D01*
X0001034141Y0000607017D01*
X0001053297Y0000609129D01*
X0001071672Y0000614937D01*
X0001086664Y0000622950D01*
X0001094463Y0000636784D01*
X0001032999Y0000698248D01*
X0000971536Y0000636784D01*
X0000935867Y0000636784D01*
X0000935867Y0000693570D01*
X0000936810Y0000685021D01*
X0000942618Y0000666646D01*
X0000950631Y0000651655D01*
X0000964465Y0000643855D01*
X0001025928Y0000705319D01*
X0001040071Y0000705319D01*
X0001101534Y0000643855D01*
X0001115368Y0000651655D01*
X0001124255Y0000668755D01*
X0001129635Y0000687261D01*
X0001130376Y0000695803D01*
X0001133580Y0000679698D01*
X0001140201Y0000663713D01*
X0001149813Y0000649327D01*
X0001162048Y0000637093D01*
X0001176434Y0000627481D01*
X0001192418Y0000620859D01*
X0001209388Y0000617484D01*
X0001226690Y0000617484D01*
X0001240051Y0000620142D01*
X0001327606Y0000620142D01*
X0001327606Y0000601677D01*
X0001331208Y0000583566D01*
X0001338274Y0000566507D01*
X0001348533Y0000551153D01*
X0001361590Y0000538096D01*
X0001376943Y0000527838D01*
X0001394003Y0000520771D01*
X0001412113Y0000517169D01*
X0001430579Y0000517169D01*
X0001448689Y0000520771D01*
X0001465749Y0000527838D01*
X0001481102Y0000538096D01*
X0001494159Y0000551153D01*
X0001504417Y0000566507D01*
X0001511484Y0000583566D01*
X0001515086Y0000601677D01*
X0001515086Y0000620142D01*
X0001511484Y0000638252D01*
X0001504417Y0000655312D01*
X0001494159Y0000670665D01*
X0001481102Y0000683722D01*
X0001465749Y0000693981D01*
X0001448689Y0000701047D01*
X0001430579Y0000704649D01*
X0001412113Y0000704649D01*
X0001394003Y0000701047D01*
X0001376943Y0000693981D01*
X0001361590Y0000683722D01*
X0001348533Y0000670665D01*
X0001338274Y0000655312D01*
X0001331208Y0000638252D01*
X0001327606Y0000620142D01*
X0001240051Y0000620142D01*
X0001243659Y0000620859D01*
X0001259644Y0000627481D01*
X0001274030Y0000637093D01*
X0001286264Y0000649327D01*
X0001295877Y0000663713D01*
X0001302498Y0000679698D01*
X0001305874Y0000696668D01*
X0001305874Y0000713970D01*
X0001302498Y0000730939D01*
X0001295877Y0000746924D01*
X0001286264Y0000761310D01*
X0001274030Y0000773544D01*
X0001259644Y0000783157D01*
X0001243659Y0000789778D01*
X0001226690Y0000793153D01*
X0001209388Y0000793153D01*
X0001192418Y0000789778D01*
X0001176434Y0000783157D01*
X0001162048Y0000773544D01*
X0001149813Y0000761310D01*
X0001140201Y0000746924D01*
X0001133580Y0000730939D01*
X0001130377Y0000714839D01*
X0001129189Y0000725616D01*
X0001123381Y0000743992D01*
X0001115368Y0000758983D01*
X0001101534Y0000766782D01*
X0001040071Y0000705319D01*
X0001025928Y0000705319D01*
X0000964465Y0000766782D01*
X0000950631Y0000758983D01*
X0000941744Y0000741882D01*
X0000936364Y0000723377D01*
X0000935867Y0000717651D01*
X0000935867Y0000773853D01*
X0000971536Y0000773853D01*
X0001032999Y0000712390D01*
X0001094463Y0000773853D01*
X0001086664Y0000787687D01*
X0001069563Y0000796574D01*
X0001051057Y0000801954D01*
X0001031858Y0000803620D01*
X0001012702Y0000801508D01*
X0000994326Y0000795700D01*
X0000979335Y0000787687D01*
X0000971536Y0000773853D01*
X0000935867Y0000773853D01*
X0000935867Y0000778153D01*
X0000935578Y0000781094D01*
X0000934720Y0000783921D01*
X0000933327Y0000786527D01*
X0000931453Y0000788811D01*
X0000929169Y0000790686D01*
X0000926563Y0000792079D01*
X0000923735Y0000792936D01*
X0000920795Y0000793226D01*
X0000867755Y0000793226D01*
X0000867593Y0000794866D01*
X0000866454Y0000798621D01*
X0000864604Y0000802082D01*
X0000862115Y0000805115D01*
X0000861355Y0000805739D01*
X0000782007Y0000885086D01*
X0000782007Y0000967411D01*
X0000920795Y0000967411D01*
X0000923735Y0000967701D01*
X0000926563Y0000968559D01*
X0000929169Y0000969952D01*
X0000931453Y0000971826D01*
X0000933327Y0000974110D01*
X0000934720Y0000976716D01*
X0000935578Y0000979543D01*
X0000935867Y0000982484D01*
X0000935867Y0001019553D01*
X0000941345Y0001006328D01*
G37*
D25*
X0002746689Y0000473700D02*
X0002786767Y0000433622D01*
X0002779696Y0000426551D01*
X0002739618Y0000466629D01*
X0002720340Y0000452448D01*
X0002706155Y0000426308D01*
X0002697342Y0000397902D01*
X0002694240Y0000368323D01*
X0002696969Y0000338707D01*
X0002705423Y0000310192D01*
X0002719277Y0000283875D01*
X0002720340Y0000282284D01*
X0002739618Y0000268103D01*
X0002779696Y0000308180D01*
X0002786767Y0000301109D01*
X0002746689Y0000261032D01*
X0002753458Y0000251830D01*
X0002644344Y0000251830D01*
X0002643366Y0000251927D01*
X0002642387Y0000251830D01*
X0002642387Y0000251830D01*
X0002639850Y0000251581D01*
X0002639460Y0000251542D01*
X0002637201Y0000250857D01*
X0002635705Y0000250403D01*
X0002632244Y0000248553D01*
X0002629211Y0000246064D01*
X0002628587Y0000245304D01*
X0002585747Y0000202463D01*
X0002584987Y0000201839D01*
X0002583088Y0000199526D01*
X0002577188Y0000205427D01*
X0002569162Y0000210789D01*
X0002560245Y0000214483D01*
X0002550778Y0000216366D01*
X0002541126Y0000216366D01*
X0002531660Y0000214483D01*
X0002522742Y0000210789D01*
X0002514717Y0000205427D01*
X0002507891Y0000198602D01*
X0002502529Y0000190576D01*
X0002498835Y0000181659D01*
X0002496952Y0000172192D01*
X0002496952Y0000162540D01*
X0002498835Y0000153073D01*
X0002502529Y0000144156D01*
X0002507891Y0000136130D01*
X0002514717Y0000129305D01*
X0002522742Y0000123943D01*
X0002530122Y0000120886D01*
X0002461782Y0000120886D01*
X0002469162Y0000123943D01*
X0002477188Y0000129305D01*
X0002484013Y0000136130D01*
X0002489375Y0000144156D01*
X0002493069Y0000153073D01*
X0002494952Y0000162540D01*
X0002494952Y0000172192D01*
X0002493069Y0000181659D01*
X0002489375Y0000190576D01*
X0002484013Y0000198602D01*
X0002477188Y0000205427D01*
X0002469162Y0000210789D01*
X0002460245Y0000214483D01*
X0002450778Y0000216366D01*
X0002441126Y0000216366D01*
X0002431660Y0000214483D01*
X0002422742Y0000210789D01*
X0002414717Y0000205427D01*
X0002409300Y0000200010D01*
X0002360987Y0000248323D01*
X0002360363Y0000249083D01*
X0002357329Y0000251573D01*
X0002353869Y0000253423D01*
X0002350113Y0000254562D01*
X0002347187Y0000254850D01*
X0002347186Y0000254850D01*
X0002346208Y0000254946D01*
X0002345230Y0000254850D01*
X0002159826Y0000254850D01*
X0002043208Y0000371468D01*
X0002046126Y0000372048D01*
X0002054315Y0000375440D01*
X0002061685Y0000380365D01*
X0002067953Y0000386633D01*
X0002072878Y0000394003D01*
X0002074624Y0000398217D01*
X0002074737Y0000397645D01*
X0002079305Y0000386618D01*
X0002085936Y0000376694D01*
X0002094375Y0000368255D01*
X0002104299Y0000361624D01*
X0002115326Y0000357057D01*
X0002127032Y0000354728D01*
X0002138967Y0000354728D01*
X0002150673Y0000357057D01*
X0002161700Y0000361624D01*
X0002171624Y0000368255D01*
X0002180063Y0000376694D01*
X0002183000Y0000381089D01*
X0002185936Y0000376694D01*
X0002194375Y0000368255D01*
X0002204299Y0000361624D01*
X0002215326Y0000357057D01*
X0002227032Y0000354728D01*
X0002238967Y0000354728D01*
X0002250673Y0000357057D01*
X0002261700Y0000361624D01*
X0002271624Y0000368255D01*
X0002280063Y0000376694D01*
X0002282999Y0000381089D01*
X0002285936Y0000376694D01*
X0002294375Y0000368255D01*
X0002304299Y0000361624D01*
X0002315326Y0000357057D01*
X0002327032Y0000354728D01*
X0002338967Y0000354728D01*
X0002350673Y0000357057D01*
X0002361700Y0000361624D01*
X0002371624Y0000368255D01*
X0002380063Y0000376694D01*
X0002383000Y0000381089D01*
X0002385936Y0000376694D01*
X0002394375Y0000368255D01*
X0002404299Y0000361624D01*
X0002415326Y0000357057D01*
X0002427032Y0000354728D01*
X0002438967Y0000354728D01*
X0002450673Y0000357057D01*
X0002461700Y0000361624D01*
X0002471624Y0000368255D01*
X0002480063Y0000376694D01*
X0002480471Y0000377304D01*
X0002502056Y0000377304D01*
X0002504693Y0000367852D01*
X0002514497Y0000363242D01*
X0002525013Y0000360633D01*
X0002535835Y0000360125D01*
X0002546548Y0000361739D01*
X0002556741Y0000365412D01*
X0002561306Y0000367852D01*
X0002563943Y0000377304D01*
X0002533000Y0000408248D01*
X0002502056Y0000377304D01*
X0002480471Y0000377304D01*
X0002486694Y0000386618D01*
X0002486720Y0000386681D01*
X0002494985Y0000384375D01*
X0002525928Y0000415319D01*
X0002540071Y0000415319D01*
X0002571014Y0000384375D01*
X0002579279Y0000386681D01*
X0002579305Y0000386618D01*
X0002585936Y0000376694D01*
X0002594375Y0000368255D01*
X0002604299Y0000361624D01*
X0002615326Y0000357057D01*
X0002627032Y0000354728D01*
X0002638967Y0000354728D01*
X0002650673Y0000357057D01*
X0002661700Y0000361624D01*
X0002671624Y0000368255D01*
X0002680063Y0000376694D01*
X0002686694Y0000386618D01*
X0002691262Y0000397645D01*
X0002693590Y0000409351D01*
X0002693590Y0000421286D01*
X0002691262Y0000432992D01*
X0002686694Y0000444019D01*
X0002680063Y0000453943D01*
X0002671624Y0000462382D01*
X0002661700Y0000469013D01*
X0002650673Y0000473581D01*
X0002638967Y0000475909D01*
X0002627032Y0000475909D01*
X0002615326Y0000473581D01*
X0002604299Y0000469013D01*
X0002594375Y0000462382D01*
X0002585936Y0000453943D01*
X0002579305Y0000444019D01*
X0002579279Y0000443956D01*
X0002571014Y0000446262D01*
X0002540071Y0000415319D01*
X0002525928Y0000415319D01*
X0002525372Y0000415875D01*
X0002532443Y0000422946D01*
X0002533000Y0000422390D01*
X0002563943Y0000453333D01*
X0002561306Y0000462785D01*
X0002551502Y0000467396D01*
X0002549671Y0000467850D01*
X0002571176Y0000489354D01*
X0002758204Y0000489354D01*
X0002746689Y0000473700D01*
D26*
G36*
X0002746689Y0000473700D02*
G01*
X0002786767Y0000433622D01*
X0002779696Y0000426551D01*
X0002739618Y0000466629D01*
X0002720340Y0000452448D01*
X0002706155Y0000426308D01*
X0002697342Y0000397902D01*
X0002694240Y0000368323D01*
X0002696969Y0000338707D01*
X0002705423Y0000310192D01*
X0002719277Y0000283875D01*
X0002720340Y0000282284D01*
X0002739618Y0000268103D01*
X0002779696Y0000308180D01*
X0002786767Y0000301109D01*
X0002746689Y0000261032D01*
X0002753458Y0000251830D01*
X0002644344Y0000251830D01*
X0002643366Y0000251927D01*
X0002642387Y0000251830D01*
X0002642387Y0000251830D01*
X0002639850Y0000251581D01*
X0002639460Y0000251542D01*
X0002637201Y0000250857D01*
X0002635705Y0000250403D01*
X0002632244Y0000248553D01*
X0002629211Y0000246064D01*
X0002628587Y0000245304D01*
X0002585747Y0000202463D01*
X0002584987Y0000201839D01*
X0002583088Y0000199526D01*
X0002577188Y0000205427D01*
X0002569162Y0000210789D01*
X0002560245Y0000214483D01*
X0002550778Y0000216366D01*
X0002541126Y0000216366D01*
X0002531660Y0000214483D01*
X0002522742Y0000210789D01*
X0002514717Y0000205427D01*
X0002507891Y0000198602D01*
X0002502529Y0000190576D01*
X0002498835Y0000181659D01*
X0002496952Y0000172192D01*
X0002496952Y0000162540D01*
X0002498835Y0000153073D01*
X0002502529Y0000144156D01*
X0002507891Y0000136130D01*
X0002514717Y0000129305D01*
X0002522742Y0000123943D01*
X0002530122Y0000120886D01*
X0002461782Y0000120886D01*
X0002469162Y0000123943D01*
X0002477188Y0000129305D01*
X0002484013Y0000136130D01*
X0002489375Y0000144156D01*
X0002493069Y0000153073D01*
X0002494952Y0000162540D01*
X0002494952Y0000172192D01*
X0002493069Y0000181659D01*
X0002489375Y0000190576D01*
X0002484013Y0000198602D01*
X0002477188Y0000205427D01*
X0002469162Y0000210789D01*
X0002460245Y0000214483D01*
X0002450778Y0000216366D01*
X0002441126Y0000216366D01*
X0002431660Y0000214483D01*
X0002422742Y0000210789D01*
X0002414717Y0000205427D01*
X0002409300Y0000200010D01*
X0002360987Y0000248323D01*
X0002360363Y0000249083D01*
X0002357329Y0000251573D01*
X0002353869Y0000253423D01*
X0002350113Y0000254562D01*
X0002347187Y0000254850D01*
X0002347186Y0000254850D01*
X0002346208Y0000254946D01*
X0002345230Y0000254850D01*
X0002159826Y0000254850D01*
X0002043208Y0000371468D01*
X0002046126Y0000372048D01*
X0002054315Y0000375440D01*
X0002061685Y0000380365D01*
X0002067953Y0000386633D01*
X0002072878Y0000394003D01*
X0002074624Y0000398217D01*
X0002074737Y0000397645D01*
X0002079305Y0000386618D01*
X0002085936Y0000376694D01*
X0002094375Y0000368255D01*
X0002104299Y0000361624D01*
X0002115326Y0000357057D01*
X0002127032Y0000354728D01*
X0002138967Y0000354728D01*
X0002150673Y0000357057D01*
X0002161700Y0000361624D01*
X0002171624Y0000368255D01*
X0002180063Y0000376694D01*
X0002183000Y0000381089D01*
X0002185936Y0000376694D01*
X0002194375Y0000368255D01*
X0002204299Y0000361624D01*
X0002215326Y0000357057D01*
X0002227032Y0000354728D01*
X0002238967Y0000354728D01*
X0002250673Y0000357057D01*
X0002261700Y0000361624D01*
X0002271624Y0000368255D01*
X0002280063Y0000376694D01*
X0002282999Y0000381089D01*
X0002285936Y0000376694D01*
X0002294375Y0000368255D01*
X0002304299Y0000361624D01*
X0002315326Y0000357057D01*
X0002327032Y0000354728D01*
X0002338967Y0000354728D01*
X0002350673Y0000357057D01*
X0002361700Y0000361624D01*
X0002371624Y0000368255D01*
X0002380063Y0000376694D01*
X0002383000Y0000381089D01*
X0002385936Y0000376694D01*
X0002394375Y0000368255D01*
X0002404299Y0000361624D01*
X0002415326Y0000357057D01*
X0002427032Y0000354728D01*
X0002438967Y0000354728D01*
X0002450673Y0000357057D01*
X0002461700Y0000361624D01*
X0002471624Y0000368255D01*
X0002480063Y0000376694D01*
X0002480471Y0000377304D01*
X0002502056Y0000377304D01*
X0002504693Y0000367852D01*
X0002514497Y0000363242D01*
X0002525013Y0000360633D01*
X0002535835Y0000360125D01*
X0002546548Y0000361739D01*
X0002556741Y0000365412D01*
X0002561306Y0000367852D01*
X0002563943Y0000377304D01*
X0002533000Y0000408248D01*
X0002502056Y0000377304D01*
X0002480471Y0000377304D01*
X0002486694Y0000386618D01*
X0002486720Y0000386681D01*
X0002494985Y0000384375D01*
X0002525928Y0000415319D01*
X0002540071Y0000415319D01*
X0002571014Y0000384375D01*
X0002579279Y0000386681D01*
X0002579305Y0000386618D01*
X0002585936Y0000376694D01*
X0002594375Y0000368255D01*
X0002604299Y0000361624D01*
X0002615326Y0000357057D01*
X0002627032Y0000354728D01*
X0002638967Y0000354728D01*
X0002650673Y0000357057D01*
X0002661700Y0000361624D01*
X0002671624Y0000368255D01*
X0002680063Y0000376694D01*
X0002686694Y0000386618D01*
X0002691262Y0000397645D01*
X0002693590Y0000409351D01*
X0002693590Y0000421286D01*
X0002691262Y0000432992D01*
X0002686694Y0000444019D01*
X0002680063Y0000453943D01*
X0002671624Y0000462382D01*
X0002661700Y0000469013D01*
X0002650673Y0000473581D01*
X0002638967Y0000475909D01*
X0002627032Y0000475909D01*
X0002615326Y0000473581D01*
X0002604299Y0000469013D01*
X0002594375Y0000462382D01*
X0002585936Y0000453943D01*
X0002579305Y0000444019D01*
X0002579279Y0000443956D01*
X0002571014Y0000446262D01*
X0002540071Y0000415319D01*
X0002525928Y0000415319D01*
X0002525372Y0000415875D01*
X0002532443Y0000422946D01*
X0002533000Y0000422390D01*
X0002563943Y0000453333D01*
X0002561306Y0000462785D01*
X0002551502Y0000467396D01*
X0002549671Y0000467850D01*
X0002571176Y0000489354D01*
X0002758204Y0000489354D01*
X0002746689Y0000473700D01*
G37*
D25*
X0001940627Y0000415875D02*
X0001940071Y0000415319D01*
X0001971014Y0000384375D01*
X0001973313Y0000385017D01*
X0002124236Y0000234094D01*
X0002080873Y0000234094D01*
X0001951459Y0000363509D01*
X0001956741Y0000365412D01*
X0001961306Y0000367852D01*
X0001963943Y0000377304D01*
X0001933000Y0000408248D01*
X0001932443Y0000407691D01*
X0001925372Y0000414762D01*
X0001925928Y0000415319D01*
X0001925372Y0000415875D01*
X0001932443Y0000422946D01*
X0001933000Y0000422390D01*
X0001933556Y0000422946D01*
X0001940627Y0000415875D01*
D26*
G36*
X0001940627Y0000415875D02*
G01*
X0001940071Y0000415319D01*
X0001971014Y0000384375D01*
X0001973313Y0000385017D01*
X0002124236Y0000234094D01*
X0002080873Y0000234094D01*
X0001951459Y0000363509D01*
X0001956741Y0000365412D01*
X0001961306Y0000367852D01*
X0001963943Y0000377304D01*
X0001933000Y0000408248D01*
X0001932443Y0000407691D01*
X0001925372Y0000414762D01*
X0001925928Y0000415319D01*
X0001925372Y0000415875D01*
X0001932443Y0000422946D01*
X0001933000Y0000422390D01*
X0001933556Y0000422946D01*
X0001940627Y0000415875D01*
G37*
D25*
X0001525440Y0001360882D02*
X0001525440Y0001118292D01*
X0001516945Y0001122372D01*
X0001505415Y0001125333D01*
X0001493529Y0001125988D01*
X0001481743Y0001124311D01*
X0001470511Y0001120367D01*
X0001464622Y0001117219D01*
X0001461327Y0001107212D01*
X0001496149Y0001072390D01*
X0001496706Y0001072946D01*
X0001503777Y0001065875D01*
X0001503220Y0001065319D01*
X0001503777Y0001064762D01*
X0001496706Y0001057691D01*
X0001496149Y0001058248D01*
X0001461327Y0001023426D01*
X0001464622Y0001013419D01*
X0001475353Y0001008265D01*
X0001486883Y0001005304D01*
X0001498769Y0001004650D01*
X0001510555Y0001006327D01*
X0001521787Y0001010271D01*
X0001525440Y0001012223D01*
X0001525440Y0000992868D01*
X0001525344Y0000991890D01*
X0001525729Y0000987984D01*
X0001526868Y0000984229D01*
X0001526868Y0000984229D01*
X0001528718Y0000980768D01*
X0001531207Y0000977735D01*
X0001531967Y0000977111D01*
X0001820922Y0000688156D01*
X0001812205Y0000693981D01*
X0001795146Y0000701047D01*
X0001777035Y0000704649D01*
X0001758570Y0000704649D01*
X0001740460Y0000701047D01*
X0001723400Y0000693981D01*
X0001708047Y0000683722D01*
X0001694990Y0000670665D01*
X0001684731Y0000655312D01*
X0001677665Y0000638252D01*
X0001674062Y0000620142D01*
X0001674062Y0000601677D01*
X0001677665Y0000583566D01*
X0001681175Y0000575091D01*
X0001341322Y0000914944D01*
X0001341322Y0001062698D01*
X0001435480Y0001062698D01*
X0001437157Y0001050913D01*
X0001441101Y0001039681D01*
X0001444249Y0001033791D01*
X0001454256Y0001030497D01*
X0001489078Y0001065319D01*
X0001454256Y0001100140D01*
X0001444249Y0001096846D01*
X0001439096Y0001086115D01*
X0001436135Y0001074585D01*
X0001435480Y0001062698D01*
X0001341322Y0001062698D01*
X0001341322Y0001291945D01*
X0001348533Y0001281153D01*
X0001361590Y0001268096D01*
X0001376943Y0001257838D01*
X0001394003Y0001250771D01*
X0001412113Y0001247169D01*
X0001430579Y0001247169D01*
X0001448689Y0001250771D01*
X0001465749Y0001257838D01*
X0001481102Y0001268096D01*
X0001494159Y0001281153D01*
X0001504417Y0001296507D01*
X0001511484Y0001313566D01*
X0001515086Y0001331677D01*
X0001515086Y0001350142D01*
X0001511484Y0001368252D01*
X0001506826Y0001379496D01*
X0001525440Y0001360882D01*
D26*
G36*
X0001525440Y0001360882D02*
G01*
X0001525440Y0001118292D01*
X0001516945Y0001122372D01*
X0001505415Y0001125333D01*
X0001493529Y0001125988D01*
X0001481743Y0001124311D01*
X0001470511Y0001120367D01*
X0001464622Y0001117219D01*
X0001461327Y0001107212D01*
X0001496149Y0001072390D01*
X0001496706Y0001072946D01*
X0001503777Y0001065875D01*
X0001503220Y0001065319D01*
X0001503777Y0001064762D01*
X0001496706Y0001057691D01*
X0001496149Y0001058248D01*
X0001461327Y0001023426D01*
X0001464622Y0001013419D01*
X0001475353Y0001008265D01*
X0001486883Y0001005304D01*
X0001498769Y0001004650D01*
X0001510555Y0001006327D01*
X0001521787Y0001010271D01*
X0001525440Y0001012223D01*
X0001525440Y0000992868D01*
X0001525344Y0000991890D01*
X0001525729Y0000987984D01*
X0001526868Y0000984229D01*
X0001526868Y0000984229D01*
X0001528718Y0000980768D01*
X0001531207Y0000977735D01*
X0001531967Y0000977111D01*
X0001820922Y0000688156D01*
X0001812205Y0000693981D01*
X0001795146Y0000701047D01*
X0001777035Y0000704649D01*
X0001758570Y0000704649D01*
X0001740460Y0000701047D01*
X0001723400Y0000693981D01*
X0001708047Y0000683722D01*
X0001694990Y0000670665D01*
X0001684731Y0000655312D01*
X0001677665Y0000638252D01*
X0001674062Y0000620142D01*
X0001674062Y0000601677D01*
X0001677665Y0000583566D01*
X0001681175Y0000575091D01*
X0001341322Y0000914944D01*
X0001341322Y0001062698D01*
X0001435480Y0001062698D01*
X0001437157Y0001050913D01*
X0001441101Y0001039681D01*
X0001444249Y0001033791D01*
X0001454256Y0001030497D01*
X0001489078Y0001065319D01*
X0001454256Y0001100140D01*
X0001444249Y0001096846D01*
X0001439096Y0001086115D01*
X0001436135Y0001074585D01*
X0001435480Y0001062698D01*
X0001341322Y0001062698D01*
X0001341322Y0001291945D01*
X0001348533Y0001281153D01*
X0001361590Y0001268096D01*
X0001376943Y0001257838D01*
X0001394003Y0001250771D01*
X0001412113Y0001247169D01*
X0001430579Y0001247169D01*
X0001448689Y0001250771D01*
X0001465749Y0001257838D01*
X0001481102Y0001268096D01*
X0001494159Y0001281153D01*
X0001504417Y0001296507D01*
X0001511484Y0001313566D01*
X0001515086Y0001331677D01*
X0001515086Y0001350142D01*
X0001511484Y0001368252D01*
X0001506826Y0001379496D01*
X0001525440Y0001360882D01*
G37*
D25*
X0002746689Y0001573700D02*
X0002786767Y0001533622D01*
X0002779696Y0001526551D01*
X0002739618Y0001566629D01*
X0002720340Y0001552448D01*
X0002706155Y0001526308D01*
X0002697342Y0001497902D01*
X0002694240Y0001468323D01*
X0002696969Y0001438707D01*
X0002705423Y0001410192D01*
X0002719277Y0001383875D01*
X0002720340Y0001382284D01*
X0002739618Y0001368103D01*
X0002779696Y0001408180D01*
X0002786767Y0001401109D01*
X0002746689Y0001361032D01*
X0002758511Y0001344960D01*
X0002477499Y0001344960D01*
X0002444017Y0001378442D01*
X0002451700Y0001381624D01*
X0002461624Y0001388255D01*
X0002470063Y0001396694D01*
X0002470471Y0001397304D01*
X0002492056Y0001397304D01*
X0002494693Y0001387852D01*
X0002504497Y0001383242D01*
X0002515013Y0001380633D01*
X0002525835Y0001380125D01*
X0002536548Y0001381739D01*
X0002546741Y0001385412D01*
X0002551306Y0001387852D01*
X0002553943Y0001397304D01*
X0002522999Y0001428248D01*
X0002492056Y0001397304D01*
X0002470471Y0001397304D01*
X0002476694Y0001406618D01*
X0002476720Y0001406681D01*
X0002484985Y0001404375D01*
X0002515928Y0001435319D01*
X0002530071Y0001435319D01*
X0002561014Y0001404375D01*
X0002569279Y0001406681D01*
X0002569305Y0001406618D01*
X0002575936Y0001396694D01*
X0002584375Y0001388255D01*
X0002594299Y0001381624D01*
X0002605326Y0001377057D01*
X0002617032Y0001374728D01*
X0002628967Y0001374728D01*
X0002640673Y0001377057D01*
X0002651700Y0001381624D01*
X0002661624Y0001388255D01*
X0002670063Y0001396694D01*
X0002676694Y0001406618D01*
X0002681262Y0001417645D01*
X0002683590Y0001429351D01*
X0002683590Y0001441286D01*
X0002681262Y0001452992D01*
X0002676694Y0001464019D01*
X0002670063Y0001473943D01*
X0002661624Y0001482382D01*
X0002651700Y0001489013D01*
X0002640673Y0001493581D01*
X0002628967Y0001495909D01*
X0002617032Y0001495909D01*
X0002605326Y0001493581D01*
X0002594299Y0001489013D01*
X0002584375Y0001482382D01*
X0002575936Y0001473943D01*
X0002569305Y0001464019D01*
X0002569279Y0001463956D01*
X0002561014Y0001466262D01*
X0002530071Y0001435319D01*
X0002515928Y0001435319D01*
X0002515372Y0001435875D01*
X0002522443Y0001442946D01*
X0002522999Y0001442390D01*
X0002553943Y0001473333D01*
X0002551306Y0001482785D01*
X0002541502Y0001487396D01*
X0002539671Y0001487850D01*
X0002640636Y0001588815D01*
X0002757808Y0001588815D01*
X0002746689Y0001573700D01*
D26*
G36*
X0002746689Y0001573700D02*
G01*
X0002786767Y0001533622D01*
X0002779696Y0001526551D01*
X0002739618Y0001566629D01*
X0002720340Y0001552448D01*
X0002706155Y0001526308D01*
X0002697342Y0001497902D01*
X0002694240Y0001468323D01*
X0002696969Y0001438707D01*
X0002705423Y0001410192D01*
X0002719277Y0001383875D01*
X0002720340Y0001382284D01*
X0002739618Y0001368103D01*
X0002779696Y0001408180D01*
X0002786767Y0001401109D01*
X0002746689Y0001361032D01*
X0002758511Y0001344960D01*
X0002477499Y0001344960D01*
X0002444017Y0001378442D01*
X0002451700Y0001381624D01*
X0002461624Y0001388255D01*
X0002470063Y0001396694D01*
X0002470471Y0001397304D01*
X0002492056Y0001397304D01*
X0002494693Y0001387852D01*
X0002504497Y0001383242D01*
X0002515013Y0001380633D01*
X0002525835Y0001380125D01*
X0002536548Y0001381739D01*
X0002546741Y0001385412D01*
X0002551306Y0001387852D01*
X0002553943Y0001397304D01*
X0002522999Y0001428248D01*
X0002492056Y0001397304D01*
X0002470471Y0001397304D01*
X0002476694Y0001406618D01*
X0002476720Y0001406681D01*
X0002484985Y0001404375D01*
X0002515928Y0001435319D01*
X0002530071Y0001435319D01*
X0002561014Y0001404375D01*
X0002569279Y0001406681D01*
X0002569305Y0001406618D01*
X0002575936Y0001396694D01*
X0002584375Y0001388255D01*
X0002594299Y0001381624D01*
X0002605326Y0001377057D01*
X0002617032Y0001374728D01*
X0002628967Y0001374728D01*
X0002640673Y0001377057D01*
X0002651700Y0001381624D01*
X0002661624Y0001388255D01*
X0002670063Y0001396694D01*
X0002676694Y0001406618D01*
X0002681262Y0001417645D01*
X0002683590Y0001429351D01*
X0002683590Y0001441286D01*
X0002681262Y0001452992D01*
X0002676694Y0001464019D01*
X0002670063Y0001473943D01*
X0002661624Y0001482382D01*
X0002651700Y0001489013D01*
X0002640673Y0001493581D01*
X0002628967Y0001495909D01*
X0002617032Y0001495909D01*
X0002605326Y0001493581D01*
X0002594299Y0001489013D01*
X0002584375Y0001482382D01*
X0002575936Y0001473943D01*
X0002569305Y0001464019D01*
X0002569279Y0001463956D01*
X0002561014Y0001466262D01*
X0002530071Y0001435319D01*
X0002515928Y0001435319D01*
X0002515372Y0001435875D01*
X0002522443Y0001442946D01*
X0002522999Y0001442390D01*
X0002553943Y0001473333D01*
X0002551306Y0001482785D01*
X0002541502Y0001487396D01*
X0002539671Y0001487850D01*
X0002640636Y0001588815D01*
X0002757808Y0001588815D01*
X0002746689Y0001573700D01*
G37*
D25*
X0001930627Y0001435875D02*
X0001930071Y0001435319D01*
X0001930627Y0001434762D01*
X0001923556Y0001427691D01*
X0001923000Y0001428248D01*
X0001922443Y0001427691D01*
X0001915372Y0001434762D01*
X0001915928Y0001435319D01*
X0001915372Y0001435875D01*
X0001922443Y0001442946D01*
X0001923000Y0001442390D01*
X0001923556Y0001442946D01*
X0001930627Y0001435875D01*
D26*
G36*
X0001930627Y0001435875D02*
G01*
X0001930071Y0001435319D01*
X0001930627Y0001434762D01*
X0001923556Y0001427691D01*
X0001923000Y0001428248D01*
X0001922443Y0001427691D01*
X0001915372Y0001434762D01*
X0001915928Y0001435319D01*
X0001915372Y0001435875D01*
X0001922443Y0001442946D01*
X0001923000Y0001442390D01*
X0001923556Y0001442946D01*
X0001930627Y0001435875D01*
G37*
G04 next file*
G04 #@! TF.GenerationSoftware,KiCad,Pcbnew,5.1.9-73d0e3b20d~88~ubuntu18.04.1*
G04 #@! TF.CreationDate,2021-02-13T22:07:47-05:00*
G04 #@! TF.ProjectId,connector,636f6e6e-6563-4746-9f72-2e6b69636164,v1.0.0*
G04 #@! TF.SameCoordinates,Original*
G04 #@! TF.FileFunction,Copper,L2,Bot*
G04 #@! TF.FilePolarity,Positive*
G04 Gerber Fmt 4.6, Leading zero omitted, Abs format (unit mm)*
G04 Created by KiCad (PCBNEW 5.1.9-73d0e3b20d~88~ubuntu18.04.1) date 2021-02-13 22:07:47*
G01*
G04 APERTURE LIST*
G04 #@! TA.AperFunction,ComponentPad*
G04 #@! TD*
G04 #@! TA.AperFunction,ComponentPad*
G04 #@! TD*
G04 #@! TA.AperFunction,ComponentPad*
G04 #@! TD*
G04 #@! TA.AperFunction,ComponentPad*
G04 #@! TD*
G04 #@! TA.AperFunction,ComponentPad*
G04 #@! TD*
G04 #@! TA.AperFunction,Conductor*
G04 #@! TD*
G04 APERTURE END LIST*
D37*
X0000247173Y0004537401D02*
X0003947960Y0000748031D03*
D38*
X0004012921Y0000748031D03*
X0003993894Y0000702097D03*
X0003947960Y0000683070D03*
X0003902026Y0000702097D03*
X0003883000Y0000748031D03*
X0003902026Y0000793965D03*
X0003947960Y0000812992D03*
X0003993894Y0000793965D03*
X0004466335Y0000793965D03*
X0004420401Y0000812992D03*
X0004374467Y0000793965D03*
X0004355440Y0000748031D03*
X0004374467Y0000702097D03*
X0004420401Y0000683070D03*
X0004466335Y0000702097D03*
X0004485362Y0000748031D03*
D37*
X0004420401Y0000748031D03*
X0003947960Y0000275590D03*
D38*
X0004012921Y0000275590D03*
X0003993894Y0000229656D03*
X0003947960Y0000210629D03*
X0003902026Y0000229656D03*
X0003883000Y0000275590D03*
X0003902026Y0000321524D03*
X0003947960Y0000340551D03*
X0003993894Y0000321524D03*
X0004466335Y0000321524D03*
X0004420401Y0000340551D03*
X0004374467Y0000321524D03*
X0004355440Y0000275590D03*
X0004374467Y0000229656D03*
X0004420401Y0000210629D03*
X0004466335Y0000229656D03*
X0004485362Y0000275590D03*
D37*
X0004420401Y0000275590D03*
G04 #@! TA.AperFunction,ComponentPad*
G36*
G01*
X0004002708Y0000503858D02*
X0004002708Y0000560944D01*
G75*
G02*
X0004012551Y0000570787I0000009842D01*
G01*
X0004059795Y0000570787D01*
G75*
G02*
X0004069637Y0000560944J-0000009842D01*
G01*
X0004069637Y0000503858D01*
G75*
G02*
X0004059795Y0000494015I-0000009842D01*
G01*
X0004012551Y0000494015D01*
G75*
G02*
X0004002708Y0000503858J0000009842D01*
G01*
G37*
G04 #@! TD.AperFunction*
D39*
X0004134598Y0000532401D03*
X0004233023Y0000532401D03*
X0004331448Y0000532401D03*
D40*
X0004034204Y0000984401D03*
D41*
X0004134204Y0000984401D03*
X0004234204Y0000984401D03*
X0004334204Y0000984401D03*
D42*
X0004134598Y0000984007D02*
X0004134204Y0000984401D01*
X0004134598Y0000532401D02*
X0004134598Y0000984007D01*
X0004234204Y0000533582D02*
X0004233023Y0000532401D01*
X0004234204Y0000984401D02*
X0004234204Y0000533582D01*
G04 next file*
G04 #@! TF.GenerationSoftware,KiCad,Pcbnew,5.1.9-73d0e3b20d~88~ubuntu18.04.1*
G04 #@! TF.CreationDate,2021-02-13T22:07:47-05:00*
G04 #@! TF.ProjectId,connector,636f6e6e-6563-4746-9f72-2e6b69636164,v1.0.0*
G04 #@! TF.SameCoordinates,Original*
G04 #@! TF.FileFunction,Copper,L2,Bot*
G04 #@! TF.FilePolarity,Positive*
G04 Gerber Fmt 4.6, Leading zero omitted, Abs format (unit mm)*
G04 Created by KiCad (PCBNEW 5.1.9-73d0e3b20d~88~ubuntu18.04.1) date 2021-02-13 22:07:47*
G01*
G04 APERTURE LIST*
G04 #@! TA.AperFunction,ComponentPad*
G04 #@! TD*
G04 #@! TA.AperFunction,ComponentPad*
G04 #@! TD*
G04 #@! TA.AperFunction,ComponentPad*
G04 #@! TD*
G04 #@! TA.AperFunction,ComponentPad*
G04 #@! TD*
G04 #@! TA.AperFunction,ComponentPad*
G04 #@! TD*
G04 #@! TA.AperFunction,Conductor*
G04 #@! TD*
G04 APERTURE END LIST*
D43*
X0000247173Y0005620078D02*
X0003947960Y0001830708D03*
D44*
X0004012921Y0001830708D03*
X0003993894Y0001784774D03*
X0003947960Y0001765747D03*
X0003902026Y0001784774D03*
X0003883000Y0001830708D03*
X0003902026Y0001876642D03*
X0003947960Y0001895669D03*
X0003993894Y0001876642D03*
X0004466335Y0001876642D03*
X0004420401Y0001895669D03*
X0004374467Y0001876642D03*
X0004355440Y0001830708D03*
X0004374467Y0001784774D03*
X0004420401Y0001765747D03*
X0004466335Y0001784774D03*
X0004485362Y0001830708D03*
D43*
X0004420401Y0001830708D03*
X0003947960Y0001358267D03*
D44*
X0004012921Y0001358267D03*
X0003993894Y0001312333D03*
X0003947960Y0001293307D03*
X0003902026Y0001312333D03*
X0003883000Y0001358267D03*
X0003902026Y0001404201D03*
X0003947960Y0001423228D03*
X0003993894Y0001404201D03*
X0004466335Y0001404201D03*
X0004420401Y0001423228D03*
X0004374467Y0001404201D03*
X0004355440Y0001358267D03*
X0004374467Y0001312333D03*
X0004420401Y0001293307D03*
X0004466335Y0001312333D03*
X0004485362Y0001358267D03*
D43*
X0004420401Y0001358267D03*
G04 #@! TA.AperFunction,ComponentPad*
G36*
G01*
X0004002708Y0001586535D02*
X0004002708Y0001643622D01*
G75*
G02*
X0004012551Y0001653464I0000009842D01*
G01*
X0004059795Y0001653464D01*
G75*
G02*
X0004069637Y0001643622J-0000009842D01*
G01*
X0004069637Y0001586535D01*
G75*
G02*
X0004059795Y0001576692I-0000009842D01*
G01*
X0004012551Y0001576692D01*
G75*
G02*
X0004002708Y0001586535J0000009842D01*
G01*
G37*
G04 #@! TD.AperFunction*
D45*
X0004134598Y0001615078D03*
X0004233023Y0001615078D03*
X0004331448Y0001615078D03*
D46*
X0004034204Y0002067078D03*
D47*
X0004134204Y0002067078D03*
X0004234204Y0002067078D03*
X0004334204Y0002067078D03*
D48*
X0004134598Y0002066685D02*
X0004134204Y0002067078D01*
X0004134598Y0001615078D02*
X0004134598Y0002066685D01*
X0004234204Y0001616259D02*
X0004233023Y0001615078D01*
X0004234204Y0002067078D02*
X0004234204Y0001616259D01*
M02*