%
M48
METRIC,000.000
T10C0.40
T11C0.95
T12C1.00
T13C2.20
T14C2.00
T15C3.20
T16C0.50
T17C0.75
T18C1.02
T19C1.30
T20C1.60
T21C1.85
%
T10
X098627Y015999
X098627Y004000
X099112Y017167
X099112Y014833
X099112Y005166
X099112Y002834
X100278Y017650
X100278Y014350
X100278Y005648
X100278Y002349
X101444Y017167
X101444Y014833
X101444Y005166
X101444Y002834
X101926Y015999
X101926Y004000
X110629Y015999
X110629Y004000
X111111Y017167
X111111Y014833
X111111Y005166
X111111Y002834
X112277Y017650
X112277Y014350
X112277Y005648
X112277Y002349
X113445Y017167
X113445Y014833
X113445Y005166
X113445Y002834
X113928Y015999
X113928Y004000
X004062Y029065
X008763Y002903
X009778Y047099
X010540Y050782
X017145Y017635
X027304Y042273
X033528Y008618
X034036Y019921
X035178Y037447
X041021Y024620
X043433Y019794
X043815Y018778
X044449Y021445
X044957Y049893
X049529Y053830
X053593Y041638
X054482Y015095
X054952Y018997
X068071Y006586
X074929Y045067
X076326Y005062
X077216Y037828
X078486Y030081
X083692Y025382
X086232Y029319
X087248Y052560
X087375Y025382
X087629Y036050
X087756Y020556
X098349Y043749
X098349Y031750
X098834Y044917
X098834Y042583
X098834Y032916
X098834Y030584
X100000Y045400
X100000Y042100
X100000Y033398
X100000Y030099
X101166Y044917
X101166Y042583
X101166Y032916
X101166Y030584
X101648Y043749
X101648Y031750
X110350Y043749
X110350Y031750
X110833Y044917
X110833Y042583
X110833Y032916
X110833Y030584
X111999Y045400
X111999Y042100
X111999Y033398
X111999Y030099
X113167Y044917
X113167Y042583
X113167Y032916
X113167Y030584
X113650Y043749
X113650Y031750
T11
X102518Y010523
X105018Y010523
X107520Y010523
X110019Y010523
X102240Y038273
X104739Y038273
X107241Y038273
X109741Y038273
T12
X102468Y022003
X105008Y022003
X107548Y022003
X110088Y022003
X038000Y027059
X038000Y008517
X040502Y027059
X040502Y008517
X043002Y027059
X043002Y008517
X102189Y049753
X104729Y049753
X107269Y049753
X109809Y049753
T13
X100278Y015999
X100278Y004000
X112277Y015999
X112277Y004000
X100000Y043749
X100000Y031750
X111999Y043749
X111999Y031750
T14
X036101Y034059
X036101Y015517
X044902Y034059
X044902Y015517
T15
X020218Y004249
X072288Y037269
X072288Y009329
X020218Y004249
X072288Y037269
X072288Y009329
T16
X017818Y004249
X018519Y005949
X018519Y002553
X020218Y006650
X020218Y001852
X021915Y005949
X021915Y002553
X022616Y004249
X069888Y037269
X069888Y009329
X070589Y038969
X070589Y035573
X070589Y011029
X070589Y007633
X072288Y039670
X072288Y034872
X072288Y011730
X072288Y006932
X073985Y038969
X073985Y035573
X073985Y011029
X073985Y007633
X074686Y037269
X074686Y009329
T17
X023548Y045659
X025547Y045659
X027546Y045659
X032702Y045659
X034704Y045659
X036702Y045659
T18
X025044Y052509
X027584Y052509
X030124Y052509
X032664Y052509
X034188Y004249
X035204Y052509
X036728Y004249
X037744Y052509
X039268Y004249
X040284Y052509
X041808Y004249
X042824Y052509
X044348Y004249
X045364Y052509
X046888Y004249
X047904Y052509
X048844Y049157
X048844Y036457
X049098Y023249
X049098Y010549
X049428Y004249
X051384Y049157
X051384Y036457
X051638Y023249
X051638Y010549
X051968Y052509
X051968Y004249
X053924Y049157
X053924Y036457
X054178Y023249
X054178Y010549
X054508Y052509
X056464Y049157
X056464Y036457
X056718Y023249
X056718Y010549
X057048Y052509
X057048Y004249
X059004Y049157
X059004Y036457
X059258Y023249
X059258Y010549
X059588Y052509
X059588Y004249
X061544Y049157
X061544Y036457
X061798Y023249
X061798Y010549
X062128Y052509
X062128Y004249
X064084Y049157
X064084Y036457
X064337Y023249
X064337Y010549
X064668Y052509
X064668Y004249
X066624Y049157
X066624Y036457
X066878Y023249
X066878Y010549
X067208Y052509
X067208Y004249
X069748Y052509
X069748Y004249
T19
X083946Y020302
X083946Y015222
X083946Y010142
X083946Y005062
X084200Y051671
X084200Y046591
X084200Y041511
X084200Y036431
T20
X008204Y027313
X011203Y022614
X014203Y027313
T21
X021539Y035949
X021539Y026805
X021539Y017915
X026238Y035949
X026238Y026805
X026238Y017915
X030937Y035949
X030937Y026805
X030937Y017915
M30