%
M48
METRIC,000.000
T01C0.50
%
T01
X092528Y041882
X092528Y042882
X092528Y043882
X092528Y044882
X092528Y045882
X092528Y046882
X092528Y047882
X095750Y048057
X095750Y047057
X095750Y046057
X095750Y045057
X095750Y044057
X095750Y043057
X095750Y042057
X092528Y031882
X092528Y032882
X092528Y033882
X092528Y034882
X092528Y035882
X092528Y036882
X092528Y037882
X095750Y038057
X095750Y037057
X095750Y036057
X095750Y035057
X095750Y034057
X095750Y033057
X095750Y032057
X096028Y020307
X096028Y019307
X096028Y018307
X096028Y017307
X096028Y016307
X096028Y015307
X096028Y014307
X092528Y013882
X092528Y014882
X092528Y015882
X092528Y016882
X092528Y017882
X092528Y018882
X092528Y019882
X096028Y010307
X096028Y009307
X096028Y008307
X096028Y007307
X096028Y006307
X096028Y005307
X096028Y004307
X092528Y003882
X092528Y004882
X092528Y005882
X092528Y006882
X092528Y007882
X092528Y008882
X092528Y009882
X107983Y024750
X106983Y024750
X105983Y024750
X104983Y024750
X103983Y024750
X103590Y027500
X104590Y027500
X105590Y027500
X106590Y027500
X107590Y027500
X108590Y027500
M30