G04 #@! TF.GenerationSoftware,KiCad,Pcbnew,5.1.9-73d0e3b20d~88~ubuntu18.04.1*
G04 #@! TF.CreationDate,2021-02-15T13:27:50-05:00*
G04 #@! TF.ProjectId,driver,64726976-6572-42e6-9b69-6361645f7063,v1.0.0*
G04 #@! TF.SameCoordinates,Original*
G04 #@! TF.FileFunction,Copper,L2,Bot*
G04 #@! TF.FilePolarity,Positive*
%FSLAX46Y46*%
G04 Gerber Fmt 4.6, Leading zero omitted, Abs format (unit mm)*
G04 Created by KiCad (PCBNEW 5.1.9-73d0e3b20d~88~ubuntu18.04.1) date 2021-02-15 13:27:50*
%MOMM*%
%LPD*%
G01*
G04 APERTURE LIST*
G04 #@! TA.AperFunction,ComponentPad*
%ADD10O,1.727200X1.727200*%
G04 #@! TD*
G04 #@! TA.AperFunction,ComponentPad*
%ADD11R,1.524000X1.524000*%
G04 #@! TD*
G04 #@! TA.AperFunction,ComponentPad*
%ADD12C,1.524000*%
G04 #@! TD*
G04 #@! TA.AperFunction,ComponentPad*
%ADD13C,0.800000*%
G04 #@! TD*
G04 #@! TA.AperFunction,ComponentPad*
%ADD14C,6.400000*%
G04 #@! TD*
G04 #@! TA.AperFunction,ComponentPad*
%ADD15C,2.600000*%
G04 #@! TD*
G04 #@! TA.AperFunction,ComponentPad*
%ADD16R,2.600000X2.600000*%
G04 #@! TD*
G04 #@! TA.AperFunction,ComponentPad*
%ADD17O,1.200000X1.750000*%
G04 #@! TD*
G04 #@! TA.AperFunction,ComponentPad*
%ADD18C,1.800000*%
G04 #@! TD*
G04 #@! TA.AperFunction,WasherPad*
%ADD19C,4.000000*%
G04 #@! TD*
G04 #@! TA.AperFunction,ComponentPad*
%ADD20C,3.700000*%
G04 #@! TD*
G04 #@! TA.AperFunction,ComponentPad*
%ADD21R,3.700000X3.700000*%
G04 #@! TD*
G04 #@! TA.AperFunction,ViaPad*
%ADD22C,0.800000*%
G04 #@! TD*
G04 #@! TA.AperFunction,Conductor*
%ADD23C,0.250000*%
G04 #@! TD*
G04 #@! TA.AperFunction,Conductor*
%ADD24C,0.750000*%
G04 #@! TD*
G04 #@! TA.AperFunction,Conductor*
%ADD25C,0.254000*%
G04 #@! TD*
G04 #@! TA.AperFunction,Conductor*
%ADD26C,0.100000*%
G04 #@! TD*
G04 APERTURE END LIST*
D10*
X171525000Y-125170000D03*
X168985000Y-125170000D03*
X166445000Y-125170000D03*
X163905000Y-125170000D03*
X161365000Y-125170000D03*
X135965000Y-125170000D03*
X142061000Y-76910000D03*
X139521000Y-76910000D03*
X136981000Y-76910000D03*
X131901000Y-76910000D03*
X129361000Y-76910000D03*
X126821000Y-76910000D03*
X144601000Y-76910000D03*
X147141000Y-76910000D03*
X149681000Y-76910000D03*
X134441000Y-76910000D03*
X153745000Y-76910000D03*
X156285000Y-76910000D03*
X158825000Y-76910000D03*
X161365000Y-76910000D03*
X163905000Y-76910000D03*
X166445000Y-76910000D03*
X168985000Y-76910000D03*
X171525000Y-76910000D03*
X138505000Y-125170000D03*
X141045000Y-125170000D03*
X143585000Y-125170000D03*
X146125000Y-125170000D03*
X148665000Y-125170000D03*
X151205000Y-125170000D03*
X153745000Y-125170000D03*
X158825000Y-125170000D03*
D11*
X150876000Y-106172000D03*
D12*
X153416000Y-106172000D03*
X155956000Y-106172000D03*
X158496000Y-106172000D03*
X161036000Y-106172000D03*
X163576000Y-106172000D03*
X166116000Y-106172000D03*
X168656000Y-106172000D03*
X168656000Y-118872000D03*
X166116000Y-118872000D03*
X163576000Y-118872000D03*
X161036000Y-118872000D03*
X158496000Y-118872000D03*
X155956000Y-118872000D03*
X153416000Y-118872000D03*
X150876000Y-118872000D03*
X150622000Y-92964000D03*
X153162000Y-92964000D03*
X155702000Y-92964000D03*
X158242000Y-92964000D03*
X160782000Y-92964000D03*
X163322000Y-92964000D03*
X165862000Y-92964000D03*
X168402000Y-92964000D03*
X168402000Y-80264000D03*
X165862000Y-80264000D03*
X163322000Y-80264000D03*
X160782000Y-80264000D03*
X158242000Y-80264000D03*
X155702000Y-80264000D03*
X153162000Y-80264000D03*
D11*
X150622000Y-80264000D03*
D13*
X175762056Y-90452944D03*
X174065000Y-89750000D03*
X172367944Y-90452944D03*
X171665000Y-92150000D03*
X172367944Y-93847056D03*
X174065000Y-94550000D03*
X175762056Y-93847056D03*
X176465000Y-92150000D03*
D14*
X174065000Y-92150000D03*
X121995000Y-125170000D03*
D13*
X124395000Y-125170000D03*
X123692056Y-126867056D03*
X121995000Y-127570000D03*
X120297944Y-126867056D03*
X119595000Y-125170000D03*
X120297944Y-123472944D03*
X121995000Y-122770000D03*
X123692056Y-123472944D03*
X175762056Y-118392944D03*
X174065000Y-117690000D03*
X172367944Y-118392944D03*
X171665000Y-120090000D03*
X172367944Y-121787056D03*
X174065000Y-122490000D03*
X175762056Y-121787056D03*
X176465000Y-120090000D03*
D14*
X174065000Y-120090000D03*
D15*
X185979000Y-77749400D03*
X185979000Y-82829400D03*
X185979000Y-87909400D03*
D16*
X185979000Y-92989400D03*
X185725000Y-124358000D03*
D15*
X185725000Y-119278000D03*
X185725000Y-114198000D03*
X185725000Y-109118000D03*
D17*
X134481000Y-83760400D03*
X136481000Y-83760400D03*
G04 #@! TA.AperFunction,ComponentPad*
G36*
G01*
X139081000Y-83135399D02*
X139081000Y-84385401D01*
G75*
G02*
X138831001Y-84635400I-249999J0D01*
G01*
X138130999Y-84635400D01*
G75*
G02*
X137881000Y-84385401I0J249999D01*
G01*
X137881000Y-83135399D01*
G75*
G02*
X138130999Y-82885400I249999J0D01*
G01*
X138831001Y-82885400D01*
G75*
G02*
X139081000Y-83135399I0J-249999D01*
G01*
G37*
G04 #@! TD.AperFunction*
G04 #@! TA.AperFunction,ComponentPad*
G36*
G01*
X129925000Y-83135399D02*
X129925000Y-84385401D01*
G75*
G02*
X129675001Y-84635400I-249999J0D01*
G01*
X128974999Y-84635400D01*
G75*
G02*
X128725000Y-84385401I0J249999D01*
G01*
X128725000Y-83135399D01*
G75*
G02*
X128974999Y-82885400I249999J0D01*
G01*
X129675001Y-82885400D01*
G75*
G02*
X129925000Y-83135399I0J-249999D01*
G01*
G37*
G04 #@! TD.AperFunction*
X127325000Y-83760400D03*
X125325000Y-83760400D03*
D16*
X115982000Y-102108000D03*
D15*
X109982000Y-102108000D03*
X112982000Y-106808000D03*
D18*
X139780000Y-120904000D03*
X142280000Y-120904000D03*
X144780000Y-120904000D03*
D19*
X137880000Y-113904000D03*
X146680000Y-113904000D03*
X146680000Y-95362000D03*
X137880000Y-95362000D03*
D18*
X144780000Y-102362000D03*
X142280000Y-102362000D03*
X139780000Y-102362000D03*
D20*
X128016000Y-111506000D03*
D21*
X123316000Y-111506000D03*
D20*
X132716000Y-111506000D03*
X132716000Y-102616000D03*
D21*
X123316000Y-102616000D03*
D20*
X128016000Y-102616000D03*
X128016000Y-93472000D03*
D21*
X123316000Y-93472000D03*
D20*
X132716000Y-93472000D03*
D22*
X188010800Y-100101400D03*
X180263800Y-99339400D03*
X189153800Y-104038400D03*
X185470800Y-104038400D03*
X145592800Y-110642400D03*
X145211800Y-109626400D03*
X146227800Y-107975400D03*
X142798800Y-104800400D03*
X112318800Y-78638400D03*
X111556800Y-82321400D03*
X105841800Y-100355400D03*
X110540800Y-126517400D03*
X135305800Y-120802400D03*
X118922800Y-111785400D03*
X156260800Y-114325400D03*
X178104800Y-124358400D03*
X189534800Y-108864400D03*
X189026800Y-76860400D03*
X189407800Y-93370400D03*
X178993800Y-91592400D03*
X176707800Y-84353400D03*
X155371800Y-87782400D03*
X146735800Y-79527400D03*
X151307800Y-75590400D03*
X169849800Y-122834400D03*
X136956800Y-91973400D03*
X129082800Y-87147400D03*
X135813800Y-109499400D03*
X156731000Y-110424600D03*
D23*
X144780000Y-102362000D02*
X144780000Y-103129000D01*
X144780000Y-103129000D02*
X153416000Y-111765000D01*
X153416000Y-111765000D02*
X153416000Y-118872000D01*
X144780000Y-102362000D02*
X141311700Y-98893700D01*
X141311700Y-98893700D02*
X141311700Y-86591100D01*
X141311700Y-86591100D02*
X138481000Y-83760400D01*
X146125000Y-125170000D02*
X146125000Y-123981100D01*
X146125000Y-123981100D02*
X144780000Y-122636100D01*
X144780000Y-122636100D02*
X144780000Y-120904000D01*
X161365000Y-125170000D02*
X160176100Y-125170000D01*
X134481000Y-83760400D02*
X135406300Y-83760400D01*
X135406300Y-83760400D02*
X135406300Y-106513100D01*
X135406300Y-106513100D02*
X152475000Y-123581800D01*
X152475000Y-123581800D02*
X152475000Y-125664700D01*
X152475000Y-125664700D02*
X153192700Y-126382400D01*
X153192700Y-126382400D02*
X159333200Y-126382400D01*
X159333200Y-126382400D02*
X160176100Y-125539500D01*
X160176100Y-125539500D02*
X160176100Y-125170000D01*
X163905000Y-76910000D02*
X162716100Y-76910000D01*
X158242000Y-80264000D02*
X160407100Y-78098900D01*
X160407100Y-78098900D02*
X161898800Y-78098900D01*
X161898800Y-78098900D02*
X162716100Y-77281600D01*
X162716100Y-77281600D02*
X162716100Y-76910000D01*
X161365000Y-76910000D02*
X160176100Y-76910000D01*
X153162000Y-80264000D02*
X154259700Y-81361700D01*
X154259700Y-81361700D02*
X156150500Y-81361700D01*
X156150500Y-81361700D02*
X156972000Y-80540200D01*
X156972000Y-80540200D02*
X156972000Y-79965600D01*
X156972000Y-79965600D02*
X158838700Y-78098900D01*
X158838700Y-78098900D02*
X159358800Y-78098900D01*
X159358800Y-78098900D02*
X160176100Y-77281600D01*
X160176100Y-77281600D02*
X160176100Y-76910000D01*
X158825000Y-76910000D02*
X157636100Y-76910000D01*
X150622000Y-80264000D02*
X150622000Y-78322200D01*
X150622000Y-78322200D02*
X153245600Y-75698600D01*
X153245600Y-75698600D02*
X156794200Y-75698600D01*
X156794200Y-75698600D02*
X157636100Y-76540500D01*
X157636100Y-76540500D02*
X157636100Y-76910000D01*
X144601000Y-76910000D02*
X144601000Y-78098900D01*
X150876000Y-106172000D02*
X150876000Y-105084700D01*
X150876000Y-105084700D02*
X144349400Y-98558100D01*
X144349400Y-98558100D02*
X144349400Y-78350500D01*
X144349400Y-78350500D02*
X144601000Y-78098900D01*
X147141000Y-76910000D02*
X147141000Y-78098900D01*
X153416000Y-106172000D02*
X149084200Y-101840200D01*
X149084200Y-101840200D02*
X149084200Y-80042100D01*
X149084200Y-80042100D02*
X147141000Y-78098900D01*
X149681000Y-76910000D02*
X149681000Y-78098900D01*
X158496000Y-106172000D02*
X149534600Y-97210600D01*
X149534600Y-97210600D02*
X149534600Y-78245300D01*
X149534600Y-78245300D02*
X149681000Y-78098900D01*
X142061000Y-76910000D02*
X142061000Y-97183000D01*
X142061000Y-97183000D02*
X149386800Y-104508800D01*
X149386800Y-104508800D02*
X149386800Y-106693800D01*
X149386800Y-106693800D02*
X153852300Y-111159300D01*
X153852300Y-111159300D02*
X163668700Y-111159300D01*
X163668700Y-111159300D02*
X168656000Y-106172000D01*
X153745000Y-76910000D02*
X153745000Y-78098900D01*
X153745000Y-78098900D02*
X152065700Y-79778200D01*
X152065700Y-79778200D02*
X152065700Y-98017500D01*
X152065700Y-98017500D02*
X159671200Y-105623000D01*
X159671200Y-105623000D02*
X159671200Y-107484400D01*
X159671200Y-107484400D02*
X156731000Y-110424600D01*
X125325000Y-83760400D02*
X126250300Y-83760400D01*
X126250300Y-83760400D02*
X126250300Y-83182100D01*
X126250300Y-83182100D02*
X126936400Y-82496000D01*
X126936400Y-82496000D02*
X136811600Y-82496000D01*
X136811600Y-82496000D02*
X137429400Y-83113800D01*
X137429400Y-83113800D02*
X137429400Y-89374800D01*
X137429400Y-89374800D02*
X140856700Y-92802100D01*
X140856700Y-92802100D02*
X140856700Y-100165300D01*
X140856700Y-100165300D02*
X141030000Y-100338600D01*
X141030000Y-100338600D02*
X141030000Y-104227100D01*
X141030000Y-104227100D02*
X149055000Y-112252100D01*
X149055000Y-112252100D02*
X149055000Y-118675500D01*
X149055000Y-118675500D02*
X155549500Y-125170000D01*
X155549500Y-125170000D02*
X158825000Y-125170000D01*
X139521000Y-76910000D02*
X138332100Y-76910000D01*
X123316000Y-111506000D02*
X123316000Y-109330700D01*
X123316000Y-109330700D02*
X121140600Y-107155300D01*
X121140600Y-107155300D02*
X121140600Y-86354300D01*
X121140600Y-86354300D02*
X129396000Y-78098900D01*
X129396000Y-78098900D02*
X137514800Y-78098900D01*
X137514800Y-78098900D02*
X138332100Y-77281600D01*
X138332100Y-77281600D02*
X138332100Y-76910000D01*
D24*
X185979000Y-82829400D02*
X168376600Y-82829400D01*
X168376600Y-82829400D02*
X158242000Y-92964000D01*
X185979000Y-87909400D02*
X168376600Y-87909400D01*
X168376600Y-87909400D02*
X163322000Y-92964000D01*
X185979000Y-92989400D02*
X183653700Y-92989400D01*
X183653700Y-92989400D02*
X180240500Y-96402600D01*
X180240500Y-96402600D02*
X164220600Y-96402600D01*
X164220600Y-96402600D02*
X160782000Y-92964000D01*
X185725000Y-119278000D02*
X182293300Y-115846300D01*
X182293300Y-115846300D02*
X166601700Y-115846300D01*
X166601700Y-115846300D02*
X163576000Y-118872000D01*
X185725000Y-114198000D02*
X163170000Y-114198000D01*
X163170000Y-114198000D02*
X158496000Y-118872000D01*
D23*
X163905000Y-125170000D02*
X162716100Y-125170000D01*
X142280000Y-102362000D02*
X152146000Y-112228000D01*
X152146000Y-112228000D02*
X152146000Y-119179000D01*
X152146000Y-119179000D02*
X156948100Y-123981100D01*
X156948100Y-123981100D02*
X161898800Y-123981100D01*
X161898800Y-123981100D02*
X162716100Y-124798400D01*
X162716100Y-124798400D02*
X162716100Y-125170000D01*
D25*
X193650001Y-127305200D02*
X174060704Y-127305200D01*
X174060673Y-127305197D01*
X174042681Y-127305200D01*
X174020859Y-127305200D01*
X174020822Y-127305204D01*
X126191181Y-127313179D01*
X125380502Y-127313179D01*
X125320853Y-127319054D01*
X125244322Y-127342269D01*
X125173790Y-127379969D01*
X125111969Y-127430705D01*
X125093450Y-127453270D01*
X124790000Y-127785392D01*
X124695883Y-127691275D01*
X125185548Y-127331088D01*
X125545849Y-126667118D01*
X125769694Y-125945615D01*
X125848480Y-125194305D01*
X125834948Y-125047418D01*
X134720400Y-125047418D01*
X134720400Y-125292582D01*
X134768229Y-125533036D01*
X134862050Y-125759539D01*
X134998256Y-125963386D01*
X135171614Y-126136744D01*
X135375461Y-126272950D01*
X135601964Y-126366771D01*
X135842418Y-126414600D01*
X136087582Y-126414600D01*
X136328036Y-126366771D01*
X136554539Y-126272950D01*
X136758386Y-126136744D01*
X136931744Y-125963386D01*
X137067950Y-125759539D01*
X137161771Y-125533036D01*
X137209600Y-125292582D01*
X137209600Y-125047418D01*
X137260400Y-125047418D01*
X137260400Y-125292582D01*
X137308229Y-125533036D01*
X137402050Y-125759539D01*
X137538256Y-125963386D01*
X137711614Y-126136744D01*
X137915461Y-126272950D01*
X138141964Y-126366771D01*
X138382418Y-126414600D01*
X138627582Y-126414600D01*
X138868036Y-126366771D01*
X139094539Y-126272950D01*
X139298386Y-126136744D01*
X139471744Y-125963386D01*
X139607950Y-125759539D01*
X139701771Y-125533036D01*
X139749600Y-125292582D01*
X139749600Y-125047418D01*
X139800400Y-125047418D01*
X139800400Y-125292582D01*
X139848229Y-125533036D01*
X139942050Y-125759539D01*
X140078256Y-125963386D01*
X140251614Y-126136744D01*
X140455461Y-126272950D01*
X140681964Y-126366771D01*
X140922418Y-126414600D01*
X141167582Y-126414600D01*
X141408036Y-126366771D01*
X141634539Y-126272950D01*
X141838386Y-126136744D01*
X142011744Y-125963386D01*
X142147950Y-125759539D01*
X142241771Y-125533036D01*
X142289600Y-125292582D01*
X142289600Y-125047418D01*
X142340400Y-125047418D01*
X142340400Y-125292582D01*
X142388229Y-125533036D01*
X142482050Y-125759539D01*
X142618256Y-125963386D01*
X142791614Y-126136744D01*
X142995461Y-126272950D01*
X143221964Y-126366771D01*
X143462418Y-126414600D01*
X143707582Y-126414600D01*
X143948036Y-126366771D01*
X144174539Y-126272950D01*
X144378386Y-126136744D01*
X144551744Y-125963386D01*
X144687950Y-125759539D01*
X144781771Y-125533036D01*
X144829600Y-125292582D01*
X144829600Y-125047418D01*
X144781771Y-124806964D01*
X144687950Y-124580461D01*
X144551744Y-124376614D01*
X144378386Y-124203256D01*
X144174539Y-124067050D01*
X143948036Y-123973229D01*
X143707582Y-123925400D01*
X143462418Y-123925400D01*
X143221964Y-123973229D01*
X142995461Y-124067050D01*
X142791614Y-124203256D01*
X142618256Y-124376614D01*
X142482050Y-124580461D01*
X142388229Y-124806964D01*
X142340400Y-125047418D01*
X142289600Y-125047418D01*
X142241771Y-124806964D01*
X142147950Y-124580461D01*
X142011744Y-124376614D01*
X141838386Y-124203256D01*
X141634539Y-124067050D01*
X141408036Y-123973229D01*
X141167582Y-123925400D01*
X140922418Y-123925400D01*
X140681964Y-123973229D01*
X140455461Y-124067050D01*
X140251614Y-124203256D01*
X140078256Y-124376614D01*
X139942050Y-124580461D01*
X139848229Y-124806964D01*
X139800400Y-125047418D01*
X139749600Y-125047418D01*
X139701771Y-124806964D01*
X139607950Y-124580461D01*
X139471744Y-124376614D01*
X139298386Y-124203256D01*
X139094539Y-124067050D01*
X138868036Y-123973229D01*
X138627582Y-123925400D01*
X138382418Y-123925400D01*
X138141964Y-123973229D01*
X137915461Y-124067050D01*
X137711614Y-124203256D01*
X137538256Y-124376614D01*
X137402050Y-124580461D01*
X137308229Y-124806964D01*
X137260400Y-125047418D01*
X137209600Y-125047418D01*
X137161771Y-124806964D01*
X137067950Y-124580461D01*
X136931744Y-124376614D01*
X136758386Y-124203256D01*
X136554539Y-124067050D01*
X136328036Y-123973229D01*
X136087582Y-123925400D01*
X135842418Y-123925400D01*
X135601964Y-123973229D01*
X135375461Y-124067050D01*
X135171614Y-124203256D01*
X134998256Y-124376614D01*
X134862050Y-124580461D01*
X134768229Y-124806964D01*
X134720400Y-125047418D01*
X125834948Y-125047418D01*
X125779178Y-124442062D01*
X125564452Y-123717792D01*
X125212555Y-123049330D01*
X125185548Y-123008912D01*
X124695881Y-122648724D01*
X123677914Y-123666692D01*
X123498309Y-123487087D01*
X124516276Y-122469119D01*
X124156088Y-121979452D01*
X124135132Y-121968080D01*
X138895525Y-121968080D01*
X138979208Y-122222261D01*
X139251775Y-122353158D01*
X139544642Y-122428365D01*
X139846553Y-122444991D01*
X140145907Y-122402397D01*
X140431199Y-122302222D01*
X140580792Y-122222261D01*
X140664475Y-121968080D01*
X139780000Y-121083605D01*
X138895525Y-121968080D01*
X124135132Y-121968080D01*
X123492118Y-121619151D01*
X122770615Y-121395306D01*
X122019305Y-121316520D01*
X121267062Y-121385822D01*
X120542792Y-121600548D01*
X119874330Y-121952445D01*
X119833912Y-121979452D01*
X119473724Y-122469119D01*
X120491692Y-123487087D01*
X120312087Y-123666692D01*
X119294119Y-122648724D01*
X118804452Y-123008912D01*
X118444151Y-123672882D01*
X118220306Y-124394385D01*
X118141520Y-125145695D01*
X118210822Y-125897938D01*
X118425548Y-126622208D01*
X118777445Y-127290670D01*
X118804452Y-127331088D01*
X119294117Y-127691275D01*
X119190351Y-127795041D01*
X119146900Y-127755894D01*
X118897003Y-127453100D01*
X118872075Y-127422726D01*
X118810254Y-127371990D01*
X118774630Y-127352949D01*
X118774626Y-127352946D01*
X118774622Y-127352944D01*
X118739722Y-127334290D01*
X118701405Y-127322667D01*
X118701403Y-127322666D01*
X118701400Y-127322665D01*
X118663191Y-127311075D01*
X118603542Y-127305200D01*
X108432200Y-127305200D01*
X108432200Y-120970553D01*
X138239009Y-120970553D01*
X138281603Y-121269907D01*
X138381778Y-121555199D01*
X138461739Y-121704792D01*
X138715920Y-121788475D01*
X139600395Y-120904000D01*
X139959605Y-120904000D01*
X140844080Y-121788475D01*
X141098261Y-121704792D01*
X141171929Y-121551393D01*
X141284982Y-121720590D01*
X141463410Y-121899018D01*
X141673219Y-122039207D01*
X141906346Y-122135772D01*
X142153833Y-122185000D01*
X142406167Y-122185000D01*
X142653654Y-122135772D01*
X142886781Y-122039207D01*
X143096590Y-121899018D01*
X143275018Y-121720590D01*
X143415207Y-121510781D01*
X143511772Y-121277654D01*
X143530000Y-121186015D01*
X143548228Y-121277654D01*
X143644793Y-121510781D01*
X143784982Y-121720590D01*
X143963410Y-121899018D01*
X144173219Y-122039207D01*
X144274000Y-122080952D01*
X144274000Y-122611253D01*
X144271553Y-122636100D01*
X144274000Y-122660946D01*
X144274000Y-122660953D01*
X144281322Y-122735292D01*
X144310255Y-122830674D01*
X144357241Y-122918579D01*
X144420473Y-122995627D01*
X144439785Y-123011476D01*
X145511421Y-124083113D01*
X145331614Y-124203256D01*
X145158256Y-124376614D01*
X145022050Y-124580461D01*
X144928229Y-124806964D01*
X144880400Y-125047418D01*
X144880400Y-125292582D01*
X144928229Y-125533036D01*
X145022050Y-125759539D01*
X145158256Y-125963386D01*
X145331614Y-126136744D01*
X145535461Y-126272950D01*
X145761964Y-126366771D01*
X146002418Y-126414600D01*
X146247582Y-126414600D01*
X146488036Y-126366771D01*
X146714539Y-126272950D01*
X146918386Y-126136744D01*
X147091744Y-125963386D01*
X147227950Y-125759539D01*
X147258559Y-125685642D01*
X147382316Y-125944944D01*
X147558146Y-126180293D01*
X147776512Y-126376817D01*
X148029022Y-126526964D01*
X148305973Y-126624963D01*
X148538000Y-126504464D01*
X148538000Y-125297000D01*
X148792000Y-125297000D01*
X148792000Y-126504464D01*
X149024027Y-126624963D01*
X149300978Y-126526964D01*
X149553488Y-126376817D01*
X149771854Y-126180293D01*
X149935000Y-125961922D01*
X150098146Y-126180293D01*
X150316512Y-126376817D01*
X150569022Y-126526964D01*
X150845973Y-126624963D01*
X151078000Y-126504464D01*
X151078000Y-125297000D01*
X148792000Y-125297000D01*
X148538000Y-125297000D01*
X148518000Y-125297000D01*
X148518000Y-125043000D01*
X148538000Y-125043000D01*
X148538000Y-123835536D01*
X148792000Y-123835536D01*
X148792000Y-125043000D01*
X151078000Y-125043000D01*
X151078000Y-123835536D01*
X150845973Y-123715037D01*
X150569022Y-123813036D01*
X150316512Y-123963183D01*
X150098146Y-124159707D01*
X149935000Y-124378078D01*
X149771854Y-124159707D01*
X149553488Y-123963183D01*
X149300978Y-123813036D01*
X149024027Y-123715037D01*
X148792000Y-123835536D01*
X148538000Y-123835536D01*
X148305973Y-123715037D01*
X148029022Y-123813036D01*
X147776512Y-123963183D01*
X147558146Y-124159707D01*
X147382316Y-124395056D01*
X147258559Y-124654358D01*
X147227950Y-124580461D01*
X147091744Y-124376614D01*
X146918386Y-124203256D01*
X146714539Y-124067050D01*
X146631000Y-124032447D01*
X146631000Y-124005945D01*
X146633447Y-123981099D01*
X146631000Y-123956253D01*
X146631000Y-123956246D01*
X146623678Y-123881907D01*
X146621334Y-123874178D01*
X146594745Y-123786525D01*
X146580490Y-123759856D01*
X146547759Y-123698621D01*
X146484527Y-123621573D01*
X146465220Y-123605728D01*
X145286000Y-122426509D01*
X145286000Y-122080952D01*
X145386781Y-122039207D01*
X145596590Y-121899018D01*
X145775018Y-121720590D01*
X145915207Y-121510781D01*
X146011772Y-121277654D01*
X146061000Y-121030167D01*
X146061000Y-120777833D01*
X146011772Y-120530346D01*
X145915207Y-120297219D01*
X145775018Y-120087410D01*
X145596590Y-119908982D01*
X145386781Y-119768793D01*
X145153654Y-119672228D01*
X144906167Y-119623000D01*
X144653833Y-119623000D01*
X144406346Y-119672228D01*
X144173219Y-119768793D01*
X143963410Y-119908982D01*
X143784982Y-120087410D01*
X143644793Y-120297219D01*
X143548228Y-120530346D01*
X143530000Y-120621985D01*
X143511772Y-120530346D01*
X143415207Y-120297219D01*
X143275018Y-120087410D01*
X143096590Y-119908982D01*
X142886781Y-119768793D01*
X142653654Y-119672228D01*
X142406167Y-119623000D01*
X142153833Y-119623000D01*
X141906346Y-119672228D01*
X141673219Y-119768793D01*
X141463410Y-119908982D01*
X141284982Y-120087410D01*
X141176555Y-120249683D01*
X141098261Y-120103208D01*
X140844080Y-120019525D01*
X139959605Y-120904000D01*
X139600395Y-120904000D01*
X138715920Y-120019525D01*
X138461739Y-120103208D01*
X138330842Y-120375775D01*
X138255635Y-120668642D01*
X138239009Y-120970553D01*
X108432200Y-120970553D01*
X108432200Y-119839920D01*
X138895525Y-119839920D01*
X139780000Y-120724395D01*
X140664475Y-119839920D01*
X140580792Y-119585739D01*
X140308225Y-119454842D01*
X140015358Y-119379635D01*
X139713447Y-119363009D01*
X139414093Y-119405603D01*
X139128801Y-119505778D01*
X138979208Y-119585739D01*
X138895525Y-119839920D01*
X108432200Y-119839920D01*
X108432200Y-107131741D01*
X108434164Y-107111800D01*
X108426325Y-107032210D01*
X108403110Y-106955679D01*
X108365410Y-106885147D01*
X108314674Y-106823326D01*
X108252853Y-106772590D01*
X108182321Y-106734890D01*
X108105790Y-106711675D01*
X108046141Y-106705800D01*
X108026200Y-106703836D01*
X108006260Y-106705800D01*
X102183800Y-106705800D01*
X102183800Y-106642436D01*
X111301000Y-106642436D01*
X111301000Y-106973564D01*
X111365600Y-107298330D01*
X111492317Y-107604252D01*
X111676282Y-107879575D01*
X111910425Y-108113718D01*
X112185748Y-108297683D01*
X112491670Y-108424400D01*
X112816436Y-108489000D01*
X113147564Y-108489000D01*
X113472330Y-108424400D01*
X113778252Y-108297683D01*
X114053575Y-108113718D01*
X114287718Y-107879575D01*
X114471683Y-107604252D01*
X114598400Y-107298330D01*
X114663000Y-106973564D01*
X114663000Y-106642436D01*
X114598400Y-106317670D01*
X114471683Y-106011748D01*
X114287718Y-105736425D01*
X114053575Y-105502282D01*
X113778252Y-105318317D01*
X113472330Y-105191600D01*
X113147564Y-105127000D01*
X112816436Y-105127000D01*
X112491670Y-105191600D01*
X112185748Y-105318317D01*
X111910425Y-105502282D01*
X111676282Y-105736425D01*
X111492317Y-106011748D01*
X111365600Y-106317670D01*
X111301000Y-106642436D01*
X102183800Y-106642436D01*
X102183800Y-103457224D01*
X108812381Y-103457224D01*
X108944317Y-103752312D01*
X109285045Y-103923159D01*
X109652557Y-104024250D01*
X110032729Y-104051701D01*
X110410951Y-104004457D01*
X110772690Y-103884333D01*
X111019683Y-103752312D01*
X111151619Y-103457224D01*
X109982000Y-102287605D01*
X108812381Y-103457224D01*
X102183800Y-103457224D01*
X102183800Y-102158729D01*
X108038299Y-102158729D01*
X108085543Y-102536951D01*
X108205667Y-102898690D01*
X108337688Y-103145683D01*
X108632776Y-103277619D01*
X109802395Y-102108000D01*
X110161605Y-102108000D01*
X111331224Y-103277619D01*
X111626312Y-103145683D01*
X111797159Y-102804955D01*
X111898250Y-102437443D01*
X111925701Y-102057271D01*
X111878457Y-101679049D01*
X111758333Y-101317310D01*
X111626312Y-101070317D01*
X111331224Y-100938381D01*
X110161605Y-102108000D01*
X109802395Y-102108000D01*
X108632776Y-100938381D01*
X108337688Y-101070317D01*
X108166841Y-101411045D01*
X108065750Y-101778557D01*
X108038299Y-102158729D01*
X102183800Y-102158729D01*
X102183800Y-100758776D01*
X108812381Y-100758776D01*
X109982000Y-101928395D01*
X111102395Y-100808000D01*
X113901241Y-100808000D01*
X113901241Y-103408000D01*
X113916243Y-103560319D01*
X113960673Y-103706784D01*
X114032823Y-103841766D01*
X114129920Y-103960080D01*
X114248234Y-104057177D01*
X114383216Y-104129327D01*
X114529681Y-104173757D01*
X114682000Y-104188759D01*
X117282000Y-104188759D01*
X117434319Y-104173757D01*
X117580784Y-104129327D01*
X117715766Y-104057177D01*
X117834080Y-103960080D01*
X117931177Y-103841766D01*
X118003327Y-103706784D01*
X118047757Y-103560319D01*
X118062759Y-103408000D01*
X118062759Y-100808000D01*
X118047757Y-100655681D01*
X118003327Y-100509216D01*
X117931177Y-100374234D01*
X117834080Y-100255920D01*
X117715766Y-100158823D01*
X117580784Y-100086673D01*
X117434319Y-100042243D01*
X117282000Y-100027241D01*
X114682000Y-100027241D01*
X114529681Y-100042243D01*
X114383216Y-100086673D01*
X114248234Y-100158823D01*
X114129920Y-100255920D01*
X114032823Y-100374234D01*
X113960673Y-100509216D01*
X113916243Y-100655681D01*
X113901241Y-100808000D01*
X111102395Y-100808000D01*
X111151619Y-100758776D01*
X111019683Y-100463688D01*
X110678955Y-100292841D01*
X110311443Y-100191750D01*
X109931271Y-100164299D01*
X109553049Y-100211543D01*
X109191310Y-100331667D01*
X108944317Y-100463688D01*
X108812381Y-100758776D01*
X102183800Y-100758776D01*
X102183800Y-97510200D01*
X108006260Y-97510200D01*
X108026200Y-97512164D01*
X108057787Y-97509053D01*
X108105790Y-97504325D01*
X108182321Y-97481110D01*
X108252853Y-97443410D01*
X108314674Y-97392674D01*
X108365410Y-97330853D01*
X108403110Y-97260321D01*
X108426325Y-97183790D01*
X108434164Y-97104200D01*
X108432200Y-97084259D01*
X108432200Y-86354300D01*
X120632153Y-86354300D01*
X120634601Y-86379156D01*
X120634600Y-107130454D01*
X120632153Y-107155300D01*
X120634600Y-107180146D01*
X120634600Y-107180153D01*
X120641922Y-107254492D01*
X120670855Y-107349874D01*
X120717841Y-107437779D01*
X120781073Y-107514827D01*
X120800385Y-107530676D01*
X122542865Y-109273157D01*
X121466000Y-109273157D01*
X121391311Y-109280513D01*
X121319492Y-109302299D01*
X121253304Y-109337678D01*
X121195289Y-109385289D01*
X121147678Y-109443304D01*
X121112299Y-109509492D01*
X121090513Y-109581311D01*
X121083157Y-109656000D01*
X121083157Y-113356000D01*
X121090513Y-113430689D01*
X121112299Y-113502508D01*
X121147678Y-113568696D01*
X121195289Y-113626711D01*
X121253304Y-113674322D01*
X121319492Y-113709701D01*
X121391311Y-113731487D01*
X121466000Y-113738843D01*
X125166000Y-113738843D01*
X125240689Y-113731487D01*
X125312508Y-113709701D01*
X125378696Y-113674322D01*
X125436711Y-113626711D01*
X125484322Y-113568696D01*
X125519701Y-113502508D01*
X125541487Y-113430689D01*
X125548843Y-113356000D01*
X125548843Y-113246772D01*
X126454833Y-113246772D01*
X126652931Y-113598168D01*
X127087284Y-113823890D01*
X127557327Y-113960536D01*
X128044996Y-114002856D01*
X128531552Y-113949222D01*
X128998294Y-113801697D01*
X129379069Y-113598168D01*
X129577167Y-113246772D01*
X128016000Y-111685605D01*
X126454833Y-113246772D01*
X125548843Y-113246772D01*
X125548843Y-111804419D01*
X125572778Y-112021552D01*
X125720303Y-112488294D01*
X125923832Y-112869069D01*
X126275228Y-113067167D01*
X127836395Y-111506000D01*
X128195605Y-111506000D01*
X129756772Y-113067167D01*
X130108168Y-112869069D01*
X130333890Y-112434716D01*
X130470536Y-111964673D01*
X130489366Y-111747685D01*
X130570736Y-112156759D01*
X130738913Y-112562775D01*
X130983069Y-112928180D01*
X131293820Y-113238931D01*
X131659225Y-113483087D01*
X132065241Y-113651264D01*
X132496266Y-113737000D01*
X132935734Y-113737000D01*
X133275120Y-113669492D01*
X135499000Y-113669492D01*
X135499000Y-114138508D01*
X135590500Y-114598512D01*
X135769985Y-115031827D01*
X136030556Y-115421799D01*
X136362201Y-115753444D01*
X136752173Y-116014015D01*
X137185488Y-116193500D01*
X137645492Y-116285000D01*
X138114508Y-116285000D01*
X138574512Y-116193500D01*
X139007827Y-116014015D01*
X139397799Y-115753444D01*
X139729444Y-115421799D01*
X139990015Y-115031827D01*
X140169500Y-114598512D01*
X140261000Y-114138508D01*
X140261000Y-113669492D01*
X140169500Y-113209488D01*
X139990015Y-112776173D01*
X139729444Y-112386201D01*
X139397799Y-112054556D01*
X139007827Y-111793985D01*
X138574512Y-111614500D01*
X138114508Y-111523000D01*
X137645492Y-111523000D01*
X137185488Y-111614500D01*
X136752173Y-111793985D01*
X136362201Y-112054556D01*
X136030556Y-112386201D01*
X135769985Y-112776173D01*
X135590500Y-113209488D01*
X135499000Y-113669492D01*
X133275120Y-113669492D01*
X133366759Y-113651264D01*
X133772775Y-113483087D01*
X134138180Y-113238931D01*
X134448931Y-112928180D01*
X134693087Y-112562775D01*
X134861264Y-112156759D01*
X134947000Y-111725734D01*
X134947000Y-111286266D01*
X134861264Y-110855241D01*
X134693087Y-110449225D01*
X134448931Y-110083820D01*
X134138180Y-109773069D01*
X133772775Y-109528913D01*
X133366759Y-109360736D01*
X132935734Y-109275000D01*
X132496266Y-109275000D01*
X132065241Y-109360736D01*
X131659225Y-109528913D01*
X131293820Y-109773069D01*
X130983069Y-110083820D01*
X130738913Y-110449225D01*
X130570736Y-110855241D01*
X130489395Y-111264171D01*
X130459222Y-110990448D01*
X130311697Y-110523706D01*
X130108168Y-110142931D01*
X129756772Y-109944833D01*
X128195605Y-111506000D01*
X127836395Y-111506000D01*
X126275228Y-109944833D01*
X125923832Y-110142931D01*
X125698110Y-110577284D01*
X125561464Y-111047327D01*
X125548843Y-111192763D01*
X125548843Y-109765228D01*
X126454833Y-109765228D01*
X128016000Y-111326395D01*
X129577167Y-109765228D01*
X129379069Y-109413832D01*
X128944716Y-109188110D01*
X128474673Y-109051464D01*
X127987004Y-109009144D01*
X127500448Y-109062778D01*
X127033706Y-109210303D01*
X126652931Y-109413832D01*
X126454833Y-109765228D01*
X125548843Y-109765228D01*
X125548843Y-109656000D01*
X125541487Y-109581311D01*
X125519701Y-109509492D01*
X125484322Y-109443304D01*
X125436711Y-109385289D01*
X125378696Y-109337678D01*
X125312508Y-109302299D01*
X125240689Y-109280513D01*
X125166000Y-109273157D01*
X123818780Y-109273157D01*
X123814678Y-109231507D01*
X123785745Y-109136125D01*
X123738759Y-109048221D01*
X123675527Y-108971173D01*
X123656220Y-108955328D01*
X121646600Y-106945709D01*
X121646600Y-104848843D01*
X125166000Y-104848843D01*
X125240689Y-104841487D01*
X125312508Y-104819701D01*
X125378696Y-104784322D01*
X125436711Y-104736711D01*
X125484322Y-104678696D01*
X125519701Y-104612508D01*
X125541487Y-104540689D01*
X125548843Y-104466000D01*
X125548843Y-103524438D01*
X125687983Y-103860351D01*
X125975476Y-104290615D01*
X126341385Y-104656524D01*
X126771649Y-104944017D01*
X127249732Y-105142046D01*
X127757263Y-105243000D01*
X128274737Y-105243000D01*
X128782268Y-105142046D01*
X129260351Y-104944017D01*
X129690615Y-104656524D01*
X130056524Y-104290615D01*
X130344017Y-103860351D01*
X130366000Y-103807279D01*
X130387983Y-103860351D01*
X130675476Y-104290615D01*
X131041385Y-104656524D01*
X131471649Y-104944017D01*
X131949732Y-105142046D01*
X132457263Y-105243000D01*
X132974737Y-105243000D01*
X133482268Y-105142046D01*
X133960351Y-104944017D01*
X134390615Y-104656524D01*
X134756524Y-104290615D01*
X134900301Y-104075438D01*
X134900301Y-106488244D01*
X134897853Y-106513100D01*
X134907622Y-106612292D01*
X134936555Y-106707674D01*
X134936556Y-106707675D01*
X134983542Y-106795579D01*
X135046774Y-106872627D01*
X135066081Y-106888472D01*
X151969000Y-123791392D01*
X151969000Y-123889160D01*
X151840978Y-123813036D01*
X151564027Y-123715037D01*
X151332000Y-123835536D01*
X151332000Y-125043000D01*
X151352000Y-125043000D01*
X151352000Y-125297000D01*
X151332000Y-125297000D01*
X151332000Y-126504464D01*
X151564027Y-126624963D01*
X151840978Y-126526964D01*
X152093488Y-126376817D01*
X152292458Y-126197749D01*
X152817328Y-126722620D01*
X152833173Y-126741927D01*
X152910221Y-126805159D01*
X152998125Y-126852145D01*
X153093507Y-126881078D01*
X153167846Y-126888400D01*
X153167853Y-126888400D01*
X153192699Y-126890847D01*
X153217545Y-126888400D01*
X159308354Y-126888400D01*
X159333200Y-126890847D01*
X159358046Y-126888400D01*
X159358054Y-126888400D01*
X159432393Y-126881078D01*
X159527775Y-126852145D01*
X159615679Y-126805159D01*
X159692727Y-126741927D01*
X159708576Y-126722615D01*
X160433031Y-125998161D01*
X160571614Y-126136744D01*
X160775461Y-126272950D01*
X161001964Y-126366771D01*
X161242418Y-126414600D01*
X161487582Y-126414600D01*
X161728036Y-126366771D01*
X161954539Y-126272950D01*
X162158386Y-126136744D01*
X162331744Y-125963386D01*
X162467950Y-125759539D01*
X162518287Y-125638014D01*
X162521525Y-125639745D01*
X162616907Y-125668678D01*
X162691246Y-125676000D01*
X162716100Y-125678448D01*
X162740954Y-125676000D01*
X162767447Y-125676000D01*
X162802050Y-125759539D01*
X162938256Y-125963386D01*
X163111614Y-126136744D01*
X163315461Y-126272950D01*
X163541964Y-126366771D01*
X163782418Y-126414600D01*
X164027582Y-126414600D01*
X164268036Y-126366771D01*
X164494539Y-126272950D01*
X164698386Y-126136744D01*
X164871744Y-125963386D01*
X165007950Y-125759539D01*
X165101771Y-125533036D01*
X165149600Y-125292582D01*
X165149600Y-125047418D01*
X165200400Y-125047418D01*
X165200400Y-125292582D01*
X165248229Y-125533036D01*
X165342050Y-125759539D01*
X165478256Y-125963386D01*
X165651614Y-126136744D01*
X165855461Y-126272950D01*
X166081964Y-126366771D01*
X166322418Y-126414600D01*
X166567582Y-126414600D01*
X166808036Y-126366771D01*
X167034539Y-126272950D01*
X167238386Y-126136744D01*
X167411744Y-125963386D01*
X167547950Y-125759539D01*
X167641771Y-125533036D01*
X167689600Y-125292582D01*
X167689600Y-125047418D01*
X167740400Y-125047418D01*
X167740400Y-125292582D01*
X167788229Y-125533036D01*
X167882050Y-125759539D01*
X168018256Y-125963386D01*
X168191614Y-126136744D01*
X168395461Y-126272950D01*
X168621964Y-126366771D01*
X168862418Y-126414600D01*
X169107582Y-126414600D01*
X169348036Y-126366771D01*
X169574539Y-126272950D01*
X169778386Y-126136744D01*
X169951744Y-125963386D01*
X170087950Y-125759539D01*
X170181771Y-125533036D01*
X170229600Y-125292582D01*
X170229600Y-125047418D01*
X170280400Y-125047418D01*
X170280400Y-125292582D01*
X170328229Y-125533036D01*
X170422050Y-125759539D01*
X170558256Y-125963386D01*
X170731614Y-126136744D01*
X170935461Y-126272950D01*
X171161964Y-126366771D01*
X171402418Y-126414600D01*
X171647582Y-126414600D01*
X171888036Y-126366771D01*
X172114539Y-126272950D01*
X172318386Y-126136744D01*
X172491744Y-125963386D01*
X172627950Y-125759539D01*
X172721771Y-125533036D01*
X172769600Y-125292582D01*
X172769600Y-125047418D01*
X172721771Y-124806964D01*
X172627950Y-124580461D01*
X172491744Y-124376614D01*
X172318386Y-124203256D01*
X172114539Y-124067050D01*
X171888036Y-123973229D01*
X171647582Y-123925400D01*
X171402418Y-123925400D01*
X171161964Y-123973229D01*
X170935461Y-124067050D01*
X170731614Y-124203256D01*
X170558256Y-124376614D01*
X170422050Y-124580461D01*
X170328229Y-124806964D01*
X170280400Y-125047418D01*
X170229600Y-125047418D01*
X170181771Y-124806964D01*
X170087950Y-124580461D01*
X169951744Y-124376614D01*
X169778386Y-124203256D01*
X169574539Y-124067050D01*
X169348036Y-123973229D01*
X169107582Y-123925400D01*
X168862418Y-123925400D01*
X168621964Y-123973229D01*
X168395461Y-124067050D01*
X168191614Y-124203256D01*
X168018256Y-124376614D01*
X167882050Y-124580461D01*
X167788229Y-124806964D01*
X167740400Y-125047418D01*
X167689600Y-125047418D01*
X167641771Y-124806964D01*
X167547950Y-124580461D01*
X167411744Y-124376614D01*
X167238386Y-124203256D01*
X167034539Y-124067050D01*
X166808036Y-123973229D01*
X166567582Y-123925400D01*
X166322418Y-123925400D01*
X166081964Y-123973229D01*
X165855461Y-124067050D01*
X165651614Y-124203256D01*
X165478256Y-124376614D01*
X165342050Y-124580461D01*
X165248229Y-124806964D01*
X165200400Y-125047418D01*
X165149600Y-125047418D01*
X165101771Y-124806964D01*
X165007950Y-124580461D01*
X164871744Y-124376614D01*
X164698386Y-124203256D01*
X164494539Y-124067050D01*
X164268036Y-123973229D01*
X164027582Y-123925400D01*
X163782418Y-123925400D01*
X163541964Y-123973229D01*
X163315461Y-124067050D01*
X163111614Y-124203256D01*
X162974081Y-124340789D01*
X162274176Y-123640885D01*
X162258327Y-123621573D01*
X162181279Y-123558341D01*
X162093375Y-123511355D01*
X161997993Y-123482422D01*
X161923654Y-123475100D01*
X161923646Y-123475100D01*
X161898800Y-123472653D01*
X161873954Y-123475100D01*
X157157692Y-123475100D01*
X153669550Y-119986958D01*
X153749401Y-119971075D01*
X153957413Y-119884913D01*
X154144620Y-119759826D01*
X154303826Y-119600620D01*
X154428913Y-119413413D01*
X154473251Y-119306373D01*
X154476142Y-119320910D01*
X154592156Y-119600990D01*
X154760580Y-119853056D01*
X154974944Y-120067420D01*
X155227010Y-120235844D01*
X155507090Y-120351858D01*
X155804422Y-120411000D01*
X156107578Y-120411000D01*
X156404910Y-120351858D01*
X156684990Y-120235844D01*
X156937056Y-120067420D01*
X157151420Y-119853056D01*
X157226000Y-119741438D01*
X157300580Y-119853056D01*
X157514944Y-120067420D01*
X157767010Y-120235844D01*
X158047090Y-120351858D01*
X158344422Y-120411000D01*
X158647578Y-120411000D01*
X158944910Y-120351858D01*
X159224990Y-120235844D01*
X159477056Y-120067420D01*
X159691420Y-119853056D01*
X159766000Y-119741438D01*
X159840580Y-119853056D01*
X160054944Y-120067420D01*
X160307010Y-120235844D01*
X160587090Y-120351858D01*
X160884422Y-120411000D01*
X161187578Y-120411000D01*
X161484910Y-120351858D01*
X161764990Y-120235844D01*
X162017056Y-120067420D01*
X162231420Y-119853056D01*
X162306000Y-119741438D01*
X162380580Y-119853056D01*
X162594944Y-120067420D01*
X162847010Y-120235844D01*
X163127090Y-120351858D01*
X163424422Y-120411000D01*
X163727578Y-120411000D01*
X164024910Y-120351858D01*
X164304990Y-120235844D01*
X164557056Y-120067420D01*
X164771420Y-119853056D01*
X164781770Y-119837565D01*
X165330040Y-119837565D01*
X165397020Y-120077656D01*
X165646048Y-120194756D01*
X165913135Y-120261023D01*
X166188017Y-120273910D01*
X166460133Y-120232922D01*
X166719023Y-120139636D01*
X166834980Y-120077656D01*
X166901960Y-119837565D01*
X166116000Y-119051605D01*
X165330040Y-119837565D01*
X164781770Y-119837565D01*
X164939844Y-119600990D01*
X164940505Y-119599394D01*
X165150435Y-119657960D01*
X165936395Y-118872000D01*
X166295605Y-118872000D01*
X167081565Y-119657960D01*
X167291495Y-119599394D01*
X167292156Y-119600990D01*
X167460580Y-119853056D01*
X167674944Y-120067420D01*
X167927010Y-120235844D01*
X168207090Y-120351858D01*
X168504422Y-120411000D01*
X168807578Y-120411000D01*
X169104910Y-120351858D01*
X169384990Y-120235844D01*
X169637056Y-120067420D01*
X169851420Y-119853056D01*
X170019844Y-119600990D01*
X170135858Y-119320910D01*
X170195000Y-119023578D01*
X170195000Y-118720422D01*
X170135858Y-118423090D01*
X170019844Y-118143010D01*
X169851420Y-117890944D01*
X169637056Y-117676580D01*
X169384990Y-117508156D01*
X169104910Y-117392142D01*
X168807578Y-117333000D01*
X168504422Y-117333000D01*
X168207090Y-117392142D01*
X167927010Y-117508156D01*
X167674944Y-117676580D01*
X167460580Y-117890944D01*
X167292156Y-118143010D01*
X167291495Y-118144606D01*
X167081565Y-118086040D01*
X166295605Y-118872000D01*
X165936395Y-118872000D01*
X165922253Y-118857858D01*
X166101858Y-118678253D01*
X166116000Y-118692395D01*
X166901960Y-117906435D01*
X166834980Y-117666344D01*
X166585952Y-117549244D01*
X166539464Y-117537710D01*
X167078874Y-116998300D01*
X171831202Y-116998300D01*
X171543724Y-117389119D01*
X172561692Y-118407087D01*
X172382087Y-118586692D01*
X171364119Y-117568724D01*
X170874452Y-117928912D01*
X170514151Y-118592882D01*
X170290306Y-119314385D01*
X170211520Y-120065695D01*
X170280822Y-120817938D01*
X170495548Y-121542208D01*
X170847445Y-122210670D01*
X170874452Y-122251088D01*
X171364119Y-122611276D01*
X172382087Y-121593309D01*
X172561692Y-121772914D01*
X171543724Y-122790881D01*
X171903912Y-123280548D01*
X172567882Y-123640849D01*
X173289385Y-123864694D01*
X174040695Y-123943480D01*
X174792938Y-123874178D01*
X175517208Y-123659452D01*
X176185670Y-123307555D01*
X176226088Y-123280548D01*
X176389789Y-123058000D01*
X183644241Y-123058000D01*
X183644241Y-125658000D01*
X183659243Y-125810319D01*
X183703673Y-125956784D01*
X183775823Y-126091766D01*
X183872920Y-126210080D01*
X183991234Y-126307177D01*
X184126216Y-126379327D01*
X184272681Y-126423757D01*
X184425000Y-126438759D01*
X187025000Y-126438759D01*
X187177319Y-126423757D01*
X187323784Y-126379327D01*
X187458766Y-126307177D01*
X187577080Y-126210080D01*
X187674177Y-126091766D01*
X187746327Y-125956784D01*
X187790757Y-125810319D01*
X187805759Y-125658000D01*
X187805759Y-123058000D01*
X187790757Y-122905681D01*
X187746327Y-122759216D01*
X187674177Y-122624234D01*
X187577080Y-122505920D01*
X187458766Y-122408823D01*
X187323784Y-122336673D01*
X187177319Y-122292243D01*
X187025000Y-122277241D01*
X184425000Y-122277241D01*
X184272681Y-122292243D01*
X184126216Y-122336673D01*
X183991234Y-122408823D01*
X183872920Y-122505920D01*
X183775823Y-122624234D01*
X183703673Y-122759216D01*
X183659243Y-122905681D01*
X183644241Y-123058000D01*
X176389789Y-123058000D01*
X176586276Y-122790881D01*
X175568309Y-121772914D01*
X175747914Y-121593309D01*
X176765881Y-122611276D01*
X177255548Y-122251088D01*
X177615849Y-121587118D01*
X177839694Y-120865615D01*
X177918480Y-120114305D01*
X177849178Y-119362062D01*
X177634452Y-118637792D01*
X177282555Y-117969330D01*
X177255548Y-117928912D01*
X176765881Y-117568724D01*
X175747914Y-118586692D01*
X175568309Y-118407087D01*
X176586276Y-117389119D01*
X176298798Y-116998300D01*
X181816127Y-116998300D01*
X183688359Y-118870533D01*
X183648000Y-119073433D01*
X183648000Y-119482567D01*
X183727818Y-119883839D01*
X183884386Y-120261829D01*
X184111689Y-120602011D01*
X184400989Y-120891311D01*
X184741171Y-121118614D01*
X185119161Y-121275182D01*
X185520433Y-121355000D01*
X185929567Y-121355000D01*
X186330839Y-121275182D01*
X186708829Y-121118614D01*
X187049011Y-120891311D01*
X187338311Y-120602011D01*
X187565614Y-120261829D01*
X187722182Y-119883839D01*
X187802000Y-119482567D01*
X187802000Y-119073433D01*
X187722182Y-118672161D01*
X187565614Y-118294171D01*
X187338311Y-117953989D01*
X187049011Y-117664689D01*
X186708829Y-117437386D01*
X186330839Y-117280818D01*
X185929567Y-117201000D01*
X185520433Y-117201000D01*
X185317533Y-117241359D01*
X183426173Y-115350000D01*
X183996755Y-115350000D01*
X184111689Y-115522011D01*
X184400989Y-115811311D01*
X184741171Y-116038614D01*
X185119161Y-116195182D01*
X185520433Y-116275000D01*
X185929567Y-116275000D01*
X186330839Y-116195182D01*
X186708829Y-116038614D01*
X187049011Y-115811311D01*
X187338311Y-115522011D01*
X187565614Y-115181829D01*
X187722182Y-114803839D01*
X187802000Y-114402567D01*
X187802000Y-113993433D01*
X187722182Y-113592161D01*
X187565614Y-113214171D01*
X187338311Y-112873989D01*
X187049011Y-112584689D01*
X186708829Y-112357386D01*
X186330839Y-112200818D01*
X185929567Y-112121000D01*
X185520433Y-112121000D01*
X185119161Y-112200818D01*
X184741171Y-112357386D01*
X184400989Y-112584689D01*
X184111689Y-112873989D01*
X183996755Y-113046000D01*
X163226584Y-113046000D01*
X163169999Y-113040427D01*
X163113414Y-113046000D01*
X163113405Y-113046000D01*
X162944169Y-113062668D01*
X162727016Y-113128541D01*
X162526886Y-113235512D01*
X162526884Y-113235513D01*
X162526885Y-113235513D01*
X162395431Y-113343395D01*
X162395429Y-113343397D01*
X162351472Y-113379472D01*
X162315397Y-113423429D01*
X158405827Y-117333000D01*
X158344422Y-117333000D01*
X158047090Y-117392142D01*
X157767010Y-117508156D01*
X157514944Y-117676580D01*
X157300580Y-117890944D01*
X157226000Y-118002562D01*
X157151420Y-117890944D01*
X156937056Y-117676580D01*
X156684990Y-117508156D01*
X156404910Y-117392142D01*
X156107578Y-117333000D01*
X155804422Y-117333000D01*
X155507090Y-117392142D01*
X155227010Y-117508156D01*
X154974944Y-117676580D01*
X154760580Y-117890944D01*
X154592156Y-118143010D01*
X154476142Y-118423090D01*
X154473251Y-118437627D01*
X154428913Y-118330587D01*
X154303826Y-118143380D01*
X154144620Y-117984174D01*
X153957413Y-117859087D01*
X153922000Y-117844418D01*
X153922000Y-111789845D01*
X153924447Y-111764999D01*
X153922000Y-111740153D01*
X153922000Y-111740146D01*
X153914678Y-111665807D01*
X153914525Y-111665300D01*
X163643854Y-111665300D01*
X163668700Y-111667747D01*
X163693546Y-111665300D01*
X163693554Y-111665300D01*
X163767893Y-111657978D01*
X163863275Y-111629045D01*
X163951179Y-111582059D01*
X164028227Y-111518827D01*
X164044076Y-111499515D01*
X166630158Y-108913433D01*
X183648000Y-108913433D01*
X183648000Y-109322567D01*
X183727818Y-109723839D01*
X183884386Y-110101829D01*
X184111689Y-110442011D01*
X184400989Y-110731311D01*
X184741171Y-110958614D01*
X185119161Y-111115182D01*
X185520433Y-111195000D01*
X185929567Y-111195000D01*
X186330839Y-111115182D01*
X186708829Y-110958614D01*
X187049011Y-110731311D01*
X187338311Y-110442011D01*
X187565614Y-110101829D01*
X187722182Y-109723839D01*
X187802000Y-109322567D01*
X187802000Y-108913433D01*
X187722182Y-108512161D01*
X187565614Y-108134171D01*
X187338311Y-107793989D01*
X187049011Y-107504689D01*
X186708829Y-107277386D01*
X186330839Y-107120818D01*
X185929567Y-107041000D01*
X185520433Y-107041000D01*
X185119161Y-107120818D01*
X184741171Y-107277386D01*
X184400989Y-107504689D01*
X184111689Y-107793989D01*
X183884386Y-108134171D01*
X183727818Y-108512161D01*
X183648000Y-108913433D01*
X166630158Y-108913433D01*
X168287186Y-107256406D01*
X168322599Y-107271075D01*
X168543424Y-107315000D01*
X168768576Y-107315000D01*
X168989401Y-107271075D01*
X169197413Y-107184913D01*
X169384620Y-107059826D01*
X169543826Y-106900620D01*
X169668913Y-106713413D01*
X169755075Y-106505401D01*
X169799000Y-106284576D01*
X169799000Y-106059424D01*
X169755075Y-105838599D01*
X169668913Y-105630587D01*
X169543826Y-105443380D01*
X169384620Y-105284174D01*
X169197413Y-105159087D01*
X168989401Y-105072925D01*
X168768576Y-105029000D01*
X168543424Y-105029000D01*
X168322599Y-105072925D01*
X168114587Y-105159087D01*
X167927380Y-105284174D01*
X167768174Y-105443380D01*
X167643087Y-105630587D01*
X167556925Y-105838599D01*
X167513000Y-106059424D01*
X167513000Y-106284576D01*
X167556925Y-106505401D01*
X167571594Y-106540814D01*
X163459109Y-110653300D01*
X157481618Y-110653300D01*
X157481987Y-110652409D01*
X157512000Y-110501522D01*
X157512000Y-110359191D01*
X160011420Y-107859772D01*
X160030727Y-107843927D01*
X160093959Y-107766879D01*
X160140945Y-107678975D01*
X160169878Y-107583593D01*
X160177200Y-107509254D01*
X160179648Y-107484400D01*
X160177200Y-107459546D01*
X160177200Y-106929646D01*
X160307380Y-107059826D01*
X160494587Y-107184913D01*
X160702599Y-107271075D01*
X160923424Y-107315000D01*
X161148576Y-107315000D01*
X161369401Y-107271075D01*
X161577413Y-107184913D01*
X161764620Y-107059826D01*
X161923826Y-106900620D01*
X162048913Y-106713413D01*
X162135075Y-106505401D01*
X162179000Y-106284576D01*
X162179000Y-106059424D01*
X162433000Y-106059424D01*
X162433000Y-106284576D01*
X162476925Y-106505401D01*
X162563087Y-106713413D01*
X162688174Y-106900620D01*
X162847380Y-107059826D01*
X163034587Y-107184913D01*
X163242599Y-107271075D01*
X163463424Y-107315000D01*
X163688576Y-107315000D01*
X163909401Y-107271075D01*
X164117413Y-107184913D01*
X164304620Y-107059826D01*
X164463826Y-106900620D01*
X164588913Y-106713413D01*
X164675075Y-106505401D01*
X164719000Y-106284576D01*
X164719000Y-106059424D01*
X164973000Y-106059424D01*
X164973000Y-106284576D01*
X165016925Y-106505401D01*
X165103087Y-106713413D01*
X165228174Y-106900620D01*
X165387380Y-107059826D01*
X165574587Y-107184913D01*
X165782599Y-107271075D01*
X166003424Y-107315000D01*
X166228576Y-107315000D01*
X166449401Y-107271075D01*
X166657413Y-107184913D01*
X166844620Y-107059826D01*
X167003826Y-106900620D01*
X167128913Y-106713413D01*
X167215075Y-106505401D01*
X167259000Y-106284576D01*
X167259000Y-106059424D01*
X167215075Y-105838599D01*
X167128913Y-105630587D01*
X167003826Y-105443380D01*
X166844620Y-105284174D01*
X166657413Y-105159087D01*
X166449401Y-105072925D01*
X166228576Y-105029000D01*
X166003424Y-105029000D01*
X165782599Y-105072925D01*
X165574587Y-105159087D01*
X165387380Y-105284174D01*
X165228174Y-105443380D01*
X165103087Y-105630587D01*
X165016925Y-105838599D01*
X164973000Y-106059424D01*
X164719000Y-106059424D01*
X164675075Y-105838599D01*
X164588913Y-105630587D01*
X164463826Y-105443380D01*
X164304620Y-105284174D01*
X164117413Y-105159087D01*
X163909401Y-105072925D01*
X163688576Y-105029000D01*
X163463424Y-105029000D01*
X163242599Y-105072925D01*
X163034587Y-105159087D01*
X162847380Y-105284174D01*
X162688174Y-105443380D01*
X162563087Y-105630587D01*
X162476925Y-105838599D01*
X162433000Y-106059424D01*
X162179000Y-106059424D01*
X162135075Y-105838599D01*
X162048913Y-105630587D01*
X161923826Y-105443380D01*
X161764620Y-105284174D01*
X161577413Y-105159087D01*
X161369401Y-105072925D01*
X161148576Y-105029000D01*
X160923424Y-105029000D01*
X160702599Y-105072925D01*
X160494587Y-105159087D01*
X160307380Y-105284174D01*
X160148174Y-105443380D01*
X160146322Y-105446152D01*
X160140945Y-105428425D01*
X160093959Y-105340521D01*
X160030727Y-105263473D01*
X160011420Y-105247628D01*
X152571700Y-97807909D01*
X152571700Y-93944248D01*
X152620587Y-93976913D01*
X152828599Y-94063075D01*
X153049424Y-94107000D01*
X153274576Y-94107000D01*
X153495401Y-94063075D01*
X153703413Y-93976913D01*
X153890620Y-93851826D01*
X154049826Y-93692620D01*
X154174913Y-93505413D01*
X154219251Y-93398373D01*
X154222142Y-93412910D01*
X154338156Y-93692990D01*
X154506580Y-93945056D01*
X154720944Y-94159420D01*
X154973010Y-94327844D01*
X155253090Y-94443858D01*
X155550422Y-94503000D01*
X155853578Y-94503000D01*
X156150910Y-94443858D01*
X156430990Y-94327844D01*
X156683056Y-94159420D01*
X156897420Y-93945056D01*
X156972000Y-93833438D01*
X157046580Y-93945056D01*
X157260944Y-94159420D01*
X157513010Y-94327844D01*
X157793090Y-94443858D01*
X158090422Y-94503000D01*
X158393578Y-94503000D01*
X158690910Y-94443858D01*
X158970990Y-94327844D01*
X159223056Y-94159420D01*
X159437420Y-93945056D01*
X159512000Y-93833438D01*
X159586580Y-93945056D01*
X159800944Y-94159420D01*
X160053010Y-94327844D01*
X160333090Y-94443858D01*
X160630422Y-94503000D01*
X160691827Y-94503000D01*
X163365997Y-97177171D01*
X163402072Y-97221128D01*
X163446029Y-97257203D01*
X163446031Y-97257205D01*
X163535771Y-97330853D01*
X163577486Y-97365088D01*
X163777616Y-97472059D01*
X163909824Y-97512164D01*
X163994768Y-97537932D01*
X164014590Y-97539884D01*
X164164005Y-97554600D01*
X164164013Y-97554600D01*
X164220600Y-97560173D01*
X164277187Y-97554600D01*
X180183913Y-97554600D01*
X180240500Y-97560173D01*
X180297087Y-97554600D01*
X180297095Y-97554600D01*
X180466331Y-97537932D01*
X180683484Y-97472059D01*
X180883614Y-97365088D01*
X181059028Y-97221128D01*
X181095107Y-97177166D01*
X183905829Y-94366445D01*
X183913243Y-94441719D01*
X183957673Y-94588184D01*
X184029823Y-94723166D01*
X184126920Y-94841480D01*
X184245234Y-94938577D01*
X184380216Y-95010727D01*
X184526681Y-95055157D01*
X184679000Y-95070159D01*
X187279000Y-95070159D01*
X187431319Y-95055157D01*
X187577784Y-95010727D01*
X187712766Y-94938577D01*
X187831080Y-94841480D01*
X187928177Y-94723166D01*
X188000327Y-94588184D01*
X188044757Y-94441719D01*
X188059759Y-94289400D01*
X188059759Y-91689400D01*
X188044757Y-91537081D01*
X188000327Y-91390616D01*
X187928177Y-91255634D01*
X187831080Y-91137320D01*
X187712766Y-91040223D01*
X187577784Y-90968073D01*
X187431319Y-90923643D01*
X187279000Y-90908641D01*
X184679000Y-90908641D01*
X184526681Y-90923643D01*
X184380216Y-90968073D01*
X184245234Y-91040223D01*
X184126920Y-91137320D01*
X184029823Y-91255634D01*
X183957673Y-91390616D01*
X183913243Y-91537081D01*
X183898241Y-91689400D01*
X183898241Y-91837400D01*
X183710287Y-91837400D01*
X183653700Y-91831827D01*
X183597113Y-91837400D01*
X183597105Y-91837400D01*
X183447690Y-91852116D01*
X183427868Y-91854068D01*
X183398134Y-91863088D01*
X183210716Y-91919941D01*
X183010586Y-92026912D01*
X183010584Y-92026913D01*
X183010585Y-92026913D01*
X182879131Y-92134795D01*
X182879129Y-92134797D01*
X182835172Y-92170872D01*
X182799097Y-92214829D01*
X179763327Y-95250600D01*
X176292252Y-95250600D01*
X176586276Y-94850881D01*
X175568309Y-93832914D01*
X175747914Y-93653309D01*
X176765881Y-94671276D01*
X177255548Y-94311088D01*
X177615849Y-93647118D01*
X177839694Y-92925615D01*
X177918480Y-92174305D01*
X177849178Y-91422062D01*
X177634452Y-90697792D01*
X177282555Y-90029330D01*
X177255548Y-89988912D01*
X176765881Y-89628724D01*
X175747914Y-90646692D01*
X175568309Y-90467087D01*
X176586276Y-89449119D01*
X176301079Y-89061400D01*
X184250755Y-89061400D01*
X184365689Y-89233411D01*
X184654989Y-89522711D01*
X184995171Y-89750014D01*
X185373161Y-89906582D01*
X185774433Y-89986400D01*
X186183567Y-89986400D01*
X186584839Y-89906582D01*
X186962829Y-89750014D01*
X187303011Y-89522711D01*
X187592311Y-89233411D01*
X187819614Y-88893229D01*
X187976182Y-88515239D01*
X188056000Y-88113967D01*
X188056000Y-87704833D01*
X187976182Y-87303561D01*
X187819614Y-86925571D01*
X187592311Y-86585389D01*
X187303011Y-86296089D01*
X186962829Y-86068786D01*
X186584839Y-85912218D01*
X186183567Y-85832400D01*
X185774433Y-85832400D01*
X185373161Y-85912218D01*
X184995171Y-86068786D01*
X184654989Y-86296089D01*
X184365689Y-86585389D01*
X184250755Y-86757400D01*
X168433187Y-86757400D01*
X168376600Y-86751827D01*
X168320013Y-86757400D01*
X168320005Y-86757400D01*
X168170590Y-86772116D01*
X168150768Y-86774068D01*
X168112509Y-86785674D01*
X167933616Y-86839941D01*
X167733486Y-86946912D01*
X167733484Y-86946913D01*
X167733485Y-86946913D01*
X167602031Y-87054795D01*
X167602029Y-87054797D01*
X167558072Y-87090872D01*
X167521997Y-87134829D01*
X163231827Y-91425000D01*
X163170422Y-91425000D01*
X162873090Y-91484142D01*
X162593010Y-91600156D01*
X162340944Y-91768580D01*
X162126580Y-91982944D01*
X162052000Y-92094562D01*
X161977420Y-91982944D01*
X161763056Y-91768580D01*
X161510990Y-91600156D01*
X161315848Y-91519325D01*
X168853774Y-83981400D01*
X184250755Y-83981400D01*
X184365689Y-84153411D01*
X184654989Y-84442711D01*
X184995171Y-84670014D01*
X185373161Y-84826582D01*
X185774433Y-84906400D01*
X186183567Y-84906400D01*
X186584839Y-84826582D01*
X186962829Y-84670014D01*
X187303011Y-84442711D01*
X187592311Y-84153411D01*
X187819614Y-83813229D01*
X187976182Y-83435239D01*
X188056000Y-83033967D01*
X188056000Y-82624833D01*
X187976182Y-82223561D01*
X187819614Y-81845571D01*
X187592311Y-81505389D01*
X187303011Y-81216089D01*
X186962829Y-80988786D01*
X186584839Y-80832218D01*
X186183567Y-80752400D01*
X185774433Y-80752400D01*
X185373161Y-80832218D01*
X184995171Y-80988786D01*
X184654989Y-81216089D01*
X184365689Y-81505389D01*
X184250755Y-81677400D01*
X168433187Y-81677400D01*
X168376600Y-81671827D01*
X168320013Y-81677400D01*
X168320005Y-81677400D01*
X168170590Y-81692116D01*
X168150768Y-81694068D01*
X168084895Y-81714051D01*
X167933616Y-81759941D01*
X167733486Y-81866912D01*
X167733484Y-81866913D01*
X167733485Y-81866913D01*
X167602031Y-81974795D01*
X167602029Y-81974797D01*
X167558072Y-82010872D01*
X167521997Y-82054829D01*
X158151827Y-91425000D01*
X158090422Y-91425000D01*
X157793090Y-91484142D01*
X157513010Y-91600156D01*
X157260944Y-91768580D01*
X157046580Y-91982944D01*
X156972000Y-92094562D01*
X156897420Y-91982944D01*
X156683056Y-91768580D01*
X156430990Y-91600156D01*
X156150910Y-91484142D01*
X155853578Y-91425000D01*
X155550422Y-91425000D01*
X155253090Y-91484142D01*
X154973010Y-91600156D01*
X154720944Y-91768580D01*
X154506580Y-91982944D01*
X154338156Y-92235010D01*
X154222142Y-92515090D01*
X154219251Y-92529627D01*
X154174913Y-92422587D01*
X154049826Y-92235380D01*
X153890620Y-92076174D01*
X153703413Y-91951087D01*
X153495401Y-91864925D01*
X153274576Y-91821000D01*
X153049424Y-91821000D01*
X152828599Y-91864925D01*
X152620587Y-91951087D01*
X152571700Y-91983752D01*
X152571700Y-81244248D01*
X152620587Y-81276913D01*
X152828599Y-81363075D01*
X153049424Y-81407000D01*
X153274576Y-81407000D01*
X153495401Y-81363075D01*
X153530814Y-81348406D01*
X153884328Y-81701920D01*
X153900173Y-81721227D01*
X153977221Y-81784459D01*
X154065125Y-81831445D01*
X154160506Y-81860378D01*
X154170394Y-81861352D01*
X154234846Y-81867700D01*
X154234853Y-81867700D01*
X154259699Y-81870147D01*
X154284545Y-81867700D01*
X156125654Y-81867700D01*
X156150500Y-81870147D01*
X156175346Y-81867700D01*
X156175354Y-81867700D01*
X156249693Y-81860378D01*
X156345075Y-81831445D01*
X156432979Y-81784459D01*
X156510027Y-81721227D01*
X156525876Y-81701915D01*
X157306509Y-80921283D01*
X157354174Y-80992620D01*
X157513380Y-81151826D01*
X157700587Y-81276913D01*
X157908599Y-81363075D01*
X158129424Y-81407000D01*
X158354576Y-81407000D01*
X158575401Y-81363075D01*
X158783413Y-81276913D01*
X158970620Y-81151826D01*
X159129826Y-80992620D01*
X159254913Y-80805413D01*
X159341075Y-80597401D01*
X159385000Y-80376576D01*
X159385000Y-80151424D01*
X159639000Y-80151424D01*
X159639000Y-80376576D01*
X159682925Y-80597401D01*
X159769087Y-80805413D01*
X159894174Y-80992620D01*
X160053380Y-81151826D01*
X160240587Y-81276913D01*
X160448599Y-81363075D01*
X160669424Y-81407000D01*
X160894576Y-81407000D01*
X161115401Y-81363075D01*
X161323413Y-81276913D01*
X161510620Y-81151826D01*
X161669826Y-80992620D01*
X161794913Y-80805413D01*
X161881075Y-80597401D01*
X161925000Y-80376576D01*
X161925000Y-80151424D01*
X162179000Y-80151424D01*
X162179000Y-80376576D01*
X162222925Y-80597401D01*
X162309087Y-80805413D01*
X162434174Y-80992620D01*
X162593380Y-81151826D01*
X162780587Y-81276913D01*
X162988599Y-81363075D01*
X163209424Y-81407000D01*
X163434576Y-81407000D01*
X163655401Y-81363075D01*
X163863413Y-81276913D01*
X164050620Y-81151826D01*
X164209826Y-80992620D01*
X164334913Y-80805413D01*
X164421075Y-80597401D01*
X164465000Y-80376576D01*
X164465000Y-80151424D01*
X164719000Y-80151424D01*
X164719000Y-80376576D01*
X164762925Y-80597401D01*
X164849087Y-80805413D01*
X164974174Y-80992620D01*
X165133380Y-81151826D01*
X165320587Y-81276913D01*
X165528599Y-81363075D01*
X165749424Y-81407000D01*
X165974576Y-81407000D01*
X166195401Y-81363075D01*
X166403413Y-81276913D01*
X166590620Y-81151826D01*
X166749826Y-80992620D01*
X166874913Y-80805413D01*
X166961075Y-80597401D01*
X167005000Y-80376576D01*
X167005000Y-80151424D01*
X167259000Y-80151424D01*
X167259000Y-80376576D01*
X167302925Y-80597401D01*
X167389087Y-80805413D01*
X167514174Y-80992620D01*
X167673380Y-81151826D01*
X167860587Y-81276913D01*
X168068599Y-81363075D01*
X168289424Y-81407000D01*
X168514576Y-81407000D01*
X168735401Y-81363075D01*
X168943413Y-81276913D01*
X169130620Y-81151826D01*
X169289826Y-80992620D01*
X169414913Y-80805413D01*
X169501075Y-80597401D01*
X169545000Y-80376576D01*
X169545000Y-80151424D01*
X169501075Y-79930599D01*
X169414913Y-79722587D01*
X169289826Y-79535380D01*
X169130620Y-79376174D01*
X168943413Y-79251087D01*
X168735401Y-79164925D01*
X168514576Y-79121000D01*
X168289424Y-79121000D01*
X168068599Y-79164925D01*
X167860587Y-79251087D01*
X167673380Y-79376174D01*
X167514174Y-79535380D01*
X167389087Y-79722587D01*
X167302925Y-79930599D01*
X167259000Y-80151424D01*
X167005000Y-80151424D01*
X166961075Y-79930599D01*
X166874913Y-79722587D01*
X166749826Y-79535380D01*
X166590620Y-79376174D01*
X166403413Y-79251087D01*
X166195401Y-79164925D01*
X165974576Y-79121000D01*
X165749424Y-79121000D01*
X165528599Y-79164925D01*
X165320587Y-79251087D01*
X165133380Y-79376174D01*
X164974174Y-79535380D01*
X164849087Y-79722587D01*
X164762925Y-79930599D01*
X164719000Y-80151424D01*
X164465000Y-80151424D01*
X164421075Y-79930599D01*
X164334913Y-79722587D01*
X164209826Y-79535380D01*
X164050620Y-79376174D01*
X163863413Y-79251087D01*
X163655401Y-79164925D01*
X163434576Y-79121000D01*
X163209424Y-79121000D01*
X162988599Y-79164925D01*
X162780587Y-79251087D01*
X162593380Y-79376174D01*
X162434174Y-79535380D01*
X162309087Y-79722587D01*
X162222925Y-79930599D01*
X162179000Y-80151424D01*
X161925000Y-80151424D01*
X161881075Y-79930599D01*
X161794913Y-79722587D01*
X161669826Y-79535380D01*
X161510620Y-79376174D01*
X161323413Y-79251087D01*
X161115401Y-79164925D01*
X160894576Y-79121000D01*
X160669424Y-79121000D01*
X160448599Y-79164925D01*
X160240587Y-79251087D01*
X160053380Y-79376174D01*
X159894174Y-79535380D01*
X159769087Y-79722587D01*
X159682925Y-79930599D01*
X159639000Y-80151424D01*
X159385000Y-80151424D01*
X159341075Y-79930599D01*
X159326406Y-79895185D01*
X160616692Y-78604900D01*
X161873954Y-78604900D01*
X161898800Y-78607347D01*
X161923646Y-78604900D01*
X161923654Y-78604900D01*
X161997993Y-78597578D01*
X162093375Y-78568645D01*
X162181279Y-78521659D01*
X162258327Y-78458427D01*
X162274176Y-78439115D01*
X162974081Y-77739211D01*
X163111614Y-77876744D01*
X163315461Y-78012950D01*
X163541964Y-78106771D01*
X163782418Y-78154600D01*
X164027582Y-78154600D01*
X164268036Y-78106771D01*
X164494539Y-78012950D01*
X164698386Y-77876744D01*
X164871744Y-77703386D01*
X165007950Y-77499539D01*
X165101771Y-77273036D01*
X165149600Y-77032582D01*
X165149600Y-76787418D01*
X165200400Y-76787418D01*
X165200400Y-77032582D01*
X165248229Y-77273036D01*
X165342050Y-77499539D01*
X165478256Y-77703386D01*
X165651614Y-77876744D01*
X165855461Y-78012950D01*
X166081964Y-78106771D01*
X166322418Y-78154600D01*
X166567582Y-78154600D01*
X166808036Y-78106771D01*
X167034539Y-78012950D01*
X167238386Y-77876744D01*
X167411744Y-77703386D01*
X167547950Y-77499539D01*
X167641771Y-77273036D01*
X167689600Y-77032582D01*
X167689600Y-76787418D01*
X167740400Y-76787418D01*
X167740400Y-77032582D01*
X167788229Y-77273036D01*
X167882050Y-77499539D01*
X168018256Y-77703386D01*
X168191614Y-77876744D01*
X168395461Y-78012950D01*
X168621964Y-78106771D01*
X168862418Y-78154600D01*
X169107582Y-78154600D01*
X169348036Y-78106771D01*
X169574539Y-78012950D01*
X169778386Y-77876744D01*
X169951744Y-77703386D01*
X170087950Y-77499539D01*
X170181771Y-77273036D01*
X170229600Y-77032582D01*
X170229600Y-76787418D01*
X170280400Y-76787418D01*
X170280400Y-77032582D01*
X170328229Y-77273036D01*
X170422050Y-77499539D01*
X170558256Y-77703386D01*
X170731614Y-77876744D01*
X170935461Y-78012950D01*
X171161964Y-78106771D01*
X171402418Y-78154600D01*
X171647582Y-78154600D01*
X171888036Y-78106771D01*
X172114539Y-78012950D01*
X172318386Y-77876744D01*
X172491744Y-77703386D01*
X172597685Y-77544833D01*
X183902000Y-77544833D01*
X183902000Y-77953967D01*
X183981818Y-78355239D01*
X184138386Y-78733229D01*
X184365689Y-79073411D01*
X184654989Y-79362711D01*
X184995171Y-79590014D01*
X185373161Y-79746582D01*
X185774433Y-79826400D01*
X186183567Y-79826400D01*
X186584839Y-79746582D01*
X186962829Y-79590014D01*
X187303011Y-79362711D01*
X187592311Y-79073411D01*
X187819614Y-78733229D01*
X187976182Y-78355239D01*
X188056000Y-77953967D01*
X188056000Y-77544833D01*
X187976182Y-77143561D01*
X187819614Y-76765571D01*
X187592311Y-76425389D01*
X187303011Y-76136089D01*
X186962829Y-75908786D01*
X186584839Y-75752218D01*
X186183567Y-75672400D01*
X185774433Y-75672400D01*
X185373161Y-75752218D01*
X184995171Y-75908786D01*
X184654989Y-76136089D01*
X184365689Y-76425389D01*
X184138386Y-76765571D01*
X183981818Y-77143561D01*
X183902000Y-77544833D01*
X172597685Y-77544833D01*
X172627950Y-77499539D01*
X172721771Y-77273036D01*
X172769600Y-77032582D01*
X172769600Y-76787418D01*
X172721771Y-76546964D01*
X172627950Y-76320461D01*
X172491744Y-76116614D01*
X172318386Y-75943256D01*
X172114539Y-75807050D01*
X171888036Y-75713229D01*
X171647582Y-75665400D01*
X171402418Y-75665400D01*
X171161964Y-75713229D01*
X170935461Y-75807050D01*
X170731614Y-75943256D01*
X170558256Y-76116614D01*
X170422050Y-76320461D01*
X170328229Y-76546964D01*
X170280400Y-76787418D01*
X170229600Y-76787418D01*
X170181771Y-76546964D01*
X170087950Y-76320461D01*
X169951744Y-76116614D01*
X169778386Y-75943256D01*
X169574539Y-75807050D01*
X169348036Y-75713229D01*
X169107582Y-75665400D01*
X168862418Y-75665400D01*
X168621964Y-75713229D01*
X168395461Y-75807050D01*
X168191614Y-75943256D01*
X168018256Y-76116614D01*
X167882050Y-76320461D01*
X167788229Y-76546964D01*
X167740400Y-76787418D01*
X167689600Y-76787418D01*
X167641771Y-76546964D01*
X167547950Y-76320461D01*
X167411744Y-76116614D01*
X167238386Y-75943256D01*
X167034539Y-75807050D01*
X166808036Y-75713229D01*
X166567582Y-75665400D01*
X166322418Y-75665400D01*
X166081964Y-75713229D01*
X165855461Y-75807050D01*
X165651614Y-75943256D01*
X165478256Y-76116614D01*
X165342050Y-76320461D01*
X165248229Y-76546964D01*
X165200400Y-76787418D01*
X165149600Y-76787418D01*
X165101771Y-76546964D01*
X165007950Y-76320461D01*
X164871744Y-76116614D01*
X164698386Y-75943256D01*
X164494539Y-75807050D01*
X164268036Y-75713229D01*
X164027582Y-75665400D01*
X163782418Y-75665400D01*
X163541964Y-75713229D01*
X163315461Y-75807050D01*
X163111614Y-75943256D01*
X162938256Y-76116614D01*
X162802050Y-76320461D01*
X162767447Y-76404000D01*
X162740954Y-76404000D01*
X162716100Y-76401552D01*
X162691246Y-76404000D01*
X162616907Y-76411322D01*
X162521525Y-76440255D01*
X162518287Y-76441986D01*
X162467950Y-76320461D01*
X162331744Y-76116614D01*
X162158386Y-75943256D01*
X161954539Y-75807050D01*
X161728036Y-75713229D01*
X161487582Y-75665400D01*
X161242418Y-75665400D01*
X161001964Y-75713229D01*
X160775461Y-75807050D01*
X160571614Y-75943256D01*
X160398256Y-76116614D01*
X160262050Y-76320461D01*
X160227447Y-76404000D01*
X160200954Y-76404000D01*
X160176100Y-76401552D01*
X160151246Y-76404000D01*
X160076907Y-76411322D01*
X159981525Y-76440255D01*
X159978287Y-76441986D01*
X159927950Y-76320461D01*
X159791744Y-76116614D01*
X159618386Y-75943256D01*
X159414539Y-75807050D01*
X159188036Y-75713229D01*
X158947582Y-75665400D01*
X158702418Y-75665400D01*
X158461964Y-75713229D01*
X158235461Y-75807050D01*
X158031614Y-75943256D01*
X157893031Y-76081839D01*
X157169576Y-75358385D01*
X157153727Y-75339073D01*
X157076679Y-75275841D01*
X156988775Y-75228855D01*
X156893393Y-75199922D01*
X156819054Y-75192600D01*
X156819046Y-75192600D01*
X156794200Y-75190153D01*
X156769354Y-75192600D01*
X153270454Y-75192600D01*
X153245600Y-75190152D01*
X153220746Y-75192600D01*
X153146407Y-75199922D01*
X153051025Y-75228855D01*
X152963121Y-75275841D01*
X152886073Y-75339073D01*
X152870228Y-75358380D01*
X150822756Y-77405852D01*
X150877771Y-77273036D01*
X150925600Y-77032582D01*
X150925600Y-76787418D01*
X150877771Y-76546964D01*
X150783950Y-76320461D01*
X150647744Y-76116614D01*
X150474386Y-75943256D01*
X150270539Y-75807050D01*
X150044036Y-75713229D01*
X149803582Y-75665400D01*
X149558418Y-75665400D01*
X149317964Y-75713229D01*
X149091461Y-75807050D01*
X148887614Y-75943256D01*
X148714256Y-76116614D01*
X148578050Y-76320461D01*
X148484229Y-76546964D01*
X148436400Y-76787418D01*
X148436400Y-77032582D01*
X148484229Y-77273036D01*
X148578050Y-77499539D01*
X148714256Y-77703386D01*
X148887614Y-77876744D01*
X149086735Y-78009792D01*
X149064855Y-78050726D01*
X149035922Y-78146108D01*
X149026153Y-78245300D01*
X149028601Y-78270156D01*
X149028601Y-79270909D01*
X147754578Y-77996887D01*
X147934386Y-77876744D01*
X148107744Y-77703386D01*
X148243950Y-77499539D01*
X148337771Y-77273036D01*
X148385600Y-77032582D01*
X148385600Y-76787418D01*
X148337771Y-76546964D01*
X148243950Y-76320461D01*
X148107744Y-76116614D01*
X147934386Y-75943256D01*
X147730539Y-75807050D01*
X147504036Y-75713229D01*
X147263582Y-75665400D01*
X147018418Y-75665400D01*
X146777964Y-75713229D01*
X146551461Y-75807050D01*
X146347614Y-75943256D01*
X146174256Y-76116614D01*
X146038050Y-76320461D01*
X145944229Y-76546964D01*
X145896400Y-76787418D01*
X145896400Y-77032582D01*
X145944229Y-77273036D01*
X146038050Y-77499539D01*
X146174256Y-77703386D01*
X146347614Y-77876744D01*
X146551461Y-78012950D01*
X146635001Y-78047554D01*
X146635001Y-78074044D01*
X146632553Y-78098900D01*
X146642322Y-78198092D01*
X146671255Y-78293474D01*
X146671256Y-78293475D01*
X146718242Y-78381379D01*
X146781474Y-78458427D01*
X146800779Y-78474270D01*
X148578201Y-80251693D01*
X148578200Y-93917170D01*
X148529444Y-93844201D01*
X148197799Y-93512556D01*
X147807827Y-93251985D01*
X147374512Y-93072500D01*
X146914508Y-92981000D01*
X146445492Y-92981000D01*
X145985488Y-93072500D01*
X145552173Y-93251985D01*
X145162201Y-93512556D01*
X144855400Y-93819357D01*
X144855400Y-78560091D01*
X144941215Y-78474276D01*
X144960527Y-78458427D01*
X145023759Y-78381379D01*
X145070745Y-78293475D01*
X145085612Y-78244464D01*
X145099678Y-78198094D01*
X145103831Y-78155925D01*
X145107000Y-78123754D01*
X145107000Y-78123747D01*
X145109447Y-78098901D01*
X145107000Y-78074055D01*
X145107000Y-78047553D01*
X145190539Y-78012950D01*
X145394386Y-77876744D01*
X145567744Y-77703386D01*
X145703950Y-77499539D01*
X145797771Y-77273036D01*
X145845600Y-77032582D01*
X145845600Y-76787418D01*
X145797771Y-76546964D01*
X145703950Y-76320461D01*
X145567744Y-76116614D01*
X145394386Y-75943256D01*
X145190539Y-75807050D01*
X144964036Y-75713229D01*
X144723582Y-75665400D01*
X144478418Y-75665400D01*
X144237964Y-75713229D01*
X144011461Y-75807050D01*
X143807614Y-75943256D01*
X143634256Y-76116614D01*
X143498050Y-76320461D01*
X143404229Y-76546964D01*
X143356400Y-76787418D01*
X143356400Y-77032582D01*
X143404229Y-77273036D01*
X143498050Y-77499539D01*
X143634256Y-77703386D01*
X143807614Y-77876744D01*
X143985871Y-77995851D01*
X143926642Y-78068021D01*
X143910137Y-78098900D01*
X143879655Y-78155926D01*
X143850722Y-78251308D01*
X143840953Y-78350500D01*
X143843401Y-78375356D01*
X143843400Y-98249809D01*
X142567000Y-96973409D01*
X142567000Y-78047553D01*
X142650539Y-78012950D01*
X142854386Y-77876744D01*
X143027744Y-77703386D01*
X143163950Y-77499539D01*
X143257771Y-77273036D01*
X143305600Y-77032582D01*
X143305600Y-76787418D01*
X143257771Y-76546964D01*
X143163950Y-76320461D01*
X143027744Y-76116614D01*
X142854386Y-75943256D01*
X142650539Y-75807050D01*
X142424036Y-75713229D01*
X142183582Y-75665400D01*
X141938418Y-75665400D01*
X141697964Y-75713229D01*
X141471461Y-75807050D01*
X141267614Y-75943256D01*
X141094256Y-76116614D01*
X140958050Y-76320461D01*
X140864229Y-76546964D01*
X140816400Y-76787418D01*
X140816400Y-77032582D01*
X140864229Y-77273036D01*
X140958050Y-77499539D01*
X141094256Y-77703386D01*
X141267614Y-77876744D01*
X141471461Y-78012950D01*
X141555000Y-78047553D01*
X141555000Y-86118809D01*
X139463843Y-84027652D01*
X139463843Y-83135399D01*
X139451683Y-83011938D01*
X139415671Y-82893221D01*
X139357190Y-82783811D01*
X139278488Y-82687912D01*
X139182589Y-82609210D01*
X139073179Y-82550729D01*
X138954462Y-82514717D01*
X138831001Y-82502557D01*
X138130999Y-82502557D01*
X138007538Y-82514717D01*
X137888821Y-82550729D01*
X137779411Y-82609210D01*
X137703061Y-82671869D01*
X137186976Y-82155785D01*
X137171127Y-82136473D01*
X137094079Y-82073241D01*
X137006175Y-82026255D01*
X136910793Y-81997322D01*
X136836454Y-81990000D01*
X136836446Y-81990000D01*
X136811600Y-81987553D01*
X136786754Y-81990000D01*
X126961254Y-81990000D01*
X126936400Y-81987552D01*
X126911546Y-81990000D01*
X126837207Y-81997322D01*
X126741825Y-82026255D01*
X126653921Y-82073241D01*
X126576873Y-82136473D01*
X126561028Y-82155780D01*
X125970623Y-82746185D01*
X125872651Y-82665782D01*
X125702229Y-82574689D01*
X125651263Y-82559229D01*
X129605592Y-78604900D01*
X137489954Y-78604900D01*
X137514800Y-78607347D01*
X137539646Y-78604900D01*
X137539654Y-78604900D01*
X137613993Y-78597578D01*
X137709375Y-78568645D01*
X137797279Y-78521659D01*
X137874327Y-78458427D01*
X137890176Y-78439115D01*
X138590081Y-77739211D01*
X138727614Y-77876744D01*
X138931461Y-78012950D01*
X139157964Y-78106771D01*
X139398418Y-78154600D01*
X139643582Y-78154600D01*
X139884036Y-78106771D01*
X140110539Y-78012950D01*
X140314386Y-77876744D01*
X140487744Y-77703386D01*
X140623950Y-77499539D01*
X140717771Y-77273036D01*
X140765600Y-77032582D01*
X140765600Y-76787418D01*
X140717771Y-76546964D01*
X140623950Y-76320461D01*
X140487744Y-76116614D01*
X140314386Y-75943256D01*
X140110539Y-75807050D01*
X139884036Y-75713229D01*
X139643582Y-75665400D01*
X139398418Y-75665400D01*
X139157964Y-75713229D01*
X138931461Y-75807050D01*
X138727614Y-75943256D01*
X138554256Y-76116614D01*
X138418050Y-76320461D01*
X138383447Y-76404000D01*
X138356954Y-76404000D01*
X138332100Y-76401552D01*
X138307246Y-76404000D01*
X138232907Y-76411322D01*
X138137525Y-76440255D01*
X138134287Y-76441986D01*
X138083950Y-76320461D01*
X137947744Y-76116614D01*
X137774386Y-75943256D01*
X137570539Y-75807050D01*
X137344036Y-75713229D01*
X137103582Y-75665400D01*
X136858418Y-75665400D01*
X136617964Y-75713229D01*
X136391461Y-75807050D01*
X136187614Y-75943256D01*
X136014256Y-76116614D01*
X135878050Y-76320461D01*
X135847441Y-76394358D01*
X135723684Y-76135056D01*
X135547854Y-75899707D01*
X135329488Y-75703183D01*
X135076978Y-75553036D01*
X134800027Y-75455037D01*
X134568000Y-75575536D01*
X134568000Y-76783000D01*
X134588000Y-76783000D01*
X134588000Y-77037000D01*
X134568000Y-77037000D01*
X134568000Y-77057000D01*
X134314000Y-77057000D01*
X134314000Y-77037000D01*
X134294000Y-77037000D01*
X134294000Y-76783000D01*
X134314000Y-76783000D01*
X134314000Y-75575536D01*
X134081973Y-75455037D01*
X133805022Y-75553036D01*
X133552512Y-75703183D01*
X133334146Y-75899707D01*
X133158316Y-76135056D01*
X133034559Y-76394358D01*
X133003950Y-76320461D01*
X132867744Y-76116614D01*
X132694386Y-75943256D01*
X132490539Y-75807050D01*
X132264036Y-75713229D01*
X132023582Y-75665400D01*
X131778418Y-75665400D01*
X131537964Y-75713229D01*
X131311461Y-75807050D01*
X131107614Y-75943256D01*
X130934256Y-76116614D01*
X130798050Y-76320461D01*
X130704229Y-76546964D01*
X130656400Y-76787418D01*
X130656400Y-77032582D01*
X130704229Y-77273036D01*
X130798050Y-77499539D01*
X130860432Y-77592900D01*
X130401568Y-77592900D01*
X130463950Y-77499539D01*
X130557771Y-77273036D01*
X130605600Y-77032582D01*
X130605600Y-76787418D01*
X130557771Y-76546964D01*
X130463950Y-76320461D01*
X130327744Y-76116614D01*
X130154386Y-75943256D01*
X129950539Y-75807050D01*
X129724036Y-75713229D01*
X129483582Y-75665400D01*
X129238418Y-75665400D01*
X128997964Y-75713229D01*
X128771461Y-75807050D01*
X128567614Y-75943256D01*
X128394256Y-76116614D01*
X128258050Y-76320461D01*
X128164229Y-76546964D01*
X128116400Y-76787418D01*
X128116400Y-77032582D01*
X128164229Y-77273036D01*
X128258050Y-77499539D01*
X128394256Y-77703386D01*
X128567614Y-77876744D01*
X128768402Y-78010906D01*
X120800381Y-85978928D01*
X120781074Y-85994773D01*
X120717842Y-86071821D01*
X120692727Y-86118808D01*
X120670855Y-86159726D01*
X120641922Y-86255108D01*
X120632153Y-86354300D01*
X108432200Y-86354300D01*
X108432200Y-76787418D01*
X125576400Y-76787418D01*
X125576400Y-77032582D01*
X125624229Y-77273036D01*
X125718050Y-77499539D01*
X125854256Y-77703386D01*
X126027614Y-77876744D01*
X126231461Y-78012950D01*
X126457964Y-78106771D01*
X126698418Y-78154600D01*
X126943582Y-78154600D01*
X127184036Y-78106771D01*
X127410539Y-78012950D01*
X127614386Y-77876744D01*
X127787744Y-77703386D01*
X127923950Y-77499539D01*
X128017771Y-77273036D01*
X128065600Y-77032582D01*
X128065600Y-76787418D01*
X128017771Y-76546964D01*
X127923950Y-76320461D01*
X127787744Y-76116614D01*
X127614386Y-75943256D01*
X127410539Y-75807050D01*
X127184036Y-75713229D01*
X126943582Y-75665400D01*
X126698418Y-75665400D01*
X126457964Y-75713229D01*
X126231461Y-75807050D01*
X126027614Y-75943256D01*
X125854256Y-76116614D01*
X125718050Y-76320461D01*
X125624229Y-76546964D01*
X125576400Y-76787418D01*
X108432200Y-76787418D01*
X108432200Y-74777200D01*
X193650000Y-74777200D01*
X193650001Y-127305200D01*
G04 #@! TA.AperFunction,Conductor*
D26*
G36*
X193650001Y-127305200D02*
G01*
X174060704Y-127305200D01*
X174060673Y-127305197D01*
X174042681Y-127305200D01*
X174020859Y-127305200D01*
X174020822Y-127305204D01*
X126191181Y-127313179D01*
X125380502Y-127313179D01*
X125320853Y-127319054D01*
X125244322Y-127342269D01*
X125173790Y-127379969D01*
X125111969Y-127430705D01*
X125093450Y-127453270D01*
X124790000Y-127785392D01*
X124695883Y-127691275D01*
X125185548Y-127331088D01*
X125545849Y-126667118D01*
X125769694Y-125945615D01*
X125848480Y-125194305D01*
X125834948Y-125047418D01*
X134720400Y-125047418D01*
X134720400Y-125292582D01*
X134768229Y-125533036D01*
X134862050Y-125759539D01*
X134998256Y-125963386D01*
X135171614Y-126136744D01*
X135375461Y-126272950D01*
X135601964Y-126366771D01*
X135842418Y-126414600D01*
X136087582Y-126414600D01*
X136328036Y-126366771D01*
X136554539Y-126272950D01*
X136758386Y-126136744D01*
X136931744Y-125963386D01*
X137067950Y-125759539D01*
X137161771Y-125533036D01*
X137209600Y-125292582D01*
X137209600Y-125047418D01*
X137260400Y-125047418D01*
X137260400Y-125292582D01*
X137308229Y-125533036D01*
X137402050Y-125759539D01*
X137538256Y-125963386D01*
X137711614Y-126136744D01*
X137915461Y-126272950D01*
X138141964Y-126366771D01*
X138382418Y-126414600D01*
X138627582Y-126414600D01*
X138868036Y-126366771D01*
X139094539Y-126272950D01*
X139298386Y-126136744D01*
X139471744Y-125963386D01*
X139607950Y-125759539D01*
X139701771Y-125533036D01*
X139749600Y-125292582D01*
X139749600Y-125047418D01*
X139800400Y-125047418D01*
X139800400Y-125292582D01*
X139848229Y-125533036D01*
X139942050Y-125759539D01*
X140078256Y-125963386D01*
X140251614Y-126136744D01*
X140455461Y-126272950D01*
X140681964Y-126366771D01*
X140922418Y-126414600D01*
X141167582Y-126414600D01*
X141408036Y-126366771D01*
X141634539Y-126272950D01*
X141838386Y-126136744D01*
X142011744Y-125963386D01*
X142147950Y-125759539D01*
X142241771Y-125533036D01*
X142289600Y-125292582D01*
X142289600Y-125047418D01*
X142340400Y-125047418D01*
X142340400Y-125292582D01*
X142388229Y-125533036D01*
X142482050Y-125759539D01*
X142618256Y-125963386D01*
X142791614Y-126136744D01*
X142995461Y-126272950D01*
X143221964Y-126366771D01*
X143462418Y-126414600D01*
X143707582Y-126414600D01*
X143948036Y-126366771D01*
X144174539Y-126272950D01*
X144378386Y-126136744D01*
X144551744Y-125963386D01*
X144687950Y-125759539D01*
X144781771Y-125533036D01*
X144829600Y-125292582D01*
X144829600Y-125047418D01*
X144781771Y-124806964D01*
X144687950Y-124580461D01*
X144551744Y-124376614D01*
X144378386Y-124203256D01*
X144174539Y-124067050D01*
X143948036Y-123973229D01*
X143707582Y-123925400D01*
X143462418Y-123925400D01*
X143221964Y-123973229D01*
X142995461Y-124067050D01*
X142791614Y-124203256D01*
X142618256Y-124376614D01*
X142482050Y-124580461D01*
X142388229Y-124806964D01*
X142340400Y-125047418D01*
X142289600Y-125047418D01*
X142241771Y-124806964D01*
X142147950Y-124580461D01*
X142011744Y-124376614D01*
X141838386Y-124203256D01*
X141634539Y-124067050D01*
X141408036Y-123973229D01*
X141167582Y-123925400D01*
X140922418Y-123925400D01*
X140681964Y-123973229D01*
X140455461Y-124067050D01*
X140251614Y-124203256D01*
X140078256Y-124376614D01*
X139942050Y-124580461D01*
X139848229Y-124806964D01*
X139800400Y-125047418D01*
X139749600Y-125047418D01*
X139701771Y-124806964D01*
X139607950Y-124580461D01*
X139471744Y-124376614D01*
X139298386Y-124203256D01*
X139094539Y-124067050D01*
X138868036Y-123973229D01*
X138627582Y-123925400D01*
X138382418Y-123925400D01*
X138141964Y-123973229D01*
X137915461Y-124067050D01*
X137711614Y-124203256D01*
X137538256Y-124376614D01*
X137402050Y-124580461D01*
X137308229Y-124806964D01*
X137260400Y-125047418D01*
X137209600Y-125047418D01*
X137161771Y-124806964D01*
X137067950Y-124580461D01*
X136931744Y-124376614D01*
X136758386Y-124203256D01*
X136554539Y-124067050D01*
X136328036Y-123973229D01*
X136087582Y-123925400D01*
X135842418Y-123925400D01*
X135601964Y-123973229D01*
X135375461Y-124067050D01*
X135171614Y-124203256D01*
X134998256Y-124376614D01*
X134862050Y-124580461D01*
X134768229Y-124806964D01*
X134720400Y-125047418D01*
X125834948Y-125047418D01*
X125779178Y-124442062D01*
X125564452Y-123717792D01*
X125212555Y-123049330D01*
X125185548Y-123008912D01*
X124695881Y-122648724D01*
X123677914Y-123666692D01*
X123498309Y-123487087D01*
X124516276Y-122469119D01*
X124156088Y-121979452D01*
X124135132Y-121968080D01*
X138895525Y-121968080D01*
X138979208Y-122222261D01*
X139251775Y-122353158D01*
X139544642Y-122428365D01*
X139846553Y-122444991D01*
X140145907Y-122402397D01*
X140431199Y-122302222D01*
X140580792Y-122222261D01*
X140664475Y-121968080D01*
X139780000Y-121083605D01*
X138895525Y-121968080D01*
X124135132Y-121968080D01*
X123492118Y-121619151D01*
X122770615Y-121395306D01*
X122019305Y-121316520D01*
X121267062Y-121385822D01*
X120542792Y-121600548D01*
X119874330Y-121952445D01*
X119833912Y-121979452D01*
X119473724Y-122469119D01*
X120491692Y-123487087D01*
X120312087Y-123666692D01*
X119294119Y-122648724D01*
X118804452Y-123008912D01*
X118444151Y-123672882D01*
X118220306Y-124394385D01*
X118141520Y-125145695D01*
X118210822Y-125897938D01*
X118425548Y-126622208D01*
X118777445Y-127290670D01*
X118804452Y-127331088D01*
X119294117Y-127691275D01*
X119190351Y-127795041D01*
X119146900Y-127755894D01*
X118897003Y-127453100D01*
X118872075Y-127422726D01*
X118810254Y-127371990D01*
X118774630Y-127352949D01*
X118774626Y-127352946D01*
X118774622Y-127352944D01*
X118739722Y-127334290D01*
X118701405Y-127322667D01*
X118701403Y-127322666D01*
X118701400Y-127322665D01*
X118663191Y-127311075D01*
X118603542Y-127305200D01*
X108432200Y-127305200D01*
X108432200Y-120970553D01*
X138239009Y-120970553D01*
X138281603Y-121269907D01*
X138381778Y-121555199D01*
X138461739Y-121704792D01*
X138715920Y-121788475D01*
X139600395Y-120904000D01*
X139959605Y-120904000D01*
X140844080Y-121788475D01*
X141098261Y-121704792D01*
X141171929Y-121551393D01*
X141284982Y-121720590D01*
X141463410Y-121899018D01*
X141673219Y-122039207D01*
X141906346Y-122135772D01*
X142153833Y-122185000D01*
X142406167Y-122185000D01*
X142653654Y-122135772D01*
X142886781Y-122039207D01*
X143096590Y-121899018D01*
X143275018Y-121720590D01*
X143415207Y-121510781D01*
X143511772Y-121277654D01*
X143530000Y-121186015D01*
X143548228Y-121277654D01*
X143644793Y-121510781D01*
X143784982Y-121720590D01*
X143963410Y-121899018D01*
X144173219Y-122039207D01*
X144274000Y-122080952D01*
X144274000Y-122611253D01*
X144271553Y-122636100D01*
X144274000Y-122660946D01*
X144274000Y-122660953D01*
X144281322Y-122735292D01*
X144310255Y-122830674D01*
X144357241Y-122918579D01*
X144420473Y-122995627D01*
X144439785Y-123011476D01*
X145511421Y-124083113D01*
X145331614Y-124203256D01*
X145158256Y-124376614D01*
X145022050Y-124580461D01*
X144928229Y-124806964D01*
X144880400Y-125047418D01*
X144880400Y-125292582D01*
X144928229Y-125533036D01*
X145022050Y-125759539D01*
X145158256Y-125963386D01*
X145331614Y-126136744D01*
X145535461Y-126272950D01*
X145761964Y-126366771D01*
X146002418Y-126414600D01*
X146247582Y-126414600D01*
X146488036Y-126366771D01*
X146714539Y-126272950D01*
X146918386Y-126136744D01*
X147091744Y-125963386D01*
X147227950Y-125759539D01*
X147258559Y-125685642D01*
X147382316Y-125944944D01*
X147558146Y-126180293D01*
X147776512Y-126376817D01*
X148029022Y-126526964D01*
X148305973Y-126624963D01*
X148538000Y-126504464D01*
X148538000Y-125297000D01*
X148792000Y-125297000D01*
X148792000Y-126504464D01*
X149024027Y-126624963D01*
X149300978Y-126526964D01*
X149553488Y-126376817D01*
X149771854Y-126180293D01*
X149935000Y-125961922D01*
X150098146Y-126180293D01*
X150316512Y-126376817D01*
X150569022Y-126526964D01*
X150845973Y-126624963D01*
X151078000Y-126504464D01*
X151078000Y-125297000D01*
X148792000Y-125297000D01*
X148538000Y-125297000D01*
X148518000Y-125297000D01*
X148518000Y-125043000D01*
X148538000Y-125043000D01*
X148538000Y-123835536D01*
X148792000Y-123835536D01*
X148792000Y-125043000D01*
X151078000Y-125043000D01*
X151078000Y-123835536D01*
X150845973Y-123715037D01*
X150569022Y-123813036D01*
X150316512Y-123963183D01*
X150098146Y-124159707D01*
X149935000Y-124378078D01*
X149771854Y-124159707D01*
X149553488Y-123963183D01*
X149300978Y-123813036D01*
X149024027Y-123715037D01*
X148792000Y-123835536D01*
X148538000Y-123835536D01*
X148305973Y-123715037D01*
X148029022Y-123813036D01*
X147776512Y-123963183D01*
X147558146Y-124159707D01*
X147382316Y-124395056D01*
X147258559Y-124654358D01*
X147227950Y-124580461D01*
X147091744Y-124376614D01*
X146918386Y-124203256D01*
X146714539Y-124067050D01*
X146631000Y-124032447D01*
X146631000Y-124005945D01*
X146633447Y-123981099D01*
X146631000Y-123956253D01*
X146631000Y-123956246D01*
X146623678Y-123881907D01*
X146621334Y-123874178D01*
X146594745Y-123786525D01*
X146580490Y-123759856D01*
X146547759Y-123698621D01*
X146484527Y-123621573D01*
X146465220Y-123605728D01*
X145286000Y-122426509D01*
X145286000Y-122080952D01*
X145386781Y-122039207D01*
X145596590Y-121899018D01*
X145775018Y-121720590D01*
X145915207Y-121510781D01*
X146011772Y-121277654D01*
X146061000Y-121030167D01*
X146061000Y-120777833D01*
X146011772Y-120530346D01*
X145915207Y-120297219D01*
X145775018Y-120087410D01*
X145596590Y-119908982D01*
X145386781Y-119768793D01*
X145153654Y-119672228D01*
X144906167Y-119623000D01*
X144653833Y-119623000D01*
X144406346Y-119672228D01*
X144173219Y-119768793D01*
X143963410Y-119908982D01*
X143784982Y-120087410D01*
X143644793Y-120297219D01*
X143548228Y-120530346D01*
X143530000Y-120621985D01*
X143511772Y-120530346D01*
X143415207Y-120297219D01*
X143275018Y-120087410D01*
X143096590Y-119908982D01*
X142886781Y-119768793D01*
X142653654Y-119672228D01*
X142406167Y-119623000D01*
X142153833Y-119623000D01*
X141906346Y-119672228D01*
X141673219Y-119768793D01*
X141463410Y-119908982D01*
X141284982Y-120087410D01*
X141176555Y-120249683D01*
X141098261Y-120103208D01*
X140844080Y-120019525D01*
X139959605Y-120904000D01*
X139600395Y-120904000D01*
X138715920Y-120019525D01*
X138461739Y-120103208D01*
X138330842Y-120375775D01*
X138255635Y-120668642D01*
X138239009Y-120970553D01*
X108432200Y-120970553D01*
X108432200Y-119839920D01*
X138895525Y-119839920D01*
X139780000Y-120724395D01*
X140664475Y-119839920D01*
X140580792Y-119585739D01*
X140308225Y-119454842D01*
X140015358Y-119379635D01*
X139713447Y-119363009D01*
X139414093Y-119405603D01*
X139128801Y-119505778D01*
X138979208Y-119585739D01*
X138895525Y-119839920D01*
X108432200Y-119839920D01*
X108432200Y-107131741D01*
X108434164Y-107111800D01*
X108426325Y-107032210D01*
X108403110Y-106955679D01*
X108365410Y-106885147D01*
X108314674Y-106823326D01*
X108252853Y-106772590D01*
X108182321Y-106734890D01*
X108105790Y-106711675D01*
X108046141Y-106705800D01*
X108026200Y-106703836D01*
X108006260Y-106705800D01*
X102183800Y-106705800D01*
X102183800Y-106642436D01*
X111301000Y-106642436D01*
X111301000Y-106973564D01*
X111365600Y-107298330D01*
X111492317Y-107604252D01*
X111676282Y-107879575D01*
X111910425Y-108113718D01*
X112185748Y-108297683D01*
X112491670Y-108424400D01*
X112816436Y-108489000D01*
X113147564Y-108489000D01*
X113472330Y-108424400D01*
X113778252Y-108297683D01*
X114053575Y-108113718D01*
X114287718Y-107879575D01*
X114471683Y-107604252D01*
X114598400Y-107298330D01*
X114663000Y-106973564D01*
X114663000Y-106642436D01*
X114598400Y-106317670D01*
X114471683Y-106011748D01*
X114287718Y-105736425D01*
X114053575Y-105502282D01*
X113778252Y-105318317D01*
X113472330Y-105191600D01*
X113147564Y-105127000D01*
X112816436Y-105127000D01*
X112491670Y-105191600D01*
X112185748Y-105318317D01*
X111910425Y-105502282D01*
X111676282Y-105736425D01*
X111492317Y-106011748D01*
X111365600Y-106317670D01*
X111301000Y-106642436D01*
X102183800Y-106642436D01*
X102183800Y-103457224D01*
X108812381Y-103457224D01*
X108944317Y-103752312D01*
X109285045Y-103923159D01*
X109652557Y-104024250D01*
X110032729Y-104051701D01*
X110410951Y-104004457D01*
X110772690Y-103884333D01*
X111019683Y-103752312D01*
X111151619Y-103457224D01*
X109982000Y-102287605D01*
X108812381Y-103457224D01*
X102183800Y-103457224D01*
X102183800Y-102158729D01*
X108038299Y-102158729D01*
X108085543Y-102536951D01*
X108205667Y-102898690D01*
X108337688Y-103145683D01*
X108632776Y-103277619D01*
X109802395Y-102108000D01*
X110161605Y-102108000D01*
X111331224Y-103277619D01*
X111626312Y-103145683D01*
X111797159Y-102804955D01*
X111898250Y-102437443D01*
X111925701Y-102057271D01*
X111878457Y-101679049D01*
X111758333Y-101317310D01*
X111626312Y-101070317D01*
X111331224Y-100938381D01*
X110161605Y-102108000D01*
X109802395Y-102108000D01*
X108632776Y-100938381D01*
X108337688Y-101070317D01*
X108166841Y-101411045D01*
X108065750Y-101778557D01*
X108038299Y-102158729D01*
X102183800Y-102158729D01*
X102183800Y-100758776D01*
X108812381Y-100758776D01*
X109982000Y-101928395D01*
X111102395Y-100808000D01*
X113901241Y-100808000D01*
X113901241Y-103408000D01*
X113916243Y-103560319D01*
X113960673Y-103706784D01*
X114032823Y-103841766D01*
X114129920Y-103960080D01*
X114248234Y-104057177D01*
X114383216Y-104129327D01*
X114529681Y-104173757D01*
X114682000Y-104188759D01*
X117282000Y-104188759D01*
X117434319Y-104173757D01*
X117580784Y-104129327D01*
X117715766Y-104057177D01*
X117834080Y-103960080D01*
X117931177Y-103841766D01*
X118003327Y-103706784D01*
X118047757Y-103560319D01*
X118062759Y-103408000D01*
X118062759Y-100808000D01*
X118047757Y-100655681D01*
X118003327Y-100509216D01*
X117931177Y-100374234D01*
X117834080Y-100255920D01*
X117715766Y-100158823D01*
X117580784Y-100086673D01*
X117434319Y-100042243D01*
X117282000Y-100027241D01*
X114682000Y-100027241D01*
X114529681Y-100042243D01*
X114383216Y-100086673D01*
X114248234Y-100158823D01*
X114129920Y-100255920D01*
X114032823Y-100374234D01*
X113960673Y-100509216D01*
X113916243Y-100655681D01*
X113901241Y-100808000D01*
X111102395Y-100808000D01*
X111151619Y-100758776D01*
X111019683Y-100463688D01*
X110678955Y-100292841D01*
X110311443Y-100191750D01*
X109931271Y-100164299D01*
X109553049Y-100211543D01*
X109191310Y-100331667D01*
X108944317Y-100463688D01*
X108812381Y-100758776D01*
X102183800Y-100758776D01*
X102183800Y-97510200D01*
X108006260Y-97510200D01*
X108026200Y-97512164D01*
X108057787Y-97509053D01*
X108105790Y-97504325D01*
X108182321Y-97481110D01*
X108252853Y-97443410D01*
X108314674Y-97392674D01*
X108365410Y-97330853D01*
X108403110Y-97260321D01*
X108426325Y-97183790D01*
X108434164Y-97104200D01*
X108432200Y-97084259D01*
X108432200Y-86354300D01*
X120632153Y-86354300D01*
X120634601Y-86379156D01*
X120634600Y-107130454D01*
X120632153Y-107155300D01*
X120634600Y-107180146D01*
X120634600Y-107180153D01*
X120641922Y-107254492D01*
X120670855Y-107349874D01*
X120717841Y-107437779D01*
X120781073Y-107514827D01*
X120800385Y-107530676D01*
X122542865Y-109273157D01*
X121466000Y-109273157D01*
X121391311Y-109280513D01*
X121319492Y-109302299D01*
X121253304Y-109337678D01*
X121195289Y-109385289D01*
X121147678Y-109443304D01*
X121112299Y-109509492D01*
X121090513Y-109581311D01*
X121083157Y-109656000D01*
X121083157Y-113356000D01*
X121090513Y-113430689D01*
X121112299Y-113502508D01*
X121147678Y-113568696D01*
X121195289Y-113626711D01*
X121253304Y-113674322D01*
X121319492Y-113709701D01*
X121391311Y-113731487D01*
X121466000Y-113738843D01*
X125166000Y-113738843D01*
X125240689Y-113731487D01*
X125312508Y-113709701D01*
X125378696Y-113674322D01*
X125436711Y-113626711D01*
X125484322Y-113568696D01*
X125519701Y-113502508D01*
X125541487Y-113430689D01*
X125548843Y-113356000D01*
X125548843Y-113246772D01*
X126454833Y-113246772D01*
X126652931Y-113598168D01*
X127087284Y-113823890D01*
X127557327Y-113960536D01*
X128044996Y-114002856D01*
X128531552Y-113949222D01*
X128998294Y-113801697D01*
X129379069Y-113598168D01*
X129577167Y-113246772D01*
X128016000Y-111685605D01*
X126454833Y-113246772D01*
X125548843Y-113246772D01*
X125548843Y-111804419D01*
X125572778Y-112021552D01*
X125720303Y-112488294D01*
X125923832Y-112869069D01*
X126275228Y-113067167D01*
X127836395Y-111506000D01*
X128195605Y-111506000D01*
X129756772Y-113067167D01*
X130108168Y-112869069D01*
X130333890Y-112434716D01*
X130470536Y-111964673D01*
X130489366Y-111747685D01*
X130570736Y-112156759D01*
X130738913Y-112562775D01*
X130983069Y-112928180D01*
X131293820Y-113238931D01*
X131659225Y-113483087D01*
X132065241Y-113651264D01*
X132496266Y-113737000D01*
X132935734Y-113737000D01*
X133275120Y-113669492D01*
X135499000Y-113669492D01*
X135499000Y-114138508D01*
X135590500Y-114598512D01*
X135769985Y-115031827D01*
X136030556Y-115421799D01*
X136362201Y-115753444D01*
X136752173Y-116014015D01*
X137185488Y-116193500D01*
X137645492Y-116285000D01*
X138114508Y-116285000D01*
X138574512Y-116193500D01*
X139007827Y-116014015D01*
X139397799Y-115753444D01*
X139729444Y-115421799D01*
X139990015Y-115031827D01*
X140169500Y-114598512D01*
X140261000Y-114138508D01*
X140261000Y-113669492D01*
X140169500Y-113209488D01*
X139990015Y-112776173D01*
X139729444Y-112386201D01*
X139397799Y-112054556D01*
X139007827Y-111793985D01*
X138574512Y-111614500D01*
X138114508Y-111523000D01*
X137645492Y-111523000D01*
X137185488Y-111614500D01*
X136752173Y-111793985D01*
X136362201Y-112054556D01*
X136030556Y-112386201D01*
X135769985Y-112776173D01*
X135590500Y-113209488D01*
X135499000Y-113669492D01*
X133275120Y-113669492D01*
X133366759Y-113651264D01*
X133772775Y-113483087D01*
X134138180Y-113238931D01*
X134448931Y-112928180D01*
X134693087Y-112562775D01*
X134861264Y-112156759D01*
X134947000Y-111725734D01*
X134947000Y-111286266D01*
X134861264Y-110855241D01*
X134693087Y-110449225D01*
X134448931Y-110083820D01*
X134138180Y-109773069D01*
X133772775Y-109528913D01*
X133366759Y-109360736D01*
X132935734Y-109275000D01*
X132496266Y-109275000D01*
X132065241Y-109360736D01*
X131659225Y-109528913D01*
X131293820Y-109773069D01*
X130983069Y-110083820D01*
X130738913Y-110449225D01*
X130570736Y-110855241D01*
X130489395Y-111264171D01*
X130459222Y-110990448D01*
X130311697Y-110523706D01*
X130108168Y-110142931D01*
X129756772Y-109944833D01*
X128195605Y-111506000D01*
X127836395Y-111506000D01*
X126275228Y-109944833D01*
X125923832Y-110142931D01*
X125698110Y-110577284D01*
X125561464Y-111047327D01*
X125548843Y-111192763D01*
X125548843Y-109765228D01*
X126454833Y-109765228D01*
X128016000Y-111326395D01*
X129577167Y-109765228D01*
X129379069Y-109413832D01*
X128944716Y-109188110D01*
X128474673Y-109051464D01*
X127987004Y-109009144D01*
X127500448Y-109062778D01*
X127033706Y-109210303D01*
X126652931Y-109413832D01*
X126454833Y-109765228D01*
X125548843Y-109765228D01*
X125548843Y-109656000D01*
X125541487Y-109581311D01*
X125519701Y-109509492D01*
X125484322Y-109443304D01*
X125436711Y-109385289D01*
X125378696Y-109337678D01*
X125312508Y-109302299D01*
X125240689Y-109280513D01*
X125166000Y-109273157D01*
X123818780Y-109273157D01*
X123814678Y-109231507D01*
X123785745Y-109136125D01*
X123738759Y-109048221D01*
X123675527Y-108971173D01*
X123656220Y-108955328D01*
X121646600Y-106945709D01*
X121646600Y-104848843D01*
X125166000Y-104848843D01*
X125240689Y-104841487D01*
X125312508Y-104819701D01*
X125378696Y-104784322D01*
X125436711Y-104736711D01*
X125484322Y-104678696D01*
X125519701Y-104612508D01*
X125541487Y-104540689D01*
X125548843Y-104466000D01*
X125548843Y-103524438D01*
X125687983Y-103860351D01*
X125975476Y-104290615D01*
X126341385Y-104656524D01*
X126771649Y-104944017D01*
X127249732Y-105142046D01*
X127757263Y-105243000D01*
X128274737Y-105243000D01*
X128782268Y-105142046D01*
X129260351Y-104944017D01*
X129690615Y-104656524D01*
X130056524Y-104290615D01*
X130344017Y-103860351D01*
X130366000Y-103807279D01*
X130387983Y-103860351D01*
X130675476Y-104290615D01*
X131041385Y-104656524D01*
X131471649Y-104944017D01*
X131949732Y-105142046D01*
X132457263Y-105243000D01*
X132974737Y-105243000D01*
X133482268Y-105142046D01*
X133960351Y-104944017D01*
X134390615Y-104656524D01*
X134756524Y-104290615D01*
X134900301Y-104075438D01*
X134900301Y-106488244D01*
X134897853Y-106513100D01*
X134907622Y-106612292D01*
X134936555Y-106707674D01*
X134936556Y-106707675D01*
X134983542Y-106795579D01*
X135046774Y-106872627D01*
X135066081Y-106888472D01*
X151969000Y-123791392D01*
X151969000Y-123889160D01*
X151840978Y-123813036D01*
X151564027Y-123715037D01*
X151332000Y-123835536D01*
X151332000Y-125043000D01*
X151352000Y-125043000D01*
X151352000Y-125297000D01*
X151332000Y-125297000D01*
X151332000Y-126504464D01*
X151564027Y-126624963D01*
X151840978Y-126526964D01*
X152093488Y-126376817D01*
X152292458Y-126197749D01*
X152817328Y-126722620D01*
X152833173Y-126741927D01*
X152910221Y-126805159D01*
X152998125Y-126852145D01*
X153093507Y-126881078D01*
X153167846Y-126888400D01*
X153167853Y-126888400D01*
X153192699Y-126890847D01*
X153217545Y-126888400D01*
X159308354Y-126888400D01*
X159333200Y-126890847D01*
X159358046Y-126888400D01*
X159358054Y-126888400D01*
X159432393Y-126881078D01*
X159527775Y-126852145D01*
X159615679Y-126805159D01*
X159692727Y-126741927D01*
X159708576Y-126722615D01*
X160433031Y-125998161D01*
X160571614Y-126136744D01*
X160775461Y-126272950D01*
X161001964Y-126366771D01*
X161242418Y-126414600D01*
X161487582Y-126414600D01*
X161728036Y-126366771D01*
X161954539Y-126272950D01*
X162158386Y-126136744D01*
X162331744Y-125963386D01*
X162467950Y-125759539D01*
X162518287Y-125638014D01*
X162521525Y-125639745D01*
X162616907Y-125668678D01*
X162691246Y-125676000D01*
X162716100Y-125678448D01*
X162740954Y-125676000D01*
X162767447Y-125676000D01*
X162802050Y-125759539D01*
X162938256Y-125963386D01*
X163111614Y-126136744D01*
X163315461Y-126272950D01*
X163541964Y-126366771D01*
X163782418Y-126414600D01*
X164027582Y-126414600D01*
X164268036Y-126366771D01*
X164494539Y-126272950D01*
X164698386Y-126136744D01*
X164871744Y-125963386D01*
X165007950Y-125759539D01*
X165101771Y-125533036D01*
X165149600Y-125292582D01*
X165149600Y-125047418D01*
X165200400Y-125047418D01*
X165200400Y-125292582D01*
X165248229Y-125533036D01*
X165342050Y-125759539D01*
X165478256Y-125963386D01*
X165651614Y-126136744D01*
X165855461Y-126272950D01*
X166081964Y-126366771D01*
X166322418Y-126414600D01*
X166567582Y-126414600D01*
X166808036Y-126366771D01*
X167034539Y-126272950D01*
X167238386Y-126136744D01*
X167411744Y-125963386D01*
X167547950Y-125759539D01*
X167641771Y-125533036D01*
X167689600Y-125292582D01*
X167689600Y-125047418D01*
X167740400Y-125047418D01*
X167740400Y-125292582D01*
X167788229Y-125533036D01*
X167882050Y-125759539D01*
X168018256Y-125963386D01*
X168191614Y-126136744D01*
X168395461Y-126272950D01*
X168621964Y-126366771D01*
X168862418Y-126414600D01*
X169107582Y-126414600D01*
X169348036Y-126366771D01*
X169574539Y-126272950D01*
X169778386Y-126136744D01*
X169951744Y-125963386D01*
X170087950Y-125759539D01*
X170181771Y-125533036D01*
X170229600Y-125292582D01*
X170229600Y-125047418D01*
X170280400Y-125047418D01*
X170280400Y-125292582D01*
X170328229Y-125533036D01*
X170422050Y-125759539D01*
X170558256Y-125963386D01*
X170731614Y-126136744D01*
X170935461Y-126272950D01*
X171161964Y-126366771D01*
X171402418Y-126414600D01*
X171647582Y-126414600D01*
X171888036Y-126366771D01*
X172114539Y-126272950D01*
X172318386Y-126136744D01*
X172491744Y-125963386D01*
X172627950Y-125759539D01*
X172721771Y-125533036D01*
X172769600Y-125292582D01*
X172769600Y-125047418D01*
X172721771Y-124806964D01*
X172627950Y-124580461D01*
X172491744Y-124376614D01*
X172318386Y-124203256D01*
X172114539Y-124067050D01*
X171888036Y-123973229D01*
X171647582Y-123925400D01*
X171402418Y-123925400D01*
X171161964Y-123973229D01*
X170935461Y-124067050D01*
X170731614Y-124203256D01*
X170558256Y-124376614D01*
X170422050Y-124580461D01*
X170328229Y-124806964D01*
X170280400Y-125047418D01*
X170229600Y-125047418D01*
X170181771Y-124806964D01*
X170087950Y-124580461D01*
X169951744Y-124376614D01*
X169778386Y-124203256D01*
X169574539Y-124067050D01*
X169348036Y-123973229D01*
X169107582Y-123925400D01*
X168862418Y-123925400D01*
X168621964Y-123973229D01*
X168395461Y-124067050D01*
X168191614Y-124203256D01*
X168018256Y-124376614D01*
X167882050Y-124580461D01*
X167788229Y-124806964D01*
X167740400Y-125047418D01*
X167689600Y-125047418D01*
X167641771Y-124806964D01*
X167547950Y-124580461D01*
X167411744Y-124376614D01*
X167238386Y-124203256D01*
X167034539Y-124067050D01*
X166808036Y-123973229D01*
X166567582Y-123925400D01*
X166322418Y-123925400D01*
X166081964Y-123973229D01*
X165855461Y-124067050D01*
X165651614Y-124203256D01*
X165478256Y-124376614D01*
X165342050Y-124580461D01*
X165248229Y-124806964D01*
X165200400Y-125047418D01*
X165149600Y-125047418D01*
X165101771Y-124806964D01*
X165007950Y-124580461D01*
X164871744Y-124376614D01*
X164698386Y-124203256D01*
X164494539Y-124067050D01*
X164268036Y-123973229D01*
X164027582Y-123925400D01*
X163782418Y-123925400D01*
X163541964Y-123973229D01*
X163315461Y-124067050D01*
X163111614Y-124203256D01*
X162974081Y-124340789D01*
X162274176Y-123640885D01*
X162258327Y-123621573D01*
X162181279Y-123558341D01*
X162093375Y-123511355D01*
X161997993Y-123482422D01*
X161923654Y-123475100D01*
X161923646Y-123475100D01*
X161898800Y-123472653D01*
X161873954Y-123475100D01*
X157157692Y-123475100D01*
X153669550Y-119986958D01*
X153749401Y-119971075D01*
X153957413Y-119884913D01*
X154144620Y-119759826D01*
X154303826Y-119600620D01*
X154428913Y-119413413D01*
X154473251Y-119306373D01*
X154476142Y-119320910D01*
X154592156Y-119600990D01*
X154760580Y-119853056D01*
X154974944Y-120067420D01*
X155227010Y-120235844D01*
X155507090Y-120351858D01*
X155804422Y-120411000D01*
X156107578Y-120411000D01*
X156404910Y-120351858D01*
X156684990Y-120235844D01*
X156937056Y-120067420D01*
X157151420Y-119853056D01*
X157226000Y-119741438D01*
X157300580Y-119853056D01*
X157514944Y-120067420D01*
X157767010Y-120235844D01*
X158047090Y-120351858D01*
X158344422Y-120411000D01*
X158647578Y-120411000D01*
X158944910Y-120351858D01*
X159224990Y-120235844D01*
X159477056Y-120067420D01*
X159691420Y-119853056D01*
X159766000Y-119741438D01*
X159840580Y-119853056D01*
X160054944Y-120067420D01*
X160307010Y-120235844D01*
X160587090Y-120351858D01*
X160884422Y-120411000D01*
X161187578Y-120411000D01*
X161484910Y-120351858D01*
X161764990Y-120235844D01*
X162017056Y-120067420D01*
X162231420Y-119853056D01*
X162306000Y-119741438D01*
X162380580Y-119853056D01*
X162594944Y-120067420D01*
X162847010Y-120235844D01*
X163127090Y-120351858D01*
X163424422Y-120411000D01*
X163727578Y-120411000D01*
X164024910Y-120351858D01*
X164304990Y-120235844D01*
X164557056Y-120067420D01*
X164771420Y-119853056D01*
X164781770Y-119837565D01*
X165330040Y-119837565D01*
X165397020Y-120077656D01*
X165646048Y-120194756D01*
X165913135Y-120261023D01*
X166188017Y-120273910D01*
X166460133Y-120232922D01*
X166719023Y-120139636D01*
X166834980Y-120077656D01*
X166901960Y-119837565D01*
X166116000Y-119051605D01*
X165330040Y-119837565D01*
X164781770Y-119837565D01*
X164939844Y-119600990D01*
X164940505Y-119599394D01*
X165150435Y-119657960D01*
X165936395Y-118872000D01*
X166295605Y-118872000D01*
X167081565Y-119657960D01*
X167291495Y-119599394D01*
X167292156Y-119600990D01*
X167460580Y-119853056D01*
X167674944Y-120067420D01*
X167927010Y-120235844D01*
X168207090Y-120351858D01*
X168504422Y-120411000D01*
X168807578Y-120411000D01*
X169104910Y-120351858D01*
X169384990Y-120235844D01*
X169637056Y-120067420D01*
X169851420Y-119853056D01*
X170019844Y-119600990D01*
X170135858Y-119320910D01*
X170195000Y-119023578D01*
X170195000Y-118720422D01*
X170135858Y-118423090D01*
X170019844Y-118143010D01*
X169851420Y-117890944D01*
X169637056Y-117676580D01*
X169384990Y-117508156D01*
X169104910Y-117392142D01*
X168807578Y-117333000D01*
X168504422Y-117333000D01*
X168207090Y-117392142D01*
X167927010Y-117508156D01*
X167674944Y-117676580D01*
X167460580Y-117890944D01*
X167292156Y-118143010D01*
X167291495Y-118144606D01*
X167081565Y-118086040D01*
X166295605Y-118872000D01*
X165936395Y-118872000D01*
X165922253Y-118857858D01*
X166101858Y-118678253D01*
X166116000Y-118692395D01*
X166901960Y-117906435D01*
X166834980Y-117666344D01*
X166585952Y-117549244D01*
X166539464Y-117537710D01*
X167078874Y-116998300D01*
X171831202Y-116998300D01*
X171543724Y-117389119D01*
X172561692Y-118407087D01*
X172382087Y-118586692D01*
X171364119Y-117568724D01*
X170874452Y-117928912D01*
X170514151Y-118592882D01*
X170290306Y-119314385D01*
X170211520Y-120065695D01*
X170280822Y-120817938D01*
X170495548Y-121542208D01*
X170847445Y-122210670D01*
X170874452Y-122251088D01*
X171364119Y-122611276D01*
X172382087Y-121593309D01*
X172561692Y-121772914D01*
X171543724Y-122790881D01*
X171903912Y-123280548D01*
X172567882Y-123640849D01*
X173289385Y-123864694D01*
X174040695Y-123943480D01*
X174792938Y-123874178D01*
X175517208Y-123659452D01*
X176185670Y-123307555D01*
X176226088Y-123280548D01*
X176389789Y-123058000D01*
X183644241Y-123058000D01*
X183644241Y-125658000D01*
X183659243Y-125810319D01*
X183703673Y-125956784D01*
X183775823Y-126091766D01*
X183872920Y-126210080D01*
X183991234Y-126307177D01*
X184126216Y-126379327D01*
X184272681Y-126423757D01*
X184425000Y-126438759D01*
X187025000Y-126438759D01*
X187177319Y-126423757D01*
X187323784Y-126379327D01*
X187458766Y-126307177D01*
X187577080Y-126210080D01*
X187674177Y-126091766D01*
X187746327Y-125956784D01*
X187790757Y-125810319D01*
X187805759Y-125658000D01*
X187805759Y-123058000D01*
X187790757Y-122905681D01*
X187746327Y-122759216D01*
X187674177Y-122624234D01*
X187577080Y-122505920D01*
X187458766Y-122408823D01*
X187323784Y-122336673D01*
X187177319Y-122292243D01*
X187025000Y-122277241D01*
X184425000Y-122277241D01*
X184272681Y-122292243D01*
X184126216Y-122336673D01*
X183991234Y-122408823D01*
X183872920Y-122505920D01*
X183775823Y-122624234D01*
X183703673Y-122759216D01*
X183659243Y-122905681D01*
X183644241Y-123058000D01*
X176389789Y-123058000D01*
X176586276Y-122790881D01*
X175568309Y-121772914D01*
X175747914Y-121593309D01*
X176765881Y-122611276D01*
X177255548Y-122251088D01*
X177615849Y-121587118D01*
X177839694Y-120865615D01*
X177918480Y-120114305D01*
X177849178Y-119362062D01*
X177634452Y-118637792D01*
X177282555Y-117969330D01*
X177255548Y-117928912D01*
X176765881Y-117568724D01*
X175747914Y-118586692D01*
X175568309Y-118407087D01*
X176586276Y-117389119D01*
X176298798Y-116998300D01*
X181816127Y-116998300D01*
X183688359Y-118870533D01*
X183648000Y-119073433D01*
X183648000Y-119482567D01*
X183727818Y-119883839D01*
X183884386Y-120261829D01*
X184111689Y-120602011D01*
X184400989Y-120891311D01*
X184741171Y-121118614D01*
X185119161Y-121275182D01*
X185520433Y-121355000D01*
X185929567Y-121355000D01*
X186330839Y-121275182D01*
X186708829Y-121118614D01*
X187049011Y-120891311D01*
X187338311Y-120602011D01*
X187565614Y-120261829D01*
X187722182Y-119883839D01*
X187802000Y-119482567D01*
X187802000Y-119073433D01*
X187722182Y-118672161D01*
X187565614Y-118294171D01*
X187338311Y-117953989D01*
X187049011Y-117664689D01*
X186708829Y-117437386D01*
X186330839Y-117280818D01*
X185929567Y-117201000D01*
X185520433Y-117201000D01*
X185317533Y-117241359D01*
X183426173Y-115350000D01*
X183996755Y-115350000D01*
X184111689Y-115522011D01*
X184400989Y-115811311D01*
X184741171Y-116038614D01*
X185119161Y-116195182D01*
X185520433Y-116275000D01*
X185929567Y-116275000D01*
X186330839Y-116195182D01*
X186708829Y-116038614D01*
X187049011Y-115811311D01*
X187338311Y-115522011D01*
X187565614Y-115181829D01*
X187722182Y-114803839D01*
X187802000Y-114402567D01*
X187802000Y-113993433D01*
X187722182Y-113592161D01*
X187565614Y-113214171D01*
X187338311Y-112873989D01*
X187049011Y-112584689D01*
X186708829Y-112357386D01*
X186330839Y-112200818D01*
X185929567Y-112121000D01*
X185520433Y-112121000D01*
X185119161Y-112200818D01*
X184741171Y-112357386D01*
X184400989Y-112584689D01*
X184111689Y-112873989D01*
X183996755Y-113046000D01*
X163226584Y-113046000D01*
X163169999Y-113040427D01*
X163113414Y-113046000D01*
X163113405Y-113046000D01*
X162944169Y-113062668D01*
X162727016Y-113128541D01*
X162526886Y-113235512D01*
X162526884Y-113235513D01*
X162526885Y-113235513D01*
X162395431Y-113343395D01*
X162395429Y-113343397D01*
X162351472Y-113379472D01*
X162315397Y-113423429D01*
X158405827Y-117333000D01*
X158344422Y-117333000D01*
X158047090Y-117392142D01*
X157767010Y-117508156D01*
X157514944Y-117676580D01*
X157300580Y-117890944D01*
X157226000Y-118002562D01*
X157151420Y-117890944D01*
X156937056Y-117676580D01*
X156684990Y-117508156D01*
X156404910Y-117392142D01*
X156107578Y-117333000D01*
X155804422Y-117333000D01*
X155507090Y-117392142D01*
X155227010Y-117508156D01*
X154974944Y-117676580D01*
X154760580Y-117890944D01*
X154592156Y-118143010D01*
X154476142Y-118423090D01*
X154473251Y-118437627D01*
X154428913Y-118330587D01*
X154303826Y-118143380D01*
X154144620Y-117984174D01*
X153957413Y-117859087D01*
X153922000Y-117844418D01*
X153922000Y-111789845D01*
X153924447Y-111764999D01*
X153922000Y-111740153D01*
X153922000Y-111740146D01*
X153914678Y-111665807D01*
X153914525Y-111665300D01*
X163643854Y-111665300D01*
X163668700Y-111667747D01*
X163693546Y-111665300D01*
X163693554Y-111665300D01*
X163767893Y-111657978D01*
X163863275Y-111629045D01*
X163951179Y-111582059D01*
X164028227Y-111518827D01*
X164044076Y-111499515D01*
X166630158Y-108913433D01*
X183648000Y-108913433D01*
X183648000Y-109322567D01*
X183727818Y-109723839D01*
X183884386Y-110101829D01*
X184111689Y-110442011D01*
X184400989Y-110731311D01*
X184741171Y-110958614D01*
X185119161Y-111115182D01*
X185520433Y-111195000D01*
X185929567Y-111195000D01*
X186330839Y-111115182D01*
X186708829Y-110958614D01*
X187049011Y-110731311D01*
X187338311Y-110442011D01*
X187565614Y-110101829D01*
X187722182Y-109723839D01*
X187802000Y-109322567D01*
X187802000Y-108913433D01*
X187722182Y-108512161D01*
X187565614Y-108134171D01*
X187338311Y-107793989D01*
X187049011Y-107504689D01*
X186708829Y-107277386D01*
X186330839Y-107120818D01*
X185929567Y-107041000D01*
X185520433Y-107041000D01*
X185119161Y-107120818D01*
X184741171Y-107277386D01*
X184400989Y-107504689D01*
X184111689Y-107793989D01*
X183884386Y-108134171D01*
X183727818Y-108512161D01*
X183648000Y-108913433D01*
X166630158Y-108913433D01*
X168287186Y-107256406D01*
X168322599Y-107271075D01*
X168543424Y-107315000D01*
X168768576Y-107315000D01*
X168989401Y-107271075D01*
X169197413Y-107184913D01*
X169384620Y-107059826D01*
X169543826Y-106900620D01*
X169668913Y-106713413D01*
X169755075Y-106505401D01*
X169799000Y-106284576D01*
X169799000Y-106059424D01*
X169755075Y-105838599D01*
X169668913Y-105630587D01*
X169543826Y-105443380D01*
X169384620Y-105284174D01*
X169197413Y-105159087D01*
X168989401Y-105072925D01*
X168768576Y-105029000D01*
X168543424Y-105029000D01*
X168322599Y-105072925D01*
X168114587Y-105159087D01*
X167927380Y-105284174D01*
X167768174Y-105443380D01*
X167643087Y-105630587D01*
X167556925Y-105838599D01*
X167513000Y-106059424D01*
X167513000Y-106284576D01*
X167556925Y-106505401D01*
X167571594Y-106540814D01*
X163459109Y-110653300D01*
X157481618Y-110653300D01*
X157481987Y-110652409D01*
X157512000Y-110501522D01*
X157512000Y-110359191D01*
X160011420Y-107859772D01*
X160030727Y-107843927D01*
X160093959Y-107766879D01*
X160140945Y-107678975D01*
X160169878Y-107583593D01*
X160177200Y-107509254D01*
X160179648Y-107484400D01*
X160177200Y-107459546D01*
X160177200Y-106929646D01*
X160307380Y-107059826D01*
X160494587Y-107184913D01*
X160702599Y-107271075D01*
X160923424Y-107315000D01*
X161148576Y-107315000D01*
X161369401Y-107271075D01*
X161577413Y-107184913D01*
X161764620Y-107059826D01*
X161923826Y-106900620D01*
X162048913Y-106713413D01*
X162135075Y-106505401D01*
X162179000Y-106284576D01*
X162179000Y-106059424D01*
X162433000Y-106059424D01*
X162433000Y-106284576D01*
X162476925Y-106505401D01*
X162563087Y-106713413D01*
X162688174Y-106900620D01*
X162847380Y-107059826D01*
X163034587Y-107184913D01*
X163242599Y-107271075D01*
X163463424Y-107315000D01*
X163688576Y-107315000D01*
X163909401Y-107271075D01*
X164117413Y-107184913D01*
X164304620Y-107059826D01*
X164463826Y-106900620D01*
X164588913Y-106713413D01*
X164675075Y-106505401D01*
X164719000Y-106284576D01*
X164719000Y-106059424D01*
X164973000Y-106059424D01*
X164973000Y-106284576D01*
X165016925Y-106505401D01*
X165103087Y-106713413D01*
X165228174Y-106900620D01*
X165387380Y-107059826D01*
X165574587Y-107184913D01*
X165782599Y-107271075D01*
X166003424Y-107315000D01*
X166228576Y-107315000D01*
X166449401Y-107271075D01*
X166657413Y-107184913D01*
X166844620Y-107059826D01*
X167003826Y-106900620D01*
X167128913Y-106713413D01*
X167215075Y-106505401D01*
X167259000Y-106284576D01*
X167259000Y-106059424D01*
X167215075Y-105838599D01*
X167128913Y-105630587D01*
X167003826Y-105443380D01*
X166844620Y-105284174D01*
X166657413Y-105159087D01*
X166449401Y-105072925D01*
X166228576Y-105029000D01*
X166003424Y-105029000D01*
X165782599Y-105072925D01*
X165574587Y-105159087D01*
X165387380Y-105284174D01*
X165228174Y-105443380D01*
X165103087Y-105630587D01*
X165016925Y-105838599D01*
X164973000Y-106059424D01*
X164719000Y-106059424D01*
X164675075Y-105838599D01*
X164588913Y-105630587D01*
X164463826Y-105443380D01*
X164304620Y-105284174D01*
X164117413Y-105159087D01*
X163909401Y-105072925D01*
X163688576Y-105029000D01*
X163463424Y-105029000D01*
X163242599Y-105072925D01*
X163034587Y-105159087D01*
X162847380Y-105284174D01*
X162688174Y-105443380D01*
X162563087Y-105630587D01*
X162476925Y-105838599D01*
X162433000Y-106059424D01*
X162179000Y-106059424D01*
X162135075Y-105838599D01*
X162048913Y-105630587D01*
X161923826Y-105443380D01*
X161764620Y-105284174D01*
X161577413Y-105159087D01*
X161369401Y-105072925D01*
X161148576Y-105029000D01*
X160923424Y-105029000D01*
X160702599Y-105072925D01*
X160494587Y-105159087D01*
X160307380Y-105284174D01*
X160148174Y-105443380D01*
X160146322Y-105446152D01*
X160140945Y-105428425D01*
X160093959Y-105340521D01*
X160030727Y-105263473D01*
X160011420Y-105247628D01*
X152571700Y-97807909D01*
X152571700Y-93944248D01*
X152620587Y-93976913D01*
X152828599Y-94063075D01*
X153049424Y-94107000D01*
X153274576Y-94107000D01*
X153495401Y-94063075D01*
X153703413Y-93976913D01*
X153890620Y-93851826D01*
X154049826Y-93692620D01*
X154174913Y-93505413D01*
X154219251Y-93398373D01*
X154222142Y-93412910D01*
X154338156Y-93692990D01*
X154506580Y-93945056D01*
X154720944Y-94159420D01*
X154973010Y-94327844D01*
X155253090Y-94443858D01*
X155550422Y-94503000D01*
X155853578Y-94503000D01*
X156150910Y-94443858D01*
X156430990Y-94327844D01*
X156683056Y-94159420D01*
X156897420Y-93945056D01*
X156972000Y-93833438D01*
X157046580Y-93945056D01*
X157260944Y-94159420D01*
X157513010Y-94327844D01*
X157793090Y-94443858D01*
X158090422Y-94503000D01*
X158393578Y-94503000D01*
X158690910Y-94443858D01*
X158970990Y-94327844D01*
X159223056Y-94159420D01*
X159437420Y-93945056D01*
X159512000Y-93833438D01*
X159586580Y-93945056D01*
X159800944Y-94159420D01*
X160053010Y-94327844D01*
X160333090Y-94443858D01*
X160630422Y-94503000D01*
X160691827Y-94503000D01*
X163365997Y-97177171D01*
X163402072Y-97221128D01*
X163446029Y-97257203D01*
X163446031Y-97257205D01*
X163535771Y-97330853D01*
X163577486Y-97365088D01*
X163777616Y-97472059D01*
X163909824Y-97512164D01*
X163994768Y-97537932D01*
X164014590Y-97539884D01*
X164164005Y-97554600D01*
X164164013Y-97554600D01*
X164220600Y-97560173D01*
X164277187Y-97554600D01*
X180183913Y-97554600D01*
X180240500Y-97560173D01*
X180297087Y-97554600D01*
X180297095Y-97554600D01*
X180466331Y-97537932D01*
X180683484Y-97472059D01*
X180883614Y-97365088D01*
X181059028Y-97221128D01*
X181095107Y-97177166D01*
X183905829Y-94366445D01*
X183913243Y-94441719D01*
X183957673Y-94588184D01*
X184029823Y-94723166D01*
X184126920Y-94841480D01*
X184245234Y-94938577D01*
X184380216Y-95010727D01*
X184526681Y-95055157D01*
X184679000Y-95070159D01*
X187279000Y-95070159D01*
X187431319Y-95055157D01*
X187577784Y-95010727D01*
X187712766Y-94938577D01*
X187831080Y-94841480D01*
X187928177Y-94723166D01*
X188000327Y-94588184D01*
X188044757Y-94441719D01*
X188059759Y-94289400D01*
X188059759Y-91689400D01*
X188044757Y-91537081D01*
X188000327Y-91390616D01*
X187928177Y-91255634D01*
X187831080Y-91137320D01*
X187712766Y-91040223D01*
X187577784Y-90968073D01*
X187431319Y-90923643D01*
X187279000Y-90908641D01*
X184679000Y-90908641D01*
X184526681Y-90923643D01*
X184380216Y-90968073D01*
X184245234Y-91040223D01*
X184126920Y-91137320D01*
X184029823Y-91255634D01*
X183957673Y-91390616D01*
X183913243Y-91537081D01*
X183898241Y-91689400D01*
X183898241Y-91837400D01*
X183710287Y-91837400D01*
X183653700Y-91831827D01*
X183597113Y-91837400D01*
X183597105Y-91837400D01*
X183447690Y-91852116D01*
X183427868Y-91854068D01*
X183398134Y-91863088D01*
X183210716Y-91919941D01*
X183010586Y-92026912D01*
X183010584Y-92026913D01*
X183010585Y-92026913D01*
X182879131Y-92134795D01*
X182879129Y-92134797D01*
X182835172Y-92170872D01*
X182799097Y-92214829D01*
X179763327Y-95250600D01*
X176292252Y-95250600D01*
X176586276Y-94850881D01*
X175568309Y-93832914D01*
X175747914Y-93653309D01*
X176765881Y-94671276D01*
X177255548Y-94311088D01*
X177615849Y-93647118D01*
X177839694Y-92925615D01*
X177918480Y-92174305D01*
X177849178Y-91422062D01*
X177634452Y-90697792D01*
X177282555Y-90029330D01*
X177255548Y-89988912D01*
X176765881Y-89628724D01*
X175747914Y-90646692D01*
X175568309Y-90467087D01*
X176586276Y-89449119D01*
X176301079Y-89061400D01*
X184250755Y-89061400D01*
X184365689Y-89233411D01*
X184654989Y-89522711D01*
X184995171Y-89750014D01*
X185373161Y-89906582D01*
X185774433Y-89986400D01*
X186183567Y-89986400D01*
X186584839Y-89906582D01*
X186962829Y-89750014D01*
X187303011Y-89522711D01*
X187592311Y-89233411D01*
X187819614Y-88893229D01*
X187976182Y-88515239D01*
X188056000Y-88113967D01*
X188056000Y-87704833D01*
X187976182Y-87303561D01*
X187819614Y-86925571D01*
X187592311Y-86585389D01*
X187303011Y-86296089D01*
X186962829Y-86068786D01*
X186584839Y-85912218D01*
X186183567Y-85832400D01*
X185774433Y-85832400D01*
X185373161Y-85912218D01*
X184995171Y-86068786D01*
X184654989Y-86296089D01*
X184365689Y-86585389D01*
X184250755Y-86757400D01*
X168433187Y-86757400D01*
X168376600Y-86751827D01*
X168320013Y-86757400D01*
X168320005Y-86757400D01*
X168170590Y-86772116D01*
X168150768Y-86774068D01*
X168112509Y-86785674D01*
X167933616Y-86839941D01*
X167733486Y-86946912D01*
X167733484Y-86946913D01*
X167733485Y-86946913D01*
X167602031Y-87054795D01*
X167602029Y-87054797D01*
X167558072Y-87090872D01*
X167521997Y-87134829D01*
X163231827Y-91425000D01*
X163170422Y-91425000D01*
X162873090Y-91484142D01*
X162593010Y-91600156D01*
X162340944Y-91768580D01*
X162126580Y-91982944D01*
X162052000Y-92094562D01*
X161977420Y-91982944D01*
X161763056Y-91768580D01*
X161510990Y-91600156D01*
X161315848Y-91519325D01*
X168853774Y-83981400D01*
X184250755Y-83981400D01*
X184365689Y-84153411D01*
X184654989Y-84442711D01*
X184995171Y-84670014D01*
X185373161Y-84826582D01*
X185774433Y-84906400D01*
X186183567Y-84906400D01*
X186584839Y-84826582D01*
X186962829Y-84670014D01*
X187303011Y-84442711D01*
X187592311Y-84153411D01*
X187819614Y-83813229D01*
X187976182Y-83435239D01*
X188056000Y-83033967D01*
X188056000Y-82624833D01*
X187976182Y-82223561D01*
X187819614Y-81845571D01*
X187592311Y-81505389D01*
X187303011Y-81216089D01*
X186962829Y-80988786D01*
X186584839Y-80832218D01*
X186183567Y-80752400D01*
X185774433Y-80752400D01*
X185373161Y-80832218D01*
X184995171Y-80988786D01*
X184654989Y-81216089D01*
X184365689Y-81505389D01*
X184250755Y-81677400D01*
X168433187Y-81677400D01*
X168376600Y-81671827D01*
X168320013Y-81677400D01*
X168320005Y-81677400D01*
X168170590Y-81692116D01*
X168150768Y-81694068D01*
X168084895Y-81714051D01*
X167933616Y-81759941D01*
X167733486Y-81866912D01*
X167733484Y-81866913D01*
X167733485Y-81866913D01*
X167602031Y-81974795D01*
X167602029Y-81974797D01*
X167558072Y-82010872D01*
X167521997Y-82054829D01*
X158151827Y-91425000D01*
X158090422Y-91425000D01*
X157793090Y-91484142D01*
X157513010Y-91600156D01*
X157260944Y-91768580D01*
X157046580Y-91982944D01*
X156972000Y-92094562D01*
X156897420Y-91982944D01*
X156683056Y-91768580D01*
X156430990Y-91600156D01*
X156150910Y-91484142D01*
X155853578Y-91425000D01*
X155550422Y-91425000D01*
X155253090Y-91484142D01*
X154973010Y-91600156D01*
X154720944Y-91768580D01*
X154506580Y-91982944D01*
X154338156Y-92235010D01*
X154222142Y-92515090D01*
X154219251Y-92529627D01*
X154174913Y-92422587D01*
X154049826Y-92235380D01*
X153890620Y-92076174D01*
X153703413Y-91951087D01*
X153495401Y-91864925D01*
X153274576Y-91821000D01*
X153049424Y-91821000D01*
X152828599Y-91864925D01*
X152620587Y-91951087D01*
X152571700Y-91983752D01*
X152571700Y-81244248D01*
X152620587Y-81276913D01*
X152828599Y-81363075D01*
X153049424Y-81407000D01*
X153274576Y-81407000D01*
X153495401Y-81363075D01*
X153530814Y-81348406D01*
X153884328Y-81701920D01*
X153900173Y-81721227D01*
X153977221Y-81784459D01*
X154065125Y-81831445D01*
X154160506Y-81860378D01*
X154170394Y-81861352D01*
X154234846Y-81867700D01*
X154234853Y-81867700D01*
X154259699Y-81870147D01*
X154284545Y-81867700D01*
X156125654Y-81867700D01*
X156150500Y-81870147D01*
X156175346Y-81867700D01*
X156175354Y-81867700D01*
X156249693Y-81860378D01*
X156345075Y-81831445D01*
X156432979Y-81784459D01*
X156510027Y-81721227D01*
X156525876Y-81701915D01*
X157306509Y-80921283D01*
X157354174Y-80992620D01*
X157513380Y-81151826D01*
X157700587Y-81276913D01*
X157908599Y-81363075D01*
X158129424Y-81407000D01*
X158354576Y-81407000D01*
X158575401Y-81363075D01*
X158783413Y-81276913D01*
X158970620Y-81151826D01*
X159129826Y-80992620D01*
X159254913Y-80805413D01*
X159341075Y-80597401D01*
X159385000Y-80376576D01*
X159385000Y-80151424D01*
X159639000Y-80151424D01*
X159639000Y-80376576D01*
X159682925Y-80597401D01*
X159769087Y-80805413D01*
X159894174Y-80992620D01*
X160053380Y-81151826D01*
X160240587Y-81276913D01*
X160448599Y-81363075D01*
X160669424Y-81407000D01*
X160894576Y-81407000D01*
X161115401Y-81363075D01*
X161323413Y-81276913D01*
X161510620Y-81151826D01*
X161669826Y-80992620D01*
X161794913Y-80805413D01*
X161881075Y-80597401D01*
X161925000Y-80376576D01*
X161925000Y-80151424D01*
X162179000Y-80151424D01*
X162179000Y-80376576D01*
X162222925Y-80597401D01*
X162309087Y-80805413D01*
X162434174Y-80992620D01*
X162593380Y-81151826D01*
X162780587Y-81276913D01*
X162988599Y-81363075D01*
X163209424Y-81407000D01*
X163434576Y-81407000D01*
X163655401Y-81363075D01*
X163863413Y-81276913D01*
X164050620Y-81151826D01*
X164209826Y-80992620D01*
X164334913Y-80805413D01*
X164421075Y-80597401D01*
X164465000Y-80376576D01*
X164465000Y-80151424D01*
X164719000Y-80151424D01*
X164719000Y-80376576D01*
X164762925Y-80597401D01*
X164849087Y-80805413D01*
X164974174Y-80992620D01*
X165133380Y-81151826D01*
X165320587Y-81276913D01*
X165528599Y-81363075D01*
X165749424Y-81407000D01*
X165974576Y-81407000D01*
X166195401Y-81363075D01*
X166403413Y-81276913D01*
X166590620Y-81151826D01*
X166749826Y-80992620D01*
X166874913Y-80805413D01*
X166961075Y-80597401D01*
X167005000Y-80376576D01*
X167005000Y-80151424D01*
X167259000Y-80151424D01*
X167259000Y-80376576D01*
X167302925Y-80597401D01*
X167389087Y-80805413D01*
X167514174Y-80992620D01*
X167673380Y-81151826D01*
X167860587Y-81276913D01*
X168068599Y-81363075D01*
X168289424Y-81407000D01*
X168514576Y-81407000D01*
X168735401Y-81363075D01*
X168943413Y-81276913D01*
X169130620Y-81151826D01*
X169289826Y-80992620D01*
X169414913Y-80805413D01*
X169501075Y-80597401D01*
X169545000Y-80376576D01*
X169545000Y-80151424D01*
X169501075Y-79930599D01*
X169414913Y-79722587D01*
X169289826Y-79535380D01*
X169130620Y-79376174D01*
X168943413Y-79251087D01*
X168735401Y-79164925D01*
X168514576Y-79121000D01*
X168289424Y-79121000D01*
X168068599Y-79164925D01*
X167860587Y-79251087D01*
X167673380Y-79376174D01*
X167514174Y-79535380D01*
X167389087Y-79722587D01*
X167302925Y-79930599D01*
X167259000Y-80151424D01*
X167005000Y-80151424D01*
X166961075Y-79930599D01*
X166874913Y-79722587D01*
X166749826Y-79535380D01*
X166590620Y-79376174D01*
X166403413Y-79251087D01*
X166195401Y-79164925D01*
X165974576Y-79121000D01*
X165749424Y-79121000D01*
X165528599Y-79164925D01*
X165320587Y-79251087D01*
X165133380Y-79376174D01*
X164974174Y-79535380D01*
X164849087Y-79722587D01*
X164762925Y-79930599D01*
X164719000Y-80151424D01*
X164465000Y-80151424D01*
X164421075Y-79930599D01*
X164334913Y-79722587D01*
X164209826Y-79535380D01*
X164050620Y-79376174D01*
X163863413Y-79251087D01*
X163655401Y-79164925D01*
X163434576Y-79121000D01*
X163209424Y-79121000D01*
X162988599Y-79164925D01*
X162780587Y-79251087D01*
X162593380Y-79376174D01*
X162434174Y-79535380D01*
X162309087Y-79722587D01*
X162222925Y-79930599D01*
X162179000Y-80151424D01*
X161925000Y-80151424D01*
X161881075Y-79930599D01*
X161794913Y-79722587D01*
X161669826Y-79535380D01*
X161510620Y-79376174D01*
X161323413Y-79251087D01*
X161115401Y-79164925D01*
X160894576Y-79121000D01*
X160669424Y-79121000D01*
X160448599Y-79164925D01*
X160240587Y-79251087D01*
X160053380Y-79376174D01*
X159894174Y-79535380D01*
X159769087Y-79722587D01*
X159682925Y-79930599D01*
X159639000Y-80151424D01*
X159385000Y-80151424D01*
X159341075Y-79930599D01*
X159326406Y-79895185D01*
X160616692Y-78604900D01*
X161873954Y-78604900D01*
X161898800Y-78607347D01*
X161923646Y-78604900D01*
X161923654Y-78604900D01*
X161997993Y-78597578D01*
X162093375Y-78568645D01*
X162181279Y-78521659D01*
X162258327Y-78458427D01*
X162274176Y-78439115D01*
X162974081Y-77739211D01*
X163111614Y-77876744D01*
X163315461Y-78012950D01*
X163541964Y-78106771D01*
X163782418Y-78154600D01*
X164027582Y-78154600D01*
X164268036Y-78106771D01*
X164494539Y-78012950D01*
X164698386Y-77876744D01*
X164871744Y-77703386D01*
X165007950Y-77499539D01*
X165101771Y-77273036D01*
X165149600Y-77032582D01*
X165149600Y-76787418D01*
X165200400Y-76787418D01*
X165200400Y-77032582D01*
X165248229Y-77273036D01*
X165342050Y-77499539D01*
X165478256Y-77703386D01*
X165651614Y-77876744D01*
X165855461Y-78012950D01*
X166081964Y-78106771D01*
X166322418Y-78154600D01*
X166567582Y-78154600D01*
X166808036Y-78106771D01*
X167034539Y-78012950D01*
X167238386Y-77876744D01*
X167411744Y-77703386D01*
X167547950Y-77499539D01*
X167641771Y-77273036D01*
X167689600Y-77032582D01*
X167689600Y-76787418D01*
X167740400Y-76787418D01*
X167740400Y-77032582D01*
X167788229Y-77273036D01*
X167882050Y-77499539D01*
X168018256Y-77703386D01*
X168191614Y-77876744D01*
X168395461Y-78012950D01*
X168621964Y-78106771D01*
X168862418Y-78154600D01*
X169107582Y-78154600D01*
X169348036Y-78106771D01*
X169574539Y-78012950D01*
X169778386Y-77876744D01*
X169951744Y-77703386D01*
X170087950Y-77499539D01*
X170181771Y-77273036D01*
X170229600Y-77032582D01*
X170229600Y-76787418D01*
X170280400Y-76787418D01*
X170280400Y-77032582D01*
X170328229Y-77273036D01*
X170422050Y-77499539D01*
X170558256Y-77703386D01*
X170731614Y-77876744D01*
X170935461Y-78012950D01*
X171161964Y-78106771D01*
X171402418Y-78154600D01*
X171647582Y-78154600D01*
X171888036Y-78106771D01*
X172114539Y-78012950D01*
X172318386Y-77876744D01*
X172491744Y-77703386D01*
X172597685Y-77544833D01*
X183902000Y-77544833D01*
X183902000Y-77953967D01*
X183981818Y-78355239D01*
X184138386Y-78733229D01*
X184365689Y-79073411D01*
X184654989Y-79362711D01*
X184995171Y-79590014D01*
X185373161Y-79746582D01*
X185774433Y-79826400D01*
X186183567Y-79826400D01*
X186584839Y-79746582D01*
X186962829Y-79590014D01*
X187303011Y-79362711D01*
X187592311Y-79073411D01*
X187819614Y-78733229D01*
X187976182Y-78355239D01*
X188056000Y-77953967D01*
X188056000Y-77544833D01*
X187976182Y-77143561D01*
X187819614Y-76765571D01*
X187592311Y-76425389D01*
X187303011Y-76136089D01*
X186962829Y-75908786D01*
X186584839Y-75752218D01*
X186183567Y-75672400D01*
X185774433Y-75672400D01*
X185373161Y-75752218D01*
X184995171Y-75908786D01*
X184654989Y-76136089D01*
X184365689Y-76425389D01*
X184138386Y-76765571D01*
X183981818Y-77143561D01*
X183902000Y-77544833D01*
X172597685Y-77544833D01*
X172627950Y-77499539D01*
X172721771Y-77273036D01*
X172769600Y-77032582D01*
X172769600Y-76787418D01*
X172721771Y-76546964D01*
X172627950Y-76320461D01*
X172491744Y-76116614D01*
X172318386Y-75943256D01*
X172114539Y-75807050D01*
X171888036Y-75713229D01*
X171647582Y-75665400D01*
X171402418Y-75665400D01*
X171161964Y-75713229D01*
X170935461Y-75807050D01*
X170731614Y-75943256D01*
X170558256Y-76116614D01*
X170422050Y-76320461D01*
X170328229Y-76546964D01*
X170280400Y-76787418D01*
X170229600Y-76787418D01*
X170181771Y-76546964D01*
X170087950Y-76320461D01*
X169951744Y-76116614D01*
X169778386Y-75943256D01*
X169574539Y-75807050D01*
X169348036Y-75713229D01*
X169107582Y-75665400D01*
X168862418Y-75665400D01*
X168621964Y-75713229D01*
X168395461Y-75807050D01*
X168191614Y-75943256D01*
X168018256Y-76116614D01*
X167882050Y-76320461D01*
X167788229Y-76546964D01*
X167740400Y-76787418D01*
X167689600Y-76787418D01*
X167641771Y-76546964D01*
X167547950Y-76320461D01*
X167411744Y-76116614D01*
X167238386Y-75943256D01*
X167034539Y-75807050D01*
X166808036Y-75713229D01*
X166567582Y-75665400D01*
X166322418Y-75665400D01*
X166081964Y-75713229D01*
X165855461Y-75807050D01*
X165651614Y-75943256D01*
X165478256Y-76116614D01*
X165342050Y-76320461D01*
X165248229Y-76546964D01*
X165200400Y-76787418D01*
X165149600Y-76787418D01*
X165101771Y-76546964D01*
X165007950Y-76320461D01*
X164871744Y-76116614D01*
X164698386Y-75943256D01*
X164494539Y-75807050D01*
X164268036Y-75713229D01*
X164027582Y-75665400D01*
X163782418Y-75665400D01*
X163541964Y-75713229D01*
X163315461Y-75807050D01*
X163111614Y-75943256D01*
X162938256Y-76116614D01*
X162802050Y-76320461D01*
X162767447Y-76404000D01*
X162740954Y-76404000D01*
X162716100Y-76401552D01*
X162691246Y-76404000D01*
X162616907Y-76411322D01*
X162521525Y-76440255D01*
X162518287Y-76441986D01*
X162467950Y-76320461D01*
X162331744Y-76116614D01*
X162158386Y-75943256D01*
X161954539Y-75807050D01*
X161728036Y-75713229D01*
X161487582Y-75665400D01*
X161242418Y-75665400D01*
X161001964Y-75713229D01*
X160775461Y-75807050D01*
X160571614Y-75943256D01*
X160398256Y-76116614D01*
X160262050Y-76320461D01*
X160227447Y-76404000D01*
X160200954Y-76404000D01*
X160176100Y-76401552D01*
X160151246Y-76404000D01*
X160076907Y-76411322D01*
X159981525Y-76440255D01*
X159978287Y-76441986D01*
X159927950Y-76320461D01*
X159791744Y-76116614D01*
X159618386Y-75943256D01*
X159414539Y-75807050D01*
X159188036Y-75713229D01*
X158947582Y-75665400D01*
X158702418Y-75665400D01*
X158461964Y-75713229D01*
X158235461Y-75807050D01*
X158031614Y-75943256D01*
X157893031Y-76081839D01*
X157169576Y-75358385D01*
X157153727Y-75339073D01*
X157076679Y-75275841D01*
X156988775Y-75228855D01*
X156893393Y-75199922D01*
X156819054Y-75192600D01*
X156819046Y-75192600D01*
X156794200Y-75190153D01*
X156769354Y-75192600D01*
X153270454Y-75192600D01*
X153245600Y-75190152D01*
X153220746Y-75192600D01*
X153146407Y-75199922D01*
X153051025Y-75228855D01*
X152963121Y-75275841D01*
X152886073Y-75339073D01*
X152870228Y-75358380D01*
X150822756Y-77405852D01*
X150877771Y-77273036D01*
X150925600Y-77032582D01*
X150925600Y-76787418D01*
X150877771Y-76546964D01*
X150783950Y-76320461D01*
X150647744Y-76116614D01*
X150474386Y-75943256D01*
X150270539Y-75807050D01*
X150044036Y-75713229D01*
X149803582Y-75665400D01*
X149558418Y-75665400D01*
X149317964Y-75713229D01*
X149091461Y-75807050D01*
X148887614Y-75943256D01*
X148714256Y-76116614D01*
X148578050Y-76320461D01*
X148484229Y-76546964D01*
X148436400Y-76787418D01*
X148436400Y-77032582D01*
X148484229Y-77273036D01*
X148578050Y-77499539D01*
X148714256Y-77703386D01*
X148887614Y-77876744D01*
X149086735Y-78009792D01*
X149064855Y-78050726D01*
X149035922Y-78146108D01*
X149026153Y-78245300D01*
X149028601Y-78270156D01*
X149028601Y-79270909D01*
X147754578Y-77996887D01*
X147934386Y-77876744D01*
X148107744Y-77703386D01*
X148243950Y-77499539D01*
X148337771Y-77273036D01*
X148385600Y-77032582D01*
X148385600Y-76787418D01*
X148337771Y-76546964D01*
X148243950Y-76320461D01*
X148107744Y-76116614D01*
X147934386Y-75943256D01*
X147730539Y-75807050D01*
X147504036Y-75713229D01*
X147263582Y-75665400D01*
X147018418Y-75665400D01*
X146777964Y-75713229D01*
X146551461Y-75807050D01*
X146347614Y-75943256D01*
X146174256Y-76116614D01*
X146038050Y-76320461D01*
X145944229Y-76546964D01*
X145896400Y-76787418D01*
X145896400Y-77032582D01*
X145944229Y-77273036D01*
X146038050Y-77499539D01*
X146174256Y-77703386D01*
X146347614Y-77876744D01*
X146551461Y-78012950D01*
X146635001Y-78047554D01*
X146635001Y-78074044D01*
X146632553Y-78098900D01*
X146642322Y-78198092D01*
X146671255Y-78293474D01*
X146671256Y-78293475D01*
X146718242Y-78381379D01*
X146781474Y-78458427D01*
X146800779Y-78474270D01*
X148578201Y-80251693D01*
X148578200Y-93917170D01*
X148529444Y-93844201D01*
X148197799Y-93512556D01*
X147807827Y-93251985D01*
X147374512Y-93072500D01*
X146914508Y-92981000D01*
X146445492Y-92981000D01*
X145985488Y-93072500D01*
X145552173Y-93251985D01*
X145162201Y-93512556D01*
X144855400Y-93819357D01*
X144855400Y-78560091D01*
X144941215Y-78474276D01*
X144960527Y-78458427D01*
X145023759Y-78381379D01*
X145070745Y-78293475D01*
X145085612Y-78244464D01*
X145099678Y-78198094D01*
X145103831Y-78155925D01*
X145107000Y-78123754D01*
X145107000Y-78123747D01*
X145109447Y-78098901D01*
X145107000Y-78074055D01*
X145107000Y-78047553D01*
X145190539Y-78012950D01*
X145394386Y-77876744D01*
X145567744Y-77703386D01*
X145703950Y-77499539D01*
X145797771Y-77273036D01*
X145845600Y-77032582D01*
X145845600Y-76787418D01*
X145797771Y-76546964D01*
X145703950Y-76320461D01*
X145567744Y-76116614D01*
X145394386Y-75943256D01*
X145190539Y-75807050D01*
X144964036Y-75713229D01*
X144723582Y-75665400D01*
X144478418Y-75665400D01*
X144237964Y-75713229D01*
X144011461Y-75807050D01*
X143807614Y-75943256D01*
X143634256Y-76116614D01*
X143498050Y-76320461D01*
X143404229Y-76546964D01*
X143356400Y-76787418D01*
X143356400Y-77032582D01*
X143404229Y-77273036D01*
X143498050Y-77499539D01*
X143634256Y-77703386D01*
X143807614Y-77876744D01*
X143985871Y-77995851D01*
X143926642Y-78068021D01*
X143910137Y-78098900D01*
X143879655Y-78155926D01*
X143850722Y-78251308D01*
X143840953Y-78350500D01*
X143843401Y-78375356D01*
X143843400Y-98249809D01*
X142567000Y-96973409D01*
X142567000Y-78047553D01*
X142650539Y-78012950D01*
X142854386Y-77876744D01*
X143027744Y-77703386D01*
X143163950Y-77499539D01*
X143257771Y-77273036D01*
X143305600Y-77032582D01*
X143305600Y-76787418D01*
X143257771Y-76546964D01*
X143163950Y-76320461D01*
X143027744Y-76116614D01*
X142854386Y-75943256D01*
X142650539Y-75807050D01*
X142424036Y-75713229D01*
X142183582Y-75665400D01*
X141938418Y-75665400D01*
X141697964Y-75713229D01*
X141471461Y-75807050D01*
X141267614Y-75943256D01*
X141094256Y-76116614D01*
X140958050Y-76320461D01*
X140864229Y-76546964D01*
X140816400Y-76787418D01*
X140816400Y-77032582D01*
X140864229Y-77273036D01*
X140958050Y-77499539D01*
X141094256Y-77703386D01*
X141267614Y-77876744D01*
X141471461Y-78012950D01*
X141555000Y-78047553D01*
X141555000Y-86118809D01*
X139463843Y-84027652D01*
X139463843Y-83135399D01*
X139451683Y-83011938D01*
X139415671Y-82893221D01*
X139357190Y-82783811D01*
X139278488Y-82687912D01*
X139182589Y-82609210D01*
X139073179Y-82550729D01*
X138954462Y-82514717D01*
X138831001Y-82502557D01*
X138130999Y-82502557D01*
X138007538Y-82514717D01*
X137888821Y-82550729D01*
X137779411Y-82609210D01*
X137703061Y-82671869D01*
X137186976Y-82155785D01*
X137171127Y-82136473D01*
X137094079Y-82073241D01*
X137006175Y-82026255D01*
X136910793Y-81997322D01*
X136836454Y-81990000D01*
X136836446Y-81990000D01*
X136811600Y-81987553D01*
X136786754Y-81990000D01*
X126961254Y-81990000D01*
X126936400Y-81987552D01*
X126911546Y-81990000D01*
X126837207Y-81997322D01*
X126741825Y-82026255D01*
X126653921Y-82073241D01*
X126576873Y-82136473D01*
X126561028Y-82155780D01*
X125970623Y-82746185D01*
X125872651Y-82665782D01*
X125702229Y-82574689D01*
X125651263Y-82559229D01*
X129605592Y-78604900D01*
X137489954Y-78604900D01*
X137514800Y-78607347D01*
X137539646Y-78604900D01*
X137539654Y-78604900D01*
X137613993Y-78597578D01*
X137709375Y-78568645D01*
X137797279Y-78521659D01*
X137874327Y-78458427D01*
X137890176Y-78439115D01*
X138590081Y-77739211D01*
X138727614Y-77876744D01*
X138931461Y-78012950D01*
X139157964Y-78106771D01*
X139398418Y-78154600D01*
X139643582Y-78154600D01*
X139884036Y-78106771D01*
X140110539Y-78012950D01*
X140314386Y-77876744D01*
X140487744Y-77703386D01*
X140623950Y-77499539D01*
X140717771Y-77273036D01*
X140765600Y-77032582D01*
X140765600Y-76787418D01*
X140717771Y-76546964D01*
X140623950Y-76320461D01*
X140487744Y-76116614D01*
X140314386Y-75943256D01*
X140110539Y-75807050D01*
X139884036Y-75713229D01*
X139643582Y-75665400D01*
X139398418Y-75665400D01*
X139157964Y-75713229D01*
X138931461Y-75807050D01*
X138727614Y-75943256D01*
X138554256Y-76116614D01*
X138418050Y-76320461D01*
X138383447Y-76404000D01*
X138356954Y-76404000D01*
X138332100Y-76401552D01*
X138307246Y-76404000D01*
X138232907Y-76411322D01*
X138137525Y-76440255D01*
X138134287Y-76441986D01*
X138083950Y-76320461D01*
X137947744Y-76116614D01*
X137774386Y-75943256D01*
X137570539Y-75807050D01*
X137344036Y-75713229D01*
X137103582Y-75665400D01*
X136858418Y-75665400D01*
X136617964Y-75713229D01*
X136391461Y-75807050D01*
X136187614Y-75943256D01*
X136014256Y-76116614D01*
X135878050Y-76320461D01*
X135847441Y-76394358D01*
X135723684Y-76135056D01*
X135547854Y-75899707D01*
X135329488Y-75703183D01*
X135076978Y-75553036D01*
X134800027Y-75455037D01*
X134568000Y-75575536D01*
X134568000Y-76783000D01*
X134588000Y-76783000D01*
X134588000Y-77037000D01*
X134568000Y-77037000D01*
X134568000Y-77057000D01*
X134314000Y-77057000D01*
X134314000Y-77037000D01*
X134294000Y-77037000D01*
X134294000Y-76783000D01*
X134314000Y-76783000D01*
X134314000Y-75575536D01*
X134081973Y-75455037D01*
X133805022Y-75553036D01*
X133552512Y-75703183D01*
X133334146Y-75899707D01*
X133158316Y-76135056D01*
X133034559Y-76394358D01*
X133003950Y-76320461D01*
X132867744Y-76116614D01*
X132694386Y-75943256D01*
X132490539Y-75807050D01*
X132264036Y-75713229D01*
X132023582Y-75665400D01*
X131778418Y-75665400D01*
X131537964Y-75713229D01*
X131311461Y-75807050D01*
X131107614Y-75943256D01*
X130934256Y-76116614D01*
X130798050Y-76320461D01*
X130704229Y-76546964D01*
X130656400Y-76787418D01*
X130656400Y-77032582D01*
X130704229Y-77273036D01*
X130798050Y-77499539D01*
X130860432Y-77592900D01*
X130401568Y-77592900D01*
X130463950Y-77499539D01*
X130557771Y-77273036D01*
X130605600Y-77032582D01*
X130605600Y-76787418D01*
X130557771Y-76546964D01*
X130463950Y-76320461D01*
X130327744Y-76116614D01*
X130154386Y-75943256D01*
X129950539Y-75807050D01*
X129724036Y-75713229D01*
X129483582Y-75665400D01*
X129238418Y-75665400D01*
X128997964Y-75713229D01*
X128771461Y-75807050D01*
X128567614Y-75943256D01*
X128394256Y-76116614D01*
X128258050Y-76320461D01*
X128164229Y-76546964D01*
X128116400Y-76787418D01*
X128116400Y-77032582D01*
X128164229Y-77273036D01*
X128258050Y-77499539D01*
X128394256Y-77703386D01*
X128567614Y-77876744D01*
X128768402Y-78010906D01*
X120800381Y-85978928D01*
X120781074Y-85994773D01*
X120717842Y-86071821D01*
X120692727Y-86118808D01*
X120670855Y-86159726D01*
X120641922Y-86255108D01*
X120632153Y-86354300D01*
X108432200Y-86354300D01*
X108432200Y-76787418D01*
X125576400Y-76787418D01*
X125576400Y-77032582D01*
X125624229Y-77273036D01*
X125718050Y-77499539D01*
X125854256Y-77703386D01*
X126027614Y-77876744D01*
X126231461Y-78012950D01*
X126457964Y-78106771D01*
X126698418Y-78154600D01*
X126943582Y-78154600D01*
X127184036Y-78106771D01*
X127410539Y-78012950D01*
X127614386Y-77876744D01*
X127787744Y-77703386D01*
X127923950Y-77499539D01*
X128017771Y-77273036D01*
X128065600Y-77032582D01*
X128065600Y-76787418D01*
X128017771Y-76546964D01*
X127923950Y-76320461D01*
X127787744Y-76116614D01*
X127614386Y-75943256D01*
X127410539Y-75807050D01*
X127184036Y-75713229D01*
X126943582Y-75665400D01*
X126698418Y-75665400D01*
X126457964Y-75713229D01*
X126231461Y-75807050D01*
X126027614Y-75943256D01*
X125854256Y-76116614D01*
X125718050Y-76320461D01*
X125624229Y-76546964D01*
X125576400Y-76787418D01*
X108432200Y-76787418D01*
X108432200Y-74777200D01*
X193650000Y-74777200D01*
X193650001Y-127305200D01*
G37*
G04 #@! TD.AperFunction*
D25*
X141673219Y-103497207D02*
X141906346Y-103593772D01*
X142153833Y-103643000D01*
X142406167Y-103643000D01*
X142653654Y-103593772D01*
X142754436Y-103552027D01*
X151640000Y-112437592D01*
X151640001Y-117827722D01*
X151594980Y-117666344D01*
X151345952Y-117549244D01*
X151078865Y-117482977D01*
X150803983Y-117470090D01*
X150531867Y-117511078D01*
X150272977Y-117604364D01*
X150157020Y-117666344D01*
X150090040Y-117906435D01*
X150876000Y-118692395D01*
X150890143Y-118678253D01*
X151069748Y-118857858D01*
X151055605Y-118872000D01*
X151841565Y-119657960D01*
X151894579Y-119643170D01*
X156572728Y-124321320D01*
X156588573Y-124340627D01*
X156665621Y-124403859D01*
X156753525Y-124450845D01*
X156848907Y-124479778D01*
X156923246Y-124487100D01*
X156923254Y-124487100D01*
X156948100Y-124489547D01*
X156972946Y-124487100D01*
X157784432Y-124487100D01*
X157722050Y-124580461D01*
X157687447Y-124664000D01*
X155759092Y-124664000D01*
X151299437Y-120204346D01*
X151479023Y-120139636D01*
X151594980Y-120077656D01*
X151661960Y-119837565D01*
X150876000Y-119051605D01*
X150861858Y-119065748D01*
X150682253Y-118886143D01*
X150696395Y-118872000D01*
X149910435Y-118086040D01*
X149670344Y-118153020D01*
X149561000Y-118385554D01*
X149561000Y-112276954D01*
X149563448Y-112252100D01*
X149553678Y-112152907D01*
X149524745Y-112057525D01*
X149519375Y-112047478D01*
X149477759Y-111969621D01*
X149414527Y-111892573D01*
X149395220Y-111876728D01*
X141536000Y-104017509D01*
X141536000Y-103405521D01*
X141673219Y-103497207D01*
G04 #@! TA.AperFunction,Conductor*
D26*
G36*
X141673219Y-103497207D02*
G01*
X141906346Y-103593772D01*
X142153833Y-103643000D01*
X142406167Y-103643000D01*
X142653654Y-103593772D01*
X142754436Y-103552027D01*
X151640000Y-112437592D01*
X151640001Y-117827722D01*
X151594980Y-117666344D01*
X151345952Y-117549244D01*
X151078865Y-117482977D01*
X150803983Y-117470090D01*
X150531867Y-117511078D01*
X150272977Y-117604364D01*
X150157020Y-117666344D01*
X150090040Y-117906435D01*
X150876000Y-118692395D01*
X150890143Y-118678253D01*
X151069748Y-118857858D01*
X151055605Y-118872000D01*
X151841565Y-119657960D01*
X151894579Y-119643170D01*
X156572728Y-124321320D01*
X156588573Y-124340627D01*
X156665621Y-124403859D01*
X156753525Y-124450845D01*
X156848907Y-124479778D01*
X156923246Y-124487100D01*
X156923254Y-124487100D01*
X156948100Y-124489547D01*
X156972946Y-124487100D01*
X157784432Y-124487100D01*
X157722050Y-124580461D01*
X157687447Y-124664000D01*
X155759092Y-124664000D01*
X151299437Y-120204346D01*
X151479023Y-120139636D01*
X151594980Y-120077656D01*
X151661960Y-119837565D01*
X150876000Y-119051605D01*
X150861858Y-119065748D01*
X150682253Y-118886143D01*
X150696395Y-118872000D01*
X149910435Y-118086040D01*
X149670344Y-118153020D01*
X149561000Y-118385554D01*
X149561000Y-112276954D01*
X149563448Y-112252100D01*
X149553678Y-112152907D01*
X149524745Y-112057525D01*
X149519375Y-112047478D01*
X149477759Y-111969621D01*
X149414527Y-111892573D01*
X149395220Y-111876728D01*
X141536000Y-104017509D01*
X141536000Y-103405521D01*
X141673219Y-103497207D01*
G37*
G04 #@! TD.AperFunction*
D25*
X136608000Y-83633400D02*
X136628000Y-83633400D01*
X136628000Y-83887400D01*
X136608000Y-83887400D01*
X136608000Y-85104131D01*
X136798609Y-85228862D01*
X136836282Y-85224991D01*
X136923400Y-85189343D01*
X136923401Y-89349944D01*
X136920953Y-89374800D01*
X136930722Y-89473992D01*
X136959655Y-89569374D01*
X136959656Y-89569375D01*
X137006642Y-89657279D01*
X137069874Y-89734327D01*
X137089181Y-89750172D01*
X140350700Y-93011692D01*
X140350701Y-100140444D01*
X140348253Y-100165300D01*
X140358022Y-100264492D01*
X140386955Y-100359874D01*
X140403332Y-100390513D01*
X140433942Y-100447779D01*
X140497174Y-100524827D01*
X140516481Y-100540672D01*
X140524000Y-100548191D01*
X140524000Y-101016465D01*
X140308225Y-100912842D01*
X140015358Y-100837635D01*
X139713447Y-100821009D01*
X139414093Y-100863603D01*
X139128801Y-100963778D01*
X138979208Y-101043739D01*
X138895525Y-101297920D01*
X139780000Y-102182395D01*
X139794143Y-102168253D01*
X139973748Y-102347858D01*
X139959605Y-102362000D01*
X139973748Y-102376143D01*
X139794143Y-102555748D01*
X139780000Y-102541605D01*
X138895525Y-103426080D01*
X138979208Y-103680261D01*
X139251775Y-103811158D01*
X139544642Y-103886365D01*
X139846553Y-103902991D01*
X140145907Y-103860397D01*
X140431199Y-103760222D01*
X140524001Y-103710617D01*
X140524001Y-104202244D01*
X140521553Y-104227100D01*
X140531322Y-104326292D01*
X140560255Y-104421674D01*
X140560256Y-104421675D01*
X140607242Y-104509579D01*
X140670474Y-104586627D01*
X140689781Y-104602472D01*
X148029230Y-111941922D01*
X147807827Y-111793985D01*
X147374512Y-111614500D01*
X146914508Y-111523000D01*
X146445492Y-111523000D01*
X145985488Y-111614500D01*
X145552173Y-111793985D01*
X145162201Y-112054556D01*
X144830556Y-112386201D01*
X144569985Y-112776173D01*
X144390500Y-113209488D01*
X144299000Y-113669492D01*
X144299000Y-114138508D01*
X144390500Y-114598512D01*
X144520040Y-114911248D01*
X135912300Y-106303509D01*
X135912300Y-102428553D01*
X138239009Y-102428553D01*
X138281603Y-102727907D01*
X138381778Y-103013199D01*
X138461739Y-103162792D01*
X138715920Y-103246475D01*
X139600395Y-102362000D01*
X138715920Y-101477525D01*
X138461739Y-101561208D01*
X138330842Y-101833775D01*
X138255635Y-102126642D01*
X138239009Y-102428553D01*
X135912300Y-102428553D01*
X135912300Y-96702816D01*
X136030556Y-96879799D01*
X136362201Y-97211444D01*
X136752173Y-97472015D01*
X137185488Y-97651500D01*
X137645492Y-97743000D01*
X138114508Y-97743000D01*
X138574512Y-97651500D01*
X139007827Y-97472015D01*
X139397799Y-97211444D01*
X139729444Y-96879799D01*
X139990015Y-96489827D01*
X140169500Y-96056512D01*
X140261000Y-95596508D01*
X140261000Y-95127492D01*
X140169500Y-94667488D01*
X139990015Y-94234173D01*
X139729444Y-93844201D01*
X139397799Y-93512556D01*
X139007827Y-93251985D01*
X138574512Y-93072500D01*
X138114508Y-92981000D01*
X137645492Y-92981000D01*
X137185488Y-93072500D01*
X136752173Y-93251985D01*
X136362201Y-93512556D01*
X136030556Y-93844201D01*
X135912300Y-94021184D01*
X135912300Y-85137663D01*
X136125718Y-85224991D01*
X136163391Y-85228862D01*
X136354000Y-85104131D01*
X136354000Y-83887400D01*
X136334000Y-83887400D01*
X136334000Y-83633400D01*
X136354000Y-83633400D01*
X136354000Y-83613400D01*
X136608000Y-83613400D01*
X136608000Y-83633400D01*
G04 #@! TA.AperFunction,Conductor*
D26*
G36*
X136608000Y-83633400D02*
G01*
X136628000Y-83633400D01*
X136628000Y-83887400D01*
X136608000Y-83887400D01*
X136608000Y-85104131D01*
X136798609Y-85228862D01*
X136836282Y-85224991D01*
X136923400Y-85189343D01*
X136923401Y-89349944D01*
X136920953Y-89374800D01*
X136930722Y-89473992D01*
X136959655Y-89569374D01*
X136959656Y-89569375D01*
X137006642Y-89657279D01*
X137069874Y-89734327D01*
X137089181Y-89750172D01*
X140350700Y-93011692D01*
X140350701Y-100140444D01*
X140348253Y-100165300D01*
X140358022Y-100264492D01*
X140386955Y-100359874D01*
X140403332Y-100390513D01*
X140433942Y-100447779D01*
X140497174Y-100524827D01*
X140516481Y-100540672D01*
X140524000Y-100548191D01*
X140524000Y-101016465D01*
X140308225Y-100912842D01*
X140015358Y-100837635D01*
X139713447Y-100821009D01*
X139414093Y-100863603D01*
X139128801Y-100963778D01*
X138979208Y-101043739D01*
X138895525Y-101297920D01*
X139780000Y-102182395D01*
X139794143Y-102168253D01*
X139973748Y-102347858D01*
X139959605Y-102362000D01*
X139973748Y-102376143D01*
X139794143Y-102555748D01*
X139780000Y-102541605D01*
X138895525Y-103426080D01*
X138979208Y-103680261D01*
X139251775Y-103811158D01*
X139544642Y-103886365D01*
X139846553Y-103902991D01*
X140145907Y-103860397D01*
X140431199Y-103760222D01*
X140524001Y-103710617D01*
X140524001Y-104202244D01*
X140521553Y-104227100D01*
X140531322Y-104326292D01*
X140560255Y-104421674D01*
X140560256Y-104421675D01*
X140607242Y-104509579D01*
X140670474Y-104586627D01*
X140689781Y-104602472D01*
X148029230Y-111941922D01*
X147807827Y-111793985D01*
X147374512Y-111614500D01*
X146914508Y-111523000D01*
X146445492Y-111523000D01*
X145985488Y-111614500D01*
X145552173Y-111793985D01*
X145162201Y-112054556D01*
X144830556Y-112386201D01*
X144569985Y-112776173D01*
X144390500Y-113209488D01*
X144299000Y-113669492D01*
X144299000Y-114138508D01*
X144390500Y-114598512D01*
X144520040Y-114911248D01*
X135912300Y-106303509D01*
X135912300Y-102428553D01*
X138239009Y-102428553D01*
X138281603Y-102727907D01*
X138381778Y-103013199D01*
X138461739Y-103162792D01*
X138715920Y-103246475D01*
X139600395Y-102362000D01*
X138715920Y-101477525D01*
X138461739Y-101561208D01*
X138330842Y-101833775D01*
X138255635Y-102126642D01*
X138239009Y-102428553D01*
X135912300Y-102428553D01*
X135912300Y-96702816D01*
X136030556Y-96879799D01*
X136362201Y-97211444D01*
X136752173Y-97472015D01*
X137185488Y-97651500D01*
X137645492Y-97743000D01*
X138114508Y-97743000D01*
X138574512Y-97651500D01*
X139007827Y-97472015D01*
X139397799Y-97211444D01*
X139729444Y-96879799D01*
X139990015Y-96489827D01*
X140169500Y-96056512D01*
X140261000Y-95596508D01*
X140261000Y-95127492D01*
X140169500Y-94667488D01*
X139990015Y-94234173D01*
X139729444Y-93844201D01*
X139397799Y-93512556D01*
X139007827Y-93251985D01*
X138574512Y-93072500D01*
X138114508Y-92981000D01*
X137645492Y-92981000D01*
X137185488Y-93072500D01*
X136752173Y-93251985D01*
X136362201Y-93512556D01*
X136030556Y-93844201D01*
X135912300Y-94021184D01*
X135912300Y-85137663D01*
X136125718Y-85224991D01*
X136163391Y-85228862D01*
X136354000Y-85104131D01*
X136354000Y-83887400D01*
X136334000Y-83887400D01*
X136334000Y-83633400D01*
X136354000Y-83633400D01*
X136354000Y-83613400D01*
X136608000Y-83613400D01*
X136608000Y-83633400D01*
G37*
G04 #@! TD.AperFunction*
D25*
X171543724Y-89449119D02*
X172561692Y-90467087D01*
X172382087Y-90646692D01*
X171364119Y-89628724D01*
X170874452Y-89988912D01*
X170514151Y-90652882D01*
X170290306Y-91374385D01*
X170211520Y-92125695D01*
X170280822Y-92877938D01*
X170495548Y-93602208D01*
X170847445Y-94270670D01*
X170874452Y-94311088D01*
X171364119Y-94671276D01*
X172382087Y-93653309D01*
X172561692Y-93832914D01*
X171543724Y-94850881D01*
X171837748Y-95250600D01*
X164697774Y-95250600D01*
X163855849Y-94408675D01*
X164050990Y-94327844D01*
X164303056Y-94159420D01*
X164517420Y-93945056D01*
X164527770Y-93929565D01*
X165076040Y-93929565D01*
X165143020Y-94169656D01*
X165392048Y-94286756D01*
X165659135Y-94353023D01*
X165934017Y-94365910D01*
X166206133Y-94324922D01*
X166465023Y-94231636D01*
X166580980Y-94169656D01*
X166647960Y-93929565D01*
X165862000Y-93143605D01*
X165076040Y-93929565D01*
X164527770Y-93929565D01*
X164685844Y-93692990D01*
X164686505Y-93691394D01*
X164896435Y-93749960D01*
X165682395Y-92964000D01*
X166041605Y-92964000D01*
X166827565Y-93749960D01*
X167037495Y-93691394D01*
X167038156Y-93692990D01*
X167206580Y-93945056D01*
X167420944Y-94159420D01*
X167673010Y-94327844D01*
X167953090Y-94443858D01*
X168250422Y-94503000D01*
X168553578Y-94503000D01*
X168850910Y-94443858D01*
X169130990Y-94327844D01*
X169383056Y-94159420D01*
X169597420Y-93945056D01*
X169765844Y-93692990D01*
X169881858Y-93412910D01*
X169941000Y-93115578D01*
X169941000Y-92812422D01*
X169881858Y-92515090D01*
X169765844Y-92235010D01*
X169597420Y-91982944D01*
X169383056Y-91768580D01*
X169130990Y-91600156D01*
X168850910Y-91484142D01*
X168553578Y-91425000D01*
X168250422Y-91425000D01*
X167953090Y-91484142D01*
X167673010Y-91600156D01*
X167420944Y-91768580D01*
X167206580Y-91982944D01*
X167038156Y-92235010D01*
X167037495Y-92236606D01*
X166827565Y-92178040D01*
X166041605Y-92964000D01*
X165682395Y-92964000D01*
X165668253Y-92949858D01*
X165847858Y-92770253D01*
X165862000Y-92784395D01*
X166647960Y-91998435D01*
X166580980Y-91758344D01*
X166331952Y-91641244D01*
X166285464Y-91629710D01*
X168853774Y-89061400D01*
X171828921Y-89061400D01*
X171543724Y-89449119D01*
G04 #@! TA.AperFunction,Conductor*
D26*
G36*
X171543724Y-89449119D02*
G01*
X172561692Y-90467087D01*
X172382087Y-90646692D01*
X171364119Y-89628724D01*
X170874452Y-89988912D01*
X170514151Y-90652882D01*
X170290306Y-91374385D01*
X170211520Y-92125695D01*
X170280822Y-92877938D01*
X170495548Y-93602208D01*
X170847445Y-94270670D01*
X170874452Y-94311088D01*
X171364119Y-94671276D01*
X172382087Y-93653309D01*
X172561692Y-93832914D01*
X171543724Y-94850881D01*
X171837748Y-95250600D01*
X164697774Y-95250600D01*
X163855849Y-94408675D01*
X164050990Y-94327844D01*
X164303056Y-94159420D01*
X164517420Y-93945056D01*
X164527770Y-93929565D01*
X165076040Y-93929565D01*
X165143020Y-94169656D01*
X165392048Y-94286756D01*
X165659135Y-94353023D01*
X165934017Y-94365910D01*
X166206133Y-94324922D01*
X166465023Y-94231636D01*
X166580980Y-94169656D01*
X166647960Y-93929565D01*
X165862000Y-93143605D01*
X165076040Y-93929565D01*
X164527770Y-93929565D01*
X164685844Y-93692990D01*
X164686505Y-93691394D01*
X164896435Y-93749960D01*
X165682395Y-92964000D01*
X166041605Y-92964000D01*
X166827565Y-93749960D01*
X167037495Y-93691394D01*
X167038156Y-93692990D01*
X167206580Y-93945056D01*
X167420944Y-94159420D01*
X167673010Y-94327844D01*
X167953090Y-94443858D01*
X168250422Y-94503000D01*
X168553578Y-94503000D01*
X168850910Y-94443858D01*
X169130990Y-94327844D01*
X169383056Y-94159420D01*
X169597420Y-93945056D01*
X169765844Y-93692990D01*
X169881858Y-93412910D01*
X169941000Y-93115578D01*
X169941000Y-92812422D01*
X169881858Y-92515090D01*
X169765844Y-92235010D01*
X169597420Y-91982944D01*
X169383056Y-91768580D01*
X169130990Y-91600156D01*
X168850910Y-91484142D01*
X168553578Y-91425000D01*
X168250422Y-91425000D01*
X167953090Y-91484142D01*
X167673010Y-91600156D01*
X167420944Y-91768580D01*
X167206580Y-91982944D01*
X167038156Y-92235010D01*
X167037495Y-92236606D01*
X166827565Y-92178040D01*
X166041605Y-92964000D01*
X165682395Y-92964000D01*
X165668253Y-92949858D01*
X165847858Y-92770253D01*
X165862000Y-92784395D01*
X166647960Y-91998435D01*
X166580980Y-91758344D01*
X166331952Y-91641244D01*
X166285464Y-91629710D01*
X168853774Y-89061400D01*
X171828921Y-89061400D01*
X171543724Y-89449119D01*
G37*
G04 #@! TD.AperFunction*
D25*
X150815748Y-92949858D02*
X150801605Y-92964000D01*
X150815748Y-92978143D01*
X150636143Y-93157748D01*
X150622000Y-93143605D01*
X150607858Y-93157748D01*
X150428253Y-92978143D01*
X150442395Y-92964000D01*
X150428253Y-92949858D01*
X150607858Y-92770253D01*
X150622000Y-92784395D01*
X150636143Y-92770253D01*
X150815748Y-92949858D01*
G04 #@! TA.AperFunction,Conductor*
D26*
G36*
X150815748Y-92949858D02*
G01*
X150801605Y-92964000D01*
X150815748Y-92978143D01*
X150636143Y-93157748D01*
X150622000Y-93143605D01*
X150607858Y-93157748D01*
X150428253Y-92978143D01*
X150442395Y-92964000D01*
X150428253Y-92949858D01*
X150607858Y-92770253D01*
X150622000Y-92784395D01*
X150636143Y-92770253D01*
X150815748Y-92949858D01*
G37*
G04 #@! TD.AperFunction*
D25*
X133570289Y-83108171D02*
X133514195Y-83293090D01*
X133500000Y-83437213D01*
X133500000Y-84083586D01*
X133514195Y-84227709D01*
X133570289Y-84412628D01*
X133661382Y-84583051D01*
X133783972Y-84732428D01*
X133933349Y-84855018D01*
X134103771Y-84946111D01*
X134288690Y-85002205D01*
X134481000Y-85021146D01*
X134673309Y-85002205D01*
X134858228Y-84946111D01*
X134900300Y-84923623D01*
X134900300Y-92012562D01*
X134756524Y-91797385D01*
X134390615Y-91431476D01*
X133960351Y-91143983D01*
X133482268Y-90945954D01*
X132974737Y-90845000D01*
X132457263Y-90845000D01*
X131949732Y-90945954D01*
X131471649Y-91143983D01*
X131041385Y-91431476D01*
X130675476Y-91797385D01*
X130387983Y-92227649D01*
X130366000Y-92280721D01*
X130344017Y-92227649D01*
X130056524Y-91797385D01*
X129690615Y-91431476D01*
X129260351Y-91143983D01*
X128782268Y-90945954D01*
X128274737Y-90845000D01*
X127757263Y-90845000D01*
X127249732Y-90945954D01*
X126771649Y-91143983D01*
X126341385Y-91431476D01*
X125975476Y-91797385D01*
X125687983Y-92227649D01*
X125548843Y-92563562D01*
X125548843Y-91622000D01*
X125541487Y-91547311D01*
X125519701Y-91475492D01*
X125484322Y-91409304D01*
X125436711Y-91351289D01*
X125378696Y-91303678D01*
X125312508Y-91268299D01*
X125240689Y-91246513D01*
X125166000Y-91239157D01*
X121646600Y-91239157D01*
X121646600Y-86563891D01*
X124344000Y-83866491D01*
X124344000Y-84083586D01*
X124358195Y-84227709D01*
X124414289Y-84412628D01*
X124505382Y-84583051D01*
X124627972Y-84732428D01*
X124777349Y-84855018D01*
X124947771Y-84946111D01*
X125132690Y-85002205D01*
X125325000Y-85021146D01*
X125517309Y-85002205D01*
X125702228Y-84946111D01*
X125872651Y-84855018D01*
X126022028Y-84732428D01*
X126144618Y-84583051D01*
X126183993Y-84509386D01*
X126232610Y-84625346D01*
X126368693Y-84827125D01*
X126541526Y-84998478D01*
X126744467Y-85132821D01*
X126969718Y-85224991D01*
X127007391Y-85228862D01*
X127198000Y-85104131D01*
X127198000Y-83887400D01*
X127178000Y-83887400D01*
X127178000Y-83633400D01*
X127198000Y-83633400D01*
X127198000Y-83613400D01*
X127452000Y-83613400D01*
X127452000Y-83633400D01*
X127472000Y-83633400D01*
X127472000Y-83887400D01*
X127452000Y-83887400D01*
X127452000Y-85104131D01*
X127642609Y-85228862D01*
X127680282Y-85224991D01*
X127905533Y-85132821D01*
X128108474Y-84998478D01*
X128281307Y-84827125D01*
X128401628Y-84648718D01*
X128448810Y-84736989D01*
X128527512Y-84832888D01*
X128623411Y-84911590D01*
X128732821Y-84970071D01*
X128851538Y-85006083D01*
X128974999Y-85018243D01*
X129675001Y-85018243D01*
X129798462Y-85006083D01*
X129917179Y-84970071D01*
X130026589Y-84911590D01*
X130122488Y-84832888D01*
X130201190Y-84736989D01*
X130259671Y-84627579D01*
X130295683Y-84508862D01*
X130307843Y-84385401D01*
X130307843Y-83135399D01*
X130295683Y-83011938D01*
X130292668Y-83002000D01*
X133627040Y-83002000D01*
X133570289Y-83108171D01*
G04 #@! TA.AperFunction,Conductor*
D26*
G36*
X133570289Y-83108171D02*
G01*
X133514195Y-83293090D01*
X133500000Y-83437213D01*
X133500000Y-84083586D01*
X133514195Y-84227709D01*
X133570289Y-84412628D01*
X133661382Y-84583051D01*
X133783972Y-84732428D01*
X133933349Y-84855018D01*
X134103771Y-84946111D01*
X134288690Y-85002205D01*
X134481000Y-85021146D01*
X134673309Y-85002205D01*
X134858228Y-84946111D01*
X134900300Y-84923623D01*
X134900300Y-92012562D01*
X134756524Y-91797385D01*
X134390615Y-91431476D01*
X133960351Y-91143983D01*
X133482268Y-90945954D01*
X132974737Y-90845000D01*
X132457263Y-90845000D01*
X131949732Y-90945954D01*
X131471649Y-91143983D01*
X131041385Y-91431476D01*
X130675476Y-91797385D01*
X130387983Y-92227649D01*
X130366000Y-92280721D01*
X130344017Y-92227649D01*
X130056524Y-91797385D01*
X129690615Y-91431476D01*
X129260351Y-91143983D01*
X128782268Y-90945954D01*
X128274737Y-90845000D01*
X127757263Y-90845000D01*
X127249732Y-90945954D01*
X126771649Y-91143983D01*
X126341385Y-91431476D01*
X125975476Y-91797385D01*
X125687983Y-92227649D01*
X125548843Y-92563562D01*
X125548843Y-91622000D01*
X125541487Y-91547311D01*
X125519701Y-91475492D01*
X125484322Y-91409304D01*
X125436711Y-91351289D01*
X125378696Y-91303678D01*
X125312508Y-91268299D01*
X125240689Y-91246513D01*
X125166000Y-91239157D01*
X121646600Y-91239157D01*
X121646600Y-86563891D01*
X124344000Y-83866491D01*
X124344000Y-84083586D01*
X124358195Y-84227709D01*
X124414289Y-84412628D01*
X124505382Y-84583051D01*
X124627972Y-84732428D01*
X124777349Y-84855018D01*
X124947771Y-84946111D01*
X125132690Y-85002205D01*
X125325000Y-85021146D01*
X125517309Y-85002205D01*
X125702228Y-84946111D01*
X125872651Y-84855018D01*
X126022028Y-84732428D01*
X126144618Y-84583051D01*
X126183993Y-84509386D01*
X126232610Y-84625346D01*
X126368693Y-84827125D01*
X126541526Y-84998478D01*
X126744467Y-85132821D01*
X126969718Y-85224991D01*
X127007391Y-85228862D01*
X127198000Y-85104131D01*
X127198000Y-83887400D01*
X127178000Y-83887400D01*
X127178000Y-83633400D01*
X127198000Y-83633400D01*
X127198000Y-83613400D01*
X127452000Y-83613400D01*
X127452000Y-83633400D01*
X127472000Y-83633400D01*
X127472000Y-83887400D01*
X127452000Y-83887400D01*
X127452000Y-85104131D01*
X127642609Y-85228862D01*
X127680282Y-85224991D01*
X127905533Y-85132821D01*
X128108474Y-84998478D01*
X128281307Y-84827125D01*
X128401628Y-84648718D01*
X128448810Y-84736989D01*
X128527512Y-84832888D01*
X128623411Y-84911590D01*
X128732821Y-84970071D01*
X128851538Y-85006083D01*
X128974999Y-85018243D01*
X129675001Y-85018243D01*
X129798462Y-85006083D01*
X129917179Y-84970071D01*
X130026589Y-84911590D01*
X130122488Y-84832888D01*
X130201190Y-84736989D01*
X130259671Y-84627579D01*
X130295683Y-84508862D01*
X130307843Y-84385401D01*
X130307843Y-83135399D01*
X130295683Y-83011938D01*
X130292668Y-83002000D01*
X133627040Y-83002000D01*
X133570289Y-83108171D01*
G37*
G04 #@! TD.AperFunction*
M02*
