M48
; DRILL file {KiCad 5.1.9-73d0e3b20d~88~ubuntu18.04.1} date Mon Feb 15 13:28:02 2021
; FORMAT={-:-/ absolute / inch / decimal}
; #@! TF.CreationDate,2021-02-15T13:28:02-05:00
; #@! TF.GenerationSoftware,Kicad,Pcbnew,5.1.9-73d0e3b20d~88~ubuntu18.04.1
; #@! TF.FileFunction,Plated,1,2,PTH
FMAT,2
INCH
T1C0.0157
T2C0.0197
T3C0.0295
T4C0.0394
T5C0.0400
T6C0.0512
T7C0.0630
T8C0.0728
T9C0.1260
%
G90
G05
T1
X4.167Y-3.951
X4.352Y-4.981
X4.392Y-3.241
X4.422Y-3.096
X4.682Y-4.401
X5.082Y-3.431
X5.327Y-4.756
X5.347Y-4.311
X5.392Y-3.621
X5.622Y-4.126
X5.717Y-4.316
X5.732Y-4.356
X5.757Y-4.251
X5.777Y-3.131
X5.957Y-2.976
X6.117Y-3.456
X6.152Y-4.501
X6.1705Y-4.3474
X6.687Y-4.836
X6.957Y-3.321
X7.012Y-4.896
X7.047Y-3.606
X7.097Y-3.911
X7.302Y-4.096
X7.402Y-3.941
X7.442Y-3.026
X7.447Y-4.096
X7.457Y-3.676
X7.462Y-4.286
T2
X4.7085Y-4.928
X4.7361Y-4.8611
X4.7361Y-4.9948
X4.803Y-4.8335
X4.803Y-5.0224
X4.8698Y-4.8611
X4.8698Y-4.9948
X4.8974Y-4.928
X6.7585Y-3.628
X6.7585Y-4.728
X6.7861Y-3.5611
X6.7861Y-3.6948
X6.7861Y-4.6611
X6.7861Y-4.7948
X6.853Y-3.5335
X6.853Y-3.7224
X6.853Y-4.6335
X6.853Y-4.8224
X6.9198Y-3.5611
X6.9198Y-3.6948
X6.9198Y-4.6611
X6.9198Y-4.7948
X6.9474Y-3.628
X6.9474Y-4.728
T3
X4.9341Y-3.2977
X5.0128Y-3.2977
X5.0915Y-3.2977
X5.2945Y-3.2977
X5.3733Y-3.2977
X5.452Y-3.2977
T4
X5.5031Y-4.03
X5.5031Y-4.76
X5.6016Y-4.03
X5.6016Y-4.76
X5.7Y-4.03
X5.7Y-4.76
T5
X4.993Y-3.028
X5.093Y-3.028
X5.193Y-3.028
X5.293Y-3.028
X5.353Y-4.928
X5.393Y-3.028
X5.453Y-4.928
X5.493Y-3.028
X5.553Y-4.928
X5.593Y-3.028
X5.653Y-4.928
X5.693Y-3.028
X5.753Y-4.928
X5.793Y-3.028
X5.853Y-4.928
X5.893Y-3.028
X5.93Y-3.16
X5.93Y-3.66
X5.94Y-4.18
X5.94Y-4.68
X5.953Y-4.928
X6.03Y-3.16
X6.03Y-3.66
X6.04Y-4.18
X6.04Y-4.68
X6.053Y-3.028
X6.053Y-4.928
X6.13Y-3.16
X6.13Y-3.66
X6.14Y-4.18
X6.14Y-4.68
X6.153Y-3.028
X6.23Y-3.16
X6.23Y-3.66
X6.24Y-4.18
X6.24Y-4.68
X6.253Y-3.028
X6.253Y-4.928
X6.33Y-3.16
X6.33Y-3.66
X6.34Y-4.18
X6.34Y-4.68
X6.353Y-3.028
X6.353Y-4.928
X6.43Y-3.16
X6.43Y-3.66
X6.44Y-4.18
X6.44Y-4.68
X6.453Y-3.028
X6.453Y-4.928
X6.53Y-3.16
X6.53Y-3.66
X6.54Y-4.18
X6.54Y-4.68
X6.553Y-3.028
X6.553Y-4.928
X6.63Y-3.16
X6.63Y-3.66
X6.64Y-4.18
X6.64Y-4.68
X6.653Y-3.028
X6.653Y-4.928
X6.753Y-3.028
X6.753Y-4.928
T6
X7.312Y-4.296
X7.312Y-4.496
X7.312Y-4.696
X7.312Y-4.896
X7.322Y-3.061
X7.322Y-3.261
X7.322Y-3.461
X7.322Y-3.661
T7
X4.33Y-4.02
X4.4481Y-4.205
X4.5662Y-4.02
T8
X4.855Y-3.68
X4.855Y-4.04
X4.855Y-4.39
X5.04Y-3.68
X5.04Y-4.04
X5.04Y-4.39
X5.225Y-3.68
X5.225Y-4.04
X5.225Y-4.39
T9
X4.803Y-4.928
X6.853Y-3.628
X6.853Y-4.728
T0
M30
