%MOIN*%
%OFA0B0*%
%FSLAX46Y46*%
%IPPOS*%
%LPD*%
%ADD10C,0.0047244094488188976*%
%ADD11C,0.005905511811023622*%
%ADD22C,0.00984251968503937*%
%ADD23C,0.0047244094488188976*%
%ADD24C,0.005905511811023622*%
%ADD25C,0.0047244094488188976*%
%ADD26C,0.005905511811023622*%
G01*
D10*
X0003913015Y0000630826D02*
X0003913015Y0000581614D01*
X0003962228Y0000630826D02*
X0003913015Y0000630826D01*
X0004391362Y0000414291D02*
X0004172858Y0000414291D01*
X0004391362Y0000530433D02*
X0004391362Y0000414291D01*
X0004420889Y0000530433D02*
X0004391362Y0000530433D01*
X0003954354Y0000414291D02*
X0004172858Y0000414291D01*
X0003954354Y0000530433D02*
X0003954354Y0000414291D01*
X0003924826Y0000530433D02*
X0003954354Y0000530433D01*
X0004420889Y0000619015D02*
X0004350023Y0000619015D01*
X0004420889Y0000589488D02*
X0004420889Y0000619015D01*
X0004350023Y0000589488D02*
X0004420889Y0000589488D01*
X0004350023Y0000619015D02*
X0004350023Y0000589488D01*
X0003995692Y0000619015D02*
X0003924826Y0000619015D01*
X0003995692Y0000589488D02*
X0003995692Y0000619015D01*
X0003924826Y0000589488D02*
X0003995692Y0000589488D01*
X0003924826Y0000619015D02*
X0003924826Y0000589488D01*
X0004290968Y0000619015D02*
X0004054748Y0000619015D01*
X0004290968Y0000589488D02*
X0004290968Y0000619015D01*
X0004054748Y0000589488D02*
X0004290968Y0000589488D01*
X0004054748Y0000619015D02*
X0004054748Y0000589488D01*
X0004421283Y0000619409D02*
X0003924433Y0000619409D01*
X0004421283Y0000384370D02*
X0004421283Y0000619409D01*
X0003924433Y0000384370D02*
X0004421283Y0000384370D01*
X0003924433Y0000619409D02*
X0003924433Y0000384370D01*
D11*
X0004159734Y0000683882D02*
X0004159734Y0000655761D01*
X0004157860Y0000650136D01*
X0004154110Y0000646387D01*
X0004148486Y0000644512D01*
X0004144736Y0000644512D01*
X0004176607Y0000680133D02*
X0004178482Y0000682007D01*
X0004182232Y0000683882D01*
X0004191605Y0000683882D01*
X0004195355Y0000682007D01*
X0004197230Y0000680133D01*
X0004199104Y0000676383D01*
X0004199104Y0000672634D01*
X0004197230Y0000667009D01*
X0004174733Y0000644512D01*
X0004199104Y0000644512D01*
G04 next file*
G04 #@! TF.GenerationSoftware,KiCad,Pcbnew,5.1.9-73d0e3b20d~88~ubuntu18.04.1*
G04 #@! TF.CreationDate,2021-02-13T22:05:11-05:00*
G04 #@! TF.ProjectId,driver,64726976-6572-42e6-9b69-6361645f7063,v1.0.0*
G04 #@! TF.SameCoordinates,Original*
G04 #@! TF.FileFunction,Legend,Top*
G04 #@! TF.FilePolarity,Positive*
G04 Gerber Fmt 4.6, Leading zero omitted, Abs format (unit mm)*
G04 Created by KiCad (PCBNEW 5.1.9-73d0e3b20d~88~ubuntu18.04.1) date 2021-02-13 22:05:11*
G01*
G04 APERTURE LIST*
G04 APERTURE END LIST*
D22*
X0003582262Y0000159745D02*
X0003558828Y0000146622D01*
X0003582262Y0000137248D02*
X0003533050Y0000137248D01*
X0003533050Y0000152246D01*
X0003535393Y0000155996D01*
X0003537737Y0000157870D01*
X0003542423Y0000159745D01*
X0003549454Y0000159745D01*
X0003554141Y0000157870D01*
X0003556484Y0000155996D01*
X0003558828Y0000152246D01*
X0003558828Y0000137248D01*
X0003579919Y0000191616D02*
X0003582262Y0000187867D01*
X0003582262Y0000180368D01*
X0003579919Y0000176618D01*
X0003575232Y0000174743D01*
X0003556484Y0000174743D01*
X0003551797Y0000176618D01*
X0003549454Y0000180368D01*
X0003549454Y0000187867D01*
X0003551797Y0000191616D01*
X0003556484Y0000193491D01*
X0003561171Y0000193491D01*
X0003565858Y0000174743D01*
X0003582262Y0000227237D02*
X0003533050Y0000227237D01*
X0003579919Y0000227237D02*
X0003582262Y0000223487D01*
X0003582262Y0000215988D01*
X0003579919Y0000212239D01*
X0003577575Y0000210364D01*
X0003572888Y0000208489D01*
X0003558828Y0000208489D01*
X0003554141Y0000210364D01*
X0003551797Y0000212239D01*
X0003549454Y0000215988D01*
X0003549454Y0000223487D01*
X0003551797Y0000227237D01*
X0003598666Y0000285355D02*
X0003528363Y0000285355D01*
X0003533050Y0000339723D02*
X0003582262Y0000349097D01*
X0003547110Y0000356596D01*
X0003582262Y0000364095D01*
X0003533050Y0000373468D01*
X0003582262Y0000388467D02*
X0003533050Y0000388467D01*
X0003582262Y0000405340D02*
X0003556484Y0000405340D01*
X0003551797Y0000403465D01*
X0003549454Y0000399715D01*
X0003549454Y0000394091D01*
X0003551797Y0000390341D01*
X0003554141Y0000388467D01*
X0003582262Y0000424087D02*
X0003549454Y0000424087D01*
X0003533050Y0000424087D02*
X0003535393Y0000422212D01*
X0003537737Y0000424087D01*
X0003535393Y0000425962D01*
X0003533050Y0000424087D01*
X0003537737Y0000424087D01*
X0003549454Y0000437211D02*
X0003549454Y0000452209D01*
X0003533050Y0000442835D02*
X0003575232Y0000442835D01*
X0003579919Y0000444710D01*
X0003582262Y0000448459D01*
X0003582262Y0000452209D01*
X0003579919Y0000480330D02*
X0003582262Y0000476581D01*
X0003582262Y0000469082D01*
X0003579919Y0000465332D01*
X0003575232Y0000463457D01*
X0003556484Y0000463457D01*
X0003551797Y0000465332D01*
X0003549454Y0000469082D01*
X0003549454Y0000476581D01*
X0003551797Y0000480330D01*
X0003556484Y0000482205D01*
X0003561171Y0000482205D01*
X0003565858Y0000463457D01*
X0003598666Y0000538448D02*
X0003528363Y0000538448D01*
X0003556484Y0000609689D02*
X0003558828Y0000615313D01*
X0003561171Y0000617188D01*
X0003565858Y0000619063D01*
X0003572888Y0000619063D01*
X0003577575Y0000617188D01*
X0003579919Y0000615313D01*
X0003582262Y0000611564D01*
X0003582262Y0000596566D01*
X0003533050Y0000596566D01*
X0003533050Y0000609689D01*
X0003535393Y0000613439D01*
X0003537737Y0000615313D01*
X0003542423Y0000617188D01*
X0003547110Y0000617188D01*
X0003551797Y0000615313D01*
X0003554141Y0000613439D01*
X0003556484Y0000609689D01*
X0003556484Y0000596566D01*
X0003582262Y0000641560D02*
X0003579919Y0000637810D01*
X0003575232Y0000635936D01*
X0003533050Y0000635936D01*
X0003582262Y0000673431D02*
X0003556484Y0000673431D01*
X0003551797Y0000671556D01*
X0003549454Y0000667807D01*
X0003549454Y0000660308D01*
X0003551797Y0000656558D01*
X0003579919Y0000673431D02*
X0003582262Y0000669681D01*
X0003582262Y0000660308D01*
X0003579919Y0000656558D01*
X0003575232Y0000654683D01*
X0003570545Y0000654683D01*
X0003565858Y0000656558D01*
X0003563515Y0000660308D01*
X0003563515Y0000669681D01*
X0003561171Y0000673431D01*
X0003579919Y0000709052D02*
X0003582262Y0000705302D01*
X0003582262Y0000697803D01*
X0003579919Y0000694053D01*
X0003577575Y0000692179D01*
X0003572888Y0000690304D01*
X0003558828Y0000690304D01*
X0003554141Y0000692179D01*
X0003551797Y0000694053D01*
X0003549454Y0000697803D01*
X0003549454Y0000705302D01*
X0003551797Y0000709052D01*
X0003582262Y0000725924D02*
X0003533050Y0000725924D01*
X0003563515Y0000729674D02*
X0003582262Y0000740923D01*
X0003549454Y0000740923D02*
X0003568202Y0000725924D01*
X0003598666Y0000797166D02*
X0003528363Y0000797166D01*
X0003535393Y0000875906D02*
X0003533050Y0000872156D01*
X0003533050Y0000866532D01*
X0003535393Y0000860908D01*
X0003540080Y0000857158D01*
X0003544767Y0000855283D01*
X0003554141Y0000853409D01*
X0003561171Y0000853409D01*
X0003570545Y0000855283D01*
X0003575232Y0000857158D01*
X0003579919Y0000860908D01*
X0003582262Y0000866532D01*
X0003582262Y0000870281D01*
X0003579919Y0000875906D01*
X0003577575Y0000877780D01*
X0003561171Y0000877780D01*
X0003561171Y0000870281D01*
X0003582262Y0000894653D02*
X0003549454Y0000894653D01*
X0003558828Y0000894653D02*
X0003554141Y0000896528D01*
X0003551797Y0000898403D01*
X0003549454Y0000902152D01*
X0003549454Y0000905902D01*
X0003579919Y0000934023D02*
X0003582262Y0000930274D01*
X0003582262Y0000922775D01*
X0003579919Y0000919025D01*
X0003575232Y0000917151D01*
X0003556484Y0000917151D01*
X0003551797Y0000919025D01*
X0003549454Y0000922775D01*
X0003549454Y0000930274D01*
X0003551797Y0000934023D01*
X0003556484Y0000935898D01*
X0003561171Y0000935898D01*
X0003565858Y0000917151D01*
X0003579919Y0000967769D02*
X0003582262Y0000964020D01*
X0003582262Y0000956521D01*
X0003579919Y0000952771D01*
X0003575232Y0000950896D01*
X0003556484Y0000950896D01*
X0003551797Y0000952771D01*
X0003549454Y0000956521D01*
X0003549454Y0000964020D01*
X0003551797Y0000967769D01*
X0003556484Y0000969644D01*
X0003561171Y0000969644D01*
X0003565858Y0000950896D01*
X0003549454Y0000986517D02*
X0003582262Y0000986517D01*
X0003554141Y0000986517D02*
X0003551797Y0000988392D01*
X0003549454Y0000992141D01*
X0003549454Y0000997765D01*
X0003551797Y0001001515D01*
X0003556484Y0001003390D01*
X0003582262Y0001003390D01*
X0003582262Y0001264745D02*
X0003558828Y0001251622D01*
X0003582262Y0001242248D02*
X0003533050Y0001242248D01*
X0003533050Y0001257246D01*
X0003535393Y0001260996D01*
X0003537737Y0001262870D01*
X0003542423Y0001264745D01*
X0003549454Y0001264745D01*
X0003554141Y0001262870D01*
X0003556484Y0001260996D01*
X0003558828Y0001257246D01*
X0003558828Y0001242248D01*
X0003579919Y0001296616D02*
X0003582262Y0001292867D01*
X0003582262Y0001285368D01*
X0003579919Y0001281618D01*
X0003575232Y0001279743D01*
X0003556484Y0001279743D01*
X0003551797Y0001281618D01*
X0003549454Y0001285368D01*
X0003549454Y0001292867D01*
X0003551797Y0001296616D01*
X0003556484Y0001298491D01*
X0003561171Y0001298491D01*
X0003565858Y0001279743D01*
X0003582262Y0001332237D02*
X0003533050Y0001332237D01*
X0003579919Y0001332237D02*
X0003582262Y0001328487D01*
X0003582262Y0001320988D01*
X0003579919Y0001317239D01*
X0003577575Y0001315364D01*
X0003572888Y0001313489D01*
X0003558828Y0001313489D01*
X0003554141Y0001315364D01*
X0003551797Y0001317239D01*
X0003549454Y0001320988D01*
X0003549454Y0001328487D01*
X0003551797Y0001332237D01*
X0003598666Y0001390355D02*
X0003528363Y0001390355D01*
X0003533050Y0001444723D02*
X0003582262Y0001454097D01*
X0003547110Y0001461596D01*
X0003582262Y0001469095D01*
X0003533050Y0001478468D01*
X0003582262Y0001493467D02*
X0003533050Y0001493467D01*
X0003582262Y0001510340D02*
X0003556484Y0001510340D01*
X0003551797Y0001508465D01*
X0003549454Y0001504715D01*
X0003549454Y0001499091D01*
X0003551797Y0001495341D01*
X0003554141Y0001493467D01*
X0003582262Y0001529087D02*
X0003549454Y0001529087D01*
X0003533050Y0001529087D02*
X0003535393Y0001527212D01*
X0003537737Y0001529087D01*
X0003535393Y0001530962D01*
X0003533050Y0001529087D01*
X0003537737Y0001529087D01*
X0003549454Y0001542211D02*
X0003549454Y0001557209D01*
X0003533050Y0001547835D02*
X0003575232Y0001547835D01*
X0003579919Y0001549710D01*
X0003582262Y0001553459D01*
X0003582262Y0001557209D01*
X0003579919Y0001585330D02*
X0003582262Y0001581581D01*
X0003582262Y0001574082D01*
X0003579919Y0001570332D01*
X0003575232Y0001568457D01*
X0003556484Y0001568457D01*
X0003551797Y0001570332D01*
X0003549454Y0001574082D01*
X0003549454Y0001581581D01*
X0003551797Y0001585330D01*
X0003556484Y0001587205D01*
X0003561171Y0001587205D01*
X0003565858Y0001568457D01*
X0003598666Y0001643448D02*
X0003528363Y0001643448D01*
X0003556484Y0001714689D02*
X0003558828Y0001720313D01*
X0003561171Y0001722188D01*
X0003565858Y0001724063D01*
X0003572888Y0001724063D01*
X0003577575Y0001722188D01*
X0003579919Y0001720313D01*
X0003582262Y0001716564D01*
X0003582262Y0001701566D01*
X0003533050Y0001701566D01*
X0003533050Y0001714689D01*
X0003535393Y0001718439D01*
X0003537737Y0001720313D01*
X0003542423Y0001722188D01*
X0003547110Y0001722188D01*
X0003551797Y0001720313D01*
X0003554141Y0001718439D01*
X0003556484Y0001714689D01*
X0003556484Y0001701566D01*
X0003582262Y0001746560D02*
X0003579919Y0001742810D01*
X0003575232Y0001740936D01*
X0003533050Y0001740936D01*
X0003582262Y0001778431D02*
X0003556484Y0001778431D01*
X0003551797Y0001776556D01*
X0003549454Y0001772807D01*
X0003549454Y0001765308D01*
X0003551797Y0001761558D01*
X0003579919Y0001778431D02*
X0003582262Y0001774681D01*
X0003582262Y0001765308D01*
X0003579919Y0001761558D01*
X0003575232Y0001759683D01*
X0003570545Y0001759683D01*
X0003565858Y0001761558D01*
X0003563515Y0001765308D01*
X0003563515Y0001774681D01*
X0003561171Y0001778431D01*
X0003579919Y0001814052D02*
X0003582262Y0001810302D01*
X0003582262Y0001802803D01*
X0003579919Y0001799053D01*
X0003577575Y0001797179D01*
X0003572888Y0001795304D01*
X0003558828Y0001795304D01*
X0003554141Y0001797179D01*
X0003551797Y0001799053D01*
X0003549454Y0001802803D01*
X0003549454Y0001810302D01*
X0003551797Y0001814052D01*
X0003582262Y0001830924D02*
X0003533050Y0001830924D01*
X0003563515Y0001834674D02*
X0003582262Y0001845923D01*
X0003549454Y0001845923D02*
X0003568202Y0001830924D01*
X0003598666Y0001902166D02*
X0003528363Y0001902166D01*
X0003535393Y0001980906D02*
X0003533050Y0001977156D01*
X0003533050Y0001971532D01*
X0003535393Y0001965908D01*
X0003540080Y0001962158D01*
X0003544767Y0001960283D01*
X0003554141Y0001958409D01*
X0003561171Y0001958409D01*
X0003570545Y0001960283D01*
X0003575232Y0001962158D01*
X0003579919Y0001965908D01*
X0003582262Y0001971532D01*
X0003582262Y0001975281D01*
X0003579919Y0001980906D01*
X0003577575Y0001982780D01*
X0003561171Y0001982780D01*
X0003561171Y0001975281D01*
X0003582262Y0001999653D02*
X0003549454Y0001999653D01*
X0003558828Y0001999653D02*
X0003554141Y0002001528D01*
X0003551797Y0002003403D01*
X0003549454Y0002007152D01*
X0003549454Y0002010902D01*
X0003579919Y0002039023D02*
X0003582262Y0002035274D01*
X0003582262Y0002027775D01*
X0003579919Y0002024025D01*
X0003575232Y0002022151D01*
X0003556484Y0002022151D01*
X0003551797Y0002024025D01*
X0003549454Y0002027775D01*
X0003549454Y0002035274D01*
X0003551797Y0002039023D01*
X0003556484Y0002040898D01*
X0003561171Y0002040898D01*
X0003565858Y0002022151D01*
X0003579919Y0002072769D02*
X0003582262Y0002069020D01*
X0003582262Y0002061521D01*
X0003579919Y0002057771D01*
X0003575232Y0002055896D01*
X0003556484Y0002055896D01*
X0003551797Y0002057771D01*
X0003549454Y0002061521D01*
X0003549454Y0002069020D01*
X0003551797Y0002072769D01*
X0003556484Y0002074644D01*
X0003561171Y0002074644D01*
X0003565858Y0002055896D01*
X0003549454Y0002091517D02*
X0003582262Y0002091517D01*
X0003554141Y0002091517D02*
X0003551797Y0002093392D01*
X0003549454Y0002097141D01*
X0003549454Y0002102765D01*
X0003551797Y0002106515D01*
X0003556484Y0002108390D01*
X0003582262Y0002108390D01*
X0001338669Y0000887056D02*
X0001338669Y0000936269D01*
X0001353667Y0000936269D01*
X0001357416Y0000933925D01*
X0001359291Y0000931582D01*
X0001361166Y0000926895D01*
X0001361166Y0000919864D01*
X0001359291Y0000915178D01*
X0001357416Y0000912834D01*
X0001353667Y0000910491D01*
X0001338669Y0000910491D01*
X0001394912Y0000919864D02*
X0001394912Y0000887056D01*
X0001378039Y0000919864D02*
X0001378039Y0000894086D01*
X0001379914Y0000889400D01*
X0001383663Y0000887056D01*
X0001389287Y0000887056D01*
X0001393037Y0000889400D01*
X0001394912Y0000891743D01*
X0001413659Y0000887056D02*
X0001413659Y0000919864D01*
X0001413659Y0000915178D02*
X0001415534Y0000917521D01*
X0001419284Y0000919864D01*
X0001424908Y0000919864D01*
X0001428657Y0000917521D01*
X0001430532Y0000912834D01*
X0001430532Y0000887056D01*
X0001430532Y0000912834D02*
X0001432407Y0000917521D01*
X0001436157Y0000919864D01*
X0001441781Y0000919864D01*
X0001445530Y0000917521D01*
X0001447405Y0000912834D01*
X0001447405Y0000887056D01*
X0001466153Y0000919864D02*
X0001466153Y0000870652D01*
X0001466153Y0000917521D02*
X0001469902Y0000919864D01*
X0001477401Y0000919864D01*
X0001481151Y0000917521D01*
X0001483026Y0000915178D01*
X0001484900Y0000910491D01*
X0001484900Y0000896430D01*
X0001483026Y0000891743D01*
X0001481151Y0000889400D01*
X0001477401Y0000887056D01*
X0001469902Y0000887056D01*
X0001466153Y0000889400D01*
X0001529895Y0000931582D02*
X0001531770Y0000933925D01*
X0001535519Y0000936269D01*
X0001544893Y0000936269D01*
X0001548642Y0000933925D01*
X0001550517Y0000931582D01*
X0001552392Y0000926895D01*
X0001552392Y0000922208D01*
X0001550517Y0000915178D01*
X0001528020Y0000887056D01*
X0001552392Y0000887056D01*
X0001599261Y0000887056D02*
X0001599261Y0000936269D01*
X0001608635Y0000936269D01*
X0001614259Y0000933925D01*
X0001618009Y0000929238D01*
X0001619884Y0000924551D01*
X0001621758Y0000915178D01*
X0001621758Y0000908147D01*
X0001619884Y0000898773D01*
X0001618009Y0000894086D01*
X0001614259Y0000889400D01*
X0001608635Y0000887056D01*
X0001599261Y0000887056D01*
X0001638631Y0000887056D02*
X0001638631Y0000919864D01*
X0001638631Y0000910491D02*
X0001640506Y0000915178D01*
X0001642381Y0000917521D01*
X0001646130Y0000919864D01*
X0001649880Y0000919864D01*
X0001663003Y0000887056D02*
X0001663003Y0000919864D01*
X0001663003Y0000936269D02*
X0001661128Y0000933925D01*
X0001663003Y0000931582D01*
X0001664878Y0000933925D01*
X0001663003Y0000936269D01*
X0001663003Y0000931582D01*
X0001681751Y0000919864D02*
X0001681751Y0000870652D01*
X0001681751Y0000917521D02*
X0001685500Y0000919864D01*
X0001692999Y0000919864D01*
X0001696749Y0000917521D01*
X0001698624Y0000915178D01*
X0001700498Y0000910491D01*
X0001700498Y0000896430D01*
X0001698624Y0000891743D01*
X0001696749Y0000889400D01*
X0001692999Y0000887056D01*
X0001685500Y0000887056D01*
X0001681751Y0000889400D01*
X0001745493Y0000889400D02*
X0001751117Y0000887056D01*
X0001760491Y0000887056D01*
X0001764240Y0000889400D01*
X0001766115Y0000891743D01*
X0001767990Y0000896430D01*
X0001767990Y0000901117D01*
X0001766115Y0000905804D01*
X0001764240Y0000908147D01*
X0001760491Y0000910491D01*
X0001752992Y0000912834D01*
X0001749242Y0000915178D01*
X0001747368Y0000917521D01*
X0001745493Y0000922208D01*
X0001745493Y0000926895D01*
X0001747368Y0000931582D01*
X0001749242Y0000933925D01*
X0001752992Y0000936269D01*
X0001762366Y0000936269D01*
X0001767990Y0000933925D01*
X0001784863Y0000887056D02*
X0001784863Y0000919864D01*
X0001784863Y0000936269D02*
X0001782988Y0000933925D01*
X0001784863Y0000931582D01*
X0001786738Y0000933925D01*
X0001784863Y0000936269D01*
X0001784863Y0000931582D01*
X0001799861Y0000919864D02*
X0001820483Y0000919864D01*
X0001799861Y0000887056D01*
X0001820483Y0000887056D01*
X0001850480Y0000889400D02*
X0001846730Y0000887056D01*
X0001839231Y0000887056D01*
X0001835482Y0000889400D01*
X0001833607Y0000894086D01*
X0001833607Y0000912834D01*
X0001835482Y0000917521D01*
X0001839231Y0000919864D01*
X0001846730Y0000919864D01*
X0001850480Y0000917521D01*
X0001852355Y0000912834D01*
X0001852355Y0000908147D01*
X0001833607Y0000903460D01*
X0002025219Y0000658902D02*
X0002025219Y0000708115D01*
X0002043967Y0000708115D01*
X0002048654Y0000705772D01*
X0002050997Y0000703428D01*
X0002053341Y0000698741D01*
X0002053341Y0000691711D01*
X0002050997Y0000687024D01*
X0002048654Y0000684681D01*
X0002043967Y0000682337D01*
X0002025219Y0000682337D01*
X0002095523Y0000691711D02*
X0002095523Y0000658902D01*
X0002074432Y0000691711D02*
X0002074432Y0000665933D01*
X0002076775Y0000661246D01*
X0002081462Y0000658902D01*
X0002088492Y0000658902D01*
X0002093179Y0000661246D01*
X0002095523Y0000663589D01*
X0002118957Y0000658902D02*
X0002118957Y0000691711D01*
X0002118957Y0000687024D02*
X0002121301Y0000689367D01*
X0002125988Y0000691711D01*
X0002133018Y0000691711D01*
X0002137705Y0000689367D01*
X0002140049Y0000684681D01*
X0002140049Y0000658902D01*
X0002140049Y0000684681D02*
X0002142392Y0000689367D01*
X0002147079Y0000691711D01*
X0002154109Y0000691711D01*
X0002158796Y0000689367D01*
X0002161140Y0000684681D01*
X0002161140Y0000658902D01*
X0002184574Y0000691711D02*
X0002184574Y0000642498D01*
X0002184574Y0000689367D02*
X0002189261Y0000691711D01*
X0002198635Y0000691711D01*
X0002203322Y0000689367D01*
X0002205665Y0000687024D01*
X0002208009Y0000682337D01*
X0002208009Y0000668276D01*
X0002205665Y0000663589D01*
X0002203322Y0000661246D01*
X0002198635Y0000658902D01*
X0002189261Y0000658902D01*
X0002184574Y0000661246D01*
X0002264252Y0000703428D02*
X0002266595Y0000705772D01*
X0002271282Y0000708115D01*
X0002282999Y0000708115D01*
X0002287686Y0000705772D01*
X0002290030Y0000703428D01*
X0002292373Y0000698741D01*
X0002292373Y0000694054D01*
X0002290030Y0000687024D01*
X0002261908Y0000658902D01*
X0002292373Y0000658902D01*
X0002350960Y0000658902D02*
X0002350960Y0000708115D01*
X0002362677Y0000708115D01*
X0002369707Y0000705772D01*
X0002374394Y0000701085D01*
X0002376738Y0000696398D01*
X0002379081Y0000687024D01*
X0002379081Y0000679994D01*
X0002376738Y0000670620D01*
X0002374394Y0000665933D01*
X0002369707Y0000661246D01*
X0002362677Y0000658902D01*
X0002350960Y0000658902D01*
X0002400172Y0000658902D02*
X0002400172Y0000691711D01*
X0002400172Y0000682337D02*
X0002402516Y0000687024D01*
X0002404859Y0000689367D01*
X0002409546Y0000691711D01*
X0002414233Y0000691711D01*
X0002430637Y0000658902D02*
X0002430637Y0000691711D01*
X0002430637Y0000708115D02*
X0002428294Y0000705772D01*
X0002430637Y0000703428D01*
X0002432981Y0000705772D01*
X0002430637Y0000708115D01*
X0002430637Y0000703428D01*
X0002449385Y0000691711D02*
X0002461102Y0000658902D01*
X0002472819Y0000691711D01*
X0002510315Y0000661246D02*
X0002505628Y0000658902D01*
X0002496254Y0000658902D01*
X0002491567Y0000661246D01*
X0002489224Y0000665933D01*
X0002489224Y0000684681D01*
X0002491567Y0000689367D01*
X0002496254Y0000691711D01*
X0002505628Y0000691711D01*
X0002510315Y0000689367D01*
X0002512658Y0000684681D01*
X0002512658Y0000679994D01*
X0002489224Y0000675307D01*
X0002533749Y0000658902D02*
X0002533749Y0000691711D01*
X0002533749Y0000682337D02*
X0002536093Y0000687024D01*
X0002538436Y0000689367D01*
X0002543123Y0000691711D01*
X0002547810Y0000691711D01*
X0002015219Y0001678902D02*
X0002015219Y0001728115D01*
X0002033967Y0001728115D01*
X0002038654Y0001725772D01*
X0002040997Y0001723428D01*
X0002043341Y0001718741D01*
X0002043341Y0001711711D01*
X0002040997Y0001707024D01*
X0002038654Y0001704681D01*
X0002033967Y0001702337D01*
X0002015219Y0001702337D01*
X0002085523Y0001711711D02*
X0002085523Y0001678902D01*
X0002064432Y0001711711D02*
X0002064432Y0001685933D01*
X0002066775Y0001681246D01*
X0002071462Y0001678902D01*
X0002078492Y0001678902D01*
X0002083179Y0001681246D01*
X0002085523Y0001683589D01*
X0002108957Y0001678902D02*
X0002108957Y0001711711D01*
X0002108957Y0001707024D02*
X0002111301Y0001709367D01*
X0002115988Y0001711711D01*
X0002123018Y0001711711D01*
X0002127705Y0001709367D01*
X0002130049Y0001704681D01*
X0002130049Y0001678902D01*
X0002130049Y0001704681D02*
X0002132392Y0001709367D01*
X0002137079Y0001711711D01*
X0002144109Y0001711711D01*
X0002148796Y0001709367D01*
X0002151140Y0001704681D01*
X0002151140Y0001678902D01*
X0002174574Y0001711711D02*
X0002174574Y0001662498D01*
X0002174574Y0001709367D02*
X0002179261Y0001711711D01*
X0002188635Y0001711711D01*
X0002193322Y0001709367D01*
X0002195665Y0001707024D01*
X0002198009Y0001702337D01*
X0002198009Y0001688276D01*
X0002195665Y0001683589D01*
X0002193322Y0001681246D01*
X0002188635Y0001678902D01*
X0002179261Y0001678902D01*
X0002174574Y0001681246D01*
X0002282373Y0001678902D02*
X0002254252Y0001678902D01*
X0002268312Y0001678902D02*
X0002268312Y0001728115D01*
X0002263626Y0001721085D01*
X0002258939Y0001716398D01*
X0002254252Y0001714054D01*
X0002340960Y0001678902D02*
X0002340960Y0001728115D01*
X0002352677Y0001728115D01*
X0002359707Y0001725772D01*
X0002364394Y0001721085D01*
X0002366738Y0001716398D01*
X0002369081Y0001707024D01*
X0002369081Y0001699994D01*
X0002366738Y0001690620D01*
X0002364394Y0001685933D01*
X0002359707Y0001681246D01*
X0002352677Y0001678902D01*
X0002340960Y0001678902D01*
X0002390172Y0001678902D02*
X0002390172Y0001711711D01*
X0002390172Y0001702337D02*
X0002392516Y0001707024D01*
X0002394859Y0001709367D01*
X0002399546Y0001711711D01*
X0002404233Y0001711711D01*
X0002420637Y0001678902D02*
X0002420637Y0001711711D01*
X0002420637Y0001728115D02*
X0002418294Y0001725772D01*
X0002420637Y0001723428D01*
X0002422981Y0001725772D01*
X0002420637Y0001728115D01*
X0002420637Y0001723428D01*
X0002439385Y0001711711D02*
X0002451102Y0001678902D01*
X0002462819Y0001711711D01*
X0002500315Y0001681246D02*
X0002495628Y0001678902D01*
X0002486254Y0001678902D01*
X0002481567Y0001681246D01*
X0002479224Y0001685933D01*
X0002479224Y0001704681D01*
X0002481567Y0001709367D01*
X0002486254Y0001711711D01*
X0002495628Y0001711711D01*
X0002500315Y0001709367D01*
X0002502658Y0001704681D01*
X0002502658Y0001699994D01*
X0002479224Y0001695307D01*
X0002523749Y0001678902D02*
X0002523749Y0001711711D01*
X0002523749Y0001702337D02*
X0002526093Y0001707024D01*
X0002528436Y0001709367D01*
X0002533123Y0001711711D01*
X0002537810Y0001711711D01*
X0002977262Y0000706914D02*
X0002928050Y0000706914D01*
X0002928050Y0000725661D01*
X0002930393Y0000730348D01*
X0002932737Y0000732692D01*
X0002937423Y0000735035D01*
X0002944454Y0000735035D01*
X0002949141Y0000732692D01*
X0002951484Y0000730348D01*
X0002953828Y0000725661D01*
X0002953828Y0000706914D01*
X0002944454Y0000777217D02*
X0002977262Y0000777217D01*
X0002944454Y0000756126D02*
X0002970232Y0000756126D01*
X0002974919Y0000758470D01*
X0002977262Y0000763157D01*
X0002977262Y0000770187D01*
X0002974919Y0000774874D01*
X0002972575Y0000777217D01*
X0002977262Y0000800652D02*
X0002944454Y0000800652D01*
X0002949141Y0000800652D02*
X0002946797Y0000802995D01*
X0002944454Y0000807682D01*
X0002944454Y0000814713D01*
X0002946797Y0000819400D01*
X0002951484Y0000821743D01*
X0002977262Y0000821743D01*
X0002951484Y0000821743D02*
X0002946797Y0000824086D01*
X0002944454Y0000828773D01*
X0002944454Y0000835804D01*
X0002946797Y0000840491D01*
X0002951484Y0000842834D01*
X0002977262Y0000842834D01*
X0002944454Y0000866269D02*
X0002993666Y0000866269D01*
X0002946797Y0000866269D02*
X0002944454Y0000870956D01*
X0002944454Y0000880329D01*
X0002946797Y0000885016D01*
X0002949141Y0000887360D01*
X0002953828Y0000889703D01*
X0002967888Y0000889703D01*
X0002972575Y0000887360D01*
X0002974919Y0000885016D01*
X0002977262Y0000880329D01*
X0002977262Y0000870956D01*
X0002974919Y0000866269D01*
X0002932737Y0000945946D02*
X0002930393Y0000948290D01*
X0002928050Y0000952977D01*
X0002928050Y0000964694D01*
X0002930393Y0000969381D01*
X0002932737Y0000971724D01*
X0002937423Y0000974068D01*
X0002942110Y0000974068D01*
X0002949141Y0000971724D01*
X0002977262Y0000943603D01*
X0002977262Y0000974068D01*
X0002977262Y0001816914D02*
X0002928050Y0001816914D01*
X0002928050Y0001835661D01*
X0002930393Y0001840348D01*
X0002932737Y0001842692D01*
X0002937423Y0001845035D01*
X0002944454Y0001845035D01*
X0002949141Y0001842692D01*
X0002951484Y0001840348D01*
X0002953828Y0001835661D01*
X0002953828Y0001816914D01*
X0002944454Y0001887217D02*
X0002977262Y0001887217D01*
X0002944454Y0001866126D02*
X0002970232Y0001866126D01*
X0002974919Y0001868470D01*
X0002977262Y0001873157D01*
X0002977262Y0001880187D01*
X0002974919Y0001884874D01*
X0002972575Y0001887217D01*
X0002977262Y0001910652D02*
X0002944454Y0001910652D01*
X0002949141Y0001910652D02*
X0002946797Y0001912995D01*
X0002944454Y0001917682D01*
X0002944454Y0001924713D01*
X0002946797Y0001929400D01*
X0002951484Y0001931743D01*
X0002977262Y0001931743D01*
X0002951484Y0001931743D02*
X0002946797Y0001934086D01*
X0002944454Y0001938773D01*
X0002944454Y0001945804D01*
X0002946797Y0001950491D01*
X0002951484Y0001952834D01*
X0002977262Y0001952834D01*
X0002944454Y0001976269D02*
X0002993666Y0001976269D01*
X0002946797Y0001976269D02*
X0002944454Y0001980956D01*
X0002944454Y0001990329D01*
X0002946797Y0001995016D01*
X0002949141Y0001997360D01*
X0002953828Y0001999703D01*
X0002967888Y0001999703D01*
X0002972575Y0001997360D01*
X0002974919Y0001995016D01*
X0002977262Y0001990329D01*
X0002977262Y0001980956D01*
X0002974919Y0001976269D01*
X0002977262Y0002084068D02*
X0002977262Y0002055946D01*
X0002977262Y0002070007D02*
X0002928050Y0002070007D01*
X0002935080Y0002065320D01*
X0002939767Y0002060633D01*
X0002942110Y0002055946D01*
X0001338669Y0001617056D02*
X0001338669Y0001666269D01*
X0001353667Y0001666269D01*
X0001357416Y0001663925D01*
X0001359291Y0001661582D01*
X0001361166Y0001656895D01*
X0001361166Y0001649864D01*
X0001359291Y0001645178D01*
X0001357416Y0001642834D01*
X0001353667Y0001640491D01*
X0001338669Y0001640491D01*
X0001394912Y0001649864D02*
X0001394912Y0001617056D01*
X0001378039Y0001649864D02*
X0001378039Y0001624086D01*
X0001379914Y0001619400D01*
X0001383663Y0001617056D01*
X0001389287Y0001617056D01*
X0001393037Y0001619400D01*
X0001394912Y0001621743D01*
X0001413659Y0001617056D02*
X0001413659Y0001649864D01*
X0001413659Y0001645178D02*
X0001415534Y0001647521D01*
X0001419284Y0001649864D01*
X0001424908Y0001649864D01*
X0001428657Y0001647521D01*
X0001430532Y0001642834D01*
X0001430532Y0001617056D01*
X0001430532Y0001642834D02*
X0001432407Y0001647521D01*
X0001436157Y0001649864D01*
X0001441781Y0001649864D01*
X0001445530Y0001647521D01*
X0001447405Y0001642834D01*
X0001447405Y0001617056D01*
X0001466153Y0001649864D02*
X0001466153Y0001600652D01*
X0001466153Y0001647521D02*
X0001469902Y0001649864D01*
X0001477401Y0001649864D01*
X0001481151Y0001647521D01*
X0001483026Y0001645178D01*
X0001484900Y0001640491D01*
X0001484900Y0001626430D01*
X0001483026Y0001621743D01*
X0001481151Y0001619400D01*
X0001477401Y0001617056D01*
X0001469902Y0001617056D01*
X0001466153Y0001619400D01*
X0001552392Y0001617056D02*
X0001529895Y0001617056D01*
X0001541143Y0001617056D02*
X0001541143Y0001666269D01*
X0001537394Y0001659238D01*
X0001533644Y0001654551D01*
X0001529895Y0001652208D01*
X0001599261Y0001617056D02*
X0001599261Y0001666269D01*
X0001608635Y0001666269D01*
X0001614259Y0001663925D01*
X0001618009Y0001659238D01*
X0001619884Y0001654551D01*
X0001621758Y0001645178D01*
X0001621758Y0001638147D01*
X0001619884Y0001628773D01*
X0001618009Y0001624086D01*
X0001614259Y0001619400D01*
X0001608635Y0001617056D01*
X0001599261Y0001617056D01*
X0001638631Y0001617056D02*
X0001638631Y0001649864D01*
X0001638631Y0001640491D02*
X0001640506Y0001645178D01*
X0001642381Y0001647521D01*
X0001646130Y0001649864D01*
X0001649880Y0001649864D01*
X0001663003Y0001617056D02*
X0001663003Y0001649864D01*
X0001663003Y0001666269D02*
X0001661128Y0001663925D01*
X0001663003Y0001661582D01*
X0001664878Y0001663925D01*
X0001663003Y0001666269D01*
X0001663003Y0001661582D01*
X0001681751Y0001649864D02*
X0001681751Y0001600652D01*
X0001681751Y0001647521D02*
X0001685500Y0001649864D01*
X0001692999Y0001649864D01*
X0001696749Y0001647521D01*
X0001698624Y0001645178D01*
X0001700498Y0001640491D01*
X0001700498Y0001626430D01*
X0001698624Y0001621743D01*
X0001696749Y0001619400D01*
X0001692999Y0001617056D01*
X0001685500Y0001617056D01*
X0001681751Y0001619400D01*
X0001745493Y0001619400D02*
X0001751117Y0001617056D01*
X0001760491Y0001617056D01*
X0001764240Y0001619400D01*
X0001766115Y0001621743D01*
X0001767990Y0001626430D01*
X0001767990Y0001631117D01*
X0001766115Y0001635804D01*
X0001764240Y0001638147D01*
X0001760491Y0001640491D01*
X0001752992Y0001642834D01*
X0001749242Y0001645178D01*
X0001747368Y0001647521D01*
X0001745493Y0001652208D01*
X0001745493Y0001656895D01*
X0001747368Y0001661582D01*
X0001749242Y0001663925D01*
X0001752992Y0001666269D01*
X0001762366Y0001666269D01*
X0001767990Y0001663925D01*
X0001784863Y0001617056D02*
X0001784863Y0001649864D01*
X0001784863Y0001666269D02*
X0001782988Y0001663925D01*
X0001784863Y0001661582D01*
X0001786738Y0001663925D01*
X0001784863Y0001666269D01*
X0001784863Y0001661582D01*
X0001799861Y0001649864D02*
X0001820483Y0001649864D01*
X0001799861Y0001617056D01*
X0001820483Y0001617056D01*
X0001850480Y0001619400D02*
X0001846730Y0001617056D01*
X0001839231Y0001617056D01*
X0001835482Y0001619400D01*
X0001833607Y0001624086D01*
X0001833607Y0001642834D01*
X0001835482Y0001647521D01*
X0001839231Y0001649864D01*
X0001846730Y0001649864D01*
X0001850480Y0001647521D01*
X0001852355Y0001642834D01*
X0001852355Y0001638147D01*
X0001833607Y0001633460D01*
X0000831462Y0000862056D02*
X0000831462Y0000911269D01*
X0000850210Y0000911269D01*
X0000854897Y0000908925D01*
X0000857240Y0000906582D01*
X0000859584Y0000901895D01*
X0000859584Y0000894864D01*
X0000857240Y0000890178D01*
X0000854897Y0000887834D01*
X0000850210Y0000885491D01*
X0000831462Y0000885491D01*
X0000901766Y0000894864D02*
X0000901766Y0000862056D01*
X0000880675Y0000894864D02*
X0000880675Y0000869086D01*
X0000883018Y0000864400D01*
X0000887705Y0000862056D01*
X0000894735Y0000862056D01*
X0000899422Y0000864400D01*
X0000901766Y0000866743D01*
X0000932231Y0000862056D02*
X0000927544Y0000864400D01*
X0000925200Y0000869086D01*
X0000925200Y0000911269D01*
X0000948635Y0000864400D02*
X0000953322Y0000862056D01*
X0000962696Y0000862056D01*
X0000967383Y0000864400D01*
X0000969726Y0000869086D01*
X0000969726Y0000871430D01*
X0000967383Y0000876117D01*
X0000962696Y0000878460D01*
X0000955665Y0000878460D01*
X0000950978Y0000880804D01*
X0000948635Y0000885491D01*
X0000948635Y0000887834D01*
X0000950978Y0000892521D01*
X0000955665Y0000894864D01*
X0000962696Y0000894864D01*
X0000967383Y0000892521D01*
X0001009565Y0000864400D02*
X0001004878Y0000862056D01*
X0000995504Y0000862056D01*
X0000990817Y0000864400D01*
X0000988474Y0000869086D01*
X0000988474Y0000887834D01*
X0000990817Y0000892521D01*
X0000995504Y0000894864D01*
X0001004878Y0000894864D01*
X0001009565Y0000892521D01*
X0001011908Y0000887834D01*
X0001011908Y0000883147D01*
X0000988474Y0000878460D01*
X0001070495Y0000862056D02*
X0001070495Y0000911269D01*
X0001082212Y0000911269D01*
X0001089242Y0000908925D01*
X0001093929Y0000904238D01*
X0001096273Y0000899551D01*
X0001098616Y0000890178D01*
X0001098616Y0000883147D01*
X0001096273Y0000873773D01*
X0001093929Y0000869086D01*
X0001089242Y0000864400D01*
X0001082212Y0000862056D01*
X0001070495Y0000862056D01*
X0001119707Y0000862056D02*
X0001119707Y0000894864D01*
X0001119707Y0000885491D02*
X0001122051Y0000890178D01*
X0001124394Y0000892521D01*
X0001129081Y0000894864D01*
X0001133768Y0000894864D01*
X0001150172Y0000862056D02*
X0001150172Y0000894864D01*
X0001150172Y0000911269D02*
X0001147829Y0000908925D01*
X0001150172Y0000906582D01*
X0001152516Y0000908925D01*
X0001150172Y0000911269D01*
X0001150172Y0000906582D01*
X0001173607Y0000894864D02*
X0001173607Y0000845652D01*
X0001173607Y0000892521D02*
X0001178294Y0000894864D01*
X0001187668Y0000894864D01*
X0001192355Y0000892521D01*
X0001194698Y0000890178D01*
X0001197041Y0000885491D01*
X0001197041Y0000871430D01*
X0001194698Y0000866743D01*
X0001192355Y0000864400D01*
X0001187668Y0000862056D01*
X0001178294Y0000862056D01*
X0001173607Y0000864400D01*
X0001215789Y0000864400D02*
X0001220476Y0000862056D01*
X0001229850Y0000862056D01*
X0001234537Y0000864400D01*
X0001236880Y0000869086D01*
X0001236880Y0000871430D01*
X0001234537Y0000876117D01*
X0001229850Y0000878460D01*
X0001222819Y0000878460D01*
X0001218132Y0000880804D01*
X0001215789Y0000885491D01*
X0001215789Y0000887834D01*
X0001218132Y0000892521D01*
X0001222819Y0000894864D01*
X0001229850Y0000894864D01*
X0001234537Y0000892521D01*
X0000779563Y0001221117D02*
X0000802997Y0001221117D01*
X0000774876Y0001207056D02*
X0000791280Y0001256269D01*
X0000807684Y0001207056D01*
X0000824088Y0001207056D02*
X0000824088Y0001239864D01*
X0000824088Y0001230491D02*
X0000826432Y0001235178D01*
X0000828775Y0001237521D01*
X0000833462Y0001239864D01*
X0000838149Y0001239864D01*
X0000875644Y0001207056D02*
X0000875644Y0001256269D01*
X0000875644Y0001209400D02*
X0000870957Y0001207056D01*
X0000861584Y0001207056D01*
X0000856897Y0001209400D01*
X0000854553Y0001211743D01*
X0000852210Y0001216430D01*
X0000852210Y0001230491D01*
X0000854553Y0001235178D01*
X0000856897Y0001237521D01*
X0000861584Y0001239864D01*
X0000870957Y0001239864D01*
X0000875644Y0001237521D01*
X0000920170Y0001239864D02*
X0000920170Y0001207056D01*
X0000899079Y0001239864D02*
X0000899079Y0001214086D01*
X0000901422Y0001209400D01*
X0000906109Y0001207056D01*
X0000913140Y0001207056D01*
X0000917827Y0001209400D01*
X0000920170Y0001211743D01*
X0000943605Y0001207056D02*
X0000943605Y0001239864D01*
X0000943605Y0001256269D02*
X0000941261Y0001253925D01*
X0000943605Y0001251582D01*
X0000945948Y0001253925D01*
X0000943605Y0001256269D01*
X0000943605Y0001251582D01*
X0000967039Y0001239864D02*
X0000967039Y0001207056D01*
X0000967039Y0001235178D02*
X0000969383Y0001237521D01*
X0000974070Y0001239864D01*
X0000981100Y0001239864D01*
X0000985787Y0001237521D01*
X0000988130Y0001232834D01*
X0000988130Y0001207056D01*
X0001018595Y0001207056D02*
X0001013908Y0001209400D01*
X0001011565Y0001211743D01*
X0001009221Y0001216430D01*
X0001009221Y0001230491D01*
X0001011565Y0001235178D01*
X0001013908Y0001237521D01*
X0001018595Y0001239864D01*
X0001025626Y0001239864D01*
X0001030312Y0001237521D01*
X0001032656Y0001235178D01*
X0001034999Y0001230491D01*
X0001034999Y0001216430D01*
X0001032656Y0001211743D01*
X0001030312Y0001209400D01*
X0001025626Y0001207056D01*
X0001018595Y0001207056D01*
X0001093586Y0001207056D02*
X0001093586Y0001256269D01*
X0001112333Y0001256269D01*
X0001117020Y0001253925D01*
X0001119364Y0001251582D01*
X0001121707Y0001246895D01*
X0001121707Y0001239864D01*
X0001119364Y0001235178D01*
X0001117020Y0001232834D01*
X0001112333Y0001230491D01*
X0001093586Y0001230491D01*
X0001149829Y0001207056D02*
X0001145142Y0001209400D01*
X0001142798Y0001211743D01*
X0001140455Y0001216430D01*
X0001140455Y0001230491D01*
X0001142798Y0001235178D01*
X0001145142Y0001237521D01*
X0001149829Y0001239864D01*
X0001156859Y0001239864D01*
X0001161546Y0001237521D01*
X0001163890Y0001235178D01*
X0001166233Y0001230491D01*
X0001166233Y0001216430D01*
X0001163890Y0001211743D01*
X0001161546Y0001209400D01*
X0001156859Y0001207056D01*
X0001149829Y0001207056D01*
X0001182637Y0001239864D02*
X0001192011Y0001207056D01*
X0001201385Y0001230491D01*
X0001210759Y0001207056D01*
X0001220132Y0001239864D01*
X0001257628Y0001209400D02*
X0001252941Y0001207056D01*
X0001243567Y0001207056D01*
X0001238880Y0001209400D01*
X0001236537Y0001214086D01*
X0001236537Y0001232834D01*
X0001238880Y0001237521D01*
X0001243567Y0001239864D01*
X0001252941Y0001239864D01*
X0001257628Y0001237521D01*
X0001259971Y0001232834D01*
X0001259971Y0001228147D01*
X0001236537Y0001223460D01*
X0001281062Y0001207056D02*
X0001281062Y0001239864D01*
X0001281062Y0001230491D02*
X0001283406Y0001235178D01*
X0001285749Y0001237521D01*
X0001290436Y0001239864D01*
X0001295123Y0001239864D01*
X0000824432Y0001572056D02*
X0000824432Y0001621269D01*
X0000847866Y0001604864D02*
X0000847866Y0001572056D01*
X0000847866Y0001600178D02*
X0000850210Y0001602521D01*
X0000854897Y0001604864D01*
X0000861927Y0001604864D01*
X0000866614Y0001602521D01*
X0000868957Y0001597834D01*
X0000868957Y0001572056D01*
X0000892392Y0001604864D02*
X0000892392Y0001555652D01*
X0000892392Y0001602521D02*
X0000897079Y0001604864D01*
X0000906453Y0001604864D01*
X0000911140Y0001602521D01*
X0000913483Y0001600178D01*
X0000915827Y0001595491D01*
X0000915827Y0001581430D01*
X0000913483Y0001576743D01*
X0000911140Y0001574400D01*
X0000906453Y0001572056D01*
X0000897079Y0001572056D01*
X0000892392Y0001574400D01*
X0000958009Y0001604864D02*
X0000958009Y0001572056D01*
X0000936918Y0001604864D02*
X0000936918Y0001579086D01*
X0000939261Y0001574400D01*
X0000943948Y0001572056D01*
X0000950978Y0001572056D01*
X0000955665Y0001574400D01*
X0000958009Y0001576743D01*
X0000974413Y0001604864D02*
X0000993161Y0001604864D01*
X0000981443Y0001621269D02*
X0000981443Y0001579086D01*
X0000983787Y0001574400D01*
X0000988474Y0001572056D01*
X0000993161Y0001572056D01*
X0001047060Y0001572056D02*
X0001047060Y0001621269D01*
X0001065808Y0001621269D01*
X0001070495Y0001618925D01*
X0001072838Y0001616582D01*
X0001075182Y0001611895D01*
X0001075182Y0001604864D01*
X0001072838Y0001600178D01*
X0001070495Y0001597834D01*
X0001065808Y0001595491D01*
X0001047060Y0001595491D01*
X0001103303Y0001572056D02*
X0001098616Y0001574400D01*
X0001096273Y0001576743D01*
X0001093929Y0001581430D01*
X0001093929Y0001595491D01*
X0001096273Y0001600178D01*
X0001098616Y0001602521D01*
X0001103303Y0001604864D01*
X0001110333Y0001604864D01*
X0001115020Y0001602521D01*
X0001117364Y0001600178D01*
X0001119707Y0001595491D01*
X0001119707Y0001581430D01*
X0001117364Y0001576743D01*
X0001115020Y0001574400D01*
X0001110333Y0001572056D01*
X0001103303Y0001572056D01*
X0001136112Y0001604864D02*
X0001145485Y0001572056D01*
X0001154859Y0001595491D01*
X0001164233Y0001572056D01*
X0001173607Y0001604864D01*
X0001211102Y0001574400D02*
X0001206415Y0001572056D01*
X0001197041Y0001572056D01*
X0001192355Y0001574400D01*
X0001190011Y0001579086D01*
X0001190011Y0001597834D01*
X0001192355Y0001602521D01*
X0001197041Y0001604864D01*
X0001206415Y0001604864D01*
X0001211102Y0001602521D01*
X0001213446Y0001597834D01*
X0001213446Y0001593147D01*
X0001190011Y0001588460D01*
X0001234537Y0001572056D02*
X0001234537Y0001604864D01*
X0001234537Y0001595491D02*
X0001236880Y0001600178D01*
X0001239224Y0001602521D01*
X0001243911Y0001604864D01*
X0001248597Y0001604864D01*
X0000977262Y0001676345D02*
X0000928050Y0001676345D01*
X0000928050Y0001695093D01*
X0000930393Y0001699780D01*
X0000932737Y0001702123D01*
X0000937423Y0001704467D01*
X0000944454Y0001704467D01*
X0000949141Y0001702123D01*
X0000951484Y0001699780D01*
X0000953828Y0001695093D01*
X0000953828Y0001676345D01*
X0000944454Y0001746649D02*
X0000977262Y0001746649D01*
X0000944454Y0001725558D02*
X0000970232Y0001725558D01*
X0000974919Y0001727901D01*
X0000977262Y0001732588D01*
X0000977262Y0001739618D01*
X0000974919Y0001744305D01*
X0000972575Y0001746649D01*
X0000977262Y0001777114D02*
X0000974919Y0001772427D01*
X0000970232Y0001770083D01*
X0000928050Y0001770083D01*
X0000974919Y0001793518D02*
X0000977262Y0001798205D01*
X0000977262Y0001807579D01*
X0000974919Y0001812266D01*
X0000970232Y0001814609D01*
X0000967888Y0001814609D01*
X0000963202Y0001812266D01*
X0000960858Y0001807579D01*
X0000960858Y0001800548D01*
X0000958515Y0001795861D01*
X0000953828Y0001793518D01*
X0000951484Y0001793518D01*
X0000946797Y0001795861D01*
X0000944454Y0001800548D01*
X0000944454Y0001807579D01*
X0000946797Y0001812266D01*
X0000974919Y0001854448D02*
X0000977262Y0001849761D01*
X0000977262Y0001840387D01*
X0000974919Y0001835700D01*
X0000970232Y0001833357D01*
X0000951484Y0001833357D01*
X0000946797Y0001835700D01*
X0000944454Y0001840387D01*
X0000944454Y0001849761D01*
X0000946797Y0001854448D01*
X0000951484Y0001856791D01*
X0000956171Y0001856791D01*
X0000960858Y0001833357D01*
X0000977262Y0001941156D02*
X0000977262Y0001913034D01*
X0000977262Y0001927095D02*
X0000928050Y0001927095D01*
X0000935080Y0001922408D01*
X0000939767Y0001917721D01*
X0000942110Y0001913034D01*
X0000668262Y0001676345D02*
X0000619050Y0001676345D01*
X0000619050Y0001695093D01*
X0000621393Y0001699780D01*
X0000623737Y0001702123D01*
X0000628423Y0001704467D01*
X0000635454Y0001704467D01*
X0000640141Y0001702123D01*
X0000642484Y0001699780D01*
X0000644828Y0001695093D01*
X0000644828Y0001676345D01*
X0000635454Y0001746649D02*
X0000668262Y0001746649D01*
X0000635454Y0001725558D02*
X0000661232Y0001725558D01*
X0000665919Y0001727901D01*
X0000668262Y0001732588D01*
X0000668262Y0001739618D01*
X0000665919Y0001744305D01*
X0000663575Y0001746649D01*
X0000668262Y0001777114D02*
X0000665919Y0001772427D01*
X0000661232Y0001770083D01*
X0000619050Y0001770083D01*
X0000665919Y0001793518D02*
X0000668262Y0001798205D01*
X0000668262Y0001807579D01*
X0000665919Y0001812266D01*
X0000661232Y0001814609D01*
X0000658888Y0001814609D01*
X0000654202Y0001812266D01*
X0000651858Y0001807579D01*
X0000651858Y0001800548D01*
X0000649515Y0001795861D01*
X0000644828Y0001793518D01*
X0000642484Y0001793518D01*
X0000637797Y0001795861D01*
X0000635454Y0001800548D01*
X0000635454Y0001807579D01*
X0000637797Y0001812266D01*
X0000665919Y0001854448D02*
X0000668262Y0001849761D01*
X0000668262Y0001840387D01*
X0000665919Y0001835700D01*
X0000661232Y0001833357D01*
X0000642484Y0001833357D01*
X0000637797Y0001835700D01*
X0000635454Y0001840387D01*
X0000635454Y0001849761D01*
X0000637797Y0001854448D01*
X0000642484Y0001856791D01*
X0000647171Y0001856791D01*
X0000651858Y0001833357D01*
X0000623737Y0001913034D02*
X0000621393Y0001915378D01*
X0000619050Y0001920065D01*
X0000619050Y0001931782D01*
X0000621393Y0001936469D01*
X0000623737Y0001938812D01*
X0000628423Y0001941156D01*
X0000633110Y0001941156D01*
X0000640141Y0001938812D01*
X0000668262Y0001910691D01*
X0000668262Y0001941156D01*
D23*
X0001831661Y0001706657D02*
X0001831661Y0001773587D01*
X0001831661Y0001923980D02*
X0001831661Y0001857051D01*
X0001656245Y0001923980D02*
X0001831661Y0001923980D01*
X0001656245Y0001706657D02*
X0001831661Y0001706657D01*
X0001614338Y0001748564D02*
X0001614338Y0001773587D01*
X0001614338Y0001882073D02*
X0001614338Y0001857051D01*
X0001614338Y0001882073D02*
X0001656245Y0001923980D01*
X0001614338Y0001748564D02*
X0001656245Y0001706657D01*
X0001580283Y0001881657D02*
X0001604889Y0001881657D01*
X0001592586Y0001893961D02*
X0001592586Y0001869354D01*
X0001002586Y0000283961D02*
X0001002586Y0000259354D01*
X0000990283Y0000271657D02*
X0001014889Y0000271657D01*
X0001024338Y0000138564D02*
X0001066245Y0000096657D01*
X0001024338Y0000272073D02*
X0001066245Y0000313980D01*
X0001024338Y0000272073D02*
X0001024338Y0000247051D01*
X0001024338Y0000138564D02*
X0001024338Y0000163587D01*
X0001066245Y0000096657D02*
X0001241661Y0000096657D01*
X0001066245Y0000313980D02*
X0001241661Y0000313980D01*
X0001241661Y0000313980D02*
X0001241661Y0000247051D01*
X0001241661Y0000096657D02*
X0001241661Y0000163587D01*
X0000336740Y0000410555D02*
X0000336740Y0000318035D01*
X0000336740Y0000142051D02*
X0000336740Y0000234571D01*
X0000563337Y0000142051D02*
X0000336740Y0000142051D01*
X0000563337Y0000410555D02*
X0000336740Y0000410555D01*
X0000605244Y0000368648D02*
X0000605244Y0000318035D01*
X0000605244Y0000183958D02*
X0000605244Y0000234571D01*
X0000605244Y0000183958D02*
X0000563337Y0000142051D01*
X0000605244Y0000368648D02*
X0000563337Y0000410555D01*
X0000645696Y0000203567D02*
X0000614692Y0000203567D01*
X0000630194Y0000188065D02*
X0000630194Y0000219069D01*
X0001491661Y0001706657D02*
X0001491661Y0001773587D01*
X0001491661Y0001923980D02*
X0001491661Y0001857051D01*
X0001316245Y0001923980D02*
X0001491661Y0001923980D01*
X0001316245Y0001706657D02*
X0001491661Y0001706657D01*
X0001274338Y0001748564D02*
X0001274338Y0001773587D01*
X0001274338Y0001882073D02*
X0001274338Y0001857051D01*
X0001274338Y0001882073D02*
X0001316245Y0001923980D01*
X0001274338Y0001748564D02*
X0001316245Y0001706657D01*
X0001240283Y0001881657D02*
X0001264889Y0001881657D01*
X0001252586Y0001893961D02*
X0001252586Y0001869354D01*
X0002333797Y0001243557D02*
X0002333797Y0001212553D01*
X0002318295Y0001228055D02*
X0002349299Y0001228055D01*
X0002358747Y0001062974D02*
X0002400654Y0001021067D01*
X0002358747Y0001247664D02*
X0002400654Y0001289571D01*
X0002358747Y0001247664D02*
X0002358747Y0001197051D01*
X0002358747Y0001062974D02*
X0002358747Y0001113587D01*
X0002400654Y0001021067D02*
X0002627251Y0001021067D01*
X0002400654Y0001289571D02*
X0002627251Y0001289571D01*
X0002627251Y0001289571D02*
X0002627251Y0001197051D01*
X0002627251Y0001021067D02*
X0002627251Y0001113587D01*
X0002227251Y0001021067D02*
X0002227251Y0001113587D01*
X0002227251Y0001289571D02*
X0002227251Y0001197051D01*
X0002000654Y0001289571D02*
X0002227251Y0001289571D01*
X0002000654Y0001021067D02*
X0002227251Y0001021067D01*
X0001958747Y0001062974D02*
X0001958747Y0001113587D01*
X0001958747Y0001247664D02*
X0001958747Y0001197051D01*
X0001958747Y0001247664D02*
X0002000654Y0001289571D01*
X0001958747Y0001062974D02*
X0002000654Y0001021067D01*
X0001918295Y0001228055D02*
X0001949299Y0001228055D01*
X0001933797Y0001243557D02*
X0001933797Y0001212553D01*
X0003483472Y0001263508D02*
X0003483472Y0001283193D01*
X0003454338Y0001263508D02*
X0003483472Y0001263508D01*
X0003302055Y0001925791D02*
X0003317645Y0001910240D01*
X0003197881Y0002029965D02*
X0003212842Y0002015004D01*
X0003313157Y0001935673D02*
X0003328118Y0001920713D01*
X0003208354Y0002040437D02*
X0003223944Y0002024886D01*
X0003302055Y0001725791D02*
X0003317645Y0001710240D01*
X0003197881Y0001829965D02*
X0003212842Y0001815004D01*
X0003313157Y0001735673D02*
X0003328118Y0001720713D01*
X0003208354Y0001840437D02*
X0003223944Y0001824886D01*
X0003302055Y0001525791D02*
X0003317645Y0001510240D01*
X0003197881Y0001629965D02*
X0003212842Y0001615004D01*
X0003313157Y0001535673D02*
X0003328118Y0001520713D01*
X0003208354Y0001640437D02*
X0003223944Y0001624886D01*
X0003313432Y0001314374D02*
X0003317645Y0001310201D01*
X0003197881Y0001429965D02*
X0003202094Y0001425752D01*
X0003323905Y0001324846D02*
X0003328118Y0001320673D01*
X0003208354Y0001440437D02*
X0003212566Y0001436224D01*
X0003028354Y0002077681D02*
X0003474023Y0002077681D01*
X0003028354Y0001272957D02*
X0003474023Y0001272957D01*
X0003474023Y0001272957D02*
X0003474023Y0002077681D01*
X0003028354Y0001272957D02*
X0003028354Y0002077681D01*
X0003109456Y0001272957D02*
X0003109456Y0002077681D01*
X0003353551Y0001272957D02*
X0003353551Y0002077681D01*
X0003451976Y0001272957D02*
X0003451976Y0002077681D01*
X0003348826Y0001975319D02*
G75*
G03*
X0003348826Y0001975319I-0000085826D01*
G01*
X0003348826Y0001775319D02*
G75*
G03*
X0003348826Y0001775319I-0000085826D01*
G01*
X0003348826Y0001575319D02*
G75*
G03*
X0003348826Y0001575319I-0000085826D01*
G01*
X0003348826Y0001375319D02*
G75*
G03*
X0003348826Y0001375319I-0000085826D01*
G01*
X0003348826Y0000270319D02*
G75*
G03*
X0003348826Y0000270319I-0000085826D01*
G01*
X0003348826Y0000470319D02*
G75*
G03*
X0003348826Y0000470319I-0000085826D01*
G01*
X0003348826Y0000670319D02*
G75*
G03*
X0003348826Y0000670319I-0000085826D01*
G01*
X0003348826Y0000870319D02*
G75*
G03*
X0003348826Y0000870319I-0000085826D01*
G01*
X0003451976Y0000167957D02*
X0003451976Y0000972681D01*
X0003353551Y0000167957D02*
X0003353551Y0000972681D01*
X0003109456Y0000167957D02*
X0003109456Y0000972681D01*
X0003028354Y0000167957D02*
X0003028354Y0000972681D01*
X0003474023Y0000167957D02*
X0003474023Y0000972681D01*
X0003028354Y0000167957D02*
X0003474023Y0000167957D01*
X0003028354Y0000972681D02*
X0003474023Y0000972681D01*
X0003208354Y0000335437D02*
X0003212566Y0000331224D01*
X0003323905Y0000219846D02*
X0003328118Y0000215673D01*
X0003197881Y0000324965D02*
X0003202094Y0000320752D01*
X0003313432Y0000209374D02*
X0003317645Y0000205201D01*
X0003208354Y0000535437D02*
X0003223944Y0000519886D01*
X0003313157Y0000430673D02*
X0003328118Y0000415713D01*
X0003197881Y0000524965D02*
X0003212842Y0000510004D01*
X0003302055Y0000420791D02*
X0003317645Y0000405240D01*
X0003208354Y0000735437D02*
X0003223944Y0000719886D01*
X0003313157Y0000630673D02*
X0003328118Y0000615713D01*
X0003197881Y0000724965D02*
X0003212842Y0000710004D01*
X0003302055Y0000620791D02*
X0003317645Y0000605240D01*
X0003208354Y0000935437D02*
X0003223944Y0000919886D01*
X0003313157Y0000830673D02*
X0003328118Y0000815713D01*
X0003197881Y0000924965D02*
X0003212842Y0000910004D01*
X0003302055Y0000820791D02*
X0003317645Y0000805240D01*
X0003454338Y0000158508D02*
X0003483472Y0000158508D01*
X0003483472Y0000158508D02*
X0003483472Y0000178193D01*
X0000896070Y0001979232D02*
X0000846858Y0001979232D01*
X0000896070Y0001930020D02*
X0000896070Y0001979232D01*
X0000722448Y0001768209D02*
X0000742133Y0001768209D01*
X0000742133Y0001764272D02*
X0000722448Y0001764272D01*
X0000742133Y0001772146D02*
X0000742133Y0001764272D01*
X0000722448Y0001772146D02*
X0000742133Y0001772146D01*
X0000722448Y0001846949D02*
X0000742133Y0001846949D01*
X0000742133Y0001843012D02*
X0000722448Y0001843012D01*
X0000742133Y0001850886D02*
X0000742133Y0001843012D01*
X0000722448Y0001850886D02*
X0000742133Y0001850886D01*
X0000781503Y0001647736D02*
X0000781503Y0001671752D01*
X0000832684Y0001647736D02*
X0000832684Y0001671752D01*
X0000781503Y0001967421D02*
X0000781503Y0001943405D01*
X0000832684Y0001967421D02*
X0000832684Y0001943405D01*
X0000860244Y0001748524D02*
X0000884259Y0001748524D01*
X0000860244Y0001671752D02*
X0000860244Y0001748524D01*
X0000722448Y0001671752D02*
X0000860244Y0001671752D01*
X0000722448Y0001943405D02*
X0000722448Y0001671752D01*
X0000860244Y0001943405D02*
X0000722448Y0001943405D01*
X0000860244Y0001866634D02*
X0000860244Y0001943405D01*
X0000884259Y0001866634D02*
X0000860244Y0001866634D01*
X0000888196Y0001898130D02*
X0000888196Y0001909941D01*
X0000892133Y0001909941D02*
X0000884259Y0001909941D01*
X0000892133Y0001898130D02*
X0000892133Y0001909941D01*
X0000884259Y0001898130D02*
X0000892133Y0001898130D01*
X0000884259Y0001647736D02*
X0000884259Y0001967421D01*
X0000698432Y0001647736D02*
X0000884259Y0001647736D01*
X0000698432Y0001967421D02*
X0000698432Y0001647736D01*
X0000884259Y0001967421D02*
X0000698432Y0001967421D01*
X0001194259Y0001967421D02*
X0001008432Y0001967421D01*
X0001008432Y0001967421D02*
X0001008432Y0001647736D01*
X0001008432Y0001647736D02*
X0001194259Y0001647736D01*
X0001194259Y0001647736D02*
X0001194259Y0001967421D01*
X0001194259Y0001898130D02*
X0001202133Y0001898130D01*
X0001202133Y0001898130D02*
X0001202133Y0001909941D01*
X0001202133Y0001909941D02*
X0001194259Y0001909941D01*
X0001198196Y0001898130D02*
X0001198196Y0001909941D01*
X0001194259Y0001866634D02*
X0001170244Y0001866634D01*
X0001170244Y0001866634D02*
X0001170244Y0001943405D01*
X0001170244Y0001943405D02*
X0001032448Y0001943405D01*
X0001032448Y0001943405D02*
X0001032448Y0001671752D01*
X0001032448Y0001671752D02*
X0001170244Y0001671752D01*
X0001170244Y0001671752D02*
X0001170244Y0001748524D01*
X0001170244Y0001748524D02*
X0001194259Y0001748524D01*
X0001142684Y0001967421D02*
X0001142684Y0001943405D01*
X0001091503Y0001967421D02*
X0001091503Y0001943405D01*
X0001142684Y0001647736D02*
X0001142684Y0001671752D01*
X0001091503Y0001647736D02*
X0001091503Y0001671752D01*
X0001032448Y0001850886D02*
X0001052133Y0001850886D01*
X0001052133Y0001850886D02*
X0001052133Y0001843012D01*
X0001052133Y0001843012D02*
X0001032448Y0001843012D01*
X0001032448Y0001846949D02*
X0001052133Y0001846949D01*
X0001032448Y0001772146D02*
X0001052133Y0001772146D01*
X0001052133Y0001772146D02*
X0001052133Y0001764272D01*
X0001052133Y0001764272D02*
X0001032448Y0001764272D01*
X0001032448Y0001768209D02*
X0001052133Y0001768209D01*
X0001206070Y0001930020D02*
X0001206070Y0001979232D01*
X0001206070Y0001979232D02*
X0001156858Y0001979232D01*
X0000370244Y0000894217D02*
X0000015913Y0000894217D01*
X0000015913Y0000894217D02*
X0000015913Y0001256421D01*
X0000015913Y0001256421D02*
X0000590716Y0001256421D01*
X0000590716Y0001256421D02*
X0000590716Y0001146185D01*
X0000590716Y0001004453D02*
X0000590716Y0000894217D01*
X0000590716Y0000894217D02*
X0000511976Y0000894217D01*
X0000531661Y0001265870D02*
X0000600165Y0001265870D01*
X0000600165Y0001265870D02*
X0000600165Y0001197366D01*
X0000554732Y0001864020D02*
X0000314574Y0001864020D01*
X0000554732Y0001907327D02*
X0000554732Y0001864020D01*
X0000314574Y0002076618D02*
X0000511425Y0002076618D01*
X0000314574Y0001791618D02*
X0000511425Y0001791618D01*
X0000554732Y0001622327D02*
X0000554732Y0001579020D01*
X0000554732Y0001579020D02*
X0000314574Y0001579020D01*
X0000554732Y0001299020D02*
X0000314574Y0001299020D01*
X0000554732Y0001342327D02*
X0000554732Y0001299020D01*
X0000314574Y0001511618D02*
X0000511425Y0001511618D01*
X0002194062Y0001799187D02*
X0002194062Y0001819758D01*
X0002251936Y0001799187D02*
X0002251936Y0001819758D01*
X0002261936Y0000779207D02*
X0002261936Y0000799778D01*
X0002204062Y0000779207D02*
X0002204062Y0000799778D01*
X0001398905Y0000369965D02*
X0001398905Y0000522130D01*
X0001398905Y0000699689D02*
X0001398905Y0000851854D01*
X0001790244Y0000369965D02*
X0001790244Y0000522130D01*
X0001790244Y0000699689D02*
X0001790244Y0000851854D01*
X0001398905Y0000369965D02*
X0001461858Y0000369965D01*
X0001530440Y0000369965D02*
X0001560322Y0000369965D01*
X0001628866Y0000369965D02*
X0001658747Y0000369965D01*
X0001727251Y0000369965D02*
X0001790244Y0000369965D01*
X0001398905Y0000851854D02*
X0001790244Y0000851854D01*
X0001398905Y0001581854D02*
X0001790244Y0001581854D01*
X0001727251Y0001099965D02*
X0001790244Y0001099965D01*
X0001628866Y0001099965D02*
X0001658747Y0001099965D01*
X0001530440Y0001099965D02*
X0001560322Y0001099965D01*
X0001398905Y0001099965D02*
X0001461858Y0001099965D01*
X0001790244Y0001429689D02*
X0001790244Y0001581854D01*
X0001790244Y0001099965D02*
X0001790244Y0001252130D01*
X0001398905Y0001429689D02*
X0001398905Y0001581854D01*
X0001398905Y0001099965D02*
X0001398905Y0001252130D01*
X0000782999Y0000575398D02*
X0001282999Y0000575398D01*
X0000782999Y0000835240D02*
X0001282999Y0000835240D01*
X0000782999Y0000575398D02*
X0000782999Y0000835240D01*
X0001282999Y0000575398D02*
X0001282999Y0000835240D01*
X0001282999Y0000925398D02*
X0001282999Y0001185240D01*
X0000782999Y0000925398D02*
X0000782999Y0001185240D01*
X0000782999Y0001185240D02*
X0001282999Y0001185240D01*
X0000782999Y0000925398D02*
X0001282999Y0000925398D01*
X0000782999Y0001285398D02*
X0001282999Y0001285398D01*
X0000782999Y0001545240D02*
X0001282999Y0001545240D01*
X0000782999Y0001285398D02*
X0000782999Y0001545240D01*
X0001282999Y0001285398D02*
X0001282999Y0001545240D01*
X0000607251Y0000690516D02*
X0000557645Y0000690516D01*
X0000338747Y0000690516D02*
X0000388354Y0000690516D01*
X0000607251Y0000542484D02*
X0000607251Y0000690516D01*
X0000338747Y0000453902D02*
X0000338747Y0000690516D01*
X0000664062Y0000418439D02*
X0000664062Y0000397868D01*
X0000721936Y0000418439D02*
X0000721936Y0000397868D01*
X0000943236Y0000559965D02*
X0001167645Y0000559965D01*
X0000943236Y0000390673D02*
X0001167645Y0000390673D01*
X0000943236Y0000559965D02*
X0000943236Y0000390673D01*
D24*
X0001716438Y0001946927D02*
X0001714563Y0001945053D01*
X0001708939Y0001943178D01*
X0001705189Y0001943178D01*
X0001699565Y0001945053D01*
X0001695815Y0001948802D01*
X0001693941Y0001952552D01*
X0001692066Y0001960051D01*
X0001692066Y0001965675D01*
X0001693941Y0001973174D01*
X0001695815Y0001976924D01*
X0001699565Y0001980673D01*
X0001705189Y0001982548D01*
X0001708939Y0001982548D01*
X0001714563Y0001980673D01*
X0001716438Y0001978798D01*
X0001753933Y0001943178D02*
X0001731436Y0001943178D01*
X0001742684Y0001943178D02*
X0001742684Y0001982548D01*
X0001738935Y0001976924D01*
X0001735185Y0001973174D01*
X0001731436Y0001971299D01*
X0001126438Y0000336927D02*
X0001124563Y0000335053D01*
X0001118939Y0000333178D01*
X0001115189Y0000333178D01*
X0001109565Y0000335053D01*
X0001105815Y0000338802D01*
X0001103941Y0000342552D01*
X0001102066Y0000350051D01*
X0001102066Y0000355675D01*
X0001103941Y0000363174D01*
X0001105815Y0000366924D01*
X0001109565Y0000370673D01*
X0001115189Y0000372548D01*
X0001118939Y0000372548D01*
X0001124563Y0000370673D01*
X0001126438Y0000368798D01*
X0001141436Y0000368798D02*
X0001143311Y0000370673D01*
X0001147060Y0000372548D01*
X0001156434Y0000372548D01*
X0001160184Y0000370673D01*
X0001162058Y0000368798D01*
X0001163933Y0000365049D01*
X0001163933Y0000361299D01*
X0001162058Y0000355675D01*
X0001139561Y0000333178D01*
X0001163933Y0000333178D01*
X0000464430Y0000090983D02*
X0000462555Y0000089108D01*
X0000456931Y0000087233D01*
X0000453181Y0000087233D01*
X0000447557Y0000089108D01*
X0000443807Y0000092857D01*
X0000441933Y0000096607D01*
X0000440058Y0000104106D01*
X0000440058Y0000109730D01*
X0000441933Y0000117229D01*
X0000443807Y0000120979D01*
X0000447557Y0000124728D01*
X0000453181Y0000126603D01*
X0000456931Y0000126603D01*
X0000462555Y0000124728D01*
X0000464430Y0000122854D01*
X0000477553Y0000126603D02*
X0000501925Y0000126603D01*
X0000488802Y0000111605D01*
X0000494426Y0000111605D01*
X0000498176Y0000109730D01*
X0000500050Y0000107855D01*
X0000501925Y0000104106D01*
X0000501925Y0000094732D01*
X0000500050Y0000090983D01*
X0000498176Y0000089108D01*
X0000494426Y0000087233D01*
X0000483177Y0000087233D01*
X0000479428Y0000089108D01*
X0000477553Y0000090983D01*
X0001376438Y0001946927D02*
X0001374563Y0001945053D01*
X0001368939Y0001943178D01*
X0001365189Y0001943178D01*
X0001359565Y0001945053D01*
X0001355815Y0001948802D01*
X0001353941Y0001952552D01*
X0001352066Y0001960051D01*
X0001352066Y0001965675D01*
X0001353941Y0001973174D01*
X0001355815Y0001976924D01*
X0001359565Y0001980673D01*
X0001365189Y0001982548D01*
X0001368939Y0001982548D01*
X0001374563Y0001980673D01*
X0001376438Y0001978798D01*
X0001410184Y0001969425D02*
X0001410184Y0001943178D01*
X0001400810Y0001984423D02*
X0001391436Y0001956301D01*
X0001415808Y0001956301D01*
X0002486438Y0001312518D02*
X0002484563Y0001310643D01*
X0002478939Y0001308768D01*
X0002475189Y0001308768D01*
X0002469565Y0001310643D01*
X0002465815Y0001314393D01*
X0002463941Y0001318142D01*
X0002462066Y0001325641D01*
X0002462066Y0001331266D01*
X0002463941Y0001338765D01*
X0002465815Y0001342514D01*
X0002469565Y0001346264D01*
X0002475189Y0001348139D01*
X0002478939Y0001348139D01*
X0002484563Y0001346264D01*
X0002486438Y0001344389D01*
X0002520184Y0001348139D02*
X0002512684Y0001348139D01*
X0002508935Y0001346264D01*
X0002507060Y0001344389D01*
X0002503311Y0001338765D01*
X0002501436Y0001331266D01*
X0002501436Y0001316268D01*
X0002503311Y0001312518D01*
X0002505185Y0001310643D01*
X0002508935Y0001308768D01*
X0002516434Y0001308768D01*
X0002520184Y0001310643D01*
X0002522058Y0001312518D01*
X0002523933Y0001316268D01*
X0002523933Y0001325641D01*
X0002522058Y0001329391D01*
X0002520184Y0001331266D01*
X0002516434Y0001333140D01*
X0002508935Y0001333140D01*
X0002505185Y0001331266D01*
X0002503311Y0001329391D01*
X0002501436Y0001325641D01*
X0002086438Y0001312518D02*
X0002084563Y0001310643D01*
X0002078939Y0001308768D01*
X0002075189Y0001308768D01*
X0002069565Y0001310643D01*
X0002065815Y0001314393D01*
X0002063941Y0001318142D01*
X0002062066Y0001325641D01*
X0002062066Y0001331266D01*
X0002063941Y0001338765D01*
X0002065815Y0001342514D01*
X0002069565Y0001346264D01*
X0002075189Y0001348139D01*
X0002078939Y0001348139D01*
X0002084563Y0001346264D01*
X0002086438Y0001344389D01*
X0002099561Y0001348139D02*
X0002125808Y0001348139D01*
X0002108935Y0001308768D01*
X0002967424Y0001662196D02*
X0002995545Y0001662196D01*
X0003001170Y0001660321D01*
X0003004919Y0001656571D01*
X0003006794Y0001650947D01*
X0003006794Y0001647197D01*
X0003006794Y0001701566D02*
X0003006794Y0001679068D01*
X0003006794Y0001690317D02*
X0002967424Y0001690317D01*
X0002973048Y0001686567D01*
X0002976798Y0001682818D01*
X0002978672Y0001679068D01*
X0002967424Y0000557196D02*
X0002995545Y0000557196D01*
X0003001170Y0000555321D01*
X0003004919Y0000551571D01*
X0003006794Y0000545947D01*
X0003006794Y0000542197D01*
X0002971173Y0000574068D02*
X0002969299Y0000575943D01*
X0002967424Y0000579693D01*
X0002967424Y0000589067D01*
X0002969299Y0000592816D01*
X0002971173Y0000594691D01*
X0002974923Y0000596566D01*
X0002978672Y0000596566D01*
X0002984297Y0000594691D01*
X0003006794Y0000572194D01*
X0003006794Y0000596566D01*
X0000911440Y0001943196D02*
X0000939561Y0001943196D01*
X0000945185Y0001941321D01*
X0000948935Y0001937571D01*
X0000950810Y0001931947D01*
X0000950810Y0001928197D01*
X0000911440Y0001958194D02*
X0000911440Y0001982566D01*
X0000926438Y0001969442D01*
X0000926438Y0001975067D01*
X0000928312Y0001978816D01*
X0000930187Y0001980691D01*
X0000933937Y0001982566D01*
X0000943311Y0001982566D01*
X0000947060Y0001980691D01*
X0000948935Y0001978816D01*
X0000950810Y0001975067D01*
X0000950810Y0001963818D01*
X0000948935Y0001960068D01*
X0000947060Y0001958194D01*
X0001221440Y0001943196D02*
X0001249561Y0001943196D01*
X0001255185Y0001941321D01*
X0001258935Y0001937571D01*
X0001260810Y0001931947D01*
X0001260810Y0001928197D01*
X0001234563Y0001978816D02*
X0001260810Y0001978816D01*
X0001219565Y0001969442D02*
X0001247686Y0001960068D01*
X0001247686Y0001984440D01*
X0000277876Y0000861879D02*
X0000277876Y0000833757D01*
X0000276001Y0000828133D01*
X0000272252Y0000824383D01*
X0000266627Y0000822509D01*
X0000262878Y0000822509D01*
X0000315371Y0000861879D02*
X0000296624Y0000861879D01*
X0000294749Y0000843131D01*
X0000296624Y0000845006D01*
X0000300373Y0000846881D01*
X0000309747Y0000846881D01*
X0000313497Y0000845006D01*
X0000315371Y0000843131D01*
X0000317246Y0000839382D01*
X0000317246Y0000830008D01*
X0000315371Y0000826258D01*
X0000313497Y0000824383D01*
X0000309747Y0000822509D01*
X0000300373Y0000822509D01*
X0000296624Y0000824383D01*
X0000294749Y0000826258D01*
X0000368942Y0002099438D02*
X0000350195Y0002099438D01*
X0000350195Y0002138808D01*
X0000382066Y0002120060D02*
X0000395189Y0002120060D01*
X0000400813Y0002099438D02*
X0000382066Y0002099438D01*
X0000382066Y0002138808D01*
X0000400813Y0002138808D01*
X0000417686Y0002099438D02*
X0000417686Y0002138808D01*
X0000427060Y0002138808D01*
X0000432684Y0002136933D01*
X0000436434Y0002133184D01*
X0000438309Y0002129434D01*
X0000440184Y0002121935D01*
X0000440184Y0002116311D01*
X0000438309Y0002108812D01*
X0000436434Y0002105062D01*
X0000432684Y0002101313D01*
X0000427060Y0002099438D01*
X0000417686Y0002099438D01*
X0000477679Y0002099438D02*
X0000455182Y0002099438D01*
X0000466430Y0002099438D02*
X0000466430Y0002138808D01*
X0000462681Y0002133184D01*
X0000458931Y0002129434D01*
X0000455182Y0002127559D01*
X0000368942Y0001807509D02*
X0000350195Y0001807509D01*
X0000350195Y0001846879D01*
X0000382066Y0001828131D02*
X0000395189Y0001828131D01*
X0000400813Y0001807509D02*
X0000382066Y0001807509D01*
X0000382066Y0001846879D01*
X0000400813Y0001846879D01*
X0000417686Y0001807509D02*
X0000417686Y0001846879D01*
X0000427060Y0001846879D01*
X0000432684Y0001845004D01*
X0000436434Y0001841254D01*
X0000438309Y0001837505D01*
X0000440184Y0001830006D01*
X0000440184Y0001824382D01*
X0000438309Y0001816882D01*
X0000436434Y0001813133D01*
X0000432684Y0001809383D01*
X0000427060Y0001807509D01*
X0000417686Y0001807509D01*
X0000455182Y0001843129D02*
X0000457056Y0001845004D01*
X0000460806Y0001846879D01*
X0000470180Y0001846879D01*
X0000473929Y0001845004D01*
X0000475804Y0001843129D01*
X0000477679Y0001839380D01*
X0000477679Y0001835630D01*
X0000475804Y0001830006D01*
X0000453307Y0001807509D01*
X0000477679Y0001807509D01*
X0000373942Y0001527509D02*
X0000355195Y0001527509D01*
X0000355195Y0001566879D01*
X0000387066Y0001548131D02*
X0000400189Y0001548131D01*
X0000405813Y0001527509D02*
X0000387066Y0001527509D01*
X0000387066Y0001566879D01*
X0000405813Y0001566879D01*
X0000422686Y0001527509D02*
X0000422686Y0001566879D01*
X0000432060Y0001566879D01*
X0000437684Y0001565004D01*
X0000441434Y0001561254D01*
X0000443309Y0001557505D01*
X0000445184Y0001550006D01*
X0000445184Y0001544382D01*
X0000443309Y0001536882D01*
X0000441434Y0001533133D01*
X0000437684Y0001529383D01*
X0000432060Y0001527509D01*
X0000422686Y0001527509D01*
X0000458307Y0001566879D02*
X0000482679Y0001566879D01*
X0000469555Y0001551881D01*
X0000475180Y0001551881D01*
X0000478929Y0001550006D01*
X0000480804Y0001548131D01*
X0000482679Y0001544382D01*
X0000482679Y0001535008D01*
X0000480804Y0001531258D01*
X0000478929Y0001529383D01*
X0000475180Y0001527509D01*
X0000463931Y0001527509D01*
X0000460182Y0001529383D01*
X0000458307Y0001531258D01*
X0002174668Y0001802911D02*
X0002155920Y0001789787D01*
X0002174668Y0001780414D02*
X0002135298Y0001780414D01*
X0002135298Y0001795412D01*
X0002137173Y0001799161D01*
X0002139047Y0001801036D01*
X0002142797Y0001802911D01*
X0002148421Y0001802911D01*
X0002152171Y0001801036D01*
X0002154046Y0001799161D01*
X0002155920Y0001795412D01*
X0002155920Y0001780414D01*
X0002174668Y0001840406D02*
X0002174668Y0001817909D01*
X0002174668Y0001829157D02*
X0002135298Y0001829157D01*
X0002140922Y0001825408D01*
X0002144672Y0001821658D01*
X0002146546Y0001817909D01*
X0002184668Y0000782930D02*
X0002165920Y0000769807D01*
X0002184668Y0000760433D02*
X0002145298Y0000760433D01*
X0002145298Y0000775431D01*
X0002147173Y0000779181D01*
X0002149047Y0000781056D01*
X0002152797Y0000782930D01*
X0002158421Y0000782930D01*
X0002162171Y0000781056D01*
X0002164046Y0000779181D01*
X0002165920Y0000775431D01*
X0002165920Y0000760433D01*
X0002149047Y0000797929D02*
X0002147173Y0000799803D01*
X0002145298Y0000803553D01*
X0002145298Y0000812927D01*
X0002147173Y0000816676D01*
X0002149047Y0000818551D01*
X0002152797Y0000820426D01*
X0002156546Y0000820426D01*
X0002162171Y0000818551D01*
X0002184668Y0000796054D01*
X0002184668Y0000820426D01*
X0001843810Y0000395384D02*
X0001825062Y0000382261D01*
X0001843810Y0000372887D02*
X0001804440Y0000372887D01*
X0001804440Y0000387885D01*
X0001806314Y0000391635D01*
X0001808189Y0000393510D01*
X0001811939Y0000395384D01*
X0001817563Y0000395384D01*
X0001821312Y0000393510D01*
X0001823187Y0000391635D01*
X0001825062Y0000387885D01*
X0001825062Y0000372887D01*
X0001804440Y0000406633D02*
X0001843810Y0000419756D01*
X0001804440Y0000432880D01*
X0001843810Y0000466625D02*
X0001843810Y0000444128D01*
X0001843810Y0000455377D02*
X0001804440Y0000455377D01*
X0001810064Y0000451627D01*
X0001813813Y0000447878D01*
X0001815688Y0000444128D01*
X0001840810Y0001131884D02*
X0001822062Y0001118761D01*
X0001840810Y0001109387D02*
X0001801440Y0001109387D01*
X0001801440Y0001124385D01*
X0001803314Y0001128135D01*
X0001805189Y0001130010D01*
X0001808939Y0001131884D01*
X0001814563Y0001131884D01*
X0001818312Y0001130010D01*
X0001820187Y0001128135D01*
X0001822062Y0001124385D01*
X0001822062Y0001109387D01*
X0001801440Y0001143133D02*
X0001840810Y0001156256D01*
X0001801440Y0001169380D01*
X0001805189Y0001180628D02*
X0001803314Y0001182503D01*
X0001801440Y0001186253D01*
X0001801440Y0001195626D01*
X0001803314Y0001199376D01*
X0001805189Y0001201251D01*
X0001808939Y0001203125D01*
X0001812688Y0001203125D01*
X0001818312Y0001201251D01*
X0001840810Y0001178753D01*
X0001840810Y0001203125D01*
X0000753935Y0000652825D02*
X0000755810Y0000658450D01*
X0000755810Y0000667824D01*
X0000753935Y0000671573D01*
X0000752060Y0000673448D01*
X0000748311Y0000675323D01*
X0000744561Y0000675323D01*
X0000740812Y0000673448D01*
X0000738937Y0000671573D01*
X0000737062Y0000667824D01*
X0000735187Y0000660325D01*
X0000733312Y0000656575D01*
X0000731438Y0000654700D01*
X0000727688Y0000652825D01*
X0000723939Y0000652825D01*
X0000720189Y0000654700D01*
X0000718314Y0000656575D01*
X0000716440Y0000660325D01*
X0000716440Y0000669698D01*
X0000718314Y0000675323D01*
X0000716440Y0000688446D02*
X0000755810Y0000697820D01*
X0000727688Y0000705319D01*
X0000755810Y0000712818D01*
X0000716440Y0000722192D01*
X0000755810Y0000757812D02*
X0000755810Y0000735315D01*
X0000755810Y0000746564D02*
X0000716440Y0000746564D01*
X0000722064Y0000742814D01*
X0000725813Y0000739065D01*
X0000727688Y0000735315D01*
X0000753935Y0001002825D02*
X0000755810Y0001008450D01*
X0000755810Y0001017824D01*
X0000753935Y0001021573D01*
X0000752060Y0001023448D01*
X0000748311Y0001025323D01*
X0000744561Y0001025323D01*
X0000740812Y0001023448D01*
X0000738937Y0001021573D01*
X0000737062Y0001017824D01*
X0000735187Y0001010324D01*
X0000733312Y0001006575D01*
X0000731438Y0001004700D01*
X0000727688Y0001002825D01*
X0000723939Y0001002825D01*
X0000720189Y0001004700D01*
X0000718314Y0001006575D01*
X0000716440Y0001010324D01*
X0000716440Y0001019698D01*
X0000718314Y0001025323D01*
X0000716440Y0001038446D02*
X0000755810Y0001047820D01*
X0000727688Y0001055319D01*
X0000755810Y0001062818D01*
X0000716440Y0001072192D01*
X0000720189Y0001085315D02*
X0000718314Y0001087190D01*
X0000716440Y0001090939D01*
X0000716440Y0001100313D01*
X0000718314Y0001104063D01*
X0000720189Y0001105938D01*
X0000723939Y0001107812D01*
X0000727688Y0001107812D01*
X0000733312Y0001105938D01*
X0000755810Y0001083440D01*
X0000755810Y0001107812D01*
X0000754935Y0001362825D02*
X0000756810Y0001368450D01*
X0000756810Y0001377824D01*
X0000754935Y0001381573D01*
X0000753060Y0001383448D01*
X0000749311Y0001385323D01*
X0000745561Y0001385323D01*
X0000741812Y0001383448D01*
X0000739937Y0001381573D01*
X0000738062Y0001377824D01*
X0000736187Y0001370325D01*
X0000734312Y0001366575D01*
X0000732438Y0001364700D01*
X0000728688Y0001362825D01*
X0000724939Y0001362825D01*
X0000721189Y0001364700D01*
X0000719314Y0001366575D01*
X0000717440Y0001370325D01*
X0000717440Y0001379698D01*
X0000719314Y0001385323D01*
X0000717440Y0001398446D02*
X0000756810Y0001407820D01*
X0000728688Y0001415319D01*
X0000756810Y0001422818D01*
X0000717440Y0001432192D01*
X0000717440Y0001443440D02*
X0000717440Y0001467812D01*
X0000732438Y0001454689D01*
X0000732438Y0001460313D01*
X0000734312Y0001464063D01*
X0000736187Y0001465938D01*
X0000739937Y0001467812D01*
X0000749311Y0001467812D01*
X0000753060Y0001465938D01*
X0000754935Y0001464063D01*
X0000756810Y0001460313D01*
X0000756810Y0001449065D01*
X0000754935Y0001445315D01*
X0000753060Y0001443440D01*
X0000274274Y0000585323D02*
X0000306145Y0000585323D01*
X0000309895Y0000587197D01*
X0000311770Y0000589072D01*
X0000313644Y0000592822D01*
X0000313644Y0000600321D01*
X0000311770Y0000604070D01*
X0000309895Y0000605945D01*
X0000306145Y0000607820D01*
X0000274274Y0000607820D01*
X0000313644Y0000647190D02*
X0000313644Y0000624693D01*
X0000313644Y0000635941D02*
X0000274274Y0000635941D01*
X0000279899Y0000632192D01*
X0000283648Y0000628442D01*
X0000285523Y0000624693D01*
X0000773202Y0000401592D02*
X0000775077Y0000399717D01*
X0000776951Y0000394093D01*
X0000776951Y0000390343D01*
X0000775077Y0000384719D01*
X0000771327Y0000380969D01*
X0000767578Y0000379095D01*
X0000760079Y0000377220D01*
X0000754454Y0000377220D01*
X0000746955Y0000379095D01*
X0000743206Y0000380969D01*
X0000739456Y0000384719D01*
X0000737581Y0000390343D01*
X0000737581Y0000394093D01*
X0000739456Y0000399717D01*
X0000741331Y0000401592D01*
X0000737581Y0000437212D02*
X0000737581Y0000418465D01*
X0000756329Y0000416590D01*
X0000754454Y0000418465D01*
X0000752579Y0000422214D01*
X0000752579Y0000431588D01*
X0000754454Y0000435338D01*
X0000756329Y0000437212D01*
X0000760079Y0000439087D01*
X0000769452Y0000439087D01*
X0000773202Y0000437212D01*
X0000775077Y0000435338D01*
X0000776951Y0000431588D01*
X0000776951Y0000422214D01*
X0000775077Y0000418465D01*
X0000773202Y0000416590D01*
X0001243941Y0000457509D02*
X0001243941Y0000496879D01*
X0001253314Y0000496879D01*
X0001258939Y0000495004D01*
X0001262688Y0000491254D01*
X0001264563Y0000487505D01*
X0001266438Y0000480006D01*
X0001266438Y0000474382D01*
X0001264563Y0000466882D01*
X0001262688Y0000463133D01*
X0001258939Y0000459383D01*
X0001253314Y0000457509D01*
X0001243941Y0000457509D01*
X0001303933Y0000457509D02*
X0001281436Y0000457509D01*
X0001292684Y0000457509D02*
X0001292684Y0000496879D01*
X0001288935Y0000491254D01*
X0001285185Y0000487505D01*
X0001281436Y0000485630D01*
G04 next file*
G04 #@! TF.GenerationSoftware,KiCad,Pcbnew,5.1.9-73d0e3b20d~88~ubuntu18.04.1*
G04 #@! TF.CreationDate,2021-02-13T22:07:47-05:00*
G04 #@! TF.ProjectId,connector,636f6e6e-6563-4746-9f72-2e6b69636164,v1.0.0*
G04 #@! TF.SameCoordinates,Original*
G04 #@! TF.FileFunction,Legend,Top*
G04 #@! TF.FilePolarity,Positive*
G04 Gerber Fmt 4.6, Leading zero omitted, Abs format (unit mm)*
G04 Created by KiCad (PCBNEW 5.1.9-73d0e3b20d~88~ubuntu18.04.1) date 2021-02-13 22:07:47*
G01*
G04 APERTURE LIST*
G04 APERTURE END LIST*
D25*
X0003913015Y0001733188D02*
X0003913015Y0001683976D01*
X0003962228Y0001733188D02*
X0003913015Y0001733188D01*
X0004391362Y0001516653D02*
X0004172858Y0001516653D01*
X0004391362Y0001632795D02*
X0004391362Y0001516653D01*
X0004420889Y0001632795D02*
X0004391362Y0001632795D01*
X0003954354Y0001516653D02*
X0004172858Y0001516653D01*
X0003954354Y0001632795D02*
X0003954354Y0001516653D01*
X0003924826Y0001632795D02*
X0003954354Y0001632795D01*
X0004420889Y0001721377D02*
X0004350023Y0001721377D01*
X0004420889Y0001691850D02*
X0004420889Y0001721377D01*
X0004350023Y0001691850D02*
X0004420889Y0001691850D01*
X0004350023Y0001721377D02*
X0004350023Y0001691850D01*
X0003995692Y0001721377D02*
X0003924826Y0001721377D01*
X0003995692Y0001691850D02*
X0003995692Y0001721377D01*
X0003924826Y0001691850D02*
X0003995692Y0001691850D01*
X0003924826Y0001721377D02*
X0003924826Y0001691850D01*
X0004290968Y0001721377D02*
X0004054748Y0001721377D01*
X0004290968Y0001691850D02*
X0004290968Y0001721377D01*
X0004054748Y0001691850D02*
X0004290968Y0001691850D01*
X0004054748Y0001721377D02*
X0004054748Y0001691850D01*
X0004421283Y0001721771D02*
X0003924433Y0001721771D01*
X0004421283Y0001486732D02*
X0004421283Y0001721771D01*
X0003924433Y0001486732D02*
X0004421283Y0001486732D01*
X0003924433Y0001721771D02*
X0003924433Y0001486732D01*
D26*
X0004159734Y0001786244D02*
X0004159734Y0001758123D01*
X0004157860Y0001752499D01*
X0004154110Y0001748749D01*
X0004148486Y0001746874D01*
X0004144736Y0001746874D01*
X0004176607Y0001782495D02*
X0004178482Y0001784370D01*
X0004182232Y0001786244D01*
X0004191605Y0001786244D01*
X0004195355Y0001784370D01*
X0004197230Y0001782495D01*
X0004199104Y0001778745D01*
X0004199104Y0001774996D01*
X0004197230Y0001769371D01*
X0004174733Y0001746874D01*
X0004199104Y0001746874D01*
M02*