%
M48
METRIC,000.000
T10C0.40
T11C0.95
T12C1.00
T13C2.20
T14C2.00
T15C3.20
T16C0.50
T17C0.75
T18C1.02
T19C1.30
T20C1.60
T21C1.85
%
T10
X098349Y018749
X098349Y006750
X098834Y019917
X098834Y017583
X098834Y007916
X098834Y005584
X100000Y020400
X100000Y017100
X100000Y008398
X100000Y005099
X101166Y019917
X101166Y017583
X101166Y007916
X101166Y005584
X101648Y018749
X101648Y006750
X110350Y018749
X110350Y006750
X110833Y019917
X110833Y017583
X110833Y007916
X110833Y005584
X111999Y020400
X111999Y017100
X111999Y008398
X111999Y005099
X113167Y019917
X113167Y017583
X113167Y007916
X113167Y005584
X113650Y018749
X113650Y006750
X003251Y025001
X003479Y029726
X007823Y002776
X010264Y045283
X014602Y049832
X014602Y041024
X014808Y048293
X016636Y016238
X020675Y053703
X026212Y022283
X032537Y008796
X040208Y041867
X053847Y015756
X058648Y034272
X071932Y023960
X074091Y052128
X075793Y005443
X083819Y028557
X087248Y002776
X088010Y054084
X098349Y046749
X098349Y034750
X098834Y047917
X098834Y045583
X098834Y035916
X098834Y033584
X100000Y048400
X100000Y045100
X100000Y036398
X100000Y033099
X101166Y047917
X101166Y045583
X101166Y035916
X101166Y033584
X101648Y046749
X101648Y034750
X110350Y046749
X110350Y034750
X110833Y047917
X110833Y045583
X110833Y035916
X110833Y033584
X111999Y048400
X111999Y045100
X111999Y036398
X111999Y033099
X113167Y047917
X113167Y045583
X113167Y035916
X113167Y033584
X113650Y046749
X113650Y034750
T11
X102240Y013273
X104739Y013273
X107241Y013273
X109741Y013273
X102240Y041273
X104739Y041273
X107241Y041273
X109741Y041273
T12
X102189Y024753
X104729Y024753
X107269Y024753
X109809Y024753
X038000Y027059
X038000Y008517
X040502Y027059
X040502Y008517
X043002Y027059
X043002Y008517
X102189Y052753
X104729Y052753
X107269Y052753
X109809Y052753
T13
X100000Y018749
X100000Y006750
X111999Y018749
X111999Y006750
X100000Y046749
X100000Y034750
X111999Y046749
X111999Y034750
T14
X036101Y034059
X036101Y015517
X044902Y034059
X044902Y015517
T15
X020218Y004249
X020218Y004249
X072288Y037269
X072288Y037269
X072288Y009329
X072288Y009329
X020218Y004249
X072288Y037269
X072288Y009329
T16
X017818Y004249
X018519Y005949
X018519Y002553
X020218Y006650
X020218Y001852
X021915Y005949
X021915Y002553
X022616Y004249
X069888Y037269
X069888Y009329
X070589Y038969
X070589Y035573
X070589Y011029
X070589Y007633
X072288Y039670
X072288Y034872
X072288Y011730
X072288Y006932
X073985Y038969
X073985Y035573
X073985Y011029
X073985Y007633
X074686Y037269
X074686Y009329
T17
X020650Y047912
X020650Y045913
X020650Y043912
X028524Y047912
X028524Y045913
X028524Y043912
T18
X025044Y052509
X025044Y052509
X027584Y052509
X027584Y052509
X030124Y052509
X030124Y052509
X032664Y052509
X032664Y052509
X034188Y004249
X034188Y004249
X035204Y052509
X035204Y052509
X036728Y004249
X036728Y004249
X037744Y052509
X037744Y052509
X039268Y004249
X039268Y004249
X040284Y052509
X040284Y052509
X041808Y004249
X041808Y004249
X042824Y052509
X042824Y052509
X044348Y004249
X044348Y004249
X045364Y052509
X045364Y052509
X046888Y004249
X046888Y004249
X047904Y052509
X047904Y052509
X048844Y049157
X048844Y036457
X049098Y023249
X049098Y010549
X049428Y004249
X049428Y004249
X051384Y049157
X051384Y036457
X051638Y023249
X051638Y010549
X051968Y052509
X051968Y052509
X051968Y004249
X051968Y004249
X053924Y049157
X053924Y036457
X054178Y023249
X054178Y010549
X054508Y052509
X054508Y052509
X056464Y049157
X056464Y036457
X056718Y023249
X056718Y010549
X057048Y052509
X057048Y052509
X057048Y004249
X057048Y004249
X059004Y049157
X059004Y036457
X059258Y023249
X059258Y010549
X059588Y052509
X059588Y052509
X059588Y004249
X059588Y004249
X061544Y049157
X061544Y036457
X061798Y023249
X061798Y010549
X062128Y052509
X062128Y052509
X062128Y004249
X062128Y004249
X064084Y049157
X064084Y036457
X064337Y023249
X064337Y010549
X064668Y052509
X064668Y052509
X064668Y004249
X064668Y004249
X066624Y049157
X066624Y036457
X066878Y023249
X066878Y010549
X067208Y052509
X067208Y052509
X067208Y004249
X067208Y004249
X069748Y052509
X069748Y052509
X069748Y004249
X069748Y004249
T19
X082880Y050173
X082880Y045093
X082880Y040013
X082880Y034933
X082880Y022106
X082880Y017026
X082880Y011946
X082880Y006866
T20
X008204Y027313
X011203Y022614
X014203Y027313
T21
X021539Y035949
X021539Y026805
X021539Y017915
X026238Y035949
X026238Y026805
X026238Y017915
X030937Y035949
X030937Y026805
X030937Y017915
M30