%MOIN*%
%OFA0B0*%
%FSLAX46Y46*%
%IPPOS*%
%LPD*%
%ADD10C,0.0078740157480314977*%
%ADD11C,0.0047244094488188976*%
%ADD12C,0.005905511811023622*%
%ADD23C,0.005905511811023622*%
%ADD24C,0.005*%
%ADD25C,0.0078740157480314977*%
%ADD26C,0.00039370078740157485*%
%ADD27C,0.0005905511811023622*%
%ADD28C,0.0078740157480314977*%
%ADD29C,0.0047244094488188976*%
%ADD30C,0.005905511811023622*%
G01*
D10*
X0004461572Y0000593810D02*
X0004457072Y0000592310D01*
X0004449573Y0000592310D01*
X0004446574Y0000593810D01*
X0004445074Y0000595310D01*
X0004443574Y0000598310D01*
X0004443574Y0000601309D01*
X0004445074Y0000604309D01*
X0004446574Y0000605809D01*
X0004449573Y0000607308D01*
X0004455572Y0000608808D01*
X0004458572Y0000610308D01*
X0004460072Y0000611808D01*
X0004461572Y0000614808D01*
X0004461572Y0000617807D01*
X0004460072Y0000620807D01*
X0004458572Y0000622307D01*
X0004455572Y0000623806D01*
X0004448073Y0000623806D01*
X0004443574Y0000622307D01*
X0004430076Y0000592310D02*
X0004430076Y0000613308D01*
X0004430076Y0000623806D02*
X0004431575Y0000622307D01*
X0004430076Y0000620807D01*
X0004428576Y0000622307D01*
X0004430076Y0000623806D01*
X0004430076Y0000620807D01*
X0004410578Y0000592310D02*
X0004413578Y0000593810D01*
X0004415077Y0000596810D01*
X0004415077Y0000623806D01*
X0004386581Y0000593810D02*
X0004389581Y0000592310D01*
X0004395580Y0000592310D01*
X0004398580Y0000593810D01*
X0004400079Y0000596810D01*
X0004400079Y0000608808D01*
X0004398580Y0000611808D01*
X0004395580Y0000613308D01*
X0004389581Y0000613308D01*
X0004386581Y0000611808D01*
X0004385081Y0000608808D01*
X0004385081Y0000605809D01*
X0004400079Y0000602809D01*
X0004371583Y0000613308D02*
X0004371583Y0000592310D01*
X0004371583Y0000610308D02*
X0004370083Y0000611808D01*
X0004367083Y0000613308D01*
X0004362584Y0000613308D01*
X0004359584Y0000611808D01*
X0004358085Y0000608808D01*
X0004358085Y0000592310D01*
X0004347586Y0000613308D02*
X0004335587Y0000613308D01*
X0004343086Y0000623806D02*
X0004343086Y0000596810D01*
X0004341587Y0000593810D01*
X0004338587Y0000592310D01*
X0004335587Y0000592310D01*
X0004301092Y0000592310D02*
X0004301092Y0000623806D01*
X0004293593Y0000623806D01*
X0004289093Y0000622307D01*
X0004286094Y0000619307D01*
X0004284594Y0000616307D01*
X0004283094Y0000610308D01*
X0004283094Y0000605809D01*
X0004284594Y0000599809D01*
X0004286094Y0000596810D01*
X0004289093Y0000593810D01*
X0004293593Y0000592310D01*
X0004301092Y0000592310D01*
X0004269596Y0000592310D02*
X0004269596Y0000613308D01*
X0004269596Y0000607308D02*
X0004268096Y0000610308D01*
X0004266596Y0000611808D01*
X0004263596Y0000613308D01*
X0004260597Y0000613308D01*
X0004250098Y0000592310D02*
X0004250098Y0000613308D01*
X0004250098Y0000623806D02*
X0004251598Y0000622307D01*
X0004250098Y0000620807D01*
X0004248598Y0000622307D01*
X0004250098Y0000623806D01*
X0004250098Y0000620807D01*
X0004235100Y0000613308D02*
X0004235100Y0000581812D01*
X0004235100Y0000611808D02*
X0004232100Y0000613308D01*
X0004226101Y0000613308D01*
X0004223101Y0000611808D01*
X0004221602Y0000610308D01*
X0004220102Y0000607308D01*
X0004220102Y0000598310D01*
X0004221602Y0000595310D01*
X0004223101Y0000593810D01*
X0004226101Y0000592310D01*
X0004232100Y0000592310D01*
X0004235100Y0000593810D01*
X0004206604Y0000613308D02*
X0004206604Y0000581812D01*
X0004206604Y0000611808D02*
X0004203604Y0000613308D01*
X0004197605Y0000613308D01*
X0004194605Y0000611808D01*
X0004193105Y0000610308D01*
X0004191605Y0000607308D01*
X0004191605Y0000598310D01*
X0004193105Y0000595310D01*
X0004194605Y0000593810D01*
X0004197605Y0000592310D01*
X0004203604Y0000592310D01*
X0004206604Y0000593810D01*
X0004166109Y0000593810D02*
X0004169108Y0000592310D01*
X0004175107Y0000592310D01*
X0004178107Y0000593810D01*
X0004179607Y0000596810D01*
X0004179607Y0000608808D01*
X0004178107Y0000611808D01*
X0004175107Y0000613308D01*
X0004169108Y0000613308D01*
X0004166109Y0000611808D01*
X0004164609Y0000608808D01*
X0004164609Y0000605809D01*
X0004179607Y0000602809D01*
X0004151110Y0000592310D02*
X0004151110Y0000613308D01*
X0004151110Y0000607308D02*
X0004149611Y0000610308D01*
X0004148111Y0000611808D01*
X0004145111Y0000613308D01*
X0004142112Y0000613308D01*
X0004089618Y0000595310D02*
X0004091118Y0000593810D01*
X0004095617Y0000592310D01*
X0004098617Y0000592310D01*
X0004103116Y0000593810D01*
X0004106116Y0000596810D01*
X0004107616Y0000599809D01*
X0004109116Y0000605809D01*
X0004109116Y0000610308D01*
X0004107616Y0000616307D01*
X0004106116Y0000619307D01*
X0004103116Y0000622307D01*
X0004098617Y0000623806D01*
X0004095617Y0000623806D01*
X0004091118Y0000622307D01*
X0004089618Y0000620807D01*
X0004071620Y0000592310D02*
X0004074620Y0000593810D01*
X0004076120Y0000595310D01*
X0004077620Y0000598310D01*
X0004077620Y0000607308D01*
X0004076120Y0000610308D01*
X0004074620Y0000611808D01*
X0004071620Y0000613308D01*
X0004067121Y0000613308D01*
X0004064121Y0000611808D01*
X0004062622Y0000610308D01*
X0004061122Y0000607308D01*
X0004061122Y0000598310D01*
X0004062622Y0000595310D01*
X0004064121Y0000593810D01*
X0004067121Y0000592310D01*
X0004071620Y0000592310D01*
X0004047623Y0000613308D02*
X0004047623Y0000592310D01*
X0004047623Y0000610308D02*
X0004046124Y0000611808D01*
X0004043124Y0000613308D01*
X0004038625Y0000613308D01*
X0004035625Y0000611808D01*
X0004034125Y0000608808D01*
X0004034125Y0000592310D01*
X0004019127Y0000613308D02*
X0004019127Y0000592310D01*
X0004019127Y0000610308D02*
X0004017627Y0000611808D01*
X0004014628Y0000613308D01*
X0004010128Y0000613308D01*
X0004007128Y0000611808D01*
X0004005629Y0000608808D01*
X0004005629Y0000592310D01*
X0003978632Y0000593810D02*
X0003981632Y0000592310D01*
X0003987631Y0000592310D01*
X0003990631Y0000593810D01*
X0003992130Y0000596810D01*
X0003992130Y0000608808D01*
X0003990631Y0000611808D01*
X0003987631Y0000613308D01*
X0003981632Y0000613308D01*
X0003978632Y0000611808D01*
X0003977132Y0000608808D01*
X0003977132Y0000605809D01*
X0003992130Y0000602809D01*
X0003950136Y0000593810D02*
X0003953135Y0000592310D01*
X0003959134Y0000592310D01*
X0003962134Y0000593810D01*
X0003963634Y0000595310D01*
X0003965134Y0000598310D01*
X0003965134Y0000607308D01*
X0003963634Y0000610308D01*
X0003962134Y0000611808D01*
X0003959134Y0000613308D01*
X0003953135Y0000613308D01*
X0003950136Y0000611808D01*
X0003941137Y0000613308D02*
X0003929138Y0000613308D01*
X0003936637Y0000623806D02*
X0003936637Y0000596810D01*
X0003935137Y0000593810D01*
X0003932138Y0000592310D01*
X0003929138Y0000592310D01*
X0003914140Y0000592310D02*
X0003917140Y0000593810D01*
X0003918640Y0000595310D01*
X0003920139Y0000598310D01*
X0003920139Y0000607308D01*
X0003918640Y0000610308D01*
X0003917140Y0000611808D01*
X0003914140Y0000613308D01*
X0003909641Y0000613308D01*
X0003906641Y0000611808D01*
X0003905141Y0000610308D01*
X0003903641Y0000607308D01*
X0003903641Y0000598310D01*
X0003905141Y0000595310D01*
X0003906641Y0000593810D01*
X0003909641Y0000592310D01*
X0003914140Y0000592310D01*
X0003890143Y0000592310D02*
X0003890143Y0000613308D01*
X0003890143Y0000607308D02*
X0003888643Y0000610308D01*
X0003887143Y0000611808D01*
X0003884144Y0000613308D01*
X0003881144Y0000613308D01*
X0004364084Y0000450867D02*
X0004356585Y0000429869D01*
X0004349086Y0000450867D01*
X0004320589Y0000429869D02*
X0004338587Y0000429869D01*
X0004329588Y0000429869D02*
X0004329588Y0000461365D01*
X0004332588Y0000456866D01*
X0004335587Y0000453866D01*
X0004338587Y0000452367D01*
X0004307091Y0000432869D02*
X0004305591Y0000431369D01*
X0004307091Y0000429869D01*
X0004308591Y0000431369D01*
X0004307091Y0000432869D01*
X0004307091Y0000429869D01*
X0004286094Y0000461365D02*
X0004283094Y0000461365D01*
X0004280094Y0000459866D01*
X0004278595Y0000458366D01*
X0004277095Y0000455366D01*
X0004275595Y0000449367D01*
X0004275595Y0000441868D01*
X0004277095Y0000435869D01*
X0004278595Y0000432869D01*
X0004280094Y0000431369D01*
X0004283094Y0000429869D01*
X0004286094Y0000429869D01*
X0004289093Y0000431369D01*
X0004290593Y0000432869D01*
X0004292093Y0000435869D01*
X0004293593Y0000441868D01*
X0004293593Y0000449367D01*
X0004292093Y0000455366D01*
X0004290593Y0000458366D01*
X0004289093Y0000459866D01*
X0004286094Y0000461365D01*
X0004262097Y0000432869D02*
X0004260597Y0000431369D01*
X0004262097Y0000429869D01*
X0004263596Y0000431369D01*
X0004262097Y0000432869D01*
X0004262097Y0000429869D01*
X0004241099Y0000461365D02*
X0004238100Y0000461365D01*
X0004235100Y0000459866D01*
X0004233600Y0000458366D01*
X0004232100Y0000455366D01*
X0004230601Y0000449367D01*
X0004230601Y0000441868D01*
X0004232100Y0000435869D01*
X0004233600Y0000432869D01*
X0004235100Y0000431369D01*
X0004238100Y0000429869D01*
X0004241099Y0000429869D01*
X0004244099Y0000431369D01*
X0004245599Y0000432869D01*
X0004247098Y0000435869D01*
X0004248598Y0000441868D01*
X0004248598Y0000449367D01*
X0004247098Y0000455366D01*
X0004245599Y0000458366D01*
X0004244099Y0000459866D01*
X0004241099Y0000461365D01*
X0004184106Y0000417871D02*
X0004185606Y0000419371D01*
X0004188606Y0000423870D01*
X0004190106Y0000426870D01*
X0004191605Y0000431369D01*
X0004193105Y0000438868D01*
X0004193105Y0000444868D01*
X0004191605Y0000452367D01*
X0004190106Y0000456866D01*
X0004188606Y0000459866D01*
X0004185606Y0000464365D01*
X0004184106Y0000465865D01*
X0004161609Y0000446367D02*
X0004172108Y0000446367D01*
X0004172108Y0000429869D02*
X0004172108Y0000461365D01*
X0004157110Y0000461365D01*
X0004133113Y0000431369D02*
X0004136112Y0000429869D01*
X0004142112Y0000429869D01*
X0004145111Y0000431369D01*
X0004146611Y0000434369D01*
X0004146611Y0000446367D01*
X0004145111Y0000449367D01*
X0004142112Y0000450867D01*
X0004136112Y0000450867D01*
X0004133113Y0000449367D01*
X0004131613Y0000446367D01*
X0004131613Y0000443368D01*
X0004146611Y0000440368D01*
X0004118115Y0000429869D02*
X0004118115Y0000461365D01*
X0004118115Y0000449367D02*
X0004115115Y0000450867D01*
X0004109116Y0000450867D01*
X0004106116Y0000449367D01*
X0004104616Y0000447867D01*
X0004103116Y0000444868D01*
X0004103116Y0000435869D01*
X0004104616Y0000432869D01*
X0004106116Y0000431369D01*
X0004109116Y0000429869D01*
X0004115115Y0000429869D01*
X0004118115Y0000431369D01*
X0004064121Y0000461365D02*
X0004067121Y0000455366D01*
X0004052123Y0000458366D02*
X0004050623Y0000459866D01*
X0004047623Y0000461365D01*
X0004040124Y0000461365D01*
X0004037125Y0000459866D01*
X0004035625Y0000458366D01*
X0004034125Y0000455366D01*
X0004034125Y0000452367D01*
X0004035625Y0000447867D01*
X0004053623Y0000429869D01*
X0004034125Y0000429869D01*
X0004004129Y0000429869D02*
X0004022127Y0000429869D01*
X0004013128Y0000429869D02*
X0004013128Y0000461365D01*
X0004016127Y0000456866D01*
X0004019127Y0000453866D01*
X0004022127Y0000452367D01*
X0003993630Y0000417871D02*
X0003992130Y0000419371D01*
X0003989131Y0000423870D01*
X0003987631Y0000426870D01*
X0003986131Y0000431369D01*
X0003984631Y0000438868D01*
X0003984631Y0000444868D01*
X0003986131Y0000452367D01*
X0003987631Y0000456866D01*
X0003989131Y0000459866D01*
X0003992130Y0000464365D01*
X0003993630Y0000465865D01*
X0004515565Y0000376251D02*
X0004511065Y0000374751D01*
X0004503566Y0000374751D01*
X0004500567Y0000376251D01*
X0004499067Y0000377751D01*
X0004497567Y0000380751D01*
X0004497567Y0000383750D01*
X0004499067Y0000386750D01*
X0004500567Y0000388250D01*
X0004503566Y0000389749D01*
X0004509566Y0000391249D01*
X0004512565Y0000392749D01*
X0004514065Y0000394249D01*
X0004515565Y0000397248D01*
X0004515565Y0000400248D01*
X0004514065Y0000403248D01*
X0004512565Y0000404748D01*
X0004509566Y0000406247D01*
X0004502067Y0000406247D01*
X0004497567Y0000404748D01*
X0004470571Y0000395749D02*
X0004470571Y0000374751D01*
X0004484069Y0000395749D02*
X0004484069Y0000379251D01*
X0004482569Y0000376251D01*
X0004479569Y0000374751D01*
X0004475070Y0000374751D01*
X0004472070Y0000376251D01*
X0004470571Y0000377751D01*
X0004455572Y0000395749D02*
X0004455572Y0000364253D01*
X0004455572Y0000394249D02*
X0004452573Y0000395749D01*
X0004446574Y0000395749D01*
X0004443574Y0000394249D01*
X0004442074Y0000392749D01*
X0004440574Y0000389749D01*
X0004440574Y0000380751D01*
X0004442074Y0000377751D01*
X0004443574Y0000376251D01*
X0004446574Y0000374751D01*
X0004452573Y0000374751D01*
X0004455572Y0000376251D01*
X0004427076Y0000395749D02*
X0004427076Y0000364253D01*
X0004427076Y0000394249D02*
X0004424076Y0000395749D01*
X0004418077Y0000395749D01*
X0004415077Y0000394249D01*
X0004413578Y0000392749D01*
X0004412078Y0000389749D01*
X0004412078Y0000380751D01*
X0004413578Y0000377751D01*
X0004415077Y0000376251D01*
X0004418077Y0000374751D01*
X0004424076Y0000374751D01*
X0004427076Y0000376251D01*
X0004394080Y0000374751D02*
X0004397080Y0000376251D01*
X0004398580Y0000377751D01*
X0004400079Y0000380751D01*
X0004400079Y0000389749D01*
X0004398580Y0000392749D01*
X0004397080Y0000394249D01*
X0004394080Y0000395749D01*
X0004389581Y0000395749D01*
X0004386581Y0000394249D01*
X0004385081Y0000392749D01*
X0004383581Y0000389749D01*
X0004383581Y0000380751D01*
X0004385081Y0000377751D01*
X0004386581Y0000376251D01*
X0004389581Y0000374751D01*
X0004394080Y0000374751D01*
X0004370083Y0000374751D02*
X0004370083Y0000395749D01*
X0004370083Y0000389749D02*
X0004368583Y0000392749D01*
X0004367083Y0000394249D01*
X0004364084Y0000395749D01*
X0004361084Y0000395749D01*
X0004355085Y0000395749D02*
X0004343086Y0000395749D01*
X0004350586Y0000406247D02*
X0004350586Y0000379251D01*
X0004349086Y0000376251D01*
X0004346086Y0000374751D01*
X0004343086Y0000374751D01*
X0004308591Y0000386750D02*
X0004284594Y0000386750D01*
X0004232100Y0000374751D02*
X0004232100Y0000406247D01*
X0004232100Y0000376251D02*
X0004235100Y0000374751D01*
X0004241099Y0000374751D01*
X0004244099Y0000376251D01*
X0004245599Y0000377751D01*
X0004247098Y0000380751D01*
X0004247098Y0000389749D01*
X0004245599Y0000392749D01*
X0004244099Y0000394249D01*
X0004241099Y0000395749D01*
X0004235100Y0000395749D01*
X0004232100Y0000394249D01*
X0004205104Y0000376251D02*
X0004208103Y0000374751D01*
X0004214103Y0000374751D01*
X0004217102Y0000376251D01*
X0004218602Y0000379251D01*
X0004218602Y0000391249D01*
X0004217102Y0000394249D01*
X0004214103Y0000395749D01*
X0004208103Y0000395749D01*
X0004205104Y0000394249D01*
X0004203604Y0000391249D01*
X0004203604Y0000388250D01*
X0004218602Y0000385250D01*
X0004193105Y0000395749D02*
X0004185606Y0000374751D01*
X0004178107Y0000395749D01*
X0004146611Y0000389749D02*
X0004148111Y0000391249D01*
X0004151110Y0000392749D01*
X0004154110Y0000392749D01*
X0004157110Y0000391249D01*
X0004158610Y0000389749D01*
X0004160109Y0000386750D01*
X0004160109Y0000383750D01*
X0004158610Y0000380751D01*
X0004157110Y0000379251D01*
X0004154110Y0000377751D01*
X0004151110Y0000377751D01*
X0004148111Y0000379251D01*
X0004146611Y0000380751D01*
X0004146611Y0000392749D02*
X0004146611Y0000380751D01*
X0004145111Y0000379251D01*
X0004143611Y0000379251D01*
X0004140612Y0000380751D01*
X0004139112Y0000383750D01*
X0004139112Y0000391249D01*
X0004142112Y0000395749D01*
X0004146611Y0000398748D01*
X0004152610Y0000400248D01*
X0004158610Y0000398748D01*
X0004163109Y0000395749D01*
X0004166109Y0000391249D01*
X0004167608Y0000385250D01*
X0004166109Y0000379251D01*
X0004163109Y0000374751D01*
X0004158610Y0000371752D01*
X0004152610Y0000370252D01*
X0004146611Y0000371752D01*
X0004142112Y0000374751D01*
X0004113615Y0000376251D02*
X0004116615Y0000374751D01*
X0004122614Y0000374751D01*
X0004125614Y0000376251D01*
X0004127113Y0000379251D01*
X0004127113Y0000391249D01*
X0004125614Y0000394249D01*
X0004122614Y0000395749D01*
X0004116615Y0000395749D01*
X0004113615Y0000394249D01*
X0004112115Y0000391249D01*
X0004112115Y0000388250D01*
X0004127113Y0000385250D01*
X0004100117Y0000376251D02*
X0004097117Y0000374751D01*
X0004091118Y0000374751D01*
X0004088118Y0000376251D01*
X0004086619Y0000379251D01*
X0004086619Y0000380751D01*
X0004088118Y0000383750D01*
X0004091118Y0000385250D01*
X0004095617Y0000385250D01*
X0004098617Y0000386750D01*
X0004100117Y0000389749D01*
X0004100117Y0000391249D01*
X0004098617Y0000394249D01*
X0004095617Y0000395749D01*
X0004091118Y0000395749D01*
X0004088118Y0000394249D01*
X0004068621Y0000374751D02*
X0004071620Y0000376251D01*
X0004073120Y0000377751D01*
X0004074620Y0000380751D01*
X0004074620Y0000389749D01*
X0004073120Y0000392749D01*
X0004071620Y0000394249D01*
X0004068621Y0000395749D01*
X0004064121Y0000395749D01*
X0004061122Y0000394249D01*
X0004059622Y0000392749D01*
X0004058122Y0000389749D01*
X0004058122Y0000380751D01*
X0004059622Y0000377751D01*
X0004061122Y0000376251D01*
X0004064121Y0000374751D01*
X0004068621Y0000374751D01*
X0004040124Y0000374751D02*
X0004043124Y0000376251D01*
X0004044624Y0000379251D01*
X0004044624Y0000406247D01*
X0004023626Y0000374751D02*
X0004026626Y0000376251D01*
X0004028126Y0000377751D01*
X0004029626Y0000380751D01*
X0004029626Y0000389749D01*
X0004028126Y0000392749D01*
X0004026626Y0000394249D01*
X0004023626Y0000395749D01*
X0004019127Y0000395749D01*
X0004016127Y0000394249D01*
X0004014628Y0000392749D01*
X0004013128Y0000389749D01*
X0004013128Y0000380751D01*
X0004014628Y0000377751D01*
X0004016127Y0000376251D01*
X0004019127Y0000374751D01*
X0004023626Y0000374751D01*
X0003986131Y0000395749D02*
X0003986131Y0000370252D01*
X0003987631Y0000367252D01*
X0003989131Y0000365752D01*
X0003992130Y0000364253D01*
X0003996630Y0000364253D01*
X0003999629Y0000365752D01*
X0003986131Y0000376251D02*
X0003989131Y0000374751D01*
X0003995130Y0000374751D01*
X0003998130Y0000376251D01*
X0003999629Y0000377751D01*
X0004001129Y0000380751D01*
X0004001129Y0000389749D01*
X0003999629Y0000392749D01*
X0003998130Y0000394249D01*
X0003995130Y0000395749D01*
X0003989131Y0000395749D01*
X0003986131Y0000394249D01*
X0003971133Y0000374751D02*
X0003971133Y0000395749D01*
X0003971133Y0000406247D02*
X0003972633Y0000404748D01*
X0003971133Y0000403248D01*
X0003969633Y0000404748D01*
X0003971133Y0000406247D01*
X0003971133Y0000403248D01*
X0003942637Y0000376251D02*
X0003945636Y0000374751D01*
X0003951635Y0000374751D01*
X0003954635Y0000376251D01*
X0003956135Y0000377751D01*
X0003957635Y0000380751D01*
X0003957635Y0000389749D01*
X0003956135Y0000392749D01*
X0003954635Y0000394249D01*
X0003951635Y0000395749D01*
X0003945636Y0000395749D01*
X0003942637Y0000394249D01*
X0003929138Y0000377751D02*
X0003927638Y0000376251D01*
X0003929138Y0000374751D01*
X0003930638Y0000376251D01*
X0003929138Y0000377751D01*
X0003929138Y0000374751D01*
X0003900642Y0000376251D02*
X0003903641Y0000374751D01*
X0003909641Y0000374751D01*
X0003912640Y0000376251D01*
X0003914140Y0000377751D01*
X0003915640Y0000380751D01*
X0003915640Y0000389749D01*
X0003914140Y0000392749D01*
X0003912640Y0000394249D01*
X0003909641Y0000395749D01*
X0003903641Y0000395749D01*
X0003900642Y0000394249D01*
X0003882644Y0000374751D02*
X0003885644Y0000376251D01*
X0003887143Y0000377751D01*
X0003888643Y0000380751D01*
X0003888643Y0000389749D01*
X0003887143Y0000392749D01*
X0003885644Y0000394249D01*
X0003882644Y0000395749D01*
X0003878145Y0000395749D01*
X0003875145Y0000394249D01*
X0003873645Y0000392749D01*
X0003872145Y0000389749D01*
X0003872145Y0000380751D01*
X0003873645Y0000377751D01*
X0003875145Y0000376251D01*
X0003878145Y0000374751D01*
X0003882644Y0000374751D01*
X0003858647Y0000374751D02*
X0003858647Y0000395749D01*
X0003858647Y0000392749D02*
X0003857147Y0000394249D01*
X0003854148Y0000395749D01*
X0003849648Y0000395749D01*
X0003846649Y0000394249D01*
X0003845149Y0000391249D01*
X0003845149Y0000374751D01*
X0003845149Y0000391249D02*
X0003843649Y0000394249D01*
X0003840649Y0000395749D01*
X0003836150Y0000395749D01*
X0003833150Y0000394249D01*
X0003831650Y0000391249D01*
X0003831650Y0000374751D01*
D11*
X0003970889Y0001026921D02*
X0003970889Y0000974559D01*
X0004023251Y0001026921D02*
X0003970889Y0001026921D01*
X0004073251Y0001026921D02*
X0004073251Y0000922196D01*
X0004073251Y0000922196D02*
X0004375614Y0000922196D01*
X0004073251Y0001026921D02*
X0004375614Y0001026921D01*
X0004375614Y0001026921D02*
X0004375614Y0000922196D01*
D12*
X0003909959Y0000987682D02*
X0003938081Y0000987682D01*
X0003943705Y0000989557D01*
X0003947455Y0000993306D01*
X0003949329Y0000998931D01*
X0003949329Y0001002680D01*
X0003949329Y0000948312D02*
X0003949329Y0000970809D01*
X0003949329Y0000959560D02*
X0003909959Y0000959560D01*
X0003915584Y0000963310D01*
X0003919333Y0000967059D01*
X0003921208Y0000970809D01*
G04 next file*
G04 #@! TF.GenerationSoftware,KiCad,Pcbnew,5.1.9-73d0e3b20d~88~ubuntu18.04.1*
G04 #@! TF.CreationDate,2021-02-13T22:05:11-05:00*
G04 #@! TF.ProjectId,driver,64726976-6572-42e6-9b69-6361645f7063,v1.0.0*
G04 #@! TF.SameCoordinates,Original*
G04 #@! TF.FileFunction,Legend,Bot*
G04 #@! TF.FilePolarity,Positive*
G04 Gerber Fmt 4.6, Leading zero omitted, Abs format (unit mm)*
G04 Created by KiCad (PCBNEW 5.1.9-73d0e3b20d~88~ubuntu18.04.1) date 2021-02-13 22:05:11*
G01*
G04 APERTURE LIST*
G04 APERTURE END LIST*
D23*
X0002842974Y0001267211D02*
X0002844849Y0001261587D01*
X0002844849Y0001252213D01*
X0002842974Y0001248464D01*
X0002841100Y0001246589D01*
X0002837350Y0001244714D01*
X0002833600Y0001244714D01*
X0002829851Y0001246589D01*
X0002827976Y0001248464D01*
X0002826101Y0001252213D01*
X0002824227Y0001259712D01*
X0002822352Y0001263462D01*
X0002820477Y0001265337D01*
X0002816728Y0001267211D01*
X0002812978Y0001267211D01*
X0002809229Y0001265337D01*
X0002807354Y0001263462D01*
X0002805479Y0001259712D01*
X0002805479Y0001250338D01*
X0002807354Y0001244714D01*
X0002844849Y0001227841D02*
X0002818602Y0001227841D01*
X0002805479Y0001227841D02*
X0002807354Y0001229716D01*
X0002809229Y0001227841D01*
X0002807354Y0001225966D01*
X0002805479Y0001227841D01*
X0002809229Y0001227841D01*
X0002844849Y0001203469D02*
X0002842974Y0001207219D01*
X0002839225Y0001209094D01*
X0002805479Y0001209094D01*
X0002842974Y0001173473D02*
X0002844849Y0001177223D01*
X0002844849Y0001184722D01*
X0002842974Y0001188471D01*
X0002839225Y0001190346D01*
X0002824227Y0001190346D01*
X0002820477Y0001188471D01*
X0002818602Y0001184722D01*
X0002818602Y0001177223D01*
X0002820477Y0001173473D01*
X0002824227Y0001171598D01*
X0002827976Y0001171598D01*
X0002831726Y0001190346D01*
X0002818602Y0001154725D02*
X0002844849Y0001154725D01*
X0002822352Y0001154725D02*
X0002820477Y0001152851D01*
X0002818602Y0001149101D01*
X0002818602Y0001143477D01*
X0002820477Y0001139727D01*
X0002824227Y0001137852D01*
X0002844849Y0001137852D01*
X0002818602Y0001124729D02*
X0002818602Y0001109731D01*
X0002805479Y0001119105D02*
X0002839225Y0001119105D01*
X0002842974Y0001117230D01*
X0002844849Y0001113480D01*
X0002844849Y0001109731D01*
X0002844849Y0001066611D02*
X0002805479Y0001066611D01*
X0002805479Y0001057238D01*
X0002807354Y0001051613D01*
X0002811103Y0001047864D01*
X0002814853Y0001045989D01*
X0002822352Y0001044114D01*
X0002827976Y0001044114D01*
X0002835475Y0001045989D01*
X0002839225Y0001047864D01*
X0002842974Y0001051613D01*
X0002844849Y0001057238D01*
X0002844849Y0001066611D01*
X0002844849Y0001027241D02*
X0002818602Y0001027241D01*
X0002826101Y0001027241D02*
X0002822352Y0001025367D01*
X0002820477Y0001023492D01*
X0002818602Y0001019742D01*
X0002818602Y0001015993D01*
X0002844849Y0001002869D02*
X0002818602Y0001002869D01*
X0002805479Y0001002869D02*
X0002807354Y0001004744D01*
X0002809229Y0001002869D01*
X0002807354Y0001000995D01*
X0002805479Y0001002869D01*
X0002809229Y0001002869D01*
X0002818602Y0000984122D02*
X0002857972Y0000984122D01*
X0002820477Y0000984122D02*
X0002818602Y0000980372D01*
X0002818602Y0000972873D01*
X0002820477Y0000969124D01*
X0002822352Y0000967249D01*
X0002826101Y0000965374D01*
X0002837350Y0000965374D01*
X0002841100Y0000967249D01*
X0002842974Y0000969124D01*
X0002844849Y0000972873D01*
X0002844849Y0000980372D01*
X0002842974Y0000984122D01*
X0002818602Y0000948501D02*
X0002857972Y0000948501D01*
X0002820477Y0000948501D02*
X0002818602Y0000944752D01*
X0002818602Y0000937253D01*
X0002820477Y0000933503D01*
X0002822352Y0000931628D01*
X0002826101Y0000929753D01*
X0002837350Y0000929753D01*
X0002841100Y0000931628D01*
X0002842974Y0000933503D01*
X0002844849Y0000937253D01*
X0002844849Y0000944752D01*
X0002842974Y0000948501D01*
X0002842974Y0000897882D02*
X0002844849Y0000901632D01*
X0002844849Y0000909131D01*
X0002842974Y0000912881D01*
X0002839225Y0000914755D01*
X0002824227Y0000914755D01*
X0002820477Y0000912881D01*
X0002818602Y0000909131D01*
X0002818602Y0000901632D01*
X0002820477Y0000897882D01*
X0002824227Y0000896008D01*
X0002827976Y0000896008D01*
X0002831726Y0000914755D01*
X0002844849Y0000879135D02*
X0002818602Y0000879135D01*
X0002826101Y0000879135D02*
X0002822352Y0000877260D01*
X0002820477Y0000875385D01*
X0002818602Y0000871636D01*
X0002818602Y0000867886D01*
X0002841100Y0000802269D02*
X0002842974Y0000804144D01*
X0002844849Y0000809768D01*
X0002844849Y0000813518D01*
X0002842974Y0000819142D01*
X0002839225Y0000822892D01*
X0002835475Y0000824767D01*
X0002827976Y0000826641D01*
X0002822352Y0000826641D01*
X0002814853Y0000824767D01*
X0002811103Y0000822892D01*
X0002807354Y0000819142D01*
X0002805479Y0000813518D01*
X0002805479Y0000809768D01*
X0002807354Y0000804144D01*
X0002809229Y0000802269D01*
X0002844849Y0000779772D02*
X0002842974Y0000783522D01*
X0002841100Y0000785397D01*
X0002837350Y0000787271D01*
X0002826101Y0000787271D01*
X0002822352Y0000785397D01*
X0002820477Y0000783522D01*
X0002818602Y0000779772D01*
X0002818602Y0000774148D01*
X0002820477Y0000770398D01*
X0002822352Y0000768524D01*
X0002826101Y0000766649D01*
X0002837350Y0000766649D01*
X0002841100Y0000768524D01*
X0002842974Y0000770398D01*
X0002844849Y0000774148D01*
X0002844849Y0000779772D01*
X0002818602Y0000749776D02*
X0002844849Y0000749776D01*
X0002822352Y0000749776D02*
X0002820477Y0000747901D01*
X0002818602Y0000744152D01*
X0002818602Y0000738527D01*
X0002820477Y0000734778D01*
X0002824227Y0000732903D01*
X0002844849Y0000732903D01*
X0002818602Y0000714155D02*
X0002844849Y0000714155D01*
X0002822352Y0000714155D02*
X0002820477Y0000712281D01*
X0002818602Y0000708531D01*
X0002818602Y0000702907D01*
X0002820477Y0000699157D01*
X0002824227Y0000697283D01*
X0002844849Y0000697283D01*
X0002842974Y0000663537D02*
X0002844849Y0000667286D01*
X0002844849Y0000674785D01*
X0002842974Y0000678535D01*
X0002839225Y0000680410D01*
X0002824227Y0000680410D01*
X0002820477Y0000678535D01*
X0002818602Y0000674785D01*
X0002818602Y0000667286D01*
X0002820477Y0000663537D01*
X0002824227Y0000661662D01*
X0002827976Y0000661662D01*
X0002831726Y0000680410D01*
X0002842974Y0000627916D02*
X0002844849Y0000631666D01*
X0002844849Y0000639165D01*
X0002842974Y0000642914D01*
X0002841100Y0000644789D01*
X0002837350Y0000646664D01*
X0002826101Y0000646664D01*
X0002822352Y0000644789D01*
X0002820477Y0000642914D01*
X0002818602Y0000639165D01*
X0002818602Y0000631666D01*
X0002820477Y0000627916D01*
X0002818602Y0000616668D02*
X0002818602Y0000601669D01*
X0002805479Y0000611043D02*
X0002839225Y0000611043D01*
X0002842974Y0000609169D01*
X0002844849Y0000605419D01*
X0002844849Y0000601669D01*
X0002844849Y0000582922D02*
X0002842974Y0000586671D01*
X0002841100Y0000588546D01*
X0002837350Y0000590421D01*
X0002826101Y0000590421D01*
X0002822352Y0000588546D01*
X0002820477Y0000586671D01*
X0002818602Y0000582922D01*
X0002818602Y0000577298D01*
X0002820477Y0000573548D01*
X0002822352Y0000571673D01*
X0002826101Y0000569798D01*
X0002837350Y0000569798D01*
X0002841100Y0000571673D01*
X0002842974Y0000573548D01*
X0002844849Y0000577298D01*
X0002844849Y0000582922D01*
X0002844849Y0000552926D02*
X0002818602Y0000552926D01*
X0002826101Y0000552926D02*
X0002822352Y0000551051D01*
X0002820477Y0000549176D01*
X0002818602Y0000545427D01*
X0002818602Y0000541677D01*
X0002883563Y0001145352D02*
X0002909810Y0001135978D01*
X0002883563Y0001126604D01*
X0002909810Y0001090983D02*
X0002909810Y0001113480D01*
X0002909810Y0001102232D02*
X0002870440Y0001102232D01*
X0002876064Y0001105981D01*
X0002879813Y0001109731D01*
X0002881688Y0001113480D01*
X0002906060Y0001074110D02*
X0002907935Y0001072236D01*
X0002909810Y0001074110D01*
X0002907935Y0001075985D01*
X0002906060Y0001074110D01*
X0002909810Y0001074110D01*
X0002870440Y0001047864D02*
X0002870440Y0001044114D01*
X0002872314Y0001040365D01*
X0002874189Y0001038490D01*
X0002877939Y0001036615D01*
X0002885438Y0001034740D01*
X0002894812Y0001034740D01*
X0002902311Y0001036615D01*
X0002906060Y0001038490D01*
X0002907935Y0001040365D01*
X0002909810Y0001044114D01*
X0002909810Y0001047864D01*
X0002907935Y0001051613D01*
X0002906060Y0001053488D01*
X0002902311Y0001055363D01*
X0002894812Y0001057238D01*
X0002885438Y0001057238D01*
X0002877939Y0001055363D01*
X0002874189Y0001053488D01*
X0002872314Y0001051613D01*
X0002870440Y0001047864D01*
X0002906060Y0001017867D02*
X0002907935Y0001015993D01*
X0002909810Y0001017867D01*
X0002907935Y0001019742D01*
X0002906060Y0001017867D01*
X0002909810Y0001017867D01*
X0002870440Y0000991621D02*
X0002870440Y0000987871D01*
X0002872314Y0000984122D01*
X0002874189Y0000982247D01*
X0002877939Y0000980372D01*
X0002885438Y0000978497D01*
X0002894812Y0000978497D01*
X0002902311Y0000980372D01*
X0002906060Y0000982247D01*
X0002907935Y0000984122D01*
X0002909810Y0000987871D01*
X0002909810Y0000991621D01*
X0002907935Y0000995370D01*
X0002906060Y0000997245D01*
X0002902311Y0000999120D01*
X0002894812Y0001000995D01*
X0002885438Y0001000995D01*
X0002877939Y0000999120D01*
X0002874189Y0000997245D01*
X0002872314Y0000995370D01*
X0002870440Y0000991621D01*
X0002924808Y0000920380D02*
X0002922933Y0000922254D01*
X0002917309Y0000926004D01*
X0002913559Y0000927879D01*
X0002907935Y0000929753D01*
X0002898561Y0000931628D01*
X0002891062Y0000931628D01*
X0002881688Y0000929753D01*
X0002876064Y0000927879D01*
X0002872314Y0000926004D01*
X0002866690Y0000922254D01*
X0002864815Y0000920380D01*
X0002889187Y0000892258D02*
X0002889187Y0000905382D01*
X0002909810Y0000905382D02*
X0002870440Y0000905382D01*
X0002870440Y0000886634D01*
X0002907935Y0000856638D02*
X0002909810Y0000860387D01*
X0002909810Y0000867886D01*
X0002907935Y0000871636D01*
X0002904185Y0000873510D01*
X0002889187Y0000873510D01*
X0002885438Y0000871636D01*
X0002883563Y0000867886D01*
X0002883563Y0000860387D01*
X0002885438Y0000856638D01*
X0002889187Y0000854763D01*
X0002892937Y0000854763D01*
X0002896686Y0000873510D01*
X0002909810Y0000837890D02*
X0002870440Y0000837890D01*
X0002885438Y0000837890D02*
X0002883563Y0000834140D01*
X0002883563Y0000826641D01*
X0002885438Y0000822892D01*
X0002887312Y0000821017D01*
X0002891062Y0000819142D01*
X0002902311Y0000819142D01*
X0002906060Y0000821017D01*
X0002907935Y0000822892D01*
X0002909810Y0000826641D01*
X0002909810Y0000834140D01*
X0002907935Y0000837890D01*
X0002870440Y0000770398D02*
X0002877939Y0000774148D01*
X0002874189Y0000755400D02*
X0002872314Y0000753525D01*
X0002870440Y0000749776D01*
X0002870440Y0000740402D01*
X0002872314Y0000736653D01*
X0002874189Y0000734778D01*
X0002877939Y0000732903D01*
X0002881688Y0000732903D01*
X0002887312Y0000734778D01*
X0002909810Y0000757275D01*
X0002909810Y0000732903D01*
X0002909810Y0000695408D02*
X0002909810Y0000717905D01*
X0002909810Y0000706656D02*
X0002870440Y0000706656D01*
X0002876064Y0000710406D01*
X0002879813Y0000714155D01*
X0002881688Y0000717905D01*
X0002924808Y0000682284D02*
X0002922933Y0000680410D01*
X0002917309Y0000676660D01*
X0002913559Y0000674785D01*
X0002907935Y0000672911D01*
X0002898561Y0000671036D01*
X0002891062Y0000671036D01*
X0002881688Y0000672911D01*
X0002876064Y0000674785D01*
X0002872314Y0000676660D01*
X0002866690Y0000680410D01*
X0002864815Y0000682284D01*
X0002972896Y0001334703D02*
X0002974770Y0001329079D01*
X0002974770Y0001319705D01*
X0002972896Y0001315955D01*
X0002971021Y0001314080D01*
X0002967271Y0001312206D01*
X0002963522Y0001312206D01*
X0002959772Y0001314080D01*
X0002957897Y0001315955D01*
X0002956023Y0001319705D01*
X0002954148Y0001327204D01*
X0002952273Y0001330953D01*
X0002950398Y0001332828D01*
X0002946649Y0001334703D01*
X0002942899Y0001334703D01*
X0002939150Y0001332828D01*
X0002937275Y0001330953D01*
X0002935400Y0001327204D01*
X0002935400Y0001317830D01*
X0002937275Y0001312206D01*
X0002948524Y0001278460D02*
X0002974770Y0001278460D01*
X0002948524Y0001295333D02*
X0002969146Y0001295333D01*
X0002972896Y0001293458D01*
X0002974770Y0001289708D01*
X0002974770Y0001284084D01*
X0002972896Y0001280335D01*
X0002971021Y0001278460D01*
X0002948524Y0001259712D02*
X0002987894Y0001259712D01*
X0002950398Y0001259712D02*
X0002948524Y0001255963D01*
X0002948524Y0001248464D01*
X0002950398Y0001244714D01*
X0002952273Y0001242839D01*
X0002956023Y0001240965D01*
X0002967271Y0001240965D01*
X0002971021Y0001242839D01*
X0002972896Y0001244714D01*
X0002974770Y0001248464D01*
X0002974770Y0001255963D01*
X0002972896Y0001259712D01*
X0002948524Y0001224092D02*
X0002987894Y0001224092D01*
X0002950398Y0001224092D02*
X0002948524Y0001220342D01*
X0002948524Y0001212843D01*
X0002950398Y0001209094D01*
X0002952273Y0001207219D01*
X0002956023Y0001205344D01*
X0002967271Y0001205344D01*
X0002971021Y0001207219D01*
X0002972896Y0001209094D01*
X0002974770Y0001212843D01*
X0002974770Y0001220342D01*
X0002972896Y0001224092D01*
X0002974770Y0001182847D02*
X0002972896Y0001186596D01*
X0002971021Y0001188471D01*
X0002967271Y0001190346D01*
X0002956023Y0001190346D01*
X0002952273Y0001188471D01*
X0002950398Y0001186596D01*
X0002948524Y0001182847D01*
X0002948524Y0001177223D01*
X0002950398Y0001173473D01*
X0002952273Y0001171598D01*
X0002956023Y0001169723D01*
X0002967271Y0001169723D01*
X0002971021Y0001171598D01*
X0002972896Y0001173473D01*
X0002974770Y0001177223D01*
X0002974770Y0001182847D01*
X0002974770Y0001152851D02*
X0002948524Y0001152851D01*
X0002956023Y0001152851D02*
X0002952273Y0001150976D01*
X0002950398Y0001149101D01*
X0002948524Y0001145352D01*
X0002948524Y0001141602D01*
X0002948524Y0001134103D02*
X0002948524Y0001119105D01*
X0002935400Y0001128479D02*
X0002969146Y0001128479D01*
X0002972896Y0001126604D01*
X0002974770Y0001122854D01*
X0002974770Y0001119105D01*
X0002959772Y0001075985D02*
X0002959772Y0001045989D01*
X0002974770Y0000980372D02*
X0002935400Y0000980372D01*
X0002972896Y0000980372D02*
X0002974770Y0000984122D01*
X0002974770Y0000991621D01*
X0002972896Y0000995370D01*
X0002971021Y0000997245D01*
X0002967271Y0000999120D01*
X0002956023Y0000999120D01*
X0002952273Y0000997245D01*
X0002950398Y0000995370D01*
X0002948524Y0000991621D01*
X0002948524Y0000984122D01*
X0002950398Y0000980372D01*
X0002972896Y0000946626D02*
X0002974770Y0000950376D01*
X0002974770Y0000957875D01*
X0002972896Y0000961624D01*
X0002969146Y0000963499D01*
X0002954148Y0000963499D01*
X0002950398Y0000961624D01*
X0002948524Y0000957875D01*
X0002948524Y0000950376D01*
X0002950398Y0000946626D01*
X0002954148Y0000944752D01*
X0002957897Y0000944752D01*
X0002961647Y0000963499D01*
X0002948524Y0000931628D02*
X0002974770Y0000922254D01*
X0002948524Y0000912881D01*
X0002956023Y0000873510D02*
X0002954148Y0000875385D01*
X0002952273Y0000879135D01*
X0002952273Y0000882884D01*
X0002954148Y0000886634D01*
X0002956023Y0000888509D01*
X0002959772Y0000890383D01*
X0002963522Y0000890383D01*
X0002967271Y0000888509D01*
X0002969146Y0000886634D01*
X0002971021Y0000882884D01*
X0002971021Y0000879135D01*
X0002969146Y0000875385D01*
X0002967271Y0000873510D01*
X0002952273Y0000873510D02*
X0002967271Y0000873510D01*
X0002969146Y0000871636D01*
X0002969146Y0000869761D01*
X0002967271Y0000866011D01*
X0002963522Y0000864137D01*
X0002954148Y0000864137D01*
X0002948524Y0000867886D01*
X0002944774Y0000873510D01*
X0002942899Y0000881010D01*
X0002944774Y0000888509D01*
X0002948524Y0000894133D01*
X0002954148Y0000897882D01*
X0002961647Y0000899757D01*
X0002969146Y0000897882D01*
X0002974770Y0000894133D01*
X0002978520Y0000888509D01*
X0002980395Y0000881010D01*
X0002978520Y0000873510D01*
X0002974770Y0000867886D01*
X0002972896Y0000832266D02*
X0002974770Y0000836015D01*
X0002974770Y0000843514D01*
X0002972896Y0000847264D01*
X0002969146Y0000849139D01*
X0002954148Y0000849139D01*
X0002950398Y0000847264D01*
X0002948524Y0000843514D01*
X0002948524Y0000836015D01*
X0002950398Y0000832266D01*
X0002954148Y0000830391D01*
X0002957897Y0000830391D01*
X0002961647Y0000849139D01*
X0002972896Y0000815393D02*
X0002974770Y0000811643D01*
X0002974770Y0000804144D01*
X0002972896Y0000800395D01*
X0002969146Y0000798520D01*
X0002967271Y0000798520D01*
X0002963522Y0000800395D01*
X0002961647Y0000804144D01*
X0002961647Y0000809768D01*
X0002959772Y0000813518D01*
X0002956023Y0000815393D01*
X0002954148Y0000815393D01*
X0002950398Y0000813518D01*
X0002948524Y0000809768D01*
X0002948524Y0000804144D01*
X0002950398Y0000800395D01*
X0002974770Y0000776023D02*
X0002972896Y0000779772D01*
X0002971021Y0000781647D01*
X0002967271Y0000783522D01*
X0002956023Y0000783522D01*
X0002952273Y0000781647D01*
X0002950398Y0000779772D01*
X0002948524Y0000776023D01*
X0002948524Y0000770398D01*
X0002950398Y0000766649D01*
X0002952273Y0000764774D01*
X0002956023Y0000762899D01*
X0002967271Y0000762899D01*
X0002971021Y0000764774D01*
X0002972896Y0000766649D01*
X0002974770Y0000770398D01*
X0002974770Y0000776023D01*
X0002974770Y0000740402D02*
X0002972896Y0000744152D01*
X0002969146Y0000746026D01*
X0002935400Y0000746026D01*
X0002974770Y0000719780D02*
X0002972896Y0000723529D01*
X0002971021Y0000725404D01*
X0002967271Y0000727279D01*
X0002956023Y0000727279D01*
X0002952273Y0000725404D01*
X0002950398Y0000723529D01*
X0002948524Y0000719780D01*
X0002948524Y0000714155D01*
X0002950398Y0000710406D01*
X0002952273Y0000708531D01*
X0002956023Y0000706656D01*
X0002967271Y0000706656D01*
X0002971021Y0000708531D01*
X0002972896Y0000710406D01*
X0002974770Y0000714155D01*
X0002974770Y0000719780D01*
X0002948524Y0000672911D02*
X0002980395Y0000672911D01*
X0002984144Y0000674785D01*
X0002986019Y0000676660D01*
X0002987894Y0000680410D01*
X0002987894Y0000686034D01*
X0002986019Y0000689783D01*
X0002972896Y0000672911D02*
X0002974770Y0000676660D01*
X0002974770Y0000684159D01*
X0002972896Y0000687909D01*
X0002971021Y0000689783D01*
X0002967271Y0000691658D01*
X0002956023Y0000691658D01*
X0002952273Y0000689783D01*
X0002950398Y0000687909D01*
X0002948524Y0000684159D01*
X0002948524Y0000676660D01*
X0002950398Y0000672911D01*
X0002974770Y0000654163D02*
X0002948524Y0000654163D01*
X0002935400Y0000654163D02*
X0002937275Y0000656038D01*
X0002939150Y0000654163D01*
X0002937275Y0000652288D01*
X0002935400Y0000654163D01*
X0002939150Y0000654163D01*
X0002972896Y0000618542D02*
X0002974770Y0000622292D01*
X0002974770Y0000629791D01*
X0002972896Y0000633540D01*
X0002971021Y0000635415D01*
X0002967271Y0000637290D01*
X0002956023Y0000637290D01*
X0002952273Y0000635415D01*
X0002950398Y0000633540D01*
X0002948524Y0000629791D01*
X0002948524Y0000622292D01*
X0002950398Y0000618542D01*
X0002971021Y0000601669D02*
X0002972896Y0000599795D01*
X0002974770Y0000601669D01*
X0002972896Y0000603544D01*
X0002971021Y0000601669D01*
X0002974770Y0000601669D01*
X0002972896Y0000566049D02*
X0002974770Y0000569798D01*
X0002974770Y0000577298D01*
X0002972896Y0000581047D01*
X0002971021Y0000582922D01*
X0002967271Y0000584797D01*
X0002956023Y0000584797D01*
X0002952273Y0000582922D01*
X0002950398Y0000581047D01*
X0002948524Y0000577298D01*
X0002948524Y0000569798D01*
X0002950398Y0000566049D01*
X0002974770Y0000543552D02*
X0002972896Y0000547301D01*
X0002971021Y0000549176D01*
X0002967271Y0000551051D01*
X0002956023Y0000551051D01*
X0002952273Y0000549176D01*
X0002950398Y0000547301D01*
X0002948524Y0000543552D01*
X0002948524Y0000537927D01*
X0002950398Y0000534178D01*
X0002952273Y0000532303D01*
X0002956023Y0000530428D01*
X0002967271Y0000530428D01*
X0002971021Y0000532303D01*
X0002972896Y0000534178D01*
X0002974770Y0000537927D01*
X0002974770Y0000543552D01*
X0002974770Y0000513555D02*
X0002948524Y0000513555D01*
X0002952273Y0000513555D02*
X0002950398Y0000511681D01*
X0002948524Y0000507931D01*
X0002948524Y0000502307D01*
X0002950398Y0000498557D01*
X0002954148Y0000496683D01*
X0002974770Y0000496683D01*
X0002954148Y0000496683D02*
X0002950398Y0000494808D01*
X0002948524Y0000491058D01*
X0002948524Y0000485434D01*
X0002950398Y0000481684D01*
X0002954148Y0000479810D01*
X0002974770Y0000479810D01*
X0000063392Y0001235129D02*
X0000040895Y0001235129D01*
X0000052143Y0001235129D02*
X0000052143Y0001195759D01*
X0000048394Y0001201383D01*
X0000044644Y0001205133D01*
X0000040895Y0001207008D01*
X0000078390Y0001199509D02*
X0000080265Y0001197634D01*
X0000084014Y0001195759D01*
X0000093388Y0001195759D01*
X0000097138Y0001197634D01*
X0000099013Y0001199509D01*
X0000100887Y0001203258D01*
X0000100887Y0001207008D01*
X0000099013Y0001212632D01*
X0000076515Y0001235129D01*
X0000100887Y0001235129D01*
X0000117760Y0001220131D02*
X0000147756Y0001220131D01*
X0000162755Y0001195759D02*
X0000187127Y0001195759D01*
X0000174003Y0001210757D01*
X0000179627Y0001210757D01*
X0000183377Y0001212632D01*
X0000185252Y0001214507D01*
X0000187127Y0001218256D01*
X0000187127Y0001227630D01*
X0000185252Y0001231380D01*
X0000183377Y0001233254D01*
X0000179627Y0001235129D01*
X0000168379Y0001235129D01*
X0000164629Y0001233254D01*
X0000162755Y0001231380D01*
X0000220872Y0001195759D02*
X0000213373Y0001195759D01*
X0000209624Y0001197634D01*
X0000207749Y0001199509D01*
X0000203999Y0001205133D01*
X0000202125Y0001212632D01*
X0000202125Y0001227630D01*
X0000203999Y0001231380D01*
X0000205874Y0001233254D01*
X0000209624Y0001235129D01*
X0000217123Y0001235129D01*
X0000220872Y0001233254D01*
X0000222747Y0001231380D01*
X0000224622Y0001227630D01*
X0000224622Y0001218256D01*
X0000222747Y0001214507D01*
X0000220872Y0001212632D01*
X0000217123Y0001210757D01*
X0000209624Y0001210757D01*
X0000205874Y0001212632D01*
X0000203999Y0001214507D01*
X0000202125Y0001218256D01*
X0000235870Y0001195759D02*
X0000248994Y0001235129D01*
X0000262117Y0001195759D01*
X0000305237Y0001235129D02*
X0000305237Y0001195759D01*
X0000314611Y0001195759D01*
X0000320235Y0001197634D01*
X0000323984Y0001201383D01*
X0000325859Y0001205133D01*
X0000327734Y0001212632D01*
X0000327734Y0001218256D01*
X0000325859Y0001225755D01*
X0000323984Y0001229505D01*
X0000320235Y0001233254D01*
X0000314611Y0001235129D01*
X0000305237Y0001235129D01*
X0000367104Y0001231380D02*
X0000365229Y0001233254D01*
X0000359605Y0001235129D01*
X0000355855Y0001235129D01*
X0000350231Y0001233254D01*
X0000346482Y0001229505D01*
X0000344607Y0001225755D01*
X0000342732Y0001218256D01*
X0000342732Y0001212632D01*
X0000344607Y0001205133D01*
X0000346482Y0001201383D01*
X0000350231Y0001197634D01*
X0000355855Y0001195759D01*
X0000359605Y0001195759D01*
X0000365229Y0001197634D01*
X0000367104Y0001199509D01*
D24*
X0002682999Y0000965319D02*
X0002682999Y0000365319D01*
X0002682999Y0000365319D02*
X0001882999Y0000365319D01*
X0001882999Y0000365319D02*
X0001882999Y0000965319D01*
X0001882999Y0000965319D02*
X0002682999Y0000965319D01*
D25*
X0001936936Y0000992091D02*
G75*
G03*
X0001936936Y0000992091I-0000003937D01*
G01*
X0001926936Y0002012091D02*
G75*
G03*
X0001926936Y0002012091I-0000003937D01*
G01*
D24*
X0001872999Y0001985319D02*
X0002672999Y0001985319D01*
X0001872999Y0001385319D02*
X0001872999Y0001985319D01*
X0002672999Y0001385319D02*
X0001872999Y0001385319D01*
X0002672999Y0001985319D02*
X0002672999Y0001385319D01*
D26*
G36*
X0000601845Y0000864128D02*
G01*
X0000603266Y0000853767D01*
X0000605626Y0000843542D01*
X0000608209Y0000835467D01*
X0000612374Y0000825392D01*
X0000617405Y0000815775D01*
X0000623265Y0000806664D01*
X0000629919Y0000798107D01*
X0000637332Y0000790151D01*
X0000645468Y0000782844D01*
X0000650239Y0000779119D01*
X0000652013Y0000777802D01*
X0000659150Y0000788054D01*
X0000661100Y0000790878D01*
X0000662847Y0000793449D01*
X0000664314Y0000795654D01*
X0000665426Y0000797374D01*
X0000666105Y0000798496D01*
X0000666287Y0000798886D01*
X0000665917Y0000799457D01*
X0000664948Y0000800393D01*
X0000663614Y0000801473D01*
X0000656921Y0000807099D01*
X0000650731Y0000813498D01*
X0000645116Y0000820554D01*
X0000640150Y0000828147D01*
X0000635906Y0000836159D01*
X0000632458Y0000844473D01*
X0000629880Y0000852969D01*
X0000628930Y0000857299D01*
X0000627612Y0000866774D01*
X0000627252Y0000876224D01*
X0000627830Y0000885583D01*
X0000629325Y0000894782D01*
X0000631717Y0000903755D01*
X0000634985Y0000912434D01*
X0000639110Y0000920752D01*
X0000644071Y0000928642D01*
X0000649848Y0000936036D01*
X0000654156Y0000940671D01*
X0000661323Y0000947197D01*
X0000668963Y0000952854D01*
X0000677078Y0000957644D01*
X0000685673Y0000961567D01*
X0000694751Y0000964627D01*
X0000704315Y0000966825D01*
X0000706633Y0000967217D01*
X0000710447Y0000967664D01*
X0000714912Y0000967936D01*
X0000719710Y0000968035D01*
X0000724522Y0000967959D01*
X0000729030Y0000967710D01*
X0000732918Y0000967285D01*
X0000733298Y0000967227D01*
X0000742853Y0000965244D01*
X0000752019Y0000962388D01*
X0000760746Y0000958692D01*
X0000768982Y0000954186D01*
X0000776679Y0000948903D01*
X0000783785Y0000942874D01*
X0000790251Y0000936131D01*
X0000796027Y0000928706D01*
X0000797319Y0000926804D01*
X0000802205Y0000918546D01*
X0000806191Y0000909947D01*
X0000809268Y0000901073D01*
X0000811426Y0000891991D01*
X0000812658Y0000882767D01*
X0000812953Y0000873468D01*
X0000812302Y0000864160D01*
X0000810697Y0000854911D01*
X0000808329Y0000846390D01*
X0000804857Y0000837424D01*
X0000800529Y0000828923D01*
X0000795382Y0000820943D01*
X0000789455Y0000813537D01*
X0000782785Y0000806760D01*
X0000778024Y0000802683D01*
X0000773426Y0000799006D01*
X0000775080Y0000796692D01*
X0000775888Y0000795550D01*
X0000777138Y0000793768D01*
X0000778707Y0000791520D01*
X0000780474Y0000788982D01*
X0000782313Y0000786334D01*
X0000784035Y0000783871D01*
X0000785572Y0000781713D01*
X0000786835Y0000779983D01*
X0000787732Y0000778804D01*
X0000788174Y0000778299D01*
X0000788196Y0000778289D01*
X0000788868Y0000778605D01*
X0000790134Y0000779479D01*
X0000791860Y0000780800D01*
X0000793911Y0000782455D01*
X0000796153Y0000784333D01*
X0000798451Y0000786322D01*
X0000800670Y0000788311D01*
X0000802676Y0000790188D01*
X0000803398Y0000790892D01*
X0000810827Y0000798917D01*
X0000817410Y0000807440D01*
X0000823131Y0000816422D01*
X0000827975Y0000825826D01*
X0000831924Y0000835613D01*
X0000834964Y0000845745D01*
X0000837078Y0000856184D01*
X0000838251Y0000866893D01*
X0000838504Y0000874824D01*
X0000838154Y0000884913D01*
X0000837083Y0000894459D01*
X0000835250Y0000903636D01*
X0000832614Y0000912621D01*
X0000829133Y0000921589D01*
X0000825942Y0000928411D01*
X0000820700Y0000937802D01*
X0000814660Y0000946628D01*
X0000807868Y0000954843D01*
X0000800370Y0000962401D01*
X0000792209Y0000969257D01*
X0000783433Y0000975365D01*
X0000774089Y0000980679D01*
X0000764367Y0000985131D01*
X0000754503Y0000988634D01*
X0000744372Y0000991228D01*
X0000738783Y0000992260D01*
X0000731877Y0000993370D01*
X0000732128Y0001113190D01*
X0000735593Y0001113564D01*
X0000743983Y0001114860D01*
X0000752639Y0001116926D01*
X0000761325Y0001119679D01*
X0000769805Y0001123036D01*
X0000777843Y0001126913D01*
X0000784851Y0001130998D01*
X0000790414Y0001134845D01*
X0000796038Y0001139248D01*
X0000801502Y0001144011D01*
X0000806584Y0001148935D01*
X0000811065Y0001153823D01*
X0000812981Y0001156155D01*
X0000819360Y0001165026D01*
X0000824827Y0001174282D01*
X0000829381Y0001183920D01*
X0000833021Y0001193938D01*
X0000835746Y0001204335D01*
X0000837557Y0001215109D01*
X0000838452Y0001226258D01*
X0000838521Y0001228537D01*
X0000838575Y0001231561D01*
X0000838600Y0001234379D01*
X0000838598Y0001236786D01*
X0000838567Y0001238575D01*
X0000838521Y0001239428D01*
X0000837768Y0001246139D01*
X0000836902Y0001252111D01*
X0000835875Y0001257590D01*
X0000834637Y0001262826D01*
X0000833139Y0001268066D01*
X0000832326Y0001270616D01*
X0000828579Y0001280476D01*
X0000823989Y0001289857D01*
X0000818601Y0001298717D01*
X0000812461Y0001307015D01*
X0000805611Y0001314710D01*
X0000798099Y0001321760D01*
X0000789967Y0001328125D01*
X0000781262Y0001333763D01*
X0000772028Y0001338633D01*
X0000762310Y0001342695D01*
X0000752153Y0001345906D01*
X0000749597Y0001346559D01*
X0000745219Y0001347579D01*
X0000741290Y0001348369D01*
X0000737570Y0001348957D01*
X0000733820Y0001349368D01*
X0000729801Y0001349630D01*
X0000725273Y0001349767D01*
X0000719999Y0001349807D01*
X0000719752Y0001349806D01*
X0000719752Y0001323834D01*
X0000729586Y0001323374D01*
X0000739116Y0001322002D01*
X0000748303Y0001319732D01*
X0000757104Y0001316577D01*
X0000765479Y0001312549D01*
X0000773387Y0001307663D01*
X0000776270Y0001305577D01*
X0000783399Y0001299587D01*
X0000789828Y0001292929D01*
X0000795522Y0001285668D01*
X0000800445Y0001277871D01*
X0000804562Y0001269602D01*
X0000807839Y0001260927D01*
X0000810240Y0001251913D01*
X0000811729Y0001242625D01*
X0000812055Y0001238933D01*
X0000812214Y0001236618D01*
X0000812353Y0001234595D01*
X0000812454Y0001233114D01*
X0000812497Y0001232497D01*
X0000812487Y0001231657D01*
X0000812413Y0001230041D01*
X0000812287Y0001227863D01*
X0000812119Y0001225334D01*
X0000812067Y0001224604D01*
X0000810906Y0001214980D01*
X0000808861Y0001205737D01*
X0000805975Y0001196916D01*
X0000802289Y0001188560D01*
X0000797844Y0001180708D01*
X0000792680Y0001173403D01*
X0000786841Y0001166685D01*
X0000780365Y0001160596D01*
X0000773296Y0001155177D01*
X0000765673Y0001150468D01*
X0000757539Y0001146512D01*
X0000748934Y0001143350D01*
X0000739900Y0001141022D01*
X0000730478Y0001139570D01*
X0000726683Y0001139248D01*
X0000716878Y0001139064D01*
X0000707320Y0001139792D01*
X0000698056Y0001141404D01*
X0000689137Y0001143874D01*
X0000680610Y0001147174D01*
X0000672526Y0001151276D01*
X0000664932Y0001156154D01*
X0000657879Y0001161781D01*
X0000651416Y0001168129D01*
X0000645590Y0001175171D01*
X0000640451Y0001182879D01*
X0000637147Y0001188943D01*
X0000633407Y0001197560D01*
X0000630561Y0001206511D01*
X0000628611Y0001215707D01*
X0000627556Y0001225056D01*
X0000627398Y0001234468D01*
X0000628137Y0001243852D01*
X0000629773Y0001253117D01*
X0000632308Y0001262173D01*
X0000635741Y0001270929D01*
X0000636582Y0001272731D01*
X0000641072Y0001280984D01*
X0000646301Y0001288605D01*
X0000652218Y0001295565D01*
X0000658775Y0001301834D01*
X0000665922Y0001307382D01*
X0000673611Y0001312178D01*
X0000681792Y0001316192D01*
X0000690416Y0001319394D01*
X0000699435Y0001321753D01*
X0000708798Y0001323241D01*
X0000718457Y0001323826D01*
X0000719752Y0001323834D01*
X0000719752Y0001349806D01*
X0000714730Y0001349767D01*
X0000710208Y0001349630D01*
X0000706190Y0001349371D01*
X0000702436Y0001348964D01*
X0000698705Y0001348384D01*
X0000694756Y0001347605D01*
X0000691039Y0001346767D01*
X0000680728Y0001343848D01*
X0000670860Y0001340066D01*
X0000661476Y0001335461D01*
X0000652616Y0001330074D01*
X0000644319Y0001323945D01*
X0000636627Y0001317115D01*
X0000629579Y0001309626D01*
X0000623216Y0001301517D01*
X0000617578Y0001292829D01*
X0000612705Y0001283604D01*
X0000608637Y0001273881D01*
X0000605416Y0001263702D01*
X0000604253Y0001258982D01*
X0000603373Y0001254914D01*
X0000602693Y0001251314D01*
X0000602187Y0001247947D01*
X0000601834Y0001244578D01*
X0000601608Y0001240973D01*
X0000601488Y0001236897D01*
X0000601448Y0001232115D01*
X0000601448Y0001231012D01*
X0000601496Y0001225709D01*
X0000601648Y0001221147D01*
X0000601929Y0001217078D01*
X0000602367Y0001213255D01*
X0000602986Y0001209433D01*
X0000603813Y0001205363D01*
X0000604449Y0001202577D01*
X0000607187Y0001192910D01*
X0000610783Y0001183391D01*
X0000615156Y0001174193D01*
X0000620223Y0001165491D01*
X0000625545Y0001157918D01*
X0000628495Y0001154315D01*
X0000631971Y0001150438D01*
X0000635724Y0001146543D01*
X0000639504Y0001142887D01*
X0000643060Y0001139727D01*
X0000644009Y0001138943D01*
X0000652096Y0001132993D01*
X0000660782Y0001127705D01*
X0000669927Y0001123139D01*
X0000679393Y0001119355D01*
X0000689041Y0001116413D01*
X0000698734Y0001114373D01*
X0000701683Y0001113939D01*
X0000703757Y0001113656D01*
X0000705565Y0001113392D01*
X0000706795Y0001113193D01*
X0000707004Y0001113154D01*
X0000708118Y0001112924D01*
X0000708118Y0000993141D01*
X0000706945Y0000993141D01*
X0000705666Y0000993037D01*
X0000703643Y0000992751D01*
X0000701094Y0000992326D01*
X0000698241Y0000991801D01*
X0000695302Y0000991217D01*
X0000692497Y0000990615D01*
X0000690047Y0000990037D01*
X0000689612Y0000989926D01*
X0000679831Y0000986881D01*
X0000670287Y0000982918D01*
X0000661065Y0000978094D01*
X0000652249Y0000972469D01*
X0000643925Y0000966101D01*
X0000636176Y0000959049D01*
X0000629088Y0000951373D01*
X0000623080Y0000943608D01*
X0000617344Y0000934652D01*
X0000612470Y0000925278D01*
X0000608466Y0000915554D01*
X0000605343Y0000905550D01*
X0000603110Y0000895337D01*
X0000601776Y0000884982D01*
X0000601351Y0000874556D01*
X0000601845Y0000864128D01*
G37*
X0000601845Y0000864128D02*
X0000603266Y0000853767D01*
X0000605626Y0000843542D01*
X0000608209Y0000835467D01*
X0000612374Y0000825392D01*
X0000617405Y0000815775D01*
X0000623265Y0000806664D01*
X0000629919Y0000798107D01*
X0000637332Y0000790151D01*
X0000645468Y0000782844D01*
X0000650239Y0000779119D01*
X0000652013Y0000777802D01*
X0000659150Y0000788054D01*
X0000661100Y0000790878D01*
X0000662847Y0000793449D01*
X0000664314Y0000795654D01*
X0000665426Y0000797374D01*
X0000666105Y0000798496D01*
X0000666287Y0000798886D01*
X0000665917Y0000799457D01*
X0000664948Y0000800393D01*
X0000663614Y0000801473D01*
X0000656921Y0000807099D01*
X0000650731Y0000813498D01*
X0000645116Y0000820554D01*
X0000640150Y0000828147D01*
X0000635906Y0000836159D01*
X0000632458Y0000844473D01*
X0000629880Y0000852969D01*
X0000628930Y0000857299D01*
X0000627612Y0000866774D01*
X0000627252Y0000876224D01*
X0000627830Y0000885583D01*
X0000629325Y0000894782D01*
X0000631717Y0000903755D01*
X0000634985Y0000912434D01*
X0000639110Y0000920752D01*
X0000644071Y0000928642D01*
X0000649848Y0000936036D01*
X0000654156Y0000940671D01*
X0000661323Y0000947197D01*
X0000668963Y0000952854D01*
X0000677078Y0000957644D01*
X0000685673Y0000961567D01*
X0000694751Y0000964627D01*
X0000704315Y0000966825D01*
X0000706633Y0000967217D01*
X0000710447Y0000967664D01*
X0000714912Y0000967936D01*
X0000719710Y0000968035D01*
X0000724522Y0000967959D01*
X0000729030Y0000967710D01*
X0000732918Y0000967285D01*
X0000733298Y0000967227D01*
X0000742853Y0000965244D01*
X0000752019Y0000962388D01*
X0000760746Y0000958692D01*
X0000768982Y0000954186D01*
X0000776679Y0000948903D01*
X0000783785Y0000942874D01*
X0000790251Y0000936131D01*
X0000796027Y0000928706D01*
X0000797319Y0000926804D01*
X0000802205Y0000918546D01*
X0000806191Y0000909947D01*
X0000809268Y0000901073D01*
X0000811426Y0000891991D01*
X0000812658Y0000882767D01*
X0000812953Y0000873468D01*
X0000812302Y0000864160D01*
X0000810697Y0000854911D01*
X0000808329Y0000846390D01*
X0000804857Y0000837424D01*
X0000800529Y0000828923D01*
X0000795382Y0000820943D01*
X0000789455Y0000813537D01*
X0000782785Y0000806760D01*
X0000778024Y0000802683D01*
X0000773426Y0000799006D01*
X0000775080Y0000796692D01*
X0000775888Y0000795550D01*
X0000777138Y0000793768D01*
X0000778707Y0000791520D01*
X0000780474Y0000788982D01*
X0000782313Y0000786334D01*
X0000784035Y0000783871D01*
X0000785572Y0000781713D01*
X0000786835Y0000779983D01*
X0000787732Y0000778804D01*
X0000788174Y0000778299D01*
X0000788196Y0000778289D01*
X0000788868Y0000778605D01*
X0000790134Y0000779479D01*
X0000791860Y0000780800D01*
X0000793911Y0000782455D01*
X0000796153Y0000784333D01*
X0000798451Y0000786322D01*
X0000800670Y0000788311D01*
X0000802676Y0000790188D01*
X0000803398Y0000790892D01*
X0000810827Y0000798917D01*
X0000817410Y0000807440D01*
X0000823131Y0000816422D01*
X0000827975Y0000825826D01*
X0000831924Y0000835613D01*
X0000834964Y0000845745D01*
X0000837078Y0000856184D01*
X0000838251Y0000866893D01*
X0000838504Y0000874824D01*
X0000838154Y0000884913D01*
X0000837083Y0000894459D01*
X0000835250Y0000903636D01*
X0000832614Y0000912621D01*
X0000829133Y0000921589D01*
X0000825942Y0000928411D01*
X0000820700Y0000937802D01*
X0000814660Y0000946628D01*
X0000807868Y0000954843D01*
X0000800370Y0000962401D01*
X0000792209Y0000969257D01*
X0000783433Y0000975365D01*
X0000774089Y0000980679D01*
X0000764367Y0000985131D01*
X0000754503Y0000988634D01*
X0000744372Y0000991228D01*
X0000738783Y0000992260D01*
X0000731877Y0000993370D01*
X0000732128Y0001113190D01*
X0000735593Y0001113564D01*
X0000743983Y0001114860D01*
X0000752639Y0001116926D01*
X0000761325Y0001119679D01*
X0000769805Y0001123036D01*
X0000777843Y0001126913D01*
X0000784851Y0001130998D01*
X0000790414Y0001134845D01*
X0000796038Y0001139248D01*
X0000801502Y0001144011D01*
X0000806584Y0001148935D01*
X0000811065Y0001153823D01*
X0000812981Y0001156155D01*
X0000819360Y0001165026D01*
X0000824827Y0001174282D01*
X0000829381Y0001183920D01*
X0000833021Y0001193938D01*
X0000835746Y0001204335D01*
X0000837557Y0001215109D01*
X0000838452Y0001226258D01*
X0000838521Y0001228537D01*
X0000838575Y0001231561D01*
X0000838600Y0001234379D01*
X0000838598Y0001236786D01*
X0000838567Y0001238575D01*
X0000838521Y0001239428D01*
X0000837768Y0001246139D01*
X0000836902Y0001252111D01*
X0000835875Y0001257590D01*
X0000834637Y0001262826D01*
X0000833139Y0001268066D01*
X0000832326Y0001270616D01*
X0000828579Y0001280476D01*
X0000823989Y0001289857D01*
X0000818601Y0001298717D01*
X0000812461Y0001307015D01*
X0000805611Y0001314710D01*
X0000798099Y0001321760D01*
X0000789967Y0001328125D01*
X0000781262Y0001333763D01*
X0000772028Y0001338633D01*
X0000762310Y0001342695D01*
X0000752153Y0001345906D01*
X0000749597Y0001346559D01*
X0000745219Y0001347579D01*
X0000741290Y0001348369D01*
X0000737570Y0001348957D01*
X0000733820Y0001349368D01*
X0000729801Y0001349630D01*
X0000725273Y0001349767D01*
X0000719999Y0001349807D01*
X0000719752Y0001349806D01*
X0000719752Y0001323834D01*
X0000729586Y0001323374D01*
X0000739116Y0001322002D01*
X0000748303Y0001319732D01*
X0000757104Y0001316577D01*
X0000765479Y0001312549D01*
X0000773387Y0001307663D01*
X0000776270Y0001305577D01*
X0000783399Y0001299587D01*
X0000789828Y0001292929D01*
X0000795522Y0001285668D01*
X0000800445Y0001277871D01*
X0000804562Y0001269602D01*
X0000807839Y0001260927D01*
X0000810240Y0001251913D01*
X0000811729Y0001242625D01*
X0000812055Y0001238933D01*
X0000812214Y0001236618D01*
X0000812353Y0001234595D01*
X0000812454Y0001233114D01*
X0000812497Y0001232497D01*
X0000812487Y0001231657D01*
X0000812413Y0001230041D01*
X0000812287Y0001227863D01*
X0000812119Y0001225334D01*
X0000812067Y0001224604D01*
X0000810906Y0001214980D01*
X0000808861Y0001205737D01*
X0000805975Y0001196916D01*
X0000802289Y0001188560D01*
X0000797844Y0001180708D01*
X0000792680Y0001173403D01*
X0000786841Y0001166685D01*
X0000780365Y0001160596D01*
X0000773296Y0001155177D01*
X0000765673Y0001150468D01*
X0000757539Y0001146512D01*
X0000748934Y0001143350D01*
X0000739900Y0001141022D01*
X0000730478Y0001139570D01*
X0000726683Y0001139248D01*
X0000716878Y0001139064D01*
X0000707320Y0001139792D01*
X0000698056Y0001141404D01*
X0000689137Y0001143874D01*
X0000680610Y0001147174D01*
X0000672526Y0001151276D01*
X0000664932Y0001156154D01*
X0000657879Y0001161781D01*
X0000651416Y0001168129D01*
X0000645590Y0001175171D01*
X0000640451Y0001182879D01*
X0000637147Y0001188943D01*
X0000633407Y0001197560D01*
X0000630561Y0001206511D01*
X0000628611Y0001215707D01*
X0000627556Y0001225056D01*
X0000627398Y0001234468D01*
X0000628137Y0001243852D01*
X0000629773Y0001253117D01*
X0000632308Y0001262173D01*
X0000635741Y0001270929D01*
X0000636582Y0001272731D01*
X0000641072Y0001280984D01*
X0000646301Y0001288605D01*
X0000652218Y0001295565D01*
X0000658775Y0001301834D01*
X0000665922Y0001307382D01*
X0000673611Y0001312178D01*
X0000681792Y0001316192D01*
X0000690416Y0001319394D01*
X0000699435Y0001321753D01*
X0000708798Y0001323241D01*
X0000718457Y0001323826D01*
X0000719752Y0001323834D01*
X0000719752Y0001349806D01*
X0000714730Y0001349767D01*
X0000710208Y0001349630D01*
X0000706190Y0001349371D01*
X0000702436Y0001348964D01*
X0000698705Y0001348384D01*
X0000694756Y0001347605D01*
X0000691039Y0001346767D01*
X0000680728Y0001343848D01*
X0000670860Y0001340066D01*
X0000661476Y0001335461D01*
X0000652616Y0001330074D01*
X0000644319Y0001323945D01*
X0000636627Y0001317115D01*
X0000629579Y0001309626D01*
X0000623216Y0001301517D01*
X0000617578Y0001292829D01*
X0000612705Y0001283604D01*
X0000608637Y0001273881D01*
X0000605416Y0001263702D01*
X0000604253Y0001258982D01*
X0000603373Y0001254914D01*
X0000602693Y0001251314D01*
X0000602187Y0001247947D01*
X0000601834Y0001244578D01*
X0000601608Y0001240973D01*
X0000601488Y0001236897D01*
X0000601448Y0001232115D01*
X0000601448Y0001231012D01*
X0000601496Y0001225709D01*
X0000601648Y0001221147D01*
X0000601929Y0001217078D01*
X0000602367Y0001213255D01*
X0000602986Y0001209433D01*
X0000603813Y0001205363D01*
X0000604449Y0001202577D01*
X0000607187Y0001192910D01*
X0000610783Y0001183391D01*
X0000615156Y0001174193D01*
X0000620223Y0001165491D01*
X0000625545Y0001157918D01*
X0000628495Y0001154315D01*
X0000631971Y0001150438D01*
X0000635724Y0001146543D01*
X0000639504Y0001142887D01*
X0000643060Y0001139727D01*
X0000644009Y0001138943D01*
X0000652096Y0001132993D01*
X0000660782Y0001127705D01*
X0000669927Y0001123139D01*
X0000679393Y0001119355D01*
X0000689041Y0001116413D01*
X0000698734Y0001114373D01*
X0000701683Y0001113939D01*
X0000703757Y0001113656D01*
X0000705565Y0001113392D01*
X0000706795Y0001113193D01*
X0000707004Y0001113154D01*
X0000708118Y0001112924D01*
X0000708118Y0000993141D01*
X0000706945Y0000993141D01*
X0000705666Y0000993037D01*
X0000703643Y0000992751D01*
X0000701094Y0000992326D01*
X0000698241Y0000991801D01*
X0000695302Y0000991217D01*
X0000692497Y0000990615D01*
X0000690047Y0000990037D01*
X0000689612Y0000989926D01*
X0000679831Y0000986881D01*
X0000670287Y0000982918D01*
X0000661065Y0000978094D01*
X0000652249Y0000972469D01*
X0000643925Y0000966101D01*
X0000636176Y0000959049D01*
X0000629088Y0000951373D01*
X0000623080Y0000943608D01*
X0000617344Y0000934652D01*
X0000612470Y0000925278D01*
X0000608466Y0000915554D01*
X0000605343Y0000905550D01*
X0000603110Y0000895337D01*
X0000601776Y0000884982D01*
X0000601351Y0000874556D01*
X0000601845Y0000864128D01*
G36*
X0000601312Y0000514104D02*
G01*
X0000601478Y0000509806D01*
X0000601635Y0000507709D01*
X0000603074Y0000497151D01*
X0000605409Y0000486789D01*
X0000608604Y0000476712D01*
X0000612624Y0000467008D01*
X0000617432Y0000457766D01*
X0000622992Y0000449074D01*
X0000628311Y0000442151D01*
X0000635497Y0000434311D01*
X0000643331Y0000427207D01*
X0000651761Y0000420869D01*
X0000660741Y0000415329D01*
X0000670221Y0000410615D01*
X0000680152Y0000406761D01*
X0000688564Y0000404270D01*
X0000698594Y0000402154D01*
X0000708902Y0000400846D01*
X0000719311Y0000400352D01*
X0000729647Y0000400674D01*
X0000739734Y0000401817D01*
X0000746429Y0000403079D01*
X0000757010Y0000405906D01*
X0000767132Y0000409584D01*
X0000776760Y0000414088D01*
X0000785855Y0000419394D01*
X0000794382Y0000425476D01*
X0000802303Y0000432311D01*
X0000809581Y0000439873D01*
X0000816180Y0000448137D01*
X0000818614Y0000451623D01*
X0000824160Y0000460749D01*
X0000828810Y0000470277D01*
X0000832572Y0000480225D01*
X0000835455Y0000490617D01*
X0000837355Y0000500708D01*
X0000837666Y0000503245D01*
X0000837952Y0000506379D01*
X0000838203Y0000509898D01*
X0000838409Y0000513594D01*
X0000838562Y0000517256D01*
X0000838651Y0000520673D01*
X0000838667Y0000523636D01*
X0000838601Y0000525934D01*
X0000838530Y0000526804D01*
X0000838394Y0000528033D01*
X0000838189Y0000529943D01*
X0000837946Y0000532230D01*
X0000837788Y0000533735D01*
X0000836290Y0000543517D01*
X0000833873Y0000553313D01*
X0000830596Y0000562981D01*
X0000826517Y0000572381D01*
X0000821696Y0000581370D01*
X0000816191Y0000589808D01*
X0000812320Y0000594873D01*
X0000809541Y0000598104D01*
X0000806243Y0000601642D01*
X0000802693Y0000605220D01*
X0000799157Y0000608571D01*
X0000795902Y0000611426D01*
X0000795495Y0000611762D01*
X0000787684Y0000617541D01*
X0000779183Y0000622695D01*
X0000770107Y0000627174D01*
X0000760572Y0000630929D01*
X0000750693Y0000633909D01*
X0000740585Y0000636065D01*
X0000737945Y0000636484D01*
X0000731881Y0000637375D01*
X0000731881Y0000729135D01*
X0000731882Y0000740730D01*
X0000731886Y0000751371D01*
X0000731892Y0000761094D01*
X0000731902Y0000769934D01*
X0000731915Y0000777927D01*
X0000731931Y0000785109D01*
X0000731951Y0000791515D01*
X0000731975Y0000797183D01*
X0000732004Y0000802147D01*
X0000732037Y0000806443D01*
X0000732074Y0000810107D01*
X0000732117Y0000813174D01*
X0000732164Y0000815682D01*
X0000732218Y0000817665D01*
X0000732277Y0000819159D01*
X0000732341Y0000820200D01*
X0000732412Y0000820824D01*
X0000732490Y0000821066D01*
X0000732499Y0000821072D01*
X0000738756Y0000823068D01*
X0000744207Y0000825275D01*
X0000749031Y0000827792D01*
X0000753404Y0000830714D01*
X0000757506Y0000834141D01*
X0000759126Y0000835691D01*
X0000763829Y0000841017D01*
X0000767724Y0000846821D01*
X0000770813Y0000853014D01*
X0000773094Y0000859506D01*
X0000774568Y0000866204D01*
X0000775234Y0000873021D01*
X0000775093Y0000879864D01*
X0000774144Y0000886644D01*
X0000772387Y0000893271D01*
X0000769822Y0000899653D01*
X0000766449Y0000905701D01*
X0000762268Y0000911325D01*
X0000759240Y0000914588D01*
X0000753789Y0000919392D01*
X0000748042Y0000923282D01*
X0000741913Y0000926314D01*
X0000738607Y0000927548D01*
X0000731459Y0000929461D01*
X0000724258Y0000930454D01*
X0000720170Y0000930510D01*
X0000720170Y0000611457D01*
X0000729747Y0000611037D01*
X0000738893Y0000609760D01*
X0000747713Y0000607603D01*
X0000756310Y0000604544D01*
X0000761336Y0000602298D01*
X0000769509Y0000597834D01*
X0000777077Y0000592612D01*
X0000784008Y0000586686D01*
X0000790266Y0000580107D01*
X0000795818Y0000572927D01*
X0000800629Y0000565199D01*
X0000804666Y0000556975D01*
X0000807894Y0000548307D01*
X0000810279Y0000539249D01*
X0000811786Y0000529851D01*
X0000812242Y0000524329D01*
X0000812343Y0000522544D01*
X0000812437Y0000520984D01*
X0000812478Y0000520368D01*
X0000812475Y0000519428D01*
X0000812407Y0000517725D01*
X0000812284Y0000515484D01*
X0000812117Y0000512929D01*
X0000812077Y0000512363D01*
X0000810909Y0000502644D01*
X0000808856Y0000493318D01*
X0000805953Y0000484426D01*
X0000802235Y0000476007D01*
X0000797737Y0000468103D01*
X0000792494Y0000460753D01*
X0000786542Y0000453999D01*
X0000779915Y0000447879D01*
X0000772648Y0000442435D01*
X0000764777Y0000437708D01*
X0000756336Y0000433736D01*
X0000747360Y0000430562D01*
X0000739306Y0000428514D01*
X0000735591Y0000427887D01*
X0000731169Y0000427392D01*
X0000726315Y0000427041D01*
X0000721306Y0000426845D01*
X0000716418Y0000426814D01*
X0000711926Y0000426959D01*
X0000708250Y0000427274D01*
X0000698560Y0000428934D01*
X0000689317Y0000431467D01*
X0000680547Y0000434856D01*
X0000672277Y0000439088D01*
X0000664532Y0000444145D01*
X0000657337Y0000450013D01*
X0000650719Y0000456675D01*
X0000644703Y0000464116D01*
X0000642411Y0000467398D01*
X0000637927Y0000474970D01*
X0000634219Y0000483070D01*
X0000631300Y0000491595D01*
X0000629183Y0000500445D01*
X0000627879Y0000509516D01*
X0000627403Y0000518706D01*
X0000627766Y0000527912D01*
X0000628982Y0000537032D01*
X0000631063Y0000545965D01*
X0000632178Y0000549576D01*
X0000635605Y0000558372D01*
X0000639841Y0000566634D01*
X0000644842Y0000574323D01*
X0000650560Y0000581404D01*
X0000656949Y0000587837D01*
X0000663963Y0000593587D01*
X0000671556Y0000598615D01*
X0000679682Y0000602884D01*
X0000688295Y0000606358D01*
X0000697347Y0000608998D01*
X0000706794Y0000610767D01*
X0000708105Y0000610938D01*
X0000710140Y0000611125D01*
X0000712857Y0000611282D01*
X0000715948Y0000611395D01*
X0000719106Y0000611453D01*
X0000720170Y0000611457D01*
X0000720170Y0000930510D01*
X0000717088Y0000930552D01*
X0000710036Y0000929779D01*
X0000703187Y0000928161D01*
X0000696625Y0000925722D01*
X0000690437Y0000922487D01*
X0000684707Y0000918480D01*
X0000679520Y0000913727D01*
X0000675761Y0000909326D01*
X0000671832Y0000903379D01*
X0000668744Y0000897005D01*
X0000666500Y0000890304D01*
X0000665101Y0000883377D01*
X0000664552Y0000876323D01*
X0000664853Y0000869242D01*
X0000666009Y0000862233D01*
X0000668020Y0000855398D01*
X0000670890Y0000848835D01*
X0000674112Y0000843388D01*
X0000675326Y0000841753D01*
X0000676993Y0000839731D01*
X0000678859Y0000837623D01*
X0000680070Y0000836337D01*
X0000684699Y0000832056D01*
X0000689663Y0000828457D01*
X0000695112Y0000825455D01*
X0000701198Y0000822967D01*
X0000707499Y0000821057D01*
X0000707578Y0000820859D01*
X0000707649Y0000820284D01*
X0000707715Y0000819296D01*
X0000707774Y0000817860D01*
X0000707828Y0000815940D01*
X0000707877Y0000813499D01*
X0000707920Y0000810502D01*
X0000707958Y0000806914D01*
X0000707991Y0000802697D01*
X0000708020Y0000797818D01*
X0000708045Y0000792239D01*
X0000708066Y0000785926D01*
X0000708082Y0000778841D01*
X0000708096Y0000770950D01*
X0000708106Y0000762217D01*
X0000708113Y0000752605D01*
X0000708117Y0000742079D01*
X0000708118Y0000730604D01*
X0000708118Y0000637297D01*
X0000705024Y0000636958D01*
X0000698816Y0000636050D01*
X0000692151Y0000634676D01*
X0000685389Y0000632927D01*
X0000678890Y0000630895D01*
X0000673760Y0000628980D01*
X0000664004Y0000624480D01*
X0000654825Y0000619195D01*
X0000646255Y0000613165D01*
X0000638325Y0000606432D01*
X0000631068Y0000599035D01*
X0000624515Y0000591017D01*
X0000618697Y0000582419D01*
X0000613648Y0000573280D01*
X0000609398Y0000563643D01*
X0000605979Y0000553547D01*
X0000603424Y0000543035D01*
X0000602387Y0000537018D01*
X0000601943Y0000533227D01*
X0000601607Y0000528746D01*
X0000601384Y0000523868D01*
X0000601284Y0000518890D01*
X0000601312Y0000514104D01*
G37*
X0000601312Y0000514104D02*
X0000601478Y0000509806D01*
X0000601635Y0000507709D01*
X0000603074Y0000497151D01*
X0000605409Y0000486789D01*
X0000608604Y0000476712D01*
X0000612624Y0000467008D01*
X0000617432Y0000457766D01*
X0000622992Y0000449074D01*
X0000628311Y0000442151D01*
X0000635497Y0000434311D01*
X0000643331Y0000427207D01*
X0000651761Y0000420869D01*
X0000660741Y0000415329D01*
X0000670221Y0000410615D01*
X0000680152Y0000406761D01*
X0000688564Y0000404270D01*
X0000698594Y0000402154D01*
X0000708902Y0000400846D01*
X0000719311Y0000400352D01*
X0000729647Y0000400674D01*
X0000739734Y0000401817D01*
X0000746429Y0000403079D01*
X0000757010Y0000405906D01*
X0000767132Y0000409584D01*
X0000776760Y0000414088D01*
X0000785855Y0000419394D01*
X0000794382Y0000425476D01*
X0000802303Y0000432311D01*
X0000809581Y0000439873D01*
X0000816180Y0000448137D01*
X0000818614Y0000451623D01*
X0000824160Y0000460749D01*
X0000828810Y0000470277D01*
X0000832572Y0000480225D01*
X0000835455Y0000490617D01*
X0000837355Y0000500708D01*
X0000837666Y0000503245D01*
X0000837952Y0000506379D01*
X0000838203Y0000509898D01*
X0000838409Y0000513594D01*
X0000838562Y0000517256D01*
X0000838651Y0000520673D01*
X0000838667Y0000523636D01*
X0000838601Y0000525934D01*
X0000838530Y0000526804D01*
X0000838394Y0000528033D01*
X0000838189Y0000529943D01*
X0000837946Y0000532230D01*
X0000837788Y0000533735D01*
X0000836290Y0000543517D01*
X0000833873Y0000553313D01*
X0000830596Y0000562981D01*
X0000826517Y0000572381D01*
X0000821696Y0000581370D01*
X0000816191Y0000589808D01*
X0000812320Y0000594873D01*
X0000809541Y0000598104D01*
X0000806243Y0000601642D01*
X0000802693Y0000605220D01*
X0000799157Y0000608571D01*
X0000795902Y0000611426D01*
X0000795495Y0000611762D01*
X0000787684Y0000617541D01*
X0000779183Y0000622695D01*
X0000770107Y0000627174D01*
X0000760572Y0000630929D01*
X0000750693Y0000633909D01*
X0000740585Y0000636065D01*
X0000737945Y0000636484D01*
X0000731881Y0000637375D01*
X0000731881Y0000729135D01*
X0000731882Y0000740730D01*
X0000731886Y0000751371D01*
X0000731892Y0000761094D01*
X0000731902Y0000769934D01*
X0000731915Y0000777927D01*
X0000731931Y0000785109D01*
X0000731951Y0000791515D01*
X0000731975Y0000797183D01*
X0000732004Y0000802147D01*
X0000732037Y0000806443D01*
X0000732074Y0000810107D01*
X0000732117Y0000813174D01*
X0000732164Y0000815682D01*
X0000732218Y0000817665D01*
X0000732277Y0000819159D01*
X0000732341Y0000820200D01*
X0000732412Y0000820824D01*
X0000732490Y0000821066D01*
X0000732499Y0000821072D01*
X0000738756Y0000823068D01*
X0000744207Y0000825275D01*
X0000749031Y0000827792D01*
X0000753404Y0000830714D01*
X0000757506Y0000834141D01*
X0000759126Y0000835691D01*
X0000763829Y0000841017D01*
X0000767724Y0000846821D01*
X0000770813Y0000853014D01*
X0000773094Y0000859506D01*
X0000774568Y0000866204D01*
X0000775234Y0000873021D01*
X0000775093Y0000879864D01*
X0000774144Y0000886644D01*
X0000772387Y0000893271D01*
X0000769822Y0000899653D01*
X0000766449Y0000905701D01*
X0000762268Y0000911325D01*
X0000759240Y0000914588D01*
X0000753789Y0000919392D01*
X0000748042Y0000923282D01*
X0000741913Y0000926314D01*
X0000738607Y0000927548D01*
X0000731459Y0000929461D01*
X0000724258Y0000930454D01*
X0000720170Y0000930510D01*
X0000720170Y0000611457D01*
X0000729747Y0000611037D01*
X0000738893Y0000609760D01*
X0000747713Y0000607603D01*
X0000756310Y0000604544D01*
X0000761336Y0000602298D01*
X0000769509Y0000597834D01*
X0000777077Y0000592612D01*
X0000784008Y0000586686D01*
X0000790266Y0000580107D01*
X0000795818Y0000572927D01*
X0000800629Y0000565199D01*
X0000804666Y0000556975D01*
X0000807894Y0000548307D01*
X0000810279Y0000539249D01*
X0000811786Y0000529851D01*
X0000812242Y0000524329D01*
X0000812343Y0000522544D01*
X0000812437Y0000520984D01*
X0000812478Y0000520368D01*
X0000812475Y0000519428D01*
X0000812407Y0000517725D01*
X0000812284Y0000515484D01*
X0000812117Y0000512929D01*
X0000812077Y0000512363D01*
X0000810909Y0000502644D01*
X0000808856Y0000493318D01*
X0000805953Y0000484426D01*
X0000802235Y0000476007D01*
X0000797737Y0000468103D01*
X0000792494Y0000460753D01*
X0000786542Y0000453999D01*
X0000779915Y0000447879D01*
X0000772648Y0000442435D01*
X0000764777Y0000437708D01*
X0000756336Y0000433736D01*
X0000747360Y0000430562D01*
X0000739306Y0000428514D01*
X0000735591Y0000427887D01*
X0000731169Y0000427392D01*
X0000726315Y0000427041D01*
X0000721306Y0000426845D01*
X0000716418Y0000426814D01*
X0000711926Y0000426959D01*
X0000708250Y0000427274D01*
X0000698560Y0000428934D01*
X0000689317Y0000431467D01*
X0000680547Y0000434856D01*
X0000672277Y0000439088D01*
X0000664532Y0000444145D01*
X0000657337Y0000450013D01*
X0000650719Y0000456675D01*
X0000644703Y0000464116D01*
X0000642411Y0000467398D01*
X0000637927Y0000474970D01*
X0000634219Y0000483070D01*
X0000631300Y0000491595D01*
X0000629183Y0000500445D01*
X0000627879Y0000509516D01*
X0000627403Y0000518706D01*
X0000627766Y0000527912D01*
X0000628982Y0000537032D01*
X0000631063Y0000545965D01*
X0000632178Y0000549576D01*
X0000635605Y0000558372D01*
X0000639841Y0000566634D01*
X0000644842Y0000574323D01*
X0000650560Y0000581404D01*
X0000656949Y0000587837D01*
X0000663963Y0000593587D01*
X0000671556Y0000598615D01*
X0000679682Y0000602884D01*
X0000688295Y0000606358D01*
X0000697347Y0000608998D01*
X0000706794Y0000610767D01*
X0000708105Y0000610938D01*
X0000710140Y0000611125D01*
X0000712857Y0000611282D01*
X0000715948Y0000611395D01*
X0000719106Y0000611453D01*
X0000720170Y0000611457D01*
X0000720170Y0000930510D01*
X0000717088Y0000930552D01*
X0000710036Y0000929779D01*
X0000703187Y0000928161D01*
X0000696625Y0000925722D01*
X0000690437Y0000922487D01*
X0000684707Y0000918480D01*
X0000679520Y0000913727D01*
X0000675761Y0000909326D01*
X0000671832Y0000903379D01*
X0000668744Y0000897005D01*
X0000666500Y0000890304D01*
X0000665101Y0000883377D01*
X0000664552Y0000876323D01*
X0000664853Y0000869242D01*
X0000666009Y0000862233D01*
X0000668020Y0000855398D01*
X0000670890Y0000848835D01*
X0000674112Y0000843388D01*
X0000675326Y0000841753D01*
X0000676993Y0000839731D01*
X0000678859Y0000837623D01*
X0000680070Y0000836337D01*
X0000684699Y0000832056D01*
X0000689663Y0000828457D01*
X0000695112Y0000825455D01*
X0000701198Y0000822967D01*
X0000707499Y0000821057D01*
X0000707578Y0000820859D01*
X0000707649Y0000820284D01*
X0000707715Y0000819296D01*
X0000707774Y0000817860D01*
X0000707828Y0000815940D01*
X0000707877Y0000813499D01*
X0000707920Y0000810502D01*
X0000707958Y0000806914D01*
X0000707991Y0000802697D01*
X0000708020Y0000797818D01*
X0000708045Y0000792239D01*
X0000708066Y0000785926D01*
X0000708082Y0000778841D01*
X0000708096Y0000770950D01*
X0000708106Y0000762217D01*
X0000708113Y0000752605D01*
X0000708117Y0000742079D01*
X0000708118Y0000730604D01*
X0000708118Y0000637297D01*
X0000705024Y0000636958D01*
X0000698816Y0000636050D01*
X0000692151Y0000634676D01*
X0000685389Y0000632927D01*
X0000678890Y0000630895D01*
X0000673760Y0000628980D01*
X0000664004Y0000624480D01*
X0000654825Y0000619195D01*
X0000646255Y0000613165D01*
X0000638325Y0000606432D01*
X0000631068Y0000599035D01*
X0000624515Y0000591017D01*
X0000618697Y0000582419D01*
X0000613648Y0000573280D01*
X0000609398Y0000563643D01*
X0000605979Y0000553547D01*
X0000603424Y0000543035D01*
X0000602387Y0000537018D01*
X0000601943Y0000533227D01*
X0000601607Y0000528746D01*
X0000601384Y0000523868D01*
X0000601284Y0000518890D01*
X0000601312Y0000514104D01*
G36*
X0000731881Y0001171854D02*
G01*
X0000731881Y0001290665D01*
X0000708118Y0001290665D01*
X0000708118Y0001171854D01*
X0000731881Y0001171854D01*
G37*
X0000731881Y0001171854D02*
X0000731881Y0001290665D01*
X0000708118Y0001290665D01*
X0000708118Y0001171854D01*
X0000731881Y0001171854D01*
G36*
X0000708118Y0000507002D02*
G01*
X0000708118Y0000459477D01*
X0000731881Y0000459477D01*
X0000731881Y0000507002D01*
X0000779405Y0000507002D01*
X0000779405Y0000530764D01*
X0000731881Y0000530764D01*
X0000731881Y0000578289D01*
X0000708128Y0000578289D01*
X0000707999Y0000554651D01*
X0000707871Y0000531012D01*
X0000684232Y0000530883D01*
X0000660593Y0000530755D01*
X0000660593Y0000507002D01*
X0000708118Y0000507002D01*
G37*
X0000708118Y0000507002D02*
X0000708118Y0000459477D01*
X0000731881Y0000459477D01*
X0000731881Y0000507002D01*
X0000779405Y0000507002D01*
X0000779405Y0000530764D01*
X0000731881Y0000530764D01*
X0000731881Y0000578289D01*
X0000708128Y0000578289D01*
X0000707999Y0000554651D01*
X0000707871Y0000531012D01*
X0000684232Y0000530883D01*
X0000660593Y0000530755D01*
X0000660593Y0000507002D01*
X0000708118Y0000507002D01*
D27*
X0001800493Y0000831526D02*
X0001845112Y0000831526D01*
X0001850362Y0000828902D01*
X0001852986Y0000826277D01*
X0001855611Y0000821028D01*
X0001855611Y0000810529D01*
X0001852986Y0000805280D01*
X0001850362Y0000802655D01*
X0001845112Y0000800030D01*
X0001800493Y0000800030D01*
X0001800493Y0000779033D02*
X0001800493Y0000744912D01*
X0001821490Y0000763285D01*
X0001821490Y0000755411D01*
X0001824115Y0000750161D01*
X0001826740Y0000747537D01*
X0001831989Y0000744912D01*
X0001845112Y0000744912D01*
X0001850362Y0000747537D01*
X0001852986Y0000750161D01*
X0001855611Y0000755411D01*
X0001855611Y0000771159D01*
X0001852986Y0000776408D01*
X0001850362Y0000779033D01*
X0001790493Y0001851526D02*
X0001835112Y0001851526D01*
X0001840362Y0001848902D01*
X0001842986Y0001846277D01*
X0001845611Y0001841028D01*
X0001845611Y0001830529D01*
X0001842986Y0001825280D01*
X0001840362Y0001822655D01*
X0001835112Y0001820030D01*
X0001790493Y0001820030D01*
X0001795742Y0001796408D02*
X0001793118Y0001793783D01*
X0001790493Y0001788534D01*
X0001790493Y0001775411D01*
X0001793118Y0001770161D01*
X0001795742Y0001767537D01*
X0001800992Y0001764912D01*
X0001806241Y0001764912D01*
X0001814115Y0001767537D01*
X0001845611Y0001799033D01*
X0001845611Y0001764912D01*
G04 next file*
G04 #@! TF.GenerationSoftware,KiCad,Pcbnew,5.1.9-73d0e3b20d~88~ubuntu18.04.1*
G04 #@! TF.CreationDate,2021-02-13T22:07:47-05:00*
G04 #@! TF.ProjectId,connector,636f6e6e-6563-4746-9f72-2e6b69636164,v1.0.0*
G04 #@! TF.SameCoordinates,Original*
G04 #@! TF.FileFunction,Legend,Bot*
G04 #@! TF.FilePolarity,Positive*
G04 Gerber Fmt 4.6, Leading zero omitted, Abs format (unit mm)*
G04 Created by KiCad (PCBNEW 5.1.9-73d0e3b20d~88~ubuntu18.04.1) date 2021-02-13 22:07:47*
G01*
G04 APERTURE LIST*
G04 APERTURE END LIST*
D28*
X0004461572Y0001696172D02*
X0004457072Y0001694673D01*
X0004449573Y0001694673D01*
X0004446574Y0001696172D01*
X0004445074Y0001697672D01*
X0004443574Y0001700672D01*
X0004443574Y0001703671D01*
X0004445074Y0001706671D01*
X0004446574Y0001708171D01*
X0004449573Y0001709671D01*
X0004455572Y0001711170D01*
X0004458572Y0001712670D01*
X0004460072Y0001714170D01*
X0004461572Y0001717170D01*
X0004461572Y0001720169D01*
X0004460072Y0001723169D01*
X0004458572Y0001724669D01*
X0004455572Y0001726169D01*
X0004448073Y0001726169D01*
X0004443574Y0001724669D01*
X0004430076Y0001694673D02*
X0004430076Y0001715670D01*
X0004430076Y0001726169D02*
X0004431575Y0001724669D01*
X0004430076Y0001723169D01*
X0004428576Y0001724669D01*
X0004430076Y0001726169D01*
X0004430076Y0001723169D01*
X0004410578Y0001694673D02*
X0004413578Y0001696172D01*
X0004415077Y0001699172D01*
X0004415077Y0001726169D01*
X0004386581Y0001696172D02*
X0004389581Y0001694673D01*
X0004395580Y0001694673D01*
X0004398580Y0001696172D01*
X0004400079Y0001699172D01*
X0004400079Y0001711170D01*
X0004398580Y0001714170D01*
X0004395580Y0001715670D01*
X0004389581Y0001715670D01*
X0004386581Y0001714170D01*
X0004385081Y0001711170D01*
X0004385081Y0001708171D01*
X0004400079Y0001705171D01*
X0004371583Y0001715670D02*
X0004371583Y0001694673D01*
X0004371583Y0001712670D02*
X0004370083Y0001714170D01*
X0004367083Y0001715670D01*
X0004362584Y0001715670D01*
X0004359584Y0001714170D01*
X0004358085Y0001711170D01*
X0004358085Y0001694673D01*
X0004347586Y0001715670D02*
X0004335587Y0001715670D01*
X0004343086Y0001726169D02*
X0004343086Y0001699172D01*
X0004341587Y0001696172D01*
X0004338587Y0001694673D01*
X0004335587Y0001694673D01*
X0004301092Y0001694673D02*
X0004301092Y0001726169D01*
X0004293593Y0001726169D01*
X0004289093Y0001724669D01*
X0004286094Y0001721669D01*
X0004284594Y0001718670D01*
X0004283094Y0001712670D01*
X0004283094Y0001708171D01*
X0004284594Y0001702172D01*
X0004286094Y0001699172D01*
X0004289093Y0001696172D01*
X0004293593Y0001694673D01*
X0004301092Y0001694673D01*
X0004269596Y0001694673D02*
X0004269596Y0001715670D01*
X0004269596Y0001709671D02*
X0004268096Y0001712670D01*
X0004266596Y0001714170D01*
X0004263596Y0001715670D01*
X0004260597Y0001715670D01*
X0004250098Y0001694673D02*
X0004250098Y0001715670D01*
X0004250098Y0001726169D02*
X0004251598Y0001724669D01*
X0004250098Y0001723169D01*
X0004248598Y0001724669D01*
X0004250098Y0001726169D01*
X0004250098Y0001723169D01*
X0004235100Y0001715670D02*
X0004235100Y0001684174D01*
X0004235100Y0001714170D02*
X0004232100Y0001715670D01*
X0004226101Y0001715670D01*
X0004223101Y0001714170D01*
X0004221602Y0001712670D01*
X0004220102Y0001709671D01*
X0004220102Y0001700672D01*
X0004221602Y0001697672D01*
X0004223101Y0001696172D01*
X0004226101Y0001694673D01*
X0004232100Y0001694673D01*
X0004235100Y0001696172D01*
X0004206604Y0001715670D02*
X0004206604Y0001684174D01*
X0004206604Y0001714170D02*
X0004203604Y0001715670D01*
X0004197605Y0001715670D01*
X0004194605Y0001714170D01*
X0004193105Y0001712670D01*
X0004191605Y0001709671D01*
X0004191605Y0001700672D01*
X0004193105Y0001697672D01*
X0004194605Y0001696172D01*
X0004197605Y0001694673D01*
X0004203604Y0001694673D01*
X0004206604Y0001696172D01*
X0004166109Y0001696172D02*
X0004169108Y0001694673D01*
X0004175107Y0001694673D01*
X0004178107Y0001696172D01*
X0004179607Y0001699172D01*
X0004179607Y0001711170D01*
X0004178107Y0001714170D01*
X0004175107Y0001715670D01*
X0004169108Y0001715670D01*
X0004166109Y0001714170D01*
X0004164609Y0001711170D01*
X0004164609Y0001708171D01*
X0004179607Y0001705171D01*
X0004151110Y0001694673D02*
X0004151110Y0001715670D01*
X0004151110Y0001709671D02*
X0004149611Y0001712670D01*
X0004148111Y0001714170D01*
X0004145111Y0001715670D01*
X0004142112Y0001715670D01*
X0004089618Y0001697672D02*
X0004091118Y0001696172D01*
X0004095617Y0001694673D01*
X0004098617Y0001694673D01*
X0004103116Y0001696172D01*
X0004106116Y0001699172D01*
X0004107616Y0001702172D01*
X0004109116Y0001708171D01*
X0004109116Y0001712670D01*
X0004107616Y0001718670D01*
X0004106116Y0001721669D01*
X0004103116Y0001724669D01*
X0004098617Y0001726169D01*
X0004095617Y0001726169D01*
X0004091118Y0001724669D01*
X0004089618Y0001723169D01*
X0004071620Y0001694673D02*
X0004074620Y0001696172D01*
X0004076120Y0001697672D01*
X0004077620Y0001700672D01*
X0004077620Y0001709671D01*
X0004076120Y0001712670D01*
X0004074620Y0001714170D01*
X0004071620Y0001715670D01*
X0004067121Y0001715670D01*
X0004064121Y0001714170D01*
X0004062622Y0001712670D01*
X0004061122Y0001709671D01*
X0004061122Y0001700672D01*
X0004062622Y0001697672D01*
X0004064121Y0001696172D01*
X0004067121Y0001694673D01*
X0004071620Y0001694673D01*
X0004047623Y0001715670D02*
X0004047623Y0001694673D01*
X0004047623Y0001712670D02*
X0004046124Y0001714170D01*
X0004043124Y0001715670D01*
X0004038625Y0001715670D01*
X0004035625Y0001714170D01*
X0004034125Y0001711170D01*
X0004034125Y0001694673D01*
X0004019127Y0001715670D02*
X0004019127Y0001694673D01*
X0004019127Y0001712670D02*
X0004017627Y0001714170D01*
X0004014628Y0001715670D01*
X0004010128Y0001715670D01*
X0004007128Y0001714170D01*
X0004005629Y0001711170D01*
X0004005629Y0001694673D01*
X0003978632Y0001696172D02*
X0003981632Y0001694673D01*
X0003987631Y0001694673D01*
X0003990631Y0001696172D01*
X0003992130Y0001699172D01*
X0003992130Y0001711170D01*
X0003990631Y0001714170D01*
X0003987631Y0001715670D01*
X0003981632Y0001715670D01*
X0003978632Y0001714170D01*
X0003977132Y0001711170D01*
X0003977132Y0001708171D01*
X0003992130Y0001705171D01*
X0003950136Y0001696172D02*
X0003953135Y0001694673D01*
X0003959134Y0001694673D01*
X0003962134Y0001696172D01*
X0003963634Y0001697672D01*
X0003965134Y0001700672D01*
X0003965134Y0001709671D01*
X0003963634Y0001712670D01*
X0003962134Y0001714170D01*
X0003959134Y0001715670D01*
X0003953135Y0001715670D01*
X0003950136Y0001714170D01*
X0003941137Y0001715670D02*
X0003929138Y0001715670D01*
X0003936637Y0001726169D02*
X0003936637Y0001699172D01*
X0003935137Y0001696172D01*
X0003932138Y0001694673D01*
X0003929138Y0001694673D01*
X0003914140Y0001694673D02*
X0003917140Y0001696172D01*
X0003918640Y0001697672D01*
X0003920139Y0001700672D01*
X0003920139Y0001709671D01*
X0003918640Y0001712670D01*
X0003917140Y0001714170D01*
X0003914140Y0001715670D01*
X0003909641Y0001715670D01*
X0003906641Y0001714170D01*
X0003905141Y0001712670D01*
X0003903641Y0001709671D01*
X0003903641Y0001700672D01*
X0003905141Y0001697672D01*
X0003906641Y0001696172D01*
X0003909641Y0001694673D01*
X0003914140Y0001694673D01*
X0003890143Y0001694673D02*
X0003890143Y0001715670D01*
X0003890143Y0001709671D02*
X0003888643Y0001712670D01*
X0003887143Y0001714170D01*
X0003884144Y0001715670D01*
X0003881144Y0001715670D01*
X0004364084Y0001553229D02*
X0004356585Y0001532232D01*
X0004349086Y0001553229D01*
X0004320589Y0001532232D02*
X0004338587Y0001532232D01*
X0004329588Y0001532232D02*
X0004329588Y0001563728D01*
X0004332588Y0001559228D01*
X0004335587Y0001556229D01*
X0004338587Y0001554729D01*
X0004307091Y0001535231D02*
X0004305591Y0001533731D01*
X0004307091Y0001532232D01*
X0004308591Y0001533731D01*
X0004307091Y0001535231D01*
X0004307091Y0001532232D01*
X0004286094Y0001563728D02*
X0004283094Y0001563728D01*
X0004280094Y0001562228D01*
X0004278595Y0001560728D01*
X0004277095Y0001557728D01*
X0004275595Y0001551729D01*
X0004275595Y0001544230D01*
X0004277095Y0001538231D01*
X0004278595Y0001535231D01*
X0004280094Y0001533731D01*
X0004283094Y0001532232D01*
X0004286094Y0001532232D01*
X0004289093Y0001533731D01*
X0004290593Y0001535231D01*
X0004292093Y0001538231D01*
X0004293593Y0001544230D01*
X0004293593Y0001551729D01*
X0004292093Y0001557728D01*
X0004290593Y0001560728D01*
X0004289093Y0001562228D01*
X0004286094Y0001563728D01*
X0004262097Y0001535231D02*
X0004260597Y0001533731D01*
X0004262097Y0001532232D01*
X0004263596Y0001533731D01*
X0004262097Y0001535231D01*
X0004262097Y0001532232D01*
X0004241099Y0001563728D02*
X0004238100Y0001563728D01*
X0004235100Y0001562228D01*
X0004233600Y0001560728D01*
X0004232100Y0001557728D01*
X0004230601Y0001551729D01*
X0004230601Y0001544230D01*
X0004232100Y0001538231D01*
X0004233600Y0001535231D01*
X0004235100Y0001533731D01*
X0004238100Y0001532232D01*
X0004241099Y0001532232D01*
X0004244099Y0001533731D01*
X0004245599Y0001535231D01*
X0004247098Y0001538231D01*
X0004248598Y0001544230D01*
X0004248598Y0001551729D01*
X0004247098Y0001557728D01*
X0004245599Y0001560728D01*
X0004244099Y0001562228D01*
X0004241099Y0001563728D01*
X0004184106Y0001520233D02*
X0004185606Y0001521733D01*
X0004188606Y0001526232D01*
X0004190106Y0001529232D01*
X0004191605Y0001533731D01*
X0004193105Y0001541230D01*
X0004193105Y0001547230D01*
X0004191605Y0001554729D01*
X0004190106Y0001559228D01*
X0004188606Y0001562228D01*
X0004185606Y0001566727D01*
X0004184106Y0001568227D01*
X0004161609Y0001548730D02*
X0004172108Y0001548730D01*
X0004172108Y0001532232D02*
X0004172108Y0001563728D01*
X0004157110Y0001563728D01*
X0004133113Y0001533731D02*
X0004136112Y0001532232D01*
X0004142112Y0001532232D01*
X0004145111Y0001533731D01*
X0004146611Y0001536731D01*
X0004146611Y0001548730D01*
X0004145111Y0001551729D01*
X0004142112Y0001553229D01*
X0004136112Y0001553229D01*
X0004133113Y0001551729D01*
X0004131613Y0001548730D01*
X0004131613Y0001545730D01*
X0004146611Y0001542730D01*
X0004118115Y0001532232D02*
X0004118115Y0001563728D01*
X0004118115Y0001551729D02*
X0004115115Y0001553229D01*
X0004109116Y0001553229D01*
X0004106116Y0001551729D01*
X0004104616Y0001550229D01*
X0004103116Y0001547230D01*
X0004103116Y0001538231D01*
X0004104616Y0001535231D01*
X0004106116Y0001533731D01*
X0004109116Y0001532232D01*
X0004115115Y0001532232D01*
X0004118115Y0001533731D01*
X0004064121Y0001563728D02*
X0004067121Y0001557728D01*
X0004052123Y0001560728D02*
X0004050623Y0001562228D01*
X0004047623Y0001563728D01*
X0004040124Y0001563728D01*
X0004037125Y0001562228D01*
X0004035625Y0001560728D01*
X0004034125Y0001557728D01*
X0004034125Y0001554729D01*
X0004035625Y0001550229D01*
X0004053623Y0001532232D01*
X0004034125Y0001532232D01*
X0004004129Y0001532232D02*
X0004022127Y0001532232D01*
X0004013128Y0001532232D02*
X0004013128Y0001563728D01*
X0004016127Y0001559228D01*
X0004019127Y0001556229D01*
X0004022127Y0001554729D01*
X0003993630Y0001520233D02*
X0003992130Y0001521733D01*
X0003989131Y0001526232D01*
X0003987631Y0001529232D01*
X0003986131Y0001533731D01*
X0003984631Y0001541230D01*
X0003984631Y0001547230D01*
X0003986131Y0001554729D01*
X0003987631Y0001559228D01*
X0003989131Y0001562228D01*
X0003992130Y0001566727D01*
X0003993630Y0001568227D01*
X0004515565Y0001478613D02*
X0004511065Y0001477114D01*
X0004503566Y0001477114D01*
X0004500567Y0001478613D01*
X0004499067Y0001480113D01*
X0004497567Y0001483113D01*
X0004497567Y0001486112D01*
X0004499067Y0001489112D01*
X0004500567Y0001490612D01*
X0004503566Y0001492112D01*
X0004509566Y0001493611D01*
X0004512565Y0001495111D01*
X0004514065Y0001496611D01*
X0004515565Y0001499611D01*
X0004515565Y0001502610D01*
X0004514065Y0001505610D01*
X0004512565Y0001507110D01*
X0004509566Y0001508610D01*
X0004502067Y0001508610D01*
X0004497567Y0001507110D01*
X0004470571Y0001498111D02*
X0004470571Y0001477114D01*
X0004484069Y0001498111D02*
X0004484069Y0001481613D01*
X0004482569Y0001478613D01*
X0004479569Y0001477114D01*
X0004475070Y0001477114D01*
X0004472070Y0001478613D01*
X0004470571Y0001480113D01*
X0004455572Y0001498111D02*
X0004455572Y0001466615D01*
X0004455572Y0001496611D02*
X0004452573Y0001498111D01*
X0004446574Y0001498111D01*
X0004443574Y0001496611D01*
X0004442074Y0001495111D01*
X0004440574Y0001492112D01*
X0004440574Y0001483113D01*
X0004442074Y0001480113D01*
X0004443574Y0001478613D01*
X0004446574Y0001477114D01*
X0004452573Y0001477114D01*
X0004455572Y0001478613D01*
X0004427076Y0001498111D02*
X0004427076Y0001466615D01*
X0004427076Y0001496611D02*
X0004424076Y0001498111D01*
X0004418077Y0001498111D01*
X0004415077Y0001496611D01*
X0004413578Y0001495111D01*
X0004412078Y0001492112D01*
X0004412078Y0001483113D01*
X0004413578Y0001480113D01*
X0004415077Y0001478613D01*
X0004418077Y0001477114D01*
X0004424076Y0001477114D01*
X0004427076Y0001478613D01*
X0004394080Y0001477114D02*
X0004397080Y0001478613D01*
X0004398580Y0001480113D01*
X0004400079Y0001483113D01*
X0004400079Y0001492112D01*
X0004398580Y0001495111D01*
X0004397080Y0001496611D01*
X0004394080Y0001498111D01*
X0004389581Y0001498111D01*
X0004386581Y0001496611D01*
X0004385081Y0001495111D01*
X0004383581Y0001492112D01*
X0004383581Y0001483113D01*
X0004385081Y0001480113D01*
X0004386581Y0001478613D01*
X0004389581Y0001477114D01*
X0004394080Y0001477114D01*
X0004370083Y0001477114D02*
X0004370083Y0001498111D01*
X0004370083Y0001492112D02*
X0004368583Y0001495111D01*
X0004367083Y0001496611D01*
X0004364084Y0001498111D01*
X0004361084Y0001498111D01*
X0004355085Y0001498111D02*
X0004343086Y0001498111D01*
X0004350586Y0001508610D02*
X0004350586Y0001481613D01*
X0004349086Y0001478613D01*
X0004346086Y0001477114D01*
X0004343086Y0001477114D01*
X0004308591Y0001489112D02*
X0004284594Y0001489112D01*
X0004232100Y0001477114D02*
X0004232100Y0001508610D01*
X0004232100Y0001478613D02*
X0004235100Y0001477114D01*
X0004241099Y0001477114D01*
X0004244099Y0001478613D01*
X0004245599Y0001480113D01*
X0004247098Y0001483113D01*
X0004247098Y0001492112D01*
X0004245599Y0001495111D01*
X0004244099Y0001496611D01*
X0004241099Y0001498111D01*
X0004235100Y0001498111D01*
X0004232100Y0001496611D01*
X0004205104Y0001478613D02*
X0004208103Y0001477114D01*
X0004214103Y0001477114D01*
X0004217102Y0001478613D01*
X0004218602Y0001481613D01*
X0004218602Y0001493611D01*
X0004217102Y0001496611D01*
X0004214103Y0001498111D01*
X0004208103Y0001498111D01*
X0004205104Y0001496611D01*
X0004203604Y0001493611D01*
X0004203604Y0001490612D01*
X0004218602Y0001487612D01*
X0004193105Y0001498111D02*
X0004185606Y0001477114D01*
X0004178107Y0001498111D01*
X0004146611Y0001492112D02*
X0004148111Y0001493611D01*
X0004151110Y0001495111D01*
X0004154110Y0001495111D01*
X0004157110Y0001493611D01*
X0004158610Y0001492112D01*
X0004160109Y0001489112D01*
X0004160109Y0001486112D01*
X0004158610Y0001483113D01*
X0004157110Y0001481613D01*
X0004154110Y0001480113D01*
X0004151110Y0001480113D01*
X0004148111Y0001481613D01*
X0004146611Y0001483113D01*
X0004146611Y0001495111D02*
X0004146611Y0001483113D01*
X0004145111Y0001481613D01*
X0004143611Y0001481613D01*
X0004140612Y0001483113D01*
X0004139112Y0001486112D01*
X0004139112Y0001493611D01*
X0004142112Y0001498111D01*
X0004146611Y0001501111D01*
X0004152610Y0001502610D01*
X0004158610Y0001501111D01*
X0004163109Y0001498111D01*
X0004166109Y0001493611D01*
X0004167608Y0001487612D01*
X0004166109Y0001481613D01*
X0004163109Y0001477114D01*
X0004158610Y0001474114D01*
X0004152610Y0001472614D01*
X0004146611Y0001474114D01*
X0004142112Y0001477114D01*
X0004113615Y0001478613D02*
X0004116615Y0001477114D01*
X0004122614Y0001477114D01*
X0004125614Y0001478613D01*
X0004127113Y0001481613D01*
X0004127113Y0001493611D01*
X0004125614Y0001496611D01*
X0004122614Y0001498111D01*
X0004116615Y0001498111D01*
X0004113615Y0001496611D01*
X0004112115Y0001493611D01*
X0004112115Y0001490612D01*
X0004127113Y0001487612D01*
X0004100117Y0001478613D02*
X0004097117Y0001477114D01*
X0004091118Y0001477114D01*
X0004088118Y0001478613D01*
X0004086619Y0001481613D01*
X0004086619Y0001483113D01*
X0004088118Y0001486112D01*
X0004091118Y0001487612D01*
X0004095617Y0001487612D01*
X0004098617Y0001489112D01*
X0004100117Y0001492112D01*
X0004100117Y0001493611D01*
X0004098617Y0001496611D01*
X0004095617Y0001498111D01*
X0004091118Y0001498111D01*
X0004088118Y0001496611D01*
X0004068621Y0001477114D02*
X0004071620Y0001478613D01*
X0004073120Y0001480113D01*
X0004074620Y0001483113D01*
X0004074620Y0001492112D01*
X0004073120Y0001495111D01*
X0004071620Y0001496611D01*
X0004068621Y0001498111D01*
X0004064121Y0001498111D01*
X0004061122Y0001496611D01*
X0004059622Y0001495111D01*
X0004058122Y0001492112D01*
X0004058122Y0001483113D01*
X0004059622Y0001480113D01*
X0004061122Y0001478613D01*
X0004064121Y0001477114D01*
X0004068621Y0001477114D01*
X0004040124Y0001477114D02*
X0004043124Y0001478613D01*
X0004044624Y0001481613D01*
X0004044624Y0001508610D01*
X0004023626Y0001477114D02*
X0004026626Y0001478613D01*
X0004028126Y0001480113D01*
X0004029626Y0001483113D01*
X0004029626Y0001492112D01*
X0004028126Y0001495111D01*
X0004026626Y0001496611D01*
X0004023626Y0001498111D01*
X0004019127Y0001498111D01*
X0004016127Y0001496611D01*
X0004014628Y0001495111D01*
X0004013128Y0001492112D01*
X0004013128Y0001483113D01*
X0004014628Y0001480113D01*
X0004016127Y0001478613D01*
X0004019127Y0001477114D01*
X0004023626Y0001477114D01*
X0003986131Y0001498111D02*
X0003986131Y0001472614D01*
X0003987631Y0001469614D01*
X0003989131Y0001468115D01*
X0003992130Y0001466615D01*
X0003996630Y0001466615D01*
X0003999629Y0001468115D01*
X0003986131Y0001478613D02*
X0003989131Y0001477114D01*
X0003995130Y0001477114D01*
X0003998130Y0001478613D01*
X0003999629Y0001480113D01*
X0004001129Y0001483113D01*
X0004001129Y0001492112D01*
X0003999629Y0001495111D01*
X0003998130Y0001496611D01*
X0003995130Y0001498111D01*
X0003989131Y0001498111D01*
X0003986131Y0001496611D01*
X0003971133Y0001477114D02*
X0003971133Y0001498111D01*
X0003971133Y0001508610D02*
X0003972633Y0001507110D01*
X0003971133Y0001505610D01*
X0003969633Y0001507110D01*
X0003971133Y0001508610D01*
X0003971133Y0001505610D01*
X0003942637Y0001478613D02*
X0003945636Y0001477114D01*
X0003951635Y0001477114D01*
X0003954635Y0001478613D01*
X0003956135Y0001480113D01*
X0003957635Y0001483113D01*
X0003957635Y0001492112D01*
X0003956135Y0001495111D01*
X0003954635Y0001496611D01*
X0003951635Y0001498111D01*
X0003945636Y0001498111D01*
X0003942637Y0001496611D01*
X0003929138Y0001480113D02*
X0003927638Y0001478613D01*
X0003929138Y0001477114D01*
X0003930638Y0001478613D01*
X0003929138Y0001480113D01*
X0003929138Y0001477114D01*
X0003900642Y0001478613D02*
X0003903641Y0001477114D01*
X0003909641Y0001477114D01*
X0003912640Y0001478613D01*
X0003914140Y0001480113D01*
X0003915640Y0001483113D01*
X0003915640Y0001492112D01*
X0003914140Y0001495111D01*
X0003912640Y0001496611D01*
X0003909641Y0001498111D01*
X0003903641Y0001498111D01*
X0003900642Y0001496611D01*
X0003882644Y0001477114D02*
X0003885644Y0001478613D01*
X0003887143Y0001480113D01*
X0003888643Y0001483113D01*
X0003888643Y0001492112D01*
X0003887143Y0001495111D01*
X0003885644Y0001496611D01*
X0003882644Y0001498111D01*
X0003878145Y0001498111D01*
X0003875145Y0001496611D01*
X0003873645Y0001495111D01*
X0003872145Y0001492112D01*
X0003872145Y0001483113D01*
X0003873645Y0001480113D01*
X0003875145Y0001478613D01*
X0003878145Y0001477114D01*
X0003882644Y0001477114D01*
X0003858647Y0001477114D02*
X0003858647Y0001498111D01*
X0003858647Y0001495111D02*
X0003857147Y0001496611D01*
X0003854148Y0001498111D01*
X0003849648Y0001498111D01*
X0003846649Y0001496611D01*
X0003845149Y0001493611D01*
X0003845149Y0001477114D01*
X0003845149Y0001493611D02*
X0003843649Y0001496611D01*
X0003840649Y0001498111D01*
X0003836150Y0001498111D01*
X0003833150Y0001496611D01*
X0003831650Y0001493611D01*
X0003831650Y0001477114D01*
D29*
X0003970889Y0002129283D02*
X0003970889Y0002076921D01*
X0004023251Y0002129283D02*
X0003970889Y0002129283D01*
X0004073251Y0002129283D02*
X0004073251Y0002024559D01*
X0004073251Y0002024559D02*
X0004375614Y0002024559D01*
X0004073251Y0002129283D02*
X0004375614Y0002129283D01*
X0004375614Y0002129283D02*
X0004375614Y0002024559D01*
D30*
X0003909959Y0002090044D02*
X0003938081Y0002090044D01*
X0003943705Y0002091919D01*
X0003947455Y0002095668D01*
X0003949329Y0002101293D01*
X0003949329Y0002105042D01*
X0003949329Y0002050674D02*
X0003949329Y0002073171D01*
X0003949329Y0002061923D02*
X0003909959Y0002061923D01*
X0003915584Y0002065672D01*
X0003919333Y0002069422D01*
X0003921208Y0002073171D01*
M02*