%
M48
METRIC,000.000
T01C0.50
%
T01
X092528Y044882
X092528Y045882
X092528Y046882
X092528Y047882
X092528Y048882
X092528Y049882
X092528Y050882
X095750Y051057
X095750Y050057
X095750Y049057
X095750Y048057
X095750Y047057
X095750Y046057
X095750Y045057
X107704Y027500
X106704Y027500
X105704Y027500
X104704Y027500
X103704Y027500
X103590Y030500
X104590Y030500
X105590Y030500
X106590Y030500
X107590Y030500
X108590Y030500
X095750Y023057
X095750Y022057
X095750Y021057
X095750Y020057
X095750Y019057
X095750Y018057
X095750Y017057
X092528Y016882
X092528Y017882
X092528Y018882
X092528Y019882
X092528Y020882
X092528Y021882
X092528Y022882
X092528Y033882
X092528Y034882
X092528Y035882
X092528Y036882
X092528Y037882
X092528Y038882
X092528Y039882
X095750Y040057
X095750Y039057
X095750Y038057
X095750Y037057
X095750Y036057
X095750Y035057
X095750Y034057
X095750Y013057
X095750Y012057
X095750Y011057
X095750Y010057
X095750Y009057
X095750Y008057
X095750Y007057
X092528Y006882
X092528Y007882
X092528Y008882
X092528Y009882
X092528Y010882
X092528Y011882
X092528Y012882
M30