%MOIN*%
%OFA0B0*%
%FSLAX36Y36*%
%IPPOS*%
%LPD*%
%ADD10C,0*%
D10*
X003632999Y001598836D02*
X003632999Y001598836D01*
X003632999Y001747619D01*
X003633108Y001750542D01*
X003633433Y001753448D01*
X003633973Y001756322D01*
X003634725Y001759149D01*
X003635685Y001761911D01*
X003636847Y001764595D01*
X003638205Y001767185D01*
X003639752Y001769667D01*
X003641479Y001772027D01*
X003643376Y001774253D01*
X003645433Y001776332D01*
X003647638Y001778252D01*
X003649981Y001780004D01*
X003652446Y001781576D01*
X003655022Y001782961D01*
X003657693Y001784152D01*
X003660446Y001785140D01*
X003663264Y001785922D01*
X003666132Y001786492D01*
X003669035Y001786848D01*
X003736823Y001792610D01*
X003740078Y001792751D01*
X003743333Y001792623D01*
X003746567Y001792226D01*
X003749757Y001791563D01*
X003752881Y001790639D01*
X003755918Y001789459D01*
X003758847Y001788032D01*
X003761648Y001786368D01*
X003764302Y001784478D01*
X003766791Y001782375D01*
X003769097Y001780074D01*
X003771205Y001777589D01*
X003773100Y001774939D01*
X003774770Y001772141D01*
X003776203Y001769215D01*
X003777388Y001766181D01*
X003778319Y001763058D01*
X003778989Y001759870D01*
X003779392Y001756637D01*
X003779527Y001753381D01*
X003779527Y001593074D01*
X003779392Y001589819D01*
X003778989Y001586586D01*
X003778319Y001583397D01*
X003777388Y001580275D01*
X003776203Y001577240D01*
X003774770Y001574314D01*
X003773100Y001571516D01*
X003771205Y001568866D01*
X003769097Y001566382D01*
X003766791Y001564081D01*
X003764302Y001561978D01*
X003761648Y001560088D01*
X003758847Y001558424D01*
X003755918Y001556997D01*
X003752881Y001555817D01*
X003749757Y001554893D01*
X003746567Y001554230D01*
X003743333Y001553833D01*
X003740078Y001553704D01*
X003736823Y001553846D01*
X003669035Y001559608D01*
X003666132Y001559964D01*
X003663264Y001560534D01*
X003660446Y001561315D01*
X003657693Y001562304D01*
X003655022Y001563494D01*
X003652446Y001564879D01*
X003649981Y001566452D01*
X003647638Y001568203D01*
X003645433Y001570124D01*
X003643376Y001572203D01*
X003641479Y001574428D01*
X003639752Y001576789D01*
X003638205Y001579271D01*
X003636847Y001581861D01*
X003635685Y001584545D01*
X003634725Y001587307D01*
X003633973Y001590133D01*
X003633433Y001593008D01*
X003633108Y001595914D01*
X003632999Y001598836D01*
X003897637Y001072834D02*
X003897637Y001072834D01*
X003884413Y001072092D01*
X003871355Y001069873D01*
X003858628Y001066206D01*
X003846391Y001061138D01*
X003834799Y001054731D01*
X003823997Y001047066D01*
X003814120Y001038241D01*
X003805295Y001028364D01*
X003797630Y001017562D01*
X003791223Y001005970D01*
X003786155Y000993733D01*
X003782488Y000981006D01*
X003780270Y000967948D01*
X003779527Y000954724D01*
X003779527Y000923783D01*
X003779392Y000920528D01*
X003778989Y000917295D01*
X003778319Y000914106D01*
X003777388Y000910984D01*
X003776203Y000907949D01*
X003774770Y000905023D01*
X003773100Y000902225D01*
X003771205Y000899575D01*
X003769097Y000897091D01*
X003766791Y000894789D01*
X003764302Y000892686D01*
X003761648Y000890796D01*
X003758847Y000889132D01*
X003755918Y000887705D01*
X003752881Y000886526D01*
X003749757Y000885601D01*
X003746567Y000884938D01*
X003743333Y000884541D01*
X003740078Y000884413D01*
X003736823Y000884554D01*
X003669035Y000890316D01*
X003666132Y000890672D01*
X003663264Y000891242D01*
X003660446Y000892024D01*
X003657693Y000893013D01*
X003655022Y000894203D01*
X003652446Y000895588D01*
X003649981Y000897161D01*
X003647638Y000898912D01*
X003645433Y000900832D01*
X003643376Y000902911D01*
X003641479Y000905137D01*
X003639752Y000907497D01*
X003638205Y000909979D01*
X003636847Y000912569D01*
X003635685Y000915253D01*
X003634725Y000918016D01*
X003633973Y000920842D01*
X003633433Y000923716D01*
X003633108Y000926623D01*
X003632999Y000929545D01*
X003632999Y001314548D01*
X003633112Y001317528D01*
X003633450Y001320490D01*
X003634012Y001323418D01*
X003634793Y001326295D01*
X003635789Y001329105D01*
X003636996Y001331832D01*
X003638405Y001334459D01*
X003640009Y001336972D01*
X003641799Y001339357D01*
X003643764Y001341599D01*
X003645893Y001343686D01*
X003648174Y001345606D01*
X003650593Y001347348D01*
X003653138Y001348902D01*
X003655793Y001350259D01*
X003658543Y001351411D01*
X003661372Y001352351D01*
X003664264Y001353075D01*
X003667203Y001353578D01*
X003670171Y001353857D01*
X003738479Y001357678D01*
X003741569Y001357729D01*
X003744654Y001357538D01*
X003747715Y001357105D01*
X003750732Y001356434D01*
X003753687Y001355528D01*
X003756562Y001354392D01*
X003759339Y001353035D01*
X003762001Y001351465D01*
X003764531Y001349690D01*
X003766915Y001347722D01*
X003769137Y001345573D01*
X003771183Y001343257D01*
X003773041Y001340787D01*
X003774700Y001338179D01*
X003776150Y001335449D01*
X003777380Y001332613D01*
X003778384Y001329690D01*
X003779156Y001326697D01*
X003779691Y001323653D01*
X003779985Y001320576D01*
X003780270Y001315516D01*
X003782488Y001302458D01*
X003786155Y001289731D01*
X003791223Y001277494D01*
X003797630Y001265901D01*
X003805295Y001255099D01*
X003814120Y001245223D01*
X003823997Y001236398D01*
X003834799Y001228733D01*
X003846391Y001222326D01*
X003858628Y001217258D01*
X003871355Y001213591D01*
X003884413Y001211372D01*
X003897637Y001210629D01*
X004077295Y001210629D01*
X004080384Y001210508D01*
X004083454Y001210145D01*
X004086486Y001209542D01*
X004089461Y001208703D01*
X004092361Y001207633D01*
X004095168Y001206338D01*
X004097866Y001204828D01*
X004100436Y001203110D01*
X004102864Y001201197D01*
X004105134Y001199098D01*
X004107232Y001196828D01*
X004109146Y001194400D01*
X004110863Y001191830D01*
X004112374Y001189133D01*
X004113668Y001186326D01*
X004114738Y001183425D01*
X004115577Y001180450D01*
X004116180Y001177418D01*
X004116544Y001174348D01*
X004116665Y001171259D01*
X004116665Y001112204D01*
X004116544Y001109115D01*
X004116180Y001106045D01*
X004115577Y001103013D01*
X004114738Y001100038D01*
X004113668Y001097138D01*
X004112374Y001094331D01*
X004110863Y001091633D01*
X004109146Y001089063D01*
X004107232Y001086635D01*
X004105134Y001084365D01*
X004102864Y001082267D01*
X004100436Y001080353D01*
X004097866Y001078636D01*
X004095168Y001077125D01*
X004092361Y001075831D01*
X004089461Y001074761D01*
X004086486Y001073922D01*
X004083454Y001073319D01*
X004080384Y001072956D01*
X004077295Y001072834D01*
X003897637Y001072834D01*
X003632999Y000251556D02*
X003632999Y000251556D01*
X003633108Y000254479D01*
X003633433Y000257385D01*
X003633973Y000260259D01*
X003634725Y000263086D01*
X003635685Y000265848D01*
X003636847Y000268532D01*
X003638205Y000271122D01*
X003639752Y000273604D01*
X003641479Y000275964D01*
X003643376Y000278190D01*
X003645433Y000280269D01*
X003647638Y000282189D01*
X003649981Y000283941D01*
X003652446Y000285513D01*
X003655022Y000286898D01*
X003657693Y000288089D01*
X003660446Y000289077D01*
X003663264Y000289859D01*
X003666132Y000290429D01*
X003669035Y000290785D01*
X003736823Y000296547D01*
X003740078Y000296688D01*
X003743333Y000296560D01*
X003746567Y000296163D01*
X003749757Y000295500D01*
X003752881Y000294576D01*
X003755918Y000293396D01*
X003758847Y000291969D01*
X003761648Y000290305D01*
X003764302Y000288415D01*
X003766791Y000286312D01*
X003769097Y000284011D01*
X003771205Y000281526D01*
X003773100Y000278876D01*
X003774770Y000276078D01*
X003776203Y000273152D01*
X003777388Y000270118D01*
X003778319Y000266995D01*
X003778989Y000263807D01*
X003779392Y000260574D01*
X003779527Y000257318D01*
X003779527Y000226377D01*
X003780270Y000213153D01*
X003782488Y000200096D01*
X003786155Y000187368D01*
X003791223Y000175131D01*
X003797630Y000163539D01*
X003805295Y000152737D01*
X003814120Y000142861D01*
X003823997Y000134035D01*
X003834799Y000126371D01*
X003846391Y000119964D01*
X003858628Y000114895D01*
X003871355Y000111229D01*
X003884413Y000109010D01*
X003897637Y000108267D01*
X004448818Y000108267D01*
X004462042Y000109010D01*
X004475100Y000111229D01*
X004487827Y000114895D01*
X004500065Y000119964D01*
X004511657Y000126371D01*
X004522459Y000134035D01*
X004532335Y000142861D01*
X004541161Y000152737D01*
X004548825Y000163539D01*
X004555232Y000175131D01*
X004560300Y000187368D01*
X004563967Y000200096D01*
X004566186Y000213153D01*
X004566929Y000226377D01*
X004566929Y000954724D01*
X004566186Y000967948D01*
X004563967Y000981006D01*
X004560300Y000993733D01*
X004555232Y001005970D01*
X004548825Y001017562D01*
X004541161Y001028364D01*
X004532335Y001038241D01*
X004522459Y001047066D01*
X004511657Y001054731D01*
X004500065Y001061138D01*
X004487827Y001066206D01*
X004475100Y001069873D01*
X004462042Y001072092D01*
X004448818Y001072834D01*
X004269161Y001072834D01*
X004266072Y001072956D01*
X004263002Y001073319D01*
X004259970Y001073922D01*
X004256995Y001074761D01*
X004254095Y001075831D01*
X004251287Y001077125D01*
X004248590Y001078636D01*
X004246020Y001080353D01*
X004243592Y001082267D01*
X004241322Y001084365D01*
X004239224Y001086635D01*
X004237310Y001089063D01*
X004235592Y001091633D01*
X004234082Y001094331D01*
X004232788Y001097138D01*
X004231718Y001100038D01*
X004230879Y001103013D01*
X004230275Y001106045D01*
X004229912Y001109115D01*
X004229791Y001112204D01*
X004229791Y001171259D01*
X004229912Y001174348D01*
X004230275Y001177418D01*
X004230879Y001180450D01*
X004231718Y001183425D01*
X004232788Y001186326D01*
X004234082Y001189133D01*
X004235592Y001191830D01*
X004237310Y001194400D01*
X004239224Y001196828D01*
X004241322Y001199098D01*
X004243592Y001201197D01*
X004246020Y001203110D01*
X004248590Y001204828D01*
X004251287Y001206338D01*
X004254095Y001207633D01*
X004256995Y001208703D01*
X004259970Y001209542D01*
X004263002Y001210145D01*
X004266072Y001210508D01*
X004269161Y001210629D01*
X004448818Y001210629D01*
X004462042Y001211372D01*
X004475100Y001213591D01*
X004487827Y001217258D01*
X004500065Y001222326D01*
X004511657Y001228733D01*
X004522459Y001236398D01*
X004532335Y001245223D01*
X004541161Y001255099D01*
X004548825Y001265901D01*
X004555232Y001277494D01*
X004560300Y001289731D01*
X004563967Y001302458D01*
X004566186Y001315516D01*
X004566929Y001328740D01*
X004566929Y002057086D01*
X004566186Y002070310D01*
X004563967Y002083368D01*
X004560300Y002096095D01*
X004555232Y002108333D01*
X004548825Y002119925D01*
X004541161Y002130727D01*
X004532335Y002140603D01*
X004522459Y002149429D01*
X004511657Y002157093D01*
X004500065Y002163500D01*
X004487827Y002168568D01*
X004475100Y002172235D01*
X004462042Y002174454D01*
X004448818Y002175196D01*
X003897637Y002175196D01*
X003884413Y002174454D01*
X003871355Y002172235D01*
X003858628Y002168568D01*
X003846391Y002163500D01*
X003834799Y002157093D01*
X003823997Y002149429D01*
X003814120Y002140603D01*
X003805295Y002130727D01*
X003797630Y002119925D01*
X003791223Y002108333D01*
X003786155Y002096095D01*
X003782488Y002083368D01*
X003780270Y002070310D01*
X003779527Y002057086D01*
X003779527Y002026145D01*
X003779392Y002022890D01*
X003778989Y002019657D01*
X003778319Y002016468D01*
X003777388Y002013346D01*
X003776203Y002010311D01*
X003774770Y002007385D01*
X003773100Y002004587D01*
X003771205Y002001937D01*
X003769097Y001999453D01*
X003766791Y001997151D01*
X003764302Y001995048D01*
X003761648Y001993159D01*
X003758847Y001991494D01*
X003755918Y001990068D01*
X003752881Y001988888D01*
X003749757Y001987964D01*
X003746567Y001987300D01*
X003743333Y001986903D01*
X003740078Y001986775D01*
X003736823Y001986917D01*
X003669035Y001992679D01*
X003666132Y001993034D01*
X003663264Y001993605D01*
X003660446Y001994386D01*
X003657693Y001995375D01*
X003655022Y001996565D01*
X003652446Y001997950D01*
X003649981Y001999523D01*
X003647638Y002001274D01*
X003645433Y002003195D01*
X003643376Y002005273D01*
X003641479Y002007499D01*
X003639752Y002009860D01*
X003638205Y002012342D01*
X003636847Y002014932D01*
X003635685Y002017615D01*
X003634725Y002020378D01*
X003633973Y002023204D01*
X003633433Y002026078D01*
X003633108Y002028985D01*
X003632999Y002031907D01*
X003632999Y002167319D01*
X000245999Y002167319D01*
X000245999Y001272319D01*
X000000000Y001272319D01*
X000000000Y000878319D01*
X000245999Y000878319D01*
X000245999Y000067319D01*
X000661645Y000067319D01*
X000669448Y000057619D01*
X000677949Y000048525D01*
X000687103Y000040088D01*
X000696859Y000032354D01*
X000707162Y000025366D01*
X000717955Y000019162D01*
X000729179Y000013778D01*
X000740773Y000009242D01*
X000752671Y000005581D01*
X000764808Y000002813D01*
X000777118Y000000954D01*
X000789532Y000000015D01*
X000801980Y000000000D01*
X000814396Y000000910D01*
X000826710Y000002740D01*
X000838854Y000005480D01*
X000850761Y000009114D01*
X000862365Y000013622D01*
X000873602Y000018980D01*
X000884410Y000025158D01*
X000894729Y000032122D01*
X000904502Y000039833D01*
X000913676Y000048249D01*
X000922199Y000057323D01*
X000930024Y000067005D01*
X000961000Y000067005D01*
X002845000Y000067319D01*
X003632999Y000067319D01*
X003632999Y000251556D01*
X003632999Y000645257D02*
X003632999Y000645257D01*
X003633108Y000648180D01*
X003633433Y000651086D01*
X003633973Y000653960D01*
X003634725Y000656786D01*
X003635685Y000659549D01*
X003636847Y000662233D01*
X003638205Y000664823D01*
X003639752Y000667305D01*
X003641479Y000669665D01*
X003643376Y000671891D01*
X003645433Y000673970D01*
X003647638Y000675890D01*
X003649981Y000677641D01*
X003652446Y000679214D01*
X003655022Y000680599D01*
X003657693Y000681789D01*
X003660446Y000682778D01*
X003663264Y000683560D01*
X003666132Y000684130D01*
X003669035Y000684486D01*
X003736823Y000690248D01*
X003740078Y000690389D01*
X003743333Y000690261D01*
X003746567Y000689864D01*
X003749757Y000689201D01*
X003752881Y000688276D01*
X003755918Y000687097D01*
X003758847Y000685670D01*
X003761648Y000684006D01*
X003764302Y000682116D01*
X003766791Y000680013D01*
X003769097Y000677711D01*
X003771205Y000675227D01*
X003773100Y000672577D01*
X003774770Y000669779D01*
X003776203Y000666853D01*
X003777388Y000663818D01*
X003778319Y000660696D01*
X003778989Y000657507D01*
X003779392Y000654274D01*
X003779527Y000651019D01*
X003779527Y000530082D01*
X003779392Y000526827D01*
X003778989Y000523594D01*
X003778319Y000520405D01*
X003777388Y000517283D01*
X003776203Y000514248D01*
X003774770Y000511322D01*
X003773100Y000508524D01*
X003771205Y000505874D01*
X003769097Y000503390D01*
X003766791Y000501088D01*
X003764302Y000498985D01*
X003761648Y000497096D01*
X003758847Y000495431D01*
X003755918Y000494005D01*
X003752881Y000492825D01*
X003749757Y000491901D01*
X003746567Y000491237D01*
X003743333Y000490840D01*
X003740078Y000490712D01*
X003736823Y000490854D01*
X003669035Y000496616D01*
X003666132Y000496971D01*
X003663264Y000497542D01*
X003660446Y000498323D01*
X003657693Y000499312D01*
X003655022Y000500502D01*
X003652446Y000501887D01*
X003649981Y000503460D01*
X003647638Y000505211D01*
X003645433Y000507132D01*
X003643376Y000509210D01*
X003641479Y000511436D01*
X003639752Y000513797D01*
X003638205Y000516279D01*
X003636847Y000518869D01*
X003635685Y000521552D01*
X003634725Y000524315D01*
X003633973Y000527141D01*
X003633433Y000530015D01*
X003633108Y000532922D01*
X003632999Y000535844D01*
X003632999Y000645257D01*
M02*