%MOIN*%
%OFA0B0*%
%FSLAX46Y46*%
%IPPOS*%
%LPD*%
%ADD10C,0.17322834645669294*%
%ADD11C,0.027559055118110236*%
%ADD12O,0.066929133858267723X0.076771653543307089*%
%ADD13R,0.066929133858267723X0.066929133858267723*%
%ADD14O,0.066929133858267723X0.066929133858267723*%
%ADD25O,0.068X0.068*%
%ADD26C,0.12598425196850396*%
%ADD27R,0.060000000000000005X0.060000000000000005*%
%ADD28C,0.060000000000000005*%
%ADD29C,0.031496062992125991*%
%ADD30C,0.25196850393700793*%
%ADD31C,0.10236220472440946*%
%ADD32R,0.10236220472440946X0.10236220472440946*%
%ADD33O,0.068897637795275593X0.047244094488188976*%
%ADD34C,0.070866141732283464*%
%ADD35C,0.15748031496062992*%
%ADD36C,0.1456692913385827*%
%ADD37R,0.1456692913385827X0.1456692913385827*%
%ADD38C,0.17322834645669294*%
%ADD39C,0.027559055118110236*%
%ADD40O,0.066929133858267723X0.076771653543307089*%
%ADD41R,0.066929133858267723X0.066929133858267723*%
%ADD42O,0.066929133858267723X0.066929133858267723*%
G01*
D10*
X0000236220Y0004527559D02*
X0003937007Y0000738188D03*
D11*
X0004001968Y0000738188D03*
X0003982941Y0000692254D03*
X0003937007Y0000673228D03*
X0003891073Y0000692254D03*
X0003872047Y0000738188D03*
X0003891073Y0000784123D03*
X0003937007Y0000803149D03*
X0003982941Y0000784123D03*
X0004455382Y0000784123D03*
X0004409448Y0000803149D03*
X0004363514Y0000784123D03*
X0004344488Y0000738188D03*
X0004363514Y0000692254D03*
X0004409448Y0000673228D03*
X0004455382Y0000692254D03*
X0004474409Y0000738188D03*
D10*
X0004409448Y0000738188D03*
X0003937007Y0000265748D03*
D11*
X0004001968Y0000265748D03*
X0003982941Y0000219813D03*
X0003937007Y0000200787D03*
X0003891073Y0000219813D03*
X0003872047Y0000265748D03*
X0003891073Y0000311682D03*
X0003937007Y0000330708D03*
X0003982941Y0000311682D03*
X0004455382Y0000311682D03*
X0004409448Y0000330708D03*
X0004363514Y0000311682D03*
X0004344488Y0000265748D03*
X0004363514Y0000219813D03*
X0004409448Y0000200787D03*
X0004455382Y0000219813D03*
X0004474409Y0000265748D03*
D10*
X0004409448Y0000265748D03*
G36*
G01*
X0003991755Y0000494015D02*
X0003991755Y0000551102D01*
G75*
G02*
X0004001598Y0000560944I0000009842D01*
G01*
X0004048842Y0000560944D01*
G75*
G02*
X0004058685Y0000551102J-0000009842D01*
G01*
X0004058685Y0000494015D01*
G75*
G02*
X0004048842Y0000484173I-0000009842D01*
G01*
X0004001598Y0000484173D01*
G75*
G02*
X0003991755Y0000494015J0000009842D01*
G01*
G37*
D12*
X0004123645Y0000522559D03*
X0004222070Y0000522559D03*
X0004320496Y0000522559D03*
D13*
X0004023251Y0000974559D03*
D14*
X0004123251Y0000974559D03*
X0004223251Y0000974559D03*
X0004323251Y0000974559D03*
G04 next file*
G04 #@! TF.GenerationSoftware,KiCad,Pcbnew,5.1.9-73d0e3b20d~88~ubuntu18.04.1*
G04 #@! TF.CreationDate,2021-02-13T22:05:11-05:00*
G04 #@! TF.ProjectId,driver,64726976-6572-42e6-9b69-6361645f7063,v1.0.0*
G04 #@! TF.SameCoordinates,Original*
G04 #@! TF.FileFunction,Soldermask,Bot*
G04 #@! TF.FilePolarity,Negative*
G04 Gerber Fmt 4.6, Leading zero omitted, Abs format (unit mm)*
G04 Created by KiCad (PCBNEW 5.1.9-73d0e3b20d~88~ubuntu18.04.1) date 2021-02-13 22:05:11*
G01*
G04 APERTURE LIST*
G04 APERTURE END LIST*
D25*
X-0004007000Y0005095319D02*
X0002745952Y0000167366D03*
X0002645952Y0000167366D03*
X0002545952Y0000167366D03*
X0002445952Y0000167366D03*
X0002345952Y0000167366D03*
X0001345952Y0000167366D03*
X0001585952Y0002067366D03*
X0001485952Y0002067366D03*
X0001385952Y0002067366D03*
X0001185952Y0002067366D03*
X0001085952Y0002067366D03*
X0000985952Y0002067366D03*
D26*
X0000795952Y0000167366D03*
X0002845952Y0001467366D03*
X0002845952Y0000367366D03*
D25*
X0001685952Y0002067366D03*
X0001785952Y0002067366D03*
X0001885952Y0002067366D03*
X0001285952Y0002067366D03*
X0002045952Y0002067366D03*
X0002145952Y0002067366D03*
X0002245952Y0002067366D03*
X0002345952Y0002067366D03*
X0002445952Y0002067366D03*
X0002545952Y0002067366D03*
X0002645952Y0002067366D03*
X0002745952Y0002067366D03*
X0001445952Y0000167366D03*
X0001545952Y0000167366D03*
X0001645952Y0000167366D03*
X0001745952Y0000167366D03*
X0001845952Y0000167366D03*
X0001945952Y0000167366D03*
X0002045952Y0000167366D03*
X0002245952Y0000167366D03*
D27*
X0001932999Y0000915319D03*
D28*
X0002032999Y0000915319D03*
X0002132999Y0000915319D03*
X0002232999Y0000915319D03*
X0002332999Y0000915319D03*
X0002432999Y0000915319D03*
X0002532999Y0000915319D03*
X0002632999Y0000915319D03*
X0002632999Y0000415319D03*
X0002532999Y0000415319D03*
X0002432999Y0000415319D03*
X0002332999Y0000415319D03*
X0002232999Y0000415319D03*
X0002132999Y0000415319D03*
X0002032999Y0000415319D03*
X0001932999Y0000415319D03*
X0001922999Y0001435319D03*
X0002022999Y0001435319D03*
X0002122999Y0001435319D03*
X0002222999Y0001435319D03*
X0002322999Y0001435319D03*
X0002422999Y0001435319D03*
X0002522999Y0001435319D03*
X0002622999Y0001435319D03*
X0002622999Y0001935319D03*
X0002522999Y0001935319D03*
X0002422999Y0001935319D03*
X0002322999Y0001935319D03*
X0002222999Y0001935319D03*
X0002122999Y0001935319D03*
X0002022999Y0001935319D03*
D27*
X0001922999Y0001935319D03*
D25*
X0002245952Y0000167366D03*
X0002045952Y0000167366D03*
X0001945952Y0000167366D03*
X0001845952Y0000167366D03*
X0001745952Y0000167366D03*
X0001645952Y0000167366D03*
X0001545952Y0000167366D03*
X0001445952Y0000167366D03*
X0002745952Y0002067366D03*
X0002645952Y0002067366D03*
X0002545952Y0002067366D03*
X0002445952Y0002067366D03*
X0002345952Y0002067366D03*
X0002245952Y0002067366D03*
X0002145952Y0002067366D03*
X0002045952Y0002067366D03*
X0001285952Y0002067366D03*
X0001885952Y0002067366D03*
X0001785952Y0002067366D03*
X0001685952Y0002067366D03*
D26*
X0002845952Y0000367366D03*
X0002845952Y0001467366D03*
X0000795952Y0000167366D03*
D25*
X0000985952Y0002067366D03*
X0001085952Y0002067366D03*
X0001185952Y0002067366D03*
X0001385952Y0002067366D03*
X0001485952Y0002067366D03*
X0001585952Y0002067366D03*
X0001345952Y0000167366D03*
X0002345952Y0000167366D03*
X0002445952Y0000167366D03*
X0002545952Y0000167366D03*
X0002645952Y0000167366D03*
X0002745952Y0000167366D03*
D29*
X0002912765Y0001534179D03*
X0002845952Y0001561854D03*
X0002779139Y0001534179D03*
X0002751464Y0001467366D03*
X0002779139Y0001400553D03*
X0002845952Y0001372878D03*
X0002912765Y0001400553D03*
X0002940440Y0001467366D03*
D30*
X0002845952Y0001467366D03*
X0000795952Y0000167366D03*
D29*
X0000890440Y0000167366D03*
X0000862765Y0000100553D03*
X0000795952Y0000072878D03*
X0000729139Y0000100553D03*
X0000701464Y0000167366D03*
X0000729139Y0000234179D03*
X0000795952Y0000261854D03*
X0000862765Y0000234179D03*
X0002912765Y0000434179D03*
X0002845952Y0000461854D03*
X0002779139Y0000434179D03*
X0002751464Y0000367366D03*
X0002779139Y0000300553D03*
X0002845952Y0000272878D03*
X0002912765Y0000300553D03*
X0002940440Y0000367366D03*
D30*
X0002845952Y0000367366D03*
D31*
X0003262999Y0001975319D03*
X0003262999Y0001775319D03*
X0003262999Y0001575319D03*
D32*
X0003262999Y0001375319D03*
X0003262999Y0000270319D03*
D31*
X0003262999Y0000470319D03*
X0003262999Y0000670319D03*
X0003262999Y0000870319D03*
D33*
X0000812999Y0001728839D03*
X0000812999Y0001807579D03*
G36*
G01*
X0000788393Y0001909941D02*
X0000837606Y0001909941D01*
G75*
G02*
X0000847448Y0001900098J-0000009842D01*
G01*
X0000847448Y0001872539D01*
G75*
G02*
X0000837606Y0001862697I-0000009842D01*
G01*
X0000788393Y0001862697D01*
G75*
G02*
X0000778551Y0001872539J0000009842D01*
G01*
X0000778551Y0001900098D01*
G75*
G02*
X0000788393Y0001909941I0000009842D01*
G01*
G37*
G36*
G01*
X0001098393Y0001909941D02*
X0001147606Y0001909941D01*
G75*
G02*
X0001157448Y0001900098J-0000009842D01*
G01*
X0001157448Y0001872539D01*
G75*
G02*
X0001147606Y0001862697I-0000009842D01*
G01*
X0001098393Y0001862697D01*
G75*
G02*
X0001088551Y0001872539J0000009842D01*
G01*
X0001088551Y0001900098D01*
G75*
G02*
X0001098393Y0001909941I0000009842D01*
G01*
G37*
X0001122999Y0001807579D03*
X0001122999Y0001728839D03*
D32*
X0000559220Y0001075319D03*
D31*
X0000322999Y0001075319D03*
X0000441110Y0000890280D03*
D34*
X0001496149Y0000335319D03*
X0001594574Y0000335319D03*
X0001692999Y0000335319D03*
D35*
X0001421346Y0000610909D03*
X0001767803Y0000610909D03*
X0001767803Y0001340909D03*
X0001421346Y0001340909D03*
D34*
X0001692999Y0001065319D03*
X0001594574Y0001065319D03*
X0001496149Y0001065319D03*
D36*
X0001032999Y0000705319D03*
D37*
X0000847960Y0000705319D03*
D36*
X0001218039Y0000705319D03*
X0001218039Y0001055319D03*
D37*
X0000847960Y0001055319D03*
D36*
X0001032999Y0001055319D03*
X0001032999Y0001415319D03*
D37*
X0000847960Y0001415319D03*
D36*
X0001218039Y0001415319D03*
G04 next file*
G04 #@! TF.GenerationSoftware,KiCad,Pcbnew,5.1.9-73d0e3b20d~88~ubuntu18.04.1*
G04 #@! TF.CreationDate,2021-02-13T22:07:47-05:00*
G04 #@! TF.ProjectId,connector,636f6e6e-6563-4746-9f72-2e6b69636164,v1.0.0*
G04 #@! TF.SameCoordinates,Original*
G04 #@! TF.FileFunction,Soldermask,Bot*
G04 #@! TF.FilePolarity,Negative*
G04 Gerber Fmt 4.6, Leading zero omitted, Abs format (unit mm)*
G04 Created by KiCad (PCBNEW 5.1.9-73d0e3b20d~88~ubuntu18.04.1) date 2021-02-13 22:07:47*
G01*
G04 APERTURE LIST*
G04 APERTURE END LIST*
D38*
X0000236220Y0005629921D02*
X0003937007Y0001840551D03*
D39*
X0004001968Y0001840551D03*
X0003982941Y0001794617D03*
X0003937007Y0001775590D03*
X0003891073Y0001794617D03*
X0003872047Y0001840551D03*
X0003891073Y0001886485D03*
X0003937007Y0001905511D03*
X0003982941Y0001886485D03*
X0004455382Y0001886485D03*
X0004409448Y0001905511D03*
X0004363514Y0001886485D03*
X0004344488Y0001840551D03*
X0004363514Y0001794617D03*
X0004409448Y0001775590D03*
X0004455382Y0001794617D03*
X0004474409Y0001840551D03*
D38*
X0004409448Y0001840551D03*
X0003937007Y0001368110D03*
D39*
X0004001968Y0001368110D03*
X0003982941Y0001322176D03*
X0003937007Y0001303149D03*
X0003891073Y0001322176D03*
X0003872047Y0001368110D03*
X0003891073Y0001414044D03*
X0003937007Y0001433070D03*
X0003982941Y0001414044D03*
X0004455382Y0001414044D03*
X0004409448Y0001433070D03*
X0004363514Y0001414044D03*
X0004344488Y0001368110D03*
X0004363514Y0001322176D03*
X0004409448Y0001303149D03*
X0004455382Y0001322176D03*
X0004474409Y0001368110D03*
D38*
X0004409448Y0001368110D03*
G36*
G01*
X0003991755Y0001596377D02*
X0003991755Y0001653464D01*
G75*
G02*
X0004001598Y0001663307I0000009842D01*
G01*
X0004048842Y0001663307D01*
G75*
G02*
X0004058685Y0001653464J-0000009842D01*
G01*
X0004058685Y0001596377D01*
G75*
G02*
X0004048842Y0001586535I-0000009842D01*
G01*
X0004001598Y0001586535D01*
G75*
G02*
X0003991755Y0001596377J0000009842D01*
G01*
G37*
D40*
X0004123645Y0001624921D03*
X0004222070Y0001624921D03*
X0004320496Y0001624921D03*
D41*
X0004023251Y0002076921D03*
D42*
X0004123251Y0002076921D03*
X0004223251Y0002076921D03*
X0004323251Y0002076921D03*
M02*