M48
; DRILL file {KiCad 5.1.9-73d0e3b20d~88~ubuntu18.04.1} date Sat Feb 13 22:57:34 2021
; FORMAT={-:-/ absolute / inch / decimal}
; #@! TF.CreationDate,2021-02-13T22:57:34-05:00
; #@! TF.GenerationSoftware,Kicad,Pcbnew,5.1.9-73d0e3b20d~88~ubuntu18.04.1
; #@! TF.FileFunction,Plated,1,2,PTH
FMAT,2
INCH
T1C0.0157
T2C0.0197
T3C0.0295
T4C0.0394
T5C0.0400
T6C0.0512
T7C0.0630
T8C0.0728
T9C0.1260
%
G90
G05
T1
X4.135Y-4.111
X4.144Y-3.925
X4.315Y-4.986
X4.4111Y-3.3125
X4.5819Y-3.1334
X4.5819Y-3.4802
X4.59Y-3.194
X4.662Y-4.456
X4.821Y-2.981
X5.039Y-4.218
X5.288Y-4.749
X5.59Y-3.447
X6.127Y-4.475
X6.316Y-3.746
X6.839Y-4.152
X6.924Y-3.043
X6.991Y-4.881
X7.307Y-3.971
X7.442Y-4.986
X7.472Y-2.966
T2
X4.7085Y-4.928
X4.7361Y-4.8611
X4.7361Y-4.9948
X4.803Y-4.8335
X4.803Y-5.0224
X4.8698Y-4.8611
X4.8698Y-4.9948
X4.8974Y-4.928
X6.7585Y-3.628
X6.7585Y-4.728
X6.7861Y-3.5611
X6.7861Y-3.6948
X6.7861Y-4.6611
X6.7861Y-4.7948
X6.853Y-3.5335
X6.853Y-3.7224
X6.853Y-4.6335
X6.853Y-4.8224
X6.9198Y-3.5611
X6.9198Y-3.6948
X6.9198Y-4.6611
X6.9198Y-4.7948
X6.9474Y-3.628
X6.9474Y-4.728
T3
X4.82Y-3.209
X4.82Y-3.2877
X4.82Y-3.3665
X5.13Y-3.209
X5.13Y-3.2877
X5.13Y-3.3665
T4
X5.5031Y-4.03
X5.5031Y-4.76
X5.6016Y-4.03
X5.6016Y-4.76
X5.7Y-4.03
X5.7Y-4.76
T5
X4.993Y-3.028
X4.993Y-3.028
X5.093Y-3.028
X5.093Y-3.028
X5.193Y-3.028
X5.193Y-3.028
X5.293Y-3.028
X5.293Y-3.028
X5.353Y-4.928
X5.353Y-4.928
X5.393Y-3.028
X5.393Y-3.028
X5.453Y-4.928
X5.453Y-4.928
X5.493Y-3.028
X5.493Y-3.028
X5.553Y-4.928
X5.553Y-4.928
X5.593Y-3.028
X5.593Y-3.028
X5.653Y-4.928
X5.653Y-4.928
X5.693Y-3.028
X5.693Y-3.028
X5.753Y-4.928
X5.753Y-4.928
X5.793Y-3.028
X5.793Y-3.028
X5.853Y-4.928
X5.853Y-4.928
X5.893Y-3.028
X5.893Y-3.028
X5.93Y-3.16
X5.93Y-3.66
X5.94Y-4.18
X5.94Y-4.68
X5.953Y-4.928
X5.953Y-4.928
X6.03Y-3.16
X6.03Y-3.66
X6.04Y-4.18
X6.04Y-4.68
X6.053Y-3.028
X6.053Y-3.028
X6.053Y-4.928
X6.053Y-4.928
X6.13Y-3.16
X6.13Y-3.66
X6.14Y-4.18
X6.14Y-4.68
X6.153Y-3.028
X6.153Y-3.028
X6.23Y-3.16
X6.23Y-3.66
X6.24Y-4.18
X6.24Y-4.68
X6.253Y-3.028
X6.253Y-3.028
X6.253Y-4.928
X6.253Y-4.928
X6.33Y-3.16
X6.33Y-3.66
X6.34Y-4.18
X6.34Y-4.68
X6.353Y-3.028
X6.353Y-3.028
X6.353Y-4.928
X6.353Y-4.928
X6.43Y-3.16
X6.43Y-3.66
X6.44Y-4.18
X6.44Y-4.68
X6.453Y-3.028
X6.453Y-3.028
X6.453Y-4.928
X6.453Y-4.928
X6.53Y-3.16
X6.53Y-3.66
X6.54Y-4.18
X6.54Y-4.68
X6.553Y-3.028
X6.553Y-3.028
X6.553Y-4.928
X6.553Y-4.928
X6.63Y-3.16
X6.63Y-3.66
X6.64Y-4.18
X6.64Y-4.68
X6.653Y-3.028
X6.653Y-3.028
X6.653Y-4.928
X6.653Y-4.928
X6.753Y-3.028
X6.753Y-3.028
X6.753Y-4.928
X6.753Y-4.928
T6
X7.27Y-3.12
X7.27Y-3.32
X7.27Y-3.52
X7.27Y-3.72
X7.27Y-4.225
X7.27Y-4.425
X7.27Y-4.625
X7.27Y-4.825
T7
X4.33Y-4.02
X4.4481Y-4.205
X4.5662Y-4.02
T8
X4.855Y-3.68
X4.855Y-4.04
X4.855Y-4.39
X5.04Y-3.68
X5.04Y-4.04
X5.04Y-4.39
X5.225Y-3.68
X5.225Y-4.04
X5.225Y-4.39
T9
X4.803Y-4.928
X6.853Y-3.628
X6.853Y-4.728
T0
M30
