G04 #@! TF.GenerationSoftware,KiCad,Pcbnew,5.1.9-73d0e3b20d~88~ubuntu18.04.1*
G04 #@! TF.CreationDate,2021-02-13T22:05:11-05:00*
G04 #@! TF.ProjectId,driver,64726976-6572-42e6-9b69-6361645f7063,v1.0.0*
G04 #@! TF.SameCoordinates,Original*
G04 #@! TF.FileFunction,Soldermask,Bot*
G04 #@! TF.FilePolarity,Negative*
%FSLAX46Y46*%
G04 Gerber Fmt 4.6, Leading zero omitted, Abs format (unit mm)*
G04 Created by KiCad (PCBNEW 5.1.9-73d0e3b20d~88~ubuntu18.04.1) date 2021-02-13 22:05:11*
%MOMM*%
%LPD*%
G01*
G04 APERTURE LIST*
%ADD10O,1.727200X1.727200*%
%ADD11C,3.200000*%
%ADD12R,1.524000X1.524000*%
%ADD13C,1.524000*%
%ADD14C,0.800000*%
%ADD15C,6.400000*%
%ADD16C,2.600000*%
%ADD17R,2.600000X2.600000*%
%ADD18O,1.750000X1.200000*%
%ADD19C,1.800000*%
%ADD20C,4.000000*%
%ADD21C,3.700000*%
%ADD22R,3.700000X3.700000*%
G04 APERTURE END LIST*
D10*
X171525000Y-125170000D03*
X168985000Y-125170000D03*
X166445000Y-125170000D03*
X163905000Y-125170000D03*
X161365000Y-125170000D03*
X135965000Y-125170000D03*
X142061000Y-76910000D03*
X139521000Y-76910000D03*
X136981000Y-76910000D03*
X131901000Y-76910000D03*
X129361000Y-76910000D03*
X126821000Y-76910000D03*
D11*
X121995000Y-125170000D03*
X174065000Y-92150000D03*
X174065000Y-120090000D03*
D10*
X144601000Y-76910000D03*
X147141000Y-76910000D03*
X149681000Y-76910000D03*
X134441000Y-76910000D03*
X153745000Y-76910000D03*
X156285000Y-76910000D03*
X158825000Y-76910000D03*
X161365000Y-76910000D03*
X163905000Y-76910000D03*
X166445000Y-76910000D03*
X168985000Y-76910000D03*
X171525000Y-76910000D03*
X138505000Y-125170000D03*
X141045000Y-125170000D03*
X143585000Y-125170000D03*
X146125000Y-125170000D03*
X148665000Y-125170000D03*
X151205000Y-125170000D03*
X153745000Y-125170000D03*
X158825000Y-125170000D03*
D12*
X150876000Y-106172000D03*
D13*
X153416000Y-106172000D03*
X155956000Y-106172000D03*
X158496000Y-106172000D03*
X161036000Y-106172000D03*
X163576000Y-106172000D03*
X166116000Y-106172000D03*
X168656000Y-106172000D03*
X168656000Y-118872000D03*
X166116000Y-118872000D03*
X163576000Y-118872000D03*
X161036000Y-118872000D03*
X158496000Y-118872000D03*
X155956000Y-118872000D03*
X153416000Y-118872000D03*
X150876000Y-118872000D03*
X150622000Y-92964000D03*
X153162000Y-92964000D03*
X155702000Y-92964000D03*
X158242000Y-92964000D03*
X160782000Y-92964000D03*
X163322000Y-92964000D03*
X165862000Y-92964000D03*
X168402000Y-92964000D03*
X168402000Y-80264000D03*
X165862000Y-80264000D03*
X163322000Y-80264000D03*
X160782000Y-80264000D03*
X158242000Y-80264000D03*
X155702000Y-80264000D03*
X153162000Y-80264000D03*
D12*
X150622000Y-80264000D03*
D10*
X158825000Y-125170000D03*
X153745000Y-125170000D03*
X151205000Y-125170000D03*
X148665000Y-125170000D03*
X146125000Y-125170000D03*
X143585000Y-125170000D03*
X141045000Y-125170000D03*
X138505000Y-125170000D03*
X171525000Y-76910000D03*
X168985000Y-76910000D03*
X166445000Y-76910000D03*
X163905000Y-76910000D03*
X161365000Y-76910000D03*
X158825000Y-76910000D03*
X156285000Y-76910000D03*
X153745000Y-76910000D03*
X134441000Y-76910000D03*
X149681000Y-76910000D03*
X147141000Y-76910000D03*
X144601000Y-76910000D03*
D11*
X174065000Y-120090000D03*
X174065000Y-92150000D03*
X121995000Y-125170000D03*
D10*
X126821000Y-76910000D03*
X129361000Y-76910000D03*
X131901000Y-76910000D03*
X136981000Y-76910000D03*
X139521000Y-76910000D03*
X142061000Y-76910000D03*
X135965000Y-125170000D03*
X161365000Y-125170000D03*
X163905000Y-125170000D03*
X166445000Y-125170000D03*
X168985000Y-125170000D03*
X171525000Y-125170000D03*
D14*
X175762056Y-90452944D03*
X174065000Y-89750000D03*
X172367944Y-90452944D03*
X171665000Y-92150000D03*
X172367944Y-93847056D03*
X174065000Y-94550000D03*
X175762056Y-93847056D03*
X176465000Y-92150000D03*
D15*
X174065000Y-92150000D03*
X121995000Y-125170000D03*
D14*
X124395000Y-125170000D03*
X123692056Y-126867056D03*
X121995000Y-127570000D03*
X120297944Y-126867056D03*
X119595000Y-125170000D03*
X120297944Y-123472944D03*
X121995000Y-122770000D03*
X123692056Y-123472944D03*
X175762056Y-118392944D03*
X174065000Y-117690000D03*
X172367944Y-118392944D03*
X171665000Y-120090000D03*
X172367944Y-121787056D03*
X174065000Y-122490000D03*
X175762056Y-121787056D03*
X176465000Y-120090000D03*
D15*
X174065000Y-120090000D03*
D16*
X184658000Y-79248000D03*
X184658000Y-84328000D03*
X184658000Y-89408000D03*
D17*
X184658000Y-94488000D03*
X184658000Y-122555000D03*
D16*
X184658000Y-117475000D03*
X184658000Y-112395000D03*
X184658000Y-107315000D03*
D18*
X122428000Y-85508600D03*
X122428000Y-83508600D03*
G36*
G01*
X121802999Y-80908600D02*
X123053001Y-80908600D01*
G75*
G02*
X123303000Y-81158599I0J-249999D01*
G01*
X123303000Y-81858601D01*
G75*
G02*
X123053001Y-82108600I-249999J0D01*
G01*
X121802999Y-82108600D01*
G75*
G02*
X121553000Y-81858601I0J249999D01*
G01*
X121553000Y-81158599D01*
G75*
G02*
X121802999Y-80908600I249999J0D01*
G01*
G37*
G36*
G01*
X129676999Y-80908600D02*
X130927001Y-80908600D01*
G75*
G02*
X131177000Y-81158599I0J-249999D01*
G01*
X131177000Y-81858601D01*
G75*
G02*
X130927001Y-82108600I-249999J0D01*
G01*
X129676999Y-82108600D01*
G75*
G02*
X129427000Y-81858601I0J249999D01*
G01*
X129427000Y-81158599D01*
G75*
G02*
X129676999Y-80908600I249999J0D01*
G01*
G37*
X130302000Y-83508600D03*
X130302000Y-85508600D03*
D17*
X115982000Y-102108000D03*
D16*
X109982000Y-102108000D03*
X112982000Y-106808000D03*
D19*
X139780000Y-120904000D03*
X142280000Y-120904000D03*
X144780000Y-120904000D03*
D20*
X137880000Y-113904000D03*
X146680000Y-113904000D03*
X146680000Y-95362000D03*
X137880000Y-95362000D03*
D19*
X144780000Y-102362000D03*
X142280000Y-102362000D03*
X139780000Y-102362000D03*
D21*
X128016000Y-111506000D03*
D22*
X123316000Y-111506000D03*
D21*
X132716000Y-111506000D03*
X132716000Y-102616000D03*
D22*
X123316000Y-102616000D03*
D21*
X128016000Y-102616000D03*
X128016000Y-93472000D03*
D22*
X123316000Y-93472000D03*
D21*
X132716000Y-93472000D03*
M02*
