G04 #@! TF.GenerationSoftware,KiCad,Pcbnew,5.1.9-73d0e3b20d~88~ubuntu18.04.1*
G04 #@! TF.CreationDate,2021-02-13T22:05:11-05:00*
G04 #@! TF.ProjectId,driver,64726976-6572-42e6-9b69-6361645f7063,v1.0.0*
G04 #@! TF.SameCoordinates,Original*
G04 #@! TF.FileFunction,Legend,Top*
G04 #@! TF.FilePolarity,Positive*
%FSLAX46Y46*%
G04 Gerber Fmt 4.6, Leading zero omitted, Abs format (unit mm)*
G04 Created by KiCad (PCBNEW 5.1.9-73d0e3b20d~88~ubuntu18.04.1) date 2021-02-13 22:05:11*
%MOMM*%
%LPD*%
G01*
G04 APERTURE LIST*
%ADD10C,0.250000*%
%ADD11C,0.120000*%
%ADD12C,0.150000*%
G04 APERTURE END LIST*
D10*
X192767276Y-125363571D02*
X192172038Y-125696904D01*
X192767276Y-125935000D02*
X191517276Y-125935000D01*
X191517276Y-125554047D01*
X191576800Y-125458809D01*
X191636323Y-125411190D01*
X191755371Y-125363571D01*
X191933942Y-125363571D01*
X192052990Y-125411190D01*
X192112514Y-125458809D01*
X192172038Y-125554047D01*
X192172038Y-125935000D01*
X192707752Y-124554047D02*
X192767276Y-124649285D01*
X192767276Y-124839761D01*
X192707752Y-124935000D01*
X192588704Y-124982619D01*
X192112514Y-124982619D01*
X191993466Y-124935000D01*
X191933942Y-124839761D01*
X191933942Y-124649285D01*
X191993466Y-124554047D01*
X192112514Y-124506428D01*
X192231561Y-124506428D01*
X192350609Y-124982619D01*
X192767276Y-123649285D02*
X191517276Y-123649285D01*
X192707752Y-123649285D02*
X192767276Y-123744523D01*
X192767276Y-123935000D01*
X192707752Y-124030238D01*
X192648228Y-124077857D01*
X192529180Y-124125476D01*
X192172038Y-124125476D01*
X192052990Y-124077857D01*
X191993466Y-124030238D01*
X191933942Y-123935000D01*
X191933942Y-123744523D01*
X191993466Y-123649285D01*
X193183942Y-122173095D02*
X191398228Y-122173095D01*
X191517276Y-120792142D02*
X192767276Y-120554047D01*
X191874419Y-120363571D01*
X192767276Y-120173095D01*
X191517276Y-119935000D01*
X192767276Y-119554047D02*
X191517276Y-119554047D01*
X192767276Y-119125476D02*
X192112514Y-119125476D01*
X191993466Y-119173095D01*
X191933942Y-119268333D01*
X191933942Y-119411190D01*
X191993466Y-119506428D01*
X192052990Y-119554047D01*
X192767276Y-118649285D02*
X191933942Y-118649285D01*
X191517276Y-118649285D02*
X191576800Y-118696904D01*
X191636323Y-118649285D01*
X191576800Y-118601666D01*
X191517276Y-118649285D01*
X191636323Y-118649285D01*
X191933942Y-118315952D02*
X191933942Y-117935000D01*
X191517276Y-118173095D02*
X192588704Y-118173095D01*
X192707752Y-118125476D01*
X192767276Y-118030238D01*
X192767276Y-117935000D01*
X192707752Y-117220714D02*
X192767276Y-117315952D01*
X192767276Y-117506428D01*
X192707752Y-117601666D01*
X192588704Y-117649285D01*
X192112514Y-117649285D01*
X191993466Y-117601666D01*
X191933942Y-117506428D01*
X191933942Y-117315952D01*
X191993466Y-117220714D01*
X192112514Y-117173095D01*
X192231561Y-117173095D01*
X192350609Y-117649285D01*
X193183942Y-115744523D02*
X191398228Y-115744523D01*
X192112514Y-113935000D02*
X192172038Y-113792142D01*
X192231561Y-113744523D01*
X192350609Y-113696904D01*
X192529180Y-113696904D01*
X192648228Y-113744523D01*
X192707752Y-113792142D01*
X192767276Y-113887380D01*
X192767276Y-114268333D01*
X191517276Y-114268333D01*
X191517276Y-113935000D01*
X191576800Y-113839761D01*
X191636323Y-113792142D01*
X191755371Y-113744523D01*
X191874419Y-113744523D01*
X191993466Y-113792142D01*
X192052990Y-113839761D01*
X192112514Y-113935000D01*
X192112514Y-114268333D01*
X192767276Y-113125476D02*
X192707752Y-113220714D01*
X192588704Y-113268333D01*
X191517276Y-113268333D01*
X192767276Y-112315952D02*
X192112514Y-112315952D01*
X191993466Y-112363571D01*
X191933942Y-112458809D01*
X191933942Y-112649285D01*
X191993466Y-112744523D01*
X192707752Y-112315952D02*
X192767276Y-112411190D01*
X192767276Y-112649285D01*
X192707752Y-112744523D01*
X192588704Y-112792142D01*
X192469657Y-112792142D01*
X192350609Y-112744523D01*
X192291085Y-112649285D01*
X192291085Y-112411190D01*
X192231561Y-112315952D01*
X192707752Y-111411190D02*
X192767276Y-111506428D01*
X192767276Y-111696904D01*
X192707752Y-111792142D01*
X192648228Y-111839761D01*
X192529180Y-111887380D01*
X192172038Y-111887380D01*
X192052990Y-111839761D01*
X191993466Y-111792142D01*
X191933942Y-111696904D01*
X191933942Y-111506428D01*
X191993466Y-111411190D01*
X192767276Y-110982619D02*
X191517276Y-110982619D01*
X192291085Y-110887380D02*
X192767276Y-110601666D01*
X191933942Y-110601666D02*
X192410133Y-110982619D01*
X193183942Y-109173095D02*
X191398228Y-109173095D01*
X191576800Y-107173095D02*
X191517276Y-107268333D01*
X191517276Y-107411190D01*
X191576800Y-107554047D01*
X191695847Y-107649285D01*
X191814895Y-107696904D01*
X192052990Y-107744523D01*
X192231561Y-107744523D01*
X192469657Y-107696904D01*
X192588704Y-107649285D01*
X192707752Y-107554047D01*
X192767276Y-107411190D01*
X192767276Y-107315952D01*
X192707752Y-107173095D01*
X192648228Y-107125476D01*
X192231561Y-107125476D01*
X192231561Y-107315952D01*
X192767276Y-106696904D02*
X191933942Y-106696904D01*
X192172038Y-106696904D02*
X192052990Y-106649285D01*
X191993466Y-106601666D01*
X191933942Y-106506428D01*
X191933942Y-106411190D01*
X192707752Y-105696904D02*
X192767276Y-105792142D01*
X192767276Y-105982619D01*
X192707752Y-106077857D01*
X192588704Y-106125476D01*
X192112514Y-106125476D01*
X191993466Y-106077857D01*
X191933942Y-105982619D01*
X191933942Y-105792142D01*
X191993466Y-105696904D01*
X192112514Y-105649285D01*
X192231561Y-105649285D01*
X192350609Y-106125476D01*
X192707752Y-104839761D02*
X192767276Y-104935000D01*
X192767276Y-105125476D01*
X192707752Y-105220714D01*
X192588704Y-105268333D01*
X192112514Y-105268333D01*
X191993466Y-105220714D01*
X191933942Y-105125476D01*
X191933942Y-104935000D01*
X191993466Y-104839761D01*
X192112514Y-104792142D01*
X192231561Y-104792142D01*
X192350609Y-105268333D01*
X191933942Y-104363571D02*
X192767276Y-104363571D01*
X192052990Y-104363571D02*
X191993466Y-104315952D01*
X191933942Y-104220714D01*
X191933942Y-104077857D01*
X191993466Y-103982619D01*
X192112514Y-103935000D01*
X192767276Y-103935000D01*
X192767276Y-97296571D02*
X192172038Y-97629904D01*
X192767276Y-97868000D02*
X191517276Y-97868000D01*
X191517276Y-97487047D01*
X191576800Y-97391809D01*
X191636323Y-97344190D01*
X191755371Y-97296571D01*
X191933942Y-97296571D01*
X192052990Y-97344190D01*
X192112514Y-97391809D01*
X192172038Y-97487047D01*
X192172038Y-97868000D01*
X192707752Y-96487047D02*
X192767276Y-96582285D01*
X192767276Y-96772761D01*
X192707752Y-96868000D01*
X192588704Y-96915619D01*
X192112514Y-96915619D01*
X191993466Y-96868000D01*
X191933942Y-96772761D01*
X191933942Y-96582285D01*
X191993466Y-96487047D01*
X192112514Y-96439428D01*
X192231561Y-96439428D01*
X192350609Y-96915619D01*
X192767276Y-95582285D02*
X191517276Y-95582285D01*
X192707752Y-95582285D02*
X192767276Y-95677523D01*
X192767276Y-95868000D01*
X192707752Y-95963238D01*
X192648228Y-96010857D01*
X192529180Y-96058476D01*
X192172038Y-96058476D01*
X192052990Y-96010857D01*
X191993466Y-95963238D01*
X191933942Y-95868000D01*
X191933942Y-95677523D01*
X191993466Y-95582285D01*
X193183942Y-94106095D02*
X191398228Y-94106095D01*
X191517276Y-92725142D02*
X192767276Y-92487047D01*
X191874419Y-92296571D01*
X192767276Y-92106095D01*
X191517276Y-91868000D01*
X192767276Y-91487047D02*
X191517276Y-91487047D01*
X192767276Y-91058476D02*
X192112514Y-91058476D01*
X191993466Y-91106095D01*
X191933942Y-91201333D01*
X191933942Y-91344190D01*
X191993466Y-91439428D01*
X192052990Y-91487047D01*
X192767276Y-90582285D02*
X191933942Y-90582285D01*
X191517276Y-90582285D02*
X191576800Y-90629904D01*
X191636323Y-90582285D01*
X191576800Y-90534666D01*
X191517276Y-90582285D01*
X191636323Y-90582285D01*
X191933942Y-90248952D02*
X191933942Y-89868000D01*
X191517276Y-90106095D02*
X192588704Y-90106095D01*
X192707752Y-90058476D01*
X192767276Y-89963238D01*
X192767276Y-89868000D01*
X192707752Y-89153714D02*
X192767276Y-89248952D01*
X192767276Y-89439428D01*
X192707752Y-89534666D01*
X192588704Y-89582285D01*
X192112514Y-89582285D01*
X191993466Y-89534666D01*
X191933942Y-89439428D01*
X191933942Y-89248952D01*
X191993466Y-89153714D01*
X192112514Y-89106095D01*
X192231561Y-89106095D01*
X192350609Y-89582285D01*
X193183942Y-87677523D02*
X191398228Y-87677523D01*
X192112514Y-85868000D02*
X192172038Y-85725142D01*
X192231561Y-85677523D01*
X192350609Y-85629904D01*
X192529180Y-85629904D01*
X192648228Y-85677523D01*
X192707752Y-85725142D01*
X192767276Y-85820380D01*
X192767276Y-86201333D01*
X191517276Y-86201333D01*
X191517276Y-85868000D01*
X191576800Y-85772761D01*
X191636323Y-85725142D01*
X191755371Y-85677523D01*
X191874419Y-85677523D01*
X191993466Y-85725142D01*
X192052990Y-85772761D01*
X192112514Y-85868000D01*
X192112514Y-86201333D01*
X192767276Y-85058476D02*
X192707752Y-85153714D01*
X192588704Y-85201333D01*
X191517276Y-85201333D01*
X192767276Y-84248952D02*
X192112514Y-84248952D01*
X191993466Y-84296571D01*
X191933942Y-84391809D01*
X191933942Y-84582285D01*
X191993466Y-84677523D01*
X192707752Y-84248952D02*
X192767276Y-84344190D01*
X192767276Y-84582285D01*
X192707752Y-84677523D01*
X192588704Y-84725142D01*
X192469657Y-84725142D01*
X192350609Y-84677523D01*
X192291085Y-84582285D01*
X192291085Y-84344190D01*
X192231561Y-84248952D01*
X192707752Y-83344190D02*
X192767276Y-83439428D01*
X192767276Y-83629904D01*
X192707752Y-83725142D01*
X192648228Y-83772761D01*
X192529180Y-83820380D01*
X192172038Y-83820380D01*
X192052990Y-83772761D01*
X191993466Y-83725142D01*
X191933942Y-83629904D01*
X191933942Y-83439428D01*
X191993466Y-83344190D01*
X192767276Y-82915619D02*
X191517276Y-82915619D01*
X192291085Y-82820380D02*
X192767276Y-82534666D01*
X191933942Y-82534666D02*
X192410133Y-82915619D01*
X193183942Y-81106095D02*
X191398228Y-81106095D01*
X191576800Y-79106095D02*
X191517276Y-79201333D01*
X191517276Y-79344190D01*
X191576800Y-79487047D01*
X191695847Y-79582285D01*
X191814895Y-79629904D01*
X192052990Y-79677523D01*
X192231561Y-79677523D01*
X192469657Y-79629904D01*
X192588704Y-79582285D01*
X192707752Y-79487047D01*
X192767276Y-79344190D01*
X192767276Y-79248952D01*
X192707752Y-79106095D01*
X192648228Y-79058476D01*
X192231561Y-79058476D01*
X192231561Y-79248952D01*
X192767276Y-78629904D02*
X191933942Y-78629904D01*
X192172038Y-78629904D02*
X192052990Y-78582285D01*
X191993466Y-78534666D01*
X191933942Y-78439428D01*
X191933942Y-78344190D01*
X192707752Y-77629904D02*
X192767276Y-77725142D01*
X192767276Y-77915619D01*
X192707752Y-78010857D01*
X192588704Y-78058476D01*
X192112514Y-78058476D01*
X191993466Y-78010857D01*
X191933942Y-77915619D01*
X191933942Y-77725142D01*
X191993466Y-77629904D01*
X192112514Y-77582285D01*
X192231561Y-77582285D01*
X192350609Y-78058476D01*
X192707752Y-76772761D02*
X192767276Y-76868000D01*
X192767276Y-77058476D01*
X192707752Y-77153714D01*
X192588704Y-77201333D01*
X192112514Y-77201333D01*
X191993466Y-77153714D01*
X191933942Y-77058476D01*
X191933942Y-76868000D01*
X191993466Y-76772761D01*
X192112514Y-76725142D01*
X192231561Y-76725142D01*
X192350609Y-77201333D01*
X191933942Y-76296571D02*
X192767276Y-76296571D01*
X192052990Y-76296571D02*
X191993466Y-76248952D01*
X191933942Y-76153714D01*
X191933942Y-76010857D01*
X191993466Y-75915619D01*
X192112514Y-75868000D01*
X192767276Y-75868000D01*
X135780000Y-106889876D02*
X135780000Y-105639876D01*
X136160952Y-105639876D01*
X136256190Y-105699400D01*
X136303809Y-105758923D01*
X136351428Y-105877971D01*
X136351428Y-106056542D01*
X136303809Y-106175590D01*
X136256190Y-106235114D01*
X136160952Y-106294638D01*
X135780000Y-106294638D01*
X137208571Y-106056542D02*
X137208571Y-106889876D01*
X136780000Y-106056542D02*
X136780000Y-106711304D01*
X136827619Y-106830352D01*
X136922857Y-106889876D01*
X137065714Y-106889876D01*
X137160952Y-106830352D01*
X137208571Y-106770828D01*
X137684761Y-106889876D02*
X137684761Y-106056542D01*
X137684761Y-106175590D02*
X137732380Y-106116066D01*
X137827619Y-106056542D01*
X137970476Y-106056542D01*
X138065714Y-106116066D01*
X138113333Y-106235114D01*
X138113333Y-106889876D01*
X138113333Y-106235114D02*
X138160952Y-106116066D01*
X138256190Y-106056542D01*
X138399047Y-106056542D01*
X138494285Y-106116066D01*
X138541904Y-106235114D01*
X138541904Y-106889876D01*
X139018095Y-106056542D02*
X139018095Y-107306542D01*
X139018095Y-106116066D02*
X139113333Y-106056542D01*
X139303809Y-106056542D01*
X139399047Y-106116066D01*
X139446666Y-106175590D01*
X139494285Y-106294638D01*
X139494285Y-106651780D01*
X139446666Y-106770828D01*
X139399047Y-106830352D01*
X139303809Y-106889876D01*
X139113333Y-106889876D01*
X139018095Y-106830352D01*
X140637142Y-105758923D02*
X140684761Y-105699400D01*
X140780000Y-105639876D01*
X141018095Y-105639876D01*
X141113333Y-105699400D01*
X141160952Y-105758923D01*
X141208571Y-105877971D01*
X141208571Y-105997019D01*
X141160952Y-106175590D01*
X140589523Y-106889876D01*
X141208571Y-106889876D01*
X142399047Y-106889876D02*
X142399047Y-105639876D01*
X142637142Y-105639876D01*
X142780000Y-105699400D01*
X142875238Y-105818447D01*
X142922857Y-105937495D01*
X142970476Y-106175590D01*
X142970476Y-106354161D01*
X142922857Y-106592257D01*
X142875238Y-106711304D01*
X142780000Y-106830352D01*
X142637142Y-106889876D01*
X142399047Y-106889876D01*
X143399047Y-106889876D02*
X143399047Y-106056542D01*
X143399047Y-106294638D02*
X143446666Y-106175590D01*
X143494285Y-106116066D01*
X143589523Y-106056542D01*
X143684761Y-106056542D01*
X144018095Y-106889876D02*
X144018095Y-106056542D01*
X144018095Y-105639876D02*
X143970476Y-105699400D01*
X144018095Y-105758923D01*
X144065714Y-105699400D01*
X144018095Y-105639876D01*
X144018095Y-105758923D01*
X144494285Y-106056542D02*
X144494285Y-107306542D01*
X144494285Y-106116066D02*
X144589523Y-106056542D01*
X144780000Y-106056542D01*
X144875238Y-106116066D01*
X144922857Y-106175590D01*
X144970476Y-106294638D01*
X144970476Y-106651780D01*
X144922857Y-106770828D01*
X144875238Y-106830352D01*
X144780000Y-106889876D01*
X144589523Y-106889876D01*
X144494285Y-106830352D01*
X146113333Y-106830352D02*
X146256190Y-106889876D01*
X146494285Y-106889876D01*
X146589523Y-106830352D01*
X146637142Y-106770828D01*
X146684761Y-106651780D01*
X146684761Y-106532733D01*
X146637142Y-106413685D01*
X146589523Y-106354161D01*
X146494285Y-106294638D01*
X146303809Y-106235114D01*
X146208571Y-106175590D01*
X146160952Y-106116066D01*
X146113333Y-105997019D01*
X146113333Y-105877971D01*
X146160952Y-105758923D01*
X146208571Y-105699400D01*
X146303809Y-105639876D01*
X146541904Y-105639876D01*
X146684761Y-105699400D01*
X147113333Y-106889876D02*
X147113333Y-106056542D01*
X147113333Y-105639876D02*
X147065714Y-105699400D01*
X147113333Y-105758923D01*
X147160952Y-105699400D01*
X147113333Y-105639876D01*
X147113333Y-105758923D01*
X147494285Y-106056542D02*
X148018095Y-106056542D01*
X147494285Y-106889876D01*
X148018095Y-106889876D01*
X148780000Y-106830352D02*
X148684761Y-106889876D01*
X148494285Y-106889876D01*
X148399047Y-106830352D01*
X148351428Y-106711304D01*
X148351428Y-106235114D01*
X148399047Y-106116066D01*
X148494285Y-106056542D01*
X148684761Y-106056542D01*
X148780000Y-106116066D01*
X148827619Y-106235114D01*
X148827619Y-106354161D01*
X148351428Y-106473209D01*
X153218380Y-112684976D02*
X153218380Y-111434976D01*
X153694571Y-111434976D01*
X153813619Y-111494500D01*
X153873142Y-111554023D01*
X153932666Y-111673071D01*
X153932666Y-111851642D01*
X153873142Y-111970690D01*
X153813619Y-112030214D01*
X153694571Y-112089738D01*
X153218380Y-112089738D01*
X155004095Y-111851642D02*
X155004095Y-112684976D01*
X154468380Y-111851642D02*
X154468380Y-112506404D01*
X154527904Y-112625452D01*
X154646952Y-112684976D01*
X154825523Y-112684976D01*
X154944571Y-112625452D01*
X155004095Y-112565928D01*
X155599333Y-112684976D02*
X155599333Y-111851642D01*
X155599333Y-111970690D02*
X155658857Y-111911166D01*
X155777904Y-111851642D01*
X155956476Y-111851642D01*
X156075523Y-111911166D01*
X156135047Y-112030214D01*
X156135047Y-112684976D01*
X156135047Y-112030214D02*
X156194571Y-111911166D01*
X156313619Y-111851642D01*
X156492190Y-111851642D01*
X156611238Y-111911166D01*
X156670761Y-112030214D01*
X156670761Y-112684976D01*
X157266000Y-111851642D02*
X157266000Y-113101642D01*
X157266000Y-111911166D02*
X157385047Y-111851642D01*
X157623142Y-111851642D01*
X157742190Y-111911166D01*
X157801714Y-111970690D01*
X157861238Y-112089738D01*
X157861238Y-112446880D01*
X157801714Y-112565928D01*
X157742190Y-112625452D01*
X157623142Y-112684976D01*
X157385047Y-112684976D01*
X157266000Y-112625452D01*
X159289809Y-111554023D02*
X159349333Y-111494500D01*
X159468380Y-111434976D01*
X159766000Y-111434976D01*
X159885047Y-111494500D01*
X159944571Y-111554023D01*
X160004095Y-111673071D01*
X160004095Y-111792119D01*
X159944571Y-111970690D01*
X159230285Y-112684976D01*
X160004095Y-112684976D01*
X161492190Y-112684976D02*
X161492190Y-111434976D01*
X161789809Y-111434976D01*
X161968380Y-111494500D01*
X162087428Y-111613547D01*
X162146952Y-111732595D01*
X162206476Y-111970690D01*
X162206476Y-112149261D01*
X162146952Y-112387357D01*
X162087428Y-112506404D01*
X161968380Y-112625452D01*
X161789809Y-112684976D01*
X161492190Y-112684976D01*
X162742190Y-112684976D02*
X162742190Y-111851642D01*
X162742190Y-112089738D02*
X162801714Y-111970690D01*
X162861238Y-111911166D01*
X162980285Y-111851642D01*
X163099333Y-111851642D01*
X163516000Y-112684976D02*
X163516000Y-111851642D01*
X163516000Y-111434976D02*
X163456476Y-111494500D01*
X163516000Y-111554023D01*
X163575523Y-111494500D01*
X163516000Y-111434976D01*
X163516000Y-111554023D01*
X163992190Y-111851642D02*
X164289809Y-112684976D01*
X164587428Y-111851642D01*
X165539809Y-112625452D02*
X165420761Y-112684976D01*
X165182666Y-112684976D01*
X165063619Y-112625452D01*
X165004095Y-112506404D01*
X165004095Y-112030214D01*
X165063619Y-111911166D01*
X165182666Y-111851642D01*
X165420761Y-111851642D01*
X165539809Y-111911166D01*
X165599333Y-112030214D01*
X165599333Y-112149261D01*
X165004095Y-112268309D01*
X166135047Y-112684976D02*
X166135047Y-111851642D01*
X166135047Y-112089738D02*
X166194571Y-111970690D01*
X166254095Y-111911166D01*
X166373142Y-111851642D01*
X166492190Y-111851642D01*
X152964380Y-86776976D02*
X152964380Y-85526976D01*
X153440571Y-85526976D01*
X153559619Y-85586500D01*
X153619142Y-85646023D01*
X153678666Y-85765071D01*
X153678666Y-85943642D01*
X153619142Y-86062690D01*
X153559619Y-86122214D01*
X153440571Y-86181738D01*
X152964380Y-86181738D01*
X154750095Y-85943642D02*
X154750095Y-86776976D01*
X154214380Y-85943642D02*
X154214380Y-86598404D01*
X154273904Y-86717452D01*
X154392952Y-86776976D01*
X154571523Y-86776976D01*
X154690571Y-86717452D01*
X154750095Y-86657928D01*
X155345333Y-86776976D02*
X155345333Y-85943642D01*
X155345333Y-86062690D02*
X155404857Y-86003166D01*
X155523904Y-85943642D01*
X155702476Y-85943642D01*
X155821523Y-86003166D01*
X155881047Y-86122214D01*
X155881047Y-86776976D01*
X155881047Y-86122214D02*
X155940571Y-86003166D01*
X156059619Y-85943642D01*
X156238190Y-85943642D01*
X156357238Y-86003166D01*
X156416761Y-86122214D01*
X156416761Y-86776976D01*
X157012000Y-85943642D02*
X157012000Y-87193642D01*
X157012000Y-86003166D02*
X157131047Y-85943642D01*
X157369142Y-85943642D01*
X157488190Y-86003166D01*
X157547714Y-86062690D01*
X157607238Y-86181738D01*
X157607238Y-86538880D01*
X157547714Y-86657928D01*
X157488190Y-86717452D01*
X157369142Y-86776976D01*
X157131047Y-86776976D01*
X157012000Y-86717452D01*
X159750095Y-86776976D02*
X159035809Y-86776976D01*
X159392952Y-86776976D02*
X159392952Y-85526976D01*
X159273904Y-85705547D01*
X159154857Y-85824595D01*
X159035809Y-85884119D01*
X161238190Y-86776976D02*
X161238190Y-85526976D01*
X161535809Y-85526976D01*
X161714380Y-85586500D01*
X161833428Y-85705547D01*
X161892952Y-85824595D01*
X161952476Y-86062690D01*
X161952476Y-86241261D01*
X161892952Y-86479357D01*
X161833428Y-86598404D01*
X161714380Y-86717452D01*
X161535809Y-86776976D01*
X161238190Y-86776976D01*
X162488190Y-86776976D02*
X162488190Y-85943642D01*
X162488190Y-86181738D02*
X162547714Y-86062690D01*
X162607238Y-86003166D01*
X162726285Y-85943642D01*
X162845333Y-85943642D01*
X163262000Y-86776976D02*
X163262000Y-85943642D01*
X163262000Y-85526976D02*
X163202476Y-85586500D01*
X163262000Y-85646023D01*
X163321523Y-85586500D01*
X163262000Y-85526976D01*
X163262000Y-85646023D01*
X163738190Y-85943642D02*
X164035809Y-86776976D01*
X164333428Y-85943642D01*
X165285809Y-86717452D02*
X165166761Y-86776976D01*
X164928666Y-86776976D01*
X164809619Y-86717452D01*
X164750095Y-86598404D01*
X164750095Y-86122214D01*
X164809619Y-86003166D01*
X164928666Y-85943642D01*
X165166761Y-85943642D01*
X165285809Y-86003166D01*
X165345333Y-86122214D01*
X165345333Y-86241261D01*
X164750095Y-86360309D01*
X165881047Y-86776976D02*
X165881047Y-85943642D01*
X165881047Y-86181738D02*
X165940571Y-86062690D01*
X166000095Y-86003166D01*
X166119142Y-85943642D01*
X166238190Y-85943642D01*
X177400276Y-111465495D02*
X176150276Y-111465495D01*
X176150276Y-110989304D01*
X176209800Y-110870257D01*
X176269323Y-110810733D01*
X176388371Y-110751209D01*
X176566942Y-110751209D01*
X176685990Y-110810733D01*
X176745514Y-110870257D01*
X176805038Y-110989304D01*
X176805038Y-111465495D01*
X176566942Y-109679780D02*
X177400276Y-109679780D01*
X176566942Y-110215495D02*
X177221704Y-110215495D01*
X177340752Y-110155971D01*
X177400276Y-110036923D01*
X177400276Y-109858352D01*
X177340752Y-109739304D01*
X177281228Y-109679780D01*
X177400276Y-109084542D02*
X176566942Y-109084542D01*
X176685990Y-109084542D02*
X176626466Y-109025019D01*
X176566942Y-108905971D01*
X176566942Y-108727400D01*
X176626466Y-108608352D01*
X176745514Y-108548828D01*
X177400276Y-108548828D01*
X176745514Y-108548828D02*
X176626466Y-108489304D01*
X176566942Y-108370257D01*
X176566942Y-108191685D01*
X176626466Y-108072638D01*
X176745514Y-108013114D01*
X177400276Y-108013114D01*
X176566942Y-107417876D02*
X177816942Y-107417876D01*
X176626466Y-107417876D02*
X176566942Y-107298828D01*
X176566942Y-107060733D01*
X176626466Y-106941685D01*
X176685990Y-106882161D01*
X176805038Y-106822638D01*
X177162180Y-106822638D01*
X177281228Y-106882161D01*
X177340752Y-106941685D01*
X177400276Y-107060733D01*
X177400276Y-107298828D01*
X177340752Y-107417876D01*
X176269323Y-105394066D02*
X176209800Y-105334542D01*
X176150276Y-105215495D01*
X176150276Y-104917876D01*
X176209800Y-104798828D01*
X176269323Y-104739304D01*
X176388371Y-104679780D01*
X176507419Y-104679780D01*
X176685990Y-104739304D01*
X177400276Y-105453590D01*
X177400276Y-104679780D01*
X177400276Y-83271495D02*
X176150276Y-83271495D01*
X176150276Y-82795304D01*
X176209800Y-82676257D01*
X176269323Y-82616733D01*
X176388371Y-82557209D01*
X176566942Y-82557209D01*
X176685990Y-82616733D01*
X176745514Y-82676257D01*
X176805038Y-82795304D01*
X176805038Y-83271495D01*
X176566942Y-81485780D02*
X177400276Y-81485780D01*
X176566942Y-82021495D02*
X177221704Y-82021495D01*
X177340752Y-81961971D01*
X177400276Y-81842923D01*
X177400276Y-81664352D01*
X177340752Y-81545304D01*
X177281228Y-81485780D01*
X177400276Y-80890542D02*
X176566942Y-80890542D01*
X176685990Y-80890542D02*
X176626466Y-80831019D01*
X176566942Y-80711971D01*
X176566942Y-80533400D01*
X176626466Y-80414352D01*
X176745514Y-80354828D01*
X177400276Y-80354828D01*
X176745514Y-80354828D02*
X176626466Y-80295304D01*
X176566942Y-80176257D01*
X176566942Y-79997685D01*
X176626466Y-79878638D01*
X176745514Y-79819114D01*
X177400276Y-79819114D01*
X176566942Y-79223876D02*
X177816942Y-79223876D01*
X176626466Y-79223876D02*
X176566942Y-79104828D01*
X176566942Y-78866733D01*
X176626466Y-78747685D01*
X176685990Y-78688161D01*
X176805038Y-78628638D01*
X177162180Y-78628638D01*
X177281228Y-78688161D01*
X177340752Y-78747685D01*
X177400276Y-78866733D01*
X177400276Y-79104828D01*
X177340752Y-79223876D01*
X177400276Y-76485780D02*
X177400276Y-77200066D01*
X177400276Y-76842923D02*
X176150276Y-76842923D01*
X176328847Y-76961971D01*
X176447895Y-77081019D01*
X176507419Y-77200066D01*
X135780000Y-88347876D02*
X135780000Y-87097876D01*
X136160952Y-87097876D01*
X136256190Y-87157400D01*
X136303809Y-87216923D01*
X136351428Y-87335971D01*
X136351428Y-87514542D01*
X136303809Y-87633590D01*
X136256190Y-87693114D01*
X136160952Y-87752638D01*
X135780000Y-87752638D01*
X137208571Y-87514542D02*
X137208571Y-88347876D01*
X136780000Y-87514542D02*
X136780000Y-88169304D01*
X136827619Y-88288352D01*
X136922857Y-88347876D01*
X137065714Y-88347876D01*
X137160952Y-88288352D01*
X137208571Y-88228828D01*
X137684761Y-88347876D02*
X137684761Y-87514542D01*
X137684761Y-87633590D02*
X137732380Y-87574066D01*
X137827619Y-87514542D01*
X137970476Y-87514542D01*
X138065714Y-87574066D01*
X138113333Y-87693114D01*
X138113333Y-88347876D01*
X138113333Y-87693114D02*
X138160952Y-87574066D01*
X138256190Y-87514542D01*
X138399047Y-87514542D01*
X138494285Y-87574066D01*
X138541904Y-87693114D01*
X138541904Y-88347876D01*
X139018095Y-87514542D02*
X139018095Y-88764542D01*
X139018095Y-87574066D02*
X139113333Y-87514542D01*
X139303809Y-87514542D01*
X139399047Y-87574066D01*
X139446666Y-87633590D01*
X139494285Y-87752638D01*
X139494285Y-88109780D01*
X139446666Y-88228828D01*
X139399047Y-88288352D01*
X139303809Y-88347876D01*
X139113333Y-88347876D01*
X139018095Y-88288352D01*
X141208571Y-88347876D02*
X140637142Y-88347876D01*
X140922857Y-88347876D02*
X140922857Y-87097876D01*
X140827619Y-87276447D01*
X140732380Y-87395495D01*
X140637142Y-87455019D01*
X142399047Y-88347876D02*
X142399047Y-87097876D01*
X142637142Y-87097876D01*
X142780000Y-87157400D01*
X142875238Y-87276447D01*
X142922857Y-87395495D01*
X142970476Y-87633590D01*
X142970476Y-87812161D01*
X142922857Y-88050257D01*
X142875238Y-88169304D01*
X142780000Y-88288352D01*
X142637142Y-88347876D01*
X142399047Y-88347876D01*
X143399047Y-88347876D02*
X143399047Y-87514542D01*
X143399047Y-87752638D02*
X143446666Y-87633590D01*
X143494285Y-87574066D01*
X143589523Y-87514542D01*
X143684761Y-87514542D01*
X144018095Y-88347876D02*
X144018095Y-87514542D01*
X144018095Y-87097876D02*
X143970476Y-87157400D01*
X144018095Y-87216923D01*
X144065714Y-87157400D01*
X144018095Y-87097876D01*
X144018095Y-87216923D01*
X144494285Y-87514542D02*
X144494285Y-88764542D01*
X144494285Y-87574066D02*
X144589523Y-87514542D01*
X144780000Y-87514542D01*
X144875238Y-87574066D01*
X144922857Y-87633590D01*
X144970476Y-87752638D01*
X144970476Y-88109780D01*
X144922857Y-88228828D01*
X144875238Y-88288352D01*
X144780000Y-88347876D01*
X144589523Y-88347876D01*
X144494285Y-88288352D01*
X146113333Y-88288352D02*
X146256190Y-88347876D01*
X146494285Y-88347876D01*
X146589523Y-88288352D01*
X146637142Y-88228828D01*
X146684761Y-88109780D01*
X146684761Y-87990733D01*
X146637142Y-87871685D01*
X146589523Y-87812161D01*
X146494285Y-87752638D01*
X146303809Y-87693114D01*
X146208571Y-87633590D01*
X146160952Y-87574066D01*
X146113333Y-87455019D01*
X146113333Y-87335971D01*
X146160952Y-87216923D01*
X146208571Y-87157400D01*
X146303809Y-87097876D01*
X146541904Y-87097876D01*
X146684761Y-87157400D01*
X147113333Y-88347876D02*
X147113333Y-87514542D01*
X147113333Y-87097876D02*
X147065714Y-87157400D01*
X147113333Y-87216923D01*
X147160952Y-87157400D01*
X147113333Y-87097876D01*
X147113333Y-87216923D01*
X147494285Y-87514542D02*
X148018095Y-87514542D01*
X147494285Y-88347876D01*
X148018095Y-88347876D01*
X148780000Y-88288352D02*
X148684761Y-88347876D01*
X148494285Y-88347876D01*
X148399047Y-88288352D01*
X148351428Y-88169304D01*
X148351428Y-87693114D01*
X148399047Y-87574066D01*
X148494285Y-87514542D01*
X148684761Y-87514542D01*
X148780000Y-87574066D01*
X148827619Y-87693114D01*
X148827619Y-87812161D01*
X148351428Y-87931209D01*
X122896952Y-107524876D02*
X122896952Y-106274876D01*
X123373142Y-106274876D01*
X123492190Y-106334400D01*
X123551714Y-106393923D01*
X123611238Y-106512971D01*
X123611238Y-106691542D01*
X123551714Y-106810590D01*
X123492190Y-106870114D01*
X123373142Y-106929638D01*
X122896952Y-106929638D01*
X124682666Y-106691542D02*
X124682666Y-107524876D01*
X124146952Y-106691542D02*
X124146952Y-107346304D01*
X124206476Y-107465352D01*
X124325523Y-107524876D01*
X124504095Y-107524876D01*
X124623142Y-107465352D01*
X124682666Y-107405828D01*
X125456476Y-107524876D02*
X125337428Y-107465352D01*
X125277904Y-107346304D01*
X125277904Y-106274876D01*
X125873142Y-107465352D02*
X125992190Y-107524876D01*
X126230285Y-107524876D01*
X126349333Y-107465352D01*
X126408857Y-107346304D01*
X126408857Y-107286780D01*
X126349333Y-107167733D01*
X126230285Y-107108209D01*
X126051714Y-107108209D01*
X125932666Y-107048685D01*
X125873142Y-106929638D01*
X125873142Y-106870114D01*
X125932666Y-106751066D01*
X126051714Y-106691542D01*
X126230285Y-106691542D01*
X126349333Y-106751066D01*
X127420761Y-107465352D02*
X127301714Y-107524876D01*
X127063619Y-107524876D01*
X126944571Y-107465352D01*
X126885047Y-107346304D01*
X126885047Y-106870114D01*
X126944571Y-106751066D01*
X127063619Y-106691542D01*
X127301714Y-106691542D01*
X127420761Y-106751066D01*
X127480285Y-106870114D01*
X127480285Y-106989161D01*
X126885047Y-107108209D01*
X128968380Y-107524876D02*
X128968380Y-106274876D01*
X129266000Y-106274876D01*
X129444571Y-106334400D01*
X129563619Y-106453447D01*
X129623142Y-106572495D01*
X129682666Y-106810590D01*
X129682666Y-106989161D01*
X129623142Y-107227257D01*
X129563619Y-107346304D01*
X129444571Y-107465352D01*
X129266000Y-107524876D01*
X128968380Y-107524876D01*
X130218380Y-107524876D02*
X130218380Y-106691542D01*
X130218380Y-106929638D02*
X130277904Y-106810590D01*
X130337428Y-106751066D01*
X130456476Y-106691542D01*
X130575523Y-106691542D01*
X130992190Y-107524876D02*
X130992190Y-106691542D01*
X130992190Y-106274876D02*
X130932666Y-106334400D01*
X130992190Y-106393923D01*
X131051714Y-106334400D01*
X130992190Y-106274876D01*
X130992190Y-106393923D01*
X131587428Y-106691542D02*
X131587428Y-107941542D01*
X131587428Y-106751066D02*
X131706476Y-106691542D01*
X131944571Y-106691542D01*
X132063619Y-106751066D01*
X132123142Y-106810590D01*
X132182666Y-106929638D01*
X132182666Y-107286780D01*
X132123142Y-107405828D01*
X132063619Y-107465352D01*
X131944571Y-107524876D01*
X131706476Y-107524876D01*
X131587428Y-107465352D01*
X132658857Y-107465352D02*
X132777904Y-107524876D01*
X133016000Y-107524876D01*
X133135047Y-107465352D01*
X133194571Y-107346304D01*
X133194571Y-107286780D01*
X133135047Y-107167733D01*
X133016000Y-107108209D01*
X132837428Y-107108209D01*
X132718380Y-107048685D01*
X132658857Y-106929638D01*
X132658857Y-106870114D01*
X132718380Y-106751066D01*
X132837428Y-106691542D01*
X133016000Y-106691542D01*
X133135047Y-106751066D01*
X121578704Y-98404733D02*
X122173942Y-98404733D01*
X121459657Y-98761876D02*
X121876323Y-97511876D01*
X122292990Y-98761876D01*
X122709657Y-98761876D02*
X122709657Y-97928542D01*
X122709657Y-98166638D02*
X122769180Y-98047590D01*
X122828704Y-97988066D01*
X122947752Y-97928542D01*
X123066800Y-97928542D01*
X124019180Y-98761876D02*
X124019180Y-97511876D01*
X124019180Y-98702352D02*
X123900133Y-98761876D01*
X123662038Y-98761876D01*
X123542990Y-98702352D01*
X123483466Y-98642828D01*
X123423942Y-98523780D01*
X123423942Y-98166638D01*
X123483466Y-98047590D01*
X123542990Y-97988066D01*
X123662038Y-97928542D01*
X123900133Y-97928542D01*
X124019180Y-97988066D01*
X125150133Y-97928542D02*
X125150133Y-98761876D01*
X124614419Y-97928542D02*
X124614419Y-98583304D01*
X124673942Y-98702352D01*
X124792990Y-98761876D01*
X124971561Y-98761876D01*
X125090609Y-98702352D01*
X125150133Y-98642828D01*
X125745371Y-98761876D02*
X125745371Y-97928542D01*
X125745371Y-97511876D02*
X125685847Y-97571400D01*
X125745371Y-97630923D01*
X125804895Y-97571400D01*
X125745371Y-97511876D01*
X125745371Y-97630923D01*
X126340609Y-97928542D02*
X126340609Y-98761876D01*
X126340609Y-98047590D02*
X126400133Y-97988066D01*
X126519180Y-97928542D01*
X126697752Y-97928542D01*
X126816800Y-97988066D01*
X126876323Y-98107114D01*
X126876323Y-98761876D01*
X127650133Y-98761876D02*
X127531085Y-98702352D01*
X127471561Y-98642828D01*
X127412038Y-98523780D01*
X127412038Y-98166638D01*
X127471561Y-98047590D01*
X127531085Y-97988066D01*
X127650133Y-97928542D01*
X127828704Y-97928542D01*
X127947752Y-97988066D01*
X128007276Y-98047590D01*
X128066800Y-98166638D01*
X128066800Y-98523780D01*
X128007276Y-98642828D01*
X127947752Y-98702352D01*
X127828704Y-98761876D01*
X127650133Y-98761876D01*
X129554895Y-98761876D02*
X129554895Y-97511876D01*
X130031085Y-97511876D01*
X130150133Y-97571400D01*
X130209657Y-97630923D01*
X130269180Y-97749971D01*
X130269180Y-97928542D01*
X130209657Y-98047590D01*
X130150133Y-98107114D01*
X130031085Y-98166638D01*
X129554895Y-98166638D01*
X130983466Y-98761876D02*
X130864419Y-98702352D01*
X130804895Y-98642828D01*
X130745371Y-98523780D01*
X130745371Y-98166638D01*
X130804895Y-98047590D01*
X130864419Y-97988066D01*
X130983466Y-97928542D01*
X131162038Y-97928542D01*
X131281085Y-97988066D01*
X131340609Y-98047590D01*
X131400133Y-98166638D01*
X131400133Y-98523780D01*
X131340609Y-98642828D01*
X131281085Y-98702352D01*
X131162038Y-98761876D01*
X130983466Y-98761876D01*
X131816800Y-97928542D02*
X132054895Y-98761876D01*
X132292990Y-98166638D01*
X132531085Y-98761876D01*
X132769180Y-97928542D01*
X133721561Y-98702352D02*
X133602514Y-98761876D01*
X133364419Y-98761876D01*
X133245371Y-98702352D01*
X133185847Y-98583304D01*
X133185847Y-98107114D01*
X133245371Y-97988066D01*
X133364419Y-97928542D01*
X133602514Y-97928542D01*
X133721561Y-97988066D01*
X133781085Y-98107114D01*
X133781085Y-98226161D01*
X133185847Y-98345209D01*
X134316800Y-98761876D02*
X134316800Y-97928542D01*
X134316800Y-98166638D02*
X134376323Y-98047590D01*
X134435847Y-97988066D01*
X134554895Y-97928542D01*
X134673942Y-97928542D01*
X122718380Y-89490876D02*
X122718380Y-88240876D01*
X123313619Y-88657542D02*
X123313619Y-89490876D01*
X123313619Y-88776590D02*
X123373142Y-88717066D01*
X123492190Y-88657542D01*
X123670761Y-88657542D01*
X123789809Y-88717066D01*
X123849333Y-88836114D01*
X123849333Y-89490876D01*
X124444571Y-88657542D02*
X124444571Y-89907542D01*
X124444571Y-88717066D02*
X124563619Y-88657542D01*
X124801714Y-88657542D01*
X124920761Y-88717066D01*
X124980285Y-88776590D01*
X125039809Y-88895638D01*
X125039809Y-89252780D01*
X124980285Y-89371828D01*
X124920761Y-89431352D01*
X124801714Y-89490876D01*
X124563619Y-89490876D01*
X124444571Y-89431352D01*
X126111238Y-88657542D02*
X126111238Y-89490876D01*
X125575523Y-88657542D02*
X125575523Y-89312304D01*
X125635047Y-89431352D01*
X125754095Y-89490876D01*
X125932666Y-89490876D01*
X126051714Y-89431352D01*
X126111238Y-89371828D01*
X126527904Y-88657542D02*
X127004095Y-88657542D01*
X126706476Y-88240876D02*
X126706476Y-89312304D01*
X126766000Y-89431352D01*
X126885047Y-89490876D01*
X127004095Y-89490876D01*
X128373142Y-89490876D02*
X128373142Y-88240876D01*
X128849333Y-88240876D01*
X128968380Y-88300400D01*
X129027904Y-88359923D01*
X129087428Y-88478971D01*
X129087428Y-88657542D01*
X129027904Y-88776590D01*
X128968380Y-88836114D01*
X128849333Y-88895638D01*
X128373142Y-88895638D01*
X129801714Y-89490876D02*
X129682666Y-89431352D01*
X129623142Y-89371828D01*
X129563619Y-89252780D01*
X129563619Y-88895638D01*
X129623142Y-88776590D01*
X129682666Y-88717066D01*
X129801714Y-88657542D01*
X129980285Y-88657542D01*
X130099333Y-88717066D01*
X130158857Y-88776590D01*
X130218380Y-88895638D01*
X130218380Y-89252780D01*
X130158857Y-89371828D01*
X130099333Y-89431352D01*
X129980285Y-89490876D01*
X129801714Y-89490876D01*
X130635047Y-88657542D02*
X130873142Y-89490876D01*
X131111238Y-88895638D01*
X131349333Y-89490876D01*
X131587428Y-88657542D01*
X132539809Y-89431352D02*
X132420761Y-89490876D01*
X132182666Y-89490876D01*
X132063619Y-89431352D01*
X132004095Y-89312304D01*
X132004095Y-88836114D01*
X132063619Y-88717066D01*
X132182666Y-88657542D01*
X132420761Y-88657542D01*
X132539809Y-88717066D01*
X132599333Y-88836114D01*
X132599333Y-88955161D01*
X132004095Y-89074209D01*
X133135047Y-89490876D02*
X133135047Y-88657542D01*
X133135047Y-88895638D02*
X133194571Y-88776590D01*
X133254095Y-88717066D01*
X133373142Y-88657542D01*
X133492190Y-88657542D01*
X126600276Y-86841934D02*
X125350276Y-86841934D01*
X125350276Y-86365743D01*
X125409800Y-86246696D01*
X125469323Y-86187172D01*
X125588371Y-86127648D01*
X125766942Y-86127648D01*
X125885990Y-86187172D01*
X125945514Y-86246696D01*
X126005038Y-86365743D01*
X126005038Y-86841934D01*
X125766942Y-85056220D02*
X126600276Y-85056220D01*
X125766942Y-85591934D02*
X126421704Y-85591934D01*
X126540752Y-85532410D01*
X126600276Y-85413362D01*
X126600276Y-85234791D01*
X126540752Y-85115743D01*
X126481228Y-85056220D01*
X126600276Y-84282410D02*
X126540752Y-84401458D01*
X126421704Y-84460981D01*
X125350276Y-84460981D01*
X126540752Y-83865743D02*
X126600276Y-83746696D01*
X126600276Y-83508601D01*
X126540752Y-83389553D01*
X126421704Y-83330029D01*
X126362180Y-83330029D01*
X126243133Y-83389553D01*
X126183609Y-83508601D01*
X126183609Y-83687172D01*
X126124085Y-83806220D01*
X126005038Y-83865743D01*
X125945514Y-83865743D01*
X125826466Y-83806220D01*
X125766942Y-83687172D01*
X125766942Y-83508601D01*
X125826466Y-83389553D01*
X126540752Y-82318124D02*
X126600276Y-82437172D01*
X126600276Y-82675267D01*
X126540752Y-82794315D01*
X126421704Y-82853839D01*
X125945514Y-82853839D01*
X125826466Y-82794315D01*
X125766942Y-82675267D01*
X125766942Y-82437172D01*
X125826466Y-82318124D01*
X125945514Y-82258601D01*
X126064561Y-82258601D01*
X126183609Y-82853839D01*
X126600276Y-80115743D02*
X126600276Y-80830029D01*
X126600276Y-80472886D02*
X125350276Y-80472886D01*
X125528847Y-80591934D01*
X125647895Y-80710981D01*
X125707419Y-80830029D01*
X118751676Y-86841934D02*
X117501676Y-86841934D01*
X117501676Y-86365743D01*
X117561200Y-86246696D01*
X117620723Y-86187172D01*
X117739771Y-86127648D01*
X117918342Y-86127648D01*
X118037390Y-86187172D01*
X118096914Y-86246696D01*
X118156438Y-86365743D01*
X118156438Y-86841934D01*
X117918342Y-85056220D02*
X118751676Y-85056220D01*
X117918342Y-85591934D02*
X118573104Y-85591934D01*
X118692152Y-85532410D01*
X118751676Y-85413362D01*
X118751676Y-85234791D01*
X118692152Y-85115743D01*
X118632628Y-85056220D01*
X118751676Y-84282410D02*
X118692152Y-84401458D01*
X118573104Y-84460981D01*
X117501676Y-84460981D01*
X118692152Y-83865743D02*
X118751676Y-83746696D01*
X118751676Y-83508601D01*
X118692152Y-83389553D01*
X118573104Y-83330029D01*
X118513580Y-83330029D01*
X118394533Y-83389553D01*
X118335009Y-83508601D01*
X118335009Y-83687172D01*
X118275485Y-83806220D01*
X118156438Y-83865743D01*
X118096914Y-83865743D01*
X117977866Y-83806220D01*
X117918342Y-83687172D01*
X117918342Y-83508601D01*
X117977866Y-83389553D01*
X118692152Y-82318124D02*
X118751676Y-82437172D01*
X118751676Y-82675267D01*
X118692152Y-82794315D01*
X118573104Y-82853839D01*
X118096914Y-82853839D01*
X117977866Y-82794315D01*
X117918342Y-82675267D01*
X117918342Y-82437172D01*
X117977866Y-82318124D01*
X118096914Y-82258601D01*
X118215961Y-82258601D01*
X118335009Y-82853839D01*
X117620723Y-80830029D02*
X117561200Y-80770505D01*
X117501676Y-80651458D01*
X117501676Y-80353839D01*
X117561200Y-80234791D01*
X117620723Y-80175267D01*
X117739771Y-80115743D01*
X117858819Y-80115743D01*
X118037390Y-80175267D01*
X118751676Y-80889553D01*
X118751676Y-80115743D01*
D11*
X148302000Y-86072000D02*
X148302000Y-84372000D01*
X148302000Y-80552000D02*
X148302000Y-82252000D01*
X143846437Y-80552000D02*
X148302000Y-80552000D01*
X143846437Y-86072000D02*
X148302000Y-86072000D01*
X142782000Y-85007563D02*
X142782000Y-84372000D01*
X142782000Y-81616437D02*
X142782000Y-82252000D01*
X142782000Y-81616437D02*
X143846437Y-80552000D01*
X142782000Y-85007563D02*
X143846437Y-86072000D01*
X141917000Y-81627000D02*
X142542000Y-81627000D01*
X142229500Y-81314500D02*
X142229500Y-81939500D01*
X127243500Y-122208500D02*
X127243500Y-122833500D01*
X126931000Y-122521000D02*
X127556000Y-122521000D01*
X127796000Y-125901563D02*
X128860437Y-126966000D01*
X127796000Y-122510437D02*
X128860437Y-121446000D01*
X127796000Y-122510437D02*
X127796000Y-123146000D01*
X127796000Y-125901563D02*
X127796000Y-125266000D01*
X128860437Y-126966000D02*
X133316000Y-126966000D01*
X128860437Y-121446000D02*
X133316000Y-121446000D01*
X133316000Y-121446000D02*
X133316000Y-123146000D01*
X133316000Y-126966000D02*
X133316000Y-125266000D01*
X110331000Y-118993000D02*
X110331000Y-121343000D01*
X110331000Y-125813000D02*
X110331000Y-123463000D01*
X116086563Y-125813000D02*
X110331000Y-125813000D01*
X116086563Y-118993000D02*
X110331000Y-118993000D01*
X117151000Y-120057437D02*
X117151000Y-121343000D01*
X117151000Y-124748563D02*
X117151000Y-123463000D01*
X117151000Y-124748563D02*
X116086563Y-125813000D01*
X117151000Y-120057437D02*
X116086563Y-118993000D01*
X118178500Y-124250500D02*
X117391000Y-124250500D01*
X117784750Y-124644250D02*
X117784750Y-123856750D01*
X139666000Y-86072000D02*
X139666000Y-84372000D01*
X139666000Y-80552000D02*
X139666000Y-82252000D01*
X135210437Y-80552000D02*
X139666000Y-80552000D01*
X135210437Y-86072000D02*
X139666000Y-86072000D01*
X134146000Y-85007563D02*
X134146000Y-84372000D01*
X134146000Y-81616437D02*
X134146000Y-82252000D01*
X134146000Y-81616437D02*
X135210437Y-80552000D01*
X134146000Y-85007563D02*
X135210437Y-86072000D01*
X133281000Y-81627000D02*
X133906000Y-81627000D01*
X133593500Y-81314500D02*
X133593500Y-81939500D01*
X161056250Y-97834750D02*
X161056250Y-98622250D01*
X160662500Y-98228500D02*
X161450000Y-98228500D01*
X161690000Y-102421563D02*
X162754437Y-103486000D01*
X161690000Y-97730437D02*
X162754437Y-96666000D01*
X161690000Y-97730437D02*
X161690000Y-99016000D01*
X161690000Y-102421563D02*
X161690000Y-101136000D01*
X162754437Y-103486000D02*
X168510000Y-103486000D01*
X162754437Y-96666000D02*
X168510000Y-96666000D01*
X168510000Y-96666000D02*
X168510000Y-99016000D01*
X168510000Y-103486000D02*
X168510000Y-101136000D01*
X158350000Y-103486000D02*
X158350000Y-101136000D01*
X158350000Y-96666000D02*
X158350000Y-99016000D01*
X152594437Y-96666000D02*
X158350000Y-96666000D01*
X152594437Y-103486000D02*
X158350000Y-103486000D01*
X151530000Y-102421563D02*
X151530000Y-101136000D01*
X151530000Y-97730437D02*
X151530000Y-99016000D01*
X151530000Y-97730437D02*
X152594437Y-96666000D01*
X151530000Y-102421563D02*
X152594437Y-103486000D01*
X150502500Y-98228500D02*
X151290000Y-98228500D01*
X150896250Y-97834750D02*
X150896250Y-98622250D01*
X190258000Y-97328000D02*
X190258000Y-96828000D01*
X189518000Y-97328000D02*
X190258000Y-97328000D01*
X185650000Y-80506000D02*
X186046000Y-80901000D01*
X183004000Y-77860000D02*
X183384000Y-78240000D01*
X185932000Y-80255000D02*
X186312000Y-80635000D01*
X183270000Y-77594000D02*
X183666000Y-77989000D01*
X185650000Y-85586000D02*
X186046000Y-85981000D01*
X183004000Y-82940000D02*
X183384000Y-83320000D01*
X185932000Y-85335000D02*
X186312000Y-85715000D01*
X183270000Y-82674000D02*
X183666000Y-83069000D01*
X185650000Y-90666000D02*
X186046000Y-91061000D01*
X183004000Y-88020000D02*
X183384000Y-88400000D01*
X185932000Y-90415000D02*
X186312000Y-90795000D01*
X183270000Y-87754000D02*
X183666000Y-88149000D01*
X185939000Y-96036000D02*
X186046000Y-96142000D01*
X183004000Y-93100000D02*
X183111000Y-93207000D01*
X186205000Y-95770000D02*
X186312000Y-95876000D01*
X183270000Y-92834000D02*
X183377000Y-92941000D01*
X178698000Y-76648000D02*
X190018000Y-76648000D01*
X178698000Y-97088000D02*
X190018000Y-97088000D01*
X190018000Y-97088000D02*
X190018000Y-76648000D01*
X178698000Y-97088000D02*
X178698000Y-76648000D01*
X180758000Y-97088000D02*
X180758000Y-76648000D01*
X186958000Y-97088000D02*
X186958000Y-76648000D01*
X189458000Y-97088000D02*
X189458000Y-76648000D01*
X186838000Y-79248000D02*
G75*
G03*
X186838000Y-79248000I-2180000J0D01*
G01*
X186838000Y-84328000D02*
G75*
G03*
X186838000Y-84328000I-2180000J0D01*
G01*
X186838000Y-89408000D02*
G75*
G03*
X186838000Y-89408000I-2180000J0D01*
G01*
X186838000Y-94488000D02*
G75*
G03*
X186838000Y-94488000I-2180000J0D01*
G01*
X186838000Y-122555000D02*
G75*
G03*
X186838000Y-122555000I-2180000J0D01*
G01*
X186838000Y-117475000D02*
G75*
G03*
X186838000Y-117475000I-2180000J0D01*
G01*
X186838000Y-112395000D02*
G75*
G03*
X186838000Y-112395000I-2180000J0D01*
G01*
X186838000Y-107315000D02*
G75*
G03*
X186838000Y-107315000I-2180000J0D01*
G01*
X189458000Y-125155000D02*
X189458000Y-104715000D01*
X186958000Y-125155000D02*
X186958000Y-104715000D01*
X180758000Y-125155000D02*
X180758000Y-104715000D01*
X178698000Y-125155000D02*
X178698000Y-104715000D01*
X190018000Y-125155000D02*
X190018000Y-104715000D01*
X178698000Y-125155000D02*
X190018000Y-125155000D01*
X178698000Y-104715000D02*
X190018000Y-104715000D01*
X183270000Y-120901000D02*
X183377000Y-121008000D01*
X186205000Y-123837000D02*
X186312000Y-123943000D01*
X183004000Y-121167000D02*
X183111000Y-121274000D01*
X185939000Y-124103000D02*
X186046000Y-124209000D01*
X183270000Y-115821000D02*
X183666000Y-116216000D01*
X185932000Y-118482000D02*
X186312000Y-118862000D01*
X183004000Y-116087000D02*
X183384000Y-116467000D01*
X185650000Y-118733000D02*
X186046000Y-119128000D01*
X183270000Y-110741000D02*
X183666000Y-111136000D01*
X185932000Y-113402000D02*
X186312000Y-113782000D01*
X183004000Y-111007000D02*
X183384000Y-111387000D01*
X185650000Y-113653000D02*
X186046000Y-114048000D01*
X183270000Y-105661000D02*
X183666000Y-106056000D01*
X185932000Y-108322000D02*
X186312000Y-108702000D01*
X183004000Y-105927000D02*
X183384000Y-106307000D01*
X185650000Y-108573000D02*
X186046000Y-108968000D01*
X189518000Y-125395000D02*
X190258000Y-125395000D01*
X190258000Y-125395000D02*
X190258000Y-124895000D01*
X124538000Y-79148600D02*
X123288000Y-79148600D01*
X124538000Y-80398600D02*
X124538000Y-79148600D01*
X120128000Y-84508600D02*
X120628000Y-84508600D01*
X120628000Y-84608600D02*
X120128000Y-84608600D01*
X120628000Y-84408600D02*
X120628000Y-84608600D01*
X120128000Y-84408600D02*
X120628000Y-84408600D01*
X120128000Y-82508600D02*
X120628000Y-82508600D01*
X120628000Y-82608600D02*
X120128000Y-82608600D01*
X120628000Y-82408600D02*
X120628000Y-82608600D01*
X120128000Y-82408600D02*
X120628000Y-82408600D01*
X121628000Y-87568600D02*
X121628000Y-86958600D01*
X122928000Y-87568600D02*
X122928000Y-86958600D01*
X121628000Y-79448600D02*
X121628000Y-80058600D01*
X122928000Y-79448600D02*
X122928000Y-80058600D01*
X123628000Y-85008600D02*
X124238000Y-85008600D01*
X123628000Y-86958600D02*
X123628000Y-85008600D01*
X120128000Y-86958600D02*
X123628000Y-86958600D01*
X120128000Y-80058600D02*
X120128000Y-86958600D01*
X123628000Y-80058600D02*
X120128000Y-80058600D01*
X123628000Y-82008600D02*
X123628000Y-80058600D01*
X124238000Y-82008600D02*
X123628000Y-82008600D01*
X124338000Y-81208600D02*
X124338000Y-80908600D01*
X124438000Y-80908600D02*
X124238000Y-80908600D01*
X124438000Y-81208600D02*
X124438000Y-80908600D01*
X124238000Y-81208600D02*
X124438000Y-81208600D01*
X124238000Y-87568600D02*
X124238000Y-79448600D01*
X119518000Y-87568600D02*
X124238000Y-87568600D01*
X119518000Y-79448600D02*
X119518000Y-87568600D01*
X124238000Y-79448600D02*
X119518000Y-79448600D01*
X132112000Y-79448600D02*
X127392000Y-79448600D01*
X127392000Y-79448600D02*
X127392000Y-87568600D01*
X127392000Y-87568600D02*
X132112000Y-87568600D01*
X132112000Y-87568600D02*
X132112000Y-79448600D01*
X132112000Y-81208600D02*
X132312000Y-81208600D01*
X132312000Y-81208600D02*
X132312000Y-80908600D01*
X132312000Y-80908600D02*
X132112000Y-80908600D01*
X132212000Y-81208600D02*
X132212000Y-80908600D01*
X132112000Y-82008600D02*
X131502000Y-82008600D01*
X131502000Y-82008600D02*
X131502000Y-80058600D01*
X131502000Y-80058600D02*
X128002000Y-80058600D01*
X128002000Y-80058600D02*
X128002000Y-86958600D01*
X128002000Y-86958600D02*
X131502000Y-86958600D01*
X131502000Y-86958600D02*
X131502000Y-85008600D01*
X131502000Y-85008600D02*
X132112000Y-85008600D01*
X130802000Y-79448600D02*
X130802000Y-80058600D01*
X129502000Y-79448600D02*
X129502000Y-80058600D01*
X130802000Y-87568600D02*
X130802000Y-86958600D01*
X129502000Y-87568600D02*
X129502000Y-86958600D01*
X128002000Y-82408600D02*
X128502000Y-82408600D01*
X128502000Y-82408600D02*
X128502000Y-82608600D01*
X128502000Y-82608600D02*
X128002000Y-82608600D01*
X128002000Y-82508600D02*
X128502000Y-82508600D01*
X128002000Y-84408600D02*
X128502000Y-84408600D01*
X128502000Y-84408600D02*
X128502000Y-84608600D01*
X128502000Y-84608600D02*
X128002000Y-84608600D01*
X128002000Y-84508600D02*
X128502000Y-84508600D01*
X132412000Y-80398600D02*
X132412000Y-79148600D01*
X132412000Y-79148600D02*
X131162000Y-79148600D01*
X111182000Y-106708000D02*
X102182000Y-106708000D01*
X102182000Y-106708000D02*
X102182000Y-97508000D01*
X102182000Y-97508000D02*
X116782000Y-97508000D01*
X116782000Y-97508000D02*
X116782000Y-100308000D01*
X116782000Y-103908000D02*
X116782000Y-106708000D01*
X116782000Y-106708000D02*
X114782000Y-106708000D01*
X115282000Y-97268000D02*
X117022000Y-97268000D01*
X117022000Y-97268000D02*
X117022000Y-99008000D01*
X115868000Y-82075000D02*
X109768000Y-82075000D01*
X115868000Y-80975000D02*
X115868000Y-82075000D01*
X109768000Y-76675000D02*
X114768000Y-76675000D01*
X109768000Y-83914000D02*
X114768000Y-83914000D01*
X115868000Y-88214000D02*
X115868000Y-89314000D01*
X115868000Y-89314000D02*
X109768000Y-89314000D01*
X115868000Y-96426000D02*
X109768000Y-96426000D01*
X115868000Y-95326000D02*
X115868000Y-96426000D01*
X109768000Y-91026000D02*
X114768000Y-91026000D01*
X157507000Y-83721752D02*
X157507000Y-83199248D01*
X158977000Y-83721752D02*
X158977000Y-83199248D01*
X159231000Y-109629252D02*
X159231000Y-109106748D01*
X157761000Y-109629252D02*
X157761000Y-109106748D01*
X137310000Y-120024000D02*
X137310000Y-116159000D01*
X137310000Y-111649000D02*
X137310000Y-107784000D01*
X147250000Y-120024000D02*
X147250000Y-116159000D01*
X147250000Y-111649000D02*
X147250000Y-107784000D01*
X137310000Y-120024000D02*
X138909000Y-120024000D01*
X140651000Y-120024000D02*
X141410000Y-120024000D01*
X143151000Y-120024000D02*
X143910000Y-120024000D01*
X145650000Y-120024000D02*
X147250000Y-120024000D01*
X137310000Y-107784000D02*
X147250000Y-107784000D01*
X137310000Y-89242000D02*
X147250000Y-89242000D01*
X145650000Y-101482000D02*
X147250000Y-101482000D01*
X143151000Y-101482000D02*
X143910000Y-101482000D01*
X140651000Y-101482000D02*
X141410000Y-101482000D01*
X137310000Y-101482000D02*
X138909000Y-101482000D01*
X147250000Y-93107000D02*
X147250000Y-89242000D01*
X147250000Y-101482000D02*
X147250000Y-97617000D01*
X137310000Y-93107000D02*
X137310000Y-89242000D01*
X137310000Y-101482000D02*
X137310000Y-97617000D01*
X121666000Y-114806000D02*
X134366000Y-114806000D01*
X121666000Y-108206000D02*
X134366000Y-108206000D01*
X121666000Y-114806000D02*
X121666000Y-108206000D01*
X134366000Y-114806000D02*
X134366000Y-108206000D01*
X134366000Y-105916000D02*
X134366000Y-99316000D01*
X121666000Y-105916000D02*
X121666000Y-99316000D01*
X121666000Y-99316000D02*
X134366000Y-99316000D01*
X121666000Y-105916000D02*
X134366000Y-105916000D01*
X121666000Y-96772000D02*
X134366000Y-96772000D01*
X121666000Y-90172000D02*
X134366000Y-90172000D01*
X121666000Y-96772000D02*
X121666000Y-90172000D01*
X134366000Y-96772000D02*
X134366000Y-90172000D01*
X117202000Y-111882000D02*
X115942000Y-111882000D01*
X110382000Y-111882000D02*
X111642000Y-111882000D01*
X117202000Y-115642000D02*
X117202000Y-111882000D01*
X110382000Y-117892000D02*
X110382000Y-111882000D01*
X118645000Y-118792748D02*
X118645000Y-119315252D01*
X120115000Y-118792748D02*
X120115000Y-119315252D01*
X125736000Y-115198000D02*
X131436000Y-115198000D01*
X125736000Y-119498000D02*
X131436000Y-119498000D01*
X125736000Y-115198000D02*
X125736000Y-119498000D01*
D12*
X145375333Y-79969142D02*
X145327714Y-80016761D01*
X145184857Y-80064380D01*
X145089619Y-80064380D01*
X144946761Y-80016761D01*
X144851523Y-79921523D01*
X144803904Y-79826285D01*
X144756285Y-79635809D01*
X144756285Y-79492952D01*
X144803904Y-79302476D01*
X144851523Y-79207238D01*
X144946761Y-79112000D01*
X145089619Y-79064380D01*
X145184857Y-79064380D01*
X145327714Y-79112000D01*
X145375333Y-79159619D01*
X146327714Y-80064380D02*
X145756285Y-80064380D01*
X146042000Y-80064380D02*
X146042000Y-79064380D01*
X145946761Y-79207238D01*
X145851523Y-79302476D01*
X145756285Y-79350095D01*
X130389333Y-120863142D02*
X130341714Y-120910761D01*
X130198857Y-120958380D01*
X130103619Y-120958380D01*
X129960761Y-120910761D01*
X129865523Y-120815523D01*
X129817904Y-120720285D01*
X129770285Y-120529809D01*
X129770285Y-120386952D01*
X129817904Y-120196476D01*
X129865523Y-120101238D01*
X129960761Y-120006000D01*
X130103619Y-119958380D01*
X130198857Y-119958380D01*
X130341714Y-120006000D01*
X130389333Y-120053619D01*
X130770285Y-120053619D02*
X130817904Y-120006000D01*
X130913142Y-119958380D01*
X131151238Y-119958380D01*
X131246476Y-120006000D01*
X131294095Y-120053619D01*
X131341714Y-120148857D01*
X131341714Y-120244095D01*
X131294095Y-120386952D01*
X130722666Y-120958380D01*
X131341714Y-120958380D01*
X113574333Y-127110142D02*
X113526714Y-127157761D01*
X113383857Y-127205380D01*
X113288619Y-127205380D01*
X113145761Y-127157761D01*
X113050523Y-127062523D01*
X113002904Y-126967285D01*
X112955285Y-126776809D01*
X112955285Y-126633952D01*
X113002904Y-126443476D01*
X113050523Y-126348238D01*
X113145761Y-126253000D01*
X113288619Y-126205380D01*
X113383857Y-126205380D01*
X113526714Y-126253000D01*
X113574333Y-126300619D01*
X113907666Y-126205380D02*
X114526714Y-126205380D01*
X114193380Y-126586333D01*
X114336238Y-126586333D01*
X114431476Y-126633952D01*
X114479095Y-126681571D01*
X114526714Y-126776809D01*
X114526714Y-127014904D01*
X114479095Y-127110142D01*
X114431476Y-127157761D01*
X114336238Y-127205380D01*
X114050523Y-127205380D01*
X113955285Y-127157761D01*
X113907666Y-127110142D01*
X136739333Y-79969142D02*
X136691714Y-80016761D01*
X136548857Y-80064380D01*
X136453619Y-80064380D01*
X136310761Y-80016761D01*
X136215523Y-79921523D01*
X136167904Y-79826285D01*
X136120285Y-79635809D01*
X136120285Y-79492952D01*
X136167904Y-79302476D01*
X136215523Y-79207238D01*
X136310761Y-79112000D01*
X136453619Y-79064380D01*
X136548857Y-79064380D01*
X136691714Y-79112000D01*
X136739333Y-79159619D01*
X137596476Y-79397714D02*
X137596476Y-80064380D01*
X137358380Y-79016761D02*
X137120285Y-79731047D01*
X137739333Y-79731047D01*
X164933333Y-96083142D02*
X164885714Y-96130761D01*
X164742857Y-96178380D01*
X164647619Y-96178380D01*
X164504761Y-96130761D01*
X164409523Y-96035523D01*
X164361904Y-95940285D01*
X164314285Y-95749809D01*
X164314285Y-95606952D01*
X164361904Y-95416476D01*
X164409523Y-95321238D01*
X164504761Y-95226000D01*
X164647619Y-95178380D01*
X164742857Y-95178380D01*
X164885714Y-95226000D01*
X164933333Y-95273619D01*
X165790476Y-95178380D02*
X165600000Y-95178380D01*
X165504761Y-95226000D01*
X165457142Y-95273619D01*
X165361904Y-95416476D01*
X165314285Y-95606952D01*
X165314285Y-95987904D01*
X165361904Y-96083142D01*
X165409523Y-96130761D01*
X165504761Y-96178380D01*
X165695238Y-96178380D01*
X165790476Y-96130761D01*
X165838095Y-96083142D01*
X165885714Y-95987904D01*
X165885714Y-95749809D01*
X165838095Y-95654571D01*
X165790476Y-95606952D01*
X165695238Y-95559333D01*
X165504761Y-95559333D01*
X165409523Y-95606952D01*
X165361904Y-95654571D01*
X165314285Y-95749809D01*
X154773333Y-96083142D02*
X154725714Y-96130761D01*
X154582857Y-96178380D01*
X154487619Y-96178380D01*
X154344761Y-96130761D01*
X154249523Y-96035523D01*
X154201904Y-95940285D01*
X154154285Y-95749809D01*
X154154285Y-95606952D01*
X154201904Y-95416476D01*
X154249523Y-95321238D01*
X154344761Y-95226000D01*
X154487619Y-95178380D01*
X154582857Y-95178380D01*
X154725714Y-95226000D01*
X154773333Y-95273619D01*
X155106666Y-95178380D02*
X155773333Y-95178380D01*
X155344761Y-96178380D01*
X177150380Y-87201333D02*
X177864666Y-87201333D01*
X178007523Y-87248952D01*
X178102761Y-87344190D01*
X178150380Y-87487047D01*
X178150380Y-87582285D01*
X178150380Y-86201333D02*
X178150380Y-86772761D01*
X178150380Y-86487047D02*
X177150380Y-86487047D01*
X177293238Y-86582285D01*
X177388476Y-86677523D01*
X177436095Y-86772761D01*
X177150380Y-115268333D02*
X177864666Y-115268333D01*
X178007523Y-115315952D01*
X178102761Y-115411190D01*
X178150380Y-115554047D01*
X178150380Y-115649285D01*
X177245619Y-114839761D02*
X177198000Y-114792142D01*
X177150380Y-114696904D01*
X177150380Y-114458809D01*
X177198000Y-114363571D01*
X177245619Y-114315952D01*
X177340857Y-114268333D01*
X177436095Y-114268333D01*
X177578952Y-114315952D01*
X178150380Y-114887380D01*
X178150380Y-114268333D01*
X124928380Y-80063933D02*
X125642666Y-80063933D01*
X125785523Y-80111552D01*
X125880761Y-80206790D01*
X125928380Y-80349647D01*
X125928380Y-80444885D01*
X124928380Y-79682980D02*
X124928380Y-79063933D01*
X125309333Y-79397266D01*
X125309333Y-79254409D01*
X125356952Y-79159171D01*
X125404571Y-79111552D01*
X125499809Y-79063933D01*
X125737904Y-79063933D01*
X125833142Y-79111552D01*
X125880761Y-79159171D01*
X125928380Y-79254409D01*
X125928380Y-79540123D01*
X125880761Y-79635361D01*
X125833142Y-79682980D01*
X132802380Y-80063933D02*
X133516666Y-80063933D01*
X133659523Y-80111552D01*
X133754761Y-80206790D01*
X133802380Y-80349647D01*
X133802380Y-80444885D01*
X133135714Y-79159171D02*
X133802380Y-79159171D01*
X132754761Y-79397266D02*
X133469047Y-79635361D01*
X133469047Y-79016314D01*
X108835866Y-107529380D02*
X108835866Y-108243666D01*
X108788247Y-108386523D01*
X108693009Y-108481761D01*
X108550152Y-108529380D01*
X108454914Y-108529380D01*
X109788247Y-107529380D02*
X109312057Y-107529380D01*
X109264438Y-108005571D01*
X109312057Y-107957952D01*
X109407295Y-107910333D01*
X109645390Y-107910333D01*
X109740628Y-107957952D01*
X109788247Y-108005571D01*
X109835866Y-108100809D01*
X109835866Y-108338904D01*
X109788247Y-108434142D01*
X109740628Y-108481761D01*
X109645390Y-108529380D01*
X109407295Y-108529380D01*
X109312057Y-108481761D01*
X109264438Y-108434142D01*
X111148952Y-76095380D02*
X110672761Y-76095380D01*
X110672761Y-75095380D01*
X111482285Y-75571571D02*
X111815619Y-75571571D01*
X111958476Y-76095380D02*
X111482285Y-76095380D01*
X111482285Y-75095380D01*
X111958476Y-75095380D01*
X112387047Y-76095380D02*
X112387047Y-75095380D01*
X112625142Y-75095380D01*
X112768000Y-75143000D01*
X112863238Y-75238238D01*
X112910857Y-75333476D01*
X112958476Y-75523952D01*
X112958476Y-75666809D01*
X112910857Y-75857285D01*
X112863238Y-75952523D01*
X112768000Y-76047761D01*
X112625142Y-76095380D01*
X112387047Y-76095380D01*
X113910857Y-76095380D02*
X113339428Y-76095380D01*
X113625142Y-76095380D02*
X113625142Y-75095380D01*
X113529904Y-75238238D01*
X113434666Y-75333476D01*
X113339428Y-75381095D01*
X111148952Y-83510380D02*
X110672761Y-83510380D01*
X110672761Y-82510380D01*
X111482285Y-82986571D02*
X111815619Y-82986571D01*
X111958476Y-83510380D02*
X111482285Y-83510380D01*
X111482285Y-82510380D01*
X111958476Y-82510380D01*
X112387047Y-83510380D02*
X112387047Y-82510380D01*
X112625142Y-82510380D01*
X112768000Y-82558000D01*
X112863238Y-82653238D01*
X112910857Y-82748476D01*
X112958476Y-82938952D01*
X112958476Y-83081809D01*
X112910857Y-83272285D01*
X112863238Y-83367523D01*
X112768000Y-83462761D01*
X112625142Y-83510380D01*
X112387047Y-83510380D01*
X113339428Y-82605619D02*
X113387047Y-82558000D01*
X113482285Y-82510380D01*
X113720380Y-82510380D01*
X113815619Y-82558000D01*
X113863238Y-82605619D01*
X113910857Y-82700857D01*
X113910857Y-82796095D01*
X113863238Y-82938952D01*
X113291809Y-83510380D01*
X113910857Y-83510380D01*
X111275952Y-90622380D02*
X110799761Y-90622380D01*
X110799761Y-89622380D01*
X111609285Y-90098571D02*
X111942619Y-90098571D01*
X112085476Y-90622380D02*
X111609285Y-90622380D01*
X111609285Y-89622380D01*
X112085476Y-89622380D01*
X112514047Y-90622380D02*
X112514047Y-89622380D01*
X112752142Y-89622380D01*
X112895000Y-89670000D01*
X112990238Y-89765238D01*
X113037857Y-89860476D01*
X113085476Y-90050952D01*
X113085476Y-90193809D01*
X113037857Y-90384285D01*
X112990238Y-90479523D01*
X112895000Y-90574761D01*
X112752142Y-90622380D01*
X112514047Y-90622380D01*
X113418809Y-89622380D02*
X114037857Y-89622380D01*
X113704523Y-90003333D01*
X113847380Y-90003333D01*
X113942619Y-90050952D01*
X113990238Y-90098571D01*
X114037857Y-90193809D01*
X114037857Y-90431904D01*
X113990238Y-90527142D01*
X113942619Y-90574761D01*
X113847380Y-90622380D01*
X113561666Y-90622380D01*
X113466428Y-90574761D01*
X113418809Y-90527142D01*
X157014380Y-83627166D02*
X156538190Y-83960500D01*
X157014380Y-84198595D02*
X156014380Y-84198595D01*
X156014380Y-83817642D01*
X156062000Y-83722404D01*
X156109619Y-83674785D01*
X156204857Y-83627166D01*
X156347714Y-83627166D01*
X156442952Y-83674785D01*
X156490571Y-83722404D01*
X156538190Y-83817642D01*
X156538190Y-84198595D01*
X157014380Y-82674785D02*
X157014380Y-83246214D01*
X157014380Y-82960500D02*
X156014380Y-82960500D01*
X156157238Y-83055738D01*
X156252476Y-83150976D01*
X156300095Y-83246214D01*
X157268380Y-109534666D02*
X156792190Y-109868000D01*
X157268380Y-110106095D02*
X156268380Y-110106095D01*
X156268380Y-109725142D01*
X156316000Y-109629904D01*
X156363619Y-109582285D01*
X156458857Y-109534666D01*
X156601714Y-109534666D01*
X156696952Y-109582285D01*
X156744571Y-109629904D01*
X156792190Y-109725142D01*
X156792190Y-110106095D01*
X156363619Y-109153714D02*
X156316000Y-109106095D01*
X156268380Y-109010857D01*
X156268380Y-108772761D01*
X156316000Y-108677523D01*
X156363619Y-108629904D01*
X156458857Y-108582285D01*
X156554095Y-108582285D01*
X156696952Y-108629904D01*
X157268380Y-109201333D01*
X157268380Y-108582285D01*
X148610580Y-119378338D02*
X148134390Y-119711671D01*
X148610580Y-119949766D02*
X147610580Y-119949766D01*
X147610580Y-119568814D01*
X147658200Y-119473576D01*
X147705819Y-119425957D01*
X147801057Y-119378338D01*
X147943914Y-119378338D01*
X148039152Y-119425957D01*
X148086771Y-119473576D01*
X148134390Y-119568814D01*
X148134390Y-119949766D01*
X147610580Y-119092623D02*
X148610580Y-118759290D01*
X147610580Y-118425957D01*
X148610580Y-117568814D02*
X148610580Y-118140242D01*
X148610580Y-117854528D02*
X147610580Y-117854528D01*
X147753438Y-117949766D01*
X147848676Y-118045004D01*
X147896295Y-118140242D01*
X148534380Y-100671238D02*
X148058190Y-101004571D01*
X148534380Y-101242666D02*
X147534380Y-101242666D01*
X147534380Y-100861714D01*
X147582000Y-100766476D01*
X147629619Y-100718857D01*
X147724857Y-100671238D01*
X147867714Y-100671238D01*
X147962952Y-100718857D01*
X148010571Y-100766476D01*
X148058190Y-100861714D01*
X148058190Y-101242666D01*
X147534380Y-100385523D02*
X148534380Y-100052190D01*
X147534380Y-99718857D01*
X147629619Y-99433142D02*
X147582000Y-99385523D01*
X147534380Y-99290285D01*
X147534380Y-99052190D01*
X147582000Y-98956952D01*
X147629619Y-98909333D01*
X147724857Y-98861714D01*
X147820095Y-98861714D01*
X147962952Y-98909333D01*
X148534380Y-99480761D01*
X148534380Y-98861714D01*
X120927761Y-112839333D02*
X120975380Y-112696476D01*
X120975380Y-112458380D01*
X120927761Y-112363142D01*
X120880142Y-112315523D01*
X120784904Y-112267904D01*
X120689666Y-112267904D01*
X120594428Y-112315523D01*
X120546809Y-112363142D01*
X120499190Y-112458380D01*
X120451571Y-112648857D01*
X120403952Y-112744095D01*
X120356333Y-112791714D01*
X120261095Y-112839333D01*
X120165857Y-112839333D01*
X120070619Y-112791714D01*
X120023000Y-112744095D01*
X119975380Y-112648857D01*
X119975380Y-112410761D01*
X120023000Y-112267904D01*
X119975380Y-111934571D02*
X120975380Y-111696476D01*
X120261095Y-111506000D01*
X120975380Y-111315523D01*
X119975380Y-111077428D01*
X120975380Y-110172666D02*
X120975380Y-110744095D01*
X120975380Y-110458380D02*
X119975380Y-110458380D01*
X120118238Y-110553619D01*
X120213476Y-110648857D01*
X120261095Y-110744095D01*
X120927761Y-103949333D02*
X120975380Y-103806476D01*
X120975380Y-103568380D01*
X120927761Y-103473142D01*
X120880142Y-103425523D01*
X120784904Y-103377904D01*
X120689666Y-103377904D01*
X120594428Y-103425523D01*
X120546809Y-103473142D01*
X120499190Y-103568380D01*
X120451571Y-103758857D01*
X120403952Y-103854095D01*
X120356333Y-103901714D01*
X120261095Y-103949333D01*
X120165857Y-103949333D01*
X120070619Y-103901714D01*
X120023000Y-103854095D01*
X119975380Y-103758857D01*
X119975380Y-103520761D01*
X120023000Y-103377904D01*
X119975380Y-103044571D02*
X120975380Y-102806476D01*
X120261095Y-102616000D01*
X120975380Y-102425523D01*
X119975380Y-102187428D01*
X120070619Y-101854095D02*
X120023000Y-101806476D01*
X119975380Y-101711238D01*
X119975380Y-101473142D01*
X120023000Y-101377904D01*
X120070619Y-101330285D01*
X120165857Y-101282666D01*
X120261095Y-101282666D01*
X120403952Y-101330285D01*
X120975380Y-101901714D01*
X120975380Y-101282666D01*
X120953161Y-94805333D02*
X121000780Y-94662476D01*
X121000780Y-94424380D01*
X120953161Y-94329142D01*
X120905542Y-94281523D01*
X120810304Y-94233904D01*
X120715066Y-94233904D01*
X120619828Y-94281523D01*
X120572209Y-94329142D01*
X120524590Y-94424380D01*
X120476971Y-94614857D01*
X120429352Y-94710095D01*
X120381733Y-94757714D01*
X120286495Y-94805333D01*
X120191257Y-94805333D01*
X120096019Y-94757714D01*
X120048400Y-94710095D01*
X120000780Y-94614857D01*
X120000780Y-94376761D01*
X120048400Y-94233904D01*
X120000780Y-93900571D02*
X121000780Y-93662476D01*
X120286495Y-93472000D01*
X121000780Y-93281523D01*
X120000780Y-93043428D01*
X120000780Y-92757714D02*
X120000780Y-92138666D01*
X120381733Y-92472000D01*
X120381733Y-92329142D01*
X120429352Y-92233904D01*
X120476971Y-92186285D01*
X120572209Y-92138666D01*
X120810304Y-92138666D01*
X120905542Y-92186285D01*
X120953161Y-92233904D01*
X121000780Y-92329142D01*
X121000780Y-92614857D01*
X120953161Y-92710095D01*
X120905542Y-92757714D01*
X108744380Y-114553904D02*
X109553904Y-114553904D01*
X109649142Y-114506285D01*
X109696761Y-114458666D01*
X109744380Y-114363428D01*
X109744380Y-114172952D01*
X109696761Y-114077714D01*
X109649142Y-114030095D01*
X109553904Y-113982476D01*
X108744380Y-113982476D01*
X109744380Y-112982476D02*
X109744380Y-113553904D01*
X109744380Y-113268190D02*
X108744380Y-113268190D01*
X108887238Y-113363428D01*
X108982476Y-113458666D01*
X109030095Y-113553904D01*
X121417142Y-119220666D02*
X121464761Y-119268285D01*
X121512380Y-119411142D01*
X121512380Y-119506380D01*
X121464761Y-119649238D01*
X121369523Y-119744476D01*
X121274285Y-119792095D01*
X121083809Y-119839714D01*
X120940952Y-119839714D01*
X120750476Y-119792095D01*
X120655238Y-119744476D01*
X120560000Y-119649238D01*
X120512380Y-119506380D01*
X120512380Y-119411142D01*
X120560000Y-119268285D01*
X120607619Y-119220666D01*
X120512380Y-118315904D02*
X120512380Y-118792095D01*
X120988571Y-118839714D01*
X120940952Y-118792095D01*
X120893333Y-118696857D01*
X120893333Y-118458761D01*
X120940952Y-118363523D01*
X120988571Y-118315904D01*
X121083809Y-118268285D01*
X121321904Y-118268285D01*
X121417142Y-118315904D01*
X121464761Y-118363523D01*
X121512380Y-118458761D01*
X121512380Y-118696857D01*
X121464761Y-118792095D01*
X121417142Y-118839714D01*
X133373904Y-117800380D02*
X133373904Y-116800380D01*
X133612000Y-116800380D01*
X133754857Y-116848000D01*
X133850095Y-116943238D01*
X133897714Y-117038476D01*
X133945333Y-117228952D01*
X133945333Y-117371809D01*
X133897714Y-117562285D01*
X133850095Y-117657523D01*
X133754857Y-117752761D01*
X133612000Y-117800380D01*
X133373904Y-117800380D01*
X134897714Y-117800380D02*
X134326285Y-117800380D01*
X134612000Y-117800380D02*
X134612000Y-116800380D01*
X134516761Y-116943238D01*
X134421523Y-117038476D01*
X134326285Y-117086095D01*
M02*
