G04 #@! TF.GenerationSoftware,KiCad,Pcbnew,5.1.9-73d0e3b20d~88~ubuntu18.04.1*
G04 #@! TF.CreationDate,2021-02-13T22:05:11-05:00*
G04 #@! TF.ProjectId,driver,64726976-6572-42e6-9b69-6361645f7063,v1.0.0*
G04 #@! TF.SameCoordinates,Original*
G04 #@! TF.FileFunction,Copper,L2,Bot*
G04 #@! TF.FilePolarity,Positive*
%FSLAX46Y46*%
G04 Gerber Fmt 4.6, Leading zero omitted, Abs format (unit mm)*
G04 Created by KiCad (PCBNEW 5.1.9-73d0e3b20d~88~ubuntu18.04.1) date 2021-02-13 22:05:11*
%MOMM*%
%LPD*%
G01*
G04 APERTURE LIST*
G04 #@! TA.AperFunction,ComponentPad*
%ADD10O,1.727200X1.727200*%
G04 #@! TD*
G04 #@! TA.AperFunction,ComponentPad*
%ADD11R,1.524000X1.524000*%
G04 #@! TD*
G04 #@! TA.AperFunction,ComponentPad*
%ADD12C,1.524000*%
G04 #@! TD*
G04 #@! TA.AperFunction,ComponentPad*
%ADD13C,0.800000*%
G04 #@! TD*
G04 #@! TA.AperFunction,ComponentPad*
%ADD14C,6.400000*%
G04 #@! TD*
G04 #@! TA.AperFunction,ComponentPad*
%ADD15C,2.600000*%
G04 #@! TD*
G04 #@! TA.AperFunction,ComponentPad*
%ADD16R,2.600000X2.600000*%
G04 #@! TD*
G04 #@! TA.AperFunction,ComponentPad*
%ADD17O,1.750000X1.200000*%
G04 #@! TD*
G04 #@! TA.AperFunction,ComponentPad*
%ADD18C,1.800000*%
G04 #@! TD*
G04 #@! TA.AperFunction,WasherPad*
%ADD19C,4.000000*%
G04 #@! TD*
G04 #@! TA.AperFunction,ComponentPad*
%ADD20C,3.700000*%
G04 #@! TD*
G04 #@! TA.AperFunction,ComponentPad*
%ADD21R,3.700000X3.700000*%
G04 #@! TD*
G04 #@! TA.AperFunction,ViaPad*
%ADD22C,0.800000*%
G04 #@! TD*
G04 #@! TA.AperFunction,Conductor*
%ADD23C,0.250000*%
G04 #@! TD*
G04 #@! TA.AperFunction,Conductor*
%ADD24C,0.750000*%
G04 #@! TD*
G04 #@! TA.AperFunction,Conductor*
%ADD25C,0.254000*%
G04 #@! TD*
G04 #@! TA.AperFunction,Conductor*
%ADD26C,0.100000*%
G04 #@! TD*
G04 APERTURE END LIST*
D10*
X171525000Y-125170000D03*
X168985000Y-125170000D03*
X166445000Y-125170000D03*
X163905000Y-125170000D03*
X161365000Y-125170000D03*
X135965000Y-125170000D03*
X142061000Y-76910000D03*
X139521000Y-76910000D03*
X136981000Y-76910000D03*
X131901000Y-76910000D03*
X129361000Y-76910000D03*
X126821000Y-76910000D03*
X144601000Y-76910000D03*
X147141000Y-76910000D03*
X149681000Y-76910000D03*
X134441000Y-76910000D03*
X153745000Y-76910000D03*
X156285000Y-76910000D03*
X158825000Y-76910000D03*
X161365000Y-76910000D03*
X163905000Y-76910000D03*
X166445000Y-76910000D03*
X168985000Y-76910000D03*
X171525000Y-76910000D03*
X138505000Y-125170000D03*
X141045000Y-125170000D03*
X143585000Y-125170000D03*
X146125000Y-125170000D03*
X148665000Y-125170000D03*
X151205000Y-125170000D03*
X153745000Y-125170000D03*
X158825000Y-125170000D03*
D11*
X150876000Y-106172000D03*
D12*
X153416000Y-106172000D03*
X155956000Y-106172000D03*
X158496000Y-106172000D03*
X161036000Y-106172000D03*
X163576000Y-106172000D03*
X166116000Y-106172000D03*
X168656000Y-106172000D03*
X168656000Y-118872000D03*
X166116000Y-118872000D03*
X163576000Y-118872000D03*
X161036000Y-118872000D03*
X158496000Y-118872000D03*
X155956000Y-118872000D03*
X153416000Y-118872000D03*
X150876000Y-118872000D03*
X150622000Y-92964000D03*
X153162000Y-92964000D03*
X155702000Y-92964000D03*
X158242000Y-92964000D03*
X160782000Y-92964000D03*
X163322000Y-92964000D03*
X165862000Y-92964000D03*
X168402000Y-92964000D03*
X168402000Y-80264000D03*
X165862000Y-80264000D03*
X163322000Y-80264000D03*
X160782000Y-80264000D03*
X158242000Y-80264000D03*
X155702000Y-80264000D03*
X153162000Y-80264000D03*
D11*
X150622000Y-80264000D03*
D10*
X158825000Y-125170000D03*
X153745000Y-125170000D03*
X151205000Y-125170000D03*
X148665000Y-125170000D03*
X146125000Y-125170000D03*
X143585000Y-125170000D03*
X141045000Y-125170000D03*
X138505000Y-125170000D03*
X171525000Y-76910000D03*
X168985000Y-76910000D03*
X166445000Y-76910000D03*
X163905000Y-76910000D03*
X161365000Y-76910000D03*
X158825000Y-76910000D03*
X156285000Y-76910000D03*
X153745000Y-76910000D03*
X134441000Y-76910000D03*
X149681000Y-76910000D03*
X147141000Y-76910000D03*
X144601000Y-76910000D03*
X126821000Y-76910000D03*
X129361000Y-76910000D03*
X131901000Y-76910000D03*
X136981000Y-76910000D03*
X139521000Y-76910000D03*
X142061000Y-76910000D03*
X135965000Y-125170000D03*
X161365000Y-125170000D03*
X163905000Y-125170000D03*
X166445000Y-125170000D03*
X168985000Y-125170000D03*
X171525000Y-125170000D03*
D13*
X175762056Y-90452944D03*
X174065000Y-89750000D03*
X172367944Y-90452944D03*
X171665000Y-92150000D03*
X172367944Y-93847056D03*
X174065000Y-94550000D03*
X175762056Y-93847056D03*
X176465000Y-92150000D03*
D14*
X174065000Y-92150000D03*
X121995000Y-125170000D03*
D13*
X124395000Y-125170000D03*
X123692056Y-126867056D03*
X121995000Y-127570000D03*
X120297944Y-126867056D03*
X119595000Y-125170000D03*
X120297944Y-123472944D03*
X121995000Y-122770000D03*
X123692056Y-123472944D03*
X175762056Y-118392944D03*
X174065000Y-117690000D03*
X172367944Y-118392944D03*
X171665000Y-120090000D03*
X172367944Y-121787056D03*
X174065000Y-122490000D03*
X175762056Y-121787056D03*
X176465000Y-120090000D03*
D14*
X174065000Y-120090000D03*
D15*
X184658000Y-79248000D03*
X184658000Y-84328000D03*
X184658000Y-89408000D03*
D16*
X184658000Y-94488000D03*
X184658000Y-122555000D03*
D15*
X184658000Y-117475000D03*
X184658000Y-112395000D03*
X184658000Y-107315000D03*
D17*
X122428000Y-85508600D03*
X122428000Y-83508600D03*
G04 #@! TA.AperFunction,ComponentPad*
G36*
G01*
X121802999Y-80908600D02*
X123053001Y-80908600D01*
G75*
G02*
X123303000Y-81158599I0J-249999D01*
G01*
X123303000Y-81858601D01*
G75*
G02*
X123053001Y-82108600I-249999J0D01*
G01*
X121802999Y-82108600D01*
G75*
G02*
X121553000Y-81858601I0J249999D01*
G01*
X121553000Y-81158599D01*
G75*
G02*
X121802999Y-80908600I249999J0D01*
G01*
G37*
G04 #@! TD.AperFunction*
G04 #@! TA.AperFunction,ComponentPad*
G36*
G01*
X129676999Y-80908600D02*
X130927001Y-80908600D01*
G75*
G02*
X131177000Y-81158599I0J-249999D01*
G01*
X131177000Y-81858601D01*
G75*
G02*
X130927001Y-82108600I-249999J0D01*
G01*
X129676999Y-82108600D01*
G75*
G02*
X129427000Y-81858601I0J249999D01*
G01*
X129427000Y-81158599D01*
G75*
G02*
X129676999Y-80908600I249999J0D01*
G01*
G37*
G04 #@! TD.AperFunction*
X130302000Y-83508600D03*
X130302000Y-85508600D03*
D16*
X115982000Y-102108000D03*
D15*
X109982000Y-102108000D03*
X112982000Y-106808000D03*
D18*
X139780000Y-120904000D03*
X142280000Y-120904000D03*
X144780000Y-120904000D03*
D19*
X137880000Y-113904000D03*
X146680000Y-113904000D03*
X146680000Y-95362000D03*
X137880000Y-95362000D03*
D18*
X144780000Y-102362000D03*
X142280000Y-102362000D03*
X139780000Y-102362000D03*
D20*
X128016000Y-111506000D03*
D21*
X123316000Y-111506000D03*
D20*
X132716000Y-111506000D03*
X132716000Y-102616000D03*
D21*
X123316000Y-102616000D03*
D20*
X128016000Y-102616000D03*
X128016000Y-93472000D03*
D21*
X123316000Y-93472000D03*
D20*
X132716000Y-93472000D03*
D22*
X116586000Y-81127900D03*
X116379600Y-79587500D03*
X105029000Y-104419400D03*
X105257600Y-99695000D03*
X175869600Y-77292200D03*
X189788800Y-75336400D03*
X189026800Y-126644400D03*
X177571400Y-123977400D03*
X134315200Y-120624600D03*
X109601000Y-126644400D03*
X127990600Y-107137200D03*
X141986000Y-87553800D03*
X122453400Y-75717400D03*
X160426400Y-95148400D03*
X155625800Y-113665000D03*
X173710600Y-105460800D03*
X118414800Y-113182400D03*
X185597800Y-100863400D03*
X112043000Y-84136500D03*
X116379600Y-88397500D03*
D23*
X171525000Y-125170000D02*
X170336100Y-125170000D01*
X116586000Y-81127900D02*
X118294700Y-82836600D01*
X118294700Y-82836600D02*
X118294700Y-111310100D01*
X118294700Y-111310100D02*
X134291600Y-127307000D01*
X134291600Y-127307000D02*
X171789300Y-127307000D01*
X171789300Y-127307000D02*
X173164400Y-125931900D01*
X173164400Y-125931900D02*
X173164400Y-124394600D01*
X173164400Y-124394600D02*
X172300400Y-123530600D01*
X172300400Y-123530600D02*
X168919300Y-123530600D01*
X168919300Y-123530600D02*
X167796000Y-124653900D01*
X167796000Y-124653900D02*
X167796000Y-125673200D01*
X167796000Y-125673200D02*
X168481700Y-126358900D01*
X168481700Y-126358900D02*
X169518800Y-126358900D01*
X169518800Y-126358900D02*
X170336100Y-125541600D01*
X170336100Y-125541600D02*
X170336100Y-125170000D01*
X116379600Y-79587500D02*
X120089900Y-83297800D01*
X120089900Y-83297800D02*
X120089900Y-112461400D01*
X120089900Y-112461400D02*
X134485100Y-126856600D01*
X134485100Y-126856600D02*
X171553800Y-126856600D01*
X171553800Y-126856600D02*
X172714000Y-125696400D01*
X172714000Y-125696400D02*
X172714000Y-124668800D01*
X172714000Y-124668800D02*
X172026200Y-123981000D01*
X172026200Y-123981000D02*
X170174000Y-123981000D01*
X170174000Y-123981000D02*
X168985000Y-125170000D01*
X144780000Y-120904000D02*
X146125000Y-122249000D01*
X146125000Y-122249000D02*
X146125000Y-125170000D01*
X144780000Y-102362000D02*
X153416000Y-110998000D01*
X153416000Y-110998000D02*
X153416000Y-118872000D01*
X161365000Y-125170000D02*
X160176100Y-125170000D01*
X122428000Y-85508600D02*
X122428000Y-84583300D01*
X122428000Y-84583300D02*
X130968200Y-84583300D01*
X130968200Y-84583300D02*
X141030000Y-94645100D01*
X141030000Y-94645100D02*
X141030000Y-104227100D01*
X141030000Y-104227100D02*
X149760800Y-112957900D01*
X149760800Y-112957900D02*
X149760800Y-119319500D01*
X149760800Y-119319500D02*
X154422400Y-123981100D01*
X154422400Y-123981100D02*
X159358800Y-123981100D01*
X159358800Y-123981100D02*
X160176100Y-124798400D01*
X160176100Y-124798400D02*
X160176100Y-125170000D01*
X163905000Y-125170000D02*
X162716100Y-125170000D01*
X142280000Y-102362000D02*
X152146000Y-112228000D01*
X152146000Y-112228000D02*
X152146000Y-119172100D01*
X152146000Y-119172100D02*
X156427800Y-123453900D01*
X156427800Y-123453900D02*
X161371500Y-123453900D01*
X161371500Y-123453900D02*
X162716100Y-124798500D01*
X162716100Y-124798500D02*
X162716100Y-125170000D01*
X156285000Y-76910000D02*
X157473900Y-76910000D01*
X157473900Y-76910000D02*
X157473900Y-76538500D01*
X157473900Y-76538500D02*
X158303500Y-75708900D01*
X158303500Y-75708900D02*
X164437800Y-75708900D01*
X164437800Y-75708900D02*
X165234900Y-76506000D01*
X165234900Y-76506000D02*
X165234900Y-77447500D01*
X165234900Y-77447500D02*
X168051400Y-80264000D01*
X168051400Y-80264000D02*
X168402000Y-80264000D01*
X163905000Y-76910000D02*
X162716100Y-76910000D01*
X162716100Y-76910000D02*
X162716100Y-77281600D01*
X162716100Y-77281600D02*
X161898800Y-78098900D01*
X161898800Y-78098900D02*
X160407100Y-78098900D01*
X160407100Y-78098900D02*
X158242000Y-80264000D01*
X161365000Y-76910000D02*
X160176100Y-76910000D01*
X160176100Y-76910000D02*
X160176100Y-77281600D01*
X160176100Y-77281600D02*
X159358800Y-78098900D01*
X159358800Y-78098900D02*
X155327100Y-78098900D01*
X155327100Y-78098900D02*
X153162000Y-80264000D01*
X150876000Y-105084700D02*
X144353700Y-98562400D01*
X144353700Y-98562400D02*
X144353700Y-78346200D01*
X144353700Y-78346200D02*
X144601000Y-78098900D01*
X144601000Y-76910000D02*
X144601000Y-78098900D01*
X150876000Y-106172000D02*
X150876000Y-105084700D01*
X147141000Y-76910000D02*
X147141000Y-78098900D01*
X153416000Y-106172000D02*
X149230600Y-101986600D01*
X149230600Y-101986600D02*
X149230600Y-80188500D01*
X149230600Y-80188500D02*
X147141000Y-78098900D01*
X149681000Y-76910000D02*
X149681000Y-78098900D01*
X158496000Y-106172000D02*
X152051100Y-99727100D01*
X152051100Y-99727100D02*
X152051100Y-79651600D01*
X152051100Y-79651600D02*
X150498400Y-78098900D01*
X150498400Y-78098900D02*
X149681000Y-78098900D01*
X158825000Y-125170000D02*
X157636100Y-125170000D01*
X130302000Y-85508600D02*
X130302000Y-86433900D01*
X130302000Y-86433900D02*
X135341400Y-91473300D01*
X135341400Y-91473300D02*
X135341400Y-106391100D01*
X135341400Y-106391100D02*
X152475000Y-123524700D01*
X152475000Y-123524700D02*
X152475000Y-125660700D01*
X152475000Y-125660700D02*
X153173200Y-126358900D01*
X153173200Y-126358900D02*
X156447200Y-126358900D01*
X156447200Y-126358900D02*
X157636100Y-125170000D01*
X116379600Y-88397500D02*
X112118600Y-84136500D01*
X112118600Y-84136500D02*
X112043000Y-84136500D01*
X139521000Y-76910000D02*
X138332100Y-76910000D01*
X123316000Y-111506000D02*
X123316000Y-109330700D01*
X123316000Y-109330700D02*
X121134800Y-107149500D01*
X121134800Y-107149500D02*
X121134800Y-83171000D01*
X121134800Y-83171000D02*
X121745600Y-82560200D01*
X121745600Y-82560200D02*
X133053500Y-82560200D01*
X133053500Y-82560200D02*
X138332100Y-77281600D01*
X138332100Y-77281600D02*
X138332100Y-76910000D01*
D24*
X184658000Y-79248000D02*
X181854600Y-82051400D01*
X181854600Y-82051400D02*
X166614600Y-82051400D01*
X166614600Y-82051400D02*
X155702000Y-92964000D01*
X184658000Y-84328000D02*
X166878000Y-84328000D01*
X166878000Y-84328000D02*
X158242000Y-92964000D01*
X184658000Y-89408000D02*
X183163200Y-87913200D01*
X183163200Y-87913200D02*
X168372800Y-87913200D01*
X168372800Y-87913200D02*
X163322000Y-92964000D01*
X184658000Y-94488000D02*
X182332700Y-94488000D01*
X182332700Y-94488000D02*
X180409600Y-96411100D01*
X180409600Y-96411100D02*
X164229100Y-96411100D01*
X164229100Y-96411100D02*
X160782000Y-92964000D01*
X163576000Y-118872000D02*
X166608500Y-115839500D01*
X166608500Y-115839500D02*
X183022500Y-115839500D01*
X183022500Y-115839500D02*
X184658000Y-117475000D01*
X155956000Y-118872000D02*
X164758400Y-110069600D01*
X164758400Y-110069600D02*
X181903400Y-110069600D01*
X181903400Y-110069600D02*
X184658000Y-107315000D01*
D25*
X193650001Y-127305200D02*
X174060704Y-127305200D01*
X174060673Y-127305197D01*
X174042681Y-127305200D01*
X174020859Y-127305200D01*
X174020822Y-127305204D01*
X172506435Y-127305456D01*
X173504620Y-126307272D01*
X173523927Y-126291427D01*
X173587159Y-126214379D01*
X173634145Y-126126475D01*
X173663078Y-126031093D01*
X173670400Y-125956754D01*
X173670400Y-125956747D01*
X173672847Y-125931901D01*
X173670400Y-125907055D01*
X173670400Y-124419454D01*
X173672848Y-124394600D01*
X173663078Y-124295407D01*
X173634145Y-124200025D01*
X173623133Y-124179423D01*
X173587159Y-124112121D01*
X173523927Y-124035073D01*
X173504620Y-124019228D01*
X173357197Y-123871805D01*
X174040695Y-123943480D01*
X174792938Y-123874178D01*
X175517208Y-123659452D01*
X176185670Y-123307555D01*
X176226088Y-123280548D01*
X176586276Y-122790881D01*
X175568309Y-121772914D01*
X175747914Y-121593309D01*
X176765881Y-122611276D01*
X177255548Y-122251088D01*
X177615849Y-121587118D01*
X177718888Y-121255000D01*
X182577241Y-121255000D01*
X182577241Y-123855000D01*
X182592243Y-124007319D01*
X182636673Y-124153784D01*
X182708823Y-124288766D01*
X182805920Y-124407080D01*
X182924234Y-124504177D01*
X183059216Y-124576327D01*
X183205681Y-124620757D01*
X183358000Y-124635759D01*
X185958000Y-124635759D01*
X186110319Y-124620757D01*
X186256784Y-124576327D01*
X186391766Y-124504177D01*
X186510080Y-124407080D01*
X186607177Y-124288766D01*
X186679327Y-124153784D01*
X186723757Y-124007319D01*
X186738759Y-123855000D01*
X186738759Y-121255000D01*
X186723757Y-121102681D01*
X186679327Y-120956216D01*
X186607177Y-120821234D01*
X186510080Y-120702920D01*
X186391766Y-120605823D01*
X186256784Y-120533673D01*
X186110319Y-120489243D01*
X185958000Y-120474241D01*
X183358000Y-120474241D01*
X183205681Y-120489243D01*
X183059216Y-120533673D01*
X182924234Y-120605823D01*
X182805920Y-120702920D01*
X182708823Y-120821234D01*
X182636673Y-120956216D01*
X182592243Y-121102681D01*
X182577241Y-121255000D01*
X177718888Y-121255000D01*
X177839694Y-120865615D01*
X177918480Y-120114305D01*
X177849178Y-119362062D01*
X177634452Y-118637792D01*
X177282555Y-117969330D01*
X177255548Y-117928912D01*
X176765881Y-117568724D01*
X175747914Y-118586692D01*
X175568309Y-118407087D01*
X176586276Y-117389119D01*
X176293796Y-116991500D01*
X182545327Y-116991500D01*
X182621359Y-117067533D01*
X182581000Y-117270433D01*
X182581000Y-117679567D01*
X182660818Y-118080839D01*
X182817386Y-118458829D01*
X183044689Y-118799011D01*
X183333989Y-119088311D01*
X183674171Y-119315614D01*
X184052161Y-119472182D01*
X184453433Y-119552000D01*
X184862567Y-119552000D01*
X185263839Y-119472182D01*
X185641829Y-119315614D01*
X185982011Y-119088311D01*
X186271311Y-118799011D01*
X186498614Y-118458829D01*
X186655182Y-118080839D01*
X186735000Y-117679567D01*
X186735000Y-117270433D01*
X186655182Y-116869161D01*
X186498614Y-116491171D01*
X186271311Y-116150989D01*
X185982011Y-115861689D01*
X185641829Y-115634386D01*
X185263839Y-115477818D01*
X184862567Y-115398000D01*
X184453433Y-115398000D01*
X184250533Y-115438359D01*
X183877107Y-115064934D01*
X183841028Y-115020972D01*
X183665614Y-114877012D01*
X183465484Y-114770041D01*
X183248331Y-114704168D01*
X183079095Y-114687500D01*
X183079087Y-114687500D01*
X183022500Y-114681927D01*
X182965913Y-114687500D01*
X166665087Y-114687500D01*
X166608500Y-114681927D01*
X166551913Y-114687500D01*
X166551905Y-114687500D01*
X166402490Y-114702216D01*
X166382668Y-114704168D01*
X166316795Y-114724151D01*
X166165516Y-114770041D01*
X165965386Y-114877012D01*
X165965384Y-114877013D01*
X165965385Y-114877013D01*
X165833931Y-114984895D01*
X165833929Y-114984897D01*
X165789972Y-115020972D01*
X165753897Y-115064929D01*
X163485827Y-117333000D01*
X163424422Y-117333000D01*
X163127090Y-117392142D01*
X162847010Y-117508156D01*
X162594944Y-117676580D01*
X162380580Y-117890944D01*
X162306000Y-118002562D01*
X162231420Y-117890944D01*
X162017056Y-117676580D01*
X161764990Y-117508156D01*
X161484910Y-117392142D01*
X161187578Y-117333000D01*
X160884422Y-117333000D01*
X160587090Y-117392142D01*
X160307010Y-117508156D01*
X160054944Y-117676580D01*
X159840580Y-117890944D01*
X159766000Y-118002562D01*
X159691420Y-117890944D01*
X159477056Y-117676580D01*
X159224990Y-117508156D01*
X159029848Y-117427325D01*
X164266740Y-112190433D01*
X182581000Y-112190433D01*
X182581000Y-112599567D01*
X182660818Y-113000839D01*
X182817386Y-113378829D01*
X183044689Y-113719011D01*
X183333989Y-114008311D01*
X183674171Y-114235614D01*
X184052161Y-114392182D01*
X184453433Y-114472000D01*
X184862567Y-114472000D01*
X185263839Y-114392182D01*
X185641829Y-114235614D01*
X185982011Y-114008311D01*
X186271311Y-113719011D01*
X186498614Y-113378829D01*
X186655182Y-113000839D01*
X186735000Y-112599567D01*
X186735000Y-112190433D01*
X186655182Y-111789161D01*
X186498614Y-111411171D01*
X186271311Y-111070989D01*
X185982011Y-110781689D01*
X185641829Y-110554386D01*
X185263839Y-110397818D01*
X184862567Y-110318000D01*
X184453433Y-110318000D01*
X184052161Y-110397818D01*
X183674171Y-110554386D01*
X183333989Y-110781689D01*
X183044689Y-111070989D01*
X182817386Y-111411171D01*
X182660818Y-111789161D01*
X182581000Y-112190433D01*
X164266740Y-112190433D01*
X165235574Y-111221600D01*
X181846813Y-111221600D01*
X181903400Y-111227173D01*
X181959987Y-111221600D01*
X181959995Y-111221600D01*
X182129231Y-111204932D01*
X182346384Y-111139059D01*
X182546514Y-111032088D01*
X182721928Y-110888128D01*
X182758007Y-110844166D01*
X184250533Y-109351641D01*
X184453433Y-109392000D01*
X184862567Y-109392000D01*
X185263839Y-109312182D01*
X185641829Y-109155614D01*
X185982011Y-108928311D01*
X186271311Y-108639011D01*
X186498614Y-108298829D01*
X186655182Y-107920839D01*
X186735000Y-107519567D01*
X186735000Y-107110433D01*
X186655182Y-106709161D01*
X186498614Y-106331171D01*
X186271311Y-105990989D01*
X185982011Y-105701689D01*
X185641829Y-105474386D01*
X185263839Y-105317818D01*
X184862567Y-105238000D01*
X184453433Y-105238000D01*
X184052161Y-105317818D01*
X183674171Y-105474386D01*
X183333989Y-105701689D01*
X183044689Y-105990989D01*
X182817386Y-106331171D01*
X182660818Y-106709161D01*
X182581000Y-107110433D01*
X182581000Y-107519567D01*
X182621359Y-107722467D01*
X181426227Y-108917600D01*
X164814984Y-108917600D01*
X164758399Y-108912027D01*
X164701814Y-108917600D01*
X164701805Y-108917600D01*
X164532569Y-108934268D01*
X164315416Y-109000141D01*
X164115286Y-109107112D01*
X164115284Y-109107113D01*
X164115285Y-109107113D01*
X163983831Y-109214995D01*
X163983829Y-109214997D01*
X163939872Y-109251072D01*
X163903797Y-109295029D01*
X155865827Y-117333000D01*
X155804422Y-117333000D01*
X155507090Y-117392142D01*
X155227010Y-117508156D01*
X154974944Y-117676580D01*
X154760580Y-117890944D01*
X154592156Y-118143010D01*
X154476142Y-118423090D01*
X154473251Y-118437627D01*
X154428913Y-118330587D01*
X154303826Y-118143380D01*
X154144620Y-117984174D01*
X153957413Y-117859087D01*
X153922000Y-117844418D01*
X153922000Y-111022845D01*
X153924447Y-110997999D01*
X153922000Y-110973153D01*
X153922000Y-110973146D01*
X153914678Y-110898807D01*
X153885745Y-110803425D01*
X153838759Y-110715521D01*
X153775527Y-110638473D01*
X153756220Y-110622628D01*
X150450435Y-107316843D01*
X151638000Y-107316843D01*
X151712689Y-107309487D01*
X151784508Y-107287701D01*
X151850696Y-107252322D01*
X151908711Y-107204711D01*
X151956322Y-107146696D01*
X151991701Y-107080508D01*
X152013487Y-107008689D01*
X152020843Y-106934000D01*
X152020843Y-105492435D01*
X152331594Y-105803186D01*
X152316925Y-105838599D01*
X152273000Y-106059424D01*
X152273000Y-106284576D01*
X152316925Y-106505401D01*
X152403087Y-106713413D01*
X152528174Y-106900620D01*
X152687380Y-107059826D01*
X152874587Y-107184913D01*
X153082599Y-107271075D01*
X153303424Y-107315000D01*
X153528576Y-107315000D01*
X153749401Y-107271075D01*
X153957413Y-107184913D01*
X154144620Y-107059826D01*
X154303826Y-106900620D01*
X154428913Y-106713413D01*
X154515075Y-106505401D01*
X154559000Y-106284576D01*
X154559000Y-106059424D01*
X154813000Y-106059424D01*
X154813000Y-106284576D01*
X154856925Y-106505401D01*
X154943087Y-106713413D01*
X155068174Y-106900620D01*
X155227380Y-107059826D01*
X155414587Y-107184913D01*
X155622599Y-107271075D01*
X155843424Y-107315000D01*
X156068576Y-107315000D01*
X156289401Y-107271075D01*
X156497413Y-107184913D01*
X156684620Y-107059826D01*
X156843826Y-106900620D01*
X156968913Y-106713413D01*
X157055075Y-106505401D01*
X157099000Y-106284576D01*
X157099000Y-106059424D01*
X157055075Y-105838599D01*
X156968913Y-105630587D01*
X156843826Y-105443380D01*
X156684620Y-105284174D01*
X156497413Y-105159087D01*
X156289401Y-105072925D01*
X156068576Y-105029000D01*
X155843424Y-105029000D01*
X155622599Y-105072925D01*
X155414587Y-105159087D01*
X155227380Y-105284174D01*
X155068174Y-105443380D01*
X154943087Y-105630587D01*
X154856925Y-105838599D01*
X154813000Y-106059424D01*
X154559000Y-106059424D01*
X154515075Y-105838599D01*
X154428913Y-105630587D01*
X154303826Y-105443380D01*
X154144620Y-105284174D01*
X153957413Y-105159087D01*
X153749401Y-105072925D01*
X153528576Y-105029000D01*
X153303424Y-105029000D01*
X153082599Y-105072925D01*
X153047186Y-105087594D01*
X149736600Y-101777009D01*
X149736600Y-94029008D01*
X149836041Y-93929567D01*
X149903020Y-94169656D01*
X150152048Y-94286756D01*
X150419135Y-94353023D01*
X150694017Y-94365910D01*
X150966133Y-94324922D01*
X151225023Y-94231636D01*
X151340980Y-94169656D01*
X151407959Y-93929567D01*
X151524369Y-94045977D01*
X151545100Y-94025246D01*
X151545100Y-99702254D01*
X151542653Y-99727100D01*
X151545100Y-99751946D01*
X151545100Y-99751953D01*
X151552422Y-99826292D01*
X151581355Y-99921674D01*
X151628341Y-100009579D01*
X151691573Y-100086627D01*
X151710885Y-100102476D01*
X157411594Y-105803186D01*
X157396925Y-105838599D01*
X157353000Y-106059424D01*
X157353000Y-106284576D01*
X157396925Y-106505401D01*
X157483087Y-106713413D01*
X157608174Y-106900620D01*
X157767380Y-107059826D01*
X157954587Y-107184913D01*
X158162599Y-107271075D01*
X158383424Y-107315000D01*
X158608576Y-107315000D01*
X158829401Y-107271075D01*
X159037413Y-107184913D01*
X159224620Y-107059826D01*
X159383826Y-106900620D01*
X159508913Y-106713413D01*
X159595075Y-106505401D01*
X159639000Y-106284576D01*
X159639000Y-106059424D01*
X159893000Y-106059424D01*
X159893000Y-106284576D01*
X159936925Y-106505401D01*
X160023087Y-106713413D01*
X160148174Y-106900620D01*
X160307380Y-107059826D01*
X160494587Y-107184913D01*
X160702599Y-107271075D01*
X160923424Y-107315000D01*
X161148576Y-107315000D01*
X161369401Y-107271075D01*
X161577413Y-107184913D01*
X161764620Y-107059826D01*
X161923826Y-106900620D01*
X162048913Y-106713413D01*
X162135075Y-106505401D01*
X162179000Y-106284576D01*
X162179000Y-106059424D01*
X162433000Y-106059424D01*
X162433000Y-106284576D01*
X162476925Y-106505401D01*
X162563087Y-106713413D01*
X162688174Y-106900620D01*
X162847380Y-107059826D01*
X163034587Y-107184913D01*
X163242599Y-107271075D01*
X163463424Y-107315000D01*
X163688576Y-107315000D01*
X163909401Y-107271075D01*
X164117413Y-107184913D01*
X164304620Y-107059826D01*
X164463826Y-106900620D01*
X164588913Y-106713413D01*
X164675075Y-106505401D01*
X164719000Y-106284576D01*
X164719000Y-106059424D01*
X164973000Y-106059424D01*
X164973000Y-106284576D01*
X165016925Y-106505401D01*
X165103087Y-106713413D01*
X165228174Y-106900620D01*
X165387380Y-107059826D01*
X165574587Y-107184913D01*
X165782599Y-107271075D01*
X166003424Y-107315000D01*
X166228576Y-107315000D01*
X166449401Y-107271075D01*
X166657413Y-107184913D01*
X166844620Y-107059826D01*
X167003826Y-106900620D01*
X167128913Y-106713413D01*
X167215075Y-106505401D01*
X167259000Y-106284576D01*
X167259000Y-106059424D01*
X167513000Y-106059424D01*
X167513000Y-106284576D01*
X167556925Y-106505401D01*
X167643087Y-106713413D01*
X167768174Y-106900620D01*
X167927380Y-107059826D01*
X168114587Y-107184913D01*
X168322599Y-107271075D01*
X168543424Y-107315000D01*
X168768576Y-107315000D01*
X168989401Y-107271075D01*
X169197413Y-107184913D01*
X169384620Y-107059826D01*
X169543826Y-106900620D01*
X169668913Y-106713413D01*
X169755075Y-106505401D01*
X169799000Y-106284576D01*
X169799000Y-106059424D01*
X169755075Y-105838599D01*
X169668913Y-105630587D01*
X169543826Y-105443380D01*
X169384620Y-105284174D01*
X169197413Y-105159087D01*
X168989401Y-105072925D01*
X168768576Y-105029000D01*
X168543424Y-105029000D01*
X168322599Y-105072925D01*
X168114587Y-105159087D01*
X167927380Y-105284174D01*
X167768174Y-105443380D01*
X167643087Y-105630587D01*
X167556925Y-105838599D01*
X167513000Y-106059424D01*
X167259000Y-106059424D01*
X167215075Y-105838599D01*
X167128913Y-105630587D01*
X167003826Y-105443380D01*
X166844620Y-105284174D01*
X166657413Y-105159087D01*
X166449401Y-105072925D01*
X166228576Y-105029000D01*
X166003424Y-105029000D01*
X165782599Y-105072925D01*
X165574587Y-105159087D01*
X165387380Y-105284174D01*
X165228174Y-105443380D01*
X165103087Y-105630587D01*
X165016925Y-105838599D01*
X164973000Y-106059424D01*
X164719000Y-106059424D01*
X164675075Y-105838599D01*
X164588913Y-105630587D01*
X164463826Y-105443380D01*
X164304620Y-105284174D01*
X164117413Y-105159087D01*
X163909401Y-105072925D01*
X163688576Y-105029000D01*
X163463424Y-105029000D01*
X163242599Y-105072925D01*
X163034587Y-105159087D01*
X162847380Y-105284174D01*
X162688174Y-105443380D01*
X162563087Y-105630587D01*
X162476925Y-105838599D01*
X162433000Y-106059424D01*
X162179000Y-106059424D01*
X162135075Y-105838599D01*
X162048913Y-105630587D01*
X161923826Y-105443380D01*
X161764620Y-105284174D01*
X161577413Y-105159087D01*
X161369401Y-105072925D01*
X161148576Y-105029000D01*
X160923424Y-105029000D01*
X160702599Y-105072925D01*
X160494587Y-105159087D01*
X160307380Y-105284174D01*
X160148174Y-105443380D01*
X160023087Y-105630587D01*
X159936925Y-105838599D01*
X159893000Y-106059424D01*
X159639000Y-106059424D01*
X159595075Y-105838599D01*
X159508913Y-105630587D01*
X159383826Y-105443380D01*
X159224620Y-105284174D01*
X159037413Y-105159087D01*
X158829401Y-105072925D01*
X158608576Y-105029000D01*
X158383424Y-105029000D01*
X158162599Y-105072925D01*
X158127186Y-105087594D01*
X152557100Y-99517509D01*
X152557100Y-93934493D01*
X152620587Y-93976913D01*
X152828599Y-94063075D01*
X153049424Y-94107000D01*
X153274576Y-94107000D01*
X153495401Y-94063075D01*
X153703413Y-93976913D01*
X153890620Y-93851826D01*
X154049826Y-93692620D01*
X154174913Y-93505413D01*
X154219251Y-93398373D01*
X154222142Y-93412910D01*
X154338156Y-93692990D01*
X154506580Y-93945056D01*
X154720944Y-94159420D01*
X154973010Y-94327844D01*
X155253090Y-94443858D01*
X155550422Y-94503000D01*
X155853578Y-94503000D01*
X156150910Y-94443858D01*
X156430990Y-94327844D01*
X156683056Y-94159420D01*
X156897420Y-93945056D01*
X156972000Y-93833438D01*
X157046580Y-93945056D01*
X157260944Y-94159420D01*
X157513010Y-94327844D01*
X157793090Y-94443858D01*
X158090422Y-94503000D01*
X158393578Y-94503000D01*
X158690910Y-94443858D01*
X158970990Y-94327844D01*
X159223056Y-94159420D01*
X159437420Y-93945056D01*
X159512000Y-93833438D01*
X159586580Y-93945056D01*
X159800944Y-94159420D01*
X160053010Y-94327844D01*
X160333090Y-94443858D01*
X160630422Y-94503000D01*
X160691827Y-94503000D01*
X163374502Y-97185677D01*
X163410572Y-97229628D01*
X163454523Y-97265698D01*
X163454531Y-97265706D01*
X163571224Y-97361473D01*
X163585986Y-97373588D01*
X163621694Y-97392674D01*
X163786115Y-97480559D01*
X164003268Y-97546432D01*
X164023090Y-97548384D01*
X164172505Y-97563100D01*
X164172513Y-97563100D01*
X164229100Y-97568673D01*
X164285687Y-97563100D01*
X180353013Y-97563100D01*
X180409600Y-97568673D01*
X180466187Y-97563100D01*
X180466195Y-97563100D01*
X180635431Y-97546432D01*
X180852584Y-97480559D01*
X181052714Y-97373588D01*
X181228128Y-97229628D01*
X181264207Y-97185666D01*
X182584829Y-95865045D01*
X182592243Y-95940319D01*
X182636673Y-96086784D01*
X182708823Y-96221766D01*
X182805920Y-96340080D01*
X182924234Y-96437177D01*
X183059216Y-96509327D01*
X183205681Y-96553757D01*
X183358000Y-96568759D01*
X185958000Y-96568759D01*
X186110319Y-96553757D01*
X186256784Y-96509327D01*
X186391766Y-96437177D01*
X186510080Y-96340080D01*
X186607177Y-96221766D01*
X186679327Y-96086784D01*
X186723757Y-95940319D01*
X186738759Y-95788000D01*
X186738759Y-93188000D01*
X186723757Y-93035681D01*
X186679327Y-92889216D01*
X186607177Y-92754234D01*
X186510080Y-92635920D01*
X186391766Y-92538823D01*
X186256784Y-92466673D01*
X186110319Y-92422243D01*
X185958000Y-92407241D01*
X183358000Y-92407241D01*
X183205681Y-92422243D01*
X183059216Y-92466673D01*
X182924234Y-92538823D01*
X182805920Y-92635920D01*
X182708823Y-92754234D01*
X182636673Y-92889216D01*
X182592243Y-93035681D01*
X182577241Y-93188000D01*
X182577241Y-93336000D01*
X182389284Y-93336000D01*
X182332699Y-93330427D01*
X182276114Y-93336000D01*
X182276105Y-93336000D01*
X182106869Y-93352668D01*
X181889716Y-93418541D01*
X181689586Y-93525512D01*
X181650091Y-93557925D01*
X181558131Y-93633395D01*
X181558129Y-93633397D01*
X181514172Y-93669472D01*
X181478097Y-93713429D01*
X179932427Y-95259100D01*
X176285999Y-95259100D01*
X176586276Y-94850881D01*
X175568309Y-93832914D01*
X175747914Y-93653309D01*
X176765881Y-94671276D01*
X177255548Y-94311088D01*
X177615849Y-93647118D01*
X177839694Y-92925615D01*
X177918480Y-92174305D01*
X177849178Y-91422062D01*
X177634452Y-90697792D01*
X177282555Y-90029330D01*
X177255548Y-89988912D01*
X176765881Y-89628724D01*
X175747914Y-90646692D01*
X175568309Y-90467087D01*
X176586276Y-89449119D01*
X176303874Y-89065200D01*
X182608496Y-89065200D01*
X182581000Y-89203433D01*
X182581000Y-89612567D01*
X182660818Y-90013839D01*
X182817386Y-90391829D01*
X183044689Y-90732011D01*
X183333989Y-91021311D01*
X183674171Y-91248614D01*
X184052161Y-91405182D01*
X184453433Y-91485000D01*
X184862567Y-91485000D01*
X185263839Y-91405182D01*
X185641829Y-91248614D01*
X185982011Y-91021311D01*
X186271311Y-90732011D01*
X186498614Y-90391829D01*
X186655182Y-90013839D01*
X186735000Y-89612567D01*
X186735000Y-89203433D01*
X186655182Y-88802161D01*
X186498614Y-88424171D01*
X186271311Y-88083989D01*
X185982011Y-87794689D01*
X185641829Y-87567386D01*
X185263839Y-87410818D01*
X184862567Y-87331000D01*
X184453433Y-87331000D01*
X184250533Y-87371359D01*
X184017807Y-87138634D01*
X183981728Y-87094672D01*
X183806314Y-86950712D01*
X183606184Y-86843741D01*
X183389031Y-86777868D01*
X183219795Y-86761200D01*
X183219787Y-86761200D01*
X183163200Y-86755627D01*
X183106613Y-86761200D01*
X168429387Y-86761200D01*
X168372800Y-86755627D01*
X168316213Y-86761200D01*
X168316205Y-86761200D01*
X168166790Y-86775916D01*
X168146968Y-86777868D01*
X168095678Y-86793427D01*
X167929816Y-86843741D01*
X167729686Y-86950712D01*
X167729684Y-86950713D01*
X167729685Y-86950713D01*
X167598231Y-87058595D01*
X167598229Y-87058597D01*
X167554272Y-87094672D01*
X167518197Y-87138629D01*
X163231827Y-91425000D01*
X163170422Y-91425000D01*
X162873090Y-91484142D01*
X162593010Y-91600156D01*
X162340944Y-91768580D01*
X162126580Y-91982944D01*
X162052000Y-92094562D01*
X161977420Y-91982944D01*
X161763056Y-91768580D01*
X161510990Y-91600156D01*
X161315848Y-91519325D01*
X167355174Y-85480000D01*
X182929755Y-85480000D01*
X183044689Y-85652011D01*
X183333989Y-85941311D01*
X183674171Y-86168614D01*
X184052161Y-86325182D01*
X184453433Y-86405000D01*
X184862567Y-86405000D01*
X185263839Y-86325182D01*
X185641829Y-86168614D01*
X185982011Y-85941311D01*
X186271311Y-85652011D01*
X186498614Y-85311829D01*
X186655182Y-84933839D01*
X186735000Y-84532567D01*
X186735000Y-84123433D01*
X186655182Y-83722161D01*
X186498614Y-83344171D01*
X186271311Y-83003989D01*
X185982011Y-82714689D01*
X185641829Y-82487386D01*
X185263839Y-82330818D01*
X184862567Y-82251000D01*
X184453433Y-82251000D01*
X184052161Y-82330818D01*
X183674171Y-82487386D01*
X183333989Y-82714689D01*
X183044689Y-83003989D01*
X182929755Y-83176000D01*
X182115809Y-83176000D01*
X182297584Y-83120859D01*
X182497714Y-83013888D01*
X182673128Y-82869928D01*
X182709207Y-82825966D01*
X184250533Y-81284641D01*
X184453433Y-81325000D01*
X184862567Y-81325000D01*
X185263839Y-81245182D01*
X185641829Y-81088614D01*
X185982011Y-80861311D01*
X186271311Y-80572011D01*
X186498614Y-80231829D01*
X186655182Y-79853839D01*
X186735000Y-79452567D01*
X186735000Y-79043433D01*
X186655182Y-78642161D01*
X186498614Y-78264171D01*
X186271311Y-77923989D01*
X185982011Y-77634689D01*
X185641829Y-77407386D01*
X185263839Y-77250818D01*
X184862567Y-77171000D01*
X184453433Y-77171000D01*
X184052161Y-77250818D01*
X183674171Y-77407386D01*
X183333989Y-77634689D01*
X183044689Y-77923989D01*
X182817386Y-78264171D01*
X182660818Y-78642161D01*
X182581000Y-79043433D01*
X182581000Y-79452567D01*
X182621359Y-79655467D01*
X181377427Y-80899400D01*
X169352113Y-80899400D01*
X169414913Y-80805413D01*
X169501075Y-80597401D01*
X169545000Y-80376576D01*
X169545000Y-80151424D01*
X169501075Y-79930599D01*
X169414913Y-79722587D01*
X169289826Y-79535380D01*
X169130620Y-79376174D01*
X168943413Y-79251087D01*
X168735401Y-79164925D01*
X168514576Y-79121000D01*
X168289424Y-79121000D01*
X168068599Y-79164925D01*
X167860587Y-79251087D01*
X167796740Y-79293748D01*
X166642658Y-78139667D01*
X166808036Y-78106771D01*
X167034539Y-78012950D01*
X167238386Y-77876744D01*
X167411744Y-77703386D01*
X167547950Y-77499539D01*
X167641771Y-77273036D01*
X167689600Y-77032582D01*
X167689600Y-76787418D01*
X167740400Y-76787418D01*
X167740400Y-77032582D01*
X167788229Y-77273036D01*
X167882050Y-77499539D01*
X168018256Y-77703386D01*
X168191614Y-77876744D01*
X168395461Y-78012950D01*
X168621964Y-78106771D01*
X168862418Y-78154600D01*
X169107582Y-78154600D01*
X169348036Y-78106771D01*
X169574539Y-78012950D01*
X169778386Y-77876744D01*
X169951744Y-77703386D01*
X170087950Y-77499539D01*
X170181771Y-77273036D01*
X170229600Y-77032582D01*
X170229600Y-76787418D01*
X170280400Y-76787418D01*
X170280400Y-77032582D01*
X170328229Y-77273036D01*
X170422050Y-77499539D01*
X170558256Y-77703386D01*
X170731614Y-77876744D01*
X170935461Y-78012950D01*
X171161964Y-78106771D01*
X171402418Y-78154600D01*
X171647582Y-78154600D01*
X171888036Y-78106771D01*
X172114539Y-78012950D01*
X172318386Y-77876744D01*
X172491744Y-77703386D01*
X172627950Y-77499539D01*
X172721771Y-77273036D01*
X172769600Y-77032582D01*
X172769600Y-76787418D01*
X172721771Y-76546964D01*
X172627950Y-76320461D01*
X172491744Y-76116614D01*
X172318386Y-75943256D01*
X172114539Y-75807050D01*
X171888036Y-75713229D01*
X171647582Y-75665400D01*
X171402418Y-75665400D01*
X171161964Y-75713229D01*
X170935461Y-75807050D01*
X170731614Y-75943256D01*
X170558256Y-76116614D01*
X170422050Y-76320461D01*
X170328229Y-76546964D01*
X170280400Y-76787418D01*
X170229600Y-76787418D01*
X170181771Y-76546964D01*
X170087950Y-76320461D01*
X169951744Y-76116614D01*
X169778386Y-75943256D01*
X169574539Y-75807050D01*
X169348036Y-75713229D01*
X169107582Y-75665400D01*
X168862418Y-75665400D01*
X168621964Y-75713229D01*
X168395461Y-75807050D01*
X168191614Y-75943256D01*
X168018256Y-76116614D01*
X167882050Y-76320461D01*
X167788229Y-76546964D01*
X167740400Y-76787418D01*
X167689600Y-76787418D01*
X167641771Y-76546964D01*
X167547950Y-76320461D01*
X167411744Y-76116614D01*
X167238386Y-75943256D01*
X167034539Y-75807050D01*
X166808036Y-75713229D01*
X166567582Y-75665400D01*
X166322418Y-75665400D01*
X166081964Y-75713229D01*
X165855461Y-75807050D01*
X165651614Y-75943256D01*
X165519681Y-76075189D01*
X164813176Y-75368685D01*
X164797327Y-75349373D01*
X164720279Y-75286141D01*
X164632375Y-75239155D01*
X164536993Y-75210222D01*
X164462654Y-75202900D01*
X164462646Y-75202900D01*
X164437800Y-75200453D01*
X164412954Y-75202900D01*
X158328354Y-75202900D01*
X158303500Y-75200452D01*
X158278646Y-75202900D01*
X158204307Y-75210222D01*
X158108925Y-75239155D01*
X158021021Y-75286141D01*
X157943973Y-75349373D01*
X157928128Y-75368680D01*
X157215969Y-76080839D01*
X157078386Y-75943256D01*
X156874539Y-75807050D01*
X156648036Y-75713229D01*
X156407582Y-75665400D01*
X156162418Y-75665400D01*
X155921964Y-75713229D01*
X155695461Y-75807050D01*
X155491614Y-75943256D01*
X155318256Y-76116614D01*
X155182050Y-76320461D01*
X155088229Y-76546964D01*
X155040400Y-76787418D01*
X155040400Y-77032582D01*
X155088229Y-77273036D01*
X155182050Y-77499539D01*
X155248002Y-77598243D01*
X155227907Y-77600222D01*
X155132525Y-77629155D01*
X155044621Y-77676141D01*
X154967573Y-77739373D01*
X154951729Y-77758679D01*
X153530815Y-79179594D01*
X153495401Y-79164925D01*
X153274576Y-79121000D01*
X153049424Y-79121000D01*
X152828599Y-79164925D01*
X152620587Y-79251087D01*
X152463261Y-79356208D01*
X152410627Y-79292073D01*
X152391320Y-79276228D01*
X150873776Y-77758685D01*
X150857927Y-77739373D01*
X150780879Y-77676141D01*
X150696194Y-77630876D01*
X150783950Y-77499539D01*
X150877771Y-77273036D01*
X150925600Y-77032582D01*
X150925600Y-76787418D01*
X152500400Y-76787418D01*
X152500400Y-77032582D01*
X152548229Y-77273036D01*
X152642050Y-77499539D01*
X152778256Y-77703386D01*
X152951614Y-77876744D01*
X153155461Y-78012950D01*
X153381964Y-78106771D01*
X153622418Y-78154600D01*
X153867582Y-78154600D01*
X154108036Y-78106771D01*
X154334539Y-78012950D01*
X154538386Y-77876744D01*
X154711744Y-77703386D01*
X154847950Y-77499539D01*
X154941771Y-77273036D01*
X154989600Y-77032582D01*
X154989600Y-76787418D01*
X154941771Y-76546964D01*
X154847950Y-76320461D01*
X154711744Y-76116614D01*
X154538386Y-75943256D01*
X154334539Y-75807050D01*
X154108036Y-75713229D01*
X153867582Y-75665400D01*
X153622418Y-75665400D01*
X153381964Y-75713229D01*
X153155461Y-75807050D01*
X152951614Y-75943256D01*
X152778256Y-76116614D01*
X152642050Y-76320461D01*
X152548229Y-76546964D01*
X152500400Y-76787418D01*
X150925600Y-76787418D01*
X150877771Y-76546964D01*
X150783950Y-76320461D01*
X150647744Y-76116614D01*
X150474386Y-75943256D01*
X150270539Y-75807050D01*
X150044036Y-75713229D01*
X149803582Y-75665400D01*
X149558418Y-75665400D01*
X149317964Y-75713229D01*
X149091461Y-75807050D01*
X148887614Y-75943256D01*
X148714256Y-76116614D01*
X148578050Y-76320461D01*
X148484229Y-76546964D01*
X148436400Y-76787418D01*
X148436400Y-77032582D01*
X148484229Y-77273036D01*
X148578050Y-77499539D01*
X148714256Y-77703386D01*
X148887614Y-77876744D01*
X149091461Y-78012950D01*
X149175001Y-78047554D01*
X149175001Y-78074036D01*
X149172552Y-78098900D01*
X149182322Y-78198093D01*
X149211255Y-78293475D01*
X149258241Y-78381379D01*
X149321473Y-78458427D01*
X149398521Y-78521659D01*
X149486425Y-78568645D01*
X149581807Y-78597578D01*
X149656146Y-78604900D01*
X149681000Y-78607348D01*
X149705854Y-78604900D01*
X150288809Y-78604900D01*
X150803066Y-79119157D01*
X149860000Y-79119157D01*
X149785311Y-79126513D01*
X149713492Y-79148299D01*
X149647304Y-79183678D01*
X149589289Y-79231289D01*
X149541678Y-79289304D01*
X149506299Y-79355492D01*
X149484513Y-79427311D01*
X149477157Y-79502000D01*
X149477157Y-79719465D01*
X147754578Y-77996887D01*
X147934386Y-77876744D01*
X148107744Y-77703386D01*
X148243950Y-77499539D01*
X148337771Y-77273036D01*
X148385600Y-77032582D01*
X148385600Y-76787418D01*
X148337771Y-76546964D01*
X148243950Y-76320461D01*
X148107744Y-76116614D01*
X147934386Y-75943256D01*
X147730539Y-75807050D01*
X147504036Y-75713229D01*
X147263582Y-75665400D01*
X147018418Y-75665400D01*
X146777964Y-75713229D01*
X146551461Y-75807050D01*
X146347614Y-75943256D01*
X146174256Y-76116614D01*
X146038050Y-76320461D01*
X145944229Y-76546964D01*
X145896400Y-76787418D01*
X145896400Y-77032582D01*
X145944229Y-77273036D01*
X146038050Y-77499539D01*
X146174256Y-77703386D01*
X146347614Y-77876744D01*
X146551461Y-78012950D01*
X146635001Y-78047554D01*
X146635001Y-78074044D01*
X146632553Y-78098900D01*
X146642322Y-78198092D01*
X146671255Y-78293474D01*
X146671256Y-78293475D01*
X146718242Y-78381379D01*
X146781474Y-78458427D01*
X146800779Y-78474270D01*
X148724601Y-80398093D01*
X148724600Y-94136273D01*
X148529444Y-93844201D01*
X148197799Y-93512556D01*
X147807827Y-93251985D01*
X147374512Y-93072500D01*
X146914508Y-92981000D01*
X146445492Y-92981000D01*
X145985488Y-93072500D01*
X145552173Y-93251985D01*
X145162201Y-93512556D01*
X144859700Y-93815057D01*
X144859700Y-78555791D01*
X144941215Y-78474276D01*
X144960527Y-78458427D01*
X145023759Y-78381379D01*
X145070745Y-78293475D01*
X145099678Y-78198093D01*
X145107000Y-78123754D01*
X145107000Y-78123747D01*
X145109447Y-78098901D01*
X145107000Y-78074055D01*
X145107000Y-78047553D01*
X145190539Y-78012950D01*
X145394386Y-77876744D01*
X145567744Y-77703386D01*
X145703950Y-77499539D01*
X145797771Y-77273036D01*
X145845600Y-77032582D01*
X145845600Y-76787418D01*
X145797771Y-76546964D01*
X145703950Y-76320461D01*
X145567744Y-76116614D01*
X145394386Y-75943256D01*
X145190539Y-75807050D01*
X144964036Y-75713229D01*
X144723582Y-75665400D01*
X144478418Y-75665400D01*
X144237964Y-75713229D01*
X144011461Y-75807050D01*
X143807614Y-75943256D01*
X143634256Y-76116614D01*
X143498050Y-76320461D01*
X143404229Y-76546964D01*
X143356400Y-76787418D01*
X143356400Y-77032582D01*
X143404229Y-77273036D01*
X143498050Y-77499539D01*
X143634256Y-77703386D01*
X143807614Y-77876744D01*
X143986369Y-77996184D01*
X143930942Y-78063721D01*
X143916667Y-78090427D01*
X143883955Y-78151626D01*
X143855022Y-78247008D01*
X143845253Y-78346200D01*
X143847701Y-78371056D01*
X143847700Y-98537554D01*
X143845253Y-98562400D01*
X143847700Y-98587246D01*
X143847700Y-98587253D01*
X143855022Y-98661592D01*
X143883955Y-98756974D01*
X143930941Y-98844879D01*
X143994173Y-98921927D01*
X144013485Y-98937776D01*
X150103863Y-105028155D01*
X150039311Y-105034513D01*
X149967492Y-105056299D01*
X149901304Y-105091678D01*
X149843289Y-105139289D01*
X149795678Y-105197304D01*
X149760299Y-105263492D01*
X149738513Y-105335311D01*
X149731157Y-105410000D01*
X149731157Y-106597565D01*
X145970027Y-102836436D01*
X146011772Y-102735654D01*
X146061000Y-102488167D01*
X146061000Y-102235833D01*
X146011772Y-101988346D01*
X145915207Y-101755219D01*
X145775018Y-101545410D01*
X145596590Y-101366982D01*
X145386781Y-101226793D01*
X145153654Y-101130228D01*
X144906167Y-101081000D01*
X144653833Y-101081000D01*
X144406346Y-101130228D01*
X144173219Y-101226793D01*
X143963410Y-101366982D01*
X143784982Y-101545410D01*
X143644793Y-101755219D01*
X143548228Y-101988346D01*
X143530000Y-102079985D01*
X143511772Y-101988346D01*
X143415207Y-101755219D01*
X143275018Y-101545410D01*
X143096590Y-101366982D01*
X142886781Y-101226793D01*
X142653654Y-101130228D01*
X142406167Y-101081000D01*
X142153833Y-101081000D01*
X141906346Y-101130228D01*
X141673219Y-101226793D01*
X141536000Y-101318479D01*
X141536000Y-94669945D01*
X141538447Y-94645099D01*
X141536000Y-94620253D01*
X141536000Y-94620246D01*
X141528678Y-94545907D01*
X141499745Y-94450525D01*
X141452759Y-94362621D01*
X141389527Y-94285573D01*
X141370220Y-94269728D01*
X131466639Y-84366148D01*
X131540078Y-84292074D01*
X131674421Y-84089133D01*
X131766591Y-83863882D01*
X131770462Y-83826209D01*
X131645731Y-83635600D01*
X130429000Y-83635600D01*
X130429000Y-83655600D01*
X130175000Y-83655600D01*
X130175000Y-83635600D01*
X128958269Y-83635600D01*
X128833538Y-83826209D01*
X128837409Y-83863882D01*
X128924737Y-84077300D01*
X123805263Y-84077300D01*
X123892591Y-83863882D01*
X123896462Y-83826209D01*
X123771731Y-83635600D01*
X122555000Y-83635600D01*
X122555000Y-83655600D01*
X122301000Y-83655600D01*
X122301000Y-83635600D01*
X122281000Y-83635600D01*
X122281000Y-83381600D01*
X122301000Y-83381600D01*
X122301000Y-83361600D01*
X122555000Y-83361600D01*
X122555000Y-83381600D01*
X123771731Y-83381600D01*
X123896462Y-83190991D01*
X123892591Y-83153318D01*
X123856943Y-83066200D01*
X128873057Y-83066200D01*
X128837409Y-83153318D01*
X128833538Y-83190991D01*
X128958269Y-83381600D01*
X130175000Y-83381600D01*
X130175000Y-83361600D01*
X130429000Y-83361600D01*
X130429000Y-83381600D01*
X131645731Y-83381600D01*
X131770462Y-83190991D01*
X131766591Y-83153318D01*
X131730943Y-83066200D01*
X133028654Y-83066200D01*
X133053500Y-83068647D01*
X133078346Y-83066200D01*
X133078354Y-83066200D01*
X133152693Y-83058878D01*
X133248075Y-83029945D01*
X133335979Y-82982959D01*
X133413027Y-82919727D01*
X133428876Y-82900415D01*
X138590081Y-77739211D01*
X138727614Y-77876744D01*
X138931461Y-78012950D01*
X139157964Y-78106771D01*
X139398418Y-78154600D01*
X139643582Y-78154600D01*
X139884036Y-78106771D01*
X140110539Y-78012950D01*
X140314386Y-77876744D01*
X140487744Y-77703386D01*
X140623950Y-77499539D01*
X140717771Y-77273036D01*
X140765600Y-77032582D01*
X140765600Y-76787418D01*
X140816400Y-76787418D01*
X140816400Y-77032582D01*
X140864229Y-77273036D01*
X140958050Y-77499539D01*
X141094256Y-77703386D01*
X141267614Y-77876744D01*
X141471461Y-78012950D01*
X141697964Y-78106771D01*
X141938418Y-78154600D01*
X142183582Y-78154600D01*
X142424036Y-78106771D01*
X142650539Y-78012950D01*
X142854386Y-77876744D01*
X143027744Y-77703386D01*
X143163950Y-77499539D01*
X143257771Y-77273036D01*
X143305600Y-77032582D01*
X143305600Y-76787418D01*
X143257771Y-76546964D01*
X143163950Y-76320461D01*
X143027744Y-76116614D01*
X142854386Y-75943256D01*
X142650539Y-75807050D01*
X142424036Y-75713229D01*
X142183582Y-75665400D01*
X141938418Y-75665400D01*
X141697964Y-75713229D01*
X141471461Y-75807050D01*
X141267614Y-75943256D01*
X141094256Y-76116614D01*
X140958050Y-76320461D01*
X140864229Y-76546964D01*
X140816400Y-76787418D01*
X140765600Y-76787418D01*
X140717771Y-76546964D01*
X140623950Y-76320461D01*
X140487744Y-76116614D01*
X140314386Y-75943256D01*
X140110539Y-75807050D01*
X139884036Y-75713229D01*
X139643582Y-75665400D01*
X139398418Y-75665400D01*
X139157964Y-75713229D01*
X138931461Y-75807050D01*
X138727614Y-75943256D01*
X138554256Y-76116614D01*
X138418050Y-76320461D01*
X138383447Y-76404000D01*
X138356954Y-76404000D01*
X138332100Y-76401552D01*
X138307246Y-76404000D01*
X138232907Y-76411322D01*
X138137525Y-76440255D01*
X138134287Y-76441986D01*
X138083950Y-76320461D01*
X137947744Y-76116614D01*
X137774386Y-75943256D01*
X137570539Y-75807050D01*
X137344036Y-75713229D01*
X137103582Y-75665400D01*
X136858418Y-75665400D01*
X136617964Y-75713229D01*
X136391461Y-75807050D01*
X136187614Y-75943256D01*
X136014256Y-76116614D01*
X135878050Y-76320461D01*
X135847441Y-76394358D01*
X135723684Y-76135056D01*
X135547854Y-75899707D01*
X135329488Y-75703183D01*
X135076978Y-75553036D01*
X134800027Y-75455037D01*
X134568000Y-75575536D01*
X134568000Y-76783000D01*
X134588000Y-76783000D01*
X134588000Y-77037000D01*
X134568000Y-77037000D01*
X134568000Y-78244464D01*
X134800027Y-78364963D01*
X135076978Y-78266964D01*
X135329488Y-78116817D01*
X135547854Y-77920293D01*
X135723684Y-77684944D01*
X135847441Y-77425642D01*
X135878050Y-77499539D01*
X136014256Y-77703386D01*
X136187614Y-77876744D01*
X136391461Y-78012950D01*
X136617964Y-78106771D01*
X136762573Y-78135535D01*
X132843909Y-82054200D01*
X131525800Y-82054200D01*
X131547683Y-81982062D01*
X131559843Y-81858601D01*
X131559843Y-81158599D01*
X131547683Y-81035138D01*
X131511671Y-80916421D01*
X131453190Y-80807011D01*
X131374488Y-80711112D01*
X131278589Y-80632410D01*
X131169179Y-80573929D01*
X131050462Y-80537917D01*
X130927001Y-80525757D01*
X129676999Y-80525757D01*
X129553538Y-80537917D01*
X129434821Y-80573929D01*
X129325411Y-80632410D01*
X129229512Y-80711112D01*
X129150810Y-80807011D01*
X129092329Y-80916421D01*
X129056317Y-81035138D01*
X129044157Y-81158599D01*
X129044157Y-81858601D01*
X129056317Y-81982062D01*
X129078200Y-82054200D01*
X123651800Y-82054200D01*
X123673683Y-81982062D01*
X123685843Y-81858601D01*
X123685843Y-81158599D01*
X123673683Y-81035138D01*
X123637671Y-80916421D01*
X123579190Y-80807011D01*
X123500488Y-80711112D01*
X123404589Y-80632410D01*
X123295179Y-80573929D01*
X123176462Y-80537917D01*
X123053001Y-80525757D01*
X121802999Y-80525757D01*
X121679538Y-80537917D01*
X121560821Y-80573929D01*
X121451411Y-80632410D01*
X121355512Y-80711112D01*
X121276810Y-80807011D01*
X121218329Y-80916421D01*
X121182317Y-81035138D01*
X121170157Y-81158599D01*
X121170157Y-81858601D01*
X121182317Y-81982062D01*
X121218329Y-82100779D01*
X121276810Y-82210189D01*
X121323332Y-82266876D01*
X120794580Y-82795629D01*
X120775274Y-82811473D01*
X120712042Y-82888521D01*
X120705681Y-82900422D01*
X120665055Y-82976426D01*
X120636122Y-83071808D01*
X120626353Y-83171000D01*
X120628801Y-83195856D01*
X120628800Y-107124654D01*
X120626353Y-107149500D01*
X120628800Y-107174346D01*
X120628800Y-107174353D01*
X120636122Y-107248692D01*
X120665055Y-107344074D01*
X120712041Y-107431979D01*
X120775273Y-107509027D01*
X120794585Y-107524876D01*
X122542865Y-109273157D01*
X121466000Y-109273157D01*
X121391311Y-109280513D01*
X121319492Y-109302299D01*
X121253304Y-109337678D01*
X121195289Y-109385289D01*
X121147678Y-109443304D01*
X121112299Y-109509492D01*
X121090513Y-109581311D01*
X121083157Y-109656000D01*
X121083157Y-112739066D01*
X120595900Y-112251809D01*
X120595900Y-83322654D01*
X120598348Y-83297800D01*
X120588578Y-83198607D01*
X120559645Y-83103225D01*
X120542852Y-83071808D01*
X120512659Y-83015321D01*
X120449427Y-82938273D01*
X120430120Y-82922428D01*
X117160600Y-79652909D01*
X117160600Y-79510578D01*
X117130587Y-79359691D01*
X117071713Y-79217558D01*
X116986242Y-79089641D01*
X116877459Y-78980858D01*
X116749542Y-78895387D01*
X116607409Y-78836513D01*
X116456522Y-78806500D01*
X116302678Y-78806500D01*
X116151791Y-78836513D01*
X116009658Y-78895387D01*
X115881741Y-78980858D01*
X115772958Y-79089641D01*
X115687487Y-79217558D01*
X115628613Y-79359691D01*
X115598600Y-79510578D01*
X115598600Y-79664422D01*
X115628613Y-79815309D01*
X115687487Y-79957442D01*
X115772958Y-80085359D01*
X115881741Y-80194142D01*
X116009658Y-80279613D01*
X116151791Y-80338487D01*
X116302678Y-80368500D01*
X116400486Y-80368500D01*
X116358191Y-80376913D01*
X116216058Y-80435787D01*
X116088141Y-80521258D01*
X115979358Y-80630041D01*
X115893887Y-80757958D01*
X115835013Y-80900091D01*
X115805000Y-81050978D01*
X115805000Y-81204822D01*
X115835013Y-81355709D01*
X115893887Y-81497842D01*
X115979358Y-81625759D01*
X116088141Y-81734542D01*
X116216058Y-81820013D01*
X116358191Y-81878887D01*
X116509078Y-81908900D01*
X116651409Y-81908900D01*
X117788700Y-83046192D01*
X117788701Y-100218678D01*
X117715766Y-100158823D01*
X117580784Y-100086673D01*
X117434319Y-100042243D01*
X117282000Y-100027241D01*
X114682000Y-100027241D01*
X114529681Y-100042243D01*
X114383216Y-100086673D01*
X114248234Y-100158823D01*
X114129920Y-100255920D01*
X114032823Y-100374234D01*
X113960673Y-100509216D01*
X113916243Y-100655681D01*
X113901241Y-100808000D01*
X113901241Y-103408000D01*
X113916243Y-103560319D01*
X113960673Y-103706784D01*
X114032823Y-103841766D01*
X114129920Y-103960080D01*
X114248234Y-104057177D01*
X114383216Y-104129327D01*
X114529681Y-104173757D01*
X114682000Y-104188759D01*
X117282000Y-104188759D01*
X117434319Y-104173757D01*
X117580784Y-104129327D01*
X117715766Y-104057177D01*
X117788701Y-103997321D01*
X117788701Y-111285244D01*
X117786253Y-111310100D01*
X117796022Y-111409292D01*
X117824955Y-111504674D01*
X117838949Y-111530854D01*
X117871942Y-111592579D01*
X117935174Y-111669627D01*
X117954481Y-111685472D01*
X133580955Y-127311947D01*
X126191181Y-127313179D01*
X125380502Y-127313179D01*
X125320853Y-127319054D01*
X125244322Y-127342269D01*
X125173790Y-127379969D01*
X125111969Y-127430705D01*
X125093450Y-127453270D01*
X124790000Y-127785392D01*
X124695883Y-127691275D01*
X125185548Y-127331088D01*
X125545849Y-126667118D01*
X125769694Y-125945615D01*
X125848480Y-125194305D01*
X125779178Y-124442062D01*
X125564452Y-123717792D01*
X125212555Y-123049330D01*
X125185548Y-123008912D01*
X124695881Y-122648724D01*
X123677914Y-123666692D01*
X123498309Y-123487087D01*
X124516276Y-122469119D01*
X124156088Y-121979452D01*
X123492118Y-121619151D01*
X122770615Y-121395306D01*
X122019305Y-121316520D01*
X121267062Y-121385822D01*
X120542792Y-121600548D01*
X119874330Y-121952445D01*
X119833912Y-121979452D01*
X119473724Y-122469119D01*
X120491692Y-123487087D01*
X120312087Y-123666692D01*
X119294119Y-122648724D01*
X118804452Y-123008912D01*
X118444151Y-123672882D01*
X118220306Y-124394385D01*
X118141520Y-125145695D01*
X118210822Y-125897938D01*
X118425548Y-126622208D01*
X118777445Y-127290670D01*
X118804452Y-127331088D01*
X119294117Y-127691275D01*
X119190351Y-127795041D01*
X119146900Y-127755894D01*
X118897003Y-127453100D01*
X118872075Y-127422726D01*
X118810254Y-127371990D01*
X118774630Y-127352949D01*
X118774626Y-127352946D01*
X118774622Y-127352944D01*
X118739722Y-127334290D01*
X118701405Y-127322667D01*
X118701403Y-127322666D01*
X118701400Y-127322665D01*
X118663191Y-127311075D01*
X118603542Y-127305200D01*
X108432200Y-127305200D01*
X108432200Y-107131741D01*
X108434164Y-107111800D01*
X108426325Y-107032210D01*
X108403110Y-106955679D01*
X108365410Y-106885147D01*
X108314674Y-106823326D01*
X108252853Y-106772590D01*
X108182321Y-106734890D01*
X108105790Y-106711675D01*
X108046141Y-106705800D01*
X108026200Y-106703836D01*
X108006260Y-106705800D01*
X102183800Y-106705800D01*
X102183800Y-106642436D01*
X111301000Y-106642436D01*
X111301000Y-106973564D01*
X111365600Y-107298330D01*
X111492317Y-107604252D01*
X111676282Y-107879575D01*
X111910425Y-108113718D01*
X112185748Y-108297683D01*
X112491670Y-108424400D01*
X112816436Y-108489000D01*
X113147564Y-108489000D01*
X113472330Y-108424400D01*
X113778252Y-108297683D01*
X114053575Y-108113718D01*
X114287718Y-107879575D01*
X114471683Y-107604252D01*
X114598400Y-107298330D01*
X114663000Y-106973564D01*
X114663000Y-106642436D01*
X114598400Y-106317670D01*
X114471683Y-106011748D01*
X114287718Y-105736425D01*
X114053575Y-105502282D01*
X113778252Y-105318317D01*
X113472330Y-105191600D01*
X113147564Y-105127000D01*
X112816436Y-105127000D01*
X112491670Y-105191600D01*
X112185748Y-105318317D01*
X111910425Y-105502282D01*
X111676282Y-105736425D01*
X111492317Y-106011748D01*
X111365600Y-106317670D01*
X111301000Y-106642436D01*
X102183800Y-106642436D01*
X102183800Y-103457224D01*
X108812381Y-103457224D01*
X108944317Y-103752312D01*
X109285045Y-103923159D01*
X109652557Y-104024250D01*
X110032729Y-104051701D01*
X110410951Y-104004457D01*
X110772690Y-103884333D01*
X111019683Y-103752312D01*
X111151619Y-103457224D01*
X109982000Y-102287605D01*
X108812381Y-103457224D01*
X102183800Y-103457224D01*
X102183800Y-102158729D01*
X108038299Y-102158729D01*
X108085543Y-102536951D01*
X108205667Y-102898690D01*
X108337688Y-103145683D01*
X108632776Y-103277619D01*
X109802395Y-102108000D01*
X110161605Y-102108000D01*
X111331224Y-103277619D01*
X111626312Y-103145683D01*
X111797159Y-102804955D01*
X111898250Y-102437443D01*
X111925701Y-102057271D01*
X111878457Y-101679049D01*
X111758333Y-101317310D01*
X111626312Y-101070317D01*
X111331224Y-100938381D01*
X110161605Y-102108000D01*
X109802395Y-102108000D01*
X108632776Y-100938381D01*
X108337688Y-101070317D01*
X108166841Y-101411045D01*
X108065750Y-101778557D01*
X108038299Y-102158729D01*
X102183800Y-102158729D01*
X102183800Y-100758776D01*
X108812381Y-100758776D01*
X109982000Y-101928395D01*
X111151619Y-100758776D01*
X111019683Y-100463688D01*
X110678955Y-100292841D01*
X110311443Y-100191750D01*
X109931271Y-100164299D01*
X109553049Y-100211543D01*
X109191310Y-100331667D01*
X108944317Y-100463688D01*
X108812381Y-100758776D01*
X102183800Y-100758776D01*
X102183800Y-97510200D01*
X108006260Y-97510200D01*
X108026200Y-97512164D01*
X108105790Y-97504325D01*
X108182321Y-97481110D01*
X108252853Y-97443410D01*
X108314674Y-97392674D01*
X108365410Y-97330853D01*
X108403110Y-97260321D01*
X108426325Y-97183790D01*
X108432200Y-97124141D01*
X108434164Y-97104200D01*
X108432200Y-97084259D01*
X108432200Y-84059578D01*
X111262000Y-84059578D01*
X111262000Y-84213422D01*
X111292013Y-84364309D01*
X111350887Y-84506442D01*
X111436358Y-84634359D01*
X111545141Y-84743142D01*
X111673058Y-84828613D01*
X111815191Y-84887487D01*
X111966078Y-84917500D01*
X112119922Y-84917500D01*
X112173376Y-84906867D01*
X115598600Y-88332092D01*
X115598600Y-88474422D01*
X115628613Y-88625309D01*
X115687487Y-88767442D01*
X115772958Y-88895359D01*
X115881741Y-89004142D01*
X116009658Y-89089613D01*
X116151791Y-89148487D01*
X116302678Y-89178500D01*
X116456522Y-89178500D01*
X116607409Y-89148487D01*
X116749542Y-89089613D01*
X116877459Y-89004142D01*
X116986242Y-88895359D01*
X117071713Y-88767442D01*
X117130587Y-88625309D01*
X117160600Y-88474422D01*
X117160600Y-88320578D01*
X117130587Y-88169691D01*
X117071713Y-88027558D01*
X116986242Y-87899641D01*
X116877459Y-87790858D01*
X116749542Y-87705387D01*
X116607409Y-87646513D01*
X116456522Y-87616500D01*
X116314192Y-87616500D01*
X112824000Y-84126309D01*
X112824000Y-84059578D01*
X112793987Y-83908691D01*
X112735113Y-83766558D01*
X112649642Y-83638641D01*
X112540859Y-83529858D01*
X112412942Y-83444387D01*
X112270809Y-83385513D01*
X112119922Y-83355500D01*
X111966078Y-83355500D01*
X111815191Y-83385513D01*
X111673058Y-83444387D01*
X111545141Y-83529858D01*
X111436358Y-83638641D01*
X111350887Y-83766558D01*
X111292013Y-83908691D01*
X111262000Y-84059578D01*
X108432200Y-84059578D01*
X108432200Y-76787418D01*
X125576400Y-76787418D01*
X125576400Y-77032582D01*
X125624229Y-77273036D01*
X125718050Y-77499539D01*
X125854256Y-77703386D01*
X126027614Y-77876744D01*
X126231461Y-78012950D01*
X126457964Y-78106771D01*
X126698418Y-78154600D01*
X126943582Y-78154600D01*
X127184036Y-78106771D01*
X127410539Y-78012950D01*
X127614386Y-77876744D01*
X127787744Y-77703386D01*
X127923950Y-77499539D01*
X128017771Y-77273036D01*
X128065600Y-77032582D01*
X128065600Y-76787418D01*
X128116400Y-76787418D01*
X128116400Y-77032582D01*
X128164229Y-77273036D01*
X128258050Y-77499539D01*
X128394256Y-77703386D01*
X128567614Y-77876744D01*
X128771461Y-78012950D01*
X128997964Y-78106771D01*
X129238418Y-78154600D01*
X129483582Y-78154600D01*
X129724036Y-78106771D01*
X129950539Y-78012950D01*
X130154386Y-77876744D01*
X130327744Y-77703386D01*
X130463950Y-77499539D01*
X130557771Y-77273036D01*
X130605600Y-77032582D01*
X130605600Y-76787418D01*
X130656400Y-76787418D01*
X130656400Y-77032582D01*
X130704229Y-77273036D01*
X130798050Y-77499539D01*
X130934256Y-77703386D01*
X131107614Y-77876744D01*
X131311461Y-78012950D01*
X131537964Y-78106771D01*
X131778418Y-78154600D01*
X132023582Y-78154600D01*
X132264036Y-78106771D01*
X132490539Y-78012950D01*
X132694386Y-77876744D01*
X132867744Y-77703386D01*
X133003950Y-77499539D01*
X133034559Y-77425642D01*
X133158316Y-77684944D01*
X133334146Y-77920293D01*
X133552512Y-78116817D01*
X133805022Y-78266964D01*
X134081973Y-78364963D01*
X134314000Y-78244464D01*
X134314000Y-77037000D01*
X134294000Y-77037000D01*
X134294000Y-76783000D01*
X134314000Y-76783000D01*
X134314000Y-75575536D01*
X134081973Y-75455037D01*
X133805022Y-75553036D01*
X133552512Y-75703183D01*
X133334146Y-75899707D01*
X133158316Y-76135056D01*
X133034559Y-76394358D01*
X133003950Y-76320461D01*
X132867744Y-76116614D01*
X132694386Y-75943256D01*
X132490539Y-75807050D01*
X132264036Y-75713229D01*
X132023582Y-75665400D01*
X131778418Y-75665400D01*
X131537964Y-75713229D01*
X131311461Y-75807050D01*
X131107614Y-75943256D01*
X130934256Y-76116614D01*
X130798050Y-76320461D01*
X130704229Y-76546964D01*
X130656400Y-76787418D01*
X130605600Y-76787418D01*
X130557771Y-76546964D01*
X130463950Y-76320461D01*
X130327744Y-76116614D01*
X130154386Y-75943256D01*
X129950539Y-75807050D01*
X129724036Y-75713229D01*
X129483582Y-75665400D01*
X129238418Y-75665400D01*
X128997964Y-75713229D01*
X128771461Y-75807050D01*
X128567614Y-75943256D01*
X128394256Y-76116614D01*
X128258050Y-76320461D01*
X128164229Y-76546964D01*
X128116400Y-76787418D01*
X128065600Y-76787418D01*
X128017771Y-76546964D01*
X127923950Y-76320461D01*
X127787744Y-76116614D01*
X127614386Y-75943256D01*
X127410539Y-75807050D01*
X127184036Y-75713229D01*
X126943582Y-75665400D01*
X126698418Y-75665400D01*
X126457964Y-75713229D01*
X126231461Y-75807050D01*
X126027614Y-75943256D01*
X125854256Y-76116614D01*
X125718050Y-76320461D01*
X125624229Y-76546964D01*
X125576400Y-76787418D01*
X108432200Y-76787418D01*
X108432200Y-74777200D01*
X193650000Y-74777200D01*
X193650001Y-127305200D01*
G04 #@! TA.AperFunction,Conductor*
D26*
G36*
X193650001Y-127305200D02*
G01*
X174060704Y-127305200D01*
X174060673Y-127305197D01*
X174042681Y-127305200D01*
X174020859Y-127305200D01*
X174020822Y-127305204D01*
X172506435Y-127305456D01*
X173504620Y-126307272D01*
X173523927Y-126291427D01*
X173587159Y-126214379D01*
X173634145Y-126126475D01*
X173663078Y-126031093D01*
X173670400Y-125956754D01*
X173670400Y-125956747D01*
X173672847Y-125931901D01*
X173670400Y-125907055D01*
X173670400Y-124419454D01*
X173672848Y-124394600D01*
X173663078Y-124295407D01*
X173634145Y-124200025D01*
X173623133Y-124179423D01*
X173587159Y-124112121D01*
X173523927Y-124035073D01*
X173504620Y-124019228D01*
X173357197Y-123871805D01*
X174040695Y-123943480D01*
X174792938Y-123874178D01*
X175517208Y-123659452D01*
X176185670Y-123307555D01*
X176226088Y-123280548D01*
X176586276Y-122790881D01*
X175568309Y-121772914D01*
X175747914Y-121593309D01*
X176765881Y-122611276D01*
X177255548Y-122251088D01*
X177615849Y-121587118D01*
X177718888Y-121255000D01*
X182577241Y-121255000D01*
X182577241Y-123855000D01*
X182592243Y-124007319D01*
X182636673Y-124153784D01*
X182708823Y-124288766D01*
X182805920Y-124407080D01*
X182924234Y-124504177D01*
X183059216Y-124576327D01*
X183205681Y-124620757D01*
X183358000Y-124635759D01*
X185958000Y-124635759D01*
X186110319Y-124620757D01*
X186256784Y-124576327D01*
X186391766Y-124504177D01*
X186510080Y-124407080D01*
X186607177Y-124288766D01*
X186679327Y-124153784D01*
X186723757Y-124007319D01*
X186738759Y-123855000D01*
X186738759Y-121255000D01*
X186723757Y-121102681D01*
X186679327Y-120956216D01*
X186607177Y-120821234D01*
X186510080Y-120702920D01*
X186391766Y-120605823D01*
X186256784Y-120533673D01*
X186110319Y-120489243D01*
X185958000Y-120474241D01*
X183358000Y-120474241D01*
X183205681Y-120489243D01*
X183059216Y-120533673D01*
X182924234Y-120605823D01*
X182805920Y-120702920D01*
X182708823Y-120821234D01*
X182636673Y-120956216D01*
X182592243Y-121102681D01*
X182577241Y-121255000D01*
X177718888Y-121255000D01*
X177839694Y-120865615D01*
X177918480Y-120114305D01*
X177849178Y-119362062D01*
X177634452Y-118637792D01*
X177282555Y-117969330D01*
X177255548Y-117928912D01*
X176765881Y-117568724D01*
X175747914Y-118586692D01*
X175568309Y-118407087D01*
X176586276Y-117389119D01*
X176293796Y-116991500D01*
X182545327Y-116991500D01*
X182621359Y-117067533D01*
X182581000Y-117270433D01*
X182581000Y-117679567D01*
X182660818Y-118080839D01*
X182817386Y-118458829D01*
X183044689Y-118799011D01*
X183333989Y-119088311D01*
X183674171Y-119315614D01*
X184052161Y-119472182D01*
X184453433Y-119552000D01*
X184862567Y-119552000D01*
X185263839Y-119472182D01*
X185641829Y-119315614D01*
X185982011Y-119088311D01*
X186271311Y-118799011D01*
X186498614Y-118458829D01*
X186655182Y-118080839D01*
X186735000Y-117679567D01*
X186735000Y-117270433D01*
X186655182Y-116869161D01*
X186498614Y-116491171D01*
X186271311Y-116150989D01*
X185982011Y-115861689D01*
X185641829Y-115634386D01*
X185263839Y-115477818D01*
X184862567Y-115398000D01*
X184453433Y-115398000D01*
X184250533Y-115438359D01*
X183877107Y-115064934D01*
X183841028Y-115020972D01*
X183665614Y-114877012D01*
X183465484Y-114770041D01*
X183248331Y-114704168D01*
X183079095Y-114687500D01*
X183079087Y-114687500D01*
X183022500Y-114681927D01*
X182965913Y-114687500D01*
X166665087Y-114687500D01*
X166608500Y-114681927D01*
X166551913Y-114687500D01*
X166551905Y-114687500D01*
X166402490Y-114702216D01*
X166382668Y-114704168D01*
X166316795Y-114724151D01*
X166165516Y-114770041D01*
X165965386Y-114877012D01*
X165965384Y-114877013D01*
X165965385Y-114877013D01*
X165833931Y-114984895D01*
X165833929Y-114984897D01*
X165789972Y-115020972D01*
X165753897Y-115064929D01*
X163485827Y-117333000D01*
X163424422Y-117333000D01*
X163127090Y-117392142D01*
X162847010Y-117508156D01*
X162594944Y-117676580D01*
X162380580Y-117890944D01*
X162306000Y-118002562D01*
X162231420Y-117890944D01*
X162017056Y-117676580D01*
X161764990Y-117508156D01*
X161484910Y-117392142D01*
X161187578Y-117333000D01*
X160884422Y-117333000D01*
X160587090Y-117392142D01*
X160307010Y-117508156D01*
X160054944Y-117676580D01*
X159840580Y-117890944D01*
X159766000Y-118002562D01*
X159691420Y-117890944D01*
X159477056Y-117676580D01*
X159224990Y-117508156D01*
X159029848Y-117427325D01*
X164266740Y-112190433D01*
X182581000Y-112190433D01*
X182581000Y-112599567D01*
X182660818Y-113000839D01*
X182817386Y-113378829D01*
X183044689Y-113719011D01*
X183333989Y-114008311D01*
X183674171Y-114235614D01*
X184052161Y-114392182D01*
X184453433Y-114472000D01*
X184862567Y-114472000D01*
X185263839Y-114392182D01*
X185641829Y-114235614D01*
X185982011Y-114008311D01*
X186271311Y-113719011D01*
X186498614Y-113378829D01*
X186655182Y-113000839D01*
X186735000Y-112599567D01*
X186735000Y-112190433D01*
X186655182Y-111789161D01*
X186498614Y-111411171D01*
X186271311Y-111070989D01*
X185982011Y-110781689D01*
X185641829Y-110554386D01*
X185263839Y-110397818D01*
X184862567Y-110318000D01*
X184453433Y-110318000D01*
X184052161Y-110397818D01*
X183674171Y-110554386D01*
X183333989Y-110781689D01*
X183044689Y-111070989D01*
X182817386Y-111411171D01*
X182660818Y-111789161D01*
X182581000Y-112190433D01*
X164266740Y-112190433D01*
X165235574Y-111221600D01*
X181846813Y-111221600D01*
X181903400Y-111227173D01*
X181959987Y-111221600D01*
X181959995Y-111221600D01*
X182129231Y-111204932D01*
X182346384Y-111139059D01*
X182546514Y-111032088D01*
X182721928Y-110888128D01*
X182758007Y-110844166D01*
X184250533Y-109351641D01*
X184453433Y-109392000D01*
X184862567Y-109392000D01*
X185263839Y-109312182D01*
X185641829Y-109155614D01*
X185982011Y-108928311D01*
X186271311Y-108639011D01*
X186498614Y-108298829D01*
X186655182Y-107920839D01*
X186735000Y-107519567D01*
X186735000Y-107110433D01*
X186655182Y-106709161D01*
X186498614Y-106331171D01*
X186271311Y-105990989D01*
X185982011Y-105701689D01*
X185641829Y-105474386D01*
X185263839Y-105317818D01*
X184862567Y-105238000D01*
X184453433Y-105238000D01*
X184052161Y-105317818D01*
X183674171Y-105474386D01*
X183333989Y-105701689D01*
X183044689Y-105990989D01*
X182817386Y-106331171D01*
X182660818Y-106709161D01*
X182581000Y-107110433D01*
X182581000Y-107519567D01*
X182621359Y-107722467D01*
X181426227Y-108917600D01*
X164814984Y-108917600D01*
X164758399Y-108912027D01*
X164701814Y-108917600D01*
X164701805Y-108917600D01*
X164532569Y-108934268D01*
X164315416Y-109000141D01*
X164115286Y-109107112D01*
X164115284Y-109107113D01*
X164115285Y-109107113D01*
X163983831Y-109214995D01*
X163983829Y-109214997D01*
X163939872Y-109251072D01*
X163903797Y-109295029D01*
X155865827Y-117333000D01*
X155804422Y-117333000D01*
X155507090Y-117392142D01*
X155227010Y-117508156D01*
X154974944Y-117676580D01*
X154760580Y-117890944D01*
X154592156Y-118143010D01*
X154476142Y-118423090D01*
X154473251Y-118437627D01*
X154428913Y-118330587D01*
X154303826Y-118143380D01*
X154144620Y-117984174D01*
X153957413Y-117859087D01*
X153922000Y-117844418D01*
X153922000Y-111022845D01*
X153924447Y-110997999D01*
X153922000Y-110973153D01*
X153922000Y-110973146D01*
X153914678Y-110898807D01*
X153885745Y-110803425D01*
X153838759Y-110715521D01*
X153775527Y-110638473D01*
X153756220Y-110622628D01*
X150450435Y-107316843D01*
X151638000Y-107316843D01*
X151712689Y-107309487D01*
X151784508Y-107287701D01*
X151850696Y-107252322D01*
X151908711Y-107204711D01*
X151956322Y-107146696D01*
X151991701Y-107080508D01*
X152013487Y-107008689D01*
X152020843Y-106934000D01*
X152020843Y-105492435D01*
X152331594Y-105803186D01*
X152316925Y-105838599D01*
X152273000Y-106059424D01*
X152273000Y-106284576D01*
X152316925Y-106505401D01*
X152403087Y-106713413D01*
X152528174Y-106900620D01*
X152687380Y-107059826D01*
X152874587Y-107184913D01*
X153082599Y-107271075D01*
X153303424Y-107315000D01*
X153528576Y-107315000D01*
X153749401Y-107271075D01*
X153957413Y-107184913D01*
X154144620Y-107059826D01*
X154303826Y-106900620D01*
X154428913Y-106713413D01*
X154515075Y-106505401D01*
X154559000Y-106284576D01*
X154559000Y-106059424D01*
X154813000Y-106059424D01*
X154813000Y-106284576D01*
X154856925Y-106505401D01*
X154943087Y-106713413D01*
X155068174Y-106900620D01*
X155227380Y-107059826D01*
X155414587Y-107184913D01*
X155622599Y-107271075D01*
X155843424Y-107315000D01*
X156068576Y-107315000D01*
X156289401Y-107271075D01*
X156497413Y-107184913D01*
X156684620Y-107059826D01*
X156843826Y-106900620D01*
X156968913Y-106713413D01*
X157055075Y-106505401D01*
X157099000Y-106284576D01*
X157099000Y-106059424D01*
X157055075Y-105838599D01*
X156968913Y-105630587D01*
X156843826Y-105443380D01*
X156684620Y-105284174D01*
X156497413Y-105159087D01*
X156289401Y-105072925D01*
X156068576Y-105029000D01*
X155843424Y-105029000D01*
X155622599Y-105072925D01*
X155414587Y-105159087D01*
X155227380Y-105284174D01*
X155068174Y-105443380D01*
X154943087Y-105630587D01*
X154856925Y-105838599D01*
X154813000Y-106059424D01*
X154559000Y-106059424D01*
X154515075Y-105838599D01*
X154428913Y-105630587D01*
X154303826Y-105443380D01*
X154144620Y-105284174D01*
X153957413Y-105159087D01*
X153749401Y-105072925D01*
X153528576Y-105029000D01*
X153303424Y-105029000D01*
X153082599Y-105072925D01*
X153047186Y-105087594D01*
X149736600Y-101777009D01*
X149736600Y-94029008D01*
X149836041Y-93929567D01*
X149903020Y-94169656D01*
X150152048Y-94286756D01*
X150419135Y-94353023D01*
X150694017Y-94365910D01*
X150966133Y-94324922D01*
X151225023Y-94231636D01*
X151340980Y-94169656D01*
X151407959Y-93929567D01*
X151524369Y-94045977D01*
X151545100Y-94025246D01*
X151545100Y-99702254D01*
X151542653Y-99727100D01*
X151545100Y-99751946D01*
X151545100Y-99751953D01*
X151552422Y-99826292D01*
X151581355Y-99921674D01*
X151628341Y-100009579D01*
X151691573Y-100086627D01*
X151710885Y-100102476D01*
X157411594Y-105803186D01*
X157396925Y-105838599D01*
X157353000Y-106059424D01*
X157353000Y-106284576D01*
X157396925Y-106505401D01*
X157483087Y-106713413D01*
X157608174Y-106900620D01*
X157767380Y-107059826D01*
X157954587Y-107184913D01*
X158162599Y-107271075D01*
X158383424Y-107315000D01*
X158608576Y-107315000D01*
X158829401Y-107271075D01*
X159037413Y-107184913D01*
X159224620Y-107059826D01*
X159383826Y-106900620D01*
X159508913Y-106713413D01*
X159595075Y-106505401D01*
X159639000Y-106284576D01*
X159639000Y-106059424D01*
X159893000Y-106059424D01*
X159893000Y-106284576D01*
X159936925Y-106505401D01*
X160023087Y-106713413D01*
X160148174Y-106900620D01*
X160307380Y-107059826D01*
X160494587Y-107184913D01*
X160702599Y-107271075D01*
X160923424Y-107315000D01*
X161148576Y-107315000D01*
X161369401Y-107271075D01*
X161577413Y-107184913D01*
X161764620Y-107059826D01*
X161923826Y-106900620D01*
X162048913Y-106713413D01*
X162135075Y-106505401D01*
X162179000Y-106284576D01*
X162179000Y-106059424D01*
X162433000Y-106059424D01*
X162433000Y-106284576D01*
X162476925Y-106505401D01*
X162563087Y-106713413D01*
X162688174Y-106900620D01*
X162847380Y-107059826D01*
X163034587Y-107184913D01*
X163242599Y-107271075D01*
X163463424Y-107315000D01*
X163688576Y-107315000D01*
X163909401Y-107271075D01*
X164117413Y-107184913D01*
X164304620Y-107059826D01*
X164463826Y-106900620D01*
X164588913Y-106713413D01*
X164675075Y-106505401D01*
X164719000Y-106284576D01*
X164719000Y-106059424D01*
X164973000Y-106059424D01*
X164973000Y-106284576D01*
X165016925Y-106505401D01*
X165103087Y-106713413D01*
X165228174Y-106900620D01*
X165387380Y-107059826D01*
X165574587Y-107184913D01*
X165782599Y-107271075D01*
X166003424Y-107315000D01*
X166228576Y-107315000D01*
X166449401Y-107271075D01*
X166657413Y-107184913D01*
X166844620Y-107059826D01*
X167003826Y-106900620D01*
X167128913Y-106713413D01*
X167215075Y-106505401D01*
X167259000Y-106284576D01*
X167259000Y-106059424D01*
X167513000Y-106059424D01*
X167513000Y-106284576D01*
X167556925Y-106505401D01*
X167643087Y-106713413D01*
X167768174Y-106900620D01*
X167927380Y-107059826D01*
X168114587Y-107184913D01*
X168322599Y-107271075D01*
X168543424Y-107315000D01*
X168768576Y-107315000D01*
X168989401Y-107271075D01*
X169197413Y-107184913D01*
X169384620Y-107059826D01*
X169543826Y-106900620D01*
X169668913Y-106713413D01*
X169755075Y-106505401D01*
X169799000Y-106284576D01*
X169799000Y-106059424D01*
X169755075Y-105838599D01*
X169668913Y-105630587D01*
X169543826Y-105443380D01*
X169384620Y-105284174D01*
X169197413Y-105159087D01*
X168989401Y-105072925D01*
X168768576Y-105029000D01*
X168543424Y-105029000D01*
X168322599Y-105072925D01*
X168114587Y-105159087D01*
X167927380Y-105284174D01*
X167768174Y-105443380D01*
X167643087Y-105630587D01*
X167556925Y-105838599D01*
X167513000Y-106059424D01*
X167259000Y-106059424D01*
X167215075Y-105838599D01*
X167128913Y-105630587D01*
X167003826Y-105443380D01*
X166844620Y-105284174D01*
X166657413Y-105159087D01*
X166449401Y-105072925D01*
X166228576Y-105029000D01*
X166003424Y-105029000D01*
X165782599Y-105072925D01*
X165574587Y-105159087D01*
X165387380Y-105284174D01*
X165228174Y-105443380D01*
X165103087Y-105630587D01*
X165016925Y-105838599D01*
X164973000Y-106059424D01*
X164719000Y-106059424D01*
X164675075Y-105838599D01*
X164588913Y-105630587D01*
X164463826Y-105443380D01*
X164304620Y-105284174D01*
X164117413Y-105159087D01*
X163909401Y-105072925D01*
X163688576Y-105029000D01*
X163463424Y-105029000D01*
X163242599Y-105072925D01*
X163034587Y-105159087D01*
X162847380Y-105284174D01*
X162688174Y-105443380D01*
X162563087Y-105630587D01*
X162476925Y-105838599D01*
X162433000Y-106059424D01*
X162179000Y-106059424D01*
X162135075Y-105838599D01*
X162048913Y-105630587D01*
X161923826Y-105443380D01*
X161764620Y-105284174D01*
X161577413Y-105159087D01*
X161369401Y-105072925D01*
X161148576Y-105029000D01*
X160923424Y-105029000D01*
X160702599Y-105072925D01*
X160494587Y-105159087D01*
X160307380Y-105284174D01*
X160148174Y-105443380D01*
X160023087Y-105630587D01*
X159936925Y-105838599D01*
X159893000Y-106059424D01*
X159639000Y-106059424D01*
X159595075Y-105838599D01*
X159508913Y-105630587D01*
X159383826Y-105443380D01*
X159224620Y-105284174D01*
X159037413Y-105159087D01*
X158829401Y-105072925D01*
X158608576Y-105029000D01*
X158383424Y-105029000D01*
X158162599Y-105072925D01*
X158127186Y-105087594D01*
X152557100Y-99517509D01*
X152557100Y-93934493D01*
X152620587Y-93976913D01*
X152828599Y-94063075D01*
X153049424Y-94107000D01*
X153274576Y-94107000D01*
X153495401Y-94063075D01*
X153703413Y-93976913D01*
X153890620Y-93851826D01*
X154049826Y-93692620D01*
X154174913Y-93505413D01*
X154219251Y-93398373D01*
X154222142Y-93412910D01*
X154338156Y-93692990D01*
X154506580Y-93945056D01*
X154720944Y-94159420D01*
X154973010Y-94327844D01*
X155253090Y-94443858D01*
X155550422Y-94503000D01*
X155853578Y-94503000D01*
X156150910Y-94443858D01*
X156430990Y-94327844D01*
X156683056Y-94159420D01*
X156897420Y-93945056D01*
X156972000Y-93833438D01*
X157046580Y-93945056D01*
X157260944Y-94159420D01*
X157513010Y-94327844D01*
X157793090Y-94443858D01*
X158090422Y-94503000D01*
X158393578Y-94503000D01*
X158690910Y-94443858D01*
X158970990Y-94327844D01*
X159223056Y-94159420D01*
X159437420Y-93945056D01*
X159512000Y-93833438D01*
X159586580Y-93945056D01*
X159800944Y-94159420D01*
X160053010Y-94327844D01*
X160333090Y-94443858D01*
X160630422Y-94503000D01*
X160691827Y-94503000D01*
X163374502Y-97185677D01*
X163410572Y-97229628D01*
X163454523Y-97265698D01*
X163454531Y-97265706D01*
X163571224Y-97361473D01*
X163585986Y-97373588D01*
X163621694Y-97392674D01*
X163786115Y-97480559D01*
X164003268Y-97546432D01*
X164023090Y-97548384D01*
X164172505Y-97563100D01*
X164172513Y-97563100D01*
X164229100Y-97568673D01*
X164285687Y-97563100D01*
X180353013Y-97563100D01*
X180409600Y-97568673D01*
X180466187Y-97563100D01*
X180466195Y-97563100D01*
X180635431Y-97546432D01*
X180852584Y-97480559D01*
X181052714Y-97373588D01*
X181228128Y-97229628D01*
X181264207Y-97185666D01*
X182584829Y-95865045D01*
X182592243Y-95940319D01*
X182636673Y-96086784D01*
X182708823Y-96221766D01*
X182805920Y-96340080D01*
X182924234Y-96437177D01*
X183059216Y-96509327D01*
X183205681Y-96553757D01*
X183358000Y-96568759D01*
X185958000Y-96568759D01*
X186110319Y-96553757D01*
X186256784Y-96509327D01*
X186391766Y-96437177D01*
X186510080Y-96340080D01*
X186607177Y-96221766D01*
X186679327Y-96086784D01*
X186723757Y-95940319D01*
X186738759Y-95788000D01*
X186738759Y-93188000D01*
X186723757Y-93035681D01*
X186679327Y-92889216D01*
X186607177Y-92754234D01*
X186510080Y-92635920D01*
X186391766Y-92538823D01*
X186256784Y-92466673D01*
X186110319Y-92422243D01*
X185958000Y-92407241D01*
X183358000Y-92407241D01*
X183205681Y-92422243D01*
X183059216Y-92466673D01*
X182924234Y-92538823D01*
X182805920Y-92635920D01*
X182708823Y-92754234D01*
X182636673Y-92889216D01*
X182592243Y-93035681D01*
X182577241Y-93188000D01*
X182577241Y-93336000D01*
X182389284Y-93336000D01*
X182332699Y-93330427D01*
X182276114Y-93336000D01*
X182276105Y-93336000D01*
X182106869Y-93352668D01*
X181889716Y-93418541D01*
X181689586Y-93525512D01*
X181650091Y-93557925D01*
X181558131Y-93633395D01*
X181558129Y-93633397D01*
X181514172Y-93669472D01*
X181478097Y-93713429D01*
X179932427Y-95259100D01*
X176285999Y-95259100D01*
X176586276Y-94850881D01*
X175568309Y-93832914D01*
X175747914Y-93653309D01*
X176765881Y-94671276D01*
X177255548Y-94311088D01*
X177615849Y-93647118D01*
X177839694Y-92925615D01*
X177918480Y-92174305D01*
X177849178Y-91422062D01*
X177634452Y-90697792D01*
X177282555Y-90029330D01*
X177255548Y-89988912D01*
X176765881Y-89628724D01*
X175747914Y-90646692D01*
X175568309Y-90467087D01*
X176586276Y-89449119D01*
X176303874Y-89065200D01*
X182608496Y-89065200D01*
X182581000Y-89203433D01*
X182581000Y-89612567D01*
X182660818Y-90013839D01*
X182817386Y-90391829D01*
X183044689Y-90732011D01*
X183333989Y-91021311D01*
X183674171Y-91248614D01*
X184052161Y-91405182D01*
X184453433Y-91485000D01*
X184862567Y-91485000D01*
X185263839Y-91405182D01*
X185641829Y-91248614D01*
X185982011Y-91021311D01*
X186271311Y-90732011D01*
X186498614Y-90391829D01*
X186655182Y-90013839D01*
X186735000Y-89612567D01*
X186735000Y-89203433D01*
X186655182Y-88802161D01*
X186498614Y-88424171D01*
X186271311Y-88083989D01*
X185982011Y-87794689D01*
X185641829Y-87567386D01*
X185263839Y-87410818D01*
X184862567Y-87331000D01*
X184453433Y-87331000D01*
X184250533Y-87371359D01*
X184017807Y-87138634D01*
X183981728Y-87094672D01*
X183806314Y-86950712D01*
X183606184Y-86843741D01*
X183389031Y-86777868D01*
X183219795Y-86761200D01*
X183219787Y-86761200D01*
X183163200Y-86755627D01*
X183106613Y-86761200D01*
X168429387Y-86761200D01*
X168372800Y-86755627D01*
X168316213Y-86761200D01*
X168316205Y-86761200D01*
X168166790Y-86775916D01*
X168146968Y-86777868D01*
X168095678Y-86793427D01*
X167929816Y-86843741D01*
X167729686Y-86950712D01*
X167729684Y-86950713D01*
X167729685Y-86950713D01*
X167598231Y-87058595D01*
X167598229Y-87058597D01*
X167554272Y-87094672D01*
X167518197Y-87138629D01*
X163231827Y-91425000D01*
X163170422Y-91425000D01*
X162873090Y-91484142D01*
X162593010Y-91600156D01*
X162340944Y-91768580D01*
X162126580Y-91982944D01*
X162052000Y-92094562D01*
X161977420Y-91982944D01*
X161763056Y-91768580D01*
X161510990Y-91600156D01*
X161315848Y-91519325D01*
X167355174Y-85480000D01*
X182929755Y-85480000D01*
X183044689Y-85652011D01*
X183333989Y-85941311D01*
X183674171Y-86168614D01*
X184052161Y-86325182D01*
X184453433Y-86405000D01*
X184862567Y-86405000D01*
X185263839Y-86325182D01*
X185641829Y-86168614D01*
X185982011Y-85941311D01*
X186271311Y-85652011D01*
X186498614Y-85311829D01*
X186655182Y-84933839D01*
X186735000Y-84532567D01*
X186735000Y-84123433D01*
X186655182Y-83722161D01*
X186498614Y-83344171D01*
X186271311Y-83003989D01*
X185982011Y-82714689D01*
X185641829Y-82487386D01*
X185263839Y-82330818D01*
X184862567Y-82251000D01*
X184453433Y-82251000D01*
X184052161Y-82330818D01*
X183674171Y-82487386D01*
X183333989Y-82714689D01*
X183044689Y-83003989D01*
X182929755Y-83176000D01*
X182115809Y-83176000D01*
X182297584Y-83120859D01*
X182497714Y-83013888D01*
X182673128Y-82869928D01*
X182709207Y-82825966D01*
X184250533Y-81284641D01*
X184453433Y-81325000D01*
X184862567Y-81325000D01*
X185263839Y-81245182D01*
X185641829Y-81088614D01*
X185982011Y-80861311D01*
X186271311Y-80572011D01*
X186498614Y-80231829D01*
X186655182Y-79853839D01*
X186735000Y-79452567D01*
X186735000Y-79043433D01*
X186655182Y-78642161D01*
X186498614Y-78264171D01*
X186271311Y-77923989D01*
X185982011Y-77634689D01*
X185641829Y-77407386D01*
X185263839Y-77250818D01*
X184862567Y-77171000D01*
X184453433Y-77171000D01*
X184052161Y-77250818D01*
X183674171Y-77407386D01*
X183333989Y-77634689D01*
X183044689Y-77923989D01*
X182817386Y-78264171D01*
X182660818Y-78642161D01*
X182581000Y-79043433D01*
X182581000Y-79452567D01*
X182621359Y-79655467D01*
X181377427Y-80899400D01*
X169352113Y-80899400D01*
X169414913Y-80805413D01*
X169501075Y-80597401D01*
X169545000Y-80376576D01*
X169545000Y-80151424D01*
X169501075Y-79930599D01*
X169414913Y-79722587D01*
X169289826Y-79535380D01*
X169130620Y-79376174D01*
X168943413Y-79251087D01*
X168735401Y-79164925D01*
X168514576Y-79121000D01*
X168289424Y-79121000D01*
X168068599Y-79164925D01*
X167860587Y-79251087D01*
X167796740Y-79293748D01*
X166642658Y-78139667D01*
X166808036Y-78106771D01*
X167034539Y-78012950D01*
X167238386Y-77876744D01*
X167411744Y-77703386D01*
X167547950Y-77499539D01*
X167641771Y-77273036D01*
X167689600Y-77032582D01*
X167689600Y-76787418D01*
X167740400Y-76787418D01*
X167740400Y-77032582D01*
X167788229Y-77273036D01*
X167882050Y-77499539D01*
X168018256Y-77703386D01*
X168191614Y-77876744D01*
X168395461Y-78012950D01*
X168621964Y-78106771D01*
X168862418Y-78154600D01*
X169107582Y-78154600D01*
X169348036Y-78106771D01*
X169574539Y-78012950D01*
X169778386Y-77876744D01*
X169951744Y-77703386D01*
X170087950Y-77499539D01*
X170181771Y-77273036D01*
X170229600Y-77032582D01*
X170229600Y-76787418D01*
X170280400Y-76787418D01*
X170280400Y-77032582D01*
X170328229Y-77273036D01*
X170422050Y-77499539D01*
X170558256Y-77703386D01*
X170731614Y-77876744D01*
X170935461Y-78012950D01*
X171161964Y-78106771D01*
X171402418Y-78154600D01*
X171647582Y-78154600D01*
X171888036Y-78106771D01*
X172114539Y-78012950D01*
X172318386Y-77876744D01*
X172491744Y-77703386D01*
X172627950Y-77499539D01*
X172721771Y-77273036D01*
X172769600Y-77032582D01*
X172769600Y-76787418D01*
X172721771Y-76546964D01*
X172627950Y-76320461D01*
X172491744Y-76116614D01*
X172318386Y-75943256D01*
X172114539Y-75807050D01*
X171888036Y-75713229D01*
X171647582Y-75665400D01*
X171402418Y-75665400D01*
X171161964Y-75713229D01*
X170935461Y-75807050D01*
X170731614Y-75943256D01*
X170558256Y-76116614D01*
X170422050Y-76320461D01*
X170328229Y-76546964D01*
X170280400Y-76787418D01*
X170229600Y-76787418D01*
X170181771Y-76546964D01*
X170087950Y-76320461D01*
X169951744Y-76116614D01*
X169778386Y-75943256D01*
X169574539Y-75807050D01*
X169348036Y-75713229D01*
X169107582Y-75665400D01*
X168862418Y-75665400D01*
X168621964Y-75713229D01*
X168395461Y-75807050D01*
X168191614Y-75943256D01*
X168018256Y-76116614D01*
X167882050Y-76320461D01*
X167788229Y-76546964D01*
X167740400Y-76787418D01*
X167689600Y-76787418D01*
X167641771Y-76546964D01*
X167547950Y-76320461D01*
X167411744Y-76116614D01*
X167238386Y-75943256D01*
X167034539Y-75807050D01*
X166808036Y-75713229D01*
X166567582Y-75665400D01*
X166322418Y-75665400D01*
X166081964Y-75713229D01*
X165855461Y-75807050D01*
X165651614Y-75943256D01*
X165519681Y-76075189D01*
X164813176Y-75368685D01*
X164797327Y-75349373D01*
X164720279Y-75286141D01*
X164632375Y-75239155D01*
X164536993Y-75210222D01*
X164462654Y-75202900D01*
X164462646Y-75202900D01*
X164437800Y-75200453D01*
X164412954Y-75202900D01*
X158328354Y-75202900D01*
X158303500Y-75200452D01*
X158278646Y-75202900D01*
X158204307Y-75210222D01*
X158108925Y-75239155D01*
X158021021Y-75286141D01*
X157943973Y-75349373D01*
X157928128Y-75368680D01*
X157215969Y-76080839D01*
X157078386Y-75943256D01*
X156874539Y-75807050D01*
X156648036Y-75713229D01*
X156407582Y-75665400D01*
X156162418Y-75665400D01*
X155921964Y-75713229D01*
X155695461Y-75807050D01*
X155491614Y-75943256D01*
X155318256Y-76116614D01*
X155182050Y-76320461D01*
X155088229Y-76546964D01*
X155040400Y-76787418D01*
X155040400Y-77032582D01*
X155088229Y-77273036D01*
X155182050Y-77499539D01*
X155248002Y-77598243D01*
X155227907Y-77600222D01*
X155132525Y-77629155D01*
X155044621Y-77676141D01*
X154967573Y-77739373D01*
X154951729Y-77758679D01*
X153530815Y-79179594D01*
X153495401Y-79164925D01*
X153274576Y-79121000D01*
X153049424Y-79121000D01*
X152828599Y-79164925D01*
X152620587Y-79251087D01*
X152463261Y-79356208D01*
X152410627Y-79292073D01*
X152391320Y-79276228D01*
X150873776Y-77758685D01*
X150857927Y-77739373D01*
X150780879Y-77676141D01*
X150696194Y-77630876D01*
X150783950Y-77499539D01*
X150877771Y-77273036D01*
X150925600Y-77032582D01*
X150925600Y-76787418D01*
X152500400Y-76787418D01*
X152500400Y-77032582D01*
X152548229Y-77273036D01*
X152642050Y-77499539D01*
X152778256Y-77703386D01*
X152951614Y-77876744D01*
X153155461Y-78012950D01*
X153381964Y-78106771D01*
X153622418Y-78154600D01*
X153867582Y-78154600D01*
X154108036Y-78106771D01*
X154334539Y-78012950D01*
X154538386Y-77876744D01*
X154711744Y-77703386D01*
X154847950Y-77499539D01*
X154941771Y-77273036D01*
X154989600Y-77032582D01*
X154989600Y-76787418D01*
X154941771Y-76546964D01*
X154847950Y-76320461D01*
X154711744Y-76116614D01*
X154538386Y-75943256D01*
X154334539Y-75807050D01*
X154108036Y-75713229D01*
X153867582Y-75665400D01*
X153622418Y-75665400D01*
X153381964Y-75713229D01*
X153155461Y-75807050D01*
X152951614Y-75943256D01*
X152778256Y-76116614D01*
X152642050Y-76320461D01*
X152548229Y-76546964D01*
X152500400Y-76787418D01*
X150925600Y-76787418D01*
X150877771Y-76546964D01*
X150783950Y-76320461D01*
X150647744Y-76116614D01*
X150474386Y-75943256D01*
X150270539Y-75807050D01*
X150044036Y-75713229D01*
X149803582Y-75665400D01*
X149558418Y-75665400D01*
X149317964Y-75713229D01*
X149091461Y-75807050D01*
X148887614Y-75943256D01*
X148714256Y-76116614D01*
X148578050Y-76320461D01*
X148484229Y-76546964D01*
X148436400Y-76787418D01*
X148436400Y-77032582D01*
X148484229Y-77273036D01*
X148578050Y-77499539D01*
X148714256Y-77703386D01*
X148887614Y-77876744D01*
X149091461Y-78012950D01*
X149175001Y-78047554D01*
X149175001Y-78074036D01*
X149172552Y-78098900D01*
X149182322Y-78198093D01*
X149211255Y-78293475D01*
X149258241Y-78381379D01*
X149321473Y-78458427D01*
X149398521Y-78521659D01*
X149486425Y-78568645D01*
X149581807Y-78597578D01*
X149656146Y-78604900D01*
X149681000Y-78607348D01*
X149705854Y-78604900D01*
X150288809Y-78604900D01*
X150803066Y-79119157D01*
X149860000Y-79119157D01*
X149785311Y-79126513D01*
X149713492Y-79148299D01*
X149647304Y-79183678D01*
X149589289Y-79231289D01*
X149541678Y-79289304D01*
X149506299Y-79355492D01*
X149484513Y-79427311D01*
X149477157Y-79502000D01*
X149477157Y-79719465D01*
X147754578Y-77996887D01*
X147934386Y-77876744D01*
X148107744Y-77703386D01*
X148243950Y-77499539D01*
X148337771Y-77273036D01*
X148385600Y-77032582D01*
X148385600Y-76787418D01*
X148337771Y-76546964D01*
X148243950Y-76320461D01*
X148107744Y-76116614D01*
X147934386Y-75943256D01*
X147730539Y-75807050D01*
X147504036Y-75713229D01*
X147263582Y-75665400D01*
X147018418Y-75665400D01*
X146777964Y-75713229D01*
X146551461Y-75807050D01*
X146347614Y-75943256D01*
X146174256Y-76116614D01*
X146038050Y-76320461D01*
X145944229Y-76546964D01*
X145896400Y-76787418D01*
X145896400Y-77032582D01*
X145944229Y-77273036D01*
X146038050Y-77499539D01*
X146174256Y-77703386D01*
X146347614Y-77876744D01*
X146551461Y-78012950D01*
X146635001Y-78047554D01*
X146635001Y-78074044D01*
X146632553Y-78098900D01*
X146642322Y-78198092D01*
X146671255Y-78293474D01*
X146671256Y-78293475D01*
X146718242Y-78381379D01*
X146781474Y-78458427D01*
X146800779Y-78474270D01*
X148724601Y-80398093D01*
X148724600Y-94136273D01*
X148529444Y-93844201D01*
X148197799Y-93512556D01*
X147807827Y-93251985D01*
X147374512Y-93072500D01*
X146914508Y-92981000D01*
X146445492Y-92981000D01*
X145985488Y-93072500D01*
X145552173Y-93251985D01*
X145162201Y-93512556D01*
X144859700Y-93815057D01*
X144859700Y-78555791D01*
X144941215Y-78474276D01*
X144960527Y-78458427D01*
X145023759Y-78381379D01*
X145070745Y-78293475D01*
X145099678Y-78198093D01*
X145107000Y-78123754D01*
X145107000Y-78123747D01*
X145109447Y-78098901D01*
X145107000Y-78074055D01*
X145107000Y-78047553D01*
X145190539Y-78012950D01*
X145394386Y-77876744D01*
X145567744Y-77703386D01*
X145703950Y-77499539D01*
X145797771Y-77273036D01*
X145845600Y-77032582D01*
X145845600Y-76787418D01*
X145797771Y-76546964D01*
X145703950Y-76320461D01*
X145567744Y-76116614D01*
X145394386Y-75943256D01*
X145190539Y-75807050D01*
X144964036Y-75713229D01*
X144723582Y-75665400D01*
X144478418Y-75665400D01*
X144237964Y-75713229D01*
X144011461Y-75807050D01*
X143807614Y-75943256D01*
X143634256Y-76116614D01*
X143498050Y-76320461D01*
X143404229Y-76546964D01*
X143356400Y-76787418D01*
X143356400Y-77032582D01*
X143404229Y-77273036D01*
X143498050Y-77499539D01*
X143634256Y-77703386D01*
X143807614Y-77876744D01*
X143986369Y-77996184D01*
X143930942Y-78063721D01*
X143916667Y-78090427D01*
X143883955Y-78151626D01*
X143855022Y-78247008D01*
X143845253Y-78346200D01*
X143847701Y-78371056D01*
X143847700Y-98537554D01*
X143845253Y-98562400D01*
X143847700Y-98587246D01*
X143847700Y-98587253D01*
X143855022Y-98661592D01*
X143883955Y-98756974D01*
X143930941Y-98844879D01*
X143994173Y-98921927D01*
X144013485Y-98937776D01*
X150103863Y-105028155D01*
X150039311Y-105034513D01*
X149967492Y-105056299D01*
X149901304Y-105091678D01*
X149843289Y-105139289D01*
X149795678Y-105197304D01*
X149760299Y-105263492D01*
X149738513Y-105335311D01*
X149731157Y-105410000D01*
X149731157Y-106597565D01*
X145970027Y-102836436D01*
X146011772Y-102735654D01*
X146061000Y-102488167D01*
X146061000Y-102235833D01*
X146011772Y-101988346D01*
X145915207Y-101755219D01*
X145775018Y-101545410D01*
X145596590Y-101366982D01*
X145386781Y-101226793D01*
X145153654Y-101130228D01*
X144906167Y-101081000D01*
X144653833Y-101081000D01*
X144406346Y-101130228D01*
X144173219Y-101226793D01*
X143963410Y-101366982D01*
X143784982Y-101545410D01*
X143644793Y-101755219D01*
X143548228Y-101988346D01*
X143530000Y-102079985D01*
X143511772Y-101988346D01*
X143415207Y-101755219D01*
X143275018Y-101545410D01*
X143096590Y-101366982D01*
X142886781Y-101226793D01*
X142653654Y-101130228D01*
X142406167Y-101081000D01*
X142153833Y-101081000D01*
X141906346Y-101130228D01*
X141673219Y-101226793D01*
X141536000Y-101318479D01*
X141536000Y-94669945D01*
X141538447Y-94645099D01*
X141536000Y-94620253D01*
X141536000Y-94620246D01*
X141528678Y-94545907D01*
X141499745Y-94450525D01*
X141452759Y-94362621D01*
X141389527Y-94285573D01*
X141370220Y-94269728D01*
X131466639Y-84366148D01*
X131540078Y-84292074D01*
X131674421Y-84089133D01*
X131766591Y-83863882D01*
X131770462Y-83826209D01*
X131645731Y-83635600D01*
X130429000Y-83635600D01*
X130429000Y-83655600D01*
X130175000Y-83655600D01*
X130175000Y-83635600D01*
X128958269Y-83635600D01*
X128833538Y-83826209D01*
X128837409Y-83863882D01*
X128924737Y-84077300D01*
X123805263Y-84077300D01*
X123892591Y-83863882D01*
X123896462Y-83826209D01*
X123771731Y-83635600D01*
X122555000Y-83635600D01*
X122555000Y-83655600D01*
X122301000Y-83655600D01*
X122301000Y-83635600D01*
X122281000Y-83635600D01*
X122281000Y-83381600D01*
X122301000Y-83381600D01*
X122301000Y-83361600D01*
X122555000Y-83361600D01*
X122555000Y-83381600D01*
X123771731Y-83381600D01*
X123896462Y-83190991D01*
X123892591Y-83153318D01*
X123856943Y-83066200D01*
X128873057Y-83066200D01*
X128837409Y-83153318D01*
X128833538Y-83190991D01*
X128958269Y-83381600D01*
X130175000Y-83381600D01*
X130175000Y-83361600D01*
X130429000Y-83361600D01*
X130429000Y-83381600D01*
X131645731Y-83381600D01*
X131770462Y-83190991D01*
X131766591Y-83153318D01*
X131730943Y-83066200D01*
X133028654Y-83066200D01*
X133053500Y-83068647D01*
X133078346Y-83066200D01*
X133078354Y-83066200D01*
X133152693Y-83058878D01*
X133248075Y-83029945D01*
X133335979Y-82982959D01*
X133413027Y-82919727D01*
X133428876Y-82900415D01*
X138590081Y-77739211D01*
X138727614Y-77876744D01*
X138931461Y-78012950D01*
X139157964Y-78106771D01*
X139398418Y-78154600D01*
X139643582Y-78154600D01*
X139884036Y-78106771D01*
X140110539Y-78012950D01*
X140314386Y-77876744D01*
X140487744Y-77703386D01*
X140623950Y-77499539D01*
X140717771Y-77273036D01*
X140765600Y-77032582D01*
X140765600Y-76787418D01*
X140816400Y-76787418D01*
X140816400Y-77032582D01*
X140864229Y-77273036D01*
X140958050Y-77499539D01*
X141094256Y-77703386D01*
X141267614Y-77876744D01*
X141471461Y-78012950D01*
X141697964Y-78106771D01*
X141938418Y-78154600D01*
X142183582Y-78154600D01*
X142424036Y-78106771D01*
X142650539Y-78012950D01*
X142854386Y-77876744D01*
X143027744Y-77703386D01*
X143163950Y-77499539D01*
X143257771Y-77273036D01*
X143305600Y-77032582D01*
X143305600Y-76787418D01*
X143257771Y-76546964D01*
X143163950Y-76320461D01*
X143027744Y-76116614D01*
X142854386Y-75943256D01*
X142650539Y-75807050D01*
X142424036Y-75713229D01*
X142183582Y-75665400D01*
X141938418Y-75665400D01*
X141697964Y-75713229D01*
X141471461Y-75807050D01*
X141267614Y-75943256D01*
X141094256Y-76116614D01*
X140958050Y-76320461D01*
X140864229Y-76546964D01*
X140816400Y-76787418D01*
X140765600Y-76787418D01*
X140717771Y-76546964D01*
X140623950Y-76320461D01*
X140487744Y-76116614D01*
X140314386Y-75943256D01*
X140110539Y-75807050D01*
X139884036Y-75713229D01*
X139643582Y-75665400D01*
X139398418Y-75665400D01*
X139157964Y-75713229D01*
X138931461Y-75807050D01*
X138727614Y-75943256D01*
X138554256Y-76116614D01*
X138418050Y-76320461D01*
X138383447Y-76404000D01*
X138356954Y-76404000D01*
X138332100Y-76401552D01*
X138307246Y-76404000D01*
X138232907Y-76411322D01*
X138137525Y-76440255D01*
X138134287Y-76441986D01*
X138083950Y-76320461D01*
X137947744Y-76116614D01*
X137774386Y-75943256D01*
X137570539Y-75807050D01*
X137344036Y-75713229D01*
X137103582Y-75665400D01*
X136858418Y-75665400D01*
X136617964Y-75713229D01*
X136391461Y-75807050D01*
X136187614Y-75943256D01*
X136014256Y-76116614D01*
X135878050Y-76320461D01*
X135847441Y-76394358D01*
X135723684Y-76135056D01*
X135547854Y-75899707D01*
X135329488Y-75703183D01*
X135076978Y-75553036D01*
X134800027Y-75455037D01*
X134568000Y-75575536D01*
X134568000Y-76783000D01*
X134588000Y-76783000D01*
X134588000Y-77037000D01*
X134568000Y-77037000D01*
X134568000Y-78244464D01*
X134800027Y-78364963D01*
X135076978Y-78266964D01*
X135329488Y-78116817D01*
X135547854Y-77920293D01*
X135723684Y-77684944D01*
X135847441Y-77425642D01*
X135878050Y-77499539D01*
X136014256Y-77703386D01*
X136187614Y-77876744D01*
X136391461Y-78012950D01*
X136617964Y-78106771D01*
X136762573Y-78135535D01*
X132843909Y-82054200D01*
X131525800Y-82054200D01*
X131547683Y-81982062D01*
X131559843Y-81858601D01*
X131559843Y-81158599D01*
X131547683Y-81035138D01*
X131511671Y-80916421D01*
X131453190Y-80807011D01*
X131374488Y-80711112D01*
X131278589Y-80632410D01*
X131169179Y-80573929D01*
X131050462Y-80537917D01*
X130927001Y-80525757D01*
X129676999Y-80525757D01*
X129553538Y-80537917D01*
X129434821Y-80573929D01*
X129325411Y-80632410D01*
X129229512Y-80711112D01*
X129150810Y-80807011D01*
X129092329Y-80916421D01*
X129056317Y-81035138D01*
X129044157Y-81158599D01*
X129044157Y-81858601D01*
X129056317Y-81982062D01*
X129078200Y-82054200D01*
X123651800Y-82054200D01*
X123673683Y-81982062D01*
X123685843Y-81858601D01*
X123685843Y-81158599D01*
X123673683Y-81035138D01*
X123637671Y-80916421D01*
X123579190Y-80807011D01*
X123500488Y-80711112D01*
X123404589Y-80632410D01*
X123295179Y-80573929D01*
X123176462Y-80537917D01*
X123053001Y-80525757D01*
X121802999Y-80525757D01*
X121679538Y-80537917D01*
X121560821Y-80573929D01*
X121451411Y-80632410D01*
X121355512Y-80711112D01*
X121276810Y-80807011D01*
X121218329Y-80916421D01*
X121182317Y-81035138D01*
X121170157Y-81158599D01*
X121170157Y-81858601D01*
X121182317Y-81982062D01*
X121218329Y-82100779D01*
X121276810Y-82210189D01*
X121323332Y-82266876D01*
X120794580Y-82795629D01*
X120775274Y-82811473D01*
X120712042Y-82888521D01*
X120705681Y-82900422D01*
X120665055Y-82976426D01*
X120636122Y-83071808D01*
X120626353Y-83171000D01*
X120628801Y-83195856D01*
X120628800Y-107124654D01*
X120626353Y-107149500D01*
X120628800Y-107174346D01*
X120628800Y-107174353D01*
X120636122Y-107248692D01*
X120665055Y-107344074D01*
X120712041Y-107431979D01*
X120775273Y-107509027D01*
X120794585Y-107524876D01*
X122542865Y-109273157D01*
X121466000Y-109273157D01*
X121391311Y-109280513D01*
X121319492Y-109302299D01*
X121253304Y-109337678D01*
X121195289Y-109385289D01*
X121147678Y-109443304D01*
X121112299Y-109509492D01*
X121090513Y-109581311D01*
X121083157Y-109656000D01*
X121083157Y-112739066D01*
X120595900Y-112251809D01*
X120595900Y-83322654D01*
X120598348Y-83297800D01*
X120588578Y-83198607D01*
X120559645Y-83103225D01*
X120542852Y-83071808D01*
X120512659Y-83015321D01*
X120449427Y-82938273D01*
X120430120Y-82922428D01*
X117160600Y-79652909D01*
X117160600Y-79510578D01*
X117130587Y-79359691D01*
X117071713Y-79217558D01*
X116986242Y-79089641D01*
X116877459Y-78980858D01*
X116749542Y-78895387D01*
X116607409Y-78836513D01*
X116456522Y-78806500D01*
X116302678Y-78806500D01*
X116151791Y-78836513D01*
X116009658Y-78895387D01*
X115881741Y-78980858D01*
X115772958Y-79089641D01*
X115687487Y-79217558D01*
X115628613Y-79359691D01*
X115598600Y-79510578D01*
X115598600Y-79664422D01*
X115628613Y-79815309D01*
X115687487Y-79957442D01*
X115772958Y-80085359D01*
X115881741Y-80194142D01*
X116009658Y-80279613D01*
X116151791Y-80338487D01*
X116302678Y-80368500D01*
X116400486Y-80368500D01*
X116358191Y-80376913D01*
X116216058Y-80435787D01*
X116088141Y-80521258D01*
X115979358Y-80630041D01*
X115893887Y-80757958D01*
X115835013Y-80900091D01*
X115805000Y-81050978D01*
X115805000Y-81204822D01*
X115835013Y-81355709D01*
X115893887Y-81497842D01*
X115979358Y-81625759D01*
X116088141Y-81734542D01*
X116216058Y-81820013D01*
X116358191Y-81878887D01*
X116509078Y-81908900D01*
X116651409Y-81908900D01*
X117788700Y-83046192D01*
X117788701Y-100218678D01*
X117715766Y-100158823D01*
X117580784Y-100086673D01*
X117434319Y-100042243D01*
X117282000Y-100027241D01*
X114682000Y-100027241D01*
X114529681Y-100042243D01*
X114383216Y-100086673D01*
X114248234Y-100158823D01*
X114129920Y-100255920D01*
X114032823Y-100374234D01*
X113960673Y-100509216D01*
X113916243Y-100655681D01*
X113901241Y-100808000D01*
X113901241Y-103408000D01*
X113916243Y-103560319D01*
X113960673Y-103706784D01*
X114032823Y-103841766D01*
X114129920Y-103960080D01*
X114248234Y-104057177D01*
X114383216Y-104129327D01*
X114529681Y-104173757D01*
X114682000Y-104188759D01*
X117282000Y-104188759D01*
X117434319Y-104173757D01*
X117580784Y-104129327D01*
X117715766Y-104057177D01*
X117788701Y-103997321D01*
X117788701Y-111285244D01*
X117786253Y-111310100D01*
X117796022Y-111409292D01*
X117824955Y-111504674D01*
X117838949Y-111530854D01*
X117871942Y-111592579D01*
X117935174Y-111669627D01*
X117954481Y-111685472D01*
X133580955Y-127311947D01*
X126191181Y-127313179D01*
X125380502Y-127313179D01*
X125320853Y-127319054D01*
X125244322Y-127342269D01*
X125173790Y-127379969D01*
X125111969Y-127430705D01*
X125093450Y-127453270D01*
X124790000Y-127785392D01*
X124695883Y-127691275D01*
X125185548Y-127331088D01*
X125545849Y-126667118D01*
X125769694Y-125945615D01*
X125848480Y-125194305D01*
X125779178Y-124442062D01*
X125564452Y-123717792D01*
X125212555Y-123049330D01*
X125185548Y-123008912D01*
X124695881Y-122648724D01*
X123677914Y-123666692D01*
X123498309Y-123487087D01*
X124516276Y-122469119D01*
X124156088Y-121979452D01*
X123492118Y-121619151D01*
X122770615Y-121395306D01*
X122019305Y-121316520D01*
X121267062Y-121385822D01*
X120542792Y-121600548D01*
X119874330Y-121952445D01*
X119833912Y-121979452D01*
X119473724Y-122469119D01*
X120491692Y-123487087D01*
X120312087Y-123666692D01*
X119294119Y-122648724D01*
X118804452Y-123008912D01*
X118444151Y-123672882D01*
X118220306Y-124394385D01*
X118141520Y-125145695D01*
X118210822Y-125897938D01*
X118425548Y-126622208D01*
X118777445Y-127290670D01*
X118804452Y-127331088D01*
X119294117Y-127691275D01*
X119190351Y-127795041D01*
X119146900Y-127755894D01*
X118897003Y-127453100D01*
X118872075Y-127422726D01*
X118810254Y-127371990D01*
X118774630Y-127352949D01*
X118774626Y-127352946D01*
X118774622Y-127352944D01*
X118739722Y-127334290D01*
X118701405Y-127322667D01*
X118701403Y-127322666D01*
X118701400Y-127322665D01*
X118663191Y-127311075D01*
X118603542Y-127305200D01*
X108432200Y-127305200D01*
X108432200Y-107131741D01*
X108434164Y-107111800D01*
X108426325Y-107032210D01*
X108403110Y-106955679D01*
X108365410Y-106885147D01*
X108314674Y-106823326D01*
X108252853Y-106772590D01*
X108182321Y-106734890D01*
X108105790Y-106711675D01*
X108046141Y-106705800D01*
X108026200Y-106703836D01*
X108006260Y-106705800D01*
X102183800Y-106705800D01*
X102183800Y-106642436D01*
X111301000Y-106642436D01*
X111301000Y-106973564D01*
X111365600Y-107298330D01*
X111492317Y-107604252D01*
X111676282Y-107879575D01*
X111910425Y-108113718D01*
X112185748Y-108297683D01*
X112491670Y-108424400D01*
X112816436Y-108489000D01*
X113147564Y-108489000D01*
X113472330Y-108424400D01*
X113778252Y-108297683D01*
X114053575Y-108113718D01*
X114287718Y-107879575D01*
X114471683Y-107604252D01*
X114598400Y-107298330D01*
X114663000Y-106973564D01*
X114663000Y-106642436D01*
X114598400Y-106317670D01*
X114471683Y-106011748D01*
X114287718Y-105736425D01*
X114053575Y-105502282D01*
X113778252Y-105318317D01*
X113472330Y-105191600D01*
X113147564Y-105127000D01*
X112816436Y-105127000D01*
X112491670Y-105191600D01*
X112185748Y-105318317D01*
X111910425Y-105502282D01*
X111676282Y-105736425D01*
X111492317Y-106011748D01*
X111365600Y-106317670D01*
X111301000Y-106642436D01*
X102183800Y-106642436D01*
X102183800Y-103457224D01*
X108812381Y-103457224D01*
X108944317Y-103752312D01*
X109285045Y-103923159D01*
X109652557Y-104024250D01*
X110032729Y-104051701D01*
X110410951Y-104004457D01*
X110772690Y-103884333D01*
X111019683Y-103752312D01*
X111151619Y-103457224D01*
X109982000Y-102287605D01*
X108812381Y-103457224D01*
X102183800Y-103457224D01*
X102183800Y-102158729D01*
X108038299Y-102158729D01*
X108085543Y-102536951D01*
X108205667Y-102898690D01*
X108337688Y-103145683D01*
X108632776Y-103277619D01*
X109802395Y-102108000D01*
X110161605Y-102108000D01*
X111331224Y-103277619D01*
X111626312Y-103145683D01*
X111797159Y-102804955D01*
X111898250Y-102437443D01*
X111925701Y-102057271D01*
X111878457Y-101679049D01*
X111758333Y-101317310D01*
X111626312Y-101070317D01*
X111331224Y-100938381D01*
X110161605Y-102108000D01*
X109802395Y-102108000D01*
X108632776Y-100938381D01*
X108337688Y-101070317D01*
X108166841Y-101411045D01*
X108065750Y-101778557D01*
X108038299Y-102158729D01*
X102183800Y-102158729D01*
X102183800Y-100758776D01*
X108812381Y-100758776D01*
X109982000Y-101928395D01*
X111151619Y-100758776D01*
X111019683Y-100463688D01*
X110678955Y-100292841D01*
X110311443Y-100191750D01*
X109931271Y-100164299D01*
X109553049Y-100211543D01*
X109191310Y-100331667D01*
X108944317Y-100463688D01*
X108812381Y-100758776D01*
X102183800Y-100758776D01*
X102183800Y-97510200D01*
X108006260Y-97510200D01*
X108026200Y-97512164D01*
X108105790Y-97504325D01*
X108182321Y-97481110D01*
X108252853Y-97443410D01*
X108314674Y-97392674D01*
X108365410Y-97330853D01*
X108403110Y-97260321D01*
X108426325Y-97183790D01*
X108432200Y-97124141D01*
X108434164Y-97104200D01*
X108432200Y-97084259D01*
X108432200Y-84059578D01*
X111262000Y-84059578D01*
X111262000Y-84213422D01*
X111292013Y-84364309D01*
X111350887Y-84506442D01*
X111436358Y-84634359D01*
X111545141Y-84743142D01*
X111673058Y-84828613D01*
X111815191Y-84887487D01*
X111966078Y-84917500D01*
X112119922Y-84917500D01*
X112173376Y-84906867D01*
X115598600Y-88332092D01*
X115598600Y-88474422D01*
X115628613Y-88625309D01*
X115687487Y-88767442D01*
X115772958Y-88895359D01*
X115881741Y-89004142D01*
X116009658Y-89089613D01*
X116151791Y-89148487D01*
X116302678Y-89178500D01*
X116456522Y-89178500D01*
X116607409Y-89148487D01*
X116749542Y-89089613D01*
X116877459Y-89004142D01*
X116986242Y-88895359D01*
X117071713Y-88767442D01*
X117130587Y-88625309D01*
X117160600Y-88474422D01*
X117160600Y-88320578D01*
X117130587Y-88169691D01*
X117071713Y-88027558D01*
X116986242Y-87899641D01*
X116877459Y-87790858D01*
X116749542Y-87705387D01*
X116607409Y-87646513D01*
X116456522Y-87616500D01*
X116314192Y-87616500D01*
X112824000Y-84126309D01*
X112824000Y-84059578D01*
X112793987Y-83908691D01*
X112735113Y-83766558D01*
X112649642Y-83638641D01*
X112540859Y-83529858D01*
X112412942Y-83444387D01*
X112270809Y-83385513D01*
X112119922Y-83355500D01*
X111966078Y-83355500D01*
X111815191Y-83385513D01*
X111673058Y-83444387D01*
X111545141Y-83529858D01*
X111436358Y-83638641D01*
X111350887Y-83766558D01*
X111292013Y-83908691D01*
X111262000Y-84059578D01*
X108432200Y-84059578D01*
X108432200Y-76787418D01*
X125576400Y-76787418D01*
X125576400Y-77032582D01*
X125624229Y-77273036D01*
X125718050Y-77499539D01*
X125854256Y-77703386D01*
X126027614Y-77876744D01*
X126231461Y-78012950D01*
X126457964Y-78106771D01*
X126698418Y-78154600D01*
X126943582Y-78154600D01*
X127184036Y-78106771D01*
X127410539Y-78012950D01*
X127614386Y-77876744D01*
X127787744Y-77703386D01*
X127923950Y-77499539D01*
X128017771Y-77273036D01*
X128065600Y-77032582D01*
X128065600Y-76787418D01*
X128116400Y-76787418D01*
X128116400Y-77032582D01*
X128164229Y-77273036D01*
X128258050Y-77499539D01*
X128394256Y-77703386D01*
X128567614Y-77876744D01*
X128771461Y-78012950D01*
X128997964Y-78106771D01*
X129238418Y-78154600D01*
X129483582Y-78154600D01*
X129724036Y-78106771D01*
X129950539Y-78012950D01*
X130154386Y-77876744D01*
X130327744Y-77703386D01*
X130463950Y-77499539D01*
X130557771Y-77273036D01*
X130605600Y-77032582D01*
X130605600Y-76787418D01*
X130656400Y-76787418D01*
X130656400Y-77032582D01*
X130704229Y-77273036D01*
X130798050Y-77499539D01*
X130934256Y-77703386D01*
X131107614Y-77876744D01*
X131311461Y-78012950D01*
X131537964Y-78106771D01*
X131778418Y-78154600D01*
X132023582Y-78154600D01*
X132264036Y-78106771D01*
X132490539Y-78012950D01*
X132694386Y-77876744D01*
X132867744Y-77703386D01*
X133003950Y-77499539D01*
X133034559Y-77425642D01*
X133158316Y-77684944D01*
X133334146Y-77920293D01*
X133552512Y-78116817D01*
X133805022Y-78266964D01*
X134081973Y-78364963D01*
X134314000Y-78244464D01*
X134314000Y-77037000D01*
X134294000Y-77037000D01*
X134294000Y-76783000D01*
X134314000Y-76783000D01*
X134314000Y-75575536D01*
X134081973Y-75455037D01*
X133805022Y-75553036D01*
X133552512Y-75703183D01*
X133334146Y-75899707D01*
X133158316Y-76135056D01*
X133034559Y-76394358D01*
X133003950Y-76320461D01*
X132867744Y-76116614D01*
X132694386Y-75943256D01*
X132490539Y-75807050D01*
X132264036Y-75713229D01*
X132023582Y-75665400D01*
X131778418Y-75665400D01*
X131537964Y-75713229D01*
X131311461Y-75807050D01*
X131107614Y-75943256D01*
X130934256Y-76116614D01*
X130798050Y-76320461D01*
X130704229Y-76546964D01*
X130656400Y-76787418D01*
X130605600Y-76787418D01*
X130557771Y-76546964D01*
X130463950Y-76320461D01*
X130327744Y-76116614D01*
X130154386Y-75943256D01*
X129950539Y-75807050D01*
X129724036Y-75713229D01*
X129483582Y-75665400D01*
X129238418Y-75665400D01*
X128997964Y-75713229D01*
X128771461Y-75807050D01*
X128567614Y-75943256D01*
X128394256Y-76116614D01*
X128258050Y-76320461D01*
X128164229Y-76546964D01*
X128116400Y-76787418D01*
X128065600Y-76787418D01*
X128017771Y-76546964D01*
X127923950Y-76320461D01*
X127787744Y-76116614D01*
X127614386Y-75943256D01*
X127410539Y-75807050D01*
X127184036Y-75713229D01*
X126943582Y-75665400D01*
X126698418Y-75665400D01*
X126457964Y-75713229D01*
X126231461Y-75807050D01*
X126027614Y-75943256D01*
X125854256Y-76116614D01*
X125718050Y-76320461D01*
X125624229Y-76546964D01*
X125576400Y-76787418D01*
X108432200Y-76787418D01*
X108432200Y-74777200D01*
X193650000Y-74777200D01*
X193650001Y-127305200D01*
G37*
G04 #@! TD.AperFunction*
D25*
X125687983Y-103860351D02*
X125975476Y-104290615D01*
X126341385Y-104656524D01*
X126771649Y-104944017D01*
X127249732Y-105142046D01*
X127757263Y-105243000D01*
X128274737Y-105243000D01*
X128782268Y-105142046D01*
X129260351Y-104944017D01*
X129690615Y-104656524D01*
X130056524Y-104290615D01*
X130344017Y-103860351D01*
X130366000Y-103807279D01*
X130387983Y-103860351D01*
X130675476Y-104290615D01*
X131041385Y-104656524D01*
X131471649Y-104944017D01*
X131949732Y-105142046D01*
X132457263Y-105243000D01*
X132974737Y-105243000D01*
X133482268Y-105142046D01*
X133960351Y-104944017D01*
X134390615Y-104656524D01*
X134756524Y-104290615D01*
X134835401Y-104172567D01*
X134835401Y-106366244D01*
X134832953Y-106391100D01*
X134842722Y-106490292D01*
X134871655Y-106585674D01*
X134893527Y-106626592D01*
X134918642Y-106673579D01*
X134981874Y-106750627D01*
X135001181Y-106766472D01*
X151969000Y-123734292D01*
X151969000Y-123889160D01*
X151840978Y-123813036D01*
X151564027Y-123715037D01*
X151332000Y-123835536D01*
X151332000Y-125043000D01*
X151352000Y-125043000D01*
X151352000Y-125297000D01*
X151332000Y-125297000D01*
X151332000Y-125317000D01*
X151078000Y-125317000D01*
X151078000Y-125297000D01*
X148792000Y-125297000D01*
X148792000Y-125317000D01*
X148538000Y-125317000D01*
X148538000Y-125297000D01*
X148518000Y-125297000D01*
X148518000Y-125043000D01*
X148538000Y-125043000D01*
X148538000Y-123835536D01*
X148792000Y-123835536D01*
X148792000Y-125043000D01*
X151078000Y-125043000D01*
X151078000Y-123835536D01*
X150845973Y-123715037D01*
X150569022Y-123813036D01*
X150316512Y-123963183D01*
X150098146Y-124159707D01*
X149935000Y-124378078D01*
X149771854Y-124159707D01*
X149553488Y-123963183D01*
X149300978Y-123813036D01*
X149024027Y-123715037D01*
X148792000Y-123835536D01*
X148538000Y-123835536D01*
X148305973Y-123715037D01*
X148029022Y-123813036D01*
X147776512Y-123963183D01*
X147558146Y-124159707D01*
X147382316Y-124395056D01*
X147258559Y-124654358D01*
X147227950Y-124580461D01*
X147091744Y-124376614D01*
X146918386Y-124203256D01*
X146714539Y-124067050D01*
X146631000Y-124032447D01*
X146631000Y-122273845D01*
X146633447Y-122248999D01*
X146631000Y-122224153D01*
X146631000Y-122224146D01*
X146623678Y-122149807D01*
X146594745Y-122054425D01*
X146547759Y-121966521D01*
X146484527Y-121889473D01*
X146465220Y-121873628D01*
X145970027Y-121378435D01*
X146011772Y-121277654D01*
X146061000Y-121030167D01*
X146061000Y-120777833D01*
X146011772Y-120530346D01*
X145915207Y-120297219D01*
X145775018Y-120087410D01*
X145596590Y-119908982D01*
X145386781Y-119768793D01*
X145153654Y-119672228D01*
X144906167Y-119623000D01*
X144653833Y-119623000D01*
X144406346Y-119672228D01*
X144173219Y-119768793D01*
X143963410Y-119908982D01*
X143784982Y-120087410D01*
X143644793Y-120297219D01*
X143548228Y-120530346D01*
X143530000Y-120621985D01*
X143511772Y-120530346D01*
X143415207Y-120297219D01*
X143275018Y-120087410D01*
X143096590Y-119908982D01*
X142886781Y-119768793D01*
X142653654Y-119672228D01*
X142406167Y-119623000D01*
X142153833Y-119623000D01*
X141906346Y-119672228D01*
X141673219Y-119768793D01*
X141463410Y-119908982D01*
X141284982Y-120087410D01*
X141176555Y-120249683D01*
X141098261Y-120103208D01*
X140844080Y-120019525D01*
X139959605Y-120904000D01*
X140844080Y-121788475D01*
X141098261Y-121704792D01*
X141171929Y-121551393D01*
X141284982Y-121720590D01*
X141463410Y-121899018D01*
X141673219Y-122039207D01*
X141906346Y-122135772D01*
X142153833Y-122185000D01*
X142406167Y-122185000D01*
X142653654Y-122135772D01*
X142886781Y-122039207D01*
X143096590Y-121899018D01*
X143275018Y-121720590D01*
X143415207Y-121510781D01*
X143511772Y-121277654D01*
X143530000Y-121186015D01*
X143548228Y-121277654D01*
X143644793Y-121510781D01*
X143784982Y-121720590D01*
X143963410Y-121899018D01*
X144173219Y-122039207D01*
X144406346Y-122135772D01*
X144653833Y-122185000D01*
X144906167Y-122185000D01*
X145153654Y-122135772D01*
X145254435Y-122094027D01*
X145619000Y-122458592D01*
X145619001Y-124032447D01*
X145535461Y-124067050D01*
X145331614Y-124203256D01*
X145158256Y-124376614D01*
X145022050Y-124580461D01*
X144928229Y-124806964D01*
X144880400Y-125047418D01*
X144880400Y-125292582D01*
X144928229Y-125533036D01*
X145022050Y-125759539D01*
X145158256Y-125963386D01*
X145331614Y-126136744D01*
X145535461Y-126272950D01*
X145722924Y-126350600D01*
X143987076Y-126350600D01*
X144174539Y-126272950D01*
X144378386Y-126136744D01*
X144551744Y-125963386D01*
X144687950Y-125759539D01*
X144781771Y-125533036D01*
X144829600Y-125292582D01*
X144829600Y-125047418D01*
X144781771Y-124806964D01*
X144687950Y-124580461D01*
X144551744Y-124376614D01*
X144378386Y-124203256D01*
X144174539Y-124067050D01*
X143948036Y-123973229D01*
X143707582Y-123925400D01*
X143462418Y-123925400D01*
X143221964Y-123973229D01*
X142995461Y-124067050D01*
X142791614Y-124203256D01*
X142618256Y-124376614D01*
X142482050Y-124580461D01*
X142388229Y-124806964D01*
X142340400Y-125047418D01*
X142340400Y-125292582D01*
X142388229Y-125533036D01*
X142482050Y-125759539D01*
X142618256Y-125963386D01*
X142791614Y-126136744D01*
X142995461Y-126272950D01*
X143182924Y-126350600D01*
X141447076Y-126350600D01*
X141634539Y-126272950D01*
X141838386Y-126136744D01*
X142011744Y-125963386D01*
X142147950Y-125759539D01*
X142241771Y-125533036D01*
X142289600Y-125292582D01*
X142289600Y-125047418D01*
X142241771Y-124806964D01*
X142147950Y-124580461D01*
X142011744Y-124376614D01*
X141838386Y-124203256D01*
X141634539Y-124067050D01*
X141408036Y-123973229D01*
X141167582Y-123925400D01*
X140922418Y-123925400D01*
X140681964Y-123973229D01*
X140455461Y-124067050D01*
X140251614Y-124203256D01*
X140078256Y-124376614D01*
X139942050Y-124580461D01*
X139848229Y-124806964D01*
X139800400Y-125047418D01*
X139800400Y-125292582D01*
X139848229Y-125533036D01*
X139942050Y-125759539D01*
X140078256Y-125963386D01*
X140251614Y-126136744D01*
X140455461Y-126272950D01*
X140642924Y-126350600D01*
X138907076Y-126350600D01*
X139094539Y-126272950D01*
X139298386Y-126136744D01*
X139471744Y-125963386D01*
X139607950Y-125759539D01*
X139701771Y-125533036D01*
X139749600Y-125292582D01*
X139749600Y-125047418D01*
X139701771Y-124806964D01*
X139607950Y-124580461D01*
X139471744Y-124376614D01*
X139298386Y-124203256D01*
X139094539Y-124067050D01*
X138868036Y-123973229D01*
X138627582Y-123925400D01*
X138382418Y-123925400D01*
X138141964Y-123973229D01*
X137915461Y-124067050D01*
X137711614Y-124203256D01*
X137538256Y-124376614D01*
X137402050Y-124580461D01*
X137308229Y-124806964D01*
X137260400Y-125047418D01*
X137260400Y-125292582D01*
X137308229Y-125533036D01*
X137402050Y-125759539D01*
X137538256Y-125963386D01*
X137711614Y-126136744D01*
X137915461Y-126272950D01*
X138102924Y-126350600D01*
X136367076Y-126350600D01*
X136554539Y-126272950D01*
X136758386Y-126136744D01*
X136931744Y-125963386D01*
X137067950Y-125759539D01*
X137161771Y-125533036D01*
X137209600Y-125292582D01*
X137209600Y-125047418D01*
X137161771Y-124806964D01*
X137067950Y-124580461D01*
X136931744Y-124376614D01*
X136758386Y-124203256D01*
X136554539Y-124067050D01*
X136328036Y-123973229D01*
X136087582Y-123925400D01*
X135842418Y-123925400D01*
X135601964Y-123973229D01*
X135375461Y-124067050D01*
X135171614Y-124203256D01*
X134998256Y-124376614D01*
X134862050Y-124580461D01*
X134768229Y-124806964D01*
X134720400Y-125047418D01*
X134720400Y-125292582D01*
X134768229Y-125533036D01*
X134862050Y-125759539D01*
X134998256Y-125963386D01*
X135171614Y-126136744D01*
X135375461Y-126272950D01*
X135562924Y-126350600D01*
X134694692Y-126350600D01*
X130312172Y-121968080D01*
X138895525Y-121968080D01*
X138979208Y-122222261D01*
X139251775Y-122353158D01*
X139544642Y-122428365D01*
X139846553Y-122444991D01*
X140145907Y-122402397D01*
X140431199Y-122302222D01*
X140580792Y-122222261D01*
X140664475Y-121968080D01*
X139780000Y-121083605D01*
X138895525Y-121968080D01*
X130312172Y-121968080D01*
X129314645Y-120970553D01*
X138239009Y-120970553D01*
X138281603Y-121269907D01*
X138381778Y-121555199D01*
X138461739Y-121704792D01*
X138715920Y-121788475D01*
X139600395Y-120904000D01*
X138715920Y-120019525D01*
X138461739Y-120103208D01*
X138330842Y-120375775D01*
X138255635Y-120668642D01*
X138239009Y-120970553D01*
X129314645Y-120970553D01*
X128184012Y-119839920D01*
X138895525Y-119839920D01*
X139780000Y-120724395D01*
X140664475Y-119839920D01*
X140580792Y-119585739D01*
X140308225Y-119454842D01*
X140015358Y-119379635D01*
X139713447Y-119363009D01*
X139414093Y-119405603D01*
X139128801Y-119505778D01*
X138979208Y-119585739D01*
X138895525Y-119839920D01*
X128184012Y-119839920D01*
X122082934Y-113738843D01*
X125166000Y-113738843D01*
X125240689Y-113731487D01*
X125312508Y-113709701D01*
X125378696Y-113674322D01*
X125436711Y-113626711D01*
X125484322Y-113568696D01*
X125519701Y-113502508D01*
X125541487Y-113430689D01*
X125548843Y-113356000D01*
X125548843Y-113246772D01*
X126454833Y-113246772D01*
X126652931Y-113598168D01*
X127087284Y-113823890D01*
X127557327Y-113960536D01*
X128044996Y-114002856D01*
X128531552Y-113949222D01*
X128998294Y-113801697D01*
X129379069Y-113598168D01*
X129577167Y-113246772D01*
X128016000Y-111685605D01*
X126454833Y-113246772D01*
X125548843Y-113246772D01*
X125548843Y-111804419D01*
X125572778Y-112021552D01*
X125720303Y-112488294D01*
X125923832Y-112869069D01*
X126275228Y-113067167D01*
X127836395Y-111506000D01*
X128195605Y-111506000D01*
X129756772Y-113067167D01*
X130108168Y-112869069D01*
X130333890Y-112434716D01*
X130470536Y-111964673D01*
X130489366Y-111747685D01*
X130570736Y-112156759D01*
X130738913Y-112562775D01*
X130983069Y-112928180D01*
X131293820Y-113238931D01*
X131659225Y-113483087D01*
X132065241Y-113651264D01*
X132496266Y-113737000D01*
X132935734Y-113737000D01*
X133275120Y-113669492D01*
X135499000Y-113669492D01*
X135499000Y-114138508D01*
X135590500Y-114598512D01*
X135769985Y-115031827D01*
X136030556Y-115421799D01*
X136362201Y-115753444D01*
X136752173Y-116014015D01*
X137185488Y-116193500D01*
X137645492Y-116285000D01*
X138114508Y-116285000D01*
X138574512Y-116193500D01*
X139007827Y-116014015D01*
X139397799Y-115753444D01*
X139729444Y-115421799D01*
X139990015Y-115031827D01*
X140169500Y-114598512D01*
X140261000Y-114138508D01*
X140261000Y-113669492D01*
X140169500Y-113209488D01*
X139990015Y-112776173D01*
X139729444Y-112386201D01*
X139397799Y-112054556D01*
X139007827Y-111793985D01*
X138574512Y-111614500D01*
X138114508Y-111523000D01*
X137645492Y-111523000D01*
X137185488Y-111614500D01*
X136752173Y-111793985D01*
X136362201Y-112054556D01*
X136030556Y-112386201D01*
X135769985Y-112776173D01*
X135590500Y-113209488D01*
X135499000Y-113669492D01*
X133275120Y-113669492D01*
X133366759Y-113651264D01*
X133772775Y-113483087D01*
X134138180Y-113238931D01*
X134448931Y-112928180D01*
X134693087Y-112562775D01*
X134861264Y-112156759D01*
X134947000Y-111725734D01*
X134947000Y-111286266D01*
X134861264Y-110855241D01*
X134693087Y-110449225D01*
X134448931Y-110083820D01*
X134138180Y-109773069D01*
X133772775Y-109528913D01*
X133366759Y-109360736D01*
X132935734Y-109275000D01*
X132496266Y-109275000D01*
X132065241Y-109360736D01*
X131659225Y-109528913D01*
X131293820Y-109773069D01*
X130983069Y-110083820D01*
X130738913Y-110449225D01*
X130570736Y-110855241D01*
X130489395Y-111264171D01*
X130459222Y-110990448D01*
X130311697Y-110523706D01*
X130108168Y-110142931D01*
X129756772Y-109944833D01*
X128195605Y-111506000D01*
X127836395Y-111506000D01*
X126275228Y-109944833D01*
X125923832Y-110142931D01*
X125698110Y-110577284D01*
X125561464Y-111047327D01*
X125548843Y-111192763D01*
X125548843Y-109765228D01*
X126454833Y-109765228D01*
X128016000Y-111326395D01*
X129577167Y-109765228D01*
X129379069Y-109413832D01*
X128944716Y-109188110D01*
X128474673Y-109051464D01*
X127987004Y-109009144D01*
X127500448Y-109062778D01*
X127033706Y-109210303D01*
X126652931Y-109413832D01*
X126454833Y-109765228D01*
X125548843Y-109765228D01*
X125548843Y-109656000D01*
X125541487Y-109581311D01*
X125519701Y-109509492D01*
X125484322Y-109443304D01*
X125436711Y-109385289D01*
X125378696Y-109337678D01*
X125312508Y-109302299D01*
X125240689Y-109280513D01*
X125166000Y-109273157D01*
X123818780Y-109273157D01*
X123814678Y-109231507D01*
X123785745Y-109136125D01*
X123738759Y-109048221D01*
X123675527Y-108971173D01*
X123656220Y-108955328D01*
X121640800Y-106939909D01*
X121640800Y-104848843D01*
X125166000Y-104848843D01*
X125240689Y-104841487D01*
X125312508Y-104819701D01*
X125378696Y-104784322D01*
X125436711Y-104736711D01*
X125484322Y-104678696D01*
X125519701Y-104612508D01*
X125541487Y-104540689D01*
X125548843Y-104466000D01*
X125548843Y-103524438D01*
X125687983Y-103860351D01*
G04 #@! TA.AperFunction,Conductor*
D26*
G36*
X125687983Y-103860351D02*
G01*
X125975476Y-104290615D01*
X126341385Y-104656524D01*
X126771649Y-104944017D01*
X127249732Y-105142046D01*
X127757263Y-105243000D01*
X128274737Y-105243000D01*
X128782268Y-105142046D01*
X129260351Y-104944017D01*
X129690615Y-104656524D01*
X130056524Y-104290615D01*
X130344017Y-103860351D01*
X130366000Y-103807279D01*
X130387983Y-103860351D01*
X130675476Y-104290615D01*
X131041385Y-104656524D01*
X131471649Y-104944017D01*
X131949732Y-105142046D01*
X132457263Y-105243000D01*
X132974737Y-105243000D01*
X133482268Y-105142046D01*
X133960351Y-104944017D01*
X134390615Y-104656524D01*
X134756524Y-104290615D01*
X134835401Y-104172567D01*
X134835401Y-106366244D01*
X134832953Y-106391100D01*
X134842722Y-106490292D01*
X134871655Y-106585674D01*
X134893527Y-106626592D01*
X134918642Y-106673579D01*
X134981874Y-106750627D01*
X135001181Y-106766472D01*
X151969000Y-123734292D01*
X151969000Y-123889160D01*
X151840978Y-123813036D01*
X151564027Y-123715037D01*
X151332000Y-123835536D01*
X151332000Y-125043000D01*
X151352000Y-125043000D01*
X151352000Y-125297000D01*
X151332000Y-125297000D01*
X151332000Y-125317000D01*
X151078000Y-125317000D01*
X151078000Y-125297000D01*
X148792000Y-125297000D01*
X148792000Y-125317000D01*
X148538000Y-125317000D01*
X148538000Y-125297000D01*
X148518000Y-125297000D01*
X148518000Y-125043000D01*
X148538000Y-125043000D01*
X148538000Y-123835536D01*
X148792000Y-123835536D01*
X148792000Y-125043000D01*
X151078000Y-125043000D01*
X151078000Y-123835536D01*
X150845973Y-123715037D01*
X150569022Y-123813036D01*
X150316512Y-123963183D01*
X150098146Y-124159707D01*
X149935000Y-124378078D01*
X149771854Y-124159707D01*
X149553488Y-123963183D01*
X149300978Y-123813036D01*
X149024027Y-123715037D01*
X148792000Y-123835536D01*
X148538000Y-123835536D01*
X148305973Y-123715037D01*
X148029022Y-123813036D01*
X147776512Y-123963183D01*
X147558146Y-124159707D01*
X147382316Y-124395056D01*
X147258559Y-124654358D01*
X147227950Y-124580461D01*
X147091744Y-124376614D01*
X146918386Y-124203256D01*
X146714539Y-124067050D01*
X146631000Y-124032447D01*
X146631000Y-122273845D01*
X146633447Y-122248999D01*
X146631000Y-122224153D01*
X146631000Y-122224146D01*
X146623678Y-122149807D01*
X146594745Y-122054425D01*
X146547759Y-121966521D01*
X146484527Y-121889473D01*
X146465220Y-121873628D01*
X145970027Y-121378435D01*
X146011772Y-121277654D01*
X146061000Y-121030167D01*
X146061000Y-120777833D01*
X146011772Y-120530346D01*
X145915207Y-120297219D01*
X145775018Y-120087410D01*
X145596590Y-119908982D01*
X145386781Y-119768793D01*
X145153654Y-119672228D01*
X144906167Y-119623000D01*
X144653833Y-119623000D01*
X144406346Y-119672228D01*
X144173219Y-119768793D01*
X143963410Y-119908982D01*
X143784982Y-120087410D01*
X143644793Y-120297219D01*
X143548228Y-120530346D01*
X143530000Y-120621985D01*
X143511772Y-120530346D01*
X143415207Y-120297219D01*
X143275018Y-120087410D01*
X143096590Y-119908982D01*
X142886781Y-119768793D01*
X142653654Y-119672228D01*
X142406167Y-119623000D01*
X142153833Y-119623000D01*
X141906346Y-119672228D01*
X141673219Y-119768793D01*
X141463410Y-119908982D01*
X141284982Y-120087410D01*
X141176555Y-120249683D01*
X141098261Y-120103208D01*
X140844080Y-120019525D01*
X139959605Y-120904000D01*
X140844080Y-121788475D01*
X141098261Y-121704792D01*
X141171929Y-121551393D01*
X141284982Y-121720590D01*
X141463410Y-121899018D01*
X141673219Y-122039207D01*
X141906346Y-122135772D01*
X142153833Y-122185000D01*
X142406167Y-122185000D01*
X142653654Y-122135772D01*
X142886781Y-122039207D01*
X143096590Y-121899018D01*
X143275018Y-121720590D01*
X143415207Y-121510781D01*
X143511772Y-121277654D01*
X143530000Y-121186015D01*
X143548228Y-121277654D01*
X143644793Y-121510781D01*
X143784982Y-121720590D01*
X143963410Y-121899018D01*
X144173219Y-122039207D01*
X144406346Y-122135772D01*
X144653833Y-122185000D01*
X144906167Y-122185000D01*
X145153654Y-122135772D01*
X145254435Y-122094027D01*
X145619000Y-122458592D01*
X145619001Y-124032447D01*
X145535461Y-124067050D01*
X145331614Y-124203256D01*
X145158256Y-124376614D01*
X145022050Y-124580461D01*
X144928229Y-124806964D01*
X144880400Y-125047418D01*
X144880400Y-125292582D01*
X144928229Y-125533036D01*
X145022050Y-125759539D01*
X145158256Y-125963386D01*
X145331614Y-126136744D01*
X145535461Y-126272950D01*
X145722924Y-126350600D01*
X143987076Y-126350600D01*
X144174539Y-126272950D01*
X144378386Y-126136744D01*
X144551744Y-125963386D01*
X144687950Y-125759539D01*
X144781771Y-125533036D01*
X144829600Y-125292582D01*
X144829600Y-125047418D01*
X144781771Y-124806964D01*
X144687950Y-124580461D01*
X144551744Y-124376614D01*
X144378386Y-124203256D01*
X144174539Y-124067050D01*
X143948036Y-123973229D01*
X143707582Y-123925400D01*
X143462418Y-123925400D01*
X143221964Y-123973229D01*
X142995461Y-124067050D01*
X142791614Y-124203256D01*
X142618256Y-124376614D01*
X142482050Y-124580461D01*
X142388229Y-124806964D01*
X142340400Y-125047418D01*
X142340400Y-125292582D01*
X142388229Y-125533036D01*
X142482050Y-125759539D01*
X142618256Y-125963386D01*
X142791614Y-126136744D01*
X142995461Y-126272950D01*
X143182924Y-126350600D01*
X141447076Y-126350600D01*
X141634539Y-126272950D01*
X141838386Y-126136744D01*
X142011744Y-125963386D01*
X142147950Y-125759539D01*
X142241771Y-125533036D01*
X142289600Y-125292582D01*
X142289600Y-125047418D01*
X142241771Y-124806964D01*
X142147950Y-124580461D01*
X142011744Y-124376614D01*
X141838386Y-124203256D01*
X141634539Y-124067050D01*
X141408036Y-123973229D01*
X141167582Y-123925400D01*
X140922418Y-123925400D01*
X140681964Y-123973229D01*
X140455461Y-124067050D01*
X140251614Y-124203256D01*
X140078256Y-124376614D01*
X139942050Y-124580461D01*
X139848229Y-124806964D01*
X139800400Y-125047418D01*
X139800400Y-125292582D01*
X139848229Y-125533036D01*
X139942050Y-125759539D01*
X140078256Y-125963386D01*
X140251614Y-126136744D01*
X140455461Y-126272950D01*
X140642924Y-126350600D01*
X138907076Y-126350600D01*
X139094539Y-126272950D01*
X139298386Y-126136744D01*
X139471744Y-125963386D01*
X139607950Y-125759539D01*
X139701771Y-125533036D01*
X139749600Y-125292582D01*
X139749600Y-125047418D01*
X139701771Y-124806964D01*
X139607950Y-124580461D01*
X139471744Y-124376614D01*
X139298386Y-124203256D01*
X139094539Y-124067050D01*
X138868036Y-123973229D01*
X138627582Y-123925400D01*
X138382418Y-123925400D01*
X138141964Y-123973229D01*
X137915461Y-124067050D01*
X137711614Y-124203256D01*
X137538256Y-124376614D01*
X137402050Y-124580461D01*
X137308229Y-124806964D01*
X137260400Y-125047418D01*
X137260400Y-125292582D01*
X137308229Y-125533036D01*
X137402050Y-125759539D01*
X137538256Y-125963386D01*
X137711614Y-126136744D01*
X137915461Y-126272950D01*
X138102924Y-126350600D01*
X136367076Y-126350600D01*
X136554539Y-126272950D01*
X136758386Y-126136744D01*
X136931744Y-125963386D01*
X137067950Y-125759539D01*
X137161771Y-125533036D01*
X137209600Y-125292582D01*
X137209600Y-125047418D01*
X137161771Y-124806964D01*
X137067950Y-124580461D01*
X136931744Y-124376614D01*
X136758386Y-124203256D01*
X136554539Y-124067050D01*
X136328036Y-123973229D01*
X136087582Y-123925400D01*
X135842418Y-123925400D01*
X135601964Y-123973229D01*
X135375461Y-124067050D01*
X135171614Y-124203256D01*
X134998256Y-124376614D01*
X134862050Y-124580461D01*
X134768229Y-124806964D01*
X134720400Y-125047418D01*
X134720400Y-125292582D01*
X134768229Y-125533036D01*
X134862050Y-125759539D01*
X134998256Y-125963386D01*
X135171614Y-126136744D01*
X135375461Y-126272950D01*
X135562924Y-126350600D01*
X134694692Y-126350600D01*
X130312172Y-121968080D01*
X138895525Y-121968080D01*
X138979208Y-122222261D01*
X139251775Y-122353158D01*
X139544642Y-122428365D01*
X139846553Y-122444991D01*
X140145907Y-122402397D01*
X140431199Y-122302222D01*
X140580792Y-122222261D01*
X140664475Y-121968080D01*
X139780000Y-121083605D01*
X138895525Y-121968080D01*
X130312172Y-121968080D01*
X129314645Y-120970553D01*
X138239009Y-120970553D01*
X138281603Y-121269907D01*
X138381778Y-121555199D01*
X138461739Y-121704792D01*
X138715920Y-121788475D01*
X139600395Y-120904000D01*
X138715920Y-120019525D01*
X138461739Y-120103208D01*
X138330842Y-120375775D01*
X138255635Y-120668642D01*
X138239009Y-120970553D01*
X129314645Y-120970553D01*
X128184012Y-119839920D01*
X138895525Y-119839920D01*
X139780000Y-120724395D01*
X140664475Y-119839920D01*
X140580792Y-119585739D01*
X140308225Y-119454842D01*
X140015358Y-119379635D01*
X139713447Y-119363009D01*
X139414093Y-119405603D01*
X139128801Y-119505778D01*
X138979208Y-119585739D01*
X138895525Y-119839920D01*
X128184012Y-119839920D01*
X122082934Y-113738843D01*
X125166000Y-113738843D01*
X125240689Y-113731487D01*
X125312508Y-113709701D01*
X125378696Y-113674322D01*
X125436711Y-113626711D01*
X125484322Y-113568696D01*
X125519701Y-113502508D01*
X125541487Y-113430689D01*
X125548843Y-113356000D01*
X125548843Y-113246772D01*
X126454833Y-113246772D01*
X126652931Y-113598168D01*
X127087284Y-113823890D01*
X127557327Y-113960536D01*
X128044996Y-114002856D01*
X128531552Y-113949222D01*
X128998294Y-113801697D01*
X129379069Y-113598168D01*
X129577167Y-113246772D01*
X128016000Y-111685605D01*
X126454833Y-113246772D01*
X125548843Y-113246772D01*
X125548843Y-111804419D01*
X125572778Y-112021552D01*
X125720303Y-112488294D01*
X125923832Y-112869069D01*
X126275228Y-113067167D01*
X127836395Y-111506000D01*
X128195605Y-111506000D01*
X129756772Y-113067167D01*
X130108168Y-112869069D01*
X130333890Y-112434716D01*
X130470536Y-111964673D01*
X130489366Y-111747685D01*
X130570736Y-112156759D01*
X130738913Y-112562775D01*
X130983069Y-112928180D01*
X131293820Y-113238931D01*
X131659225Y-113483087D01*
X132065241Y-113651264D01*
X132496266Y-113737000D01*
X132935734Y-113737000D01*
X133275120Y-113669492D01*
X135499000Y-113669492D01*
X135499000Y-114138508D01*
X135590500Y-114598512D01*
X135769985Y-115031827D01*
X136030556Y-115421799D01*
X136362201Y-115753444D01*
X136752173Y-116014015D01*
X137185488Y-116193500D01*
X137645492Y-116285000D01*
X138114508Y-116285000D01*
X138574512Y-116193500D01*
X139007827Y-116014015D01*
X139397799Y-115753444D01*
X139729444Y-115421799D01*
X139990015Y-115031827D01*
X140169500Y-114598512D01*
X140261000Y-114138508D01*
X140261000Y-113669492D01*
X140169500Y-113209488D01*
X139990015Y-112776173D01*
X139729444Y-112386201D01*
X139397799Y-112054556D01*
X139007827Y-111793985D01*
X138574512Y-111614500D01*
X138114508Y-111523000D01*
X137645492Y-111523000D01*
X137185488Y-111614500D01*
X136752173Y-111793985D01*
X136362201Y-112054556D01*
X136030556Y-112386201D01*
X135769985Y-112776173D01*
X135590500Y-113209488D01*
X135499000Y-113669492D01*
X133275120Y-113669492D01*
X133366759Y-113651264D01*
X133772775Y-113483087D01*
X134138180Y-113238931D01*
X134448931Y-112928180D01*
X134693087Y-112562775D01*
X134861264Y-112156759D01*
X134947000Y-111725734D01*
X134947000Y-111286266D01*
X134861264Y-110855241D01*
X134693087Y-110449225D01*
X134448931Y-110083820D01*
X134138180Y-109773069D01*
X133772775Y-109528913D01*
X133366759Y-109360736D01*
X132935734Y-109275000D01*
X132496266Y-109275000D01*
X132065241Y-109360736D01*
X131659225Y-109528913D01*
X131293820Y-109773069D01*
X130983069Y-110083820D01*
X130738913Y-110449225D01*
X130570736Y-110855241D01*
X130489395Y-111264171D01*
X130459222Y-110990448D01*
X130311697Y-110523706D01*
X130108168Y-110142931D01*
X129756772Y-109944833D01*
X128195605Y-111506000D01*
X127836395Y-111506000D01*
X126275228Y-109944833D01*
X125923832Y-110142931D01*
X125698110Y-110577284D01*
X125561464Y-111047327D01*
X125548843Y-111192763D01*
X125548843Y-109765228D01*
X126454833Y-109765228D01*
X128016000Y-111326395D01*
X129577167Y-109765228D01*
X129379069Y-109413832D01*
X128944716Y-109188110D01*
X128474673Y-109051464D01*
X127987004Y-109009144D01*
X127500448Y-109062778D01*
X127033706Y-109210303D01*
X126652931Y-109413832D01*
X126454833Y-109765228D01*
X125548843Y-109765228D01*
X125548843Y-109656000D01*
X125541487Y-109581311D01*
X125519701Y-109509492D01*
X125484322Y-109443304D01*
X125436711Y-109385289D01*
X125378696Y-109337678D01*
X125312508Y-109302299D01*
X125240689Y-109280513D01*
X125166000Y-109273157D01*
X123818780Y-109273157D01*
X123814678Y-109231507D01*
X123785745Y-109136125D01*
X123738759Y-109048221D01*
X123675527Y-108971173D01*
X123656220Y-108955328D01*
X121640800Y-106939909D01*
X121640800Y-104848843D01*
X125166000Y-104848843D01*
X125240689Y-104841487D01*
X125312508Y-104819701D01*
X125378696Y-104784322D01*
X125436711Y-104736711D01*
X125484322Y-104678696D01*
X125519701Y-104612508D01*
X125541487Y-104540689D01*
X125548843Y-104466000D01*
X125548843Y-103524438D01*
X125687983Y-103860351D01*
G37*
G04 #@! TD.AperFunction*
D25*
X171543724Y-117389119D02*
X172561692Y-118407087D01*
X172382087Y-118586692D01*
X171364119Y-117568724D01*
X170874452Y-117928912D01*
X170514151Y-118592882D01*
X170290306Y-119314385D01*
X170211520Y-120065695D01*
X170280822Y-120817938D01*
X170495548Y-121542208D01*
X170847445Y-122210670D01*
X170874452Y-122251088D01*
X171364119Y-122611276D01*
X172382087Y-121593309D01*
X172561692Y-121772914D01*
X171543724Y-122790881D01*
X171715642Y-123024600D01*
X168944145Y-123024600D01*
X168919299Y-123022153D01*
X168894453Y-123024600D01*
X168894446Y-123024600D01*
X168829994Y-123030948D01*
X168820106Y-123031922D01*
X168762719Y-123049330D01*
X168724725Y-123060855D01*
X168636821Y-123107841D01*
X168559773Y-123171073D01*
X168543928Y-123190380D01*
X167455785Y-124278524D01*
X167436473Y-124294373D01*
X167388256Y-124353126D01*
X167238386Y-124203256D01*
X167034539Y-124067050D01*
X166808036Y-123973229D01*
X166567582Y-123925400D01*
X166322418Y-123925400D01*
X166081964Y-123973229D01*
X165855461Y-124067050D01*
X165651614Y-124203256D01*
X165478256Y-124376614D01*
X165342050Y-124580461D01*
X165248229Y-124806964D01*
X165200400Y-125047418D01*
X165200400Y-125292582D01*
X165248229Y-125533036D01*
X165342050Y-125759539D01*
X165478256Y-125963386D01*
X165651614Y-126136744D01*
X165855461Y-126272950D01*
X166042924Y-126350600D01*
X164307076Y-126350600D01*
X164494539Y-126272950D01*
X164698386Y-126136744D01*
X164871744Y-125963386D01*
X165007950Y-125759539D01*
X165101771Y-125533036D01*
X165149600Y-125292582D01*
X165149600Y-125047418D01*
X165101771Y-124806964D01*
X165007950Y-124580461D01*
X164871744Y-124376614D01*
X164698386Y-124203256D01*
X164494539Y-124067050D01*
X164268036Y-123973229D01*
X164027582Y-123925400D01*
X163782418Y-123925400D01*
X163541964Y-123973229D01*
X163315461Y-124067050D01*
X163111614Y-124203256D01*
X162974031Y-124340839D01*
X161746876Y-123113685D01*
X161731027Y-123094373D01*
X161653979Y-123031141D01*
X161566075Y-122984155D01*
X161470693Y-122955222D01*
X161396354Y-122947900D01*
X161396346Y-122947900D01*
X161371500Y-122945453D01*
X161346654Y-122947900D01*
X156637392Y-122947900D01*
X153675305Y-119985814D01*
X153749401Y-119971075D01*
X153957413Y-119884913D01*
X154144620Y-119759826D01*
X154303826Y-119600620D01*
X154428913Y-119413413D01*
X154473251Y-119306373D01*
X154476142Y-119320910D01*
X154592156Y-119600990D01*
X154760580Y-119853056D01*
X154974944Y-120067420D01*
X155227010Y-120235844D01*
X155507090Y-120351858D01*
X155804422Y-120411000D01*
X156107578Y-120411000D01*
X156404910Y-120351858D01*
X156684990Y-120235844D01*
X156937056Y-120067420D01*
X157151420Y-119853056D01*
X157226000Y-119741438D01*
X157300580Y-119853056D01*
X157514944Y-120067420D01*
X157767010Y-120235844D01*
X158047090Y-120351858D01*
X158344422Y-120411000D01*
X158647578Y-120411000D01*
X158944910Y-120351858D01*
X159224990Y-120235844D01*
X159477056Y-120067420D01*
X159691420Y-119853056D01*
X159766000Y-119741438D01*
X159840580Y-119853056D01*
X160054944Y-120067420D01*
X160307010Y-120235844D01*
X160587090Y-120351858D01*
X160884422Y-120411000D01*
X161187578Y-120411000D01*
X161484910Y-120351858D01*
X161764990Y-120235844D01*
X162017056Y-120067420D01*
X162231420Y-119853056D01*
X162306000Y-119741438D01*
X162380580Y-119853056D01*
X162594944Y-120067420D01*
X162847010Y-120235844D01*
X163127090Y-120351858D01*
X163424422Y-120411000D01*
X163727578Y-120411000D01*
X164024910Y-120351858D01*
X164304990Y-120235844D01*
X164557056Y-120067420D01*
X164771420Y-119853056D01*
X164781770Y-119837565D01*
X165330040Y-119837565D01*
X165397020Y-120077656D01*
X165646048Y-120194756D01*
X165913135Y-120261023D01*
X166188017Y-120273910D01*
X166460133Y-120232922D01*
X166719023Y-120139636D01*
X166834980Y-120077656D01*
X166901960Y-119837565D01*
X166116000Y-119051605D01*
X165330040Y-119837565D01*
X164781770Y-119837565D01*
X164939844Y-119600990D01*
X164940505Y-119599394D01*
X165150435Y-119657960D01*
X165936395Y-118872000D01*
X166295605Y-118872000D01*
X167081565Y-119657960D01*
X167291495Y-119599394D01*
X167292156Y-119600990D01*
X167460580Y-119853056D01*
X167674944Y-120067420D01*
X167927010Y-120235844D01*
X168207090Y-120351858D01*
X168504422Y-120411000D01*
X168807578Y-120411000D01*
X169104910Y-120351858D01*
X169384990Y-120235844D01*
X169637056Y-120067420D01*
X169851420Y-119853056D01*
X170019844Y-119600990D01*
X170135858Y-119320910D01*
X170195000Y-119023578D01*
X170195000Y-118720422D01*
X170135858Y-118423090D01*
X170019844Y-118143010D01*
X169851420Y-117890944D01*
X169637056Y-117676580D01*
X169384990Y-117508156D01*
X169104910Y-117392142D01*
X168807578Y-117333000D01*
X168504422Y-117333000D01*
X168207090Y-117392142D01*
X167927010Y-117508156D01*
X167674944Y-117676580D01*
X167460580Y-117890944D01*
X167292156Y-118143010D01*
X167291495Y-118144606D01*
X167081565Y-118086040D01*
X166295605Y-118872000D01*
X165936395Y-118872000D01*
X165922253Y-118857858D01*
X166101858Y-118678253D01*
X166116000Y-118692395D01*
X166901960Y-117906435D01*
X166834980Y-117666344D01*
X166585952Y-117549244D01*
X166539464Y-117537710D01*
X167085674Y-116991500D01*
X171836204Y-116991500D01*
X171543724Y-117389119D01*
G04 #@! TA.AperFunction,Conductor*
D26*
G36*
X171543724Y-117389119D02*
G01*
X172561692Y-118407087D01*
X172382087Y-118586692D01*
X171364119Y-117568724D01*
X170874452Y-117928912D01*
X170514151Y-118592882D01*
X170290306Y-119314385D01*
X170211520Y-120065695D01*
X170280822Y-120817938D01*
X170495548Y-121542208D01*
X170847445Y-122210670D01*
X170874452Y-122251088D01*
X171364119Y-122611276D01*
X172382087Y-121593309D01*
X172561692Y-121772914D01*
X171543724Y-122790881D01*
X171715642Y-123024600D01*
X168944145Y-123024600D01*
X168919299Y-123022153D01*
X168894453Y-123024600D01*
X168894446Y-123024600D01*
X168829994Y-123030948D01*
X168820106Y-123031922D01*
X168762719Y-123049330D01*
X168724725Y-123060855D01*
X168636821Y-123107841D01*
X168559773Y-123171073D01*
X168543928Y-123190380D01*
X167455785Y-124278524D01*
X167436473Y-124294373D01*
X167388256Y-124353126D01*
X167238386Y-124203256D01*
X167034539Y-124067050D01*
X166808036Y-123973229D01*
X166567582Y-123925400D01*
X166322418Y-123925400D01*
X166081964Y-123973229D01*
X165855461Y-124067050D01*
X165651614Y-124203256D01*
X165478256Y-124376614D01*
X165342050Y-124580461D01*
X165248229Y-124806964D01*
X165200400Y-125047418D01*
X165200400Y-125292582D01*
X165248229Y-125533036D01*
X165342050Y-125759539D01*
X165478256Y-125963386D01*
X165651614Y-126136744D01*
X165855461Y-126272950D01*
X166042924Y-126350600D01*
X164307076Y-126350600D01*
X164494539Y-126272950D01*
X164698386Y-126136744D01*
X164871744Y-125963386D01*
X165007950Y-125759539D01*
X165101771Y-125533036D01*
X165149600Y-125292582D01*
X165149600Y-125047418D01*
X165101771Y-124806964D01*
X165007950Y-124580461D01*
X164871744Y-124376614D01*
X164698386Y-124203256D01*
X164494539Y-124067050D01*
X164268036Y-123973229D01*
X164027582Y-123925400D01*
X163782418Y-123925400D01*
X163541964Y-123973229D01*
X163315461Y-124067050D01*
X163111614Y-124203256D01*
X162974031Y-124340839D01*
X161746876Y-123113685D01*
X161731027Y-123094373D01*
X161653979Y-123031141D01*
X161566075Y-122984155D01*
X161470693Y-122955222D01*
X161396354Y-122947900D01*
X161396346Y-122947900D01*
X161371500Y-122945453D01*
X161346654Y-122947900D01*
X156637392Y-122947900D01*
X153675305Y-119985814D01*
X153749401Y-119971075D01*
X153957413Y-119884913D01*
X154144620Y-119759826D01*
X154303826Y-119600620D01*
X154428913Y-119413413D01*
X154473251Y-119306373D01*
X154476142Y-119320910D01*
X154592156Y-119600990D01*
X154760580Y-119853056D01*
X154974944Y-120067420D01*
X155227010Y-120235844D01*
X155507090Y-120351858D01*
X155804422Y-120411000D01*
X156107578Y-120411000D01*
X156404910Y-120351858D01*
X156684990Y-120235844D01*
X156937056Y-120067420D01*
X157151420Y-119853056D01*
X157226000Y-119741438D01*
X157300580Y-119853056D01*
X157514944Y-120067420D01*
X157767010Y-120235844D01*
X158047090Y-120351858D01*
X158344422Y-120411000D01*
X158647578Y-120411000D01*
X158944910Y-120351858D01*
X159224990Y-120235844D01*
X159477056Y-120067420D01*
X159691420Y-119853056D01*
X159766000Y-119741438D01*
X159840580Y-119853056D01*
X160054944Y-120067420D01*
X160307010Y-120235844D01*
X160587090Y-120351858D01*
X160884422Y-120411000D01*
X161187578Y-120411000D01*
X161484910Y-120351858D01*
X161764990Y-120235844D01*
X162017056Y-120067420D01*
X162231420Y-119853056D01*
X162306000Y-119741438D01*
X162380580Y-119853056D01*
X162594944Y-120067420D01*
X162847010Y-120235844D01*
X163127090Y-120351858D01*
X163424422Y-120411000D01*
X163727578Y-120411000D01*
X164024910Y-120351858D01*
X164304990Y-120235844D01*
X164557056Y-120067420D01*
X164771420Y-119853056D01*
X164781770Y-119837565D01*
X165330040Y-119837565D01*
X165397020Y-120077656D01*
X165646048Y-120194756D01*
X165913135Y-120261023D01*
X166188017Y-120273910D01*
X166460133Y-120232922D01*
X166719023Y-120139636D01*
X166834980Y-120077656D01*
X166901960Y-119837565D01*
X166116000Y-119051605D01*
X165330040Y-119837565D01*
X164781770Y-119837565D01*
X164939844Y-119600990D01*
X164940505Y-119599394D01*
X165150435Y-119657960D01*
X165936395Y-118872000D01*
X166295605Y-118872000D01*
X167081565Y-119657960D01*
X167291495Y-119599394D01*
X167292156Y-119600990D01*
X167460580Y-119853056D01*
X167674944Y-120067420D01*
X167927010Y-120235844D01*
X168207090Y-120351858D01*
X168504422Y-120411000D01*
X168807578Y-120411000D01*
X169104910Y-120351858D01*
X169384990Y-120235844D01*
X169637056Y-120067420D01*
X169851420Y-119853056D01*
X170019844Y-119600990D01*
X170135858Y-119320910D01*
X170195000Y-119023578D01*
X170195000Y-118720422D01*
X170135858Y-118423090D01*
X170019844Y-118143010D01*
X169851420Y-117890944D01*
X169637056Y-117676580D01*
X169384990Y-117508156D01*
X169104910Y-117392142D01*
X168807578Y-117333000D01*
X168504422Y-117333000D01*
X168207090Y-117392142D01*
X167927010Y-117508156D01*
X167674944Y-117676580D01*
X167460580Y-117890944D01*
X167292156Y-118143010D01*
X167291495Y-118144606D01*
X167081565Y-118086040D01*
X166295605Y-118872000D01*
X165936395Y-118872000D01*
X165922253Y-118857858D01*
X166101858Y-118678253D01*
X166116000Y-118692395D01*
X166901960Y-117906435D01*
X166834980Y-117666344D01*
X166585952Y-117549244D01*
X166539464Y-117537710D01*
X167085674Y-116991500D01*
X171836204Y-116991500D01*
X171543724Y-117389119D01*
G37*
G04 #@! TD.AperFunction*
D25*
X151069748Y-118857858D02*
X151055605Y-118872000D01*
X151841565Y-119657960D01*
X151899974Y-119641665D01*
X155733408Y-123475100D01*
X154631992Y-123475100D01*
X151344868Y-120187976D01*
X151479023Y-120139636D01*
X151594980Y-120077656D01*
X151661960Y-119837565D01*
X150876000Y-119051605D01*
X150861858Y-119065748D01*
X150682253Y-118886143D01*
X150696395Y-118872000D01*
X150682253Y-118857858D01*
X150861858Y-118678253D01*
X150876000Y-118692395D01*
X150890143Y-118678253D01*
X151069748Y-118857858D01*
G04 #@! TA.AperFunction,Conductor*
D26*
G36*
X151069748Y-118857858D02*
G01*
X151055605Y-118872000D01*
X151841565Y-119657960D01*
X151899974Y-119641665D01*
X155733408Y-123475100D01*
X154631992Y-123475100D01*
X151344868Y-120187976D01*
X151479023Y-120139636D01*
X151594980Y-120077656D01*
X151661960Y-119837565D01*
X150876000Y-119051605D01*
X150861858Y-119065748D01*
X150682253Y-118886143D01*
X150696395Y-118872000D01*
X150682253Y-118857858D01*
X150861858Y-118678253D01*
X150876000Y-118692395D01*
X150890143Y-118678253D01*
X151069748Y-118857858D01*
G37*
G04 #@! TD.AperFunction*
D25*
X140524000Y-94854692D02*
X140524001Y-101016466D01*
X140308225Y-100912842D01*
X140015358Y-100837635D01*
X139713447Y-100821009D01*
X139414093Y-100863603D01*
X139128801Y-100963778D01*
X138979208Y-101043739D01*
X138895525Y-101297920D01*
X139780000Y-102182395D01*
X139794143Y-102168253D01*
X139973748Y-102347858D01*
X139959605Y-102362000D01*
X139973748Y-102376143D01*
X139794143Y-102555748D01*
X139780000Y-102541605D01*
X138895525Y-103426080D01*
X138979208Y-103680261D01*
X139251775Y-103811158D01*
X139544642Y-103886365D01*
X139846553Y-103902991D01*
X140145907Y-103860397D01*
X140431199Y-103760222D01*
X140524001Y-103710617D01*
X140524001Y-104202244D01*
X140521553Y-104227100D01*
X140531322Y-104326292D01*
X140560255Y-104421674D01*
X140560256Y-104421675D01*
X140607242Y-104509579D01*
X140670474Y-104586627D01*
X140689781Y-104602472D01*
X148029230Y-111941922D01*
X147807827Y-111793985D01*
X147374512Y-111614500D01*
X146914508Y-111523000D01*
X146445492Y-111523000D01*
X145985488Y-111614500D01*
X145552173Y-111793985D01*
X145162201Y-112054556D01*
X144830556Y-112386201D01*
X144569985Y-112776173D01*
X144390500Y-113209488D01*
X144299000Y-113669492D01*
X144299000Y-114138508D01*
X144390500Y-114598512D01*
X144479664Y-114813772D01*
X135847400Y-106181509D01*
X135847400Y-102428553D01*
X138239009Y-102428553D01*
X138281603Y-102727907D01*
X138381778Y-103013199D01*
X138461739Y-103162792D01*
X138715920Y-103246475D01*
X139600395Y-102362000D01*
X138715920Y-101477525D01*
X138461739Y-101561208D01*
X138330842Y-101833775D01*
X138255635Y-102126642D01*
X138239009Y-102428553D01*
X135847400Y-102428553D01*
X135847400Y-96605687D01*
X136030556Y-96879799D01*
X136362201Y-97211444D01*
X136752173Y-97472015D01*
X137185488Y-97651500D01*
X137645492Y-97743000D01*
X138114508Y-97743000D01*
X138574512Y-97651500D01*
X139007827Y-97472015D01*
X139397799Y-97211444D01*
X139729444Y-96879799D01*
X139990015Y-96489827D01*
X140169500Y-96056512D01*
X140261000Y-95596508D01*
X140261000Y-95127492D01*
X140169500Y-94667488D01*
X140051204Y-94381896D01*
X140524000Y-94854692D01*
G04 #@! TA.AperFunction,Conductor*
D26*
G36*
X140524000Y-94854692D02*
G01*
X140524001Y-101016466D01*
X140308225Y-100912842D01*
X140015358Y-100837635D01*
X139713447Y-100821009D01*
X139414093Y-100863603D01*
X139128801Y-100963778D01*
X138979208Y-101043739D01*
X138895525Y-101297920D01*
X139780000Y-102182395D01*
X139794143Y-102168253D01*
X139973748Y-102347858D01*
X139959605Y-102362000D01*
X139973748Y-102376143D01*
X139794143Y-102555748D01*
X139780000Y-102541605D01*
X138895525Y-103426080D01*
X138979208Y-103680261D01*
X139251775Y-103811158D01*
X139544642Y-103886365D01*
X139846553Y-103902991D01*
X140145907Y-103860397D01*
X140431199Y-103760222D01*
X140524001Y-103710617D01*
X140524001Y-104202244D01*
X140521553Y-104227100D01*
X140531322Y-104326292D01*
X140560255Y-104421674D01*
X140560256Y-104421675D01*
X140607242Y-104509579D01*
X140670474Y-104586627D01*
X140689781Y-104602472D01*
X148029230Y-111941922D01*
X147807827Y-111793985D01*
X147374512Y-111614500D01*
X146914508Y-111523000D01*
X146445492Y-111523000D01*
X145985488Y-111614500D01*
X145552173Y-111793985D01*
X145162201Y-112054556D01*
X144830556Y-112386201D01*
X144569985Y-112776173D01*
X144390500Y-113209488D01*
X144299000Y-113669492D01*
X144299000Y-114138508D01*
X144390500Y-114598512D01*
X144479664Y-114813772D01*
X135847400Y-106181509D01*
X135847400Y-102428553D01*
X138239009Y-102428553D01*
X138281603Y-102727907D01*
X138381778Y-103013199D01*
X138461739Y-103162792D01*
X138715920Y-103246475D01*
X139600395Y-102362000D01*
X138715920Y-101477525D01*
X138461739Y-101561208D01*
X138330842Y-101833775D01*
X138255635Y-102126642D01*
X138239009Y-102428553D01*
X135847400Y-102428553D01*
X135847400Y-96605687D01*
X136030556Y-96879799D01*
X136362201Y-97211444D01*
X136752173Y-97472015D01*
X137185488Y-97651500D01*
X137645492Y-97743000D01*
X138114508Y-97743000D01*
X138574512Y-97651500D01*
X139007827Y-97472015D01*
X139397799Y-97211444D01*
X139729444Y-96879799D01*
X139990015Y-96489827D01*
X140169500Y-96056512D01*
X140261000Y-95596508D01*
X140261000Y-95127492D01*
X140169500Y-94667488D01*
X140051204Y-94381896D01*
X140524000Y-94854692D01*
G37*
G04 #@! TD.AperFunction*
D25*
X171543724Y-89449119D02*
X172561692Y-90467087D01*
X172382087Y-90646692D01*
X171364119Y-89628724D01*
X170874452Y-89988912D01*
X170514151Y-90652882D01*
X170290306Y-91374385D01*
X170211520Y-92125695D01*
X170280822Y-92877938D01*
X170495548Y-93602208D01*
X170847445Y-94270670D01*
X170874452Y-94311088D01*
X171364119Y-94671276D01*
X172382087Y-93653309D01*
X172561692Y-93832914D01*
X171543724Y-94850881D01*
X171844001Y-95259100D01*
X164706275Y-95259100D01*
X163855849Y-94408675D01*
X164050990Y-94327844D01*
X164303056Y-94159420D01*
X164517420Y-93945056D01*
X164527770Y-93929565D01*
X165076040Y-93929565D01*
X165143020Y-94169656D01*
X165392048Y-94286756D01*
X165659135Y-94353023D01*
X165934017Y-94365910D01*
X166206133Y-94324922D01*
X166465023Y-94231636D01*
X166580980Y-94169656D01*
X166647960Y-93929565D01*
X165862000Y-93143605D01*
X165076040Y-93929565D01*
X164527770Y-93929565D01*
X164685844Y-93692990D01*
X164686505Y-93691394D01*
X164896435Y-93749960D01*
X165682395Y-92964000D01*
X166041605Y-92964000D01*
X166827565Y-93749960D01*
X167037495Y-93691394D01*
X167038156Y-93692990D01*
X167206580Y-93945056D01*
X167420944Y-94159420D01*
X167673010Y-94327844D01*
X167953090Y-94443858D01*
X168250422Y-94503000D01*
X168553578Y-94503000D01*
X168850910Y-94443858D01*
X169130990Y-94327844D01*
X169383056Y-94159420D01*
X169597420Y-93945056D01*
X169765844Y-93692990D01*
X169881858Y-93412910D01*
X169941000Y-93115578D01*
X169941000Y-92812422D01*
X169881858Y-92515090D01*
X169765844Y-92235010D01*
X169597420Y-91982944D01*
X169383056Y-91768580D01*
X169130990Y-91600156D01*
X168850910Y-91484142D01*
X168553578Y-91425000D01*
X168250422Y-91425000D01*
X167953090Y-91484142D01*
X167673010Y-91600156D01*
X167420944Y-91768580D01*
X167206580Y-91982944D01*
X167038156Y-92235010D01*
X167037495Y-92236606D01*
X166827565Y-92178040D01*
X166041605Y-92964000D01*
X165682395Y-92964000D01*
X165668253Y-92949858D01*
X165847858Y-92770253D01*
X165862000Y-92784395D01*
X166647960Y-91998435D01*
X166580980Y-91758344D01*
X166331952Y-91641244D01*
X166285464Y-91629710D01*
X168849974Y-89065200D01*
X171826126Y-89065200D01*
X171543724Y-89449119D01*
G04 #@! TA.AperFunction,Conductor*
D26*
G36*
X171543724Y-89449119D02*
G01*
X172561692Y-90467087D01*
X172382087Y-90646692D01*
X171364119Y-89628724D01*
X170874452Y-89988912D01*
X170514151Y-90652882D01*
X170290306Y-91374385D01*
X170211520Y-92125695D01*
X170280822Y-92877938D01*
X170495548Y-93602208D01*
X170847445Y-94270670D01*
X170874452Y-94311088D01*
X171364119Y-94671276D01*
X172382087Y-93653309D01*
X172561692Y-93832914D01*
X171543724Y-94850881D01*
X171844001Y-95259100D01*
X164706275Y-95259100D01*
X163855849Y-94408675D01*
X164050990Y-94327844D01*
X164303056Y-94159420D01*
X164517420Y-93945056D01*
X164527770Y-93929565D01*
X165076040Y-93929565D01*
X165143020Y-94169656D01*
X165392048Y-94286756D01*
X165659135Y-94353023D01*
X165934017Y-94365910D01*
X166206133Y-94324922D01*
X166465023Y-94231636D01*
X166580980Y-94169656D01*
X166647960Y-93929565D01*
X165862000Y-93143605D01*
X165076040Y-93929565D01*
X164527770Y-93929565D01*
X164685844Y-93692990D01*
X164686505Y-93691394D01*
X164896435Y-93749960D01*
X165682395Y-92964000D01*
X166041605Y-92964000D01*
X166827565Y-93749960D01*
X167037495Y-93691394D01*
X167038156Y-93692990D01*
X167206580Y-93945056D01*
X167420944Y-94159420D01*
X167673010Y-94327844D01*
X167953090Y-94443858D01*
X168250422Y-94503000D01*
X168553578Y-94503000D01*
X168850910Y-94443858D01*
X169130990Y-94327844D01*
X169383056Y-94159420D01*
X169597420Y-93945056D01*
X169765844Y-93692990D01*
X169881858Y-93412910D01*
X169941000Y-93115578D01*
X169941000Y-92812422D01*
X169881858Y-92515090D01*
X169765844Y-92235010D01*
X169597420Y-91982944D01*
X169383056Y-91768580D01*
X169130990Y-91600156D01*
X168850910Y-91484142D01*
X168553578Y-91425000D01*
X168250422Y-91425000D01*
X167953090Y-91484142D01*
X167673010Y-91600156D01*
X167420944Y-91768580D01*
X167206580Y-91982944D01*
X167038156Y-92235010D01*
X167037495Y-92236606D01*
X166827565Y-92178040D01*
X166041605Y-92964000D01*
X165682395Y-92964000D01*
X165668253Y-92949858D01*
X165847858Y-92770253D01*
X165862000Y-92784395D01*
X166647960Y-91998435D01*
X166580980Y-91758344D01*
X166331952Y-91641244D01*
X166285464Y-91629710D01*
X168849974Y-89065200D01*
X171826126Y-89065200D01*
X171543724Y-89449119D01*
G37*
G04 #@! TD.AperFunction*
D25*
X150815748Y-92949858D02*
X150801605Y-92964000D01*
X150815748Y-92978143D01*
X150636143Y-93157748D01*
X150622000Y-93143605D01*
X150607858Y-93157748D01*
X150428253Y-92978143D01*
X150442395Y-92964000D01*
X150428253Y-92949858D01*
X150607858Y-92770253D01*
X150622000Y-92784395D01*
X150636143Y-92770253D01*
X150815748Y-92949858D01*
G04 #@! TA.AperFunction,Conductor*
D26*
G36*
X150815748Y-92949858D02*
G01*
X150801605Y-92964000D01*
X150815748Y-92978143D01*
X150636143Y-93157748D01*
X150622000Y-93143605D01*
X150607858Y-93157748D01*
X150428253Y-92978143D01*
X150442395Y-92964000D01*
X150428253Y-92949858D01*
X150607858Y-92770253D01*
X150622000Y-92784395D01*
X150636143Y-92770253D01*
X150815748Y-92949858D01*
G37*
G04 #@! TD.AperFunction*
M02*
